ISO-10303-21;
HEADER;
FILE_DESCRIPTION (( 'STEP AP203' ),
    '1' );
FILE_NAME ('COLD-TOWER-MAIN-BASE-v001.STEP',
    '2019-08-14T17:51:20',
    ( '' ),
    ( '' ),
    'SwSTEP 2.0',
    'SolidWorks 2019',
    '' );
FILE_SCHEMA (( 'CONFIG_CONTROL_DESIGN' ));
ENDSEC;

DATA;
#1 = DIRECTION ( 'NONE',  ( 0.0000000000000000000, 0.0000000000000000000, -1.000000000000000000 ) ) ;
#2 = DIRECTION ( 'NONE',  ( -0.0000000000000000000, -1.000000000000000000, -0.0000000000000000000 ) ) ;
#3 = EDGE_CURVE ( 'NONE', #1183, #1197, #499, .T. ) ;
#4 = DATE_TIME_ROLE ( 'classification_date' ) ;
#5 = ORIENTED_EDGE ( 'NONE', *, *, #459, .F. ) ;
#6 = CARTESIAN_POINT ( 'NONE',  ( 5.000000000000000000, 0.0000000000000000000, 0.0000000000000000000 ) ) ;
#7 = APPROVAL ( #645, 'UNSPECIFIED' ) ;
#8 = CARTESIAN_POINT ( 'NONE',  ( 15.00000000000000355, 3.000000000000002665, -15.00000000000001066 ) ) ;
#9 = APPLICATION_CONTEXT ( 'configuration controlled 3d designs of mechanical parts and assemblies' ) ;
#10 = CARTESIAN_POINT ( 'NONE',  ( 5.000000000000000000, 0.0000000000000000000, -145.0000000000000000 ) ) ;
#11 = CARTESIAN_POINT ( 'NONE',  ( 0.0000000000000000000, 5.000000000000000000, 0.0000000000000000000 ) ) ;
#12 = ORIENTED_EDGE ( 'NONE', *, *, #1227, .T. ) ;
#13 = CARTESIAN_POINT ( 'NONE',  ( 5.000000000000000000, 5.000000000000000000, -150.0000000000000000 ) ) ;
#14 = EDGE_CURVE ( 'NONE', #1046, #666, #327, .T. ) ;
#15 = ORIENTED_EDGE ( 'NONE', *, *, #35, .T. ) ;
#16 = VECTOR ( 'NONE', #1101, 1000.000000000000000 ) ;
#17 = VECTOR ( 'NONE', #1203, 1000.000000000000000 ) ;
#18 = DIRECTION ( 'NONE',  ( -0.0000000000000000000, -1.000000000000000000, -0.0000000000000000000 ) ) ;
#19 = DIRECTION ( 'NONE',  ( 0.0000000000000000000, 0.0000000000000000000, 1.000000000000000000 ) ) ;
#20 = AXIS2_PLACEMENT_3D ( 'NONE', #184, #857, #745 ) ;
#21 = ORIENTED_EDGE ( 'NONE', *, *, #53, .F. ) ;
#22 = CARTESIAN_POINT ( 'NONE',  ( 117.0000000000000000, 3.000000000000002665, -135.0000000000000000 ) ) ;
#23 = EDGE_CURVE ( 'NONE', #578, #612, #1001, .T. ) ;
#24 = ORIENTED_EDGE ( 'NONE', *, *, #1171, .T. ) ;
#25 = EDGE_LOOP ( 'NONE', ( #655, #1072, #396, #1116 ) ) ;
#26 = CARTESIAN_POINT ( 'NONE',  ( 65.99999999999998579, 0.0000000000000000000, -69.99999999999998579 ) ) ;
#27 = CARTESIAN_POINT ( 'NONE',  ( 117.0000000000000000, 5.000000000000000000, -79.99999999999998579 ) ) ;
#28 = ORIENTED_EDGE ( 'NONE', *, *, #14, .F. ) ;
#29 = CC_DESIGN_DATE_AND_TIME_ASSIGNMENT ( #1052, #4, ( #855 ) ) ;
#30 = DIRECTION ( 'NONE',  ( 0.0000000000000000000, -1.000000000000000000, 0.0000000000000000000 ) ) ;
#31 = DIRECTION ( 'NONE',  ( 0.0000000000000000000, 0.0000000000000000000, -1.000000000000000000 ) ) ;
#32 = DIRECTION ( 'NONE',  ( 0.0000000000000000000, 0.0000000000000000000, -1.000000000000000000 ) ) ;
#33 = ORIENTED_EDGE ( 'NONE', *, *, #709, .F. ) ;
#34 = CIRCLE ( 'NONE', #428, 3.299999999999997158 ) ;
#35 = EDGE_CURVE ( 'NONE', #205, #750, #879, .T. ) ;
#36 = ORIENTED_EDGE ( 'NONE', *, *, #732, .F. ) ;
#37 = AXIS2_PLACEMENT_3D ( 'NONE', #108, #967, #769 ) ;
#38 = CARTESIAN_POINT ( 'NONE',  ( 117.0000000000000000, -8.673617379884035472E-16, -8.699999999999990408 ) ) ;
#39 = CARTESIAN_POINT ( 'NONE',  ( 132.0000000000000000, 0.0000000000000000000, 0.0000000000000000000 ) ) ;
#40 = AXIS2_PLACEMENT_3D ( 'NONE', #63, #159, #826 ) ;
#41 = ORIENTED_EDGE ( 'NONE', *, *, #452, .F. ) ;
#42 = LOCAL_TIME ( 10, 51, 20.00000000000000000, #180 ) ;
#43 = VERTEX_POINT ( 'NONE', #495 ) ;
#44 = ORIENTED_EDGE ( 'NONE', *, *, #1155, .F. ) ;
#45 = CARTESIAN_POINT ( 'NONE',  ( 65.99999999999998579, 5.000000000000000888, -69.99999999999998579 ) ) ;
#46 = LINE ( 'NONE', #687, #410 ) ;
#47 = EDGE_CURVE ( 'NONE', #319, #784, #233, .T. ) ;
#48 = ORIENTED_EDGE ( 'NONE', *, *, #147, .F. ) ;
#49 = CARTESIAN_POINT ( 'NONE',  ( 65.99999999999998579, 5.000000000000000888, -76.29999999999999716 ) ) ;
#50 = DIRECTION ( 'NONE',  ( 0.0000000000000000000, 0.0000000000000000000, -1.000000000000000000 ) ) ;
#51 = CARTESIAN_POINT ( 'NONE',  ( 15.00000000000001421, 1.999999999999996669, -83.29999999999996874 ) ) ;
#52 = ORIENTED_EDGE ( 'NONE', *, *, #399, .T. ) ;
#53 = EDGE_CURVE ( 'NONE', #785, #1206, #75, .T. ) ;
#54 = CARTESIAN_POINT ( 'NONE',  ( 117.0000000000000000, -8.673617379884035472E-16, -141.3000000000000114 ) ) ;
#55 = CARTESIAN_POINT ( 'NONE',  ( 15.00000000000001421, 1.999999999999996669, -76.69999999999997442 ) ) ;
#56 = AXIS2_PLACEMENT_3D ( 'NONE', #213, #110, #31 ) ;
#57 = DIRECTION ( 'NONE',  ( -0.0000000000000000000, -0.0000000000000000000, 1.000000000000000000 ) ) ;
#58 = AXIS2_PLACEMENT_3D ( 'NONE', #296, #961, #379 ) ;
#59 = AXIS2_PLACEMENT_3D ( 'NONE', #613, #832, #66 ) ;
#60 = VERTEX_POINT ( 'NONE', #530 ) ;
#61 = ADVANCED_FACE ( 'NONE', ( #822 ), #241, .F. ) ;
#62 = ORIENTED_EDGE ( 'NONE', *, *, #991, .T. ) ;
#63 = CARTESIAN_POINT ( 'NONE',  ( 117.0000000000000000, 0.0000000000000000000, -135.0000000000000000 ) ) ;
#64 = CARTESIAN_POINT ( 'NONE',  ( 117.0000000000000000, 5.000000000000000888, -73.69999999999998863 ) ) ;
#65 = CALENDAR_DATE ( 2019, 14, 8 ) ;
#66 = DIRECTION ( 'NONE',  ( 0.0000000000000000000, 0.0000000000000000000, -1.000000000000000000 ) ) ;
#67 = LINE ( 'NONE', #729, #291 ) ;
#68 = PERSON_AND_ORGANIZATION ( #1020, #589 ) ;
#69 = DIRECTION ( 'NONE',  ( 0.0000000000000000000, 0.0000000000000000000, -1.000000000000000000 ) ) ;
#70 = FACE_BOUND ( 'NONE', #897, .T. ) ;
#71 = EDGE_CURVE ( 'NONE', #289, #592, #792, .T. ) ;
#72 =( LENGTH_UNIT ( ) NAMED_UNIT ( * ) SI_UNIT ( .MILLI., .METRE. ) );
#73 = CIRCLE ( 'NONE', #705, 3.299999999999997158 ) ;
#74 = AXIS2_PLACEMENT_3D ( 'NONE', #420, #317, #694 ) ;
#75 = CIRCLE ( 'NONE', #670, 3.299999999999997158 ) ;
#76 = DIRECTION ( 'NONE',  ( 0.0000000000000000000, 0.0000000000000000000, 1.000000000000000000 ) ) ;
#77 = DIRECTION ( 'NONE',  ( -0.0000000000000000000, -1.000000000000000000, -0.0000000000000000000 ) ) ;
#78 = DIRECTION ( 'NONE',  ( 0.0000000000000000000, 0.7071067811865477948, 0.7071067811865473507 ) ) ;
#79 = VECTOR ( 'NONE', #358, 1000.000000000000000 ) ;
#80 = ORIENTED_EDGE ( 'NONE', *, *, #176, .F. ) ;
#81 = CC_DESIGN_APPROVAL ( #7, ( #223 ) ) ;
#82 = CYLINDRICAL_SURFACE ( 'NONE', #712, 3.299999999999997158 ) ;
#83 = CARTESIAN_POINT ( 'NONE',  ( 117.0000000000000000, 0.0000000000000000000, -76.69999999999998863 ) ) ;
#84 = CARTESIAN_POINT ( 'NONE',  ( 15.00000000000001066, -8.673617379884035472E-16, -135.0000000000000000 ) ) ;
#85 = PERSON_AND_ORGANIZATION ( #1020, #589 ) ;
#86 = VERTEX_POINT ( 'NONE', #727 ) ;
#87 = EDGE_CURVE ( 'NONE', #639, #244, #192, .T. ) ;
#88 = CARTESIAN_POINT ( 'NONE',  ( 15.00000000000000355, 3.000000000000002665, -18.29999999999999716 ) ) ;
#89 = FACE_OUTER_BOUND ( 'NONE', #813, .T. ) ;
#90 = LINE ( 'NONE', #922, #389 ) ;
#91 = APPROVAL_ROLE ( '' ) ;
#92 = ORIENTED_EDGE ( 'NONE', *, *, #147, .T. ) ;
#93 = VECTOR ( 'NONE', #78, 999.9999999999998863 ) ;
#94 = FACE_BOUND ( 'NONE', #186, .T. ) ;
#95 = EDGE_CURVE ( 'NONE', #319, #1046, #1229, .T. ) ;
#96 = CARTESIAN_POINT ( 'NONE',  ( 132.0000000000000000, 0.0000000000000000000, -5.000000000000000000 ) ) ;
#97 = CARTESIAN_POINT ( 'NONE',  ( 65.99999999999998579, 5.000000000000000000, -66.70000000000000284 ) ) ;
#98 = APPROVAL_STATUS ( 'not_yet_approved' ) ;
#99 = VERTEX_POINT ( 'NONE', #163 ) ;
#100 = CARTESIAN_POINT ( 'NONE',  ( 5.000000000000000000, 5.000000000000000000, -150.0000000000000000 ) ) ;
#101 = CYLINDRICAL_SURFACE ( 'NONE', #1086, 3.299999999999997158 ) ;
#102 = DIRECTION ( 'NONE',  ( -0.0000000000000000000, 1.000000000000000000, -0.0000000000000000000 ) ) ;
#103 = EDGE_CURVE ( 'NONE', #1194, #488, #539, .T. ) ;
#104 = VERTEX_POINT ( 'NONE', #932 ) ;
#105 = DIRECTION ( 'NONE',  ( 0.0000000000000000000, 0.0000000000000000000, -1.000000000000000000 ) ) ;
#106 = ORIENTED_EDGE ( 'NONE', *, *, #709, .T. ) ;
#107 = CARTESIAN_POINT ( 'NONE',  ( 5.000000000000000000, 5.000000000000000000, 0.0000000000000000000 ) ) ;
#108 = CARTESIAN_POINT ( 'NONE',  ( 117.0000000000000000, 3.000000000000002665, -14.99999999999999112 ) ) ;
#109 = EDGE_LOOP ( 'NONE', ( #1162, #416, #978, #990, #464, #676, #181, #1170 ) ) ;
#110 = DIRECTION ( 'NONE',  ( 0.0000000000000000000, -1.000000000000000000, 0.0000000000000000000 ) ) ;
#111 = EDGE_CURVE ( 'NONE', #384, #1088, #354, .T. ) ;
#112 = ORIENTED_EDGE ( 'NONE', *, *, #739, .T. ) ;
#113 = AXIS2_PLACEMENT_3D ( 'NONE', #1191, #704, #235 ) ;
#114 = AXIS2_PLACEMENT_3D ( 'NONE', #717, #1024, #455 ) ;
#115 = ORIENTED_EDGE ( 'NONE', *, *, #87, .F. ) ;
#116 = CIRCLE ( 'NONE', #276, 5.000000000000000000 ) ;
#117 = DIRECTION ( 'NONE',  ( -0.0000000000000000000, -1.000000000000000000, -0.0000000000000000000 ) ) ;
#118 = VERTEX_POINT ( 'NONE', #443 ) ;
#119 = ORIENTED_EDGE ( 'NONE', *, *, #919, .F. ) ;
#120 = ORIENTED_EDGE ( 'NONE', *, *, #807, .T. ) ;
#121 = CARTESIAN_POINT ( 'NONE',  ( 117.0000000000000000, 0.0000000000000000000, -135.0000000000000000 ) ) ;
#122 = CYLINDRICAL_SURFACE ( 'NONE', #667, 3.299999999999986944 ) ;
#123 = ORIENTED_EDGE ( 'NONE', *, *, #392, .F. ) ;
#124 = EDGE_CURVE ( 'NONE', #1046, #1154, #353, .T. ) ;
#125 = ORIENTED_EDGE ( 'NONE', *, *, #240, .T. ) ;
#126 = CARTESIAN_POINT ( 'NONE',  ( 127.0000000000000000, 0.0000000000000000000, 0.0000000000000000000 ) ) ;
#127 = CARTESIAN_POINT ( 'NONE',  ( 132.0000000000000000, 5.000000000000000000, -5.000000000000000000 ) ) ;
#128 = ORIENTED_EDGE ( 'NONE', *, *, #615, .T. ) ;
#129 = CIRCLE ( 'NONE', #37, 3.299999999999985167 ) ;
#130 = ORIENTED_EDGE ( 'NONE', *, *, #1227, .F. ) ;
#131 = AXIS2_PLACEMENT_3D ( 'NONE', #618, #480, #394 ) ;
#132 = CARTESIAN_POINT ( 'NONE',  ( 132.0000000000000000, 5.000000000000000000, 0.0000000000000000000 ) ) ;
#133 = CARTESIAN_POINT ( 'NONE',  ( 15.00000000000001421, 0.0000000000000000000, -79.99999999999997158 ) ) ;
#134 = EDGE_LOOP ( 'NONE', ( #742, #128, #583, #112 ) ) ;
#135 = EDGE_LOOP ( 'NONE', ( #502, #684, #1076, #36 ) ) ;
#136 = ORIENTED_EDGE ( 'NONE', *, *, #654, .T. ) ;
#137 = CARTESIAN_POINT ( 'NONE',  ( 0.0000000000000000000, 0.0000000000000000000, 0.0000000000000000000 ) ) ;
#138 = DIRECTION ( 'NONE',  ( -0.0000000000000000000, -1.000000000000000000, -0.0000000000000000000 ) ) ;
#139 = ADVANCED_FACE ( 'NONE', ( #740 ), #632, .F. ) ;
#140 = DIRECTION ( 'NONE',  ( 0.0000000000000000000, -0.7071067811865463515, -0.7071067811865487940 ) ) ;
#141 = ORIENTED_EDGE ( 'NONE', *, *, #35, .F. ) ;
#142 = ORIENTED_EDGE ( 'NONE', *, *, #636, .T. ) ;
#143 = ORIENTED_EDGE ( 'NONE', *, *, #1000, .F. ) ;
#144 = LINE ( 'NONE', #626, #1223 ) ;
#145 = DIRECTION ( 'NONE',  ( 8.659560562354931626E-17, 0.7071067811865477948, -0.7071067811865473507 ) ) ;
#146 = CARTESIAN_POINT ( 'NONE',  ( 15.00000000000000355, 0.0000000000000000000, -15.00000000000001066 ) ) ;
#147 = EDGE_CURVE ( 'NONE', #1206, #384, #533, .T. ) ;
#148 = ORIENTED_EDGE ( 'NONE', *, *, #849, .F. ) ;
#149 = CARTESIAN_POINT ( 'NONE',  ( 15.00000000000001066, 0.0000000000000000000, -131.7000000000000171 ) ) ;
#150 = DIRECTION ( 'NONE',  ( 0.0000000000000000000, 0.0000000000000000000, -1.000000000000000000 ) ) ;
#151 = CIRCLE ( 'NONE', #348, 6.299999999999999822 ) ;
#152 = CARTESIAN_POINT ( 'NONE',  ( 65.99999999999998579, 5.000000000000000888, -69.99999999999998579 ) ) ;
#153 = AXIS2_PLACEMENT_3D ( 'NONE', #755, #863, #1165 ) ;
#154 = CC_DESIGN_DATE_AND_TIME_ASSIGNMENT ( #629, #1019, ( #223 ) ) ;
#155 = CARTESIAN_POINT ( 'NONE',  ( 15.00000000000001066, -8.673617379884035472E-16, -141.3000000000000114 ) ) ;
#156 = DIRECTION ( 'NONE',  ( -1.000000000000000000, 0.0000000000000000000, -0.0000000000000000000 ) ) ;
#157 = CARTESIAN_POINT ( 'NONE',  ( 117.0000000000000000, 0.0000000000000000000, -79.99999999999998579 ) ) ;
#158 = EDGE_CURVE ( 'NONE', #891, #211, #956, .T. ) ;
#159 = DIRECTION ( 'NONE',  ( -0.0000000000000000000, -1.000000000000000000, -0.0000000000000000000 ) ) ;
#160 = DIRECTION ( 'NONE',  ( 0.0000000000000000000, 0.0000000000000000000, -1.000000000000000000 ) ) ;
#161 = ORIENTED_EDGE ( 'NONE', *, *, #890, .F. ) ;
#162 = DIRECTION ( 'NONE',  ( -0.0000000000000000000, 1.000000000000000000, -0.0000000000000000000 ) ) ;
#163 = CARTESIAN_POINT ( 'NONE',  ( 15.00000000000001421, 0.0000000000000000000, -83.29999999999996874 ) ) ;
#164 = FACE_BOUND ( 'NONE', #1073, .T. ) ;
#165 = DIRECTION ( 'NONE',  ( 1.000000000000000000, 0.0000000000000000000, 0.0000000000000000000 ) ) ;
#166 = ORIENTED_EDGE ( 'NONE', *, *, #331, .F. ) ;
#167 = CIRCLE ( 'NONE', #1056, 6.299999999999999822 ) ;
#168 = AXIS2_PLACEMENT_3D ( 'NONE', #146, #516, #903 ) ;
#169 = AXIS2_PLACEMENT_3D ( 'NONE', #26, #401, #685 ) ;
#170 = DIRECTION ( 'NONE',  ( -0.0000000000000000000, 1.000000000000000000, -0.0000000000000000000 ) ) ;
#171 = LINE ( 'NONE', #546, #1145 ) ;
#172 = CARTESIAN_POINT ( 'NONE',  ( 15.00000000000001421, 5.000000000000000000, -79.99999999999997158 ) ) ;
#173 = APPROVAL_ROLE ( '' ) ;
#174 = ORIENTED_EDGE ( 'NONE', *, *, #491, .F. ) ;
#175 = AXIS2_PLACEMENT_3D ( 'NONE', #457, #352, #260 ) ;
#176 = EDGE_CURVE ( 'NONE', #309, #435, #447, .T. ) ;
#177 = CARTESIAN_POINT ( 'NONE',  ( 117.0000000000000000, 0.0000000000000000000, -131.7000000000000455 ) ) ;
#178 = DIRECTION ( 'NONE',  ( -0.0000000000000000000, -1.000000000000000000, 0.0000000000000000000 ) ) ;
#179 = DIRECTION ( 'NONE',  ( -0.0000000000000000000, -1.000000000000000000, -0.0000000000000000000 ) ) ;
#180 = COORDINATED_UNIVERSAL_TIME_OFFSET ( 8, 0, .BEHIND. ) ;
#181 = ORIENTED_EDGE ( 'NONE', *, *, #1000, .T. ) ;
#182 = ADVANCED_FACE ( 'NONE', ( #1009 ), #916, .F. ) ;
#183 = DIRECTION ( 'NONE',  ( 0.0000000000000000000, 0.0000000000000000000, 1.000000000000000000 ) ) ;
#184 = CARTESIAN_POINT ( 'NONE',  ( 15.00000000000000355, 5.000000000000000000, -15.00000000000001066 ) ) ;
#185 = DIRECTION ( 'NONE',  ( 0.0000000000000000000, 0.0000000000000000000, -1.000000000000000000 ) ) ;
#186 = EDGE_LOOP ( 'NONE', ( #914, #232 ) ) ;
#187 = PERSON_AND_ORGANIZATION ( #1020, #589 ) ;
#188 = EDGE_LOOP ( 'NONE', ( #48, #21, #320, #136 ) ) ;
#189 = FACE_OUTER_BOUND ( 'NONE', #653, .T. ) ;
#190 = AXIS2_PLACEMENT_3D ( 'NONE', #462, #842, #160 ) ;
#191 = ADVANCED_FACE ( 'NONE', ( #359 ), #249, .T. ) ;
#192 = CIRCLE ( 'NONE', #562, 6.299999999999999822 ) ;
#193 = PLANE ( 'NONE',  #708 ) ;
#194 = CARTESIAN_POINT ( 'NONE',  ( 127.0000000000000000, 5.000000000000000000, -150.0000000000000000 ) ) ;
#195 = ORIENTED_EDGE ( 'NONE', *, *, #1029, .F. ) ;
#196 = DIRECTION ( 'NONE',  ( 0.0000000000000000000, 0.7071067811865477948, 0.7071067811865473507 ) ) ;
#197 = ORIENTED_EDGE ( 'NONE', *, *, #1021, .T. ) ;
#198 = FACE_OUTER_BOUND ( 'NONE', #909, .T. ) ;
#199 = EDGE_CURVE ( 'NONE', #418, #244, #144, .T. ) ;
#200 = DIRECTION ( 'NONE',  ( -0.0000000000000000000, 1.000000000000000000, -0.0000000000000000000 ) ) ;
#201 = ORIENTED_EDGE ( 'NONE', *, *, #1155, .T. ) ;
#202 = DIRECTION ( 'NONE',  ( 0.0000000000000000000, 0.0000000000000000000, -1.000000000000000000 ) ) ;
#203 = ORIENTED_EDGE ( 'NONE', *, *, #405, .F. ) ;
#204 = CARTESIAN_POINT ( 'NONE',  ( 15.00000000000001066, -8.673617379884035472E-16, -135.0000000000000000 ) ) ;
#205 = VERTEX_POINT ( 'NONE', #911 ) ;
#206 = CARTESIAN_POINT ( 'NONE',  ( 65.99999999999998579, 1.999999999999996669, -69.99999999999998579 ) ) ;
#207 = VERTEX_POINT ( 'NONE', #155 ) ;
#208 = VECTOR ( 'NONE', #196, 999.9999999999998863 ) ;
#209 = AXIS2_PLACEMENT_3D ( 'NONE', #395, #2, #185 ) ;
#210 = VECTOR ( 'NONE', #605, 999.9999999999998863 ) ;
#211 = VERTEX_POINT ( 'NONE', #54 ) ;
#212 = AXIS2_PLACEMENT_3D ( 'NONE', #363, #1228, #281 ) ;
#213 = CARTESIAN_POINT ( 'NONE',  ( 127.0000000000000000, 5.000000000000000000, -145.0000000000000000 ) ) ;
#214 = DIRECTION ( 'NONE',  ( 0.0000000000000000000, -1.000000000000000000, 0.0000000000000000000 ) ) ;
#215 = EDGE_CURVE ( 'NONE', #1080, #43, #274, .T. ) ;
#216 = VECTOR ( 'NONE', #939, 1000.000000000000000 ) ;
#217 = VERTEX_POINT ( 'NONE', #245 ) ;
#218 = VERTEX_POINT ( 'NONE', #1113 ) ;
#219 = PLANE ( 'NONE',  #928 ) ;
#220 = CARTESIAN_POINT ( 'NONE',  ( 117.0000000000000000, 3.000000000000002665, -18.29999999999997584 ) ) ;
#221 = EDGE_CURVE ( 'NONE', #205, #99, #431, .T. ) ;
#222 = VERTEX_POINT ( 'NONE', #96 ) ;
#223 = PRODUCT_DEFINITION ( 'UNKNOWN', '', #1125, #1106 ) ;
#224 = ORIENTED_EDGE ( 'NONE', *, *, #1047, .F. ) ;
#225 = DIRECTION ( 'NONE',  ( 0.0000000000000000000, 0.0000000000000000000, 1.000000000000000000 ) ) ;
#226 = CARTESIAN_POINT ( 'NONE',  ( 117.0000000000000000, -8.673617379884035472E-16, -128.7000000000000171 ) ) ;
#227 = EDGE_LOOP ( 'NONE', ( #368, #549 ) ) ;
#228 = AXIS2_PLACEMENT_3D ( 'NONE', #121, #117, #315 ) ;
#229 = EDGE_CURVE ( 'NONE', #222, #612, #831, .T. ) ;
#230 = EDGE_LOOP ( 'NONE', ( #1090, #106, #1133, #1008 ) ) ;
#231 = AXIS2_PLACEMENT_3D ( 'NONE', #374, #467, #1045 ) ;
#232 = ORIENTED_EDGE ( 'NONE', *, *, #622, .F. ) ;
#233 = CIRCLE ( 'NONE', #169, 3.299999999999983391 ) ;
#234 = DIRECTION ( 'NONE',  ( -0.0000000000000000000, -1.000000000000000000, -0.0000000000000000000 ) ) ;
#235 = DIRECTION ( 'NONE',  ( 0.0000000000000000000, 0.0000000000000000000, -1.000000000000000000 ) ) ;
#236 = ORIENTED_EDGE ( 'NONE', *, *, #1054, .T. ) ;
#237 = EDGE_LOOP ( 'NONE', ( #696, #1070, #503, #715 ) ) ;
#238 = AXIS2_PLACEMENT_3D ( 'NONE', #22, #788, #1064 ) ;
#239 = ORIENTED_EDGE ( 'NONE', *, *, #14, .T. ) ;
#240 = EDGE_CURVE ( 'NONE', #330, #578, #951, .T. ) ;
#241 = CYLINDRICAL_SURFACE ( 'NONE', #40, 3.299999999999969624 ) ;
#242 = PLANE ( 'NONE',  #581 ) ;
#243 = DIRECTION ( 'NONE',  ( 0.0000000000000000000, 0.0000000000000000000, -1.000000000000000000 ) ) ;
#244 = VERTEX_POINT ( 'NONE', #663 ) ;
#245 = CARTESIAN_POINT ( 'NONE',  ( 15.00000000000000355, 3.000000000000002665, -11.70000000000002238 ) ) ;
#246 = FACE_OUTER_BOUND ( 'NONE', #543, .T. ) ;
#247 = PERSON_AND_ORGANIZATION ( #1020, #589 ) ;
#248 = ORIENTED_EDGE ( 'NONE', *, *, #103, .F. ) ;
#249 = CYLINDRICAL_SURFACE ( 'NONE', #1015, 5.000000000000004441 ) ;
#250 = CARTESIAN_POINT ( 'NONE',  ( 15.00000000000001066, 5.000000000000000000, -138.3000000000000114 ) ) ;
#251 = AXIS2_PLACEMENT_3D ( 'NONE', #569, #963, #483 ) ;
#252 = CALENDAR_DATE ( 2019, 14, 8 ) ;
#253 = CIRCLE ( 'NONE', #689, 3.299999999999997158 ) ;
#254 = CIRCLE ( 'NONE', #1205, 6.299999999999999822 ) ;
#255 = EDGE_CURVE ( 'NONE', #86, #782, #294, .T. ) ;
#256 = ADVANCED_BREP_SHAPE_REPRESENTATION ( 'COLD-TOWER-MAIN-BASE-v001', ( #723, #834 ), #1067 ) ;
#257 = ORIENTED_EDGE ( 'NONE', *, *, #797, .T. ) ;
#258 = CARTESIAN_POINT ( 'NONE',  ( 15.00000000000001066, -8.673617379884035472E-16, -128.7000000000000171 ) ) ;
#259 = DIRECTION ( 'NONE',  ( -0.0000000000000000000, 1.000000000000000000, -0.0000000000000000000 ) ) ;
#260 = DIRECTION ( 'NONE',  ( 0.0000000000000000000, 0.0000000000000000000, -1.000000000000000000 ) ) ;
#261 = DIRECTION ( 'NONE',  ( -0.0000000000000000000, 1.000000000000000000, -0.0000000000000000000 ) ) ;
#262 = DIRECTION ( 'NONE',  ( -0.0000000000000000000, -1.000000000000000000, -0.0000000000000000000 ) ) ;
#263 = DIRECTION ( 'NONE',  ( -0.0000000000000000000, 1.000000000000000000, -0.0000000000000000000 ) ) ;
#264 = APPLICATION_PROTOCOL_DEFINITION ( 'international standard', 'config_control_design', 1994, #1177 ) ;
#265 = EDGE_LOOP ( 'NONE', ( #1112, #876, #297, #1199 ) ) ;
#266 = DIRECTION ( 'NONE',  ( 0.0000000000000000000, 0.0000000000000000000, -1.000000000000000000 ) ) ;
#267 = DIRECTION ( 'NONE',  ( 0.0000000000000000000, 0.0000000000000000000, -1.000000000000000000 ) ) ;
#268 = EDGE_CURVE ( 'NONE', #423, #293, #773, .T. ) ;
#269 = CARTESIAN_POINT ( 'NONE',  ( 127.0000000000000000, 5.000000000000000000, -150.0000000000000000 ) ) ;
#270 = MECHANICAL_CONTEXT ( 'NONE', #1177, 'mechanical' ) ;
#271 = VERTEX_POINT ( 'NONE', #277 ) ;
#272 = VECTOR ( 'NONE', #138, 1000.000000000000000 ) ;
#273 = AXIS2_PLACEMENT_3D ( 'NONE', #1069, #476, #858 ) ;
#274 = CIRCLE ( 'NONE', #411, 3.299999999999985167 ) ;
#275 = DIRECTION ( 'NONE',  ( -0.0000000000000000000, -1.000000000000000000, -0.0000000000000000000 ) ) ;
#276 = AXIS2_PLACEMENT_3D ( 'NONE', #377, #662, #753 ) ;
#277 = CARTESIAN_POINT ( 'NONE',  ( 117.0000000000000000, 3.000000000000002665, -131.7000000000000455 ) ) ;
#278 = DIRECTION ( 'NONE',  ( 0.0000000000000000000, -0.7071067811865460184, -0.7071067811865490160 ) ) ;
#279 = EDGE_CURVE ( 'NONE', #612, #888, #761, .T. ) ;
#280 = EDGE_LOOP ( 'NONE', ( #166, #590 ) ) ;
#281 = DIRECTION ( 'NONE',  ( 0.0000000000000000000, 0.0000000000000000000, -1.000000000000000000 ) ) ;
#282 = DIRECTION ( 'NONE',  ( 1.000000000000000000, 0.0000000000000000000, -0.0000000000000000000 ) ) ;
#283 = DIRECTION ( 'NONE',  ( -1.000000000000000000, -0.0000000000000000000, -0.0000000000000000000 ) ) ;
#284 = DATE_AND_TIME ( #652, #42 ) ;
#285 = ORIENTED_EDGE ( 'NONE', *, *, #346, .F. ) ;
#286 = DIRECTION ( 'NONE',  ( 0.0000000000000000000, 0.0000000000000000000, 1.000000000000000000 ) ) ;
#287 = DIRECTION ( 'NONE',  ( 0.0000000000000000000, 0.0000000000000000000, -1.000000000000000000 ) ) ;
#288 = DIRECTION ( 'NONE',  ( 0.0000000000000000000, 0.0000000000000000000, 1.000000000000000000 ) ) ;
#289 = VERTEX_POINT ( 'NONE', #1157 ) ;
#290 = LINE ( 'NONE', #668, #208 ) ;
#291 = VECTOR ( 'NONE', #283, 1000.000000000000000 ) ;
#292 = ADVANCED_FACE ( 'NONE', ( #768 ), #193, .F. ) ;
#293 = VERTEX_POINT ( 'NONE', #474 ) ;
#294 = CIRCLE ( 'NONE', #996, 5.000000000000004441 ) ;
#295 = CARTESIAN_POINT ( 'NONE',  ( 0.0000000000000000000, 5.000000000000000000, -150.0000000000000000 ) ) ;
#296 = CARTESIAN_POINT ( 'NONE',  ( 15.00000000000001066, 5.000000000000000000, -135.0000000000000000 ) ) ;
#297 = ORIENTED_EDGE ( 'NONE', *, *, #1023, .T. ) ;
#298 = DIRECTION ( 'NONE',  ( -0.0000000000000000000, -1.000000000000000000, -0.0000000000000000000 ) ) ;
#299 = APPROVAL_PERSON_ORGANIZATION ( #68, #7, #173 ) ;
#300 = ORIENTED_EDGE ( 'NONE', *, *, #797, .F. ) ;
#301 = DIRECTION ( 'NONE',  ( 0.0000000000000000000, 0.0000000000000000000, -1.000000000000000000 ) ) ;
#302 = EDGE_CURVE ( 'NONE', #1093, #1049, #486, .T. ) ;
#303 = ORIENTED_EDGE ( 'NONE', *, *, #111, .T. ) ;
#304 = CYLINDRICAL_SURFACE ( 'NONE', #228, 3.299999999999969624 ) ;
#305 = ORIENTED_EDGE ( 'NONE', *, *, #215, .T. ) ;
#306 = ADVANCED_FACE ( 'NONE', ( #1136 ), #1151, .T. ) ;
#307 = ORIENTED_EDGE ( 'NONE', *, *, #534, .T. ) ;
#308 = DIRECTION ( 'NONE',  ( 0.0000000000000000000, 0.0000000000000000000, 1.000000000000000000 ) ) ;
#309 = VERTEX_POINT ( 'NONE', #83 ) ;
#310 = CONICAL_SURFACE ( 'NONE', #1079, 6.299999999999999822, 0.7853981633974499443 ) ;
#311 = CIRCLE ( 'NONE', #748, 3.299999999999997158 ) ;
#312 = VECTOR ( 'NONE', #924, 1000.000000000000000 ) ;
#313 = ORIENTED_EDGE ( 'NONE', *, *, #1147, .T. ) ;
#314 = AXIS2_PLACEMENT_3D ( 'NONE', #204, #1172, #301 ) ;
#315 = DIRECTION ( 'NONE',  ( 0.0000000000000000000, 0.0000000000000000000, -1.000000000000000000 ) ) ;
#316 = EDGE_CURVE ( 'NONE', #118, #710, #494, .T. ) ;
#317 = DIRECTION ( 'NONE',  ( -0.0000000000000000000, -1.000000000000000000, -0.0000000000000000000 ) ) ;
#318 = ADVANCED_FACE ( 'NONE', ( #198 ), #372, .T. ) ;
#319 = VERTEX_POINT ( 'NONE', #565 ) ;
#320 = ORIENTED_EDGE ( 'NONE', *, *, #497, .T. ) ;
#321 = ORIENTED_EDGE ( 'NONE', *, *, #491, .T. ) ;
#322 = DIRECTION ( 'NONE',  ( 0.0000000000000000000, 0.0000000000000000000, 1.000000000000000000 ) ) ;
#323 = DIRECTION ( 'NONE',  ( 0.0000000000000000000, 0.0000000000000000000, 1.000000000000000000 ) ) ;
#324 = ORIENTED_EDGE ( 'NONE', *, *, #1207, .F. ) ;
#325 = ORIENTED_EDGE ( 'NONE', *, *, #111, .F. ) ;
#326 = ADVANCED_FACE ( 'NONE', ( #946 ), #101, .F. ) ;
#327 = LINE ( 'NONE', #49, #210 ) ;
#328 = CARTESIAN_POINT ( 'NONE',  ( 15.00000000000000355, -8.673617379884035472E-16, -15.00000000000001066 ) ) ;
#329 = CARTESIAN_POINT ( 'NONE',  ( 132.0000000000000000, 5.000000000000000000, -145.0000000000000000 ) ) ;
#330 = VERTEX_POINT ( 'NONE', #107 ) ;
#331 = EDGE_CURVE ( 'NONE', #207, #1088, #254, .T. ) ;
#332 = ORIENTED_EDGE ( 'NONE', *, *, #199, .F. ) ;
#333 = VECTOR ( 'NONE', #336, 999.9999999999998863 ) ;
#334 = ORIENTED_EDGE ( 'NONE', *, *, #1054, .F. ) ;
#335 = DIRECTION ( 'NONE',  ( -0.0000000000000000000, 1.000000000000000000, -0.0000000000000000000 ) ) ;
#336 = DIRECTION ( 'NONE',  ( 0.0000000000000000000, 0.7071067811865477948, 0.7071067811865473507 ) ) ;
#337 = VECTOR ( 'NONE', #472, 1000.000000000000000 ) ;
#338 = ORIENTED_EDGE ( 'NONE', *, *, #158, .T. ) ;
#339 = LOCAL_TIME ( 10, 51, 20.00000000000000000, #1011 ) ;
#340 = DIRECTION ( 'NONE',  ( 0.0000000000000000000, 0.0000000000000000000, -1.000000000000000000 ) ) ;
#341 = EDGE_CURVE ( 'NONE', #888, #1093, #1087, .T. ) ;
#342 = CARTESIAN_POINT ( 'NONE',  ( 65.99999999999998579, 0.0000000000000000000, -66.70000000000000284 ) ) ;
#343 = EDGE_LOOP ( 'NONE', ( #12, #1193, #795, #398 ) ) ;
#344 = DIRECTION ( 'NONE',  ( -0.0000000000000000000, 1.000000000000000000, -0.0000000000000000000 ) ) ;
#345 = CARTESIAN_POINT ( 'NONE',  ( 117.0000000000000000, 5.000000000000000888, -86.29999999999998295 ) ) ;
#346 = EDGE_CURVE ( 'NONE', #884, #86, #171, .T. ) ;
#347 = CARTESIAN_POINT ( 'NONE',  ( 15.00000000000001421, 5.000000000000000888, -73.69999999999997442 ) ) ;
#348 = AXIS2_PLACEMENT_3D ( 'NONE', #1201, #335, #225 ) ;
#349 = DIRECTION ( 'NONE',  ( 0.0000000000000000000, 0.0000000000000000000, 1.000000000000000000 ) ) ;
#350 = CARTESIAN_POINT ( 'NONE',  ( 65.99999999999998579, 5.000000000000000000, -69.99999999999998579 ) ) ;
#351 = AXIS2_PLACEMENT_3D ( 'NONE', #713, #1195, #1010 ) ;
#352 = DIRECTION ( 'NONE',  ( 0.0000000000000000000, -1.000000000000000000, 0.0000000000000000000 ) ) ;
#353 = CIRCLE ( 'NONE', #691, 3.299999999999997158 ) ;
#354 = LINE ( 'NONE', #258, #544 ) ;
#355 = DIRECTION ( 'NONE',  ( 0.0000000000000000000, -1.000000000000000000, 0.0000000000000000000 ) ) ;
#356 = ORIENTED_EDGE ( 'NONE', *, *, #316, .T. ) ;
#357 = ADVANCED_FACE ( 'NONE', ( #89 ), #466, .F. ) ;
#358 = DIRECTION ( 'NONE',  ( -0.0000000000000000000, -1.000000000000000000, -0.0000000000000000000 ) ) ;
#359 = FACE_OUTER_BOUND ( 'NONE', #574, .T. ) ;
#360 = DIRECTION ( 'NONE',  ( 0.0000000000000000000, -1.000000000000000000, 0.0000000000000000000 ) ) ;
#361 = APPLICATION_PROTOCOL_DEFINITION ( 'international standard', 'config_control_design', 1994, #9 ) ;
#362 = ORIENTED_EDGE ( 'NONE', *, *, #1178, .T. ) ;
#363 = CARTESIAN_POINT ( 'NONE',  ( 5.000000000000000000, 0.0000000000000000000, -5.000000000000000000 ) ) ;
#364 = ADVANCED_FACE ( 'NONE', ( #1074 ), #647, .F. ) ;
#365 = DIRECTION ( 'NONE',  ( 0.0000000000000000000, 0.0000000000000000000, -1.000000000000000000 ) ) ;
#366 = LINE ( 'NONE', #747, #582 ) ;
#367 = CALENDAR_DATE ( 2019, 14, 8 ) ;
#368 = ORIENTED_EDGE ( 'NONE', *, *, #1214, .F. ) ;
#369 = AXIS2_PLACEMENT_3D ( 'NONE', #918, #413, #515 ) ;
#370 = CIRCLE ( 'NONE', #58, 3.299999999999997158 ) ;
#371 = CARTESIAN_POINT ( 'NONE',  ( 0.0000000000000000000, 0.0000000000000000000, 0.0000000000000000000 ) ) ;
#372 = CYLINDRICAL_SURFACE ( 'NONE', #471, 5.000000000000000000 ) ;
#373 = VECTOR ( 'NONE', #275, 1000.000000000000000 ) ;
#374 = CARTESIAN_POINT ( 'NONE',  ( 117.0000000000000000, -8.673617379884035472E-16, -135.0000000000000000 ) ) ;
#375 = APPROVAL_ROLE ( '' ) ;
#376 = EDGE_LOOP ( 'NONE', ( #406, #1139 ) ) ;
#377 = CARTESIAN_POINT ( 'NONE',  ( 5.000000000000000000, 5.000000000000000000, -5.000000000000000000 ) ) ;
#378 = CARTESIAN_POINT ( 'NONE',  ( 132.0000000000000000, 5.000000000000000000, 0.0000000000000000000 ) ) ;
#379 = DIRECTION ( 'NONE',  ( 0.0000000000000000000, 0.0000000000000000000, -1.000000000000000000 ) ) ;
#380 = APPROVAL_DATE_TIME ( #284, #823 ) ;
#381 = ORIENTED_EDGE ( 'NONE', *, *, #279, .T. ) ;
#382 = CARTESIAN_POINT ( 'NONE',  ( 5.000000000000000000, 5.000000000000000000, -145.0000000000000000 ) ) ;
#383 = EDGE_CURVE ( 'NONE', #86, #1194, #679, .T. ) ;
#384 = VERTEX_POINT ( 'NONE', #862 ) ;
#385 = CARTESIAN_POINT ( 'NONE',  ( 127.0000000000000000, 5.000000000000000000, 0.0000000000000000000 ) ) ;
#386 = DIRECTION ( 'NONE',  ( 1.000000000000000000, 0.0000000000000000000, 0.0000000000000000000 ) ) ;
#387 = EDGE_LOOP ( 'NONE', ( #33, #119, #1167, #305 ) ) ;
#388 = CARTESIAN_POINT ( 'NONE',  ( 15.00000000000000355, -8.673617379884035472E-16, -8.700000000000009948 ) ) ;
#389 = VECTOR ( 'NONE', #1037, 1000.000000000000000 ) ;
#390 = AXIS2_PLACEMENT_3D ( 'NONE', #1196, #895, #415 ) ;
#391 = ORIENTED_EDGE ( 'NONE', *, *, #654, .F. ) ;
#392 = EDGE_CURVE ( 'NONE', #488, #330, #116, .T. ) ;
#393 = CLOSED_SHELL ( 'NONE', ( #680, #1115, #1241, #139, #1120, #61, #908, #326, #484, #867, #414, #960, #695, #573, #528, #746, #815, #292, #436, #839, #509, #1222, #1163, #661, #357, #985, #421, #364, #555, #828, #672, #1075, #1135, #182, #597, #306, #318, #191 ) ) ;
#394 = DIRECTION ( 'NONE',  ( 0.0000000000000000000, 0.0000000000000000000, -1.000000000000000000 ) ) ;
#395 = CARTESIAN_POINT ( 'NONE',  ( 15.00000000000000355, 3.000000000000002665, -15.00000000000001066 ) ) ;
#396 = ORIENTED_EDGE ( 'NONE', *, *, #1094, .F. ) ;
#397 = DIRECTION ( 'NONE',  ( 8.659560562354948882E-17, -0.7071067811865463515, 0.7071067811865487940 ) ) ;
#398 = ORIENTED_EDGE ( 'NONE', *, *, #970, .F. ) ;
#399 = EDGE_CURVE ( 'NONE', #578, #1194, #751, .T. ) ;
#400 = ORIENTED_EDGE ( 'NONE', *, *, #331, .T. ) ;
#401 = DIRECTION ( 'NONE',  ( 0.0000000000000000000, -1.000000000000000000, 0.0000000000000000000 ) ) ;
#402 = DIRECTION ( 'NONE',  ( -0.0000000000000000000, 1.000000000000000000, -0.0000000000000000000 ) ) ;
#403 = EDGE_LOOP ( 'NONE', ( #5, #482 ) ) ;
#404 = ORIENTED_EDGE ( 'NONE', *, *, #442, .F. ) ;
#405 = EDGE_CURVE ( 'NONE', #418, #217, #793, .T. ) ;
#406 = ORIENTED_EDGE ( 'NONE', *, *, #919, .T. ) ;
#407 = CARTESIAN_POINT ( 'NONE',  ( 15.00000000000001066, 3.000000000000002665, -138.3000000000000114 ) ) ;
#408 = CARTESIAN_POINT ( 'NONE',  ( 117.0000000000000000, 5.000000000000000000, -135.0000000000000000 ) ) ;
#409 = ORIENTED_EDGE ( 'NONE', *, *, #176, .T. ) ;
#410 = VECTOR ( 'NONE', #57, 1000.000000000000000 ) ;
#411 = AXIS2_PLACEMENT_3D ( 'NONE', #430, #1209, #340 ) ;
#412 = ORIENTED_EDGE ( 'NONE', *, *, #991, .F. ) ;
#413 = DIRECTION ( 'NONE',  ( -0.0000000000000000000, 1.000000000000000000, -0.0000000000000000000 ) ) ;
#414 = ADVANCED_FACE ( 'NONE', ( #189 ), #979, .F. ) ;
#415 = DIRECTION ( 'NONE',  ( 0.0000000000000000000, 0.0000000000000000000, 1.000000000000000000 ) ) ;
#416 = ORIENTED_EDGE ( 'NONE', *, *, #580, .T. ) ;
#417 = ORIENTED_EDGE ( 'NONE', *, *, #631, .T. ) ;
#418 = VERTEX_POINT ( 'NONE', #88 ) ;
#419 = LINE ( 'NONE', #1096, #1140 ) ;
#420 = CARTESIAN_POINT ( 'NONE',  ( 117.0000000000000000, 3.000000000000002665, -135.0000000000000000 ) ) ;
#421 = ADVANCED_FACE ( 'NONE', ( #479 ), #82, .F. ) ;
#422 = ORIENTED_EDGE ( 'NONE', *, *, #1214, .T. ) ;
#423 = VERTEX_POINT ( 'NONE', #743 ) ;
#424 = DIRECTION ( 'NONE',  ( 1.000000000000000000, 0.0000000000000000000, 0.0000000000000000000 ) ) ;
#425 = DIRECTION ( 'NONE',  ( -0.0000000000000000000, -1.000000000000000000, -0.0000000000000000000 ) ) ;
#426 = DIRECTION ( 'NONE',  ( 0.0000000000000000000, 0.0000000000000000000, -1.000000000000000000 ) ) ;
#427 = ORIENTED_EDGE ( 'NONE', *, *, #1084, .T. ) ;
#428 = AXIS2_PLACEMENT_3D ( 'NONE', #206, #402, #693 ) ;
#429 = VECTOR ( 'NONE', #594, 1000.000000000000114 ) ;
#430 = CARTESIAN_POINT ( 'NONE',  ( 117.0000000000000000, 3.000000000000002665, -14.99999999999999112 ) ) ;
#431 = CIRCLE ( 'NONE', #131, 3.299999999999997158 ) ;
#432 = LINE ( 'NONE', #1006, #272 ) ;
#433 = FACE_OUTER_BOUND ( 'NONE', #702, .T. ) ;
#434 = AXIS2_PLACEMENT_3D ( 'NONE', #1044, #642, #1036 ) ;
#435 = VERTEX_POINT ( 'NONE', #957 ) ;
#436 = ADVANCED_FACE ( 'NONE', ( #945, #1043, #465, #545, #733, #845, #94, #840 ), #1245, .F. ) ;
#437 = DIRECTION ( 'NONE',  ( 8.659560562354948882E-17, -0.7071067811865463515, 0.7071067811865487940 ) ) ;
#438 = LINE ( 'NONE', #721, #1221 ) ;
#439 = APPROVAL_DATE_TIME ( #463, #7 ) ;
#440 = ORIENTED_EDGE ( 'NONE', *, *, #716, .F. ) ;
#441 = ORIENTED_EDGE ( 'NONE', *, *, #636, .F. ) ;
#442 = EDGE_CURVE ( 'NONE', #1183, #750, #877, .T. ) ;
#443 = CARTESIAN_POINT ( 'NONE',  ( 117.0000000000000000, 5.000000000000000000, -138.2999999999999829 ) ) ;
#444 = DIRECTION ( 'NONE',  ( 0.0000000000000000000, 0.0000000000000000000, -1.000000000000000000 ) ) ;
#445 = DIRECTION ( 'NONE',  ( 0.0000000000000000000, 0.0000000000000000000, -1.000000000000000000 ) ) ;
#446 = VECTOR ( 'NONE', #810, 1000.000000000000000 ) ;
#447 = LINE ( 'NONE', #734, #1063 ) ;
#448 = FACE_OUTER_BOUND ( 'NONE', #602, .T. ) ;
#449 = CIRCLE ( 'NONE', #830, 3.299999999999997158 ) ;
#450 =( NAMED_UNIT ( * ) PLANE_ANGLE_UNIT ( ) SI_UNIT ( $, .RADIAN. ) );
#451 = VECTOR ( 'NONE', #424, 1000.000000000000000 ) ;
#452 = EDGE_CURVE ( 'NONE', #99, #1183, #856, .T. ) ;
#453 = LINE ( 'NONE', #835, #79 ) ;
#454 = AXIS2_PLACEMENT_3D ( 'NONE', #152, #1220, #1119 ) ;
#455 = DIRECTION ( 'NONE',  ( 0.0000000000000000000, 0.0000000000000000000, -1.000000000000000000 ) ) ;
#456 = CYLINDRICAL_SURFACE ( 'NONE', #770, 3.299999999999997158 ) ;
#457 = CARTESIAN_POINT ( 'NONE',  ( 65.99999999999998579, 0.0000000000000000000, -69.99999999999998579 ) ) ;
#458 = ORIENTED_EDGE ( 'NONE', *, *, #564, .F. ) ;
#459 = EDGE_CURVE ( 'NONE', #1213, #1197, #1226, .T. ) ;
#460 = CARTESIAN_POINT ( 'NONE',  ( 15.00000000000001421, 5.000000000000000888, -79.99999999999997158 ) ) ;
#461 = CARTESIAN_POINT ( 'NONE',  ( 5.000000000000000000, 5.000000000000000000, -5.000000000000000000 ) ) ;
#462 = CARTESIAN_POINT ( 'NONE',  ( 117.0000000000000000, 5.000000000000000000, -14.99999999999999112 ) ) ;
#463 = DATE_AND_TIME ( #65, #878 ) ;
#464 = ORIENTED_EDGE ( 'NONE', *, *, #1094, .T. ) ;
#465 = FACE_BOUND ( 'NONE', #868, .T. ) ;
#466 = CYLINDRICAL_SURFACE ( 'NONE', #1065, 3.299999999999997158 ) ;
#467 = DIRECTION ( 'NONE',  ( -0.0000000000000000000, -1.000000000000000000, -0.0000000000000000000 ) ) ;
#468 = ORIENTED_EDGE ( 'NONE', *, *, #1192, .T. ) ;
#469 = CIRCLE ( 'NONE', #973, 5.000000000000004441 ) ;
#470 = CIRCLE ( 'NONE', #1239, 5.000000000000004441 ) ;
#471 = AXIS2_PLACEMENT_3D ( 'NONE', #461, #841, #1 ) ;
#472 = DIRECTION ( 'NONE',  ( -0.0000000000000000000, -0.0000000000000000000, 1.000000000000000000 ) ) ;
#473 = AXIS2_PLACEMENT_3D ( 'NONE', #8, #550, #266 ) ;
#474 = CARTESIAN_POINT ( 'NONE',  ( 15.00000000000000355, 5.000000000000000000, -18.29999999999999716 ) ) ;
#475 = EDGE_CURVE ( 'NONE', #710, #271, #1141, .T. ) ;
#476 = DIRECTION ( 'NONE',  ( -0.0000000000000000000, -1.000000000000000000, -0.0000000000000000000 ) ) ;
#477 = APPROVAL_DATE_TIME ( #749, #566 ) ;
#478 = VERTEX_POINT ( 'NONE', #100 ) ;
#479 = FACE_OUTER_BOUND ( 'NONE', #188, .T. ) ;
#480 = DIRECTION ( 'NONE',  ( 0.0000000000000000000, -1.000000000000000000, 0.0000000000000000000 ) ) ;
#481 = CARTESIAN_POINT ( 'NONE',  ( 117.0000000000000000, 5.000000000000000888, -86.29999999999998295 ) ) ;
#482 = ORIENTED_EDGE ( 'NONE', *, *, #1038, .F. ) ;
#483 = DIRECTION ( 'NONE',  ( 0.0000000000000000000, 0.0000000000000000000, 1.000000000000000000 ) ) ;
#484 = ADVANCED_FACE ( 'NONE', ( #556 ), #1041, .F. ) ;
#485 = ORIENTED_EDGE ( 'NONE', *, *, #475, .F. ) ;
#486 = LINE ( 'NONE', #378, #875 ) ;
#487 = CARTESIAN_POINT ( 'NONE',  ( 117.0000000000000000, 0.0000000000000000000, -79.99999999999998579 ) ) ;
#488 = VERTEX_POINT ( 'NONE', #563 ) ;
#489 = LINE ( 'NONE', #388, #894 ) ;
#490 = CIRCLE ( 'NONE', #251, 6.299999999999999822 ) ;
#491 = EDGE_CURVE ( 'NONE', #986, #435, #610, .T. ) ;
#492 = VECTOR ( 'NONE', #386, 1000.000000000000000 ) ;
#493 = ORIENTED_EDGE ( 'NONE', *, *, #497, .F. ) ;
#494 = CIRCLE ( 'NONE', #584, 3.299999999999969624 ) ;
#495 = CARTESIAN_POINT ( 'NONE',  ( 117.0000000000000000, 3.000000000000002665, -11.70000000000000639 ) ) ;
#496 = CARTESIAN_POINT ( 'NONE',  ( 0.0000000000000000000, 5.000000000000000000, 0.0000000000000000000 ) ) ;
#497 = EDGE_CURVE ( 'NONE', #785, #604, #453, .T. ) ;
#498 = ORIENTED_EDGE ( 'NONE', *, *, #622, .T. ) ;
#499 = LINE ( 'NONE', #586, #728 ) ;
#500 = DIRECTION ( 'NONE',  ( 8.659560562354952580E-17, -0.7071067811865460184, 0.7071067811865490160 ) ) ;
#501 = DIRECTION ( 'NONE',  ( -0.0000000000000000000, -1.000000000000000000, -0.0000000000000000000 ) ) ;
#502 = ORIENTED_EDGE ( 'NONE', *, *, #1147, .F. ) ;
#503 = ORIENTED_EDGE ( 'NONE', *, *, #229, .F. ) ;
#504 = LINE ( 'NONE', #1161, #829 ) ;
#505 = LINE ( 'NONE', #39, #930 ) ;
#506 = VECTOR ( 'NONE', #718, 1000.000000000000114 ) ;
#507 = ORIENTED_EDGE ( 'NONE', *, *, #774, .T. ) ;
#508 = AXIS2_PLACEMENT_3D ( 'NONE', #558, #952, #323 ) ;
#509 = ADVANCED_FACE ( 'NONE', ( #738 ), #640, .F. ) ;
#510 = ORIENTED_EDGE ( 'NONE', *, *, #732, .T. ) ;
#511 = DIRECTION ( 'NONE',  ( -1.000000000000000000, 0.0000000000000000000, 0.0000000000000000000 ) ) ;
#512 = CYLINDRICAL_SURFACE ( 'NONE', #168, 3.299999999999986944 ) ;
#513 = ORIENTED_EDGE ( 'NONE', *, *, #892, .T. ) ;
#514 = ORIENTED_EDGE ( 'NONE', *, *, #124, .F. ) ;
#515 = DIRECTION ( 'NONE',  ( 0.0000000000000000000, 0.0000000000000000000, 1.000000000000000000 ) ) ;
#516 = DIRECTION ( 'NONE',  ( -0.0000000000000000000, -1.000000000000000000, -0.0000000000000000000 ) ) ;
#517 = EDGE_CURVE ( 'NONE', #271, #899, #819, .T. ) ;
#518 = ORIENTED_EDGE ( 'NONE', *, *, #1171, .F. ) ;
#519 = DIRECTION ( 'NONE',  ( 0.0000000000000000000, -0.7071067811865463515, -0.7071067811865487940 ) ) ;
#520 = CARTESIAN_POINT ( 'NONE',  ( 127.0000000000000000, 0.0000000000000000000, -150.0000000000000000 ) ) ;
#521 = DIRECTION ( 'NONE',  ( 0.0000000000000000000, 0.0000000000000000000, -1.000000000000000000 ) ) ;
#522 = ORIENTED_EDGE ( 'NONE', *, *, #268, .F. ) ;
#523 = EDGE_CURVE ( 'NONE', #529, #986, #593, .T. ) ;
#524 = AXIS2_PLACEMENT_3D ( 'NONE', #628, #1018, #322 ) ;
#525 = AXIS2_PLACEMENT_3D ( 'NONE', #84, #179, #850 ) ;
#526 = CARTESIAN_POINT ( 'NONE',  ( 15.00000000000000355, -8.673617379884035472E-16, -15.00000000000001066 ) ) ;
#527 = DIRECTION ( 'NONE',  ( 0.0000000000000000000, 0.0000000000000000000, 1.000000000000000000 ) ) ;
#528 = ADVANCED_FACE ( 'NONE', ( #1091 ), #219, .F. ) ;
#529 = VERTEX_POINT ( 'NONE', #587 ) ;
#530 = CARTESIAN_POINT ( 'NONE',  ( 132.0000000000000000, 0.0000000000000000000, -145.0000000000000000 ) ) ;
#531 = FACE_BOUND ( 'NONE', #992, .T. ) ;
#532 = CARTESIAN_POINT ( 'NONE',  ( 0.0000000000000000000, 0.0000000000000000000, 0.0000000000000000000 ) ) ;
#533 = LINE ( 'NONE', #149, #312 ) ;
#534 = EDGE_CURVE ( 'NONE', #1154, #1046, #34, .T. ) ;
#535 = FACE_BOUND ( 'NONE', #1004, .T. ) ;
#536 = CARTESIAN_POINT ( 'NONE',  ( 0.0000000000000000000, 0.0000000000000000000, -5.000000000000000000 ) ) ;
#537 = DIRECTION ( 'NONE',  ( 0.0000000000000000000, 0.0000000000000000000, 1.000000000000000000 ) ) ;
#538 = CONICAL_SURFACE ( 'NONE', #724, 6.299999999999999822, 0.7853981633974480570 ) ;
#539 = LINE ( 'NONE', #816, #931 ) ;
#540 = CARTESIAN_POINT ( 'NONE',  ( 117.0000000000000000, -8.673617379884035472E-16, -135.0000000000000000 ) ) ;
#541 = VECTOR ( 'NONE', #140, 999.9999999999998863 ) ;
#542 = EDGE_CURVE ( 'NONE', #478, #884, #469, .T. ) ;
#543 = EDGE_LOOP ( 'NONE', ( #838, #381, #143, #125 ) ) ;
#544 = VECTOR ( 'NONE', #437, 999.9999999999998863 ) ;
#545 = FACE_BOUND ( 'NONE', #598, .T. ) ;
#546 = CARTESIAN_POINT ( 'NONE',  ( 0.0000000000000000000, 5.000000000000000000, -145.0000000000000000 ) ) ;
#547 = LINE ( 'NONE', #269, #896 ) ;
#548 = COORDINATED_UNIVERSAL_TIME_OFFSET ( 8, 0, .BEHIND. ) ;
#549 = ORIENTED_EDGE ( 'NONE', *, *, #757, .F. ) ;
#550 = DIRECTION ( 'NONE',  ( -0.0000000000000000000, -1.000000000000000000, -0.0000000000000000000 ) ) ;
#551 = CARTESIAN_POINT ( 'NONE',  ( 127.0000000000000000, 5.000000000000000000, -5.000000000000000000 ) ) ;
#552 = LINE ( 'NONE', #1132, #93 ) ;
#553 = PERSON_AND_ORGANIZATION ( #1020, #589 ) ;
#554 = ORIENTED_EDGE ( 'NONE', *, *, #3, .F. ) ;
#555 = ADVANCED_FACE ( 'NONE', ( #1180 ), #304, .F. ) ;
#556 = FACE_OUTER_BOUND ( 'NONE', #982, .T. ) ;
#557 = DIRECTION ( 'NONE',  ( 0.0000000000000000000, 0.0000000000000000000, 1.000000000000000000 ) ) ;
#558 = CARTESIAN_POINT ( 'NONE',  ( 15.00000000000001421, 5.000000000000000888, -79.99999999999997158 ) ) ;
#559 = APPROVAL_STATUS ( 'not_yet_approved' ) ;
#560 = ORIENTED_EDGE ( 'NONE', *, *, #1038, .T. ) ;
#561 = AXIS2_PLACEMENT_3D ( 'NONE', #350, #259, #288 ) ;
#562 = AXIS2_PLACEMENT_3D ( 'NONE', #637, #921, #1224 ) ;
#563 = CARTESIAN_POINT ( 'NONE',  ( 0.0000000000000000000, 5.000000000000000000, -5.000000000000000000 ) ) ;
#564 = EDGE_CURVE ( 'NONE', #43, #683, #765, .T. ) ;
#565 = CARTESIAN_POINT ( 'NONE',  ( 65.99999999999998579, 0.0000000000000000000, -73.29999999999998295 ) ) ;
#566 = APPROVAL ( #559, 'UNSPECIFIED' ) ;
#567 = CARTESIAN_POINT ( 'NONE',  ( 117.0000000000000000, 1.999999999999996669, -83.29999999999998295 ) ) ;
#568 = ORIENTED_EDGE ( 'NONE', *, *, #970, .T. ) ;
#569 = CARTESIAN_POINT ( 'NONE',  ( 117.0000000000000000, 5.000000000000000888, -79.99999999999998579 ) ) ;
#570 = ORIENTED_EDGE ( 'NONE', *, *, #757, .T. ) ;
#571 = CARTESIAN_POINT ( 'NONE',  ( 15.00000000000001066, 0.0000000000000000000, -135.0000000000000000 ) ) ;
#572 = DIRECTION ( 'NONE',  ( 0.0000000000000000000, 0.0000000000000000000, 1.000000000000000000 ) ) ;
#573 = ADVANCED_FACE ( 'NONE', ( #880 ), #874, .F. ) ;
#574 = EDGE_LOOP ( 'NONE', ( #1062, #681, #775, #285 ) ) ;
#575 = CARTESIAN_POINT ( 'NONE',  ( 117.0000000000000000, 5.000000000000000000, -83.29999999999998295 ) ) ;
#576 = EDGE_LOOP ( 'NONE', ( #412, #92, #24, #493 ) ) ;
#577 = ORIENTED_EDGE ( 'NONE', *, *, #1047, .T. ) ;
#578 = VERTEX_POINT ( 'NONE', #6 ) ;
#579 = DIRECTION ( 'NONE',  ( -0.0000000000000000000, 1.000000000000000000, -0.0000000000000000000 ) ) ;
#580 = EDGE_CURVE ( 'NONE', #1049, #981, #688, .T. ) ;
#581 = AXIS2_PLACEMENT_3D ( 'NONE', #804, #1110, #156 ) ;
#582 = VECTOR ( 'NONE', #278, 1000.000000000000114 ) ;
#583 = ORIENTED_EDGE ( 'NONE', *, *, #302, .F. ) ;
#584 = AXIS2_PLACEMENT_3D ( 'NONE', #1144, #1068, #287 ) ;
#585 = EDGE_LOOP ( 'NONE', ( #325, #391, #362, #400 ) ) ;
#586 = CARTESIAN_POINT ( 'NONE',  ( 15.00000000000001421, 5.000000000000000888, -86.29999999999996874 ) ) ;
#587 = CARTESIAN_POINT ( 'NONE',  ( 117.0000000000000000, 0.0000000000000000000, -83.29999999999998295 ) ) ;
#588 = DIRECTION ( 'NONE',  ( 0.0000000000000000000, -1.000000000000000000, 0.0000000000000000000 ) ) ;
#589 = ORGANIZATION ( 'UNSPECIFIED', 'UNSPECIFIED', '' ) ;
#590 = ORIENTED_EDGE ( 'NONE', *, *, #774, .F. ) ;
#591 = CC_DESIGN_PERSON_AND_ORGANIZATION_ASSIGNMENT ( #758, #852, ( #1125 ) ) ;
#592 = VERTEX_POINT ( 'NONE', #686 ) ;
#593 = LINE ( 'NONE', #575, #938 ) ;
#594 = DIRECTION ( 'NONE',  ( 8.659560562354952580E-17, -0.7071067811865460184, 0.7071067811865490160 ) ) ;
#595 = PRODUCT ( 'COLD-TOWER-MAIN-BASE-v001', 'COLD-TOWER-MAIN-BASE-v001', '', ( #270 ) ) ;
#596 = EDGE_LOOP ( 'NONE', ( #803, #1200, #936, #417 ) ) ;
#597 = ADVANCED_FACE ( 'NONE', ( #779 ), #1083, .T. ) ;
#598 = EDGE_LOOP ( 'NONE', ( #771, #62 ) ) ;
#599 = PLANE ( 'NONE',  #1012 ) ;
#600 = DIRECTION ( 'NONE',  ( -0.0000000000000000000, -1.000000000000000000, -0.0000000000000000000 ) ) ;
#601 = AXIS2_PLACEMENT_3D ( 'NONE', #27, #579, #308 ) ;
#602 = EDGE_LOOP ( 'NONE', ( #1232, #889, #948, #141 ) ) ;
#603 = AXIS2_PLACEMENT_3D ( 'NONE', #675, #870, #19 ) ;
#604 = VERTEX_POINT ( 'NONE', #407 ) ;
#605 = DIRECTION ( 'NONE',  ( 8.659560562354931626E-17, 0.7071067811865477948, -0.7071067811865473507 ) ) ;
#606 = PRODUCT_RELATED_PRODUCT_CATEGORY ( 'detail', '', ( #595 ) ) ;
#607 = CYLINDRICAL_SURFACE ( 'NONE', #351, 3.299999999999985167 ) ;
#608 = APPROVAL_PERSON_ORGANIZATION ( #659, #823, #91 ) ;
#609 = LINE ( 'NONE', #1003, #541 ) ;
#610 = CIRCLE ( 'NONE', #649, 3.299999999999997158 ) ;
#611 = AXIS2_PLACEMENT_3D ( 'NONE', #926, #736, #1039 ) ;
#612 = VERTEX_POINT ( 'NONE', #126 ) ;
#613 = CARTESIAN_POINT ( 'NONE',  ( 117.0000000000000000, 5.000000000000000000, -14.99999999999999112 ) ) ;
#614 = LINE ( 'NONE', #824, #446 ) ;
#615 = EDGE_CURVE ( 'NONE', #60, #1049, #504, .T. ) ;
#616 = LINE ( 'NONE', #799, #333 ) ;
#617 = EDGE_LOOP ( 'NONE', ( #440, #513, #660, #1022, #1175, #52, #1244, #690 ) ) ;
#618 = CARTESIAN_POINT ( 'NONE',  ( 15.00000000000001421, 0.0000000000000000000, -79.99999999999997158 ) ) ;
#619 = LINE ( 'NONE', #1190, #506 ) ;
#620 = PERSON_AND_ORGANIZATION_ROLE ( 'creator' ) ;
#621 = EDGE_CURVE ( 'NONE', #1154, #218, #290, .T. ) ;
#622 = EDGE_CURVE ( 'NONE', #997, #791, #490, .T. ) ;
#623 = AXIS2_PLACEMENT_3D ( 'NONE', #837, #1146, #643 ) ;
#624 = ORIENTED_EDGE ( 'NONE', *, *, #890, .T. ) ;
#625 = CIRCLE ( 'NONE', #611, 6.299999999999999822 ) ;
#626 = CARTESIAN_POINT ( 'NONE',  ( 15.00000000000000355, -8.673617379884035472E-16, -21.30000000000001137 ) ) ;
#627 = AXIS2_PLACEMENT_3D ( 'NONE', #720, #262, #69 ) ;
#628 = CARTESIAN_POINT ( 'NONE',  ( 15.00000000000001421, 1.999999999999996669, -79.99999999999997158 ) ) ;
#629 = DATE_AND_TIME ( #252, #339 ) ;
#630 = LOCAL_TIME ( 10, 51, 20.00000000000000000, #1159 ) ;
#631 = EDGE_CURVE ( 'NONE', #782, #478, #866, .T. ) ;
#632 = CYLINDRICAL_SURFACE ( 'NONE', #114, 3.299999999999985167 ) ;
#633 = CARTESIAN_POINT ( 'NONE',  ( 117.0000000000000000, 3.000000000000002665, -138.2999999999999829 ) ) ;
#634 = CARTESIAN_POINT ( 'NONE',  ( 15.00000000000001066, 5.000000000000000000, -131.7000000000000171 ) ) ;
#635 = DIRECTION ( 'NONE',  ( -0.0000000000000000000, 1.000000000000000000, -0.0000000000000000000 ) ) ;
#636 = EDGE_CURVE ( 'NONE', #217, #639, #489, .T. ) ;
#637 = CARTESIAN_POINT ( 'NONE',  ( 15.00000000000000355, -8.673617379884035472E-16, -15.00000000000001066 ) ) ;
#638 = CARTESIAN_POINT ( 'NONE',  ( 127.0000000000000000, 0.0000000000000000000, -145.0000000000000000 ) ) ;
#639 = VERTEX_POINT ( 'NONE', #1174 ) ;
#640 = CYLINDRICAL_SURFACE ( 'NONE', #777, 3.299999999999997158 ) ;
#641 = AXIS2_PLACEMENT_3D ( 'NONE', #976, #969, #783 ) ;
#642 = DIRECTION ( 'NONE',  ( -0.0000000000000000000, 1.000000000000000000, -0.0000000000000000000 ) ) ;
#643 = DIRECTION ( 'NONE',  ( 0.0000000000000000000, -0.0000000000000000000, -1.000000000000000000 ) ) ;
#644 = CIRCLE ( 'NONE', #1142, 6.300000000000001599 ) ;
#645 = APPROVAL_STATUS ( 'not_yet_approved' ) ;
#646 = ORIENTED_EDGE ( 'NONE', *, *, #405, .T. ) ;
#647 = CONICAL_SURFACE ( 'NONE', #314, 6.299999999999999822, 0.7853981633974499443 ) ;
#648 = CARTESIAN_POINT ( 'NONE',  ( 15.00000000000001421, 1.999999999999996669, -79.99999999999997158 ) ) ;
#649 = AXIS2_PLACEMENT_3D ( 'NONE', #1027, #162, #537 ) ;
#650 = DIRECTION ( 'NONE',  ( 0.0000000000000000000, -1.000000000000000000, 0.0000000000000000000 ) ) ;
#651 = CARTESIAN_POINT ( 'NONE',  ( 127.0000000000000000, 5.000000000000000000, 0.0000000000000000000 ) ) ;
#652 = CALENDAR_DATE ( 2019, 14, 8 ) ;
#653 = EDGE_LOOP ( 'NONE', ( #514, #239, #570, #1212 ) ) ;
#654 = EDGE_CURVE ( 'NONE', #604, #384, #950, .T. ) ;
#655 = ORIENTED_EDGE ( 'NONE', *, *, #383, .T. ) ;
#656 = DIRECTION ( 'NONE',  ( -0.0000000000000000000, 1.000000000000000000, -0.0000000000000000000 ) ) ;
#657 = DIRECTION ( 'NONE',  ( 0.0000000000000000000, -1.000000000000000000, 0.0000000000000000000 ) ) ;
#658 = CARTESIAN_POINT ( 'NONE',  ( 117.0000000000000000, 1.999999999999996669, -79.99999999999998579 ) ) ;
#659 = PERSON_AND_ORGANIZATION ( #1020, #589 ) ;
#660 = ORIENTED_EDGE ( 'NONE', *, *, #1099, .F. ) ;
#661 = ADVANCED_FACE ( 'NONE', ( #677 ), #538, .F. ) ;
#662 = DIRECTION ( 'NONE',  ( -0.0000000000000000000, 1.000000000000000000, -0.0000000000000000000 ) ) ;
#663 = CARTESIAN_POINT ( 'NONE',  ( 15.00000000000000355, -8.673617379884035472E-16, -21.30000000000001137 ) ) ;
#664 = CARTESIAN_POINT ( 'NONE',  ( 15.00000000000001421, 5.000000000000000888, -79.99999999999997158 ) ) ;
#665 = AXIS2_PLACEMENT_3D ( 'NONE', #540, #933, #1126 ) ;
#666 = VERTEX_POINT ( 'NONE', #900 ) ;
#667 = AXIS2_PLACEMENT_3D ( 'NONE', #1211, #501, #887 ) ;
#668 = CARTESIAN_POINT ( 'NONE',  ( 65.99999999999998579, 5.000000000000000888, -63.69999999999999574 ) ) ;
#669 = AXIS2_PLACEMENT_3D ( 'NONE', #526, #77, #836 ) ;
#670 = AXIS2_PLACEMENT_3D ( 'NONE', #1081, #30, #1028 ) ;
#671 = EDGE_LOOP ( 'NONE', ( #1160, #910 ) ) ;
#672 = ADVANCED_FACE ( 'NONE', ( #893 ), #607, .F. ) ;
#673 = DIRECTION ( 'NONE',  ( 0.0000000000000000000, 0.0000000000000000000, -1.000000000000000000 ) ) ;
#674 = AXIS2_PLACEMENT_3D ( 'NONE', #460, #656, #183 ) ;
#675 = CARTESIAN_POINT ( 'NONE',  ( 117.0000000000000000, 5.000000000000000888, -79.99999999999998579 ) ) ;
#676 = ORIENTED_EDGE ( 'NONE', *, *, #392, .T. ) ;
#677 = FACE_OUTER_BOUND ( 'NONE', #1189, .T. ) ;
#678 = ORIENTED_EDGE ( 'NONE', *, *, #1129, .T. ) ;
#679 = LINE ( 'NONE', #371, #337 ) ;
#680 = ADVANCED_FACE ( 'NONE', ( #1002 ), #310, .F. ) ;
#681 = ORIENTED_EDGE ( 'NONE', *, *, #631, .F. ) ;
#682 = DIRECTION ( 'NONE',  ( -0.0000000000000000000, 1.000000000000000000, -0.0000000000000000000 ) ) ;
#683 = VERTEX_POINT ( 'NONE', #38 ) ;
#684 = ORIENTED_EDGE ( 'NONE', *, *, #475, .T. ) ;
#685 = DIRECTION ( 'NONE',  ( 0.0000000000000000000, 0.0000000000000000000, -1.000000000000000000 ) ) ;
#686 = CARTESIAN_POINT ( 'NONE',  ( 117.0000000000000000, 5.000000000000000000, -18.29999999999997584 ) ) ;
#687 = CARTESIAN_POINT ( 'NONE',  ( 0.0000000000000000000, 5.000000000000000000, 0.0000000000000000000 ) ) ;
#688 = CIRCLE ( 'NONE', #641, 5.000000000000004441 ) ;
#689 = AXIS2_PLACEMENT_3D ( 'NONE', #487, #1158, #1059 ) ;
#690 = ORIENTED_EDGE ( 'NONE', *, *, #255, .T. ) ;
#691 = AXIS2_PLACEMENT_3D ( 'NONE', #1215, #344, #349 ) ;
#692 = EDGE_LOOP ( 'NONE', ( #441, #203, #920, #1179 ) ) ;
#693 = DIRECTION ( 'NONE',  ( 0.0000000000000000000, 0.0000000000000000000, 1.000000000000000000 ) ) ;
#694 = DIRECTION ( 'NONE',  ( 0.0000000000000000000, 0.0000000000000000000, -1.000000000000000000 ) ) ;
#695 = ADVANCED_FACE ( 'NONE', ( #912 ), #812, .F. ) ;
#696 = ORIENTED_EDGE ( 'NONE', *, *, #341, .F. ) ;
#697 = ORIENTED_EDGE ( 'NONE', *, *, #1084, .F. ) ;
#698 = FACE_OUTER_BOUND ( 'NONE', #134, .T. ) ;
#699 = DIRECTION ( 'NONE',  ( -0.0000000000000000000, -1.000000000000000000, -0.0000000000000000000 ) ) ;
#700 = ORIENTED_EDGE ( 'NONE', *, *, #883, .F. ) ;
#701 = VERTEX_POINT ( 'NONE', #520 ) ;
#702 = EDGE_LOOP ( 'NONE', ( #300, #764, #468, #646 ) ) ;
#703 = CARTESIAN_POINT ( 'NONE',  ( 117.0000000000000000, 5.000000000000000000, -131.7000000000000455 ) ) ;
#704 = DIRECTION ( 'NONE',  ( -0.0000000000000000000, -1.000000000000000000, -0.0000000000000000000 ) ) ;
#705 = AXIS2_PLACEMENT_3D ( 'NONE', #658, #263, #1225 ) ;
#706 = EDGE_LOOP ( 'NONE', ( #554, #853, #236, #885 ) ) ;
#707 = CONICAL_SURFACE ( 'NONE', #1060, 6.300000000000001599, 0.7853981633974504994 ) ;
#708 = AXIS2_PLACEMENT_3D ( 'NONE', #295, #557, #282 ) ;
#709 = EDGE_CURVE ( 'NONE', #289, #43, #432, .T. ) ;
#710 = VERTEX_POINT ( 'NONE', #703 ) ;
#711 = DIRECTION ( 'NONE',  ( -0.0000000000000000000, 1.000000000000000000, -0.0000000000000000000 ) ) ;
#712 = AXIS2_PLACEMENT_3D ( 'NONE', #1238, #1134, #949 ) ;
#713 = CARTESIAN_POINT ( 'NONE',  ( 117.0000000000000000, 0.0000000000000000000, -14.99999999999999112 ) ) ;
#714 = CARTESIAN_POINT ( 'NONE',  ( 65.99999999999998579, 1.999999999999996669, -73.29999999999999716 ) ) ;
#715 = ORIENTED_EDGE ( 'NONE', *, *, #739, .F. ) ;
#716 = EDGE_CURVE ( 'NONE', #701, #782, #419, .T. ) ;
#717 = CARTESIAN_POINT ( 'NONE',  ( 117.0000000000000000, 0.0000000000000000000, -14.99999999999999112 ) ) ;
#718 = DIRECTION ( 'NONE',  ( 0.0000000000000000000, -0.7071067811865460184, -0.7071067811865490160 ) ) ;
#719 = EDGE_LOOP ( 'NONE', ( #1187, #904 ) ) ;
#720 = CARTESIAN_POINT ( 'NONE',  ( 117.0000000000000000, -8.673617379884035472E-16, -135.0000000000000000 ) ) ;
#721 = CARTESIAN_POINT ( 'NONE',  ( 15.00000000000000355, 0.0000000000000000000, -11.70000000000002238 ) ) ;
#722 = DIRECTION ( 'NONE',  ( 0.0000000000000000000, 0.0000000000000000000, -1.000000000000000000 ) ) ;
#723 = MANIFOLD_SOLID_BREP ( 'Fillet1', #393 ) ;
#724 = AXIS2_PLACEMENT_3D ( 'NONE', #45, #993, #527 ) ;
#725 = ORIENTED_EDGE ( 'NONE', *, *, #766, .F. ) ;
#726 = CIRCLE ( 'NONE', #209, 3.299999999999986944 ) ;
#727 = CARTESIAN_POINT ( 'NONE',  ( 0.0000000000000000000, 0.0000000000000000000, -145.0000000000000000 ) ) ;
#728 = VECTOR ( 'NONE', #905, 999.9999999999998863 ) ;
#729 = CARTESIAN_POINT ( 'NONE',  ( 0.0000000000000000000, 5.000000000000000000, -150.0000000000000000 ) ) ;
#730 = DIRECTION ( 'NONE',  ( -0.0000000000000000000, -1.000000000000000000, -0.0000000000000000000 ) ) ;
#731 = CC_DESIGN_APPROVAL ( #823, ( #1125 ) ) ;
#732 = EDGE_CURVE ( 'NONE', #118, #899, #614, .T. ) ;
#733 = FACE_BOUND ( 'NONE', #403, .T. ) ;
#734 = CARTESIAN_POINT ( 'NONE',  ( 117.0000000000000000, 5.000000000000000000, -76.69999999999998863 ) ) ;
#735 = CARTESIAN_POINT ( 'NONE',  ( 117.0000000000000000, -8.673617379884035472E-16, -128.7000000000000171 ) ) ;
#736 = DIRECTION ( 'NONE',  ( -0.0000000000000000000, -1.000000000000000000, -0.0000000000000000000 ) ) ;
#737 = EDGE_LOOP ( 'NONE', ( #195, #142, #980, #332 ) ) ;
#738 = FACE_OUTER_BOUND ( 'NONE', #780, .T. ) ;
#739 = EDGE_CURVE ( 'NONE', #1093, #222, #796, .T. ) ;
#740 = FACE_OUTER_BOUND ( 'NONE', #230, .T. ) ;
#741 = DIRECTION ( 'NONE',  ( 0.0000000000000000000, 0.0000000000000000000, -1.000000000000000000 ) ) ;
#742 = ORIENTED_EDGE ( 'NONE', *, *, #1099, .T. ) ;
#743 = CARTESIAN_POINT ( 'NONE',  ( 15.00000000000000355, 5.000000000000000000, -11.70000000000002238 ) ) ;
#744 = VECTOR ( 'NONE', #500, 1000.000000000000114 ) ;
#745 = DIRECTION ( 'NONE',  ( 0.0000000000000000000, 0.0000000000000000000, -1.000000000000000000 ) ) ;
#746 = ADVANCED_FACE ( 'NONE', ( #246 ), #242, .F. ) ;
#747 = CARTESIAN_POINT ( 'NONE',  ( 117.0000000000000000, -8.673617379884035472E-16, -141.3000000000000114 ) ) ;
#748 = AXIS2_PLACEMENT_3D ( 'NONE', #157, #1127, #445 ) ;
#749 = DATE_AND_TIME ( #1243, #998 ) ;
#750 = VERTEX_POINT ( 'NONE', #55 ) ;
#751 = CIRCLE ( 'NONE', #212, 5.000000000000000000 ) ;
#752 = AXIS2_PLACEMENT_3D ( 'NONE', #648, #261, #286 ) ;
#753 = DIRECTION ( 'NONE',  ( 0.0000000000000000000, 0.0000000000000000000, -1.000000000000000000 ) ) ;
#754 = AXIS2_PLACEMENT_3D ( 'NONE', #1026, #730, #722 ) ;
#755 = CARTESIAN_POINT ( 'NONE',  ( 127.0000000000000000, 0.0000000000000000000, -5.000000000000000000 ) ) ;
#756 = CARTESIAN_POINT ( 'NONE',  ( 15.00000000000000355, 5.000000000000000000, -15.00000000000001066 ) ) ;
#757 = EDGE_CURVE ( 'NONE', #666, #218, #151, .T. ) ;
#758 = PERSON_AND_ORGANIZATION ( #1020, #589 ) ;
#759 = EDGE_LOOP ( 'NONE', ( #458, #1148, #1095, #427 ) ) ;
#760 = DIRECTION ( 'NONE',  ( 0.0000000000000000000, -1.000000000000000000, 0.0000000000000000000 ) ) ;
#761 = LINE ( 'NONE', #385, #854 ) ;
#762 = FACE_OUTER_BOUND ( 'NONE', #706, .T. ) ;
#763 = PERSON_AND_ORGANIZATION ( #1020, #589 ) ;
#764 = ORIENTED_EDGE ( 'NONE', *, *, #944, .F. ) ;
#765 = LINE ( 'NONE', #988, #744 ) ;
#766 = EDGE_CURVE ( 'NONE', #986, #997, #817, .T. ) ;
#767 = ORIENTED_EDGE ( 'NONE', *, *, #47, .F. ) ;
#768 = FACE_OUTER_BOUND ( 'NONE', #596, .T. ) ;
#769 = DIRECTION ( 'NONE',  ( 0.0000000000000000000, 0.0000000000000000000, -1.000000000000000000 ) ) ;
#770 = AXIS2_PLACEMENT_3D ( 'NONE', #172, #1137, #925 ) ;
#771 = ORIENTED_EDGE ( 'NONE', *, *, #53, .T. ) ;
#772 = DIRECTION ( 'NONE',  ( -0.0000000000000000000, 1.000000000000000000, -0.0000000000000000000 ) ) ;
#773 = CIRCLE ( 'NONE', #20, 3.299999999999986944 ) ;
#774 = EDGE_CURVE ( 'NONE', #1088, #207, #167, .T. ) ;
#775 = ORIENTED_EDGE ( 'NONE', *, *, #255, .F. ) ;
#776 = DIRECTION ( 'NONE',  ( 0.0000000000000000000, 0.0000000000000000000, 1.000000000000000000 ) ) ;
#777 = AXIS2_PLACEMENT_3D ( 'NONE', #1033, #170, #1185 ) ;
#778 = ORIENTED_EDGE ( 'NONE', *, *, #1192, .F. ) ;
#779 = FACE_OUTER_BOUND ( 'NONE', #1176, .T. ) ;
#780 = EDGE_LOOP ( 'NONE', ( #1040, #1089, #409, #624 ) ) ;
#781 = CC_DESIGN_PERSON_AND_ORGANIZATION_ASSIGNMENT ( #247, #620, ( #223 ) ) ;
#782 = VERTEX_POINT ( 'NONE', #1216 ) ;
#783 = DIRECTION ( 'NONE',  ( 0.0000000000000000000, 0.0000000000000000000, -1.000000000000000000 ) ) ;
#784 = VERTEX_POINT ( 'NONE', #342 ) ;
#785 = VERTEX_POINT ( 'NONE', #250 ) ;
#786 = EDGE_CURVE ( 'NONE', #1080, #104, #619, .T. ) ;
#787 = EDGE_LOOP ( 'NONE', ( #806, #968, #568, #307 ) ) ;
#788 = DIRECTION ( 'NONE',  ( -0.0000000000000000000, -1.000000000000000000, -0.0000000000000000000 ) ) ;
#789 = LINE ( 'NONE', #226, #429 ) ;
#790 = CIRCLE ( 'NONE', #1204, 3.299999999999986944 ) ;
#791 = VERTEX_POINT ( 'NONE', #64 ) ;
#792 = CIRCLE ( 'NONE', #59, 3.299999999999985167 ) ;
#793 = CIRCLE ( 'NONE', #473, 3.299999999999986944 ) ;
#794 = UNCERTAINTY_MEASURE_WITH_UNIT (LENGTH_MEASURE( 1.000000000000000082E-05 ), #72, 'distance_accuracy_value', 'NONE');
#795 = ORIENTED_EDGE ( 'NONE', *, *, #124, .T. ) ;
#796 = LINE ( 'NONE', #1114, #16 ) ;
#797 = EDGE_CURVE ( 'NONE', #423, #217, #438, .T. ) ;
#798 = CONICAL_SURFACE ( 'NONE', #754, 6.300000000000001599, 0.7853981633974504994 ) ;
#799 = CARTESIAN_POINT ( 'NONE',  ( 15.00000000000001421, 5.000000000000000888, -73.69999999999997442 ) ) ;
#800 = CC_DESIGN_PERSON_AND_ORGANIZATION_ASSIGNMENT ( #553, #1153, ( #855 ) ) ;
#801 = ORIENTED_EDGE ( 'NONE', *, *, #316, .F. ) ;
#802 = ORIENTED_EDGE ( 'NONE', *, *, #399, .F. ) ;
#803 = ORIENTED_EDGE ( 'NONE', *, *, #860, .F. ) ;
#804 = CARTESIAN_POINT ( 'NONE',  ( 0.0000000000000000000, 5.000000000000000000, 0.0000000000000000000 ) ) ;
#805 = CYLINDRICAL_SURFACE ( 'NONE', #390, 3.299999999999983391 ) ;
#806 = ORIENTED_EDGE ( 'NONE', *, *, #95, .F. ) ;
#807 = EDGE_CURVE ( 'NONE', #750, #1183, #847, .T. ) ;
#808 = ORIENTED_EDGE ( 'NONE', *, *, #615, .F. ) ;
#809 = CARTESIAN_POINT ( 'NONE',  ( 15.00000000000001421, 5.000000000000000000, -76.69999999999997442 ) ) ;
#810 = DIRECTION ( 'NONE',  ( -0.0000000000000000000, -1.000000000000000000, -0.0000000000000000000 ) ) ;
#811 = CARTESIAN_POINT ( 'NONE',  ( 15.00000000000000355, 0.0000000000000000000, -18.29999999999999716 ) ) ;
#812 = CONICAL_SURFACE ( 'NONE', #369, 6.299999999999999822, 0.7853981633974480570 ) ;
#813 = EDGE_LOOP ( 'NONE', ( #41, #678, #15, #120 ) ) ;
#814 = CONICAL_SURFACE ( 'NONE', #975, 6.299999999999999822, 0.7853981633974480570 ) ;
#815 = ADVANCED_FACE ( 'NONE', ( #698 ), #599, .F. ) ;
#816 = CARTESIAN_POINT ( 'NONE',  ( 0.0000000000000000000, 5.000000000000000000, -5.000000000000000000 ) ) ;
#817 = LINE ( 'NONE', #345, #1102 ) ;
#818 = FACE_OUTER_BOUND ( 'NONE', #787, .T. ) ;
#819 = CIRCLE ( 'NONE', #238, 3.299999999999969624 ) ;
#820 = ORIENTED_EDGE ( 'NONE', *, *, #1198, .T. ) ;
#821 = ORIENTED_EDGE ( 'NONE', *, *, #621, .T. ) ;
#822 = FACE_OUTER_BOUND ( 'NONE', #135, .T. ) ;
#823 = APPROVAL ( #98, 'UNSPECIFIED' ) ;
#824 = CARTESIAN_POINT ( 'NONE',  ( 117.0000000000000000, 0.0000000000000000000, -138.2999999999999829 ) ) ;
#825 = FACE_OUTER_BOUND ( 'NONE', #1100, .T. ) ;
#826 = DIRECTION ( 'NONE',  ( 0.0000000000000000000, 0.0000000000000000000, -1.000000000000000000 ) ) ;
#827 = FACE_OUTER_BOUND ( 'NONE', #343, .T. ) ;
#828 = ADVANCED_FACE ( 'NONE', ( #1235 ), #1182, .F. ) ;
#829 = VECTOR ( 'NONE', #772, 1000.000000000000000 ) ;
#830 = AXIS2_PLACEMENT_3D ( 'NONE', #133, #214, #1007 ) ;
#831 = CIRCLE ( 'NONE', #153, 5.000000000000000000 ) ;
#832 = DIRECTION ( 'NONE',  ( 0.0000000000000000000, -1.000000000000000000, 0.0000000000000000000 ) ) ;
#833 = FACE_BOUND ( 'NONE', #280, .T. ) ;
#834 = AXIS2_PLACEMENT_3D ( 'NONE', #532, #1031, #165 ) ;
#835 = CARTESIAN_POINT ( 'NONE',  ( 15.00000000000001066, 0.0000000000000000000, -138.3000000000000114 ) ) ;
#836 = DIRECTION ( 'NONE',  ( 0.0000000000000000000, 0.0000000000000000000, -1.000000000000000000 ) ) ;
#837 = CARTESIAN_POINT ( 'NONE',  ( 0.0000000000000000000, 0.0000000000000000000, 0.0000000000000000000 ) ) ;
#838 = ORIENTED_EDGE ( 'NONE', *, *, #23, .T. ) ;
#839 = ADVANCED_FACE ( 'NONE', ( #70, #164, #1051, #833, #535, #531, #1030, #1025 ), #947, .T. ) ;
#840 = FACE_OUTER_BOUND ( 'NONE', #109, .T. ) ;
#841 = DIRECTION ( 'NONE',  ( 0.0000000000000000000, -1.000000000000000000, 0.0000000000000000000 ) ) ;
#842 = DIRECTION ( 'NONE',  ( 0.0000000000000000000, -1.000000000000000000, 0.0000000000000000000 ) ) ;
#843 = CARTESIAN_POINT ( 'NONE',  ( 15.00000000000001421, 5.000000000000000888, -86.29999999999996874 ) ) ;
#844 = ORIENTED_EDGE ( 'NONE', *, *, #1129, .F. ) ;
#845 = FACE_BOUND ( 'NONE', #227, .T. ) ;
#846 = EDGE_CURVE ( 'NONE', #592, #1080, #90, .T. ) ;
#847 = CIRCLE ( 'NONE', #524, 3.299999999999997158 ) ;
#848 = CARTESIAN_POINT ( 'NONE',  ( 15.00000000000001421, 5.000000000000000000, -79.99999999999997158 ) ) ;
#849 = EDGE_CURVE ( 'NONE', #435, #791, #552, .T. ) ;
#850 = DIRECTION ( 'NONE',  ( 0.0000000000000000000, 0.0000000000000000000, -1.000000000000000000 ) ) ;
#851 = CIRCLE ( 'NONE', #1164, 3.299999999999969624 ) ;
#852 = PERSON_AND_ORGANIZATION_ROLE ( 'creator' ) ;
#853 = ORIENTED_EDGE ( 'NONE', *, *, #807, .F. ) ;
#854 = VECTOR ( 'NONE', #1058, 1000.000000000000000 ) ;
#855 = SECURITY_CLASSIFICATION ( '', '', #1236 ) ;
#856 = LINE ( 'NONE', #1150, #216 ) ;
#857 = DIRECTION ( 'NONE',  ( 0.0000000000000000000, -1.000000000000000000, 0.0000000000000000000 ) ) ;
#858 = DIRECTION ( 'NONE',  ( 0.0000000000000000000, 0.0000000000000000000, -1.000000000000000000 ) ) ;
#859 = SHAPE_DEFINITION_REPRESENTATION ( #965, #256 ) ;
#860 = EDGE_CURVE ( 'NONE', #981, #478, #67, .T. ) ;
#861 = EDGE_LOOP ( 'NONE', ( #522, #257, #881, #778 ) ) ;
#862 = CARTESIAN_POINT ( 'NONE',  ( 15.00000000000001066, 3.000000000000002665, -131.7000000000000171 ) ) ;
#863 = DIRECTION ( 'NONE',  ( 0.0000000000000000000, -1.000000000000000000, 0.0000000000000000000 ) ) ;
#864 = LINE ( 'NONE', #11, #492 ) ;
#865 = ORIENTED_EDGE ( 'NONE', *, *, #534, .F. ) ;
#866 = LINE ( 'NONE', #13, #1202 ) ;
#867 = ADVANCED_FACE ( 'NONE', ( #448 ), #456, .F. ) ;
#868 = EDGE_LOOP ( 'NONE', ( #356, #313 ) ) ;
#869 = CARTESIAN_POINT ( 'NONE',  ( 15.00000000000001066, -8.673617379884035472E-16, -135.0000000000000000 ) ) ;
#870 = DIRECTION ( 'NONE',  ( -0.0000000000000000000, 1.000000000000000000, -0.0000000000000000000 ) ) ;
#871 = AXIS2_PLACEMENT_3D ( 'NONE', #1168, #298, #202 ) ;
#872 = ORIENTED_EDGE ( 'NONE', *, *, #517, .F. ) ;
#873 = AXIS2_PLACEMENT_3D ( 'NONE', #1085, #699, #426 ) ;
#874 = CYLINDRICAL_SURFACE ( 'NONE', #601, 3.299999999999997158 ) ;
#875 = VECTOR ( 'NONE', #1050, 1000.000000000000000 ) ;
#876 = ORIENTED_EDGE ( 'NONE', *, *, #564, .T. ) ;
#877 = CIRCLE ( 'NONE', #752, 3.299999999999997158 ) ;
#878 = LOCAL_TIME ( 10, 51, 20.00000000000000000, #548 ) ;
#879 = LINE ( 'NONE', #809, #1122 ) ;
#880 = FACE_OUTER_BOUND ( 'NONE', #1098, .T. ) ;
#881 = ORIENTED_EDGE ( 'NONE', *, *, #1029, .T. ) ;
#882 = ORIENTED_EDGE ( 'NONE', *, *, #3, .T. ) ;
#883 = EDGE_CURVE ( 'NONE', #981, #701, #547, .T. ) ;
#884 = VERTEX_POINT ( 'NONE', #1230 ) ;
#885 = ORIENTED_EDGE ( 'NONE', *, *, #459, .T. ) ;
#886 = DIRECTION ( 'NONE',  ( 1.000000000000000000, -0.0000000000000000000, 0.0000000000000000000 ) ) ;
#887 = DIRECTION ( 'NONE',  ( 0.0000000000000000000, 0.0000000000000000000, -1.000000000000000000 ) ) ;
#888 = VERTEX_POINT ( 'NONE', #651 ) ;
#889 = ORIENTED_EDGE ( 'NONE', *, *, #452, .T. ) ;
#890 = EDGE_CURVE ( 'NONE', #435, #986, #73, .T. ) ;
#891 = VERTEX_POINT ( 'NONE', #735 ) ;
#892 = EDGE_CURVE ( 'NONE', #701, #60, #470, .T. ) ;
#893 = FACE_OUTER_BOUND ( 'NONE', #387, .T. ) ;
#894 = VECTOR ( 'NONE', #397, 999.9999999999998863 ) ;
#895 = DIRECTION ( 'NONE',  ( -0.0000000000000000000, 1.000000000000000000, -0.0000000000000000000 ) ) ;
#896 = VECTOR ( 'NONE', #355, 1000.000000000000000 ) ;
#897 = EDGE_LOOP ( 'NONE', ( #324, #115 ) ) ;
#898 = VECTOR ( 'NONE', #1218, 1000.000000000000000 ) ;
#899 = VERTEX_POINT ( 'NONE', #633 ) ;
#900 = CARTESIAN_POINT ( 'NONE',  ( 65.99999999999998579, 5.000000000000000888, -76.29999999999999716 ) ) ;
#901 = CIRCLE ( 'NONE', #175, 3.299999999999983391 ) ;
#902 = EDGE_CURVE ( 'NONE', #211, #891, #1184, .T. ) ;
#903 = DIRECTION ( 'NONE',  ( 0.0000000000000000000, 0.0000000000000000000, -1.000000000000000000 ) ) ;
#904 = ORIENTED_EDGE ( 'NONE', *, *, #977, .F. ) ;
#905 = DIRECTION ( 'NONE',  ( 8.659560562354931626E-17, 0.7071067811865477948, -0.7071067811865473507 ) ) ;
#906 = DIRECTION ( 'NONE',  ( -1.000000000000000000, -0.0000000000000000000, -0.0000000000000000000 ) ) ;
#907 = LINE ( 'NONE', #811, #17 ) ;
#908 = ADVANCED_FACE ( 'NONE', ( #941 ), #1014, .F. ) ;
#909 = EDGE_LOOP ( 'NONE', ( #123, #248, #802, #943 ) ) ;
#910 = ORIENTED_EDGE ( 'NONE', *, *, #158, .F. ) ;
#911 = CARTESIAN_POINT ( 'NONE',  ( 15.00000000000001421, 0.0000000000000000000, -76.69999999999997442 ) ) ;
#912 = FACE_OUTER_BOUND ( 'NONE', #972, .T. ) ;
#913 = CARTESIAN_POINT ( 'NONE',  ( 65.99999999999998579, 1.999999999999996669, -66.69999999999998863 ) ) ;
#914 = ORIENTED_EDGE ( 'NONE', *, *, #1021, .F. ) ;
#915 = CIRCLE ( 'NONE', #113, 3.299999999999997158 ) ;
#916 = CONICAL_SURFACE ( 'NONE', #669, 6.299999999999999822, 0.7853981633974499443 ) ;
#917 = DIRECTION ( 'NONE',  ( -0.0000000000000000000, -1.000000000000000000, 0.0000000000000000000 ) ) ;
#918 = CARTESIAN_POINT ( 'NONE',  ( 117.0000000000000000, 5.000000000000000888, -79.99999999999998579 ) ) ;
#919 = EDGE_CURVE ( 'NONE', #592, #289, #1057, .T. ) ;
#920 = ORIENTED_EDGE ( 'NONE', *, *, #199, .T. ) ;
#921 = DIRECTION ( 'NONE',  ( -0.0000000000000000000, -1.000000000000000000, -0.0000000000000000000 ) ) ;
#922 = CARTESIAN_POINT ( 'NONE',  ( 117.0000000000000000, 0.0000000000000000000, -18.29999999999997584 ) ) ;
#923 = FACE_OUTER_BOUND ( 'NONE', #265, .T. ) ;
#924 = DIRECTION ( 'NONE',  ( -0.0000000000000000000, -1.000000000000000000, -0.0000000000000000000 ) ) ;
#925 = DIRECTION ( 'NONE',  ( 0.0000000000000000000, 0.0000000000000000000, 1.000000000000000000 ) ) ;
#926 = CARTESIAN_POINT ( 'NONE',  ( 15.00000000000000355, -8.673617379884035472E-16, -15.00000000000001066 ) ) ;
#927 = CC_DESIGN_PERSON_AND_ORGANIZATION_ASSIGNMENT ( #85, #1231, ( #595 ) ) ;
#928 = AXIS2_PLACEMENT_3D ( 'NONE', #496, #886, #105 ) ;
#929 = DIRECTION ( 'NONE',  ( -0.0000000000000000000, 1.000000000000000000, -0.0000000000000000000 ) ) ;
#930 = VECTOR ( 'NONE', #32, 1000.000000000000000 ) ;
#931 = VECTOR ( 'NONE', #1124, 1000.000000000000000 ) ;
#932 = CARTESIAN_POINT ( 'NONE',  ( 117.0000000000000000, -8.673617379884035472E-16, -21.29999999999999361 ) ) ;
#933 = DIRECTION ( 'NONE',  ( -0.0000000000000000000, -1.000000000000000000, -0.0000000000000000000 ) ) ;
#934 = DIRECTION ( 'NONE',  ( 0.0000000000000000000, 0.0000000000000000000, 1.000000000000000000 ) ) ;
#935 = AXIS2_PLACEMENT_3D ( 'NONE', #1233, #760, #1130 ) ;
#936 = ORIENTED_EDGE ( 'NONE', *, *, #716, .T. ) ;
#937 = EDGE_CURVE ( 'NONE', #899, #211, #366, .T. ) ;
#938 = VECTOR ( 'NONE', #682, 1000.000000000000000 ) ;
#939 = DIRECTION ( 'NONE',  ( -0.0000000000000000000, 1.000000000000000000, -0.0000000000000000000 ) ) ;
#940 = CARTESIAN_POINT ( 'NONE',  ( 5.000000000000000000, 5.000000000000000000, 0.0000000000000000000 ) ) ;
#941 = FACE_OUTER_BOUND ( 'NONE', #1123, .T. ) ;
#942 = DIRECTION ( 'NONE',  ( -0.0000000000000000000, 1.000000000000000000, -0.0000000000000000000 ) ) ;
#943 = ORIENTED_EDGE ( 'NONE', *, *, #240, .F. ) ;
#944 = EDGE_CURVE ( 'NONE', #293, #423, #790, .T. ) ;
#945 = FACE_BOUND ( 'NONE', #1032, .T. ) ;
#946 = FACE_OUTER_BOUND ( 'NONE', #576, .T. ) ;
#947 = PLANE ( 'NONE',  #623 ) ;
#948 = ORIENTED_EDGE ( 'NONE', *, *, #442, .T. ) ;
#949 = DIRECTION ( 'NONE',  ( 0.0000000000000000000, 0.0000000000000000000, -1.000000000000000000 ) ) ;
#950 = CIRCLE ( 'NONE', #871, 3.299999999999997158 ) ;
#951 = LINE ( 'NONE', #940, #1143 ) ;
#952 = DIRECTION ( 'NONE',  ( -0.0000000000000000000, 1.000000000000000000, -0.0000000000000000000 ) ) ;
#953 = CIRCLE ( 'NONE', #508, 6.299999999999999822 ) ;
#954 = COORDINATED_UNIVERSAL_TIME_OFFSET ( 8, 0, .BEHIND. ) ;
#955 = ORIENTED_EDGE ( 'NONE', *, *, #221, .F. ) ;
#956 = CIRCLE ( 'NONE', #627, 6.299999999999999822 ) ;
#957 = CARTESIAN_POINT ( 'NONE',  ( 117.0000000000000000, 1.999999999999996669, -76.69999999999998863 ) ) ;
#958 = CC_DESIGN_SECURITY_CLASSIFICATION ( #855, ( #1125 ) ) ;
#959 = DIRECTION ( 'NONE',  ( 0.0000000000000000000, -1.000000000000000000, 0.0000000000000000000 ) ) ;
#960 = ADVANCED_FACE ( 'NONE', ( #827 ), #1219, .F. ) ;
#961 = DIRECTION ( 'NONE',  ( 0.0000000000000000000, -1.000000000000000000, 0.0000000000000000000 ) ) ;
#962 = ORIENTED_EDGE ( 'NONE', *, *, #580, .F. ) ;
#963 = DIRECTION ( 'NONE',  ( -0.0000000000000000000, 1.000000000000000000, -0.0000000000000000000 ) ) ;
#964 = ORIENTED_EDGE ( 'NONE', *, *, #937, .T. ) ;
#965 = PRODUCT_DEFINITION_SHAPE ( 'NONE', 'NONE',  #223 ) ;
#966 = DIRECTION ( 'NONE',  ( 0.0000000000000000000, 0.0000000000000000000, -1.000000000000000000 ) ) ;
#967 = DIRECTION ( 'NONE',  ( -0.0000000000000000000, -1.000000000000000000, -0.0000000000000000000 ) ) ;
#968 = ORIENTED_EDGE ( 'NONE', *, *, #47, .T. ) ;
#969 = DIRECTION ( 'NONE',  ( -0.0000000000000000000, 1.000000000000000000, -0.0000000000000000000 ) ) ;
#970 = EDGE_CURVE ( 'NONE', #784, #1154, #1166, .T. ) ;
#971 = EDGE_LOOP ( 'NONE', ( #224, #44, #964, #1105 ) ) ;
#972 = EDGE_LOOP ( 'NONE', ( #174, #987, #498, #148 ) ) ;
#973 = AXIS2_PLACEMENT_3D ( 'NONE', #382, #983, #1077 ) ;
#974 = EDGE_LOOP ( 'NONE', ( #872, #577, #338, #1181 ) ) ;
#975 = AXIS2_PLACEMENT_3D ( 'NONE', #664, #200, #572 ) ;
#976 = CARTESIAN_POINT ( 'NONE',  ( 127.0000000000000000, 5.000000000000000000, -145.0000000000000000 ) ) ;
#977 = EDGE_CURVE ( 'NONE', #529, #309, #253, .T. ) ;
#978 = ORIENTED_EDGE ( 'NONE', *, *, #860, .T. ) ;
#979 = CONICAL_SURFACE ( 'NONE', #1169, 6.299999999999999822, 0.7853981633974480570 ) ;
#980 = ORIENTED_EDGE ( 'NONE', *, *, #87, .T. ) ;
#981 = VERTEX_POINT ( 'NONE', #194 ) ;
#982 = EDGE_LOOP ( 'NONE', ( #404, #882, #560, #334 ) ) ;
#983 = DIRECTION ( 'NONE',  ( -0.0000000000000000000, 1.000000000000000000, -0.0000000000000000000 ) ) ;
#984 = FACE_OUTER_BOUND ( 'NONE', #861, .T. ) ;
#985 = ADVANCED_FACE ( 'NONE', ( #762 ), #814, .F. ) ;
#986 = VERTEX_POINT ( 'NONE', #567 ) ;
#987 = ORIENTED_EDGE ( 'NONE', *, *, #766, .T. ) ;
#988 = CARTESIAN_POINT ( 'NONE',  ( 117.0000000000000000, -8.673617379884035472E-16, -8.699999999999990408 ) ) ;
#989 = CARTESIAN_POINT ( 'NONE',  ( 117.0000000000000000, -8.673617379884035472E-16, -14.99999999999999112 ) ) ;
#990 = ORIENTED_EDGE ( 'NONE', *, *, #542, .T. ) ;
#991 = EDGE_CURVE ( 'NONE', #1206, #785, #370, .T. ) ;
#992 = EDGE_LOOP ( 'NONE', ( #130, #767 ) ) ;
#993 = DIRECTION ( 'NONE',  ( -0.0000000000000000000, 1.000000000000000000, -0.0000000000000000000 ) ) ;
#994 = FACE_OUTER_BOUND ( 'NONE', #974, .T. ) ;
#995 = VECTOR ( 'NONE', #102, 1000.000000000000000 ) ;
#996 = AXIS2_PLACEMENT_3D ( 'NONE', #10, #650, #365 ) ;
#997 = VERTEX_POINT ( 'NONE', #481 ) ;
#998 = LOCAL_TIME ( 10, 51, 20.00000000000000000, #954 ) ;
#999 = ORIENTED_EDGE ( 'NONE', *, *, #892, .F. ) ;
#1000 = EDGE_CURVE ( 'NONE', #330, #888, #864, .T. ) ;
#1001 = LINE ( 'NONE', #137, #451 ) ;
#1002 = FACE_OUTER_BOUND ( 'NONE', #737, .T. ) ;
#1003 = CARTESIAN_POINT ( 'NONE',  ( 15.00000000000001066, -8.673617379884035472E-16, -141.3000000000000114 ) ) ;
#1004 = EDGE_LOOP ( 'NONE', ( #955, #844 ) ) ;
#1005 = DIRECTION ( 'NONE',  ( 0.0000000000000000000, 0.0000000000000000000, -1.000000000000000000 ) ) ;
#1006 = CARTESIAN_POINT ( 'NONE',  ( 117.0000000000000000, 0.0000000000000000000, -11.70000000000000639 ) ) ;
#1007 = DIRECTION ( 'NONE',  ( 0.0000000000000000000, 0.0000000000000000000, -1.000000000000000000 ) ) ;
#1008 = ORIENTED_EDGE ( 'NONE', *, *, #846, .F. ) ;
#1009 = FACE_OUTER_BOUND ( 'NONE', #692, .T. ) ;
#1010 = DIRECTION ( 'NONE',  ( 0.0000000000000000000, 0.0000000000000000000, -1.000000000000000000 ) ) ;
#1011 = COORDINATED_UNIVERSAL_TIME_OFFSET ( 8, 0, .BEHIND. ) ;
#1012 = AXIS2_PLACEMENT_3D ( 'NONE', #132, #511, #1242 ) ;
#1013 = EDGE_CURVE ( 'NONE', #43, #1080, #129, .T. ) ;
#1014 = CONICAL_SURFACE ( 'NONE', #525, 6.299999999999999822, 0.7853981633974499443 ) ;
#1015 = AXIS2_PLACEMENT_3D ( 'NONE', #1017, #917, #1005 ) ;
#1016 = ORIENTED_EDGE ( 'NONE', *, *, #268, .T. ) ;
#1017 = CARTESIAN_POINT ( 'NONE',  ( 5.000000000000000000, 5.000000000000000000, -145.0000000000000000 ) ) ;
#1018 = DIRECTION ( 'NONE',  ( -0.0000000000000000000, 1.000000000000000000, -0.0000000000000000000 ) ) ;
#1019 = DATE_TIME_ROLE ( 'creation_date' ) ;
#1020 = PERSON ( 'UNSPECIFIED', 'UNSPECIFIED', 'UNSPECIFIED', ('UNSPECIFIED'), ('UNSPECIFIED'), ('UNSPECIFIED') ) ;
#1021 = EDGE_CURVE ( 'NONE', #791, #997, #1082, .T. ) ;
#1022 = ORIENTED_EDGE ( 'NONE', *, *, #229, .T. ) ;
#1023 = EDGE_CURVE ( 'NONE', #683, #104, #1104, .T. ) ;
#1024 = DIRECTION ( 'NONE',  ( -0.0000000000000000000, -1.000000000000000000, -0.0000000000000000000 ) ) ;
#1025 = FACE_OUTER_BOUND ( 'NONE', #617, .T. ) ;
#1026 = CARTESIAN_POINT ( 'NONE',  ( 117.0000000000000000, -8.673617379884035472E-16, -14.99999999999999112 ) ) ;
#1027 = CARTESIAN_POINT ( 'NONE',  ( 117.0000000000000000, 1.999999999999996669, -79.99999999999998579 ) ) ;
#1028 = DIRECTION ( 'NONE',  ( 0.0000000000000000000, 0.0000000000000000000, -1.000000000000000000 ) ) ;
#1029 = EDGE_CURVE ( 'NONE', #217, #418, #726, .T. ) ;
#1030 = FACE_BOUND ( 'NONE', #719, .T. ) ;
#1031 = DIRECTION ( 'NONE',  ( 0.0000000000000000000, 0.0000000000000000000, 1.000000000000000000 ) ) ;
#1032 = EDGE_LOOP ( 'NONE', ( #1066, #1016 ) ) ;
#1033 = CARTESIAN_POINT ( 'NONE',  ( 117.0000000000000000, 5.000000000000000000, -79.99999999999998579 ) ) ;
#1034 = CIRCLE ( 'NONE', #74, 3.299999999999969624 ) ;
#1035 = AXIS2_PLACEMENT_3D ( 'NONE', #551, #959, #673 ) ;
#1036 = DIRECTION ( 'NONE',  ( 0.0000000000000000000, 0.0000000000000000000, -1.000000000000000000 ) ) ;
#1037 = DIRECTION ( 'NONE',  ( -0.0000000000000000000, -1.000000000000000000, -0.0000000000000000000 ) ) ;
#1038 = EDGE_CURVE ( 'NONE', #1197, #1213, #953, .T. ) ;
#1039 = DIRECTION ( 'NONE',  ( 0.0000000000000000000, 0.0000000000000000000, -1.000000000000000000 ) ) ;
#1040 = ORIENTED_EDGE ( 'NONE', *, *, #523, .F. ) ;
#1041 = CONICAL_SURFACE ( 'NONE', #1208, 6.299999999999999822, 0.7853981633974480570 ) ;
#1042 = AXIS2_PLACEMENT_3D ( 'NONE', #1217, #942, #934 ) ;
#1043 = FACE_BOUND ( 'NONE', #376, .T. ) ;
#1044 = CARTESIAN_POINT ( 'NONE',  ( 127.0000000000000000, 5.000000000000000000, -5.000000000000000000 ) ) ;
#1045 = DIRECTION ( 'NONE',  ( 0.0000000000000000000, 0.0000000000000000000, -1.000000000000000000 ) ) ;
#1046 = VERTEX_POINT ( 'NONE', #714 ) ;
#1047 = EDGE_CURVE ( 'NONE', #271, #891, #789, .T. ) ;
#1048 = CARTESIAN_POINT ( 'NONE',  ( 65.99999999999998579, 5.000000000000000888, -69.99999999999998579 ) ) ;
#1049 = VERTEX_POINT ( 'NONE', #329 ) ;
#1050 = DIRECTION ( 'NONE',  ( 0.0000000000000000000, 0.0000000000000000000, -1.000000000000000000 ) ) ;
#1051 = FACE_BOUND ( 'NONE', #671, .T. ) ;
#1052 = DATE_AND_TIME ( #367, #630 ) ;
#1053 = ORIENTED_EDGE ( 'NONE', *, *, #523, .T. ) ;
#1054 = EDGE_CURVE ( 'NONE', #750, #1213, #616, .T. ) ;
#1055 = DIRECTION ( 'NONE',  ( 0.0000000000000000000, 0.0000000000000000000, 1.000000000000000000 ) ) ;
#1056 = AXIS2_PLACEMENT_3D ( 'NONE', #1210, #234, #150 ) ;
#1057 = CIRCLE ( 'NONE', #190, 3.299999999999985167 ) ;
#1058 = DIRECTION ( 'NONE',  ( -0.0000000000000000000, 1.000000000000000000, -0.0000000000000000000 ) ) ;
#1059 = DIRECTION ( 'NONE',  ( 0.0000000000000000000, 0.0000000000000000000, -1.000000000000000000 ) ) ;
#1060 = AXIS2_PLACEMENT_3D ( 'NONE', #1092, #1186, #1111 ) ;
#1061 = PERSON_AND_ORGANIZATION_ROLE ( 'design_supplier' ) ;
#1062 = ORIENTED_EDGE ( 'NONE', *, *, #542, .F. ) ;
#1063 = VECTOR ( 'NONE', #1117, 1000.000000000000000 ) ;
#1064 = DIRECTION ( 'NONE',  ( 0.0000000000000000000, 0.0000000000000000000, -1.000000000000000000 ) ) ;
#1065 = AXIS2_PLACEMENT_3D ( 'NONE', #848, #1240, #776 ) ;
#1066 = ORIENTED_EDGE ( 'NONE', *, *, #944, .T. ) ;
#1067 =( GEOMETRIC_REPRESENTATION_CONTEXT ( 3 ) GLOBAL_UNCERTAINTY_ASSIGNED_CONTEXT ( ( #794 ) ) GLOBAL_UNIT_ASSIGNED_CONTEXT ( ( #72, #450, #1138 ) ) REPRESENTATION_CONTEXT ( 'NONE', 'WORKASPACE' ) );
#1068 = DIRECTION ( 'NONE',  ( 0.0000000000000000000, -1.000000000000000000, 0.0000000000000000000 ) ) ;
#1069 = CARTESIAN_POINT ( 'NONE',  ( 117.0000000000000000, -8.673617379884035472E-16, -14.99999999999999112 ) ) ;
#1070 = ORIENTED_EDGE ( 'NONE', *, *, #279, .F. ) ;
#1071 = DIRECTION ( 'NONE',  ( -0.0000000000000000000, 1.000000000000000000, -0.0000000000000000000 ) ) ;
#1072 = ORIENTED_EDGE ( 'NONE', *, *, #103, .T. ) ;
#1073 = EDGE_LOOP ( 'NONE', ( #697, #1237 ) ) ;
#1074 = FACE_OUTER_BOUND ( 'NONE', #585, .T. ) ;
#1075 = ADVANCED_FACE ( 'NONE', ( #1097 ), #707, .F. ) ;
#1076 = ORIENTED_EDGE ( 'NONE', *, *, #517, .T. ) ;
#1077 = DIRECTION ( 'NONE',  ( 0.0000000000000000000, 0.0000000000000000000, -1.000000000000000000 ) ) ;
#1078 = ORIENTED_EDGE ( 'NONE', *, *, #849, .T. ) ;
#1079 = AXIS2_PLACEMENT_3D ( 'NONE', #328, #425, #50 ) ;
#1080 = VERTEX_POINT ( 'NONE', #220 ) ;
#1081 = CARTESIAN_POINT ( 'NONE',  ( 15.00000000000001066, 5.000000000000000000, -135.0000000000000000 ) ) ;
#1082 = CIRCLE ( 'NONE', #603, 6.299999999999999822 ) ;
#1083 = CYLINDRICAL_SURFACE ( 'NONE', #56, 5.000000000000004441 ) ;
#1084 = EDGE_CURVE ( 'NONE', #104, #683, #644, .T. ) ;
#1085 = CARTESIAN_POINT ( 'NONE',  ( 117.0000000000000000, -8.673617379884035472E-16, -135.0000000000000000 ) ) ;
#1086 = AXIS2_PLACEMENT_3D ( 'NONE', #571, #1234, #966 ) ;
#1087 = CIRCLE ( 'NONE', #434, 5.000000000000000000 ) ;
#1088 = VERTEX_POINT ( 'NONE', #1103 ) ;
#1089 = ORIENTED_EDGE ( 'NONE', *, *, #977, .T. ) ;
#1090 = ORIENTED_EDGE ( 'NONE', *, *, #71, .F. ) ;
#1091 = FACE_OUTER_BOUND ( 'NONE', #25, .T. ) ;
#1092 = CARTESIAN_POINT ( 'NONE',  ( 117.0000000000000000, -8.673617379884035472E-16, -14.99999999999999112 ) ) ;
#1093 = VERTEX_POINT ( 'NONE', #127 ) ;
#1094 = EDGE_CURVE ( 'NONE', #884, #488, #46, .T. ) ;
#1095 = ORIENTED_EDGE ( 'NONE', *, *, #786, .T. ) ;
#1096 = CARTESIAN_POINT ( 'NONE',  ( 0.0000000000000000000, 0.0000000000000000000, -150.0000000000000000 ) ) ;
#1097 = FACE_OUTER_BOUND ( 'NONE', #759, .T. ) ;
#1098 = EDGE_LOOP ( 'NONE', ( #820, #1053, #321, #80 ) ) ;
#1099 = EDGE_CURVE ( 'NONE', #222, #60, #505, .T. ) ;
#1100 = EDGE_LOOP ( 'NONE', ( #725, #161, #1078, #197 ) ) ;
#1101 = DIRECTION ( 'NONE',  ( 0.0000000000000000000, -1.000000000000000000, 0.0000000000000000000 ) ) ;
#1102 = VECTOR ( 'NONE', #145, 999.9999999999998863 ) ;
#1103 = CARTESIAN_POINT ( 'NONE',  ( 15.00000000000001066, -8.673617379884035472E-16, -128.7000000000000171 ) ) ;
#1104 = CIRCLE ( 'NONE', #273, 6.300000000000001599 ) ;
#1105 = ORIENTED_EDGE ( 'NONE', *, *, #902, .T. ) ;
#1106 = DESIGN_CONTEXT ( 'detailed design', #9, 'design' ) ;
#1107 = CC_DESIGN_APPROVAL ( #566, ( #855 ) ) ;
#1108 = EDGE_LOOP ( 'NONE', ( #485, #801, #510, #201 ) ) ;
#1109 = CC_DESIGN_PERSON_AND_ORGANIZATION_ASSIGNMENT ( #763, #1061, ( #1125 ) ) ;
#1110 = DIRECTION ( 'NONE',  ( 0.0000000000000000000, 0.0000000000000000000, -1.000000000000000000 ) ) ;
#1111 = DIRECTION ( 'NONE',  ( 0.0000000000000000000, 0.0000000000000000000, -1.000000000000000000 ) ) ;
#1112 = ORIENTED_EDGE ( 'NONE', *, *, #1013, .F. ) ;
#1113 = CARTESIAN_POINT ( 'NONE',  ( 65.99999999999998579, 5.000000000000000888, -63.69999999999999574 ) ) ;
#1114 = CARTESIAN_POINT ( 'NONE',  ( 132.0000000000000000, 5.000000000000000000, -5.000000000000000000 ) ) ;
#1115 = ADVANCED_FACE ( 'NONE', ( #984 ), #122, .F. ) ;
#1116 = ORIENTED_EDGE ( 'NONE', *, *, #346, .T. ) ;
#1117 = DIRECTION ( 'NONE',  ( -0.0000000000000000000, 1.000000000000000000, -0.0000000000000000000 ) ) ;
#1118 = DIRECTION ( 'NONE',  ( -0.0000000000000000000, -1.000000000000000000, -0.0000000000000000000 ) ) ;
#1119 = DIRECTION ( 'NONE',  ( 0.0000000000000000000, 0.0000000000000000000, 1.000000000000000000 ) ) ;
#1120 = ADVANCED_FACE ( 'NONE', ( #994 ), #1121, .F. ) ;
#1121 = CONICAL_SURFACE ( 'NONE', #873, 6.299999999999999822, 0.7853981633974504994 ) ;
#1122 = VECTOR ( 'NONE', #711, 1000.000000000000000 ) ;
#1123 = EDGE_LOOP ( 'NONE', ( #518, #303, #507, #1173 ) ) ;
#1124 = DIRECTION ( 'NONE',  ( 0.0000000000000000000, 1.000000000000000000, -0.0000000000000000000 ) ) ;
#1125 = PRODUCT_DEFINITION_FORMATION_WITH_SPECIFIED_SOURCE ( 'ANY', '', #595, .NOT_KNOWN. ) ;
#1126 = DIRECTION ( 'NONE',  ( 0.0000000000000000000, 0.0000000000000000000, -1.000000000000000000 ) ) ;
#1127 = DIRECTION ( 'NONE',  ( 0.0000000000000000000, -1.000000000000000000, 0.0000000000000000000 ) ) ;
#1128 = CONICAL_SURFACE ( 'NONE', #1042, 6.299999999999999822, 0.7853981633974480570 ) ;
#1129 = EDGE_CURVE ( 'NONE', #99, #205, #449, .T. ) ;
#1130 = DIRECTION ( 'NONE',  ( 0.0000000000000000000, -0.0000000000000000000, -1.000000000000000000 ) ) ;
#1131 = CARTESIAN_POINT ( 'NONE',  ( 65.99999999999998579, 5.000000000000000000, -73.29999999999998295 ) ) ;
#1132 = CARTESIAN_POINT ( 'NONE',  ( 117.0000000000000000, 5.000000000000000888, -73.69999999999998863 ) ) ;
#1133 = ORIENTED_EDGE ( 'NONE', *, *, #1013, .T. ) ;
#1134 = DIRECTION ( 'NONE',  ( -0.0000000000000000000, -1.000000000000000000, -0.0000000000000000000 ) ) ;
#1135 = ADVANCED_FACE ( 'NONE', ( #433 ), #512, .F. ) ;
#1136 = FACE_OUTER_BOUND ( 'NONE', #237, .T. ) ;
#1137 = DIRECTION ( 'NONE',  ( -0.0000000000000000000, 1.000000000000000000, -0.0000000000000000000 ) ) ;
#1138 =( NAMED_UNIT ( * ) SI_UNIT ( $, .STERADIAN. ) SOLID_ANGLE_UNIT ( ) );
#1139 = ORIENTED_EDGE ( 'NONE', *, *, #71, .T. ) ;
#1140 = VECTOR ( 'NONE', #906, 1000.000000000000000 ) ;
#1141 = LINE ( 'NONE', #177, #373 ) ;
#1142 = AXIS2_PLACEMENT_3D ( 'NONE', #989, #600, #243 ) ;
#1143 = VECTOR ( 'NONE', #657, 1000.000000000000000 ) ;
#1144 = CARTESIAN_POINT ( 'NONE',  ( 117.0000000000000000, 5.000000000000000000, -135.0000000000000000 ) ) ;
#1145 = VECTOR ( 'NONE', #178, 1000.000000000000000 ) ;
#1146 = DIRECTION ( 'NONE',  ( 0.0000000000000000000, -1.000000000000000000, 0.0000000000000000000 ) ) ;
#1147 = EDGE_CURVE ( 'NONE', #710, #118, #851, .T. ) ;
#1148 = ORIENTED_EDGE ( 'NONE', *, *, #215, .F. ) ;
#1149 = CIRCLE ( 'NONE', #454, 6.299999999999999822 ) ;
#1150 = CARTESIAN_POINT ( 'NONE',  ( 15.00000000000001421, 5.000000000000000000, -83.29999999999996874 ) ) ;
#1151 = CYLINDRICAL_SURFACE ( 'NONE', #1035, 5.000000000000000000 ) ;
#1152 = DIRECTION ( 'NONE',  ( 0.0000000000000000000, -1.000000000000000000, 0.0000000000000000000 ) ) ;
#1153 = PERSON_AND_ORGANIZATION_ROLE ( 'classification_officer' ) ;
#1154 = VERTEX_POINT ( 'NONE', #913 ) ;
#1155 = EDGE_CURVE ( 'NONE', #899, #271, #1034, .T. ) ;
#1156 = CARTESIAN_POINT ( 'NONE',  ( 15.00000000000001421, 5.000000000000000888, -79.99999999999997158 ) ) ;
#1157 = CARTESIAN_POINT ( 'NONE',  ( 117.0000000000000000, 5.000000000000000000, -11.70000000000000639 ) ) ;
#1158 = DIRECTION ( 'NONE',  ( 0.0000000000000000000, -1.000000000000000000, 0.0000000000000000000 ) ) ;
#1159 = COORDINATED_UNIVERSAL_TIME_OFFSET ( 8, 0, .BEHIND. ) ;
#1160 = ORIENTED_EDGE ( 'NONE', *, *, #902, .F. ) ;
#1161 = CARTESIAN_POINT ( 'NONE',  ( 132.0000000000000000, 5.000000000000000000, -145.0000000000000000 ) ) ;
#1162 = ORIENTED_EDGE ( 'NONE', *, *, #302, .T. ) ;
#1163 = ADVANCED_FACE ( 'NONE', ( #818 ), #805, .F. ) ;
#1164 = AXIS2_PLACEMENT_3D ( 'NONE', #408, #588, #521 ) ;
#1165 = DIRECTION ( 'NONE',  ( 0.0000000000000000000, 0.0000000000000000000, -1.000000000000000000 ) ) ;
#1166 = LINE ( 'NONE', #97, #995 ) ;
#1167 = ORIENTED_EDGE ( 'NONE', *, *, #846, .T. ) ;
#1168 = CARTESIAN_POINT ( 'NONE',  ( 15.00000000000001066, 3.000000000000002665, -135.0000000000000000 ) ) ;
#1169 = AXIS2_PLACEMENT_3D ( 'NONE', #1048, #929, #76 ) ;
#1170 = ORIENTED_EDGE ( 'NONE', *, *, #341, .T. ) ;
#1171 = EDGE_CURVE ( 'NONE', #384, #604, #915, .T. ) ;
#1172 = DIRECTION ( 'NONE',  ( -0.0000000000000000000, -1.000000000000000000, -0.0000000000000000000 ) ) ;
#1173 = ORIENTED_EDGE ( 'NONE', *, *, #1178, .F. ) ;
#1174 = CARTESIAN_POINT ( 'NONE',  ( 15.00000000000000355, -8.673617379884035472E-16, -8.700000000000009948 ) ) ;
#1175 = ORIENTED_EDGE ( 'NONE', *, *, #23, .F. ) ;
#1176 = EDGE_LOOP ( 'NONE', ( #962, #808, #999, #700 ) ) ;
#1177 = APPLICATION_CONTEXT ( 'configuration controlled 3d designs of mechanical parts and assemblies' ) ;
#1178 = EDGE_CURVE ( 'NONE', #604, #207, #609, .T. ) ;
#1179 = ORIENTED_EDGE ( 'NONE', *, *, #1207, .T. ) ;
#1180 = FACE_OUTER_BOUND ( 'NONE', #1108, .T. ) ;
#1181 = ORIENTED_EDGE ( 'NONE', *, *, #937, .F. ) ;
#1182 = CONICAL_SURFACE ( 'NONE', #665, 6.299999999999999822, 0.7853981633974504994 ) ;
#1183 = VERTEX_POINT ( 'NONE', #51 ) ;
#1184 = CIRCLE ( 'NONE', #231, 6.299999999999999822 ) ;
#1185 = DIRECTION ( 'NONE',  ( 0.0000000000000000000, 0.0000000000000000000, 1.000000000000000000 ) ) ;
#1186 = DIRECTION ( 'NONE',  ( -0.0000000000000000000, -1.000000000000000000, -0.0000000000000000000 ) ) ;
#1187 = ORIENTED_EDGE ( 'NONE', *, *, #1198, .F. ) ;
#1188 = APPROVAL_PERSON_ORGANIZATION ( #187, #566, #375 ) ;
#1189 = EDGE_LOOP ( 'NONE', ( #28, #865, #821, #422 ) ) ;
#1190 = CARTESIAN_POINT ( 'NONE',  ( 117.0000000000000000, -8.673617379884035472E-16, -21.29999999999999361 ) ) ;
#1191 = CARTESIAN_POINT ( 'NONE',  ( 15.00000000000001066, 3.000000000000002665, -135.0000000000000000 ) ) ;
#1192 = EDGE_CURVE ( 'NONE', #293, #418, #907, .T. ) ;
#1193 = ORIENTED_EDGE ( 'NONE', *, *, #95, .T. ) ;
#1194 = VERTEX_POINT ( 'NONE', #536 ) ;
#1195 = DIRECTION ( 'NONE',  ( -0.0000000000000000000, -1.000000000000000000, -0.0000000000000000000 ) ) ;
#1196 = CARTESIAN_POINT ( 'NONE',  ( 65.99999999999998579, 5.000000000000000000, -69.99999999999998579 ) ) ;
#1197 = VERTEX_POINT ( 'NONE', #843 ) ;
#1198 = EDGE_CURVE ( 'NONE', #309, #529, #311, .T. ) ;
#1199 = ORIENTED_EDGE ( 'NONE', *, *, #786, .F. ) ;
#1200 = ORIENTED_EDGE ( 'NONE', *, *, #883, .T. ) ;
#1201 = CARTESIAN_POINT ( 'NONE',  ( 65.99999999999998579, 5.000000000000000888, -69.99999999999998579 ) ) ;
#1202 = VECTOR ( 'NONE', #1071, 1000.000000000000000 ) ;
#1203 = DIRECTION ( 'NONE',  ( -0.0000000000000000000, -1.000000000000000000, -0.0000000000000000000 ) ) ;
#1204 = AXIS2_PLACEMENT_3D ( 'NONE', #756, #1152, #444 ) ;
#1205 = AXIS2_PLACEMENT_3D ( 'NONE', #869, #18, #267 ) ;
#1206 = VERTEX_POINT ( 'NONE', #634 ) ;
#1207 = EDGE_CURVE ( 'NONE', #244, #639, #625, .T. ) ;
#1208 = AXIS2_PLACEMENT_3D ( 'NONE', #1156, #635, #1055 ) ;
#1209 = DIRECTION ( 'NONE',  ( -0.0000000000000000000, -1.000000000000000000, -0.0000000000000000000 ) ) ;
#1210 = CARTESIAN_POINT ( 'NONE',  ( 15.00000000000001066, -8.673617379884035472E-16, -135.0000000000000000 ) ) ;
#1211 = CARTESIAN_POINT ( 'NONE',  ( 15.00000000000000355, 0.0000000000000000000, -15.00000000000001066 ) ) ;
#1212 = ORIENTED_EDGE ( 'NONE', *, *, #621, .F. ) ;
#1213 = VERTEX_POINT ( 'NONE', #347 ) ;
#1214 = EDGE_CURVE ( 'NONE', #218, #666, #1149, .T. ) ;
#1215 = CARTESIAN_POINT ( 'NONE',  ( 65.99999999999998579, 1.999999999999996669, -69.99999999999998579 ) ) ;
#1216 = CARTESIAN_POINT ( 'NONE',  ( 5.000000000000000000, 0.0000000000000000000, -150.0000000000000000 ) ) ;
#1217 = CARTESIAN_POINT ( 'NONE',  ( 117.0000000000000000, 5.000000000000000888, -79.99999999999998579 ) ) ;
#1218 = DIRECTION ( 'NONE',  ( -0.0000000000000000000, 1.000000000000000000, -0.0000000000000000000 ) ) ;
#1219 = CYLINDRICAL_SURFACE ( 'NONE', #561, 3.299999999999983391 ) ;
#1220 = DIRECTION ( 'NONE',  ( -0.0000000000000000000, 1.000000000000000000, -0.0000000000000000000 ) ) ;
#1221 = VECTOR ( 'NONE', #1118, 1000.000000000000000 ) ;
#1222 = ADVANCED_FACE ( 'NONE', ( #825 ), #1128, .F. ) ;
#1223 = VECTOR ( 'NONE', #519, 999.9999999999998863 ) ;
#1224 = DIRECTION ( 'NONE',  ( 0.0000000000000000000, 0.0000000000000000000, -1.000000000000000000 ) ) ;
#1225 = DIRECTION ( 'NONE',  ( 0.0000000000000000000, 0.0000000000000000000, 1.000000000000000000 ) ) ;
#1226 = CIRCLE ( 'NONE', #674, 6.299999999999999822 ) ;
#1227 = EDGE_CURVE ( 'NONE', #784, #319, #901, .T. ) ;
#1228 = DIRECTION ( 'NONE',  ( 0.0000000000000000000, -1.000000000000000000, 0.0000000000000000000 ) ) ;
#1229 = LINE ( 'NONE', #1131, #898 ) ;
#1230 = CARTESIAN_POINT ( 'NONE',  ( 0.0000000000000000000, 5.000000000000000000, -145.0000000000000000 ) ) ;
#1231 = PERSON_AND_ORGANIZATION_ROLE ( 'design_owner' ) ;
#1232 = ORIENTED_EDGE ( 'NONE', *, *, #221, .T. ) ;
#1233 = CARTESIAN_POINT ( 'NONE',  ( 0.0000000000000000000, 5.000000000000000000, 0.0000000000000000000 ) ) ;
#1234 = DIRECTION ( 'NONE',  ( -0.0000000000000000000, -1.000000000000000000, -0.0000000000000000000 ) ) ;
#1235 = FACE_OUTER_BOUND ( 'NONE', #971, .T. ) ;
#1236 = SECURITY_CLASSIFICATION_LEVEL ( 'unclassified' ) ;
#1237 = ORIENTED_EDGE ( 'NONE', *, *, #1023, .F. ) ;
#1238 = CARTESIAN_POINT ( 'NONE',  ( 15.00000000000001066, 0.0000000000000000000, -135.0000000000000000 ) ) ;
#1239 = AXIS2_PLACEMENT_3D ( 'NONE', #638, #360, #741 ) ;
#1240 = DIRECTION ( 'NONE',  ( -0.0000000000000000000, 1.000000000000000000, -0.0000000000000000000 ) ) ;
#1241 = ADVANCED_FACE ( 'NONE', ( #923 ), #798, .F. ) ;
#1242 = DIRECTION ( 'NONE',  ( 0.0000000000000000000, 0.0000000000000000000, 1.000000000000000000 ) ) ;
#1243 = CALENDAR_DATE ( 2019, 14, 8 ) ;
#1244 = ORIENTED_EDGE ( 'NONE', *, *, #383, .F. ) ;
#1245 = PLANE ( 'NONE',  #935 ) ;
ENDSEC;
END-ISO-10303-21;
