ISO-10303-21;
HEADER;
FILE_DESCRIPTION (( 'STEP AP214' ),
    '1' );
FILE_NAME ('BASE-PEDISTAL_v002.STEP',
    '2025-12-22T20:34:20',
    ( '' ),
    ( '' ),
    'SwSTEP 2.0',
    'SolidWorks 2023',
    '' );
FILE_SCHEMA (( 'AUTOMOTIVE_DESIGN' ));
ENDSEC;

DATA;
#1 = AXIS2_PLACEMENT_3D ( 'NONE', #294, #810, #1191 ) ;
#2 = FACE_OUTER_BOUND ( 'NONE', #1150, .T. ) ;
#3 = DIRECTION ( 'NONE',  ( 0.000000000000000000, 0.000000000000000000, -1.000000000000000000 ) ) ;
#4 = ADVANCED_FACE ( 'NONE', ( #1169 ), #1077, .F. ) ;
#5 = CARTESIAN_POINT ( 'NONE',  ( 18.00000000000000000, 4.000000000000000000, -6.271071935830379448E-15 ) ) ;
#6 = CARTESIAN_POINT ( 'NONE',  ( -63.00000000000000000, 6.000000000000000000, -24.00000000000000000 ) ) ;
#7 = ORIENTED_EDGE ( 'NONE', *, *, #320, .F. ) ;
#8 = EDGE_CURVE ( 'NONE', #1026, #1220, #779, .T. ) ;
#9 = DIRECTION ( 'NONE',  ( 0.000000000000000000, 0.000000000000000000, 1.000000000000000000 ) ) ;
#10 = DIRECTION ( 'NONE',  ( -0.000000000000000000, 1.000000000000000000, -0.000000000000000000 ) ) ;
#11 = ADVANCED_FACE ( 'NONE', ( #2 ), #602, .F. ) ;
#12 = DIRECTION ( 'NONE',  ( 0.000000000000000000, 0.000000000000000000, -1.000000000000000000 ) ) ;
#13 = CLOSED_SHELL ( 'NONE', ( #4, #1118, #579, #623, #335, #534, #915, #1176, #1211, #155, #818, #1126, #988, #114, #180, #328, #326, #410, #947, #713, #1143, #228, #1034, #589, #441, #1140, #778, #902, #536, #677, #1054, #614, #692, #336, #11, #99, #174, #463, #696, #986 ) ) ;
#14 =( LENGTH_UNIT ( ) NAMED_UNIT ( * ) SI_UNIT ( .MILLI., .METRE. ) );
#15 = ORIENTED_EDGE ( 'NONE', *, *, #719, .F. ) ;
#16 = ORIENTED_EDGE ( 'NONE', *, *, #29, .T. ) ;
#17 = EDGE_CURVE ( 'NONE', #476, #581, #52, .T. ) ;
#18 = DIRECTION ( 'NONE',  ( -0.000000000000000000, 1.000000000000000000, -0.000000000000000000 ) ) ;
#19 = DIRECTION ( 'NONE',  ( -0.000000000000000000, 1.000000000000000000, -0.000000000000000000 ) ) ;
#20 = CIRCLE ( 'NONE', #175, 1.699999999999993072 ) ;
#21 = CYLINDRICAL_SURFACE ( 'NONE', #239, 3.250000000000002665 ) ;
#22 = ORIENTED_EDGE ( 'NONE', *, *, #1198, .F. ) ;
#23 = DIRECTION ( 'NONE',  ( -2.312964634635742957E-16, -0.000000000000000000, -1.000000000000000000 ) ) ;
#24 = DIRECTION ( 'NONE',  ( 0.000000000000000000, 0.000000000000000000, 1.000000000000000000 ) ) ;
#25 = EDGE_CURVE ( 'NONE', #496, #1215, #1148, .T. ) ;
#26 = CARTESIAN_POINT ( 'NONE',  ( 63.00000000000000000, 0.000000000000000000, -23.99999999999999289 ) ) ;
#27 = EDGE_CURVE ( 'NONE', #887, #376, #477, .T. ) ;
#28 = FACE_BOUND ( 'NONE', #1206, .T. ) ;
#29 = EDGE_CURVE ( 'NONE', #1135, #664, #110, .T. ) ;
#30 = AXIS2_PLACEMENT_3D ( 'NONE', #1248, #1048, #464 ) ;
#31 = LINE ( 'NONE', #417, #500 ) ;
#32 = LINE ( 'NONE', #1117, #624 ) ;
#33 = DIRECTION ( 'NONE',  ( 0.000000000000000000, 0.000000000000000000, 1.000000000000000000 ) ) ;
#34 = AXIS2_PLACEMENT_3D ( 'NONE', #637, #836, #1052 ) ;
#35 = FACE_OUTER_BOUND ( 'NONE', #911, .T. ) ;
#36 = FACE_OUTER_BOUND ( 'NONE', #1145, .T. ) ;
#37 = CARTESIAN_POINT ( 'NONE',  ( -18.00000000000000000, 0.000000000000000000, 4.750749256495796508E-15 ) ) ;
#38 = CIRCLE ( 'NONE', #158, 2.499999999999998668 ) ;
#39 = DIRECTION ( 'NONE',  ( 0.000000000000000000, 0.000000000000000000, 1.000000000000000000 ) ) ;
#40 = CARTESIAN_POINT ( 'NONE',  ( -64.50000000000000000, 0.000000000000000000, 30.00000000000001066 ) ) ;
#41 = CIRCLE ( 'NONE', #999, 3.250000000000002665 ) ;
#42 = AXIS2_PLACEMENT_3D ( 'NONE', #393, #569, #560 ) ;
#43 = EDGE_CURVE ( 'NONE', #705, #395, #1091, .T. ) ;
#44 = ORIENTED_EDGE ( 'NONE', *, *, #406, .T. ) ;
#45 = PRODUCT_DEFINITION_FORMATION_WITH_SPECIFIED_SOURCE ( 'ANY', '', #337, .NOT_KNOWN. ) ;
#46 = CARTESIAN_POINT ( 'NONE',  ( -64.50000000000001421, 6.000000000000000000, -29.99999999999998934 ) ) ;
#47 = AXIS2_PLACEMENT_3D ( 'NONE', #953, #963, #94 ) ;
#48 = EDGE_CURVE ( 'NONE', #371, #1220, #1189, .T. ) ;
#49 = ADVANCED_BREP_SHAPE_REPRESENTATION ( 'BASE-PEDISTAL_v002', ( #952, #586 ), #1132 ) ;
#50 = VERTEX_POINT ( 'NONE', #397 ) ;
#51 = CARTESIAN_POINT ( 'NONE',  ( 63.00000000000000000, 6.000000000000000000, 20.74999999999999645 ) ) ;
#52 = CIRCLE ( 'NONE', #220, 1.699999999999993072 ) ;
#53 = CIRCLE ( 'NONE', #379, 1.700000000000000178 ) ;
#54 = CARTESIAN_POINT ( 'NONE',  ( -67.00000000000001421, 6.000000000000000000, -29.99999999999998934 ) ) ;
#55 = AXIS2_PLACEMENT_3D ( 'NONE', #1089, #598, #996 ) ;
#56 = EDGE_CURVE ( 'NONE', #851, #844, #302, .T. ) ;
#57 = ORIENTED_EDGE ( 'NONE', *, *, #1213, .F. ) ;
#58 = ORIENTED_EDGE ( 'NONE', *, *, #1081, .T. ) ;
#59 = DIRECTION ( 'NONE',  ( -0.000000000000000000, -1.000000000000000000, -0.000000000000000000 ) ) ;
#60 = ORIENTED_EDGE ( 'NONE', *, *, #377, .T. ) ;
#61 = DIRECTION ( 'NONE',  ( 0.000000000000000000, 0.000000000000000000, 1.000000000000000000 ) ) ;
#62 = CARTESIAN_POINT ( 'NONE',  ( -18.00000000000000000, 4.000000000000000000, 4.750749256495796508E-15 ) ) ;
#63 = EDGE_LOOP ( 'NONE', ( #652, #57 ) ) ;
#64 = VERTEX_POINT ( 'NONE', #40 ) ;
#65 = PLANE ( 'NONE',  #1199 ) ;
#66 = VERTEX_POINT ( 'NONE', #896 ) ;
#67 = DIRECTION ( 'NONE',  ( 0.000000000000000000, 0.000000000000000000, 1.000000000000000000 ) ) ;
#68 = CARTESIAN_POINT ( 'NONE',  ( 64.49999999999998579, 6.000000000000000000, -27.49999999999998934 ) ) ;
#69 = ORIENTED_EDGE ( 'NONE', *, *, #840, .T. ) ;
#70 = ORIENTED_EDGE ( 'NONE', *, *, #237, .F. ) ;
#71 = AXIS2_PLACEMENT_3D ( 'NONE', #839, #850, #860 ) ;
#72 = DIRECTION ( 'NONE',  ( 0.000000000000000000, 0.000000000000000000, 1.000000000000000000 ) ) ;
#73 = VERTEX_POINT ( 'NONE', #1029 ) ;
#74 = DIRECTION ( 'NONE',  ( 0.000000000000000000, 0.000000000000000000, 1.000000000000000000 ) ) ;
#75 = CARTESIAN_POINT ( 'NONE',  ( -64.50000000000001421, 0.000000000000000000, -27.49999999999998934 ) ) ;
#76 = DIRECTION ( 'NONE',  ( -0.000000000000000000, 1.000000000000000000, -0.000000000000000000 ) ) ;
#77 = EDGE_LOOP ( 'NONE', ( #22, #1071 ) ) ;
#78 = ORIENTED_EDGE ( 'NONE', *, *, #1184, .T. ) ;
#79 = CARTESIAN_POINT ( 'NONE',  ( -63.00000000000000000, 3.000000000000000888, 24.00000000000000000 ) ) ;
#80 = ORIENTED_EDGE ( 'NONE', *, *, #1006, .F. ) ;
#81 = DIRECTION ( 'NONE',  ( 0.000000000000000000, 0.000000000000000000, 1.000000000000000000 ) ) ;
#82 = FACE_BOUND ( 'NONE', #961, .T. ) ;
#83 = AXIS2_PLACEMENT_3D ( 'NONE', #311, #1001, #405 ) ;
#84 = DIRECTION ( 'NONE',  ( -0.000000000000000000, 1.000000000000000000, -0.000000000000000000 ) ) ;
#85 = DIRECTION ( 'NONE',  ( -0.000000000000000000, 1.000000000000000000, -0.000000000000000000 ) ) ;
#86 = VERTEX_POINT ( 'NONE', #997 ) ;
#87 = EDGE_LOOP ( 'NONE', ( #591, #396 ) ) ;
#88 = CIRCLE ( 'NONE', #246, 3.250000000000002665 ) ;
#89 = CARTESIAN_POINT ( 'NONE',  ( 63.00000000000000000, 6.000000000000000000, 24.00000000000000000 ) ) ;
#90 = ORIENTED_EDGE ( 'NONE', *, *, #25, .T. ) ;
#91 = DIRECTION ( 'NONE',  ( -0.000000000000000000, 1.000000000000000000, -0.000000000000000000 ) ) ;
#92 = DIRECTION ( 'NONE',  ( -0.000000000000000000, -1.000000000000000000, -0.000000000000000000 ) ) ;
#93 = ORIENTED_EDGE ( 'NONE', *, *, #872, .F. ) ;
#94 = DIRECTION ( 'NONE',  ( 0.000000000000000000, 0.000000000000000000, 1.000000000000000000 ) ) ;
#95 = CARTESIAN_POINT ( 'NONE',  ( 64.49999999999998579, 0.000000000000000000, -29.99999999999998934 ) ) ;
#96 = EDGE_LOOP ( 'NONE', ( #1067, #670, #1178, #654 ) ) ;
#97 = ORIENTED_EDGE ( 'NONE', *, *, #1094, .T. ) ;
#98 = CARTESIAN_POINT ( 'NONE',  ( -18.00000000000000000, 0.000000000000000000, 2.250000000000003109 ) ) ;
#99 = ADVANCED_FACE ( 'NONE', ( #503, #418 ), #1187, .F. ) ;
#100 = DIRECTION ( 'NONE',  ( -0.000000000000000000, 1.000000000000000000, -0.000000000000000000 ) ) ;
#101 = CARTESIAN_POINT ( 'NONE',  ( -63.00000000000000000, 6.000000000000000000, -20.74999999999999645 ) ) ;
#102 = ORIENTED_EDGE ( 'NONE', *, *, #539, .F. ) ;
#103 = CARTESIAN_POINT ( 'NONE',  ( 18.00000000000000000, 0.000000000000000000, -6.271071935830379448E-15 ) ) ;
#104 = DIRECTION ( 'NONE',  ( 0.000000000000000000, 0.000000000000000000, 1.000000000000000000 ) ) ;
#105 = EDGE_CURVE ( 'NONE', #106, #240, #864, .T. ) ;
#106 = VERTEX_POINT ( 'NONE', #1003 ) ;
#107 = ORIENTED_EDGE ( 'NONE', *, *, #247, .T. ) ;
#108 = EDGE_CURVE ( 'NONE', #971, #1070, #343, .T. ) ;
#109 = CIRCLE ( 'NONE', #603, 2.499999999999998668 ) ;
#110 = LINE ( 'NONE', #568, #699 ) ;
#111 = DIRECTION ( 'NONE',  ( -0.000000000000000000, 1.000000000000000000, -0.000000000000000000 ) ) ;
#112 = EDGE_CURVE ( 'NONE', #537, #974, #32, .T. ) ;
#113 = DIRECTION ( 'NONE',  ( 0.000000000000000000, 0.000000000000000000, 1.000000000000000000 ) ) ;
#114 = ADVANCED_FACE ( 'NONE', ( #36 ), #65, .F. ) ;
#115 = CARTESIAN_POINT ( 'NONE',  ( -18.00000000000000000, 6.000000000000000000, 2.250000000000003109 ) ) ;
#116 = ORIENTED_EDGE ( 'NONE', *, *, #17, .F. ) ;
#117 = DIRECTION ( 'NONE',  ( -0.000000000000000000, -1.000000000000000000, -0.000000000000000000 ) ) ;
#118 = CARTESIAN_POINT ( 'NONE',  ( 63.00000000000000000, 3.000000000000000888, -22.30000000000000071 ) ) ;
#119 = FACE_OUTER_BOUND ( 'NONE', #532, .T. ) ;
#120 = ORIENTED_EDGE ( 'NONE', *, *, #549, .F. ) ;
#121 = EDGE_CURVE ( 'NONE', #1214, #887, #319, .T. ) ;
#122 = CARTESIAN_POINT ( 'NONE',  ( -67.00000000000001421, 6.000000000000000000, -29.99999999999998934 ) ) ;
#123 = EDGE_CURVE ( 'NONE', #86, #235, #125, .T. ) ;
#124 = CARTESIAN_POINT ( 'NONE',  ( -63.00000000000000000, 6.000000000000000000, 24.00000000000000000 ) ) ;
#125 = CIRCLE ( 'NONE', #277, 1.699999999999993072 ) ;
#126 = VECTOR ( 'NONE', #455, 1000.000000000000000 ) ;
#127 = LINE ( 'NONE', #400, #595 ) ;
#128 = DIRECTION ( 'NONE',  ( -0.000000000000000000, -1.000000000000000000, -0.000000000000000000 ) ) ;
#129 = AXIS2_PLACEMENT_3D ( 'NONE', #338, #727, #522 ) ;
#130 = DIRECTION ( 'NONE',  ( -0.000000000000000000, 1.000000000000000000, -0.000000000000000000 ) ) ;
#131 = LINE ( 'NONE', #606, #801 ) ;
#132 = SHAPE_DEFINITION_REPRESENTATION ( #351, #49 ) ;
#133 = CARTESIAN_POINT ( 'NONE',  ( -63.00000000000000000, 6.000000000000000000, 24.00000000000000000 ) ) ;
#134 = FACE_BOUND ( 'NONE', #685, .T. ) ;
#135 = CARTESIAN_POINT ( 'NONE',  ( 63.00000000000000000, 0.000000000000000000, 25.69999999999999218 ) ) ;
#136 = CARTESIAN_POINT ( 'NONE',  ( -64.50000000000001421, 6.000000000000000000, -27.49999999999998934 ) ) ;
#137 = CARTESIAN_POINT ( 'NONE',  ( 63.00000000000000000, 3.000000000000000888, -23.99999999999999289 ) ) ;
#138 = CARTESIAN_POINT ( 'NONE',  ( 18.00000000000000000, 4.000000000000000000, 3.999999999999994227 ) ) ;
#139 = CARTESIAN_POINT ( 'NONE',  ( 66.99999999999998579, 6.000000000000000000, -27.49999999999998934 ) ) ;
#140 = CIRCLE ( 'NONE', #1172, 3.250000000000002665 ) ;
#141 = ORIENTED_EDGE ( 'NONE', *, *, #202, .F. ) ;
#142 = LINE ( 'NONE', #312, #735 ) ;
#143 = MECHANICAL_DESIGN_GEOMETRIC_PRESENTATION_REPRESENTATION (  '', ( #1155 ), #904 ) ;
#144 = EDGE_CURVE ( 'NONE', #636, #537, #993, .T. ) ;
#145 = VECTOR ( 'NONE', #469, 1000.000000000000000 ) ;
#146 = ORIENTED_EDGE ( 'NONE', *, *, #444, .F. ) ;
#147 = CARTESIAN_POINT ( 'NONE',  ( -63.00000000000000000, 6.000000000000000000, -25.69999999999999574 ) ) ;
#148 = AXIS2_PLACEMENT_3D ( 'NONE', #386, #212, #12 ) ;
#149 = CARTESIAN_POINT ( 'NONE',  ( 18.00000000000000000, 6.000000000000000000, -6.271071935830379448E-15 ) ) ;
#150 = EDGE_CURVE ( 'NONE', #385, #484, #594, .T. ) ;
#151 = VECTOR ( 'NONE', #948, 1000.000000000000000 ) ;
#152 = VERTEX_POINT ( 'NONE', #631 ) ;
#153 = AXIS2_PLACEMENT_3D ( 'NONE', #968, #1163, #33 ) ;
#154 = AXIS2_PLACEMENT_3D ( 'NONE', #1131, #1228, #266 ) ;
#155 = ADVANCED_FACE ( 'NONE', ( #725 ), #162, .F. ) ;
#156 = FACE_OUTER_BOUND ( 'NONE', #163, .T. ) ;
#157 = LINE ( 'NONE', #46, #634 ) ;
#158 = AXIS2_PLACEMENT_3D ( 'NONE', #950, #1056, #81 ) ;
#159 = CIRCLE ( 'NONE', #55, 2.499999999999998668 ) ;
#160 = CARTESIAN_POINT ( 'NONE',  ( -61.29999999999999716, 3.000000000000000444, 24.00000000000000000 ) ) ;
#161 = EDGE_LOOP ( 'NONE', ( #559, #848 ) ) ;
#162 = CYLINDRICAL_SURFACE ( 'NONE', #621, 1.699999999999993072 ) ;
#163 = EDGE_LOOP ( 'NONE', ( #141, #789, #1162, #1250 ) ) ;
#164 = SURFACE_STYLE_USAGE ( .BOTH. , #1032 ) ;
#165 = FACE_OUTER_BOUND ( 'NONE', #1221, .T. ) ;
#166 = EDGE_LOOP ( 'NONE', ( #1036, #519 ) ) ;
#167 = ORIENTED_EDGE ( 'NONE', *, *, #944, .T. ) ;
#168 = DIRECTION ( 'NONE',  ( -0.000000000000000000, 1.000000000000000000, -0.000000000000000000 ) ) ;
#169 = ORIENTED_EDGE ( 'NONE', *, *, #27, .T. ) ;
#170 = CYLINDRICAL_SURFACE ( 'NONE', #527, 2.249999999999998668 ) ;
#171 = FACE_OUTER_BOUND ( 'NONE', #1104, .T. ) ;
#172 = ORIENTED_EDGE ( 'NONE', *, *, #872, .T. ) ;
#173 = ORIENTED_EDGE ( 'NONE', *, *, #597, .F. ) ;
#174 = ADVANCED_FACE ( 'NONE', ( #156 ), #232, .F. ) ;
#175 = AXIS2_PLACEMENT_3D ( 'NONE', #540, #746, #1139 ) ;
#176 = DIRECTION ( 'NONE',  ( -0.000000000000000000, 1.000000000000000000, -0.000000000000000000 ) ) ;
#177 = EDGE_LOOP ( 'NONE', ( #855, #58, #402, #1038 ) ) ;
#178 = LINE ( 'NONE', #576, #1123 ) ;
#179 = DIRECTION ( 'NONE',  ( 0.000000000000000000, 0.000000000000000000, 1.000000000000000000 ) ) ;
#180 = ADVANCED_FACE ( 'NONE', ( #509 ), #238, .F. ) ;
#181 = DIRECTION ( 'NONE',  ( 2.312964634635742957E-16, 0.000000000000000000, 1.000000000000000000 ) ) ;
#182 = DIRECTION ( 'NONE',  ( -0.000000000000000000, 1.000000000000000000, -0.000000000000000000 ) ) ;
#183 = EDGE_LOOP ( 'NONE', ( #172, #1063, #1055, #1156 ) ) ;
#184 = AXIS2_PLACEMENT_3D ( 'NONE', #124, #512, #39 ) ;
#185 = DIRECTION ( 'NONE',  ( 0.000000000000000000, 0.000000000000000000, 1.000000000000000000 ) ) ;
#186 = ORIENTED_EDGE ( 'NONE', *, *, #682, .F. ) ;
#187 = CARTESIAN_POINT ( 'NONE',  ( -63.00000000000000000, 6.000000000000000000, 27.25000000000000355 ) ) ;
#188 = FACE_BOUND ( 'NONE', #194, .T. ) ;
#189 = ORIENTED_EDGE ( 'NONE', *, *, #8, .F. ) ;
#190 = CARTESIAN_POINT ( 'NONE',  ( -18.00000000000000000, 6.000000000000000000, 4.750749256495796508E-15 ) ) ;
#191 = CARTESIAN_POINT ( 'NONE',  ( 63.00000000000000000, 6.000000000000000000, -23.99999999999999289 ) ) ;
#192 = VERTEX_POINT ( 'NONE', #222 ) ;
#193 = CARTESIAN_POINT ( 'NONE',  ( 66.99999999999998579, 0.000000000000000000, -27.49999999999998934 ) ) ;
#194 = EDGE_LOOP ( 'NONE', ( #873, #541 ) ) ;
#195 = CARTESIAN_POINT ( 'NONE',  ( -63.00000000000000000, 3.000000000000000000, 20.74999999999999645 ) ) ;
#196 = DIRECTION ( 'NONE',  ( 0.000000000000000000, 0.000000000000000000, 1.000000000000000000 ) ) ;
#197 = EDGE_LOOP ( 'NONE', ( #893, #1128, #1247, #334 ) ) ;
#198 = ORIENTED_EDGE ( 'NONE', *, *, #123, .T. ) ;
#199 = AXIS2_PLACEMENT_3D ( 'NONE', #89, #380, #451 ) ;
#200 = EDGE_CURVE ( 'NONE', #260, #376, #131, .T. ) ;
#201 = DIRECTION ( 'NONE',  ( 0.000000000000000000, 0.000000000000000000, -1.000000000000000000 ) ) ;
#202 = EDGE_CURVE ( 'NONE', #769, #259, #800, .T. ) ;
#203 = CARTESIAN_POINT ( 'NONE',  ( 67.00000000000000000, 6.000000000000000000, 27.50000000000000711 ) ) ;
#204 = DIRECTION ( 'NONE',  ( 0.000000000000000000, 0.000000000000000000, 1.000000000000000000 ) ) ;
#205 = DIRECTION ( 'NONE',  ( 0.000000000000000000, 0.000000000000000000, 1.000000000000000000 ) ) ;
#206 = EDGE_LOOP ( 'NONE', ( #419, #747, #102, #562 ) ) ;
#207 = EDGE_LOOP ( 'NONE', ( #1100, #97 ) ) ;
#208 = CIRCLE ( 'NONE', #482, 3.250000000000002665 ) ;
#209 = VECTOR ( 'NONE', #421, 1000.000000000000000 ) ;
#210 = DIRECTION ( 'NONE',  ( 0.000000000000000000, 0.000000000000000000, -1.000000000000000000 ) ) ;
#211 = CYLINDRICAL_SURFACE ( 'NONE', #793, 2.499999999999998668 ) ;
#212 = DIRECTION ( 'NONE',  ( 0.000000000000000000, -1.000000000000000000, 0.000000000000000000 ) ) ;
#213 = ORIENTED_EDGE ( 'NONE', *, *, #231, .T. ) ;
#214 = CYLINDRICAL_SURFACE ( 'NONE', #357, 3.250000000000002665 ) ;
#215 = CARTESIAN_POINT ( 'NONE',  ( 63.00000000000000000, 6.000000000000000000, 27.25000000000000355 ) ) ;
#216 = VERTEX_POINT ( 'NONE', #139 ) ;
#217 = CIRCLE ( 'NONE', #1088, 1.700000000000000178 ) ;
#218 = CARTESIAN_POINT ( 'NONE',  ( -63.00000000000000000, 3.000000000000000000, -24.00000000000000000 ) ) ;
#219 = FACE_OUTER_BOUND ( 'NONE', #389, .T. ) ;
#220 = AXIS2_PLACEMENT_3D ( 'NONE', #137, #510, #903 ) ;
#221 = CIRCLE ( 'NONE', #679, 3.250000000000002665 ) ;
#222 = CARTESIAN_POINT ( 'NONE',  ( -63.00000000000000000, 3.000000000000000000, 27.25000000000000355 ) ) ;
#223 = DIRECTION ( 'NONE',  ( -0.000000000000000000, 1.000000000000000000, -0.000000000000000000 ) ) ;
#224 = AXIS2_PLACEMENT_3D ( 'NONE', #149, #345, #1018 ) ;
#225 = DIRECTION ( 'NONE',  ( -0.000000000000000000, 1.000000000000000000, -0.000000000000000000 ) ) ;
#226 = DIRECTION ( 'NONE',  ( 0.000000000000000000, 0.000000000000000000, 1.000000000000000000 ) ) ;
#227 = ORIENTED_EDGE ( 'NONE', *, *, #918, .T. ) ;
#228 = ADVANCED_FACE ( 'NONE', ( #513 ), #907, .F. ) ;
#229 = EDGE_CURVE ( 'NONE', #1065, #368, #957, .T. ) ;
#230 = DIRECTION ( 'NONE',  ( -0.000000000000000000, 1.000000000000000000, -0.000000000000000000 ) ) ;
#231 = EDGE_CURVE ( 'NONE', #851, #645, #858, .T. ) ;
#232 = CYLINDRICAL_SURFACE ( 'NONE', #750, 4.000000000000000000 ) ;
#233 = EDGE_CURVE ( 'NONE', #844, #657, #1114, .T. ) ;
#234 = ORIENTED_EDGE ( 'NONE', *, *, #674, .T. ) ;
#235 = VERTEX_POINT ( 'NONE', #279 ) ;
#236 = CARTESIAN_POINT ( 'NONE',  ( -67.00000000000000000, 0.000000000000000000, 30.00000000000001066 ) ) ;
#237 = EDGE_CURVE ( 'NONE', #490, #192, #373, .T. ) ;
#238 = PLANE ( 'NONE',  #474 ) ;
#239 = AXIS2_PLACEMENT_3D ( 'NONE', #985, #1166, #388 ) ;
#240 = VERTEX_POINT ( 'NONE', #1064 ) ;
#241 = FACE_OUTER_BOUND ( 'NONE', #96, .T. ) ;
#242 = EDGE_CURVE ( 'NONE', #1142, #981, #969, .T. ) ;
#243 = CIRCLE ( 'NONE', #261, 4.000000000000000000 ) ;
#244 = EDGE_CURVE ( 'NONE', #192, #490, #571, .T. ) ;
#245 = LINE ( 'NONE', #54, #978 ) ;
#246 = AXIS2_PLACEMENT_3D ( 'NONE', #767, #884, #274 ) ;
#247 = EDGE_CURVE ( 'NONE', #1202, #1070, #217, .T. ) ;
#248 = CYLINDRICAL_SURFACE ( 'NONE', #129, 1.699999999999996625 ) ;
#249 = VECTOR ( 'NONE', #1192, 1000.000000000000000 ) ;
#250 = DIRECTION ( 'NONE',  ( 0.000000000000000000, 0.000000000000000000, -1.000000000000000000 ) ) ;
#251 = ORIENTED_EDGE ( 'NONE', *, *, #1030, .T. ) ;
#252 = ORIENTED_EDGE ( 'NONE', *, *, #105, .T. ) ;
#253 = CARTESIAN_POINT ( 'NONE',  ( 66.99999999999998579, 6.000000000000000000, -29.99999999999998934 ) ) ;
#254 = ORIENTED_EDGE ( 'NONE', *, *, #674, .F. ) ;
#255 = FILL_AREA_STYLE ('',( #1120 ) ) ;
#256 = CIRCLE ( 'NONE', #977, 1.699999999999993072 ) ;
#257 = CIRCLE ( 'NONE', #1222, 3.250000000000002665 ) ;
#258 = PLANE ( 'NONE',  #154 ) ;
#259 = VERTEX_POINT ( 'NONE', #1223 ) ;
#260 = VERTEX_POINT ( 'NONE', #740 ) ;
#261 = AXIS2_PLACEMENT_3D ( 'NONE', #995, #128, #1175 ) ;
#262 = DIRECTION ( 'NONE',  ( 0.000000000000000000, 0.000000000000000000, 1.000000000000000000 ) ) ;
#263 = ORIENTED_EDGE ( 'NONE', *, *, #144, .T. ) ;
#264 = DIRECTION ( 'NONE',  ( -0.000000000000000000, 1.000000000000000000, -0.000000000000000000 ) ) ;
#265 = EDGE_CURVE ( 'NONE', #966, #927, #1144, .T. ) ;
#266 = DIRECTION ( 'NONE',  ( 0.000000000000000000, -0.000000000000000000, -1.000000000000000000 ) ) ;
#267 = ORIENTED_EDGE ( 'NONE', *, *, #944, .F. ) ;
#268 = ORIENTED_EDGE ( 'NONE', *, *, #788, .F. ) ;
#269 = EDGE_CURVE ( 'NONE', #1218, #484, #967, .T. ) ;
#270 = CARTESIAN_POINT ( 'NONE',  ( 64.50000000000000000, 6.000000000000000000, 30.00000000000001066 ) ) ;
#271 = VERTEX_POINT ( 'NONE', #193 ) ;
#272 = CARTESIAN_POINT ( 'NONE',  ( -61.29999999999999716, 3.000000000000000444, -24.00000000000000000 ) ) ;
#273 = CARTESIAN_POINT ( 'NONE',  ( 67.00000000000000000, 6.000000000000000000, 27.50000000000000711 ) ) ;
#274 = DIRECTION ( 'NONE',  ( 0.000000000000000000, 0.000000000000000000, 1.000000000000000000 ) ) ;
#275 = CARTESIAN_POINT ( 'NONE',  ( -63.00000000000000000, 0.000000000000000000, 24.00000000000000000 ) ) ;
#276 = ORIENTED_EDGE ( 'NONE', *, *, #43, .T. ) ;
#277 = AXIS2_PLACEMENT_3D ( 'NONE', #1196, #732, #703 ) ;
#278 = AXIS2_PLACEMENT_3D ( 'NONE', #1057, #362, #561 ) ;
#279 = CARTESIAN_POINT ( 'NONE',  ( 63.00000000000000000, 0.000000000000000000, -22.30000000000000071 ) ) ;
#280 = ORIENTED_EDGE ( 'NONE', *, *, #403, .T. ) ;
#281 = CARTESIAN_POINT ( 'NONE',  ( -63.00000000000000000, 6.000000000000000000, -24.00000000000000000 ) ) ;
#282 = CARTESIAN_POINT ( 'NONE',  ( -67.00000000000001421, 0.000000000000000000, -29.99999999999998934 ) ) ;
#283 = FACE_OUTER_BOUND ( 'NONE', #882, .T. ) ;
#284 = CARTESIAN_POINT ( 'NONE',  ( -63.00000000000000000, 3.000000000000000000, -27.25000000000000355 ) ) ;
#285 = ORIENTED_EDGE ( 'NONE', *, *, #899, .T. ) ;
#286 = ORIENTED_EDGE ( 'NONE', *, *, #320, .T. ) ;
#287 = PRESENTATION_LAYER_ASSIGNMENT (  '', '', ( #1155 ) ) ;
#288 = ORIENTED_EDGE ( 'NONE', *, *, #1198, .T. ) ;
#289 = DIRECTION ( 'NONE',  ( 0.000000000000000000, 1.000000000000000000, 0.000000000000000000 ) ) ;
#290 = EDGE_CURVE ( 'NONE', #1218, #66, #1015, .T. ) ;
#291 = ORIENTED_EDGE ( 'NONE', *, *, #150, .T. ) ;
#292 = CARTESIAN_POINT ( 'NONE',  ( -18.00000000000000000, 0.000000000000000000, 4.750749256495796508E-15 ) ) ;
#293 = EDGE_LOOP ( 'NONE', ( #93, #642 ) ) ;
#294 = CARTESIAN_POINT ( 'NONE',  ( 18.00000000000000000, 4.000000000000000000, -6.271071935830379448E-15 ) ) ;
#295 = VERTEX_POINT ( 'NONE', #270 ) ;
#296 = ORIENTED_EDGE ( 'NONE', *, *, #615, .F. ) ;
#297 = DIRECTION ( 'NONE',  ( 0.000000000000000000, 0.000000000000000000, 1.000000000000000000 ) ) ;
#298 = CYLINDRICAL_SURFACE ( 'NONE', #47, 3.250000000000002665 ) ;
#299 = DIRECTION ( 'NONE',  ( -0.000000000000000000, 1.000000000000000000, -0.000000000000000000 ) ) ;
#300 = ORIENTED_EDGE ( 'NONE', *, *, #242, .T. ) ;
#301 = AXIS2_PLACEMENT_3D ( 'NONE', #191, #182, #564 ) ;
#302 = LINE ( 'NONE', #680, #378 ) ;
#303 = FACE_OUTER_BOUND ( 'NONE', #489, .T. ) ;
#304 = CYLINDRICAL_SURFACE ( 'NONE', #797, 3.250000000000002665 ) ;
#305 = CARTESIAN_POINT ( 'NONE',  ( 63.00000000000000000, 6.000000000000000000, 24.00000000000000000 ) ) ;
#306 = ORIENTED_EDGE ( 'NONE', *, *, #269, .T. ) ;
#307 = FACE_OUTER_BOUND ( 'NONE', #828, .T. ) ;
#308 = DIRECTION ( 'NONE',  ( 0.000000000000000000, 1.000000000000000000, 0.000000000000000000 ) ) ;
#309 = AXIS2_PLACEMENT_3D ( 'NONE', #856, #289, #185 ) ;
#310 = VECTOR ( 'NONE', #181, 1000.000000000000000 ) ;
#311 = CARTESIAN_POINT ( 'NONE',  ( -63.00000000000000000, 6.000000000000000000, 24.00000000000000000 ) ) ;
#312 = CARTESIAN_POINT ( 'NONE',  ( -18.00000000000000000, 0.000000000000000000, -2.249999999999993783 ) ) ;
#313 = FACE_OUTER_BOUND ( 'NONE', #197, .T. ) ;
#314 = AXIS2_PLACEMENT_3D ( 'NONE', #558, #367, #653 ) ;
#315 = CARTESIAN_POINT ( 'NONE',  ( 63.00000000000000000, 6.000000000000000000, -27.24999999999999645 ) ) ;
#316 = CARTESIAN_POINT ( 'NONE',  ( -63.00000000000000000, 3.000000000000000888, -24.00000000000000000 ) ) ;
#317 = VECTOR ( 'NONE', #811, 1000.000000000000000 ) ;
#318 = CIRCLE ( 'NONE', #1021, 1.699999999999993072 ) ;
#319 = LINE ( 'NONE', #830, #650 ) ;
#320 = EDGE_CURVE ( 'NONE', #705, #1142, #644, .T. ) ;
#321 = CARTESIAN_POINT ( 'NONE',  ( -18.00000000000000000, 0.000000000000000000, 4.750749256495796508E-15 ) ) ;
#322 = VECTOR ( 'NONE', #762, 1000.000000000000000 ) ;
#323 = EDGE_CURVE ( 'NONE', #662, #371, #550, .T. ) ;
#324 = CIRCLE ( 'NONE', #874, 1.699999999999996625 ) ;
#325 = DIRECTION ( 'NONE',  ( 0.000000000000000000, -0.000000000000000000, -1.000000000000000000 ) ) ;
#326 = ADVANCED_FACE ( 'NONE', ( #1241 ), #760, .F. ) ;
#327 = DIRECTION ( 'NONE',  ( -1.000000000000000000, 0.000000000000000000, 2.312964634635742957E-16 ) ) ;
#328 = ADVANCED_FACE ( 'NONE', ( #303 ), #989, .F. ) ;
#329 = DIRECTION ( 'NONE',  ( 0.000000000000000000, 0.000000000000000000, -1.000000000000000000 ) ) ;
#330 = EDGE_CURVE ( 'NONE', #260, #1214, #912, .T. ) ;
#331 = ORIENTED_EDGE ( 'NONE', *, *, #772, .T. ) ;
#332 = CARTESIAN_POINT ( 'NONE',  ( -63.00000000000000000, 6.000000000000000000, 27.25000000000000355 ) ) ;
#333 = DIRECTION ( 'NONE',  ( -0.000000000000000000, -1.000000000000000000, -0.000000000000000000 ) ) ;
#334 = ORIENTED_EDGE ( 'NONE', *, *, #424, .F. ) ;
#335 = ADVANCED_FACE ( 'NONE', ( #307 ), #214, .F. ) ;
#336 = ADVANCED_FACE ( 'NONE', ( #416 ), #211, .T. ) ;
#337 = PRODUCT ( 'BASE-PEDISTAL_v002', 'BASE-PEDISTAL_v002', '', ( #600 ) ) ;
#338 = CARTESIAN_POINT ( 'NONE',  ( -63.00000000000000000, 6.000000000000000000, -24.00000000000000000 ) ) ;
#339 = VECTOR ( 'NONE', #890, 1000.000000000000000 ) ;
#340 = DIRECTION ( 'NONE',  ( 0.000000000000000000, 0.000000000000000000, -1.000000000000000000 ) ) ;
#341 = ORIENTED_EDGE ( 'NONE', *, *, #1121, .T. ) ;
#342 = ORIENTED_EDGE ( 'NONE', *, *, #1094, .F. ) ;
#343 = LINE ( 'NONE', #428, #317 ) ;
#344 = EDGE_LOOP ( 'NONE', ( #173, #296, #784, #413 ) ) ;
#345 = DIRECTION ( 'NONE',  ( 0.000000000000000000, 1.000000000000000000, 0.000000000000000000 ) ) ;
#346 = DIRECTION ( 'NONE',  ( -0.000000000000000000, -1.000000000000000000, -0.000000000000000000 ) ) ;
#347 = CIRCLE ( 'NONE', #943, 1.699999999999993072 ) ;
#348 = EDGE_LOOP ( 'NONE', ( #1190, #835, #167, #263, #234, #1076, #866, #69 ) ) ;
#349 = DIRECTION ( 'NONE',  ( -0.000000000000000000, -1.000000000000000000, -0.000000000000000000 ) ) ;
#350 = ORIENTED_EDGE ( 'NONE', *, *, #237, .T. ) ;
#351 = PRODUCT_DEFINITION_SHAPE ( 'NONE', 'NONE',  #504 ) ;
#352 = CIRCLE ( 'NONE', #387, 1.699999999999996625 ) ;
#353 = CIRCLE ( 'NONE', #706, 4.000000000000000000 ) ;
#354 = DIRECTION ( 'NONE',  ( -0.000000000000000000, -1.000000000000000000, -0.000000000000000000 ) ) ;
#355 = ORIENTED_EDGE ( 'NONE', *, *, #491, .F. ) ;
#356 = VERTEX_POINT ( 'NONE', #798 ) ;
#357 = AXIS2_PLACEMENT_3D ( 'NONE', #604, #223, #894 ) ;
#358 = DIRECTION ( 'NONE',  ( -0.000000000000000000, 1.000000000000000000, -0.000000000000000000 ) ) ;
#359 = EDGE_CURVE ( 'NONE', #152, #271, #687, .T. ) ;
#360 = ORIENTED_EDGE ( 'NONE', *, *, #323, .F. ) ;
#361 = FACE_OUTER_BOUND ( 'NONE', #161, .T. ) ;
#362 = DIRECTION ( 'NONE',  ( 0.000000000000000000, 1.000000000000000000, 0.000000000000000000 ) ) ;
#363 = AXIS2_PLACEMENT_3D ( 'NONE', #667, #1068, #196 ) ;
#364 = CARTESIAN_POINT ( 'NONE',  ( -64.50000000000001421, 0.000000000000000000, -29.99999999999998934 ) ) ;
#365 = LINE ( 'NONE', #964, #815 ) ;
#366 = ORIENTED_EDGE ( 'NONE', *, *, #491, .T. ) ;
#367 = DIRECTION ( 'NONE',  ( -0.000000000000000000, 1.000000000000000000, -0.000000000000000000 ) ) ;
#368 = VERTEX_POINT ( 'NONE', #507 ) ;
#369 = DIRECTION ( 'NONE',  ( -0.000000000000000000, 1.000000000000000000, -0.000000000000000000 ) ) ;
#370 = CARTESIAN_POINT ( 'NONE',  ( -64.50000000000000000, 6.000000000000000000, 30.00000000000001066 ) ) ;
#371 = VERTEX_POINT ( 'NONE', #315 ) ;
#372 = CARTESIAN_POINT ( 'NONE',  ( 66.99999999999998579, 6.000000000000000000, -27.49999999999998934 ) ) ;
#373 = CIRCLE ( 'NONE', #34, 3.250000000000002665 ) ;
#374 = DIRECTION ( 'NONE',  ( -0.000000000000000000, -1.000000000000000000, -0.000000000000000000 ) ) ;
#375 = EDGE_LOOP ( 'NONE', ( #924, #227, #761, #566, #533, #802, #548, #1014 ) ) ;
#376 = VERTEX_POINT ( 'NONE', #694 ) ;
#377 = EDGE_CURVE ( 'NONE', #1065, #515, #688, .T. ) ;
#378 = VECTOR ( 'NONE', #897, 1000.000000000000000 ) ;
#379 = AXIS2_PLACEMENT_3D ( 'NONE', #495, #876, #587 ) ;
#380 = DIRECTION ( 'NONE',  ( -0.000000000000000000, 1.000000000000000000, -0.000000000000000000 ) ) ;
#381 = EDGE_LOOP ( 'NONE', ( #575, #1224, #1233, #795 ) ) ;
#382 = CARTESIAN_POINT ( 'NONE',  ( 63.00000000000000000, 3.000000000000000888, -23.99999999999999289 ) ) ;
#383 = CARTESIAN_POINT ( 'NONE',  ( 63.00000000000000000, 6.000000000000000000, -22.30000000000000071 ) ) ;
#384 = EDGE_CURVE ( 'NONE', #1119, #50, #843, .T. ) ;
#385 = VERTEX_POINT ( 'NONE', #701 ) ;
#386 = CARTESIAN_POINT ( 'NONE',  ( 64.50000000000000000, 6.000000000000000000, 27.50000000000000711 ) ) ;
#387 = AXIS2_PLACEMENT_3D ( 'NONE', #1146, #1159, #972 ) ;
#388 = DIRECTION ( 'NONE',  ( 0.000000000000000000, 0.000000000000000000, 1.000000000000000000 ) ) ;
#389 = EDGE_LOOP ( 'NONE', ( #146, #479, #1116, #189 ) ) ;
#390 = ORIENTED_EDGE ( 'NONE', *, *, #462, .T. ) ;
#391 = VECTOR ( 'NONE', #1203, 1000.000000000000000 ) ;
#392 = DIRECTION ( 'NONE',  ( -0.000000000000000000, 1.000000000000000000, -0.000000000000000000 ) ) ;
#393 = CARTESIAN_POINT ( 'NONE',  ( 63.00000000000000000, 3.000000000000000000, -23.99999999999999289 ) ) ;
#394 = LINE ( 'NONE', #372, #415 ) ;
#395 = VERTEX_POINT ( 'NONE', #792 ) ;
#396 = ORIENTED_EDGE ( 'NONE', *, *, #1083, .F. ) ;
#397 = CARTESIAN_POINT ( 'NONE',  ( -63.00000000000000000, 3.000000000000000000, -20.74999999999999645 ) ) ;
#398 = DIRECTION ( 'NONE',  ( -0.000000000000000000, 1.000000000000000000, -0.000000000000000000 ) ) ;
#399 = CARTESIAN_POINT ( 'NONE',  ( -67.00000000000001421, 6.000000000000000000, -29.99999999999998934 ) ) ;
#400 = CARTESIAN_POINT ( 'NONE',  ( -63.00000000000000000, 6.000000000000000000, 20.74999999999999645 ) ) ;
#401 = ORIENTED_EDGE ( 'NONE', *, *, #290, .F. ) ;
#402 = ORIENTED_EDGE ( 'NONE', *, *, #526, .F. ) ;
#403 = EDGE_CURVE ( 'NONE', #1215, #496, #618, .T. ) ;
#404 = CIRCLE ( 'NONE', #547, 2.499999999999998668 ) ;
#405 = DIRECTION ( 'NONE',  ( 0.000000000000000000, 0.000000000000000000, 1.000000000000000000 ) ) ;
#406 = EDGE_CURVE ( 'NONE', #769, #1141, #243, .T. ) ;
#407 = FACE_OUTER_BOUND ( 'NONE', #207, .T. ) ;
#408 = CARTESIAN_POINT ( 'NONE',  ( -18.00000000000000000, 4.000000000000000000, 4.000000000000004441 ) ) ;
#409 = ORIENTED_EDGE ( 'NONE', *, *, #200, .T. ) ;
#410 = ADVANCED_FACE ( 'NONE', ( #28, #1093, #983, #492, #1078, #134, #898 ), #583, .T. ) ;
#411 = CARTESIAN_POINT ( 'NONE',  ( 66.99999999999998579, 0.000000000000000000, -29.99999999999998934 ) ) ;
#412 = CARTESIAN_POINT ( 'NONE',  ( -18.00000000000000000, 0.000000000000000000, 4.750749256495796508E-15 ) ) ;
#413 = ORIENTED_EDGE ( 'NONE', *, *, #1061, .F. ) ;
#414 = CARTESIAN_POINT ( 'NONE',  ( -63.00000000000000000, 3.000000000000000888, 25.69999999999999929 ) ) ;
#415 = VECTOR ( 'NONE', #84, 1000.000000000000000 ) ;
#416 = FACE_OUTER_BOUND ( 'NONE', #381, .T. ) ;
#417 = CARTESIAN_POINT ( 'NONE',  ( 66.99999999999998579, 6.000000000000000000, -29.99999999999998934 ) ) ;
#418 = FACE_OUTER_BOUND ( 'NONE', #557, .T. ) ;
#419 = ORIENTED_EDGE ( 'NONE', *, *, #629, .F. ) ;
#420 = AXIS2_PLACEMENT_3D ( 'NONE', #613, #333, #1097 ) ;
#421 = DIRECTION ( 'NONE',  ( -0.000000000000000000, -1.000000000000000000, -0.000000000000000000 ) ) ;
#422 = EDGE_CURVE ( 'NONE', #1026, #662, #1130, .T. ) ;
#423 = DIRECTION ( 'NONE',  ( 0.000000000000000000, 1.000000000000000000, 0.000000000000000000 ) ) ;
#424 = EDGE_CURVE ( 'NONE', #356, #1202, #970, .T. ) ;
#425 = DIRECTION ( 'NONE',  ( -0.000000000000000000, -1.000000000000000000, -0.000000000000000000 ) ) ;
#426 = CIRCLE ( 'NONE', #731, 2.249999999999998668 ) ;
#427 = DIRECTION ( 'NONE',  ( 0.000000000000000000, 0.000000000000000000, 1.000000000000000000 ) ) ;
#428 = CARTESIAN_POINT ( 'NONE',  ( -63.00000000000000000, 6.000000000000000000, 22.30000000000000426 ) ) ;
#429 = AXIS2_PLACEMENT_3D ( 'NONE', #1185, #1084, #501 ) ;
#430 = ORIENTED_EDGE ( 'NONE', *, *, #494, .T. ) ;
#431 = DIRECTION ( 'NONE',  ( -2.312964634635742957E-16, -0.000000000000000000, -1.000000000000000000 ) ) ;
#432 = ORIENTED_EDGE ( 'NONE', *, *, #842, .F. ) ;
#433 = LINE ( 'NONE', #147, #391 ) ;
#434 = AXIS2_PLACEMENT_3D ( 'NONE', #136, #609, #712 ) ;
#435 = CARTESIAN_POINT ( 'NONE',  ( 63.00000000000000000, 6.000000000000000000, -23.99999999999999289 ) ) ;
#436 = ORIENTED_EDGE ( 'NONE', *, *, #444, .T. ) ;
#437 = ORIENTED_EDGE ( 'NONE', *, *, #1041, .T. ) ;
#438 = CARTESIAN_POINT ( 'NONE',  ( 63.00000000000000000, 6.000000000000000000, 24.00000000000000000 ) ) ;
#439 = VERTEX_POINT ( 'NONE', #101 ) ;
#440 = CYLINDRICAL_SURFACE ( 'NONE', #925, 1.699999999999993072 ) ;
#441 = ADVANCED_FACE ( 'NONE', ( #1164 ), #941, .F. ) ;
#442 = DIRECTION ( 'NONE',  ( 0.000000000000000000, 0.000000000000000000, 1.000000000000000000 ) ) ;
#443 = ORIENTED_EDGE ( 'NONE', *, *, #17, .T. ) ;
#444 = EDGE_CURVE ( 'NONE', #662, #1026, #1024, .T. ) ;
#445 = CARTESIAN_POINT ( 'NONE',  ( 18.00000000000000000, 0.000000000000000000, -6.271071935830379448E-15 ) ) ;
#446 = EDGE_CURVE ( 'NONE', #581, #476, #256, .T. ) ;
#447 = ORIENTED_EDGE ( 'NONE', *, *, #1004, .F. ) ;
#448 = FACE_BOUND ( 'NONE', #63, .T. ) ;
#449 = ORIENTED_EDGE ( 'NONE', *, *, #48, .F. ) ;
#450 = EDGE_CURVE ( 'NONE', #395, #981, #1234, .T. ) ;
#451 = DIRECTION ( 'NONE',  ( 0.000000000000000000, 0.000000000000000000, 1.000000000000000000 ) ) ;
#452 = EDGE_LOOP ( 'NONE', ( #267, #845, #16, #505 ) ) ;
#453 = CARTESIAN_POINT ( 'NONE',  ( -63.00000000000000000, 6.000000000000000000, -27.25000000000000355 ) ) ;
#454 = CARTESIAN_POINT ( 'NONE',  ( -63.00000000000000000, 0.000000000000000000, 22.30000000000000426 ) ) ;
#455 = DIRECTION ( 'NONE',  ( 2.312964634635742957E-16, 0.000000000000000000, 1.000000000000000000 ) ) ;
#456 = ORIENTED_EDGE ( 'NONE', *, *, #200, .F. ) ;
#457 = ORIENTED_EDGE ( 'NONE', *, *, #671, .T. ) ;
#458 = CARTESIAN_POINT ( 'NONE',  ( -67.00000000000000000, 6.000000000000000000, 27.50000000000000711 ) ) ;
#459 = ORIENTED_EDGE ( 'NONE', *, *, #8, .T. ) ;
#460 = CARTESIAN_POINT ( 'NONE',  ( -63.00000000000000000, 6.000000000000000000, -24.00000000000000000 ) ) ;
#461 = CARTESIAN_POINT ( 'NONE',  ( 63.00000000000000000, 3.000000000000000888, 22.30000000000000782 ) ) ;
#462 = EDGE_CURVE ( 'NONE', #607, #439, #208, .T. ) ;
#463 = ADVANCED_FACE ( 'NONE', ( #1157 ), #170, .F. ) ;
#464 = DIRECTION ( 'NONE',  ( 0.000000000000000000, 0.000000000000000000, -1.000000000000000000 ) ) ;
#465 = DIRECTION ( 'NONE',  ( -0.000000000000000000, 1.000000000000000000, -0.000000000000000000 ) ) ;
#466 = ORIENTED_EDGE ( 'NONE', *, *, #615, .T. ) ;
#467 = EDGE_LOOP ( 'NONE', ( #573, #940, #861, #80 ) ) ;
#468 = EDGE_CURVE ( 'NONE', #770, #259, #630, .T. ) ;
#469 = DIRECTION ( 'NONE',  ( -0.000000000000000000, 1.000000000000000000, -0.000000000000000000 ) ) ;
#470 = ORIENTED_EDGE ( 'NONE', *, *, #868, .T. ) ;
#471 = DIRECTION ( 'NONE',  ( 0.000000000000000000, 0.000000000000000000, 1.000000000000000000 ) ) ;
#472 = FACE_OUTER_BOUND ( 'NONE', #870, .T. ) ;
#473 = LINE ( 'NONE', #554, #847 ) ;
#474 = AXIS2_PLACEMENT_3D ( 'NONE', #1009, #933, #926 ) ;
#475 = FACE_OUTER_BOUND ( 'NONE', #854, .T. ) ;
#476 = VERTEX_POINT ( 'NONE', #1066 ) ;
#477 = CIRCLE ( 'NONE', #1020, 4.000000000000000000 ) ;
#478 = DIRECTION ( 'NONE',  ( 0.000000000000000000, 0.000000000000000000, 1.000000000000000000 ) ) ;
#479 = ORIENTED_EDGE ( 'NONE', *, *, #323, .T. ) ;
#480 = CARTESIAN_POINT ( 'NONE',  ( 18.00000000000000000, 4.000000000000000000, -6.271071935830379448E-15 ) ) ;
#481 = DIRECTION ( 'NONE',  ( 0.000000000000000000, 0.000000000000000000, -1.000000000000000000 ) ) ;
#482 = AXIS2_PLACEMENT_3D ( 'NONE', #281, #111, #297 ) ;
#483 = ORIENTED_EDGE ( 'NONE', *, *, #121, .T. ) ;
#484 = VERTEX_POINT ( 'NONE', #639 ) ;
#485 = CIRCLE ( 'NONE', #530, 1.700000000000000178 ) ;
#486 = DIRECTION ( 'NONE',  ( -1.000000000000000000, -0.000000000000000000, -0.000000000000000000 ) ) ;
#487 = DIRECTION ( 'NONE',  ( 1.000000000000000000, 0.000000000000000000, 0.000000000000000000 ) ) ;
#488 = CARTESIAN_POINT ( 'NONE',  ( -64.50000000000000000, 6.000000000000000000, 27.50000000000001066 ) ) ;
#489 = EDGE_LOOP ( 'NONE', ( #733, #1236, #254, #1069 ) ) ;
#490 = VERTEX_POINT ( 'NONE', #195 ) ;
#491 = EDGE_CURVE ( 'NONE', #73, #726, #426, .T. ) ;
#492 = FACE_BOUND ( 'NONE', #166, .T. ) ;
#493 = DIRECTION ( 'NONE',  ( -0.000000000000000000, 1.000000000000000000, -0.000000000000000000 ) ) ;
#494 = EDGE_CURVE ( 'NONE', #1119, #607, #771, .T. ) ;
#495 = CARTESIAN_POINT ( 'NONE',  ( -63.00000000000000000, 3.000000000000000888, 24.00000000000000000 ) ) ;
#496 = VERTEX_POINT ( 'NONE', #187 ) ;
#497 = AXIS2_PLACEMENT_3D ( 'NONE', #1160, #299, #774 ) ;
#498 = DIRECTION ( 'NONE',  ( -2.312964634635742957E-16, 0.000000000000000000, -1.000000000000000000 ) ) ;
#499 = CARTESIAN_POINT ( 'NONE',  ( -63.00000000000000000, 0.000000000000000000, 24.00000000000000000 ) ) ;
#500 = VECTOR ( 'NONE', #431, 1000.000000000000000 ) ;
#501 = DIRECTION ( 'NONE',  ( 0.000000000000000000, 0.000000000000000000, 1.000000000000000000 ) ) ;
#502 = LINE ( 'NONE', #215, #514 ) ;
#503 = FACE_BOUND ( 'NONE', #1025, .T. ) ;
#504 = PRODUCT_DEFINITION ( 'UNKNOWN', '', #45, #590 ) ;
#505 = ORIENTED_EDGE ( 'NONE', *, *, #905, .T. ) ;
#506 = VERTEX_POINT ( 'NONE', #203 ) ;
#507 = CARTESIAN_POINT ( 'NONE',  ( -63.00000000000000000, 3.000000000000000888, -22.30000000000000071 ) ) ;
#508 = PLANE ( 'NONE',  #910 ) ;
#509 = FACE_OUTER_BOUND ( 'NONE', #452, .T. ) ;
#510 = DIRECTION ( 'NONE',  ( -0.000000000000000000, 1.000000000000000000, -0.000000000000000000 ) ) ;
#511 = AXIS2_PLACEMENT_3D ( 'NONE', #929, #853, #442 ) ;
#512 = DIRECTION ( 'NONE',  ( -0.000000000000000000, 1.000000000000000000, -0.000000000000000000 ) ) ;
#513 = FACE_OUTER_BOUND ( 'NONE', #1161, .T. ) ;
#514 = VECTOR ( 'NONE', #130, 1000.000000000000000 ) ;
#515 = VERTEX_POINT ( 'NONE', #976 ) ;
#516 = CARTESIAN_POINT ( 'NONE',  ( 63.00000000000000000, 6.000000000000000000, -23.99999999999999289 ) ) ;
#517 = VECTOR ( 'NONE', #23, 1000.000000000000000 ) ;
#518 = AXIS2_PLACEMENT_3D ( 'NONE', #488, #1073, #204 ) ;
#519 = ORIENTED_EDGE ( 'NONE', *, *, #403, .F. ) ;
#520 = DIRECTION ( 'NONE',  ( 0.000000000000000000, 0.000000000000000000, 1.000000000000000000 ) ) ;
#521 = VECTOR ( 'NONE', #1127, 1000.000000000000000 ) ;
#522 = DIRECTION ( 'NONE',  ( 0.000000000000000000, 0.000000000000000000, 1.000000000000000000 ) ) ;
#523 = AXIS2_PLACEMENT_3D ( 'NONE', #599, #423, #528 ) ;
#524 = EDGE_LOOP ( 'NONE', ( #723, #186, #749, #288 ) ) ;
#525 = EDGE_LOOP ( 'NONE', ( #965, #15, #1153, #1125 ) ) ;
#526 = EDGE_CURVE ( 'NONE', #1011, #295, #178, .T. ) ;
#527 = AXIS2_PLACEMENT_3D ( 'NONE', #292, #673, #646 ) ;
#528 = DIRECTION ( 'NONE',  ( 0.000000000000000000, 0.000000000000000000, 1.000000000000000000 ) ) ;
#529 = FACE_OUTER_BOUND ( 'NONE', #931, .T. ) ;
#530 = AXIS2_PLACEMENT_3D ( 'NONE', #316, #225, #605 ) ;
#531 = CARTESIAN_POINT ( 'NONE',  ( 18.00000000000000000, 4.000000000000000000, -4.000000000000006217 ) ) ;
#532 = EDGE_LOOP ( 'NONE', ( #360, #937, #459, #1209 ) ) ;
#533 = ORIENTED_EDGE ( 'NONE', *, *, #812, .F. ) ;
#534 = ADVANCED_FACE ( 'NONE', ( #544 ), #879, .F. ) ;
#535 = DIRECTION ( 'NONE',  ( -0.000000000000000000, -1.000000000000000000, -0.000000000000000000 ) ) ;
#536 = ADVANCED_FACE ( 'NONE', ( #838, #361 ), #743, .F. ) ;
#537 = VERTEX_POINT ( 'NONE', #552 ) ;
#538 = PRESENTATION_STYLE_ASSIGNMENT (( #164 ) ) ;
#539 = EDGE_CURVE ( 'NONE', #64, #966, #38, .T. ) ;
#540 = CARTESIAN_POINT ( 'NONE',  ( 63.00000000000000000, 0.000000000000000000, 24.00000000000000000 ) ) ;
#541 = ORIENTED_EDGE ( 'NONE', *, *, #868, .F. ) ;
#542 = DIRECTION ( 'NONE',  ( 0.000000000000000000, 0.000000000000000000, 1.000000000000000000 ) ) ;
#543 = ORIENTED_EDGE ( 'NONE', *, *, #406, .F. ) ;
#544 = FACE_OUTER_BOUND ( 'NONE', #934, .T. ) ;
#545 = FACE_BOUND ( 'NONE', #661, .T. ) ;
#546 = LINE ( 'NONE', #954, #715 ) ;
#547 = AXIS2_PLACEMENT_3D ( 'NONE', #75, #647, #179 ) ;
#548 = ORIENTED_EDGE ( 'NONE', *, *, #1028, .F. ) ;
#549 = EDGE_CURVE ( 'NONE', #515, #1065, #352, .T. ) ;
#550 = LINE ( 'NONE', #1232, #145 ) ;
#551 = ORIENTED_EDGE ( 'NONE', *, *, #1041, .F. ) ;
#552 = CARTESIAN_POINT ( 'NONE',  ( -67.00000000000001421, 6.000000000000000000, -27.49999999999998934 ) ) ;
#553 = CYLINDRICAL_SURFACE ( 'NONE', #71, 4.000000000000000000 ) ;
#554 = CARTESIAN_POINT ( 'NONE',  ( -63.00000000000000000, 6.000000000000000000, -20.74999999999999645 ) ) ;
#555 = CARTESIAN_POINT ( 'NONE',  ( -18.00000000000000000, 4.000000000000000000, 4.750749256495796508E-15 ) ) ;
#556 = ORIENTED_EDGE ( 'NONE', *, *, #788, .T. ) ;
#557 = EDGE_LOOP ( 'NONE', ( #916, #44 ) ) ;
#558 = CARTESIAN_POINT ( 'NONE',  ( 63.00000000000000000, 3.000000000000000000, 24.00000000000000000 ) ) ;
#559 = ORIENTED_EDGE ( 'NONE', *, *, #682, .T. ) ;
#560 = DIRECTION ( 'NONE',  ( 0.000000000000000000, 0.000000000000000000, 1.000000000000000000 ) ) ;
#561 = DIRECTION ( 'NONE',  ( 0.000000000000000000, -0.000000000000000000, 1.000000000000000000 ) ) ;
#562 = ORIENTED_EDGE ( 'NONE', *, *, #775, .F. ) ;
#563 = DIRECTION ( 'NONE',  ( -0.000000000000000000, 1.000000000000000000, -0.000000000000000000 ) ) ;
#564 = DIRECTION ( 'NONE',  ( 0.000000000000000000, 0.000000000000000000, 1.000000000000000000 ) ) ;
#565 = ORIENTED_EDGE ( 'NONE', *, *, #601, .F. ) ;
#566 = ORIENTED_EDGE ( 'NONE', *, *, #908, .T. ) ;
#567 = DIRECTION ( 'NONE',  ( -1.000000000000000000, 0.000000000000000000, -0.000000000000000000 ) ) ;
#568 = CARTESIAN_POINT ( 'NONE',  ( -67.00000000000001421, 0.000000000000000000, -29.99999999999998934 ) ) ;
#569 = DIRECTION ( 'NONE',  ( -0.000000000000000000, 1.000000000000000000, -0.000000000000000000 ) ) ;
#570 = DIRECTION ( 'NONE',  ( 0.000000000000000000, 0.000000000000000000, -1.000000000000000000 ) ) ;
#571 = CIRCLE ( 'NONE', #1019, 3.250000000000002665 ) ;
#572 = DIRECTION ( 'NONE',  ( 0.000000000000000000, 1.000000000000000000, 0.000000000000000000 ) ) ;
#573 = ORIENTED_EDGE ( 'NONE', *, *, #840, .F. ) ;
#574 = EDGE_LOOP ( 'NONE', ( #1239, #1168, #666, #7 ) ) ;
#575 = ORIENTED_EDGE ( 'NONE', *, *, #144, .F. ) ;
#576 = CARTESIAN_POINT ( 'NONE',  ( -67.00000000000000000, 6.000000000000000000, 30.00000000000001066 ) ) ;
#577 = CARTESIAN_POINT ( 'NONE',  ( 63.00000000000000000, 6.000000000000000000, 27.25000000000000355 ) ) ;
#578 = DIRECTION ( 'NONE',  ( -0.000000000000000000, 1.000000000000000000, -0.000000000000000000 ) ) ;
#579 = ADVANCED_FACE ( 'NONE', ( #283 ), #1151, .F. ) ;
#580 = ORIENTED_EDGE ( 'NONE', *, *, #290, .T. ) ;
#581 = VERTEX_POINT ( 'NONE', #118 ) ;
#582 = AXIS2_PLACEMENT_3D ( 'NONE', #1002, #895, #990 ) ;
#583 = PLANE ( 'NONE',  #982 ) ;
#584 = VECTOR ( 'NONE', #10, 1000.000000000000000 ) ;
#585 = CARTESIAN_POINT ( 'NONE',  ( -63.00000000000000000, 6.000000000000000000, -24.00000000000000000 ) ) ;
#586 = AXIS2_PLACEMENT_3D ( 'NONE', #891, #1173, #998 ) ;
#587 = DIRECTION ( 'NONE',  ( 0.000000000000000000, 0.000000000000000000, 1.000000000000000000 ) ) ;
#588 = AXIS2_PLACEMENT_3D ( 'NONE', #1165, #675, #1171 ) ;
#589 = ADVANCED_FACE ( 'NONE', ( #683 ), #298, .F. ) ;
#590 = PRODUCT_DEFINITION_CONTEXT ( 'detailed design', #1033, 'design' ) ;
#591 = ORIENTED_EDGE ( 'NONE', *, *, #150, .F. ) ;
#592 = CARTESIAN_POINT ( 'NONE',  ( 0.000000000000000000, 6.000000000000000000, 0.000000000000000000 ) ) ;
#593 = LINE ( 'NONE', #900, #209 ) ;
#594 = CIRCLE ( 'NONE', #420, 2.249999999999998668 ) ;
#595 = VECTOR ( 'NONE', #578, 1000.000000000000000 ) ;
#596 = CARTESIAN_POINT ( 'NONE',  ( -64.50000000000001421, 6.000000000000000000, -27.49999999999998934 ) ) ;
#597 = EDGE_CURVE ( 'NONE', #216, #1133, #741, .T. ) ;
#598 = DIRECTION ( 'NONE',  ( 0.000000000000000000, 1.000000000000000000, 0.000000000000000000 ) ) ;
#599 = CARTESIAN_POINT ( 'NONE',  ( 18.00000000000000000, 6.000000000000000000, -6.271071935830379448E-15 ) ) ;
#600 = PRODUCT_CONTEXT ( 'NONE', #717, 'mechanical' ) ;
#601 = EDGE_CURVE ( 'NONE', #726, #73, #1017, .T. ) ;
#602 = CYLINDRICAL_SURFACE ( 'NONE', #756, 2.249999999999998668 ) ;
#603 = AXIS2_PLACEMENT_3D ( 'NONE', #718, #617, #520 ) ;
#604 = CARTESIAN_POINT ( 'NONE',  ( -63.00000000000000000, 6.000000000000000000, -24.00000000000000000 ) ) ;
#605 = DIRECTION ( 'NONE',  ( 0.000000000000000000, 0.000000000000000000, 1.000000000000000000 ) ) ;
#606 = CARTESIAN_POINT ( 'NONE',  ( -18.00000000000000000, 0.000000000000000000, -3.999999999999995559 ) ) ;
#607 = VERTEX_POINT ( 'NONE', #745 ) ;
#608 = CARTESIAN_POINT ( 'NONE',  ( -64.50000000000000000, 6.000000000000000000, 30.00000000000001066 ) ) ;
#609 = DIRECTION ( 'NONE',  ( 0.000000000000000000, 1.000000000000000000, 0.000000000000000000 ) ) ;
#610 = CIRCLE ( 'NONE', #700, 2.249999999999998668 ) ;
#611 = ORIENTED_EDGE ( 'NONE', *, *, #1006, .T. ) ;
#612 = CARTESIAN_POINT ( 'NONE',  ( 64.50000000000000000, 0.000000000000000000, 30.00000000000001066 ) ) ;
#613 = CARTESIAN_POINT ( 'NONE',  ( -18.00000000000000000, 4.000000000000000000, 4.750749256495796508E-15 ) ) ;
#614 = ADVANCED_FACE ( 'NONE', ( #659 ), #1079, .T. ) ;
#615 = EDGE_CURVE ( 'NONE', #271, #216, #394, .T. ) ;
#616 = ORIENTED_EDGE ( 'NONE', *, *, #1112, .F. ) ;
#617 = DIRECTION ( 'NONE',  ( -0.000000000000000000, -1.000000000000000000, -0.000000000000000000 ) ) ;
#618 = CIRCLE ( 'NONE', #83, 3.250000000000002665 ) ;
#619 = AXIS2_PLACEMENT_3D ( 'NONE', #190, #1237, #113 ) ;
#620 = FACE_OUTER_BOUND ( 'NONE', #857, .T. ) ;
#621 = AXIS2_PLACEMENT_3D ( 'NONE', #804, #1106, #226 ) ;
#622 = CARTESIAN_POINT ( 'NONE',  ( 63.00000000000000000, 3.000000000000000000, 20.74999999999999645 ) ) ;
#623 = ADVANCED_FACE ( 'NONE', ( #1059 ), #773, .F. ) ;
#624 = VECTOR ( 'NONE', #1013, 1000.000000000000000 ) ;
#625 = DIRECTION ( 'NONE',  ( 0.000000000000000000, 0.000000000000000000, 1.000000000000000000 ) ) ;
#626 = ORIENTED_EDGE ( 'NONE', *, *, #446, .F. ) ;
#627 = ORIENTED_EDGE ( 'NONE', *, *, #549, .T. ) ;
#628 = EDGE_CURVE ( 'NONE', #50, #439, #473, .T. ) ;
#629 = EDGE_CURVE ( 'NONE', #927, #1011, #914, .T. ) ;
#630 = CIRCLE ( 'NONE', #805, 4.000000000000000000 ) ;
#631 = CARTESIAN_POINT ( 'NONE',  ( 67.00000000000000000, 0.000000000000000000, 27.50000000000000711 ) ) ;
#632 = EDGE_LOOP ( 'NONE', ( #877, #1043 ) ) ;
#633 = SURFACE_STYLE_FILL_AREA ( #255 ) ;
#634 = VECTOR ( 'NONE', #1111, 1000.000000000000000 ) ;
#635 = DIRECTION ( 'NONE',  ( 0.000000000000000000, -1.000000000000000000, 0.000000000000000000 ) ) ;
#636 = VERTEX_POINT ( 'NONE', #1138 ) ;
#637 = CARTESIAN_POINT ( 'NONE',  ( -63.00000000000000000, 3.000000000000000000, 24.00000000000000000 ) ) ;
#638 = ORIENTED_EDGE ( 'NONE', *, *, #123, .F. ) ;
#639 = CARTESIAN_POINT ( 'NONE',  ( -18.00000000000000000, 4.000000000000000000, 2.250000000000003109 ) ) ;
#640 =( NAMED_UNIT ( * ) SI_UNIT ( $, .STERADIAN. ) SOLID_ANGLE_UNIT ( ) );
#641 = DIRECTION ( 'NONE',  ( -0.000000000000000000, -1.000000000000000000, -0.000000000000000000 ) ) ;
#642 = ORIENTED_EDGE ( 'NONE', *, *, #105, .F. ) ;
#643 = ORIENTED_EDGE ( 'NONE', *, *, #1083, .T. ) ;
#644 = LINE ( 'NONE', #1044, #1082 ) ;
#645 = VERTEX_POINT ( 'NONE', #880 ) ;
#646 = DIRECTION ( 'NONE',  ( 0.000000000000000000, 0.000000000000000000, -1.000000000000000000 ) ) ;
#647 = DIRECTION ( 'NONE',  ( -0.000000000000000000, -1.000000000000000000, -0.000000000000000000 ) ) ;
#648 = FACE_OUTER_BOUND ( 'NONE', #206, .T. ) ;
#649 = DIRECTION ( 'NONE',  ( 0.000000000000000000, 1.000000000000000000, 0.000000000000000000 ) ) ;
#650 = VECTOR ( 'NONE', #349, 1000.000000000000000 ) ;
#651 = VECTOR ( 'NONE', #951, 1000.000000000000000 ) ;
#652 = ORIENTED_EDGE ( 'NONE', *, *, #242, .F. ) ;
#653 = DIRECTION ( 'NONE',  ( 0.000000000000000000, 0.000000000000000000, 1.000000000000000000 ) ) ;
#654 = ORIENTED_EDGE ( 'NONE', *, *, #714, .T. ) ;
#655 = DIRECTION ( 'NONE',  ( -0.000000000000000000, 1.000000000000000000, -0.000000000000000000 ) ) ;
#656 = FACE_BOUND ( 'NONE', #938, .T. ) ;
#657 = VERTEX_POINT ( 'NONE', #577 ) ;
#658 = CIRCLE ( 'NONE', #1053, 4.000000000000000000 ) ;
#659 = FACE_OUTER_BOUND ( 'NONE', #467, .T. ) ;
#660 = CYLINDRICAL_SURFACE ( 'NONE', #1246, 2.499999999999998668 ) ;
#661 = EDGE_LOOP ( 'NONE', ( #276, #1080 ) ) ;
#662 = VERTEX_POINT ( 'NONE', #979 ) ;
#663 = DIRECTION ( 'NONE',  ( 0.000000000000000000, 0.000000000000000000, -1.000000000000000000 ) ) ;
#664 = VERTEX_POINT ( 'NONE', #364 ) ;
#665 = DIRECTION ( 'NONE',  ( -0.000000000000000000, -1.000000000000000000, -0.000000000000000000 ) ) ;
#666 = ORIENTED_EDGE ( 'NONE', *, *, #1213, .T. ) ;
#667 = CARTESIAN_POINT ( 'NONE',  ( 64.49999999999998579, 6.000000000000000000, -27.49999999999998934 ) ) ;
#668 = APPLICATION_PROTOCOL_DEFINITION ( 'draft international standard', 'automotive_design', 1998, #1033 ) ;
#669 = ORIENTED_EDGE ( 'NONE', *, *, #962, .F. ) ;
#670 = ORIENTED_EDGE ( 'NONE', *, *, #377, .F. ) ;
#671 = EDGE_CURVE ( 'NONE', #66, #1218, #1181, .T. ) ;
#672 = CARTESIAN_POINT ( 'NONE',  ( 63.00000000000000000, 6.000000000000000000, -23.99999999999999289 ) ) ;
#673 = DIRECTION ( 'NONE',  ( -0.000000000000000000, -1.000000000000000000, -0.000000000000000000 ) ) ;
#674 = EDGE_CURVE ( 'NONE', #537, #927, #754, .T. ) ;
#675 = DIRECTION ( 'NONE',  ( -0.000000000000000000, -1.000000000000000000, -0.000000000000000000 ) ) ;
#676 = DIRECTION ( 'NONE',  ( 0.000000000000000000, 0.000000000000000000, 1.000000000000000000 ) ) ;
#677 = ADVANCED_FACE ( 'NONE', ( #781 ), #304, .F. ) ;
#678 = EDGE_LOOP ( 'NONE', ( #638, #251, #443, #447 ) ) ;
#679 = AXIS2_PLACEMENT_3D ( 'NONE', #1122, #465, #755 ) ;
#680 = CARTESIAN_POINT ( 'NONE',  ( 63.00000000000000000, 6.000000000000000000, 20.74999999999999645 ) ) ;
#681 = DIRECTION ( 'NONE',  ( 1.000000000000000000, 0.000000000000000000, -2.312964634635742957E-16 ) ) ;
#682 = EDGE_CURVE ( 'NONE', #50, #1119, #88, .T. ) ;
#683 = FACE_OUTER_BOUND ( 'NONE', #525, .T. ) ;
#684 =( NAMED_UNIT ( * ) PLANE_ANGLE_UNIT ( ) SI_UNIT ( $, .RADIAN. ) );
#685 = EDGE_LOOP ( 'NONE', ( #616, #449 ) ) ;
#686 = COLOUR_RGB ( '',0.7921568627450980005, 0.8196078431372548767, 0.9333333333333333481 ) ;
#687 = LINE ( 'NONE', #411, #517 ) ;
#688 = CIRCLE ( 'NONE', #429, 1.699999999999996625 ) ;
#689 = FACE_OUTER_BOUND ( 'NONE', #834, .T. ) ;
#690 =( NAMED_UNIT ( * ) SI_UNIT ( $, .STERADIAN. ) SOLID_ANGLE_UNIT ( ) );
#691 = AXIS2_PLACEMENT_3D ( 'NONE', #5, #852, #570 ) ;
#692 = ADVANCED_FACE ( 'NONE', ( #648 ), #862, .T. ) ;
#693 = EDGE_CURVE ( 'NONE', #1141, #769, #1110, .T. ) ;
#694 = CARTESIAN_POINT ( 'NONE',  ( -18.00000000000000000, 0.000000000000000000, -3.999999999999995559 ) ) ;
#695 = LINE ( 'NONE', #236, #339 ) ;
#696 = ADVANCED_FACE ( 'NONE', ( #787, #407 ), #707, .F. ) ;
#697 = DIRECTION ( 'NONE',  ( -0.000000000000000000, 1.000000000000000000, -0.000000000000000000 ) ) ;
#698 = AXIS2_PLACEMENT_3D ( 'NONE', #438, #176, #262 ) ;
#699 = VECTOR ( 'NONE', #486, 1000.000000000000000 ) ;
#700 = AXIS2_PLACEMENT_3D ( 'NONE', #62, #346, #841 ) ;
#701 = CARTESIAN_POINT ( 'NONE',  ( -18.00000000000000000, 4.000000000000000000, -2.249999999999993783 ) ) ;
#702 = CARTESIAN_POINT ( 'NONE',  ( 64.69999999999998863, 3.000000000000000444, -23.99999999999999289 ) ) ;
#703 = DIRECTION ( 'NONE',  ( 0.000000000000000000, 0.000000000000000000, 1.000000000000000000 ) ) ;
#704 = AXIS2_PLACEMENT_3D ( 'NONE', #959, #91, #471 ) ;
#705 = VERTEX_POINT ( 'NONE', #135 ) ;
#706 = AXIS2_PLACEMENT_3D ( 'NONE', #412, #1085, #711 ) ;
#707 = PLANE ( 'NONE',  #582 ) ;
#708 = DIRECTION ( 'NONE',  ( 0.000000000000000000, 0.000000000000000000, -1.000000000000000000 ) ) ;
#709 = AXIS2_PLACEMENT_3D ( 'NONE', #321, #1005, #210 ) ;
#710 = ORIENTED_EDGE ( 'NONE', *, *, #714, .F. ) ;
#711 = DIRECTION ( 'NONE',  ( 0.000000000000000000, 0.000000000000000000, -1.000000000000000000 ) ) ;
#712 = DIRECTION ( 'NONE',  ( 0.000000000000000000, 0.000000000000000000, 1.000000000000000000 ) ) ;
#713 = ADVANCED_FACE ( 'NONE', ( #799, #35 ), #508, .F. ) ;
#714 = EDGE_CURVE ( 'NONE', #368, #1167, #485, .T. ) ;
#715 = VECTOR ( 'NONE', #85, 1000.000000000000000 ) ;
#716 = EDGE_LOOP ( 'NONE', ( #626, #116 ) ) ;
#717 = APPLICATION_CONTEXT ( 'automotive_design' ) ;
#718 = CARTESIAN_POINT ( 'NONE',  ( 64.50000000000000000, 0.000000000000000000, 27.50000000000000711 ) ) ;
#719 = EDGE_CURVE ( 'NONE', #645, #851, #41, .T. ) ;
#720 = DIRECTION ( 'NONE',  ( 0.000000000000000000, 0.000000000000000000, 1.000000000000000000 ) ) ;
#721 = DIRECTION ( 'NONE',  ( 0.000000000000000000, -0.000000000000000000, -1.000000000000000000 ) ) ;
#722 = ORIENTED_EDGE ( 'NONE', *, *, #806, .T. ) ;
#723 = ORIENTED_EDGE ( 'NONE', *, *, #494, .F. ) ;
#724 = AXIS2_PLACEMENT_3D ( 'NONE', #748, #358, #542 ) ;
#725 = FACE_OUTER_BOUND ( 'NONE', #574, .T. ) ;
#726 = VERTEX_POINT ( 'NONE', #906 ) ;
#727 = DIRECTION ( 'NONE',  ( -0.000000000000000000, 1.000000000000000000, -0.000000000000000000 ) ) ;
#728 = DIRECTION ( 'NONE',  ( 0.000000000000000000, 0.000000000000000000, -1.000000000000000000 ) ) ;
#729 = ORIENTED_EDGE ( 'NONE', *, *, #1004, .T. ) ;
#730 = EDGE_LOOP ( 'NONE', ( #881, #341 ) ) ;
#731 = AXIS2_PLACEMENT_3D ( 'NONE', #480, #871, #3 ) ;
#732 = DIRECTION ( 'NONE',  ( 0.000000000000000000, 1.000000000000000000, 0.000000000000000000 ) ) ;
#733 = ORIENTED_EDGE ( 'NONE', *, *, #1028, .T. ) ;
#734 =( NAMED_UNIT ( * ) PLANE_ANGLE_UNIT ( ) SI_UNIT ( $, .RADIAN. ) );
#735 = VECTOR ( 'NONE', #1186, 1000.000000000000000 ) ;
#736 = CYLINDRICAL_SURFACE ( 'NONE', #921, 2.249999999999998668 ) ;
#737 = AXIS2_PLACEMENT_3D ( 'NONE', #1170, #117, #1087 ) ;
#738 = ORIENTED_EDGE ( 'NONE', *, *, #269, .F. ) ;
#739 = EDGE_LOOP ( 'NONE', ( #1058, #1229 ) ) ;
#740 = CARTESIAN_POINT ( 'NONE',  ( -18.00000000000000000, 4.000000000000000000, -3.999999999999995559 ) ) ;
#741 = CIRCLE ( 'NONE', #363, 2.499999999999998668 ) ;
#742 = ORIENTED_EDGE ( 'NONE', *, *, #422, .T. ) ;
#743 = PLANE ( 'NONE',  #1251 ) ;
#744 = LINE ( 'NONE', #273, #757 ) ;
#745 = CARTESIAN_POINT ( 'NONE',  ( -63.00000000000000000, 6.000000000000000000, -27.25000000000000355 ) ) ;
#746 = DIRECTION ( 'NONE',  ( 0.000000000000000000, 1.000000000000000000, 0.000000000000000000 ) ) ;
#747 = ORIENTED_EDGE ( 'NONE', *, *, #265, .F. ) ;
#748 = CARTESIAN_POINT ( 'NONE',  ( 63.00000000000000000, 3.000000000000000888, 24.00000000000000000 ) ) ;
#749 = ORIENTED_EDGE ( 'NONE', *, *, #628, .T. ) ;
#750 = AXIS2_PLACEMENT_3D ( 'NONE', #445, #535, #708 ) ;
#751 = DIRECTION ( 'NONE',  ( 0.000000000000000000, -0.000000000000000000, -1.000000000000000000 ) ) ;
#752 = CARTESIAN_POINT ( 'NONE',  ( 63.00000000000000000, 3.000000000000000000, -20.74999999999998934 ) ) ;
#753 = ORIENTED_EDGE ( 'NONE', *, *, #806, .F. ) ;
#754 = LINE ( 'NONE', #399, #310 ) ;
#755 = DIRECTION ( 'NONE',  ( 0.000000000000000000, 0.000000000000000000, 1.000000000000000000 ) ) ;
#756 = AXIS2_PLACEMENT_3D ( 'NONE', #1193, #1000, #201 ) ;
#757 = VECTOR ( 'NONE', #942, 1000.000000000000000 ) ;
#758 = ORIENTED_EDGE ( 'NONE', *, *, #671, .F. ) ;
#759 = ORIENTED_EDGE ( 'NONE', *, *, #233, .T. ) ;
#760 = PLANE ( 'NONE',  #1227 ) ;
#761 = ORIENTED_EDGE ( 'NONE', *, *, #359, .F. ) ;
#762 = DIRECTION ( 'NONE',  ( -0.000000000000000000, 1.000000000000000000, -0.000000000000000000 ) ) ;
#763 = FACE_BOUND ( 'NONE', #730, .T. ) ;
#764 = ORIENTED_EDGE ( 'NONE', *, *, #809, .F. ) ;
#765 = VECTOR ( 'NONE', #794, 1000.000000000000000 ) ;
#766 = EDGE_CURVE ( 'NONE', #106, #726, #593, .T. ) ;
#767 = CARTESIAN_POINT ( 'NONE',  ( -63.00000000000000000, 3.000000000000000000, -24.00000000000000000 ) ) ;
#768 = CYLINDRICAL_SURFACE ( 'NONE', #497, 1.699999999999996625 ) ;
#769 = VERTEX_POINT ( 'NONE', #138 ) ;
#770 = VERTEX_POINT ( 'NONE', #803 ) ;
#771 = LINE ( 'NONE', #453, #923 ) ;
#772 = EDGE_CURVE ( 'NONE', #192, #496, #1195, .T. ) ;
#773 = CYLINDRICAL_SURFACE ( 'NONE', #588, 2.249999999999998668 ) ;
#774 = DIRECTION ( 'NONE',  ( 0.000000000000000000, 0.000000000000000000, 1.000000000000000000 ) ) ;
#775 = EDGE_CURVE ( 'NONE', #1011, #64, #1182, .T. ) ;
#776 = EDGE_LOOP ( 'NONE', ( #342, #483, #169, #456 ) ) ;
#777 = ORIENTED_EDGE ( 'NONE', *, *, #244, .F. ) ;
#778 = ADVANCED_FACE ( 'NONE', ( #689 ), #1008, .F. ) ;
#779 = LINE ( 'NONE', #807, #1103 ) ;
#780 = CARTESIAN_POINT ( 'NONE',  ( 63.00000000000000000, 6.000000000000000000, 22.30000000000000782 ) ) ;
#781 = FACE_OUTER_BOUND ( 'NONE', #524, .T. ) ;
#782 = CARTESIAN_POINT ( 'NONE',  ( -63.00000000000000000, 6.000000000000000000, 20.74999999999999645 ) ) ;
#783 = ORIENTED_EDGE ( 'NONE', *, *, #1184, .F. ) ;
#784 = ORIENTED_EDGE ( 'NONE', *, *, #918, .F. ) ;
#785 = CIRCLE ( 'NONE', #865, 1.699999999999996625 ) ;
#786 = DIRECTION ( 'NONE',  ( 0.000000000000000000, 0.000000000000000000, 1.000000000000000000 ) ) ;
#787 = FACE_BOUND ( 'NONE', #87, .T. ) ;
#788 = EDGE_CURVE ( 'NONE', #376, #887, #353, .T. ) ;
#789 = ORIENTED_EDGE ( 'NONE', *, *, #693, .F. ) ;
#790 = CARTESIAN_POINT ( 'NONE',  ( 63.00000000000000000, 6.000000000000000000, -20.74999999999998934 ) ) ;
#791 = ORIENTED_EDGE ( 'NONE', *, *, #244, .T. ) ;
#792 = CARTESIAN_POINT ( 'NONE',  ( 63.00000000000000000, 0.000000000000000000, 22.30000000000000782 ) ) ;
#793 = AXIS2_PLACEMENT_3D ( 'NONE', #596, #883, #889 ) ;
#794 = DIRECTION ( 'NONE',  ( -0.000000000000000000, 1.000000000000000000, -0.000000000000000000 ) ) ;
#795 = ORIENTED_EDGE ( 'NONE', *, *, #112, .F. ) ;
#796 = CYLINDRICAL_SURFACE ( 'NONE', #1074, 3.250000000000002665 ) ;
#797 = AXIS2_PLACEMENT_3D ( 'NONE', #585, #563, #984 ) ;
#798 = CARTESIAN_POINT ( 'NONE',  ( -63.00000000000000000, 0.000000000000000000, 25.69999999999999574 ) ) ;
#799 = FACE_BOUND ( 'NONE', #716, .T. ) ;
#800 = LINE ( 'NONE', #901, #249 ) ;
#801 = VECTOR ( 'NONE', #59, 1000.000000000000000 ) ;
#802 = ORIENTED_EDGE ( 'NONE', *, *, #539, .T. ) ;
#803 = CARTESIAN_POINT ( 'NONE',  ( 18.00000000000000000, 0.000000000000000000, -4.000000000000006217 ) ) ;
#804 = CARTESIAN_POINT ( 'NONE',  ( 63.00000000000000000, 6.000000000000000000, 24.00000000000000000 ) ) ;
#805 = AXIS2_PLACEMENT_3D ( 'NONE', #849, #665, #1072 ) ;
#806 = EDGE_CURVE ( 'NONE', #66, #385, #142, .T. ) ;
#807 = CARTESIAN_POINT ( 'NONE',  ( 63.00000000000000000, 6.000000000000000000, -20.74999999999998934 ) ) ;
#808 = CIRCLE ( 'NONE', #1098, 2.499999999999998668 ) ;
#809 = EDGE_CURVE ( 'NONE', #356, #971, #324, .T. ) ;
#810 = DIRECTION ( 'NONE',  ( -0.000000000000000000, -1.000000000000000000, -0.000000000000000000 ) ) ;
#811 = DIRECTION ( 'NONE',  ( -0.000000000000000000, 1.000000000000000000, -0.000000000000000000 ) ) ;
#812 = EDGE_CURVE ( 'NONE', #64, #813, #695, .T. ) ;
#813 = VERTEX_POINT ( 'NONE', #612 ) ;
#814 = AXIS2_PLACEMENT_3D ( 'NONE', #672, #878, #9 ) ;
#815 = VECTOR ( 'NONE', #1035, 1000.000000000000000 ) ;
#816 = ORIENTED_EDGE ( 'NONE', *, *, #424, .T. ) ;
#817 = CARTESIAN_POINT ( 'NONE',  ( -18.00000000000000000, 0.000000000000000000, 4.000000000000004441 ) ) ;
#818 = ADVANCED_FACE ( 'NONE', ( #219 ), #1012, .F. ) ;
#819 = AXIS2_PLACEMENT_3D ( 'NONE', #917, #1040, #720 ) ;
#820 = EDGE_CURVE ( 'NONE', #645, #657, #502, .T. ) ;
#821 = DIRECTION ( 'NONE',  ( -0.000000000000000000, 1.000000000000000000, -0.000000000000000000 ) ) ;
#822 = ORIENTED_EDGE ( 'NONE', *, *, #359, .T. ) ;
#823 = EDGE_LOOP ( 'NONE', ( #710, #551 ) ) ;
#824 = DIRECTION ( 'NONE',  ( 0.000000000000000000, -0.000000000000000000, 1.000000000000000000 ) ) ;
#825 = EDGE_LOOP ( 'NONE', ( #1242, #946, #759, #1207 ) ) ;
#826 = DIRECTION ( 'NONE',  ( 0.000000000000000000, 0.000000000000000000, 1.000000000000000000 ) ) ;
#827 = CARTESIAN_POINT ( 'NONE',  ( 64.50000000000000000, 6.000000000000000000, 30.00000000000001066 ) ) ;
#828 = EDGE_LOOP ( 'NONE', ( #1050, #430, #390, #987 ) ) ;
#829 = ORIENTED_EDGE ( 'NONE', *, *, #450, .F. ) ;
#830 = CARTESIAN_POINT ( 'NONE',  ( -18.00000000000000000, 0.000000000000000000, 4.000000000000004441 ) ) ;
#831 = ORIENTED_EDGE ( 'NONE', *, *, #719, .T. ) ;
#832 = CIRCLE ( 'NONE', #511, 1.700000000000000178 ) ;
#833 = CYLINDRICAL_SURFACE ( 'NONE', #301, 1.699999999999993072 ) ;
#834 = EDGE_LOOP ( 'NONE', ( #783, #777, #331, #90 ) ) ;
#835 = ORIENTED_EDGE ( 'NONE', *, *, #597, .T. ) ;
#836 = DIRECTION ( 'NONE',  ( -0.000000000000000000, 1.000000000000000000, -0.000000000000000000 ) ) ;
#837 = ORIENTED_EDGE ( 'NONE', *, *, #446, .T. ) ;
#838 = FACE_BOUND ( 'NONE', #823, .T. ) ;
#839 = CARTESIAN_POINT ( 'NONE',  ( -18.00000000000000000, 0.000000000000000000, 4.750749256495796508E-15 ) ) ;
#840 = EDGE_CURVE ( 'NONE', #295, #506, #159, .T. ) ;
#841 = DIRECTION ( 'NONE',  ( 0.000000000000000000, 0.000000000000000000, -1.000000000000000000 ) ) ;
#842 = EDGE_CURVE ( 'NONE', #506, #216, #31, .T. ) ;
#843 = CIRCLE ( 'NONE', #1179, 3.250000000000002665 ) ;
#844 = VERTEX_POINT ( 'NONE', #51 ) ;
#845 = ORIENTED_EDGE ( 'NONE', *, *, #1061, .T. ) ;
#846 = DIRECTION ( 'NONE',  ( -0.000000000000000000, 1.000000000000000000, -0.000000000000000000 ) ) ;
#847 = VECTOR ( 'NONE', #493, 1000.000000000000000 ) ;
#848 = ORIENTED_EDGE ( 'NONE', *, *, #384, .T. ) ;
#849 = CARTESIAN_POINT ( 'NONE',  ( 18.00000000000000000, 0.000000000000000000, -6.271071935830379448E-15 ) ) ;
#850 = DIRECTION ( 'NONE',  ( -0.000000000000000000, -1.000000000000000000, -0.000000000000000000 ) ) ;
#851 = VERTEX_POINT ( 'NONE', #622 ) ;
#852 = DIRECTION ( 'NONE',  ( -0.000000000000000000, -1.000000000000000000, -0.000000000000000000 ) ) ;
#853 = DIRECTION ( 'NONE',  ( -0.000000000000000000, 1.000000000000000000, -0.000000000000000000 ) ) ;
#854 = EDGE_LOOP ( 'NONE', ( #791, #350 ) ) ;
#855 = ORIENTED_EDGE ( 'NONE', *, *, #812, .T. ) ;
#856 = CARTESIAN_POINT ( 'NONE',  ( -18.00000000000000000, 6.000000000000000000, 4.750749256495796508E-15 ) ) ;
#857 = EDGE_LOOP ( 'NONE', ( #1174, #1045, #729, #837 ) ) ;
#858 = CIRCLE ( 'NONE', #314, 3.250000000000002665 ) ;
#859 = CARTESIAN_POINT ( 'NONE',  ( -63.00000000000000000, 6.000000000000000000, 25.69999999999999574 ) ) ;
#860 = DIRECTION ( 'NONE',  ( 0.000000000000000000, 0.000000000000000000, -1.000000000000000000 ) ) ;
#861 = ORIENTED_EDGE ( 'NONE', *, *, #908, .F. ) ;
#862 = CYLINDRICAL_SURFACE ( 'NONE', #30, 2.499999999999998668 ) ;
#863 = PLANE ( 'NONE',  #888 ) ;
#864 = CIRCLE ( 'NONE', #523, 2.249999999999998668 ) ;
#865 = AXIS2_PLACEMENT_3D ( 'NONE', #275, #649, #625 ) ;
#866 = ORIENTED_EDGE ( 'NONE', *, *, #526, .T. ) ;
#867 = EDGE_LOOP ( 'NONE', ( #1158, #764, #816, #107 ) ) ;
#868 = EDGE_CURVE ( 'NONE', #259, #770, #658, .T. ) ;
#869 = DIRECTION ( 'NONE',  ( -0.000000000000000000, -1.000000000000000000, -0.000000000000000000 ) ) ;
#870 = EDGE_LOOP ( 'NONE', ( #1124, #885, #409, #556 ) ) ;
#871 = DIRECTION ( 'NONE',  ( -0.000000000000000000, -1.000000000000000000, -0.000000000000000000 ) ) ;
#872 = EDGE_CURVE ( 'NONE', #240, #106, #1204, .T. ) ;
#873 = ORIENTED_EDGE ( 'NONE', *, *, #468, .F. ) ;
#874 = AXIS2_PLACEMENT_3D ( 'NONE', #499, #308, #1105 ) ;
#875 = DIRECTION ( 'NONE',  ( -0.000000000000000000, -1.000000000000000000, -0.000000000000000000 ) ) ;
#876 = DIRECTION ( 'NONE',  ( -0.000000000000000000, 1.000000000000000000, -0.000000000000000000 ) ) ;
#877 = ORIENTED_EDGE ( 'NONE', *, *, #247, .F. ) ;
#878 = DIRECTION ( 'NONE',  ( -0.000000000000000000, 1.000000000000000000, -0.000000000000000000 ) ) ;
#879 = CYLINDRICAL_SURFACE ( 'NONE', #909, 1.699999999999996625 ) ;
#880 = CARTESIAN_POINT ( 'NONE',  ( 63.00000000000000000, 3.000000000000000000, 27.25000000000000355 ) ) ;
#881 = ORIENTED_EDGE ( 'NONE', *, *, #809, .T. ) ;
#882 = EDGE_LOOP ( 'NONE', ( #543, #949, #470, #669 ) ) ;
#883 = DIRECTION ( 'NONE',  ( 0.000000000000000000, -1.000000000000000000, 0.000000000000000000 ) ) ;
#884 = DIRECTION ( 'NONE',  ( -0.000000000000000000, 1.000000000000000000, -0.000000000000000000 ) ) ;
#885 = ORIENTED_EDGE ( 'NONE', *, *, #330, .F. ) ;
#886 = DIRECTION ( 'NONE',  ( -0.000000000000000000, 1.000000000000000000, -0.000000000000000000 ) ) ;
#887 = VERTEX_POINT ( 'NONE', #817 ) ;
#888 = AXIS2_PLACEMENT_3D ( 'NONE', #160, #1249, #721 ) ;
#889 = DIRECTION ( 'NONE',  ( 0.000000000000000000, 0.000000000000000000, -1.000000000000000000 ) ) ;
#890 = DIRECTION ( 'NONE',  ( 1.000000000000000000, 0.000000000000000000, 0.000000000000000000 ) ) ;
#891 = CARTESIAN_POINT ( 'NONE',  ( 0.000000000000000000, 0.000000000000000000, 0.000000000000000000 ) ) ;
#892 = VECTOR ( 'NONE', #1177, 1000.000000000000000 ) ;
#893 = ORIENTED_EDGE ( 'NONE', *, *, #1121, .F. ) ;
#894 = DIRECTION ( 'NONE',  ( 0.000000000000000000, 0.000000000000000000, 1.000000000000000000 ) ) ;
#895 = DIRECTION ( 'NONE',  ( 0.000000000000000000, 1.000000000000000000, 0.000000000000000000 ) ) ;
#896 = CARTESIAN_POINT ( 'NONE',  ( -18.00000000000000000, 6.000000000000000000, -2.249999999999993783 ) ) ;
#897 = DIRECTION ( 'NONE',  ( -0.000000000000000000, 1.000000000000000000, -0.000000000000000000 ) ) ;
#898 = FACE_OUTER_BOUND ( 'NONE', #348, .T. ) ;
#899 = EDGE_CURVE ( 'NONE', #515, #1167, #433, .T. ) ;
#900 = CARTESIAN_POINT ( 'NONE',  ( 18.00000000000000000, 0.000000000000000000, 2.249999999999992450 ) ) ;
#901 = CARTESIAN_POINT ( 'NONE',  ( 18.00000000000000000, 0.000000000000000000, 3.999999999999994227 ) ) ;
#902 = ADVANCED_FACE ( 'NONE', ( #241 ), #248, .F. ) ;
#903 = DIRECTION ( 'NONE',  ( 0.000000000000000000, 0.000000000000000000, 1.000000000000000000 ) ) ;
#904 =( GEOMETRIC_REPRESENTATION_CONTEXT ( 3 ) GLOBAL_UNCERTAINTY_ASSIGNED_CONTEXT ( ( #1194 ) ) GLOBAL_UNIT_ASSIGNED_CONTEXT ( ( #935, #734, #640 ) ) REPRESENTATION_CONTEXT ( 'NONE', 'WORKASPACE' ) );
#905 = EDGE_CURVE ( 'NONE', #664, #636, #157, .T. ) ;
#906 = CARTESIAN_POINT ( 'NONE',  ( 18.00000000000000000, 4.000000000000000000, 2.249999999999992450 ) ) ;
#907 = CYLINDRICAL_SURFACE ( 'NONE', #698, 1.699999999999993072 ) ;
#908 = EDGE_CURVE ( 'NONE', #152, #813, #109, .T. ) ;
#909 = AXIS2_PLACEMENT_3D ( 'NONE', #460, #264, #1039 ) ;
#910 = AXIS2_PLACEMENT_3D ( 'NONE', #702, #1096, #325 ) ;
#911 = EDGE_LOOP ( 'NONE', ( #742, #436 ) ) ;
#912 = CIRCLE ( 'NONE', #737, 4.000000000000000000 ) ;
#913 = CARTESIAN_POINT ( 'NONE',  ( 18.00000000000000000, 0.000000000000000000, -4.000000000000006217 ) ) ;
#914 = CIRCLE ( 'NONE', #518, 2.499999999999998668 ) ;
#915 = ADVANCED_FACE ( 'NONE', ( #529 ), #922, .F. ) ;
#916 = ORIENTED_EDGE ( 'NONE', *, *, #693, .T. ) ;
#917 = CARTESIAN_POINT ( 'NONE',  ( -63.00000000000000000, 6.000000000000000000, 24.00000000000000000 ) ) ;
#918 = EDGE_CURVE ( 'NONE', #1135, #271, #808, .T. ) ;
#919 = EDGE_CURVE ( 'NONE', #657, #844, #257, .T. ) ;
#920 = AXIS2_PLACEMENT_3D ( 'NONE', #1102, #1217, #824 ) ;
#921 = AXIS2_PLACEMENT_3D ( 'NONE', #1113, #354, #250 ) ;
#922 = CYLINDRICAL_SURFACE ( 'NONE', #819, 3.250000000000002665 ) ;
#923 = VECTOR ( 'NONE', #369, 1000.000000000000000 ) ;
#924 = ORIENTED_EDGE ( 'NONE', *, *, #29, .F. ) ;
#925 = AXIS2_PLACEMENT_3D ( 'NONE', #435, #821, #826 ) ;
#926 = DIRECTION ( 'NONE',  ( 1.000000000000000000, 0.000000000000000000, -0.000000000000000000 ) ) ;
#927 = VERTEX_POINT ( 'NONE', #1197 ) ;
#928 = DIRECTION ( 'NONE',  ( -0.000000000000000000, -1.000000000000000000, -0.000000000000000000 ) ) ;
#929 = CARTESIAN_POINT ( 'NONE',  ( -63.00000000000000000, 3.000000000000000888, -24.00000000000000000 ) ) ;
#930 = EDGE_LOOP ( 'NONE', ( #738, #580, #722, #291 ) ) ;
#931 = EDGE_LOOP ( 'NONE', ( #70, #78, #280, #932 ) ) ;
#932 = ORIENTED_EDGE ( 'NONE', *, *, #772, .F. ) ;
#933 = DIRECTION ( 'NONE',  ( 0.000000000000000000, 0.000000000000000000, 1.000000000000000000 ) ) ;
#934 = EDGE_LOOP ( 'NONE', ( #120, #285, #437, #958 ) ) ;
#935 =( LENGTH_UNIT ( ) NAMED_UNIT ( * ) SI_UNIT ( .MILLI., .METRE. ) );
#936 = CARTESIAN_POINT ( 'NONE',  ( 64.49999999999998579, 6.000000000000000000, -29.99999999999998934 ) ) ;
#937 = ORIENTED_EDGE ( 'NONE', *, *, #422, .F. ) ;
#938 = EDGE_LOOP ( 'NONE', ( #268, #1107 ) ) ;
#939 = CARTESIAN_POINT ( 'NONE',  ( -63.00000000000000000, 3.000000000000000000, 24.00000000000000000 ) ) ;
#940 = ORIENTED_EDGE ( 'NONE', *, *, #1081, .F. ) ;
#941 = CYLINDRICAL_SURFACE ( 'NONE', #704, 1.699999999999996625 ) ;
#942 = DIRECTION ( 'NONE',  ( 0.000000000000000000, -1.000000000000000000, 0.000000000000000000 ) ) ;
#943 = AXIS2_PLACEMENT_3D ( 'NONE', #1090, #973, #205 ) ;
#944 = EDGE_CURVE ( 'NONE', #1133, #636, #245, .T. ) ;
#945 = LINE ( 'NONE', #827, #1216 ) ;
#946 = ORIENTED_EDGE ( 'NONE', *, *, #56, .T. ) ;
#947 = ADVANCED_FACE ( 'NONE', ( #620 ), #440, .F. ) ;
#948 = DIRECTION ( 'NONE',  ( -0.000000000000000000, 1.000000000000000000, -0.000000000000000000 ) ) ;
#949 = ORIENTED_EDGE ( 'NONE', *, *, #202, .T. ) ;
#950 = CARTESIAN_POINT ( 'NONE',  ( -64.50000000000000000, 0.000000000000000000, 27.50000000000001066 ) ) ;
#951 = DIRECTION ( 'NONE',  ( -0.000000000000000000, 1.000000000000000000, -0.000000000000000000 ) ) ;
#952 = MANIFOLD_SOLID_BREP ( 'CBORE for M4 SHCS1', #13 ) ;
#953 = CARTESIAN_POINT ( 'NONE',  ( 63.00000000000000000, 6.000000000000000000, 24.00000000000000000 ) ) ;
#954 = CARTESIAN_POINT ( 'NONE',  ( 63.00000000000000000, 6.000000000000000000, -25.69999999999998508 ) ) ;
#955 = AXIS2_PLACEMENT_3D ( 'NONE', #122, #681, #498 ) ;
#956 = ORIENTED_EDGE ( 'NONE', *, *, #1051, .T. ) ;
#957 = LINE ( 'NONE', #1037, #151 ) ;
#958 = ORIENTED_EDGE ( 'NONE', *, *, #229, .F. ) ;
#959 = CARTESIAN_POINT ( 'NONE',  ( -63.00000000000000000, 6.000000000000000000, 24.00000000000000000 ) ) ;
#960 = CARTESIAN_POINT ( 'NONE',  ( -67.00000000000000000, 0.000000000000000000, 27.50000000000000711 ) ) ;
#961 = EDGE_LOOP ( 'NONE', ( #60, #627 ) ) ;
#962 = EDGE_CURVE ( 'NONE', #1141, #770, #1210, .T. ) ;
#963 = DIRECTION ( 'NONE',  ( -0.000000000000000000, 1.000000000000000000, -0.000000000000000000 ) ) ;
#964 = CARTESIAN_POINT ( 'NONE',  ( 64.49999999999998579, 6.000000000000000000, -29.99999999999998934 ) ) ;
#965 = ORIENTED_EDGE ( 'NONE', *, *, #56, .F. ) ;
#966 = VERTEX_POINT ( 'NONE', #960 ) ;
#967 = LINE ( 'NONE', #98, #1240 ) ;
#968 = CARTESIAN_POINT ( 'NONE',  ( 63.00000000000000000, 0.000000000000000000, 24.00000000000000000 ) ) ;
#969 = CIRCLE ( 'NONE', #724, 1.699999999999993072 ) ;
#970 = LINE ( 'NONE', #859, #584 ) ;
#971 = VERTEX_POINT ( 'NONE', #454 ) ;
#972 = DIRECTION ( 'NONE',  ( 0.000000000000000000, 0.000000000000000000, 1.000000000000000000 ) ) ;
#973 = DIRECTION ( 'NONE',  ( -0.000000000000000000, 1.000000000000000000, -0.000000000000000000 ) ) ;
#974 = VERTEX_POINT ( 'NONE', #1047 ) ;
#975 = DIRECTION ( 'NONE',  ( 0.000000000000000000, 0.000000000000000000, 1.000000000000000000 ) ) ;
#976 = CARTESIAN_POINT ( 'NONE',  ( -63.00000000000000000, 0.000000000000000000, -25.69999999999999574 ) ) ;
#977 = AXIS2_PLACEMENT_3D ( 'NONE', #382, #655, #74 ) ;
#978 = VECTOR ( 'NONE', #1205, 1000.000000000000000 ) ;
#979 = CARTESIAN_POINT ( 'NONE',  ( 63.00000000000000000, 3.000000000000000000, -27.24999999999999645 ) ) ;
#980 = CARTESIAN_POINT ( 'NONE',  ( -63.00000000000000000, 3.000000000000000888, -25.69999999999999929 ) ) ;
#981 = VERTEX_POINT ( 'NONE', #461 ) ;
#982 = AXIS2_PLACEMENT_3D ( 'NONE', #592, #1180, #1225 ) ;
#983 = FACE_BOUND ( 'NONE', #77, .T. ) ;
#984 = DIRECTION ( 'NONE',  ( 0.000000000000000000, 0.000000000000000000, 1.000000000000000000 ) ) ;
#985 = CARTESIAN_POINT ( 'NONE',  ( 63.00000000000000000, 6.000000000000000000, -23.99999999999999289 ) ) ;
#986 = ADVANCED_FACE ( 'NONE', ( #472 ), #553, .F. ) ;
#987 = ORIENTED_EDGE ( 'NONE', *, *, #628, .F. ) ;
#988 = ADVANCED_FACE ( 'NONE', ( #656, #82, #763, #545, #1226, #1137, #188 ), #1244, .F. ) ;
#989 = PLANE ( 'NONE',  #955 ) ;
#990 = DIRECTION ( 'NONE',  ( 0.000000000000000000, -0.000000000000000000, 1.000000000000000000 ) ) ;
#991 = APPLICATION_PROTOCOL_DEFINITION ( 'draft international standard', 'automotive_design', 1998, #717 ) ;
#992 = UNCERTAINTY_MEASURE_WITH_UNIT (LENGTH_MEASURE( 1.000000000000000082E-05 ), #14, 'distance_accuracy_value', 'NONE');
#993 = CIRCLE ( 'NONE', #434, 2.499999999999998668 ) ;
#994 = PRODUCT_RELATED_PRODUCT_CATEGORY ( 'part', '', ( #337 ) ) ;
#995 = CARTESIAN_POINT ( 'NONE',  ( 18.00000000000000000, 4.000000000000000000, -6.271071935830379448E-15 ) ) ;
#996 = DIRECTION ( 'NONE',  ( 0.000000000000000000, 0.000000000000000000, 1.000000000000000000 ) ) ;
#997 = CARTESIAN_POINT ( 'NONE',  ( 63.00000000000000000, 0.000000000000000000, -25.69999999999998508 ) ) ;
#998 = DIRECTION ( 'NONE',  ( 1.000000000000000000, 0.000000000000000000, 0.000000000000000000 ) ) ;
#999 = AXIS2_PLACEMENT_3D ( 'NONE', #1101, #230, #427 ) ;
#1000 = DIRECTION ( 'NONE',  ( -0.000000000000000000, -1.000000000000000000, -0.000000000000000000 ) ) ;
#1001 = DIRECTION ( 'NONE',  ( -0.000000000000000000, 1.000000000000000000, -0.000000000000000000 ) ) ;
#1002 = CARTESIAN_POINT ( 'NONE',  ( -15.75000000000000000, 4.000000000000000000, 4.750749256495796508E-15 ) ) ;
#1003 = CARTESIAN_POINT ( 'NONE',  ( 18.00000000000000000, 6.000000000000000000, 2.249999999999992450 ) ) ;
#1004 = EDGE_CURVE ( 'NONE', #235, #581, #1235, .T. ) ;
#1005 = DIRECTION ( 'NONE',  ( -0.000000000000000000, -1.000000000000000000, -0.000000000000000000 ) ) ;
#1006 = EDGE_CURVE ( 'NONE', #506, #152, #744, .T. ) ;
#1007 = EDGE_CURVE ( 'NONE', #974, #664, #404, .T. ) ;
#1008 = CYLINDRICAL_SURFACE ( 'NONE', #184, 3.250000000000002665 ) ;
#1009 = CARTESIAN_POINT ( 'NONE',  ( -67.00000000000001421, 6.000000000000000000, -29.99999999999998934 ) ) ;
#1010 = CIRCLE ( 'NONE', #1092, 4.000000000000000000 ) ;
#1011 = VERTEX_POINT ( 'NONE', #370 ) ;
#1012 = CYLINDRICAL_SURFACE ( 'NONE', #1027, 3.250000000000002665 ) ;
#1013 = DIRECTION ( 'NONE',  ( 0.000000000000000000, -1.000000000000000000, 0.000000000000000000 ) ) ;
#1014 = ORIENTED_EDGE ( 'NONE', *, *, #1007, .T. ) ;
#1015 = CIRCLE ( 'NONE', #309, 2.249999999999998668 ) ;
#1016 = CARTESIAN_POINT ( 'NONE',  ( 63.00000000000000000, 6.000000000000000000, 24.00000000000000000 ) ) ;
#1017 = CIRCLE ( 'NONE', #691, 2.249999999999998668 ) ;
#1018 = DIRECTION ( 'NONE',  ( 0.000000000000000000, 0.000000000000000000, 1.000000000000000000 ) ) ;
#1019 = AXIS2_PLACEMENT_3D ( 'NONE', #939, #1134, #478 ) ;
#1020 = AXIS2_PLACEMENT_3D ( 'NONE', #37, #425, #329 ) ;
#1021 = AXIS2_PLACEMENT_3D ( 'NONE', #26, #572, #676 ) ;
#1022 = CARTESIAN_POINT ( 'NONE',  ( 18.00000000000000000, 0.000000000000000000, -6.271071935830379448E-15 ) ) ;
#1023 = LINE ( 'NONE', #1238, #1200 ) ;
#1024 = CIRCLE ( 'NONE', #1095, 3.250000000000002665 ) ;
#1025 = EDGE_LOOP ( 'NONE', ( #355, #565 ) ) ;
#1026 = VERTEX_POINT ( 'NONE', #752 ) ;
#1027 = AXIS2_PLACEMENT_3D ( 'NONE', #516, #19, #24 ) ;
#1028 = EDGE_CURVE ( 'NONE', #974, #966, #1147, .T. ) ;
#1029 = CARTESIAN_POINT ( 'NONE',  ( 18.00000000000000000, 4.000000000000000000, -2.250000000000004441 ) ) ;
#1030 = EDGE_CURVE ( 'NONE', #86, #476, #546, .T. ) ;
#1031 = ORIENTED_EDGE ( 'NONE', *, *, #1201, .T. ) ;
#1032 = SURFACE_SIDE_STYLE ('',( #633 ) ) ;
#1033 = APPLICATION_CONTEXT ( 'automotive_design' ) ;
#1034 = ADVANCED_FACE ( 'NONE', ( #448, #171 ), #258, .F. ) ;
#1035 = DIRECTION ( 'NONE',  ( 0.000000000000000000, -1.000000000000000000, 0.000000000000000000 ) ) ;
#1036 = ORIENTED_EDGE ( 'NONE', *, *, #25, .F. ) ;
#1037 = CARTESIAN_POINT ( 'NONE',  ( -63.00000000000000000, 6.000000000000000000, -22.30000000000000426 ) ) ;
#1038 = ORIENTED_EDGE ( 'NONE', *, *, #775, .T. ) ;
#1039 = DIRECTION ( 'NONE',  ( 0.000000000000000000, 0.000000000000000000, 1.000000000000000000 ) ) ;
#1040 = DIRECTION ( 'NONE',  ( -0.000000000000000000, 1.000000000000000000, -0.000000000000000000 ) ) ;
#1041 = EDGE_CURVE ( 'NONE', #1167, #368, #832, .T. ) ;
#1042 = FACE_BOUND ( 'NONE', #632, .T. ) ;
#1043 = ORIENTED_EDGE ( 'NONE', *, *, #1188, .F. ) ;
#1044 = CARTESIAN_POINT ( 'NONE',  ( 63.00000000000000000, 6.000000000000000000, 25.69999999999999218 ) ) ;
#1045 = ORIENTED_EDGE ( 'NONE', *, *, #1201, .F. ) ;
#1046 = DIRECTION ( 'NONE',  ( 0.000000000000000000, -1.000000000000000000, 0.000000000000000000 ) ) ;
#1047 = CARTESIAN_POINT ( 'NONE',  ( -67.00000000000001421, 0.000000000000000000, -27.49999999999998934 ) ) ;
#1048 = DIRECTION ( 'NONE',  ( 0.000000000000000000, -1.000000000000000000, 0.000000000000000000 ) ) ;
#1049 = FACE_OUTER_BOUND ( 'NONE', #678, .T. ) ;
#1050 = ORIENTED_EDGE ( 'NONE', *, *, #384, .F. ) ;
#1051 = EDGE_CURVE ( 'NONE', #240, #73, #1023, .T. ) ;
#1052 = DIRECTION ( 'NONE',  ( 0.000000000000000000, 0.000000000000000000, 1.000000000000000000 ) ) ;
#1053 = AXIS2_PLACEMENT_3D ( 'NONE', #1022, #1108, #340 ) ;
#1054 = ADVANCED_FACE ( 'NONE', ( #1152 ), #660, .T. ) ;
#1055 = ORIENTED_EDGE ( 'NONE', *, *, #601, .T. ) ;
#1056 = DIRECTION ( 'NONE',  ( -0.000000000000000000, -1.000000000000000000, -0.000000000000000000 ) ) ;
#1057 = CARTESIAN_POINT ( 'NONE',  ( 0.000000000000000000, 0.000000000000000000, 0.000000000000000000 ) ) ;
#1058 = ORIENTED_EDGE ( 'NONE', *, *, #919, .F. ) ;
#1059 = FACE_OUTER_BOUND ( 'NONE', #183, .T. ) ;
#1060 = CARTESIAN_POINT ( 'NONE',  ( -63.00000000000000000, 0.000000000000000000, -22.30000000000000426 ) ) ;
#1061 = EDGE_CURVE ( 'NONE', #1133, #1135, #365, .T. ) ;
#1062 = EDGE_LOOP ( 'NONE', ( #1031, #198 ) ) ;
#1063 = ORIENTED_EDGE ( 'NONE', *, *, #766, .T. ) ;
#1064 = CARTESIAN_POINT ( 'NONE',  ( 18.00000000000000000, 6.000000000000000000, -2.250000000000004441 ) ) ;
#1065 = VERTEX_POINT ( 'NONE', #1060 ) ;
#1066 = CARTESIAN_POINT ( 'NONE',  ( 63.00000000000000000, 3.000000000000000888, -25.69999999999998508 ) ) ;
#1067 = ORIENTED_EDGE ( 'NONE', *, *, #899, .F. ) ;
#1068 = DIRECTION ( 'NONE',  ( 0.000000000000000000, 1.000000000000000000, 0.000000000000000000 ) ) ;
#1069 = ORIENTED_EDGE ( 'NONE', *, *, #112, .T. ) ;
#1070 = VERTEX_POINT ( 'NONE', #1219 ) ;
#1071 = ORIENTED_EDGE ( 'NONE', *, *, #462, .F. ) ;
#1072 = DIRECTION ( 'NONE',  ( 0.000000000000000000, 0.000000000000000000, -1.000000000000000000 ) ) ;
#1073 = DIRECTION ( 'NONE',  ( 0.000000000000000000, 1.000000000000000000, 0.000000000000000000 ) ) ;
#1074 = AXIS2_PLACEMENT_3D ( 'NONE', #305, #697, #1183 ) ;
#1075 = FACE_OUTER_BOUND ( 'NONE', #825, .T. ) ;
#1076 = ORIENTED_EDGE ( 'NONE', *, *, #629, .T. ) ;
#1077 = CYLINDRICAL_SURFACE ( 'NONE', #709, 4.000000000000000000 ) ;
#1078 = FACE_BOUND ( 'NONE', #739, .T. ) ;
#1079 = CYLINDRICAL_SURFACE ( 'NONE', #148, 2.499999999999998668 ) ;
#1080 = ORIENTED_EDGE ( 'NONE', *, *, #1099, .T. ) ;
#1081 = EDGE_CURVE ( 'NONE', #813, #295, #945, .T. ) ;
#1082 = VECTOR ( 'NONE', #846, 1000.000000000000000 ) ;
#1083 = EDGE_CURVE ( 'NONE', #484, #385, #610, .T. ) ;
#1084 = DIRECTION ( 'NONE',  ( 0.000000000000000000, 1.000000000000000000, 0.000000000000000000 ) ) ;
#1085 = DIRECTION ( 'NONE',  ( -0.000000000000000000, -1.000000000000000000, -0.000000000000000000 ) ) ;
#1086 = CARTESIAN_POINT ( 'NONE',  ( 63.00000000000000000, 3.000000000000000888, 25.69999999999999218 ) ) ;
#1087 = DIRECTION ( 'NONE',  ( 0.000000000000000000, 0.000000000000000000, -1.000000000000000000 ) ) ;
#1088 = AXIS2_PLACEMENT_3D ( 'NONE', #79, #168, #72 ) ;
#1089 = CARTESIAN_POINT ( 'NONE',  ( 64.50000000000000000, 6.000000000000000000, 27.50000000000000711 ) ) ;
#1090 = CARTESIAN_POINT ( 'NONE',  ( 63.00000000000000000, 3.000000000000000888, 24.00000000000000000 ) ) ;
#1091 = CIRCLE ( 'NONE', #153, 1.699999999999993072 ) ;
#1092 = AXIS2_PLACEMENT_3D ( 'NONE', #555, #374, #728 ) ;
#1093 = FACE_BOUND ( 'NONE', #293, .T. ) ;
#1094 = EDGE_CURVE ( 'NONE', #1214, #260, #1010, .T. ) ;
#1095 = AXIS2_PLACEMENT_3D ( 'NONE', #1136, #398, #1243 ) ;
#1096 = DIRECTION ( 'NONE',  ( 0.000000000000000000, -1.000000000000000000, 0.000000000000000000 ) ) ;
#1097 = DIRECTION ( 'NONE',  ( 0.000000000000000000, 0.000000000000000000, -1.000000000000000000 ) ) ;
#1098 = AXIS2_PLACEMENT_3D ( 'NONE', #1129, #928, #61 ) ;
#1099 = EDGE_CURVE ( 'NONE', #395, #705, #20, .T. ) ;
#1100 = ORIENTED_EDGE ( 'NONE', *, *, #330, .T. ) ;
#1101 = CARTESIAN_POINT ( 'NONE',  ( 63.00000000000000000, 3.000000000000000000, 24.00000000000000000 ) ) ;
#1102 = CARTESIAN_POINT ( 'NONE',  ( 20.24999999999999645, 4.000000000000000000, -6.271071935830379448E-15 ) ) ;
#1103 = VECTOR ( 'NONE', #100, 1000.000000000000000 ) ;
#1104 = EDGE_LOOP ( 'NONE', ( #831, #213 ) ) ;
#1105 = DIRECTION ( 'NONE',  ( 0.000000000000000000, 0.000000000000000000, 1.000000000000000000 ) ) ;
#1106 = DIRECTION ( 'NONE',  ( -0.000000000000000000, 1.000000000000000000, -0.000000000000000000 ) ) ;
#1107 = ORIENTED_EDGE ( 'NONE', *, *, #27, .F. ) ;
#1108 = DIRECTION ( 'NONE',  ( -0.000000000000000000, -1.000000000000000000, -0.000000000000000000 ) ) ;
#1109 = DIRECTION ( 'NONE',  ( -0.000000000000000000, 1.000000000000000000, -0.000000000000000000 ) ) ;
#1110 = CIRCLE ( 'NONE', #1, 4.000000000000000000 ) ;
#1111 = DIRECTION ( 'NONE',  ( -0.000000000000000000, 1.000000000000000000, -0.000000000000000000 ) ) ;
#1112 = EDGE_CURVE ( 'NONE', #1220, #371, #221, .T. ) ;
#1113 = CARTESIAN_POINT ( 'NONE',  ( -18.00000000000000000, 0.000000000000000000, 4.750749256495796508E-15 ) ) ;
#1114 = CIRCLE ( 'NONE', #199, 3.250000000000002665 ) ;
#1115 = ORIENTED_EDGE ( 'NONE', *, *, #43, .F. ) ;
#1116 = ORIENTED_EDGE ( 'NONE', *, *, #48, .T. ) ;
#1117 = CARTESIAN_POINT ( 'NONE',  ( -67.00000000000001421, 6.000000000000000000, -27.49999999999998934 ) ) ;
#1118 = ADVANCED_FACE ( 'NONE', ( #165 ), #736, .F. ) ;
#1119 = VERTEX_POINT ( 'NONE', #284 ) ;
#1120 = FILL_AREA_STYLE_COLOUR ( '', #686 ) ;
#1121 = EDGE_CURVE ( 'NONE', #971, #356, #785, .T. ) ;
#1122 = CARTESIAN_POINT ( 'NONE',  ( 63.00000000000000000, 6.000000000000000000, -23.99999999999999289 ) ) ;
#1123 = VECTOR ( 'NONE', #487, 1000.000000000000000 ) ;
#1124 = ORIENTED_EDGE ( 'NONE', *, *, #121, .F. ) ;
#1125 = ORIENTED_EDGE ( 'NONE', *, *, #919, .T. ) ;
#1126 = ADVANCED_FACE ( 'NONE', ( #1049 ), #833, .F. ) ;
#1127 = DIRECTION ( 'NONE',  ( -0.000000000000000000, 1.000000000000000000, -0.000000000000000000 ) ) ;
#1128 = ORIENTED_EDGE ( 'NONE', *, *, #108, .T. ) ;
#1129 = CARTESIAN_POINT ( 'NONE',  ( 64.49999999999998579, 0.000000000000000000, -27.49999999999998934 ) ) ;
#1130 = CIRCLE ( 'NONE', #42, 3.250000000000002665 ) ;
#1131 = CARTESIAN_POINT ( 'NONE',  ( 64.69999999999998863, 3.000000000000000444, 24.00000000000000000 ) ) ;
#1132 =( GEOMETRIC_REPRESENTATION_CONTEXT ( 3 ) GLOBAL_UNCERTAINTY_ASSIGNED_CONTEXT ( ( #992 ) ) GLOBAL_UNIT_ASSIGNED_CONTEXT ( ( #14, #684, #690 ) ) REPRESENTATION_CONTEXT ( 'NONE', 'WORKASPACE' ) );
#1133 = VERTEX_POINT ( 'NONE', #936 ) ;
#1134 = DIRECTION ( 'NONE',  ( -0.000000000000000000, 1.000000000000000000, -0.000000000000000000 ) ) ;
#1135 = VERTEX_POINT ( 'NONE', #95 ) ;
#1136 = CARTESIAN_POINT ( 'NONE',  ( 63.00000000000000000, 3.000000000000000000, -23.99999999999999289 ) ) ;
#1137 = FACE_OUTER_BOUND ( 'NONE', #375, .T. ) ;
#1138 = CARTESIAN_POINT ( 'NONE',  ( -64.50000000000001421, 6.000000000000000000, -29.99999999999998934 ) ) ;
#1139 = DIRECTION ( 'NONE',  ( 0.000000000000000000, 0.000000000000000000, 1.000000000000000000 ) ) ;
#1140 = ADVANCED_FACE ( 'NONE', ( #1042, #475 ), #863, .F. ) ;
#1141 = VERTEX_POINT ( 'NONE', #531 ) ;
#1142 = VERTEX_POINT ( 'NONE', #1086 ) ;
#1143 = ADVANCED_FACE ( 'NONE', ( #119 ), #21, .F. ) ;
#1144 = LINE ( 'NONE', #458, #521 ) ;
#1145 = EDGE_LOOP ( 'NONE', ( #822, #466, #432, #611 ) ) ;
#1146 = CARTESIAN_POINT ( 'NONE',  ( -63.00000000000000000, 0.000000000000000000, -24.00000000000000000 ) ) ;
#1147 = LINE ( 'NONE', #282, #126 ) ;
#1148 = CIRCLE ( 'NONE', #1245, 3.250000000000002665 ) ;
#1149 = VECTOR ( 'NONE', #92, 1000.000000000000000 ) ;
#1150 = EDGE_LOOP ( 'NONE', ( #1230, #252, #956, #366 ) ) ;
#1151 = CYLINDRICAL_SURFACE ( 'NONE', #1231, 4.000000000000000000 ) ;
#1152 = FACE_OUTER_BOUND ( 'NONE', #344, .T. ) ;
#1153 = ORIENTED_EDGE ( 'NONE', *, *, #820, .T. ) ;
#1154 = CARTESIAN_POINT ( 'NONE',  ( -67.00000000000000000, 6.000000000000000000, 30.00000000000001066 ) ) ;
#1155 = STYLED_ITEM ( 'NONE', ( #538 ), #952 ) ;
#1156 = ORIENTED_EDGE ( 'NONE', *, *, #1051, .F. ) ;
#1157 = FACE_OUTER_BOUND ( 'NONE', #930, .T. ) ;
#1158 = ORIENTED_EDGE ( 'NONE', *, *, #108, .F. ) ;
#1159 = DIRECTION ( 'NONE',  ( 0.000000000000000000, 1.000000000000000000, 0.000000000000000000 ) ) ;
#1160 = CARTESIAN_POINT ( 'NONE',  ( -63.00000000000000000, 6.000000000000000000, 24.00000000000000000 ) ) ;
#1161 = EDGE_LOOP ( 'NONE', ( #829, #1115, #286, #300 ) ) ;
#1162 = ORIENTED_EDGE ( 'NONE', *, *, #962, .T. ) ;
#1163 = DIRECTION ( 'NONE',  ( 0.000000000000000000, 1.000000000000000000, 0.000000000000000000 ) ) ;
#1164 = FACE_OUTER_BOUND ( 'NONE', #867, .T. ) ;
#1165 = CARTESIAN_POINT ( 'NONE',  ( 18.00000000000000000, 0.000000000000000000, -6.271071935830379448E-15 ) ) ;
#1166 = DIRECTION ( 'NONE',  ( -0.000000000000000000, 1.000000000000000000, -0.000000000000000000 ) ) ;
#1167 = VERTEX_POINT ( 'NONE', #980 ) ;
#1168 = ORIENTED_EDGE ( 'NONE', *, *, #450, .T. ) ;
#1169 = FACE_OUTER_BOUND ( 'NONE', #776, .T. ) ;
#1170 = CARTESIAN_POINT ( 'NONE',  ( -18.00000000000000000, 4.000000000000000000, 4.750749256495796508E-15 ) ) ;
#1171 = DIRECTION ( 'NONE',  ( 0.000000000000000000, 0.000000000000000000, -1.000000000000000000 ) ) ;
#1172 = AXIS2_PLACEMENT_3D ( 'NONE', #6, #886, #104 ) ;
#1173 = DIRECTION ( 'NONE',  ( 0.000000000000000000, 0.000000000000000000, 1.000000000000000000 ) ) ;
#1174 = ORIENTED_EDGE ( 'NONE', *, *, #1030, .F. ) ;
#1175 = DIRECTION ( 'NONE',  ( 0.000000000000000000, 0.000000000000000000, -1.000000000000000000 ) ) ;
#1176 = ADVANCED_FACE ( 'NONE', ( #313 ), #768, .F. ) ;
#1177 = DIRECTION ( 'NONE',  ( 0.000000000000000000, -1.000000000000000000, 0.000000000000000000 ) ) ;
#1178 = ORIENTED_EDGE ( 'NONE', *, *, #229, .T. ) ;
#1179 = AXIS2_PLACEMENT_3D ( 'NONE', #218, #18, #786 ) ;
#1180 = DIRECTION ( 'NONE',  ( 0.000000000000000000, 1.000000000000000000, 0.000000000000000000 ) ) ;
#1181 = CIRCLE ( 'NONE', #619, 2.249999999999998668 ) ;
#1182 = LINE ( 'NONE', #608, #892 ) ;
#1183 = DIRECTION ( 'NONE',  ( 0.000000000000000000, 0.000000000000000000, 1.000000000000000000 ) ) ;
#1184 = EDGE_CURVE ( 'NONE', #490, #1215, #127, .T. ) ;
#1185 = CARTESIAN_POINT ( 'NONE',  ( -63.00000000000000000, 0.000000000000000000, -24.00000000000000000 ) ) ;
#1186 = DIRECTION ( 'NONE',  ( -0.000000000000000000, -1.000000000000000000, -0.000000000000000000 ) ) ;
#1187 = PLANE ( 'NONE',  #920 ) ;
#1188 = EDGE_CURVE ( 'NONE', #1070, #1202, #53, .T. ) ;
#1189 = CIRCLE ( 'NONE', #814, 3.250000000000002665 ) ;
#1190 = ORIENTED_EDGE ( 'NONE', *, *, #842, .T. ) ;
#1191 = DIRECTION ( 'NONE',  ( 0.000000000000000000, 0.000000000000000000, -1.000000000000000000 ) ) ;
#1192 = DIRECTION ( 'NONE',  ( -0.000000000000000000, -1.000000000000000000, -0.000000000000000000 ) ) ;
#1193 = CARTESIAN_POINT ( 'NONE',  ( 18.00000000000000000, 0.000000000000000000, -6.271071935830379448E-15 ) ) ;
#1194 = UNCERTAINTY_MEASURE_WITH_UNIT (LENGTH_MEASURE( 1.000000000000000082E-05 ), #935, 'distance_accuracy_value', 'NONE');
#1195 = LINE ( 'NONE', #332, #765 ) ;
#1196 = CARTESIAN_POINT ( 'NONE',  ( 63.00000000000000000, 0.000000000000000000, -23.99999999999999289 ) ) ;
#1197 = CARTESIAN_POINT ( 'NONE',  ( -67.00000000000000000, 6.000000000000000000, 27.50000000000000711 ) ) ;
#1198 = EDGE_CURVE ( 'NONE', #439, #607, #140, .T. ) ;
#1199 = AXIS2_PLACEMENT_3D ( 'NONE', #253, #327, #1208 ) ;
#1200 = VECTOR ( 'NONE', #641, 1000.000000000000000 ) ;
#1201 = EDGE_CURVE ( 'NONE', #235, #86, #318, .T. ) ;
#1202 = VERTEX_POINT ( 'NONE', #414 ) ;
#1203 = DIRECTION ( 'NONE',  ( -0.000000000000000000, 1.000000000000000000, -0.000000000000000000 ) ) ;
#1204 = CIRCLE ( 'NONE', #224, 2.249999999999998668 ) ;
#1205 = DIRECTION ( 'NONE',  ( -1.000000000000000000, -0.000000000000000000, -0.000000000000000000 ) ) ;
#1206 = EDGE_LOOP ( 'NONE', ( #758, #401 ) ) ;
#1207 = ORIENTED_EDGE ( 'NONE', *, *, #820, .F. ) ;
#1208 = DIRECTION ( 'NONE',  ( 2.312964634635742957E-16, 0.000000000000000000, 1.000000000000000000 ) ) ;
#1209 = ORIENTED_EDGE ( 'NONE', *, *, #1112, .T. ) ;
#1210 = LINE ( 'NONE', #913, #1149 ) ;
#1211 = ADVANCED_FACE ( 'NONE', ( #1075 ), #796, .F. ) ;
#1212 = DIRECTION ( 'NONE',  ( 0.000000000000000000, 0.000000000000000000, -1.000000000000000000 ) ) ;
#1213 = EDGE_CURVE ( 'NONE', #981, #1142, #347, .T. ) ;
#1214 = VERTEX_POINT ( 'NONE', #408 ) ;
#1215 = VERTEX_POINT ( 'NONE', #782 ) ;
#1216 = VECTOR ( 'NONE', #76, 1000.000000000000000 ) ;
#1217 = DIRECTION ( 'NONE',  ( 0.000000000000000000, 1.000000000000000000, 0.000000000000000000 ) ) ;
#1218 = VERTEX_POINT ( 'NONE', #115 ) ;
#1219 = CARTESIAN_POINT ( 'NONE',  ( -63.00000000000000000, 3.000000000000000888, 22.30000000000000071 ) ) ;
#1220 = VERTEX_POINT ( 'NONE', #790 ) ;
#1221 = EDGE_LOOP ( 'NONE', ( #457, #306, #643, #753 ) ) ;
#1222 = AXIS2_PLACEMENT_3D ( 'NONE', #1016, #1109, #67 ) ;
#1223 = CARTESIAN_POINT ( 'NONE',  ( 18.00000000000000000, 0.000000000000000000, 3.999999999999994227 ) ) ;
#1224 = ORIENTED_EDGE ( 'NONE', *, *, #905, .F. ) ;
#1225 = DIRECTION ( 'NONE',  ( 0.000000000000000000, -0.000000000000000000, 1.000000000000000000 ) ) ;
#1226 = FACE_BOUND ( 'NONE', #1062, .T. ) ;
#1227 = AXIS2_PLACEMENT_3D ( 'NONE', #1154, #663, #567 ) ;
#1228 = DIRECTION ( 'NONE',  ( 0.000000000000000000, -1.000000000000000000, 0.000000000000000000 ) ) ;
#1229 = ORIENTED_EDGE ( 'NONE', *, *, #233, .F. ) ;
#1230 = ORIENTED_EDGE ( 'NONE', *, *, #766, .F. ) ;
#1231 = AXIS2_PLACEMENT_3D ( 'NONE', #103, #875, #481 ) ;
#1232 = CARTESIAN_POINT ( 'NONE',  ( 63.00000000000000000, 6.000000000000000000, -27.24999999999999645 ) ) ;
#1233 = ORIENTED_EDGE ( 'NONE', *, *, #1007, .F. ) ;
#1234 = LINE ( 'NONE', #780, #322 ) ;
#1235 = LINE ( 'NONE', #383, #651 ) ;
#1236 = ORIENTED_EDGE ( 'NONE', *, *, #265, .T. ) ;
#1237 = DIRECTION ( 'NONE',  ( 0.000000000000000000, 1.000000000000000000, 0.000000000000000000 ) ) ;
#1238 = CARTESIAN_POINT ( 'NONE',  ( 18.00000000000000000, 0.000000000000000000, -2.250000000000004441 ) ) ;
#1239 = ORIENTED_EDGE ( 'NONE', *, *, #1099, .F. ) ;
#1240 = VECTOR ( 'NONE', #869, 1000.000000000000000 ) ;
#1241 = FACE_OUTER_BOUND ( 'NONE', #177, .T. ) ;
#1242 = ORIENTED_EDGE ( 'NONE', *, *, #231, .F. ) ;
#1243 = DIRECTION ( 'NONE',  ( 0.000000000000000000, 0.000000000000000000, 1.000000000000000000 ) ) ;
#1244 = PLANE ( 'NONE',  #278 ) ;
#1245 = AXIS2_PLACEMENT_3D ( 'NONE', #133, #392, #975 ) ;
#1246 = AXIS2_PLACEMENT_3D ( 'NONE', #68, #635, #1212 ) ;
#1247 = ORIENTED_EDGE ( 'NONE', *, *, #1188, .T. ) ;
#1248 = CARTESIAN_POINT ( 'NONE',  ( -64.50000000000000000, 6.000000000000000000, 27.50000000000001066 ) ) ;
#1249 = DIRECTION ( 'NONE',  ( 0.000000000000000000, -1.000000000000000000, 0.000000000000000000 ) ) ;
#1250 = ORIENTED_EDGE ( 'NONE', *, *, #468, .T. ) ;
#1251 = AXIS2_PLACEMENT_3D ( 'NONE', #272, #1046, #751 ) ;
ENDSEC;
END-ISO-10303-21;
