ISO-10303-21;
HEADER;
FILE_DESCRIPTION (( 'STEP AP214' ),
    '1' );
FILE_NAME ('PEDISTAL-TOWER_v001.STEP',
    '2025-12-22T20:33:06',
    ( '' ),
    ( '' ),
    'SwSTEP 2.0',
    'SolidWorks 2023',
    '' );
FILE_SCHEMA (( 'AUTOMOTIVE_DESIGN' ));
ENDSEC;

DATA;
#1 = DIRECTION ( 'NONE',  ( -1.000000000000000000, 0.000000000000000000, -0.000000000000000000 ) ) ;
#2 = CARTESIAN_POINT ( 'NONE',  ( 34.99999999999997158, 0.000000000000000000, -12.50000000000000000 ) ) ;
#3 = DIRECTION ( 'NONE',  ( 0.000000000000000000, 0.000000000000000000, 1.000000000000000000 ) ) ;
#4 = VECTOR ( 'NONE', #54, 1000.000000000000000 ) ;
#5 = DIRECTION ( 'NONE',  ( 0.000000000000000000, 0.000000000000000000, 1.000000000000000000 ) ) ;
#6 = CARTESIAN_POINT ( 'NONE',  ( -37.50000000000001421, 13.00000000000000000, 12.50000000000000000 ) ) ;
#7 = CARTESIAN_POINT ( 'NONE',  ( -37.50000000000001421, 13.00000000000000000, -12.50000000000000000 ) ) ;
#8 = EDGE_CURVE ( 'NONE', #253, #15, #412, .T. ) ;
#9 = FACE_OUTER_BOUND ( 'NONE', #100, .T. ) ;
#10 = UNCERTAINTY_MEASURE_WITH_UNIT (LENGTH_MEASURE( 1.000000000000000082E-05 ), #467, 'distance_accuracy_value', 'NONE');
#11 = DIRECTION ( 'NONE',  ( -0.000000000000000000, 1.000000000000000000, -0.000000000000000000 ) ) ;
#12 = VECTOR ( 'NONE', #424, 1000.000000000000000 ) ;
#13 = DIRECTION ( 'NONE',  ( -0.000000000000000000, 1.000000000000000000, -0.000000000000000000 ) ) ;
#14 = DIRECTION ( 'NONE',  ( 0.000000000000000000, -1.000000000000000000, 0.000000000000000000 ) ) ;
#15 = VERTEX_POINT ( 'NONE', #2 ) ;
#16 = DIRECTION ( 'NONE',  ( 0.000000000000000000, 0.000000000000000000, -1.000000000000000000 ) ) ;
#17 = FILL_AREA_STYLE ('',( #345 ) ) ;
#18 = ORIENTED_EDGE ( 'NONE', *, *, #262, .F. ) ;
#19 = CYLINDRICAL_SURFACE ( 'NONE', #342, 1.649999999999991696 ) ;
#20 = VECTOR ( 'NONE', #376, 1000.000000000000000 ) ;
#21 = AXIS2_PLACEMENT_3D ( 'NONE', #410, #3, #152 ) ;
#22 = EDGE_CURVE ( 'NONE', #428, #168, #257, .T. ) ;
#23 = CIRCLE ( 'NONE', #248, 2.500000000000000444 ) ;
#24 = CARTESIAN_POINT ( 'NONE',  ( 37.49999999999999289, 0.000000000000000000, 9.999999999999998224 ) ) ;
#25 = EDGE_CURVE ( 'NONE', #323, #112, #47, .T. ) ;
#26 =( LENGTH_UNIT ( ) NAMED_UNIT ( * ) SI_UNIT ( .MILLI., .METRE. ) );
#27 = ORIENTED_EDGE ( 'NONE', *, *, #45, .T. ) ;
#28 = VECTOR ( 'NONE', #307, 1000.000000000000000 ) ;
#29 = ORIENTED_EDGE ( 'NONE', *, *, #22, .T. ) ;
#30 = ORIENTED_EDGE ( 'NONE', *, *, #221, .T. ) ;
#31 = CYLINDRICAL_SURFACE ( 'NONE', #217, 1.649999999999991696 ) ;
#32 = ORIENTED_EDGE ( 'NONE', *, *, #36, .F. ) ;
#33 = SHAPE_DEFINITION_REPRESENTATION ( #74, #197 ) ;
#34 = DIRECTION ( 'NONE',  ( -0.000000000000000000, 1.000000000000000000, -0.000000000000000000 ) ) ;
#35 = EDGE_LOOP ( 'NONE', ( #309, #462, #400, #176 ) ) ;
#36 = EDGE_CURVE ( 'NONE', #298, #347, #285, .T. ) ;
#37 = DIRECTION ( 'NONE',  ( 1.000000000000000000, 0.000000000000000000, 0.000000000000000000 ) ) ;
#38 = ORIENTED_EDGE ( 'NONE', *, *, #105, .F. ) ;
#39 = APPLICATION_PROTOCOL_DEFINITION ( 'draft international standard', 'automotive_design', 1998, #382 ) ;
#40 = LINE ( 'NONE', #7, #104 ) ;
#41 = ORIENTED_EDGE ( 'NONE', *, *, #254, .T. ) ;
#42 = FACE_OUTER_BOUND ( 'NONE', #118, .T. ) ;
#43 = CARTESIAN_POINT ( 'NONE',  ( -37.50000000000001421, 13.00000000000000000, -10.00000000000000178 ) ) ;
#44 = PRODUCT_DEFINITION_FORMATION_WITH_SPECIFIED_SOURCE ( 'ANY', '', #130, .NOT_KNOWN. ) ;
#45 = EDGE_CURVE ( 'NONE', #122, #253, #206, .T. ) ;
#46 = AXIS2_PLACEMENT_3D ( 'NONE', #447, #34, #334 ) ;
#47 = LINE ( 'NONE', #43, #20 ) ;
#48 = CARTESIAN_POINT ( 'NONE',  ( 18.00000000000000000, 13.00000000000000178, -1.649999999999994804 ) ) ;
#49 = DIRECTION ( 'NONE',  ( 0.000000000000000000, 0.000000000000000000, 1.000000000000000000 ) ) ;
#50 = CARTESIAN_POINT ( 'NONE',  ( 18.00000000000000000, 0.000000000000000000, 1.649999999999988809 ) ) ;
#51 = MECHANICAL_DESIGN_GEOMETRIC_PRESENTATION_REPRESENTATION (  '', ( #271 ), #362 ) ;
#52 = DIRECTION ( 'NONE',  ( -0.000000000000000000, 1.000000000000000000, -0.000000000000000000 ) ) ;
#53 = AXIS2_PLACEMENT_3D ( 'NONE', #381, #124, #16 ) ;
#54 = DIRECTION ( 'NONE',  ( -1.000000000000000000, -0.000000000000000000, -0.000000000000000000 ) ) ;
#55 = CARTESIAN_POINT ( 'NONE',  ( -18.00000000000000000, 13.00000000000000000, -1.649999999999991696 ) ) ;
#56 = ADVANCED_FACE ( 'NONE', ( #372 ), #190, .T. ) ;
#57 = DIRECTION ( 'NONE',  ( 0.000000000000000000, 0.000000000000000000, 1.000000000000000000 ) ) ;
#58 = EDGE_CURVE ( 'NONE', #265, #428, #264, .T. ) ;
#59 = AXIS2_PLACEMENT_3D ( 'NONE', #379, #49, #198 ) ;
#60 = CARTESIAN_POINT ( 'NONE',  ( -37.50000000000001421, 0.000000000000000000, 12.50000000000000000 ) ) ;
#61 = CARTESIAN_POINT ( 'NONE',  ( 34.99999999999999289, 13.00000000000000000, 9.999999999999998224 ) ) ;
#62 = ORIENTED_EDGE ( 'NONE', *, *, #196, .T. ) ;
#63 = FACE_BOUND ( 'NONE', #210, .T. ) ;
#64 = DIRECTION ( 'NONE',  ( 0.000000000000000000, 0.000000000000000000, 1.000000000000000000 ) ) ;
#65 = AXIS2_PLACEMENT_3D ( 'NONE', #187, #80, #294 ) ;
#66 = ORIENTED_EDGE ( 'NONE', *, *, #121, .T. ) ;
#67 = DIRECTION ( 'NONE',  ( -0.000000000000000000, 1.000000000000000000, -0.000000000000000000 ) ) ;
#68 = ORIENTED_EDGE ( 'NONE', *, *, #380, .F. ) ;
#69 = LINE ( 'NONE', #299, #451 ) ;
#70 = ORIENTED_EDGE ( 'NONE', *, *, #254, .F. ) ;
#71 = CIRCLE ( 'NONE', #110, 2.500000000000000444 ) ;
#72 = CARTESIAN_POINT ( 'NONE',  ( 34.99999999999999289, 0.000000000000000000, 12.50000000000000000 ) ) ;
#73 = ORIENTED_EDGE ( 'NONE', *, *, #25, .T. ) ;
#74 = PRODUCT_DEFINITION_SHAPE ( 'NONE', 'NONE',  #158 ) ;
#75 =( NAMED_UNIT ( * ) SI_UNIT ( $, .STERADIAN. ) SOLID_ANGLE_UNIT ( ) );
#76 = DIRECTION ( 'NONE',  ( -0.000000000000000000, -1.000000000000000000, -0.000000000000000000 ) ) ;
#77 = EDGE_LOOP ( 'NONE', ( #68, #38 ) ) ;
#78 = FACE_OUTER_BOUND ( 'NONE', #223, .T. ) ;
#79 = CARTESIAN_POINT ( 'NONE',  ( 34.99999999999997158, 13.00000000000000000, -10.00000000000000178 ) ) ;
#80 = DIRECTION ( 'NONE',  ( -0.000000000000000000, 1.000000000000000000, -0.000000000000000000 ) ) ;
#81 = CARTESIAN_POINT ( 'NONE',  ( 34.99999999999997158, 13.00000000000000000, -12.50000000000000000 ) ) ;
#82 = AXIS2_PLACEMENT_3D ( 'NONE', #230, #295, #259 ) ;
#83 = CARTESIAN_POINT ( 'NONE',  ( -37.50000000000001421, 13.00000000000000000, 10.00000000000000178 ) ) ;
#84 = VECTOR ( 'NONE', #472, 1000.000000000000000 ) ;
#85 = CARTESIAN_POINT ( 'NONE',  ( -35.00000000000000711, 13.00000000000000000, -10.00000000000000178 ) ) ;
#86 = DIRECTION ( 'NONE',  ( -0.000000000000000000, 1.000000000000000000, -0.000000000000000000 ) ) ;
#87 = ADVANCED_FACE ( 'NONE', ( #9 ), #156, .F. ) ;
#88 = CARTESIAN_POINT ( 'NONE',  ( 34.99999999999997158, 13.00000000000000000, -12.50000000000000000 ) ) ;
#89 = AXIS2_PLACEMENT_3D ( 'NONE', #96, #67, #57 ) ;
#90 = LINE ( 'NONE', #239, #92 ) ;
#91 = APPLICATION_CONTEXT ( 'automotive_design' ) ;
#92 = VECTOR ( 'NONE', #301, 1000.000000000000000 ) ;
#93 = CARTESIAN_POINT ( 'NONE',  ( 34.99999999999997158, 13.00000000000000000, -10.00000000000000178 ) ) ;
#94 = EDGE_CURVE ( 'NONE', #162, #188, #475, .T. ) ;
#95 = VECTOR ( 'NONE', #207, 1000.000000000000000 ) ;
#96 = CARTESIAN_POINT ( 'NONE',  ( 18.00000000000000000, 0.000000000000000000, -6.613092715395706678E-15 ) ) ;
#97 = CARTESIAN_POINT ( 'NONE',  ( 34.99999999999997158, 0.000000000000000000, -10.00000000000000178 ) ) ;
#98 = ORIENTED_EDGE ( 'NONE', *, *, #36, .T. ) ;
#99 = CARTESIAN_POINT ( 'NONE',  ( -18.00000000000000000, 13.00000000000000000, 1.649999999999991696 ) ) ;
#100 = EDGE_LOOP ( 'NONE', ( #173, #250, #300, #432 ) ) ;
#101 = DIRECTION ( 'NONE',  ( 0.000000000000000000, 1.000000000000000000, 0.000000000000000000 ) ) ;
#102 = ORIENTED_EDGE ( 'NONE', *, *, #107, .T. ) ;
#103 = APPLICATION_PROTOCOL_DEFINITION ( 'draft international standard', 'automotive_design', 1998, #91 ) ;
#104 = VECTOR ( 'NONE', #408, 1000.000000000000000 ) ;
#105 = EDGE_CURVE ( 'NONE', #282, #249, #269, .T. ) ;
#106 = ORIENTED_EDGE ( 'NONE', *, *, #398, .T. ) ;
#107 = EDGE_CURVE ( 'NONE', #436, #323, #138, .T. ) ;
#108 = CARTESIAN_POINT ( 'NONE',  ( -35.00000000000000711, 13.00000000000000000, -10.00000000000000178 ) ) ;
#109 = ORIENTED_EDGE ( 'NONE', *, *, #107, .F. ) ;
#110 = AXIS2_PLACEMENT_3D ( 'NONE', #61, #316, #463 ) ;
#111 = CARTESIAN_POINT ( 'NONE',  ( -35.00000000000000711, 0.000000000000000000, -10.00000000000000178 ) ) ;
#112 = VERTEX_POINT ( 'NONE', #145 ) ;
#113 = CIRCLE ( 'NONE', #65, 1.649999999999995248 ) ;
#114 = ORIENTED_EDGE ( 'NONE', *, *, #121, .F. ) ;
#115 = CARTESIAN_POINT ( 'NONE',  ( -35.00000000000000711, 0.000000000000000000, 10.00000000000000178 ) ) ;
#116 = CARTESIAN_POINT ( 'NONE',  ( -35.00000000000000711, 13.00000000000000000, 10.00000000000000178 ) ) ;
#117 = PLANE ( 'NONE',  #167 ) ;
#118 = EDGE_LOOP ( 'NONE', ( #317, #41, #353, #466 ) ) ;
#119 = DIRECTION ( 'NONE',  ( 0.000000000000000000, 0.000000000000000000, -1.000000000000000000 ) ) ;
#120 = EDGE_CURVE ( 'NONE', #134, #441, #69, .T. ) ;
#121 = EDGE_CURVE ( 'NONE', #112, #443, #402, .T. ) ;
#122 = VERTEX_POINT ( 'NONE', #251 ) ;
#123 = CARTESIAN_POINT ( 'NONE',  ( 18.00000000000000000, 13.00000000000000000, -6.613092715395706678E-15 ) ) ;
#124 = DIRECTION ( 'NONE',  ( 0.000000000000000000, -1.000000000000000000, 0.000000000000000000 ) ) ;
#125 = AXIS2_PLACEMENT_3D ( 'NONE', #108, #155, #191 ) ;
#126 = SURFACE_STYLE_FILL_AREA ( #17 ) ;
#127 = ADVANCED_FACE ( 'NONE', ( #42 ), #444, .F. ) ;
#128 = ORIENTED_EDGE ( 'NONE', *, *, #262, .T. ) ;
#129 = FACE_OUTER_BOUND ( 'NONE', #143, .T. ) ;
#130 = PRODUCT ( 'PEDISTAL-TOWER_v001', 'PEDISTAL-TOWER_v001', '', ( #224 ) ) ;
#131 = DIRECTION ( 'NONE',  ( -0.000000000000000000, 1.000000000000000000, -0.000000000000000000 ) ) ;
#132 = AXIS2_PLACEMENT_3D ( 'NONE', #314, #131, #281 ) ;
#133 = DIRECTION ( 'NONE',  ( 0.000000000000000000, 0.000000000000000000, 1.000000000000000000 ) ) ;
#134 = VERTEX_POINT ( 'NONE', #442 ) ;
#135 = CARTESIAN_POINT ( 'NONE',  ( -35.00000000000000711, 13.00000000000000000, -12.50000000000000000 ) ) ;
#136 = ORIENTED_EDGE ( 'NONE', *, *, #276, .T. ) ;
#137 = LINE ( 'NONE', #99, #12 ) ;
#138 = CIRCLE ( 'NONE', #125, 2.500000000000000444 ) ;
#139 = ORIENTED_EDGE ( 'NONE', *, *, #426, .F. ) ;
#140 = EDGE_CURVE ( 'NONE', #134, #122, #470, .T. ) ;
#141 = VECTOR ( 'NONE', #228, 1000.000000000000000 ) ;
#142 = AXIS2_PLACEMENT_3D ( 'NONE', #116, #335, #234 ) ;
#143 = EDGE_LOOP ( 'NONE', ( #358, #403, #464, #128 ) ) ;
#144 = ADVANCED_FACE ( 'NONE', ( #78 ), #189, .F. ) ;
#145 = CARTESIAN_POINT ( 'NONE',  ( -37.50000000000001421, 0.000000000000000000, -10.00000000000000178 ) ) ;
#146 = EDGE_LOOP ( 'NONE', ( #247, #73, #66, #409 ) ) ;
#147 = FACE_OUTER_BOUND ( 'NONE', #215, .T. ) ;
#148 = EDGE_LOOP ( 'NONE', ( #218, #407, #284, #368 ) ) ;
#149 = DIRECTION ( 'NONE',  ( -2.775557561562891351E-16, -0.000000000000000000, -1.000000000000000000 ) ) ;
#150 = ORIENTED_EDGE ( 'NONE', *, *, #360, .T. ) ;
#151 = AXIS2_PLACEMENT_3D ( 'NONE', #373, #387, #119 ) ;
#152 = DIRECTION ( 'NONE',  ( 1.000000000000000000, 0.000000000000000000, 0.000000000000000000 ) ) ;
#153 = CARTESIAN_POINT ( 'NONE',  ( -37.50000000000001421, 0.000000000000000000, -12.50000000000000000 ) ) ;
#154 = DIRECTION ( 'NONE',  ( 0.000000000000000000, -1.000000000000000000, 0.000000000000000000 ) ) ;
#155 = DIRECTION ( 'NONE',  ( 0.000000000000000000, 1.000000000000000000, 0.000000000000000000 ) ) ;
#156 = PLANE ( 'NONE',  #59 ) ;
#157 = CIRCLE ( 'NONE', #171, 1.649999999999988365 ) ;
#158 = PRODUCT_DEFINITION ( 'UNKNOWN', '', #44, #416 ) ;
#159 = CARTESIAN_POINT ( 'NONE',  ( 34.99999999999999289, 0.000000000000000000, 9.999999999999998224 ) ) ;
#160 = DIRECTION ( 'NONE',  ( 0.000000000000000000, 0.000000000000000000, 1.000000000000000000 ) ) ;
#161 = DIRECTION ( 'NONE',  ( 0.000000000000000000, 0.000000000000000000, 1.000000000000000000 ) ) ;
#162 = VERTEX_POINT ( 'NONE', #288 ) ;
#163 = DIRECTION ( 'NONE',  ( -0.000000000000000000, 1.000000000000000000, -0.000000000000000000 ) ) ;
#164 = FACE_OUTER_BOUND ( 'NONE', #344, .T. ) ;
#165 = CYLINDRICAL_SURFACE ( 'NONE', #405, 2.500000000000000444 ) ;
#166 = VECTOR ( 'NONE', #333, 1000.000000000000000 ) ;
#167 = AXIS2_PLACEMENT_3D ( 'NONE', #366, #37, #371 ) ;
#168 = VERTEX_POINT ( 'NONE', #437 ) ;
#169 = FACE_OUTER_BOUND ( 'NONE', #438, .T. ) ;
#170 = CARTESIAN_POINT ( 'NONE',  ( -35.00000000000000711, 0.000000000000000000, -12.50000000000000000 ) ) ;
#171 = AXIS2_PLACEMENT_3D ( 'NONE', #203, #241, #133 ) ;
#172 = EDGE_CURVE ( 'NONE', #253, #436, #40, .T. ) ;
#173 = ORIENTED_EDGE ( 'NONE', *, *, #172, .F. ) ;
#174 = CARTESIAN_POINT ( 'NONE',  ( -37.50000000000001421, 0.000000000000000000, 10.00000000000000178 ) ) ;
#175 = VECTOR ( 'NONE', #231, 1000.000000000000000 ) ;
#176 = ORIENTED_EDGE ( 'NONE', *, *, #120, .F. ) ;
#177 = FACE_OUTER_BOUND ( 'NONE', #325, .T. ) ;
#178 = ORIENTED_EDGE ( 'NONE', *, *, #58, .T. ) ;
#179 = LINE ( 'NONE', #351, #199 ) ;
#180 = EDGE_CURVE ( 'NONE', #290, #443, #377, .T. ) ;
#181 = ORIENTED_EDGE ( 'NONE', *, *, #449, .T. ) ;
#182 = DIRECTION ( 'NONE',  ( 0.000000000000000000, 0.000000000000000000, -1.000000000000000000 ) ) ;
#183 = ORIENTED_EDGE ( 'NONE', *, *, #140, .T. ) ;
#184 = AXIS2_PLACEMENT_3D ( 'NONE', #222, #296, #369 ) ;
#185 = LINE ( 'NONE', #328, #84 ) ;
#186 = VERTEX_POINT ( 'NONE', #72 ) ;
#187 = CARTESIAN_POINT ( 'NONE',  ( -18.00000000000000000, 0.000000000000000000, 0.000000000000000000 ) ) ;
#188 = VERTEX_POINT ( 'NONE', #225 ) ;
#189 = PLANE ( 'NONE',  #311 ) ;
#190 = CYLINDRICAL_SURFACE ( 'NONE', #469, 2.500000000000000444 ) ;
#191 = DIRECTION ( 'NONE',  ( 0.000000000000000000, 0.000000000000000000, 1.000000000000000000 ) ) ;
#192 = DIRECTION ( 'NONE',  ( 1.000000000000000000, 0.000000000000000000, 0.000000000000000000 ) ) ;
#193 = ADVANCED_FACE ( 'NONE', ( #219 ), #117, .F. ) ;
#194 = UNCERTAINTY_MEASURE_WITH_UNIT (LENGTH_MEASURE( 1.000000000000000082E-05 ), #26, 'distance_accuracy_value', 'NONE');
#195 = CARTESIAN_POINT ( 'NONE',  ( -37.50000000000001421, 13.00000000000000000, 10.00000000000000178 ) ) ;
#196 = EDGE_CURVE ( 'NONE', #428, #290, #185, .T. ) ;
#197 = ADVANCED_BREP_SHAPE_REPRESENTATION ( 'PEDISTAL-TOWER_v001', ( #375, #21 ), #367 ) ;
#198 = DIRECTION ( 'NONE',  ( 1.000000000000000000, 0.000000000000000000, -0.000000000000000000 ) ) ;
#199 = VECTOR ( 'NONE', #423, 1000.000000000000000 ) ;
#200 = CARTESIAN_POINT ( 'NONE',  ( 18.00000000000000000, 13.00000000000000178, -6.613092715395706678E-15 ) ) ;
#201 = VECTOR ( 'NONE', #420, 1000.000000000000000 ) ;
#202 = DIRECTION ( 'NONE',  ( 0.000000000000000000, 0.000000000000000000, -1.000000000000000000 ) ) ;
#203 = CARTESIAN_POINT ( 'NONE',  ( -18.00000000000000000, 13.00000000000000178, 0.000000000000000000 ) ) ;
#204 = FACE_OUTER_BOUND ( 'NONE', #148, .T. ) ;
#205 = PLANE ( 'NONE',  #277 ) ;
#206 = CIRCLE ( 'NONE', #350, 2.500000000000000444 ) ;
#207 = DIRECTION ( 'NONE',  ( 1.000000000000000000, 0.000000000000000000, 0.000000000000000000 ) ) ;
#208 = EDGE_LOOP ( 'NONE', ( #109, #245, #273, #471 ) ) ;
#209 = DIRECTION ( 'NONE',  ( 0.000000000000000000, 1.000000000000000000, 0.000000000000000000 ) ) ;
#210 = EDGE_LOOP ( 'NONE', ( #18, #32 ) ) ;
#211 = FACE_OUTER_BOUND ( 'NONE', #395, .T. ) ;
#212 = VECTOR ( 'NONE', #453, 1000.000000000000000 ) ;
#213 = ORIENTED_EDGE ( 'NONE', *, *, #459, .T. ) ;
#214 = ADVANCED_FACE ( 'NONE', ( #147 ), #406, .F. ) ;
#215 = EDGE_LOOP ( 'NONE', ( #136, #261, #355, #287 ) ) ;
#216 = CARTESIAN_POINT ( 'NONE',  ( -37.50000000000001421, 13.00000000000000000, 12.50000000000000000 ) ) ;
#217 = AXIS2_PLACEMENT_3D ( 'NONE', #388, #319, #324 ) ;
#218 = ORIENTED_EDGE ( 'NONE', *, *, #45, .F. ) ;
#219 = FACE_OUTER_BOUND ( 'NONE', #146, .T. ) ;
#220 = ORIENTED_EDGE ( 'NONE', *, *, #341, .T. ) ;
#221 = EDGE_CURVE ( 'NONE', #112, #390, #23, .T. ) ;
#222 = CARTESIAN_POINT ( 'NONE',  ( 18.00000000000000000, 0.000000000000000000, -6.613092715395706678E-15 ) ) ;
#223 = EDGE_LOOP ( 'NONE', ( #181, #397, #448, #62 ) ) ;
#224 = PRODUCT_CONTEXT ( 'NONE', #91, 'mechanical' ) ;
#225 = CARTESIAN_POINT ( 'NONE',  ( -18.00000000000000000, 0.000000000000000000, 1.649999999999995248 ) ) ;
#226 = DIRECTION ( 'NONE',  ( 0.000000000000000000, 1.000000000000000000, 0.000000000000000000 ) ) ;
#227 = AXIS2_PLACEMENT_3D ( 'NONE', #338, #13, #64 ) ;
#228 = DIRECTION ( 'NONE',  ( 0.000000000000000000, 0.000000000000000000, 1.000000000000000000 ) ) ;
#229 = EDGE_CURVE ( 'NONE', #305, #327, #286, .T. ) ;
#230 = CARTESIAN_POINT ( 'NONE',  ( 18.00000000000000000, 13.00000000000000178, -6.613092715395706678E-15 ) ) ;
#231 = DIRECTION ( 'NONE',  ( -0.000000000000000000, 1.000000000000000000, -0.000000000000000000 ) ) ;
#232 = AXIS2_PLACEMENT_3D ( 'NONE', #291, #332, #440 ) ;
#233 = EDGE_CURVE ( 'NONE', #188, #162, #113, .T. ) ;
#234 = DIRECTION ( 'NONE',  ( 0.000000000000000000, 0.000000000000000000, 1.000000000000000000 ) ) ;
#235 = CARTESIAN_POINT ( 'NONE',  ( 37.49999999999998579, 0.000000000000000000, -12.50000000000000000 ) ) ;
#236 = CIRCLE ( 'NONE', #401, 2.500000000000000444 ) ;
#237 = LINE ( 'NONE', #270, #201 ) ;
#238 = CIRCLE ( 'NONE', #421, 1.649999999999988365 ) ;
#239 = CARTESIAN_POINT ( 'NONE',  ( -37.50000000000001421, 13.00000000000000000, -12.50000000000000000 ) ) ;
#240 = FACE_OUTER_BOUND ( 'NONE', #35, .T. ) ;
#241 = DIRECTION ( 'NONE',  ( -0.000000000000000000, 1.000000000000000000, -0.000000000000000000 ) ) ;
#242 = ADVANCED_FACE ( 'NONE', ( #260 ), #411, .T. ) ;
#243 = FACE_BOUND ( 'NONE', #418, .T. ) ;
#244 = DIRECTION ( 'NONE',  ( 0.000000000000000000, 0.000000000000000000, 1.000000000000000000 ) ) ;
#245 = ORIENTED_EDGE ( 'NONE', *, *, #349, .F. ) ;
#246 = FACE_BOUND ( 'NONE', #320, .T. ) ;
#247 = ORIENTED_EDGE ( 'NONE', *, *, #360, .F. ) ;
#248 = AXIS2_PLACEMENT_3D ( 'NONE', #111, #76, #5 ) ;
#249 = VERTEX_POINT ( 'NONE', #266 ) ;
#250 = ORIENTED_EDGE ( 'NONE', *, *, #8, .T. ) ;
#251 = CARTESIAN_POINT ( 'NONE',  ( 37.49999999999998579, 13.00000000000000000, -10.00000000000000178 ) ) ;
#252 = AXIS2_PLACEMENT_3D ( 'NONE', #431, #101, #439 ) ;
#253 = VERTEX_POINT ( 'NONE', #88 ) ;
#254 = EDGE_CURVE ( 'NONE', #162, #282, #417, .T. ) ;
#255 = DIRECTION ( 'NONE',  ( 0.000000000000000000, -1.000000000000000000, 0.000000000000000000 ) ) ;
#256 = VECTOR ( 'NONE', #86, 1000.000000000000000 ) ;
#257 = LINE ( 'NONE', #6, #434 ) ;
#258 = CARTESIAN_POINT ( 'NONE',  ( 37.49999999999998579, 13.00000000000000000, -12.50000000000000000 ) ) ;
#259 = DIRECTION ( 'NONE',  ( 0.000000000000000000, 0.000000000000000000, 1.000000000000000000 ) ) ;
#260 = FACE_OUTER_BOUND ( 'NONE', #280, .T. ) ;
#261 = ORIENTED_EDGE ( 'NONE', *, *, #433, .T. ) ;
#262 = EDGE_CURVE ( 'NONE', #347, #298, #238, .T. ) ;
#263 = SURFACE_SIDE_STYLE ('',( #126 ) ) ;
#264 = CIRCLE ( 'NONE', #142, 2.500000000000000444 ) ;
#265 = VERTEX_POINT ( 'NONE', #83 ) ;
#266 = CARTESIAN_POINT ( 'NONE',  ( -18.00000000000000000, 13.00000000000000178, 1.649999999999988365 ) ) ;
#267 = ORIENTED_EDGE ( 'NONE', *, *, #233, .F. ) ;
#268 = CARTESIAN_POINT ( 'NONE',  ( 18.00000000000000000, 13.00000000000000000, -1.649999999999998357 ) ) ;
#269 = CIRCLE ( 'NONE', #346, 1.649999999999988365 ) ;
#270 = CARTESIAN_POINT ( 'NONE',  ( -35.00000000000000711, 13.00000000000000000, -12.50000000000000000 ) ) ;
#271 = STYLED_ITEM ( 'NONE', ( #422 ), #375 ) ;
#272 = SURFACE_STYLE_USAGE ( .BOTH. , #263 ) ;
#273 = ORIENTED_EDGE ( 'NONE', *, *, #221, .F. ) ;
#274 = CARTESIAN_POINT ( 'NONE',  ( 0.000000000000000000, 0.000000000000000000, 0.000000000000000000 ) ) ;
#275 = EDGE_CURVE ( 'NONE', #327, #298, #383, .T. ) ;
#276 = EDGE_CURVE ( 'NONE', #441, #452, #413, .T. ) ;
#277 = AXIS2_PLACEMENT_3D ( 'NONE', #274, #209, #396 ) ;
#278 = CIRCLE ( 'NONE', #318, 2.500000000000000444 ) ;
#279 = CYLINDRICAL_SURFACE ( 'NONE', #132, 1.649999999999991696 ) ;
#280 = EDGE_LOOP ( 'NONE', ( #460, #313, #456, #474 ) ) ;
#281 = DIRECTION ( 'NONE',  ( 0.000000000000000000, 0.000000000000000000, 1.000000000000000000 ) ) ;
#282 = VERTEX_POINT ( 'NONE', #378 ) ;
#283 = PLANE ( 'NONE',  #252 ) ;
#284 = ORIENTED_EDGE ( 'NONE', *, *, #459, .F. ) ;
#285 = CIRCLE ( 'NONE', #82, 1.649999999999988365 ) ;
#286 = CIRCLE ( 'NONE', #184, 1.649999999999995248 ) ;
#287 = ORIENTED_EDGE ( 'NONE', *, *, #120, .T. ) ;
#288 = CARTESIAN_POINT ( 'NONE',  ( -18.00000000000000000, 0.000000000000000000, -1.649999999999995026 ) ) ;
#289 = PRODUCT_RELATED_PRODUCT_CATEGORY ( 'part', '', ( #130 ) ) ;
#290 = VERTEX_POINT ( 'NONE', #336 ) ;
#291 = CARTESIAN_POINT ( 'NONE',  ( 37.49999999999998579, 13.00000000000000000, -12.50000000000000000 ) ) ;
#292 = CIRCLE ( 'NONE', #89, 1.649999999999995248 ) ;
#293 = ORIENTED_EDGE ( 'NONE', *, *, #392, .T. ) ;
#294 = DIRECTION ( 'NONE',  ( 0.000000000000000000, 0.000000000000000000, 1.000000000000000000 ) ) ;
#295 = DIRECTION ( 'NONE',  ( -0.000000000000000000, 1.000000000000000000, -0.000000000000000000 ) ) ;
#296 = DIRECTION ( 'NONE',  ( -0.000000000000000000, 1.000000000000000000, -0.000000000000000000 ) ) ;
#297 = ADVANCED_FACE ( 'NONE', ( #204 ), #165, .T. ) ;
#298 = VERTEX_POINT ( 'NONE', #48 ) ;
#299 = CARTESIAN_POINT ( 'NONE',  ( 37.49999999999999289, 13.00000000000000000, 9.999999999999998224 ) ) ;
#300 = ORIENTED_EDGE ( 'NONE', *, *, #364, .T. ) ;
#301 = DIRECTION ( 'NONE',  ( 0.000000000000000000, 0.000000000000000000, 1.000000000000000000 ) ) ;
#302 = ORIENTED_EDGE ( 'NONE', *, *, #380, .T. ) ;
#303 = LINE ( 'NONE', #195, #212 ) ;
#304 = ADVANCED_FACE ( 'NONE', ( #240 ), #348, .T. ) ;
#305 = VERTEX_POINT ( 'NONE', #50 ) ;
#306 = CARTESIAN_POINT ( 'NONE',  ( -37.50000000000001421, 13.00000000000000000, -10.00000000000000178 ) ) ;
#307 = DIRECTION ( 'NONE',  ( -2.775557561562891351E-16, -0.000000000000000000, -1.000000000000000000 ) ) ;
#308 = EDGE_CURVE ( 'NONE', #186, #168, #340, .T. ) ;
#309 = ORIENTED_EDGE ( 'NONE', *, *, #392, .F. ) ;
#310 = DIRECTION ( 'NONE',  ( -8.326672684688672475E-15, 0.000000000000000000, 1.000000000000000000 ) ) ;
#311 = AXIS2_PLACEMENT_3D ( 'NONE', #216, #182, #1 ) ;
#312 = EDGE_CURVE ( 'NONE', #443, #265, #303, .T. ) ;
#313 = ORIENTED_EDGE ( 'NONE', *, *, #312, .F. ) ;
#314 = CARTESIAN_POINT ( 'NONE',  ( -18.00000000000000000, 13.00000000000000000, 0.000000000000000000 ) ) ;
#315 = ORIENTED_EDGE ( 'NONE', *, *, #276, .F. ) ;
#316 = DIRECTION ( 'NONE',  ( 0.000000000000000000, 1.000000000000000000, 0.000000000000000000 ) ) ;
#317 = ORIENTED_EDGE ( 'NONE', *, *, #94, .F. ) ;
#318 = AXIS2_PLACEMENT_3D ( 'NONE', #159, #457, #310 ) ;
#319 = DIRECTION ( 'NONE',  ( -0.000000000000000000, 1.000000000000000000, -0.000000000000000000 ) ) ;
#320 = EDGE_LOOP ( 'NONE', ( #365, #331 ) ) ;
#321 =( NAMED_UNIT ( * ) SI_UNIT ( $, .STERADIAN. ) SOLID_ANGLE_UNIT ( ) );
#322 = CARTESIAN_POINT ( 'NONE',  ( -18.00000000000000000, 13.00000000000000178, 0.000000000000000000 ) ) ;
#323 = VERTEX_POINT ( 'NONE', #306 ) ;
#324 = DIRECTION ( 'NONE',  ( 0.000000000000000000, 0.000000000000000000, 1.000000000000000000 ) ) ;
#325 = EDGE_LOOP ( 'NONE', ( #361, #213, #315, #220, #356, #329, #114, #30 ) ) ;
#326 = DIRECTION ( 'NONE',  ( 0.000000000000000000, 0.000000000000000000, 1.000000000000000000 ) ) ;
#327 = VERTEX_POINT ( 'NONE', #454 ) ;
#328 = CARTESIAN_POINT ( 'NONE',  ( -35.00000000000000711, 13.00000000000000000, 12.50000000000000000 ) ) ;
#329 = ORIENTED_EDGE ( 'NONE', *, *, #180, .T. ) ;
#330 = DIRECTION ( 'NONE',  ( -0.000000000000000000, -1.000000000000000000, -0.000000000000000000 ) ) ;
#331 = ORIENTED_EDGE ( 'NONE', *, *, #94, .T. ) ;
#332 = DIRECTION ( 'NONE',  ( -1.000000000000000000, 0.000000000000000000, 2.775557561562891844E-16 ) ) ;
#333 = DIRECTION ( 'NONE',  ( 0.000000000000000000, -1.000000000000000000, 0.000000000000000000 ) ) ;
#334 = DIRECTION ( 'NONE',  ( 0.000000000000000000, 0.000000000000000000, 1.000000000000000000 ) ) ;
#335 = DIRECTION ( 'NONE',  ( 0.000000000000000000, 1.000000000000000000, 0.000000000000000000 ) ) ;
#336 = CARTESIAN_POINT ( 'NONE',  ( -35.00000000000000711, 0.000000000000000000, 12.50000000000000000 ) ) ;
#337 = VECTOR ( 'NONE', #389, 1000.000000000000000 ) ;
#338 = CARTESIAN_POINT ( 'NONE',  ( -18.00000000000000000, 0.000000000000000000, 0.000000000000000000 ) ) ;
#339 = ADVANCED_FACE ( 'NONE', ( #164 ), #19, .F. ) ;
#340 = LINE ( 'NONE', #343, #357 ) ;
#341 = EDGE_CURVE ( 'NONE', #441, #186, #278, .T. ) ;
#342 = AXIS2_PLACEMENT_3D ( 'NONE', #123, #11, #419 ) ;
#343 = CARTESIAN_POINT ( 'NONE',  ( 34.99999999999999289, 13.00000000000000000, 12.50000000000000000 ) ) ;
#344 = EDGE_LOOP ( 'NONE', ( #468, #415, #98, #139 ) ) ;
#345 = FILL_AREA_STYLE_COLOUR ( '', #384 ) ;
#346 = AXIS2_PLACEMENT_3D ( 'NONE', #322, #399, #363 ) ;
#347 = VERTEX_POINT ( 'NONE', #455 ) ;
#348 = CYLINDRICAL_SURFACE ( 'NONE', #53, 2.500000000000000444 ) ;
#349 = EDGE_CURVE ( 'NONE', #390, #436, #237, .T. ) ;
#350 = AXIS2_PLACEMENT_3D ( 'NONE', #79, #226, #160 ) ;
#351 = CARTESIAN_POINT ( 'NONE',  ( 18.00000000000000000, 13.00000000000000000, 1.649999999999985256 ) ) ;
#352 = AXIS2_PLACEMENT_3D ( 'NONE', #115, #330, #326 ) ;
#353 = ORIENTED_EDGE ( 'NONE', *, *, #105, .T. ) ;
#354 = CARTESIAN_POINT ( 'NONE',  ( 37.49999999999998579, 0.000000000000000000, -10.00000000000000178 ) ) ;
#355 = ORIENTED_EDGE ( 'NONE', *, *, #140, .F. ) ;
#356 = ORIENTED_EDGE ( 'NONE', *, *, #449, .F. ) ;
#357 = VECTOR ( 'NONE', #163, 1000.000000000000000 ) ;
#358 = ORIENTED_EDGE ( 'NONE', *, *, #275, .F. ) ;
#359 = CARTESIAN_POINT ( 'NONE',  ( 37.49999999999998579, 13.00000000000000000, -10.00000000000000178 ) ) ;
#360 = EDGE_CURVE ( 'NONE', #323, #265, #90, .T. ) ;
#361 = ORIENTED_EDGE ( 'NONE', *, *, #364, .F. ) ;
#362 =( GEOMETRIC_REPRESENTATION_CONTEXT ( 3 ) GLOBAL_UNCERTAINTY_ASSIGNED_CONTEXT ( ( #194 ) ) GLOBAL_UNIT_ASSIGNED_CONTEXT ( ( #26, #391, #321 ) ) REPRESENTATION_CONTEXT ( 'NONE', 'WORKASPACE' ) );
#363 = DIRECTION ( 'NONE',  ( 0.000000000000000000, 0.000000000000000000, 1.000000000000000000 ) ) ;
#364 = EDGE_CURVE ( 'NONE', #15, #390, #450, .T. ) ;
#365 = ORIENTED_EDGE ( 'NONE', *, *, #233, .T. ) ;
#366 = CARTESIAN_POINT ( 'NONE',  ( -37.50000000000001421, 13.00000000000000000, -12.50000000000000000 ) ) ;
#367 =( GEOMETRIC_REPRESENTATION_CONTEXT ( 3 ) GLOBAL_UNCERTAINTY_ASSIGNED_CONTEXT ( ( #10 ) ) GLOBAL_UNIT_ASSIGNED_CONTEXT ( ( #467, #404, #75 ) ) REPRESENTATION_CONTEXT ( 'NONE', 'WORKASPACE' ) );
#368 = ORIENTED_EDGE ( 'NONE', *, *, #8, .F. ) ;
#369 = DIRECTION ( 'NONE',  ( 0.000000000000000000, 0.000000000000000000, 1.000000000000000000 ) ) ;
#370 = ORIENTED_EDGE ( 'NONE', *, *, #414, .T. ) ;
#371 = DIRECTION ( 'NONE',  ( 0.000000000000000000, 0.000000000000000000, -1.000000000000000000 ) ) ;
#372 = FACE_OUTER_BOUND ( 'NONE', #208, .T. ) ;
#373 = CARTESIAN_POINT ( 'NONE',  ( -35.00000000000000711, 13.00000000000000000, 10.00000000000000178 ) ) ;
#374 = CLOSED_SHELL ( 'NONE', ( #127, #339, #214, #87, #193, #144, #473, #425, #386, #446, #297, #304, #56, #242 ) ) ;
#375 = MANIFOLD_SOLID_BREP ( 'Fillet1', #374 ) ;
#376 = DIRECTION ( 'NONE',  ( 0.000000000000000000, -1.000000000000000000, 0.000000000000000000 ) ) ;
#377 = CIRCLE ( 'NONE', #352, 2.500000000000000444 ) ;
#378 = CARTESIAN_POINT ( 'NONE',  ( -18.00000000000000000, 13.00000000000000178, -1.649999999999988365 ) ) ;
#379 = CARTESIAN_POINT ( 'NONE',  ( -37.50000000000001421, 13.00000000000000000, -12.50000000000000000 ) ) ;
#380 = EDGE_CURVE ( 'NONE', #249, #282, #157, .T. ) ;
#381 = CARTESIAN_POINT ( 'NONE',  ( 34.99999999999999289, 13.00000000000000000, 9.999999999999998224 ) ) ;
#382 = APPLICATION_CONTEXT ( 'automotive_design' ) ;
#383 = LINE ( 'NONE', #268, #175 ) ;
#384 = COLOUR_RGB ( '',0.7921568627450980005, 0.8196078431372548767, 0.9333333333333333481 ) ;
#385 = CARTESIAN_POINT ( 'NONE',  ( -37.50000000000001421, 0.000000000000000000, -12.50000000000000000 ) ) ;
#386 = ADVANCED_FACE ( 'NONE', ( #129 ), #31, .F. ) ;
#387 = DIRECTION ( 'NONE',  ( 0.000000000000000000, -1.000000000000000000, 0.000000000000000000 ) ) ;
#388 = CARTESIAN_POINT ( 'NONE',  ( 18.00000000000000000, 13.00000000000000000, -6.613092715395706678E-15 ) ) ;
#389 = DIRECTION ( 'NONE',  ( -0.000000000000000000, 1.000000000000000000, -0.000000000000000000 ) ) ;
#390 = VERTEX_POINT ( 'NONE', #170 ) ;
#391 =( NAMED_UNIT ( * ) PLANE_ANGLE_UNIT ( ) SI_UNIT ( $, .RADIAN. ) );
#392 = EDGE_CURVE ( 'NONE', #168, #134, #71, .T. ) ;
#393 = ORIENTED_EDGE ( 'NONE', *, *, #172, .T. ) ;
#394 = FACE_BOUND ( 'NONE', #77, .T. ) ;
#395 = EDGE_LOOP ( 'NONE', ( #183, #27, #393, #102, #150, #178, #29, #293 ) ) ;
#396 = DIRECTION ( 'NONE',  ( 0.000000000000000000, -0.000000000000000000, 1.000000000000000000 ) ) ;
#397 = ORIENTED_EDGE ( 'NONE', *, *, #308, .T. ) ;
#398 = EDGE_CURVE ( 'NONE', #188, #249, #137, .T. ) ;
#399 = DIRECTION ( 'NONE',  ( -0.000000000000000000, 1.000000000000000000, -0.000000000000000000 ) ) ;
#400 = ORIENTED_EDGE ( 'NONE', *, *, #341, .F. ) ;
#401 = AXIS2_PLACEMENT_3D ( 'NONE', #97, #429, #244 ) ;
#402 = LINE ( 'NONE', #153, #141 ) ;
#403 = ORIENTED_EDGE ( 'NONE', *, *, #229, .F. ) ;
#404 =( NAMED_UNIT ( * ) PLANE_ANGLE_UNIT ( ) SI_UNIT ( $, .RADIAN. ) );
#405 = AXIS2_PLACEMENT_3D ( 'NONE', #93, #14, #202 ) ;
#406 = PLANE ( 'NONE',  #232 ) ;
#407 = ORIENTED_EDGE ( 'NONE', *, *, #433, .F. ) ;
#408 = DIRECTION ( 'NONE',  ( -1.000000000000000000, -0.000000000000000000, -0.000000000000000000 ) ) ;
#409 = ORIENTED_EDGE ( 'NONE', *, *, #312, .T. ) ;
#410 = CARTESIAN_POINT ( 'NONE',  ( 0.000000000000000000, 0.000000000000000000, 0.000000000000000000 ) ) ;
#411 = CYLINDRICAL_SURFACE ( 'NONE', #151, 2.500000000000000444 ) ;
#412 = LINE ( 'NONE', #81, #166 ) ;
#413 = LINE ( 'NONE', #235, #28 ) ;
#414 = EDGE_CURVE ( 'NONE', #327, #305, #292, .T. ) ;
#415 = ORIENTED_EDGE ( 'NONE', *, *, #275, .T. ) ;
#416 = PRODUCT_DEFINITION_CONTEXT ( 'detailed design', #382, 'design' ) ;
#417 = LINE ( 'NONE', #55, #256 ) ;
#418 = EDGE_LOOP ( 'NONE', ( #430, #370 ) ) ;
#419 = DIRECTION ( 'NONE',  ( 0.000000000000000000, 0.000000000000000000, 1.000000000000000000 ) ) ;
#420 = DIRECTION ( 'NONE',  ( -0.000000000000000000, 1.000000000000000000, -0.000000000000000000 ) ) ;
#421 = AXIS2_PLACEMENT_3D ( 'NONE', #200, #52, #161 ) ;
#422 = PRESENTATION_STYLE_ASSIGNMENT (( #272 ) ) ;
#423 = DIRECTION ( 'NONE',  ( -0.000000000000000000, 1.000000000000000000, -0.000000000000000000 ) ) ;
#424 = DIRECTION ( 'NONE',  ( -0.000000000000000000, 1.000000000000000000, -0.000000000000000000 ) ) ;
#425 = ADVANCED_FACE ( 'NONE', ( #246, #243, #177 ), #205, .F. ) ;
#426 = EDGE_CURVE ( 'NONE', #305, #347, #179, .T. ) ;
#427 = LINE ( 'NONE', #60, #95 ) ;
#428 = VERTEX_POINT ( 'NONE', #465 ) ;
#429 = DIRECTION ( 'NONE',  ( -0.000000000000000000, -1.000000000000000000, -0.000000000000000000 ) ) ;
#430 = ORIENTED_EDGE ( 'NONE', *, *, #229, .T. ) ;
#431 = CARTESIAN_POINT ( 'NONE',  ( 0.000000000000000000, 13.00000000000000000, 0.000000000000000000 ) ) ;
#432 = ORIENTED_EDGE ( 'NONE', *, *, #349, .T. ) ;
#433 = EDGE_CURVE ( 'NONE', #452, #122, #458, .T. ) ;
#434 = VECTOR ( 'NONE', #192, 1000.000000000000000 ) ;
#435 = VECTOR ( 'NONE', #149, 1000.000000000000000 ) ;
#436 = VERTEX_POINT ( 'NONE', #135 ) ;
#437 = CARTESIAN_POINT ( 'NONE',  ( 34.99999999999999289, 13.00000000000000000, 12.50000000000000000 ) ) ;
#438 = EDGE_LOOP ( 'NONE', ( #70, #267, #106, #302 ) ) ;
#439 = DIRECTION ( 'NONE',  ( 0.000000000000000000, -0.000000000000000000, 1.000000000000000000 ) ) ;
#440 = DIRECTION ( 'NONE',  ( 2.775557561562891844E-16, 0.000000000000000000, 1.000000000000000000 ) ) ;
#441 = VERTEX_POINT ( 'NONE', #24 ) ;
#442 = CARTESIAN_POINT ( 'NONE',  ( 37.49999999999999289, 13.00000000000000000, 9.999999999999998224 ) ) ;
#443 = VERTEX_POINT ( 'NONE', #174 ) ;
#444 = CYLINDRICAL_SURFACE ( 'NONE', #46, 1.649999999999991696 ) ;
#445 = DIRECTION ( 'NONE',  ( 0.000000000000000000, 0.000000000000000000, -1.000000000000000000 ) ) ;
#446 = ADVANCED_FACE ( 'NONE', ( #169 ), #279, .F. ) ;
#447 = CARTESIAN_POINT ( 'NONE',  ( -18.00000000000000000, 13.00000000000000000, 0.000000000000000000 ) ) ;
#448 = ORIENTED_EDGE ( 'NONE', *, *, #22, .F. ) ;
#449 = EDGE_CURVE ( 'NONE', #290, #186, #427, .T. ) ;
#450 = LINE ( 'NONE', #385, #4 ) ;
#451 = VECTOR ( 'NONE', #255, 1000.000000000000000 ) ;
#452 = VERTEX_POINT ( 'NONE', #354 ) ;
#453 = DIRECTION ( 'NONE',  ( -0.000000000000000000, 1.000000000000000000, -0.000000000000000000 ) ) ;
#454 = CARTESIAN_POINT ( 'NONE',  ( 18.00000000000000000, 0.000000000000000000, -1.650000000000001465 ) ) ;
#455 = CARTESIAN_POINT ( 'NONE',  ( 18.00000000000000000, 13.00000000000000178, 1.649999999999981704 ) ) ;
#456 = ORIENTED_EDGE ( 'NONE', *, *, #180, .F. ) ;
#457 = DIRECTION ( 'NONE',  ( -0.000000000000000000, -1.000000000000000000, -0.000000000000000000 ) ) ;
#458 = LINE ( 'NONE', #359, #337 ) ;
#459 = EDGE_CURVE ( 'NONE', #15, #452, #236, .T. ) ;
#460 = ORIENTED_EDGE ( 'NONE', *, *, #58, .F. ) ;
#461 = PRESENTATION_LAYER_ASSIGNMENT (  '', '', ( #271 ) ) ;
#462 = ORIENTED_EDGE ( 'NONE', *, *, #308, .F. ) ;
#463 = DIRECTION ( 'NONE',  ( 0.000000000000000000, 0.000000000000000000, 1.000000000000000000 ) ) ;
#464 = ORIENTED_EDGE ( 'NONE', *, *, #426, .T. ) ;
#465 = CARTESIAN_POINT ( 'NONE',  ( -35.00000000000000711, 13.00000000000000000, 12.50000000000000000 ) ) ;
#466 = ORIENTED_EDGE ( 'NONE', *, *, #398, .F. ) ;
#467 =( LENGTH_UNIT ( ) NAMED_UNIT ( * ) SI_UNIT ( .MILLI., .METRE. ) );
#468 = ORIENTED_EDGE ( 'NONE', *, *, #414, .F. ) ;
#469 = AXIS2_PLACEMENT_3D ( 'NONE', #85, #154, #445 ) ;
#470 = LINE ( 'NONE', #258, #435 ) ;
#471 = ORIENTED_EDGE ( 'NONE', *, *, #25, .F. ) ;
#472 = DIRECTION ( 'NONE',  ( 0.000000000000000000, -1.000000000000000000, 0.000000000000000000 ) ) ;
#473 = ADVANCED_FACE ( 'NONE', ( #394, #63, #211 ), #283, .T. ) ;
#474 = ORIENTED_EDGE ( 'NONE', *, *, #196, .F. ) ;
#475 = CIRCLE ( 'NONE', #227, 1.649999999999995248 ) ;
ENDSEC;
END-ISO-10303-21;
