ISO-10303-21;
HEADER;
FILE_DESCRIPTION (( 'STEP AP214' ),
    '1' );
FILE_NAME ('PLATE-POSITION_v001.STEP',
    '2025-12-22T20:32:52',
    ( '' ),
    ( '' ),
    'SwSTEP 2.0',
    'SolidWorks 2023',
    '' );
FILE_SCHEMA (( 'AUTOMOTIVE_DESIGN' ));
ENDSEC;

DATA;
#1 = ORIENTED_EDGE ( 'NONE', *, *, #108, .F. ) ;
#2 = VECTOR ( 'NONE', #522, 1000.000000000000000 ) ;
#3 = CONICAL_SURFACE ( 'NONE', #490, 3.149999999999999911, 0.7853981633974477239 ) ;
#4 = CARTESIAN_POINT ( 'NONE',  ( 0.000000000000000000, 0.000000000000000000, 0.000000000000000000 ) ) ;
#5 = DIRECTION ( 'NONE',  ( 0.000000000000000000, 0.000000000000000000, 1.000000000000000000 ) ) ;
#6 = EDGE_CURVE ( 'NONE', #341, #529, #84, .T. ) ;
#7 = ORIENTED_EDGE ( 'NONE', *, *, #819, .F. ) ;
#8 = ORIENTED_EDGE ( 'NONE', *, *, #147, .F. ) ;
#9 = CIRCLE ( 'NONE', #161, 2.500000000000002220 ) ;
#10 = VECTOR ( 'NONE', #392, 1000.000000000000000 ) ;
#11 = ORIENTED_EDGE ( 'NONE', *, *, #309, .T. ) ;
#12 = ORIENTED_EDGE ( 'NONE', *, *, #186, .F. ) ;
#13 = EDGE_CURVE ( 'NONE', #62, #529, #220, .T. ) ;
#14 = CARTESIAN_POINT ( 'NONE',  ( 30.80000000000000071, 3.000000000000001776, -1.115187669281842951E-14 ) ) ;
#15 = CIRCLE ( 'NONE', #90, 1.699999999999996625 ) ;
#16 = DIRECTION ( 'NONE',  ( 0.000000000000000000, 0.000000000000000000, -1.000000000000000000 ) ) ;
#17 = DIRECTION ( 'NONE',  ( 0.000000000000000000, 0.000000000000000000, 1.000000000000000000 ) ) ;
#18 = ORIENTED_EDGE ( 'NONE', *, *, #22, .F. ) ;
#19 = FACE_BOUND ( 'NONE', #701, .T. ) ;
#20 = AXIS2_PLACEMENT_3D ( 'NONE', #503, #378, #615 ) ;
#21 = CARTESIAN_POINT ( 'NONE',  ( -66.50000000000000000, 0.000000000000000000, 45.49999999999999289 ) ) ;
#22 = EDGE_CURVE ( 'NONE', #727, #438, #175, .T. ) ;
#23 = ORIENTED_EDGE ( 'NONE', *, *, #413, .T. ) ;
#24 = PLANE ( 'NONE',  #278 ) ;
#25 = CARTESIAN_POINT ( 'NONE',  ( 30.80000000000000071, 1.549999999999996714, 1.699999999999989075 ) ) ;
#26 = ORIENTED_EDGE ( 'NONE', *, *, #275, .T. ) ;
#27 = ADVANCED_FACE ( 'NONE', ( #641, #677 ), #700, .T. ) ;
#28 = ORIENTED_EDGE ( 'NONE', *, *, #731, .F. ) ;
#29 = DIRECTION ( 'NONE',  ( 0.000000000000000000, 0.000000000000000000, -1.000000000000000000 ) ) ;
#30 = VERTEX_POINT ( 'NONE', #422 ) ;
#31 = DIRECTION ( 'NONE',  ( 0.000000000000000000, 1.000000000000000000, 0.000000000000000000 ) ) ;
#32 = ORIENTED_EDGE ( 'NONE', *, *, #807, .T. ) ;
#33 = ORIENTED_EDGE ( 'NONE', *, *, #672, .T. ) ;
#34 = DIRECTION ( 'NONE',  ( 0.000000000000000000, 0.000000000000000000, 1.000000000000000000 ) ) ;
#35 = DIRECTION ( 'NONE',  ( 0.000000000000000000, 1.000000000000000000, 0.000000000000000000 ) ) ;
#36 = ORIENTED_EDGE ( 'NONE', *, *, #13, .T. ) ;
#37 = VECTOR ( 'NONE', #456, 1000.000000000000000 ) ;
#38 = CARTESIAN_POINT ( 'NONE',  ( -63.49999999999998579, 6.000000000000000000, 42.49999999999998579 ) ) ;
#39 = ORIENTED_EDGE ( 'NONE', *, *, #452, .F. ) ;
#40 = COLOUR_RGB ( '',0.7921568627450980005, 0.8196078431372548767, 0.9333333333333333481 ) ;
#41 = FACE_OUTER_BOUND ( 'NONE', #610, .T. ) ;
#42 = DIRECTION ( 'NONE',  ( 0.000000000000000000, -0.000000000000000000, 1.000000000000000000 ) ) ;
#43 = EDGE_CURVE ( 'NONE', #243, #743, #71, .T. ) ;
#44 = LINE ( 'NONE', #739, #470 ) ;
#45 = ORIENTED_EDGE ( 'NONE', *, *, #787, .F. ) ;
#46 = CARTESIAN_POINT ( 'NONE',  ( 66.49999999999998579, 6.000000000000000000, -45.50000000000000711 ) ) ;
#47 = DIRECTION ( 'NONE',  ( 0.000000000000000000, 0.000000000000000000, 1.000000000000000000 ) ) ;
#48 = DIRECTION ( 'NONE',  ( 0.000000000000000000, 1.000000000000000000, 0.000000000000000000 ) ) ;
#49 = EDGE_CURVE ( 'NONE', #629, #812, #515, .T. ) ;
#50 = ORIENTED_EDGE ( 'NONE', *, *, #465, .T. ) ;
#51 = LINE ( 'NONE', #38, #412 ) ;
#52 = CARTESIAN_POINT ( 'NONE',  ( 61.00000000000000000, 3.000000000000000000, 42.49999999999998579 ) ) ;
#53 = CARTESIAN_POINT ( 'NONE',  ( -63.50000000000000000, 3.000000000000000000, -40.00000000000001421 ) ) ;
#54 = AXIS2_PLACEMENT_3D ( 'NONE', #729, #73, #604 ) ;
#55 = LINE ( 'NONE', #706, #311 ) ;
#56 = FACE_OUTER_BOUND ( 'NONE', #621, .T. ) ;
#57 = EDGE_CURVE ( 'NONE', #812, #647, #356, .T. ) ;
#58 = FACE_OUTER_BOUND ( 'NONE', #162, .T. ) ;
#59 =( LENGTH_UNIT ( ) NAMED_UNIT ( * ) SI_UNIT ( .MILLI., .METRE. ) );
#60 = CARTESIAN_POINT ( 'NONE',  ( 63.50000000000000000, 3.000000000000000000, -42.50000000000001421 ) ) ;
#61 = EDGE_CURVE ( 'NONE', #253, #537, #44, .T. ) ;
#62 = VERTEX_POINT ( 'NONE', #223 ) ;
#63 = PLANE ( 'NONE',  #393 ) ;
#64 = SHAPE_DEFINITION_REPRESENTATION ( #655, #418 ) ;
#65 = DIRECTION ( 'NONE',  ( 0.000000000000000000, 0.000000000000000000, -1.000000000000000000 ) ) ;
#66 = AXIS2_PLACEMENT_3D ( 'NONE', #442, #91, #373 ) ;
#67 = ORIENTED_EDGE ( 'NONE', *, *, #115, .F. ) ;
#68 = PRODUCT_CONTEXT ( 'NONE', #193, 'mechanical' ) ;
#69 = DIRECTION ( 'NONE',  ( 0.000000000000000000, 0.000000000000000000, 1.000000000000000000 ) ) ;
#70 = ORIENTED_EDGE ( 'NONE', *, *, #669, .T. ) ;
#71 = CIRCLE ( 'NONE', #404, 2.500000000000002220 ) ;
#72 = DIRECTION ( 'NONE',  ( 0.000000000000000000, 0.000000000000000000, 1.000000000000000000 ) ) ;
#73 = DIRECTION ( 'NONE',  ( -0.000000000000000000, 1.000000000000000000, -0.000000000000000000 ) ) ;
#74 = ORIENTED_EDGE ( 'NONE', *, *, #487, .F. ) ;
#75 = VECTOR ( 'NONE', #777, 999.9999999999998863 ) ;
#76 = ORIENTED_EDGE ( 'NONE', *, *, #49, .T. ) ;
#77 = AXIS2_PLACEMENT_3D ( 'NONE', #528, #134, #204 ) ;
#78 = ORIENTED_EDGE ( 'NONE', *, *, #853, .T. ) ;
#79 = ORIENTED_EDGE ( 'NONE', *, *, #586, .T. ) ;
#80 = FACE_OUTER_BOUND ( 'NONE', #827, .T. ) ;
#81 = CIRCLE ( 'NONE', #54, 1.699999999999996625 ) ;
#82 = ADVANCED_FACE ( 'NONE', ( #80 ), #353, .T. ) ;
#83 = VECTOR ( 'NONE', #188, 1000.000000000000000 ) ;
#84 = LINE ( 'NONE', #801, #548 ) ;
#85 = EDGE_CURVE ( 'NONE', #30, #307, #400, .T. ) ;
#86 = DIRECTION ( 'NONE',  ( 0.000000000000000000, 1.000000000000000000, 0.000000000000000000 ) ) ;
#87 = CARTESIAN_POINT ( 'NONE',  ( -60.99999999999998579, 6.000000000000000000, 42.49999999999998579 ) ) ;
#88 = VECTOR ( 'NONE', #322, 1000.000000000000000 ) ;
#89 = LINE ( 'NONE', #498, #508 ) ;
#90 = AXIS2_PLACEMENT_3D ( 'NONE', #289, #35, #803 ) ;
#91 = DIRECTION ( 'NONE',  ( 0.000000000000000000, 1.000000000000000000, 0.000000000000000000 ) ) ;
#92 = DIRECTION ( 'NONE',  ( 0.000000000000000000, 0.000000000000000000, 1.000000000000000000 ) ) ;
#93 = ORIENTED_EDGE ( 'NONE', *, *, #487, .T. ) ;
#94 = CARTESIAN_POINT ( 'NONE',  ( 63.99999999999998579, 6.000000000000000000, -43.00000000000000000 ) ) ;
#95 = EDGE_CURVE ( 'NONE', #167, #504, #176, .T. ) ;
#96 = LINE ( 'NONE', #364, #566 ) ;
#97 = ORIENTED_EDGE ( 'NONE', *, *, #61, .F. ) ;
#98 = ORIENTED_EDGE ( 'NONE', *, *, #741, .F. ) ;
#99 = FACE_OUTER_BOUND ( 'NONE', #279, .T. ) ;
#100 = ORIENTED_EDGE ( 'NONE', *, *, #406, .F. ) ;
#101 = CARTESIAN_POINT ( 'NONE',  ( -66.50000000000000000, 6.000000000000000000, 45.49999999999999289 ) ) ;
#102 = EDGE_LOOP ( 'NONE', ( #104, #735, #172, #97 ) ) ;
#103 = DIRECTION ( 'NONE',  ( 0.000000000000000000, 0.000000000000000000, 1.000000000000000000 ) ) ;
#104 = ORIENTED_EDGE ( 'NONE', *, *, #734, .F. ) ;
#105 = FILL_AREA_STYLE ('',( #433 ) ) ;
#106 = VERTEX_POINT ( 'NONE', #632 ) ;
#107 = PLANE ( 'NONE',  #746 ) ;
#108 = EDGE_CURVE ( 'NONE', #295, #177, #15, .T. ) ;
#109 = CARTESIAN_POINT ( 'NONE',  ( 64.00000000000000000, 6.000000000000000000, 45.49999999999999289 ) ) ;
#110 = DIRECTION ( 'NONE',  ( -0.000000000000000000, 1.000000000000000000, -0.000000000000000000 ) ) ;
#111 = ORIENTED_EDGE ( 'NONE', *, *, #848, .F. ) ;
#112 = VECTOR ( 'NONE', #717, 1000.000000000000000 ) ;
#113 = LINE ( 'NONE', #330, #463 ) ;
#114 = CYLINDRICAL_SURFACE ( 'NONE', #208, 2.500000000000002220 ) ;
#115 = EDGE_CURVE ( 'NONE', #800, #341, #312, .T. ) ;
#116 = DIRECTION ( 'NONE',  ( 1.525031627232357891E-16, 0.000000000000000000, 1.000000000000000000 ) ) ;
#117 = ORIENTED_EDGE ( 'NONE', *, *, #85, .F. ) ;
#118 = CARTESIAN_POINT ( 'NONE',  ( -60.99999999999998579, 3.000000000000000000, 39.99999999999998579 ) ) ;
#119 = CARTESIAN_POINT ( 'NONE',  ( -61.00000000000000000, 3.000000000000000000, -42.50000000000001421 ) ) ;
#120 = VECTOR ( 'NONE', #305, 1000.000000000000000 ) ;
#121 = VECTOR ( 'NONE', #574, 1000.000000000000000 ) ;
#122 = CARTESIAN_POINT ( 'NONE',  ( -30.80000000000000071, 0.000000000000000000, 7.707684014050808551E-15 ) ) ;
#123 = ADVANCED_FACE ( 'NONE', ( #411 ), #252, .F. ) ;
#124 = CARTESIAN_POINT ( 'NONE',  ( -61.00000000000000000, 3.000000000000000000, -40.00000000000001421 ) ) ;
#125 = CARTESIAN_POINT ( 'NONE',  ( -66.50000000000001421, 0.000000000000000000, -43.00000000000000000 ) ) ;
#126 = DIRECTION ( 'NONE',  ( -0.000000000000000000, -1.000000000000000000, -0.000000000000000000 ) ) ;
#127 = AXIS2_PLACEMENT_3D ( 'NONE', #209, #472, #534 ) ;
#128 = EDGE_CURVE ( 'NONE', #795, #559, #728, .T. ) ;
#129 = APPLICATION_PROTOCOL_DEFINITION ( 'draft international standard', 'automotive_design', 1998, #193 ) ;
#130 = LINE ( 'NONE', #390, #121 ) ;
#131 = VECTOR ( 'NONE', #496, 1000.000000000000000 ) ;
#132 = CARTESIAN_POINT ( 'NONE',  ( -61.00000000000000000, 3.000000000000000000, -42.50000000000001421 ) ) ;
#133 = DIRECTION ( 'NONE',  ( 1.000000000000000000, 0.000000000000000000, 0.000000000000000000 ) ) ;
#134 = DIRECTION ( 'NONE',  ( -0.000000000000000000, 1.000000000000000000, -0.000000000000000000 ) ) ;
#135 = ORIENTED_EDGE ( 'NONE', *, *, #327, .T. ) ;
#136 = CARTESIAN_POINT ( 'NONE',  ( -60.99999999999998579, 3.000000000000000000, 39.99999999999998579 ) ) ;
#137 = AXIS2_PLACEMENT_3D ( 'NONE', #94, #435, #103 ) ;
#138 = VERTEX_POINT ( 'NONE', #359 ) ;
#139 = CARTESIAN_POINT ( 'NONE',  ( 66.49999999999998579, 6.000000000000000000, 42.99999999999999289 ) ) ;
#140 = ORIENTED_EDGE ( 'NONE', *, *, #61, .T. ) ;
#141 = VECTOR ( 'NONE', #737, 1000.000000000000000 ) ;
#142 = ORIENTED_EDGE ( 'NONE', *, *, #6, .F. ) ;
#143 = ORIENTED_EDGE ( 'NONE', *, *, #664, .F. ) ;
#144 = EDGE_CURVE ( 'NONE', #138, #336, #89, .T. ) ;
#145 = ORIENTED_EDGE ( 'NONE', *, *, #853, .F. ) ;
#146 = DIRECTION ( 'NONE',  ( 0.000000000000000000, -1.000000000000000000, -0.000000000000000000 ) ) ;
#147 = EDGE_CURVE ( 'NONE', #438, #594, #338, .T. ) ;
#148 = VECTOR ( 'NONE', #328, 1000.000000000000000 ) ;
#149 = CIRCLE ( 'NONE', #638, 2.500000000000002220 ) ;
#150 = ORIENTED_EDGE ( 'NONE', *, *, #741, .T. ) ;
#151 = LINE ( 'NONE', #689, #131 ) ;
#152 = APPLICATION_CONTEXT ( 'automotive_design' ) ;
#153 = DIRECTION ( 'NONE',  ( -0.000000000000000000, 1.000000000000000000, -0.000000000000000000 ) ) ;
#154 = AXIS2_PLACEMENT_3D ( 'NONE', #265, #518, #458 ) ;
#155 = DIRECTION ( 'NONE',  ( 0.000000000000000000, -0.000000000000000000, 1.000000000000000000 ) ) ;
#156 = CIRCLE ( 'NONE', #387, 3.149999999999999911 ) ;
#157 = ORIENTED_EDGE ( 'NONE', *, *, #802, .T. ) ;
#158 = CARTESIAN_POINT ( 'NONE',  ( 63.99999999999998579, 6.000000000000000000, 42.99999999999999289 ) ) ;
#159 = DIRECTION ( 'NONE',  ( 0.000000000000000000, 1.000000000000000000, 0.000000000000000000 ) ) ;
#160 = ORIENTED_EDGE ( 'NONE', *, *, #819, .T. ) ;
#161 = AXIS2_PLACEMENT_3D ( 'NONE', #403, #601, #5 ) ;
#162 = EDGE_LOOP ( 'NONE', ( #79, #300, #478, #375 ) ) ;
#163 = DIRECTION ( 'NONE',  ( -0.000000000000000000, 1.000000000000000000, -0.000000000000000000 ) ) ;
#164 = VERTEX_POINT ( 'NONE', #299 ) ;
#165 = DIRECTION ( 'NONE',  ( 0.000000000000000000, 1.000000000000000000, 0.000000000000000000 ) ) ;
#166 = ORIENTED_EDGE ( 'NONE', *, *, #303, .F. ) ;
#167 = VERTEX_POINT ( 'NONE', #834 ) ;
#168 = DIRECTION ( 'NONE',  ( -0.000000000000000000, 1.000000000000000000, 0.000000000000000000 ) ) ;
#169 = VERTEX_POINT ( 'NONE', #231 ) ;
#170 = DIRECTION ( 'NONE',  ( -0.000000000000000000, 1.000000000000000000, -0.000000000000000000 ) ) ;
#171 = EDGE_CURVE ( 'NONE', #177, #295, #698, .T. ) ;
#172 = ORIENTED_EDGE ( 'NONE', *, *, #802, .F. ) ;
#173 = CARTESIAN_POINT ( 'NONE',  ( -66.50000000000001421, 6.000000000000000000, -45.50000000000000711 ) ) ;
#174 = LINE ( 'NONE', #618, #744 ) ;
#175 = LINE ( 'NONE', #246, #184 ) ;
#176 = CIRCLE ( 'NONE', #66, 2.500000000000002220 ) ;
#177 = VERTEX_POINT ( 'NONE', #623 ) ;
#178 = CYLINDRICAL_SURFACE ( 'NONE', #199, 2.500000000000002220 ) ;
#179 = ADVANCED_FACE ( 'NONE', ( #692 ), #828, .F. ) ;
#180 = DIRECTION ( 'NONE',  ( 0.000000000000000000, 0.000000000000000000, 1.000000000000000000 ) ) ;
#181 = CARTESIAN_POINT ( 'NONE',  ( -63.49999999999998579, 3.000000000000000000, 42.49999999999998579 ) ) ;
#182 = ORIENTED_EDGE ( 'NONE', *, *, #43, .F. ) ;
#183 = FACE_OUTER_BOUND ( 'NONE', #556, .T. ) ;
#184 = VECTOR ( 'NONE', #110, 1000.000000000000000 ) ;
#185 = FACE_OUTER_BOUND ( 'NONE', #469, .T. ) ;
#186 = EDGE_CURVE ( 'NONE', #138, #341, #440, .T. ) ;
#187 = CARTESIAN_POINT ( 'NONE',  ( 30.80000000000000071, 3.000000000000001776, 3.149999999999988809 ) ) ;
#188 = DIRECTION ( 'NONE',  ( 0.000000000000000000, -1.000000000000000000, 0.000000000000000000 ) ) ;
#189 = DIRECTION ( 'NONE',  ( 1.000000000000000000, 0.000000000000000000, 0.000000000000000000 ) ) ;
#190 = AXIS2_PLACEMENT_3D ( 'NONE', #388, #126, #650 ) ;
#191 = DIRECTION ( 'NONE',  ( -0.000000000000000000, 1.000000000000000000, -0.000000000000000000 ) ) ;
#192 = EDGE_CURVE ( 'NONE', #319, #138, #310, .T. ) ;
#193 = APPLICATION_CONTEXT ( 'automotive_design' ) ;
#194 = FACE_OUTER_BOUND ( 'NONE', #486, .T. ) ;
#195 = CARTESIAN_POINT ( 'NONE',  ( -30.80000000000000071, 1.549999999999996714, -1.699999999999988853 ) ) ;
#196 = CARTESIAN_POINT ( 'NONE',  ( -30.80000000000000071, 3.000000000000001776, 3.150000000000007905 ) ) ;
#197 = AXIS2_PLACEMENT_3D ( 'NONE', #276, #788, #333 ) ;
#198 = DIRECTION ( 'NONE',  ( -0.000000000000000000, 1.000000000000000000, -0.000000000000000000 ) ) ;
#199 = AXIS2_PLACEMENT_3D ( 'NONE', #712, #450, #648 ) ;
#200 = DIRECTION ( 'NONE',  ( 0.000000000000000000, 0.000000000000000000, 1.000000000000000000 ) ) ;
#201 = CIRCLE ( 'NONE', #786, 2.500000000000002220 ) ;
#202 = ORIENTED_EDGE ( 'NONE', *, *, #473, .F. ) ;
#203 = CARTESIAN_POINT ( 'NONE',  ( -30.80000000000000071, 3.000000000000000000, 1.700000000000004396 ) ) ;
#204 = DIRECTION ( 'NONE',  ( 0.000000000000000000, 0.000000000000000000, 1.000000000000000000 ) ) ;
#205 = ADVANCED_FACE ( 'NONE', ( #626 ), #24, .F. ) ;
#206 = AXIS2_PLACEMENT_3D ( 'NONE', #587, #191, #780 ) ;
#207 = ORIENTED_EDGE ( 'NONE', *, *, #603, .F. ) ;
#208 = AXIS2_PLACEMENT_3D ( 'NONE', #451, #656, #445 ) ;
#209 = CARTESIAN_POINT ( 'NONE',  ( -61.00000000000000000, 6.000000000000000000, -40.00000000000001421 ) ) ;
#210 = ADVANCED_FACE ( 'NONE', ( #762 ), #646, .F. ) ;
#211 = ORIENTED_EDGE ( 'NONE', *, *, #512, .F. ) ;
#212 = LINE ( 'NONE', #666, #494 ) ;
#213 = ORIENTED_EDGE ( 'NONE', *, *, #726, .F. ) ;
#214 = EDGE_CURVE ( 'NONE', #562, #495, #174, .T. ) ;
#215 = ORIENTED_EDGE ( 'NONE', *, *, #214, .F. ) ;
#216 = ADVANCED_FACE ( 'NONE', ( #19, #430, #296 ), #687, .F. ) ;
#217 = ORIENTED_EDGE ( 'NONE', *, *, #459, .F. ) ;
#218 = ORIENTED_EDGE ( 'NONE', *, *, #569, .F. ) ;
#219 = VECTOR ( 'NONE', #540, 1000.000000000000000 ) ;
#220 = LINE ( 'NONE', #481, #448 ) ;
#221 = DIRECTION ( 'NONE',  ( -0.000000000000000000, -1.000000000000000000, -0.000000000000000000 ) ) ;
#222 = AXIS2_PLACEMENT_3D ( 'NONE', #380, #320, #584 ) ;
#223 = CARTESIAN_POINT ( 'NONE',  ( 63.50000000000000000, 3.000000000000000000, 39.99999999999998579 ) ) ;
#224 = ORIENTED_EDGE ( 'NONE', *, *, #108, .T. ) ;
#225 = ADVANCED_FACE ( 'NONE', ( #99 ), #502, .T. ) ;
#226 = DIRECTION ( 'NONE',  ( 0.000000000000000000, 1.000000000000000000, 0.000000000000000000 ) ) ;
#227 = AXIS2_PLACEMENT_3D ( 'NONE', #158, #367, #29 ) ;
#228 = PRESENTATION_STYLE_ASSIGNMENT (( #291 ) ) ;
#229 = VECTOR ( 'NONE', #721, 1000.000000000000000 ) ;
#230 = EDGE_LOOP ( 'NONE', ( #667, #500, #241, #564 ) ) ;
#231 = CARTESIAN_POINT ( 'NONE',  ( -66.50000000000001421, 6.000000000000000000, -43.00000000000000000 ) ) ;
#232 = ORIENTED_EDGE ( 'NONE', *, *, #848, .T. ) ;
#233 = CARTESIAN_POINT ( 'NONE',  ( -30.80000000000000071, 3.000000000000001776, 7.707684014050808551E-15 ) ) ;
#234 = ORIENTED_EDGE ( 'NONE', *, *, #239, .T. ) ;
#235 = PRODUCT_DEFINITION_FORMATION_WITH_SPECIFIED_SOURCE ( 'ANY', '', #339, .NOT_KNOWN. ) ;
#236 = ORIENTED_EDGE ( 'NONE', *, *, #128, .F. ) ;
#237 = CARTESIAN_POINT ( 'NONE',  ( 61.00000000000000000, 6.000000000000000000, -42.50000000000001421 ) ) ;
#238 = AXIS2_PLACEMENT_3D ( 'NONE', #118, #258, #460 ) ;
#239 = EDGE_CURVE ( 'NONE', #594, #663, #425, .T. ) ;
#240 = CIRCLE ( 'NONE', #567, 2.500000000000002220 ) ;
#241 = ORIENTED_EDGE ( 'NONE', *, *, #85, .T. ) ;
#242 = LINE ( 'NONE', #428, #273 ) ;
#243 = VERTEX_POINT ( 'NONE', #109 ) ;
#244 = DIRECTION ( 'NONE',  ( 0.000000000000000000, -1.000000000000000000, 0.000000000000000000 ) ) ;
#245 = DIRECTION ( 'NONE',  ( 0.000000000000000000, 0.000000000000000000, 1.000000000000000000 ) ) ;
#246 = CARTESIAN_POINT ( 'NONE',  ( 66.49999999999998579, 6.000000000000000000, -43.00000000000000000 ) ) ;
#247 = ADVANCED_FACE ( 'NONE', ( #640 ), #575, .F. ) ;
#248 = ORIENTED_EDGE ( 'NONE', *, *, #360, .T. ) ;
#249 = DIRECTION ( 'NONE',  ( 1.525031627232357891E-16, 0.000000000000000000, 1.000000000000000000 ) ) ;
#250 = CARTESIAN_POINT ( 'NONE',  ( -30.80000000000000071, 0.000000000000000000, 1.700000000000004396 ) ) ;
#251 = CARTESIAN_POINT ( 'NONE',  ( 66.49999999999998579, 6.000000000000000000, -45.50000000000000711 ) ) ;
#252 = CONICAL_SURFACE ( 'NONE', #292, 3.149999999999999911, 0.7853981633974465026 ) ;
#253 = VERTEX_POINT ( 'NONE', #53 ) ;
#254 = CYLINDRICAL_SURFACE ( 'NONE', #738, 1.699999999999996625 ) ;
#255 = LINE ( 'NONE', #779, #555 ) ;
#256 = CARTESIAN_POINT ( 'NONE',  ( 30.80000000000000071, 3.000000000000001776, 3.149999999999988809 ) ) ;
#257 = ORIENTED_EDGE ( 'NONE', *, *, #797, .T. ) ;
#258 = DIRECTION ( 'NONE',  ( 0.000000000000000000, -1.000000000000000000, 0.000000000000000000 ) ) ;
#259 = LINE ( 'NONE', #517, #112 ) ;
#260 = EDGE_CURVE ( 'NONE', #319, #325, #719, .T. ) ;
#261 = PLANE ( 'NONE',  #154 ) ;
#262 = CARTESIAN_POINT ( 'NONE',  ( -66.50000000000000000, 0.000000000000000000, 42.99999999999999289 ) ) ;
#263 = DIRECTION ( 'NONE',  ( 0.000000000000000000, 0.000000000000000000, 1.000000000000000000 ) ) ;
#264 = CARTESIAN_POINT ( 'NONE',  ( 66.49999999999998579, 6.000000000000000000, 42.99999999999999289 ) ) ;
#265 = CARTESIAN_POINT ( 'NONE',  ( -63.50000000000000000, 3.000000000000000000, -42.50000000000001421 ) ) ;
#266 = CARTESIAN_POINT ( 'NONE',  ( 63.99999999999998579, 6.000000000000000000, -43.00000000000000000 ) ) ;
#267 = CARTESIAN_POINT ( 'NONE',  ( 66.49999999999998579, 0.000000000000000000, -43.00000000000000000 ) ) ;
#268 = ORIENTED_EDGE ( 'NONE', *, *, #731, .T. ) ;
#269 = EDGE_CURVE ( 'NONE', #812, #629, #710, .T. ) ;
#270 = DIRECTION ( 'NONE',  ( 0.000000000000000000, -1.000000000000000000, 0.000000000000000000 ) ) ;
#271 = VECTOR ( 'NONE', #685, 1000.000000000000000 ) ;
#272 = CARTESIAN_POINT ( 'NONE',  ( 61.00000000000000000, 6.000000000000000000, 39.99999999999998579 ) ) ;
#273 = VECTOR ( 'NONE', #804, 1000.000000000000000 ) ;
#274 = ORIENTED_EDGE ( 'NONE', *, *, #269, .T. ) ;
#275 = EDGE_CURVE ( 'NONE', #484, #536, #347, .T. ) ;
#276 = CARTESIAN_POINT ( 'NONE',  ( 61.00000000000000000, 3.000000000000000000, 39.99999999999998579 ) ) ;
#277 = DIRECTION ( 'NONE',  ( 0.000000000000000000, 1.000000000000000000, 0.000000000000000000 ) ) ;
#278 = AXIS2_PLACEMENT_3D ( 'NONE', #251, #372, #699 ) ;
#279 = EDGE_LOOP ( 'NONE', ( #182, #573, #351, #830 ) ) ;
#280 = VECTOR ( 'NONE', #189, 1000.000000000000000 ) ;
#281 = DIRECTION ( 'NONE',  ( 0.000000000000000000, 0.000000000000000000, 1.000000000000000000 ) ) ;
#282 = EDGE_CURVE ( 'NONE', #169, #167, #382, .T. ) ;
#283 = ORIENTED_EDGE ( 'NONE', *, *, #523, .F. ) ;
#284 =( GEOMETRIC_REPRESENTATION_CONTEXT ( 3 ) GLOBAL_UNCERTAINTY_ASSIGNED_CONTEXT ( ( #776 ) ) GLOBAL_UNIT_ASSIGNED_CONTEXT ( ( #59, #720, #850 ) ) REPRESENTATION_CONTEXT ( 'NONE', 'WORKASPACE' ) );
#285 = ORIENTED_EDGE ( 'NONE', *, *, #13, .F. ) ;
#286 = CIRCLE ( 'NONE', #755, 1.700000000000000178 ) ;
#287 = EDGE_CURVE ( 'NONE', #609, #405, #582, .T. ) ;
#288 = ORIENTED_EDGE ( 'NONE', *, *, #397, .F. ) ;
#289 = CARTESIAN_POINT ( 'NONE',  ( 30.80000000000000071, 0.000000000000000000, -1.115187669281842951E-14 ) ) ;
#290 = DIRECTION ( 'NONE',  ( 0.000000000000000000, 0.000000000000000000, 1.000000000000000000 ) ) ;
#291 = SURFACE_STYLE_USAGE ( .BOTH. , #369 ) ;
#292 = AXIS2_PLACEMENT_3D ( 'NONE', #554, #560, #245 ) ;
#293 = DIRECTION ( 'NONE',  ( -0.000000000000000000, 1.000000000000000000, -0.000000000000000000 ) ) ;
#294 = CARTESIAN_POINT ( 'NONE',  ( 30.80000000000000071, 1.549999999999996714, -1.115187669281842951E-14 ) ) ;
#295 = VERTEX_POINT ( 'NONE', #773 ) ;
#296 = FACE_OUTER_BOUND ( 'NONE', #760, .T. ) ;
#297 = CARTESIAN_POINT ( 'NONE',  ( -30.80000000000000071, 3.000000000000001776, 3.150000000000007905 ) ) ;
#298 = VERTEX_POINT ( 'NONE', #704 ) ;
#299 = CARTESIAN_POINT ( 'NONE',  ( 61.00000000000000000, 6.000000000000000000, 42.49999999999998579 ) ) ;
#300 = ORIENTED_EDGE ( 'NONE', *, *, #603, .T. ) ;
#301 = CARTESIAN_POINT ( 'NONE',  ( -30.80000000000000071, 3.000000000000001776, -3.149999999999992362 ) ) ;
#302 = EDGE_LOOP ( 'NONE', ( #213, #598 ) ) ;
#303 = EDGE_CURVE ( 'NONE', #663, #723, #840, .T. ) ;
#304 = ORIENTED_EDGE ( 'NONE', *, *, #538, .T. ) ;
#305 = DIRECTION ( 'NONE',  ( 0.000000000000000000, -1.000000000000000000, 0.000000000000000000 ) ) ;
#306 = ORIENTED_EDGE ( 'NONE', *, *, #586, .F. ) ;
#307 = VERTEX_POINT ( 'NONE', #256 ) ;
#308 = CARTESIAN_POINT ( 'NONE',  ( -64.00000000000000000, 6.000000000000000000, 45.49999999999999289 ) ) ;
#309 = EDGE_CURVE ( 'NONE', #484, #307, #453, .T. ) ;
#310 = LINE ( 'NONE', #237, #767 ) ;
#311 = VECTOR ( 'NONE', #444, 1000.000000000000000 ) ;
#312 = LINE ( 'NONE', #570, #219 ) ;
#313 = STYLED_ITEM ( 'NONE', ( #228 ), #399 ) ;
#314 = ORIENTED_EDGE ( 'NONE', *, *, #239, .F. ) ;
#315 = DIRECTION ( 'NONE',  ( 1.000000000000000000, 0.000000000000000000, 0.000000000000000000 ) ) ;
#316 = EDGE_LOOP ( 'NONE', ( #28, #117 ) ) ;
#317 = CARTESIAN_POINT ( 'NONE',  ( -66.50000000000001421, 6.000000000000000000, -45.50000000000000711 ) ) ;
#318 = CARTESIAN_POINT ( 'NONE',  ( 63.99999999999998579, 6.000000000000000000, -45.50000000000000711 ) ) ;
#319 = VERTEX_POINT ( 'NONE', #768 ) ;
#320 = DIRECTION ( 'NONE',  ( -0.000000000000000000, -1.000000000000000000, -0.000000000000000000 ) ) ;
#321 = AXIS2_PLACEMENT_3D ( 'NONE', #631, #751, #489 ) ;
#322 = DIRECTION ( 'NONE',  ( -0.000000000000000000, 1.000000000000000000, -0.000000000000000000 ) ) ;
#323 = CIRCLE ( 'NONE', #792, 2.500000000000002220 ) ;
#324 = DIRECTION ( 'NONE',  ( -0.000000000000000000, 1.000000000000000000, -0.000000000000000000 ) ) ;
#325 = VERTEX_POINT ( 'NONE', #132 ) ;
#326 = CARTESIAN_POINT ( 'NONE',  ( -30.80000000000000071, 3.000000000000000000, 7.707684014050808551E-15 ) ) ;
#327 = EDGE_CURVE ( 'NONE', #449, #298, #553, .T. ) ;
#328 = DIRECTION ( 'NONE',  ( -0.000000000000000000, -1.000000000000000000, 0.000000000000000000 ) ) ;
#329 = CYLINDRICAL_SURFACE ( 'NONE', #206, 1.699999999999996625 ) ;
#330 = CARTESIAN_POINT ( 'NONE',  ( -66.50000000000001421, 0.000000000000000000, -45.50000000000000711 ) ) ;
#331 = CARTESIAN_POINT ( 'NONE',  ( -66.50000000000000000, 6.000000000000000000, 45.49999999999999289 ) ) ;
#332 = CARTESIAN_POINT ( 'NONE',  ( -61.00000000000000000, 6.000000000000000000, -42.50000000000001421 ) ) ;
#333 = DIRECTION ( 'NONE',  ( 0.000000000000000000, 0.000000000000000000, 1.000000000000000000 ) ) ;
#334 = FACE_OUTER_BOUND ( 'NONE', #539, .T. ) ;
#335 = ADVANCED_FACE ( 'NONE', ( #654 ), #329, .F. ) ;
#336 = VERTEX_POINT ( 'NONE', #332 ) ;
#337 = DIRECTION ( 'NONE',  ( -1.000000000000000000, -0.000000000000000000, -0.000000000000000000 ) ) ;
#338 = CIRCLE ( 'NONE', #137, 2.500000000000002220 ) ;
#339 = PRODUCT ( 'PLATE-POSITION_v001', 'PLATE-POSITION_v001', '', ( #68 ) ) ;
#340 = CARTESIAN_POINT ( 'NONE',  ( -61.00000000000000000, 3.000000000000000000, -40.00000000000001421 ) ) ;
#341 = VERTEX_POINT ( 'NONE', #844 ) ;
#342 = PRODUCT_RELATED_PRODUCT_CATEGORY ( 'part', '', ( #339 ) ) ;
#343 = CARTESIAN_POINT ( 'NONE',  ( -64.00000000000000000, 0.000000000000000000, 45.49999999999999289 ) ) ;
#344 = ORIENTED_EDGE ( 'NONE', *, *, #57, .T. ) ;
#345 = ADVANCED_FACE ( 'NONE', ( #592 ), #261, .F. ) ;
#346 = DIRECTION ( 'NONE',  ( -0.000000000000000000, 1.000000000000000000, -0.000000000000000000 ) ) ;
#347 = CIRCLE ( 'NONE', #791, 1.700000000000000178 ) ;
#348 = ORIENTED_EDGE ( 'NONE', *, *, #722, .T. ) ;
#349 = AXIS2_PLACEMENT_3D ( 'NONE', #272, #789, #597 ) ;
#350 = EDGE_LOOP ( 'NONE', ( #625, #657, #11, #268 ) ) ;
#351 = ORIENTED_EDGE ( 'NONE', *, *, #327, .F. ) ;
#352 = ORIENTED_EDGE ( 'NONE', *, *, #144, .F. ) ;
#353 = CYLINDRICAL_SURFACE ( 'NONE', #358, 2.500000000000002220 ) ;
#354 = CIRCLE ( 'NONE', #222, 2.500000000000002220 ) ;
#355 = AXIS2_PLACEMENT_3D ( 'NONE', #491, #159, #759 ) ;
#356 = LINE ( 'NONE', #676, #141 ) ;
#357 = DIRECTION ( 'NONE',  ( 0.000000000000000000, 0.000000000000000000, 1.000000000000000000 ) ) ;
#358 = AXIS2_PLACEMENT_3D ( 'NONE', #612, #614, #16 ) ;
#359 = CARTESIAN_POINT ( 'NONE',  ( 61.00000000000000000, 6.000000000000000000, -42.50000000000001421 ) ) ;
#360 = EDGE_CURVE ( 'NONE', #647, #429, #595, .T. ) ;
#361 = FACE_OUTER_BOUND ( 'NONE', #769, .T. ) ;
#362 = EDGE_LOOP ( 'NONE', ( #829, #224 ) ) ;
#363 = CARTESIAN_POINT ( 'NONE',  ( 61.00000000000000000, 6.000000000000000000, -40.00000000000001421 ) ) ;
#364 = CARTESIAN_POINT ( 'NONE',  ( 64.00000000000000000, 6.000000000000000000, 45.49999999999999289 ) ) ;
#365 = ORIENTED_EDGE ( 'NONE', *, *, #506, .F. ) ;
#366 = ORIENTED_EDGE ( 'NONE', *, *, #787, .T. ) ;
#367 = DIRECTION ( 'NONE',  ( 0.000000000000000000, -1.000000000000000000, 0.000000000000000000 ) ) ;
#368 = ORIENTED_EDGE ( 'NONE', *, *, #709, .T. ) ;
#369 = SURFACE_SIDE_STYLE ('',( #437 ) ) ;
#370 = ORIENTED_EDGE ( 'NONE', *, *, #630, .F. ) ;
#371 = ADVANCED_FACE ( 'NONE', ( #58 ), #63, .F. ) ;
#372 = DIRECTION ( 'NONE',  ( -1.000000000000000000, 0.000000000000000000, 0.000000000000000000 ) ) ;
#373 = DIRECTION ( 'NONE',  ( 0.000000000000000000, 0.000000000000000000, 1.000000000000000000 ) ) ;
#374 = ORIENTED_EDGE ( 'NONE', *, *, #147, .T. ) ;
#375 = ORIENTED_EDGE ( 'NONE', *, *, #664, .T. ) ;
#376 = FACE_OUTER_BOUND ( 'NONE', #547, .T. ) ;
#377 = CARTESIAN_POINT ( 'NONE',  ( 0.000000000000000000, 0.000000000000000000, 0.000000000000000000 ) ) ;
#378 = DIRECTION ( 'NONE',  ( 0.000000000000000000, 1.000000000000000000, 0.000000000000000000 ) ) ;
#379 = ORIENTED_EDGE ( 'NONE', *, *, #192, .T. ) ;
#380 = CARTESIAN_POINT ( 'NONE',  ( -60.99999999999998579, 6.000000000000000000, 39.99999999999998579 ) ) ;
#381 = CARTESIAN_POINT ( 'NONE',  ( -30.80000000000000071, 1.549999999999996714, 1.700000000000004396 ) ) ;
#382 = LINE ( 'NONE', #658, #813 ) ;
#383 = EDGE_CURVE ( 'NONE', #559, #167, #151, .T. ) ;
#384 = ORIENTED_EDGE ( 'NONE', *, *, #726, .T. ) ;
#385 = LINE ( 'NONE', #46, #637 ) ;
#386 = CARTESIAN_POINT ( 'NONE',  ( 63.99999999999998579, 6.000000000000000000, -45.50000000000000711 ) ) ;
#387 = AXIS2_PLACEMENT_3D ( 'NONE', #794, #346, #466 ) ;
#388 = CARTESIAN_POINT ( 'NONE',  ( 63.99999999999998579, 0.000000000000000000, 42.99999999999999289 ) ) ;
#389 = LINE ( 'NONE', #770, #83 ) ;
#390 = CARTESIAN_POINT ( 'NONE',  ( -60.99999999999998579, 6.000000000000000000, 42.49999999999998579 ) ) ;
#391 = CIRCLE ( 'NONE', #427, 2.500000000000002220 ) ;
#392 = DIRECTION ( 'NONE',  ( 8.659560562354927928E-17, 0.7071067811865479058, -0.7071067811865471286 ) ) ;
#393 = AXIS2_PLACEMENT_3D ( 'NONE', #181, #447, #806 ) ;
#394 = LINE ( 'NONE', #652, #280 ) ;
#395 = CARTESIAN_POINT ( 'NONE',  ( -63.50000000000000000, 3.000000000000000000, -42.50000000000001421 ) ) ;
#396 = CARTESIAN_POINT ( 'NONE',  ( -64.00000000000001421, 6.000000000000000000, -45.50000000000000711 ) ) ;
#397 = EDGE_CURVE ( 'NONE', #594, #736, #808, .T. ) ;
#398 = ORIENTED_EDGE ( 'NONE', *, *, #413, .F. ) ;
#399 = MANIFOLD_SOLID_BREP ( 'CSK for M3 Flat Head Machine Screw1', #622 ) ;
#400 = CIRCLE ( 'NONE', #839, 3.149999999999999911 ) ;
#401 = DIRECTION ( 'NONE',  ( 0.000000000000000000, 1.000000000000000000, 0.000000000000000000 ) ) ;
#402 = ORIENTED_EDGE ( 'NONE', *, *, #287, .T. ) ;
#403 = CARTESIAN_POINT ( 'NONE',  ( 63.99999999999998579, 0.000000000000000000, -43.00000000000000000 ) ) ;
#404 = AXIS2_PLACEMENT_3D ( 'NONE', #682, #480, #357 ) ;
#405 = VERTEX_POINT ( 'NONE', #297 ) ;
#406 = EDGE_CURVE ( 'NONE', #529, #319, #240, .T. ) ;
#407 = ORIENTED_EDGE ( 'NONE', *, *, #269, .F. ) ;
#408 = ORIENTED_EDGE ( 'NONE', *, *, #722, .F. ) ;
#409 = VECTOR ( 'NONE', #198, 1000.000000000000000 ) ;
#410 = ORIENTED_EDGE ( 'NONE', *, *, #406, .T. ) ;
#411 = FACE_OUTER_BOUND ( 'NONE', #350, .T. ) ;
#412 = VECTOR ( 'NONE', #315, 1000.000000000000000 ) ;
#413 = EDGE_CURVE ( 'NONE', #627, #723, #201, .T. ) ;
#414 = CIRCLE ( 'NONE', #718, 3.149999999999999911 ) ;
#415 = ORIENTED_EDGE ( 'NONE', *, *, #186, .T. ) ;
#416 = DIRECTION ( 'NONE',  ( 0.000000000000000000, 0.000000000000000000, 1.000000000000000000 ) ) ;
#417 = EDGE_CURVE ( 'NONE', #429, #405, #414, .T. ) ;
#418 = ADVANCED_BREP_SHAPE_REPRESENTATION ( 'PLATE-POSITION_v001', ( #399, #750 ), #284 ) ;
#419 = VECTOR ( 'NONE', #337, 1000.000000000000000 ) ;
#420 = DIRECTION ( 'NONE',  ( 0.000000000000000000, 0.000000000000000000, 1.000000000000000000 ) ) ;
#421 = AXIS2_PLACEMENT_3D ( 'NONE', #659, #65, #468 ) ;
#422 = CARTESIAN_POINT ( 'NONE',  ( 30.80000000000000071, 3.000000000000001776, -3.150000000000011458 ) ) ;
#423 = LINE ( 'NONE', #101, #825 ) ;
#424 = ORIENTED_EDGE ( 'NONE', *, *, #630, .T. ) ;
#425 = LINE ( 'NONE', #318, #120 ) ;
#426 = ADVANCED_FACE ( 'NONE', ( #550, #634, #361 ), #817, .T. ) ;
#427 = AXIS2_PLACEMENT_3D ( 'NONE', #136, #401, #69 ) ;
#428 = CARTESIAN_POINT ( 'NONE',  ( 30.80000000000000071, 3.000000000000000000, 1.699999999999985523 ) ) ;
#429 = VERTEX_POINT ( 'NONE', #301 ) ;
#430 = FACE_BOUND ( 'NONE', #362, .T. ) ;
#431 = EDGE_CURVE ( 'NONE', #504, #243, #423, .T. ) ;
#432 = ORIENTED_EDGE ( 'NONE', *, *, #383, .F. ) ;
#433 = FILL_AREA_STYLE_COLOUR ( '', #40 ) ;
#434 = EDGE_LOOP ( 'NONE', ( #100, #142, #12, #790 ) ) ;
#435 = DIRECTION ( 'NONE',  ( 0.000000000000000000, 1.000000000000000000, 0.000000000000000000 ) ) ;
#436 = EDGE_LOOP ( 'NONE', ( #67, #752, #306, #856, #283, #157, #352, #415 ) ) ;
#437 = SURFACE_STYLE_FILL_AREA ( #105 ) ;
#438 = VERTEX_POINT ( 'NONE', #543 ) ;
#439 = PLANE ( 'NONE',  #526 ) ;
#440 = CIRCLE ( 'NONE', #544, 2.500000000000002220 ) ;
#441 = DIRECTION ( 'NONE',  ( -1.000000000000000000, -0.000000000000000000, -0.000000000000000000 ) ) ;
#442 = CARTESIAN_POINT ( 'NONE',  ( -64.00000000000000000, 6.000000000000000000, 42.99999999999999289 ) ) ;
#443 = VERTEX_POINT ( 'NONE', #87 ) ;
#444 = DIRECTION ( 'NONE',  ( -0.000000000000000000, 1.000000000000000000, 0.000000000000000000 ) ) ;
#445 = DIRECTION ( 'NONE',  ( 0.000000000000000000, 0.000000000000000000, -1.000000000000000000 ) ) ;
#446 = UNCERTAINTY_MEASURE_WITH_UNIT (LENGTH_MEASURE( 1.000000000000000082E-05 ), #485, 'distance_accuracy_value', 'NONE');
#447 = DIRECTION ( 'NONE',  ( -0.000000000000000000, 0.000000000000000000, 1.000000000000000000 ) ) ;
#448 = VECTOR ( 'NONE', #542, 1000.000000000000000 ) ;
#449 = VERTEX_POINT ( 'NONE', #678 ) ;
#450 = DIRECTION ( 'NONE',  ( 0.000000000000000000, -1.000000000000000000, 0.000000000000000000 ) ) ;
#451 = CARTESIAN_POINT ( 'NONE',  ( 61.00000000000000000, 3.000000000000000000, -40.00000000000001421 ) ) ;
#452 = EDGE_CURVE ( 'NONE', #177, #484, #242, .T. ) ;
#453 = LINE ( 'NONE', #187, #75 ) ;
#454 = FACE_OUTER_BOUND ( 'NONE', #730, .T. ) ;
#455 = VECTOR ( 'NONE', #849, 1000.000000000000000 ) ;
#456 = DIRECTION ( 'NONE',  ( 0.000000000000000000, -1.000000000000000000, -0.000000000000000000 ) ) ;
#457 = CONICAL_SURFACE ( 'NONE', #77, 3.149999999999999911, 0.7853981633974477239 ) ;
#458 = DIRECTION ( 'NONE',  ( 1.632680918566406547E-16, 0.000000000000000000, 1.000000000000000000 ) ) ;
#459 = EDGE_CURVE ( 'NONE', #736, #169, #149, .T. ) ;
#460 = DIRECTION ( 'NONE',  ( 0.000000000000000000, 0.000000000000000000, -1.000000000000000000 ) ) ;
#461 = LINE ( 'NONE', #52, #148 ) ;
#462 = CARTESIAN_POINT ( 'NONE',  ( -30.80000000000000071, 3.000000000000001776, -3.149999999999992362 ) ) ;
#463 = VECTOR ( 'NONE', #249, 1000.000000000000000 ) ;
#464 = VECTOR ( 'NONE', #748, 1000.000000000000000 ) ;
#465 = EDGE_CURVE ( 'NONE', #536, #484, #286, .T. ) ;
#466 = DIRECTION ( 'NONE',  ( 0.000000000000000000, 0.000000000000000000, 1.000000000000000000 ) ) ;
#467 = ORIENTED_EDGE ( 'NONE', *, *, #49, .F. ) ;
#468 = DIRECTION ( 'NONE',  ( -1.000000000000000000, 0.000000000000000000, -0.000000000000000000 ) ) ;
#469 = EDGE_LOOP ( 'NONE', ( #671, #248, #733, #492 ) ) ;
#470 = VECTOR ( 'NONE', #763, 1000.000000000000000 ) ;
#471 = LINE ( 'NONE', #203, #409 ) ;
#472 = DIRECTION ( 'NONE',  ( -0.000000000000000000, -1.000000000000000000, -0.000000000000000000 ) ) ;
#473 = EDGE_CURVE ( 'NONE', #795, #298, #620, .T. ) ;
#474 = ORIENTED_EDGE ( 'NONE', *, *, #523, .T. ) ;
#475 = CARTESIAN_POINT ( 'NONE',  ( -30.80000000000000071, 0.000000000000000000, -1.699999999999988853 ) ) ;
#476 = EDGE_LOOP ( 'NONE', ( #693, #758, #705, #26 ) ) ;
#477 = ORIENTED_EDGE ( 'NONE', *, *, #431, .F. ) ;
#478 = ORIENTED_EDGE ( 'NONE', *, *, #669, .F. ) ;
#479 = EDGE_CURVE ( 'NONE', #298, #243, #96, .T. ) ;
#480 = DIRECTION ( 'NONE',  ( 0.000000000000000000, 1.000000000000000000, 0.000000000000000000 ) ) ;
#481 = CARTESIAN_POINT ( 'NONE',  ( 63.50000000000000000, 3.000000000000000000, -42.50000000000001421 ) ) ;
#482 = PRODUCT_DEFINITION ( 'UNKNOWN', '', #235, #805 ) ;
#483 = AXIS2_PLACEMENT_3D ( 'NONE', #843, #244, #636 ) ;
#484 = VERTEX_POINT ( 'NONE', #25 ) ;
#485 =( LENGTH_UNIT ( ) NAMED_UNIT ( * ) SI_UNIT ( .MILLI., .METRE. ) );
#486 = EDGE_LOOP ( 'NONE', ( #45, #215, #365, #143 ) ) ;
#487 = EDGE_CURVE ( 'NONE', #627, #559, #113, .T. ) ;
#488 = AXIS2_PLACEMENT_3D ( 'NONE', #122, #48, #645 ) ;
#489 = DIRECTION ( 'NONE',  ( 0.000000000000000000, 0.000000000000000000, 1.000000000000000000 ) ) ;
#490 = AXIS2_PLACEMENT_3D ( 'NONE', #644, #775, #47 ) ;
#491 = CARTESIAN_POINT ( 'NONE',  ( 0.000000000000000000, 3.000000000000000000, 0.000000000000000000 ) ) ;
#492 = ORIENTED_EDGE ( 'NONE', *, *, #287, .F. ) ;
#493 = CARTESIAN_POINT ( 'NONE',  ( 30.80000000000000071, 0.000000000000000000, -1.115187669281842951E-14 ) ) ;
#494 = VECTOR ( 'NONE', #524, 999.9999999999998863 ) ;
#495 = VERTEX_POINT ( 'NONE', #519 ) ;
#496 = DIRECTION ( 'NONE',  ( -0.000000000000000000, 1.000000000000000000, -0.000000000000000000 ) ) ;
#497 = ORIENTED_EDGE ( 'NONE', *, *, #95, .T. ) ;
#498 = CARTESIAN_POINT ( 'NONE',  ( -63.50000000000000000, 6.000000000000000000, -42.50000000000001421 ) ) ;
#499 = ORIENTED_EDGE ( 'NONE', *, *, #569, .T. ) ;
#500 = ORIENTED_EDGE ( 'NONE', *, *, #781, .T. ) ;
#501 = DIRECTION ( 'NONE',  ( 1.000000000000000000, 0.000000000000000000, -1.525031627232357891E-16 ) ) ;
#502 = CYLINDRICAL_SURFACE ( 'NONE', #227, 2.500000000000002220 ) ;
#503 = CARTESIAN_POINT ( 'NONE',  ( -30.80000000000000071, 0.000000000000000000, 7.707684014050808551E-15 ) ) ;
#504 = VERTEX_POINT ( 'NONE', #643 ) ;
#505 = CARTESIAN_POINT ( 'NONE',  ( 30.80000000000000071, 1.549999999999996714, -1.700000000000011280 ) ) ;
#506 = EDGE_CURVE ( 'NONE', #443, #562, #354, .T. ) ;
#507 = LINE ( 'NONE', #713, #88 ) ;
#508 = VECTOR ( 'NONE', #441, 1000.000000000000000 ) ;
#509 = CARTESIAN_POINT ( 'NONE',  ( 30.80000000000000071, 3.000000000000000000, -1.115187669281842951E-14 ) ) ;
#510 = ORIENTED_EDGE ( 'NONE', *, *, #95, .F. ) ;
#511 = CARTESIAN_POINT ( 'NONE',  ( -63.50000000000000000, 6.000000000000000000, -40.00000000000001421 ) ) ;
#512 = EDGE_CURVE ( 'NONE', #743, #438, #385, .T. ) ;
#513 = CARTESIAN_POINT ( 'NONE',  ( -64.00000000000001421, 0.000000000000000000, -45.50000000000000711 ) ) ;
#514 = CARTESIAN_POINT ( 'NONE',  ( 30.80000000000000071, 1.549999999999996714, -1.115187669281842951E-14 ) ) ;
#515 = CIRCLE ( 'NONE', #20, 1.699999999999996625 ) ;
#516 = CARTESIAN_POINT ( 'NONE',  ( -63.50000000000000000, 6.000000000000000000, -42.50000000000001421 ) ) ;
#517 = CARTESIAN_POINT ( 'NONE',  ( -64.00000000000001421, 6.000000000000000000, -45.50000000000000711 ) ) ;
#518 = DIRECTION ( 'NONE',  ( -1.000000000000000000, 0.000000000000000000, 1.632680918566406547E-16 ) ) ;
#519 = CARTESIAN_POINT ( 'NONE',  ( -63.49999999999998579, 3.000000000000000000, 39.99999999999998579 ) ) ;
#520 = FACE_OUTER_BOUND ( 'NONE', #816, .T. ) ;
#521 = FACE_OUTER_BOUND ( 'NONE', #558, .T. ) ;
#522 = DIRECTION ( 'NONE',  ( -1.000000000000000000, -0.000000000000000000, -0.000000000000000000 ) ) ;
#523 = EDGE_CURVE ( 'NONE', #537, #562, #765, .T. ) ;
#524 = DIRECTION ( 'NONE',  ( 8.659560562354918067E-17, 0.7071067811865489050, -0.7071067811865462405 ) ) ;
#525 = ORIENTED_EDGE ( 'NONE', *, *, #459, .T. ) ;
#526 = AXIS2_PLACEMENT_3D ( 'NONE', #317, #180, #649 ) ;
#527 = PRESENTATION_LAYER_ASSIGNMENT (  '', '', ( #313 ) ) ;
#528 = CARTESIAN_POINT ( 'NONE',  ( -30.80000000000000071, 3.000000000000001776, 7.707684014050808551E-15 ) ) ;
#529 = VERTEX_POINT ( 'NONE', #836 ) ;
#530 = CARTESIAN_POINT ( 'NONE',  ( 63.50000000000000000, 6.000000000000000000, 39.99999999999998579 ) ) ;
#531 = ADVANCED_FACE ( 'NONE', ( #454 ), #254, .F. ) ;
#532 = AXIS2_PLACEMENT_3D ( 'NONE', #771, #826, #200 ) ;
#533 = ORIENTED_EDGE ( 'NONE', *, *, #734, .T. ) ;
#534 = DIRECTION ( 'NONE',  ( 0.000000000000000000, 0.000000000000000000, 1.000000000000000000 ) ) ;
#535 = CIRCLE ( 'NONE', #197, 2.500000000000002220 ) ;
#536 = VERTEX_POINT ( 'NONE', #505 ) ;
#537 = VERTEX_POINT ( 'NONE', #511 ) ;
#538 = EDGE_CURVE ( 'NONE', #169, #627, #389, .T. ) ;
#539 = EDGE_LOOP ( 'NONE', ( #798, #379, #754, #683 ) ) ;
#540 = DIRECTION ( 'NONE',  ( -0.000000000000000000, -0.000000000000000000, -1.000000000000000000 ) ) ;
#541 = ADVANCED_FACE ( 'NONE', ( #588 ), #715, .F. ) ;
#542 = DIRECTION ( 'NONE',  ( -0.000000000000000000, -0.000000000000000000, -1.000000000000000000 ) ) ;
#543 = CARTESIAN_POINT ( 'NONE',  ( 66.49999999999998579, 6.000000000000000000, -43.00000000000000000 ) ) ;
#544 = AXIS2_PLACEMENT_3D ( 'NONE', #363, #821, #34 ) ;
#545 = ORIENTED_EDGE ( 'NONE', *, *, #303, .T. ) ;
#546 =( NAMED_UNIT ( * ) PLANE_ANGLE_UNIT ( ) SI_UNIT ( $, .RADIAN. ) );
#547 = EDGE_LOOP ( 'NONE', ( #288, #234, #545, #424 ) ) ;
#548 = VECTOR ( 'NONE', #146, 1000.000000000000000 ) ;
#549 = DIRECTION ( 'NONE',  ( 0.000000000000000000, 0.000000000000000000, 1.000000000000000000 ) ) ;
#550 = FACE_BOUND ( 'NONE', #302, .T. ) ;
#551 = ORIENTED_EDGE ( 'NONE', *, *, #383, .T. ) ;
#552 = ADVANCED_FACE ( 'NONE', ( #183 ), #178, .T. ) ;
#553 = CIRCLE ( 'NONE', #190, 2.500000000000002220 ) ;
#554 = CARTESIAN_POINT ( 'NONE',  ( 30.80000000000000071, 3.000000000000001776, -1.115187669281842951E-14 ) ) ;
#555 = VECTOR ( 'NONE', #761, 1000.000000000000000 ) ;
#556 = EDGE_LOOP ( 'NONE', ( #510, #432, #236, #749 ) ) ;
#557 = CARTESIAN_POINT ( 'NONE',  ( 61.00000000000000000, 3.000000000000000000, -40.00000000000001421 ) ) ;
#558 = EDGE_LOOP ( 'NONE', ( #7, #207, #835, #218 ) ) ;
#559 = VERTEX_POINT ( 'NONE', #262 ) ;
#560 = DIRECTION ( 'NONE',  ( -0.000000000000000000, 1.000000000000000000, -0.000000000000000000 ) ) ;
#561 = AXIS2_PLACEMENT_3D ( 'NONE', #60, #593, #851 ) ;
#562 = VERTEX_POINT ( 'NONE', #651 ) ;
#563 = DIRECTION ( 'NONE',  ( 1.000000000000000000, 0.000000000000000000, 0.000000000000000000 ) ) ;
#564 = ORIENTED_EDGE ( 'NONE', *, *, #309, .F. ) ;
#565 = DIRECTION ( 'NONE',  ( 0.000000000000000000, -1.000000000000000000, 0.000000000000000000 ) ) ;
#566 = VECTOR ( 'NONE', #624, 1000.000000000000000 ) ;
#567 = AXIS2_PLACEMENT_3D ( 'NONE', #557, #165, #616 ) ;
#568 = DIRECTION ( 'NONE',  ( 0.000000000000000000, 1.000000000000000000, 0.000000000000000000 ) ) ;
#569 = EDGE_CURVE ( 'NONE', #62, #800, #55, .T. ) ;
#570 = CARTESIAN_POINT ( 'NONE',  ( 63.50000000000000000, 6.000000000000000000, -42.50000000000001421 ) ) ;
#571 = ORIENTED_EDGE ( 'NONE', *, *, #512, .T. ) ;
#572 = LINE ( 'NONE', #119, #37 ) ;
#573 = ORIENTED_EDGE ( 'NONE', *, *, #479, .F. ) ;
#574 = DIRECTION ( 'NONE',  ( 0.000000000000000000, 1.000000000000000000, -0.000000000000000000 ) ) ;
#575 = CYLINDRICAL_SURFACE ( 'NONE', #576, 1.699999999999996625 ) ;
#576 = AXIS2_PLACEMENT_3D ( 'NONE', #509, #153, #681 ) ;
#577 = ADVANCED_FACE ( 'NONE', ( #194 ), #702, .F. ) ;
#578 = VECTOR ( 'NONE', #565, 1000.000000000000000 ) ;
#579 = ORIENTED_EDGE ( 'NONE', *, *, #473, .T. ) ;
#580 = DIRECTION ( 'NONE',  ( -0.000000000000000000, -0.000000000000000000, -1.000000000000000000 ) ) ;
#581 = DIRECTION ( 'NONE',  ( 0.000000000000000000, -1.000000000000000000, 0.000000000000000000 ) ) ;
#582 = LINE ( 'NONE', #196, #455 ) ;
#583 = ORIENTED_EDGE ( 'NONE', *, *, #431, .T. ) ;
#584 = DIRECTION ( 'NONE',  ( 0.000000000000000000, 0.000000000000000000, 1.000000000000000000 ) ) ;
#585 = CYLINDRICAL_SURFACE ( 'NONE', #483, 2.500000000000002220 ) ;
#586 = EDGE_CURVE ( 'NONE', #443, #164, #51, .T. ) ;
#587 = CARTESIAN_POINT ( 'NONE',  ( -30.80000000000000071, 3.000000000000000000, 7.707684014050808551E-15 ) ) ;
#588 = FACE_OUTER_BOUND ( 'NONE', #102, .T. ) ;
#589 = DIRECTION ( 'NONE',  ( -0.000000000000000000, 1.000000000000000000, -0.000000000000000000 ) ) ;
#590 = DIRECTION ( 'NONE',  ( -1.000000000000000000, 0.000000000000000000, -0.000000000000000000 ) ) ;
#591 = EDGE_CURVE ( 'NONE', #336, #325, #572, .T. ) ;
#592 = FACE_OUTER_BOUND ( 'NONE', #841, .T. ) ;
#593 = DIRECTION ( 'NONE',  ( 1.000000000000000000, 0.000000000000000000, -0.000000000000000000 ) ) ;
#594 = VERTEX_POINT ( 'NONE', #386 ) ;
#595 = LINE ( 'NONE', #462, #10 ) ;
#596 = AXIS2_PLACEMENT_3D ( 'NONE', #810, #684, #815 ) ;
#597 = DIRECTION ( 'NONE',  ( 0.000000000000000000, 0.000000000000000000, 1.000000000000000000 ) ) ;
#598 = ORIENTED_EDGE ( 'NONE', *, *, #417, .F. ) ;
#599 = AXIS2_PLACEMENT_3D ( 'NONE', #124, #842, #845 ) ;
#600 = ADVANCED_FACE ( 'NONE', ( #376 ), #439, .F. ) ;
#601 = DIRECTION ( 'NONE',  ( -0.000000000000000000, -1.000000000000000000, -0.000000000000000000 ) ) ;
#602 = EDGE_LOOP ( 'NONE', ( #818, #635, #285, #499 ) ) ;
#603 = EDGE_CURVE ( 'NONE', #164, #106, #461, .T. ) ;
#604 = DIRECTION ( 'NONE',  ( 0.000000000000000000, 0.000000000000000000, 1.000000000000000000 ) ) ;
#605 = AXIS2_PLACEMENT_3D ( 'NONE', #377, #568, #42 ) ;
#606 = CIRCLE ( 'NONE', #532, 3.149999999999999911 ) ;
#607 = ORIENTED_EDGE ( 'NONE', *, *, #282, .T. ) ;
#608 = ORIENTED_EDGE ( 'NONE', *, *, #479, .T. ) ;
#609 = VERTEX_POINT ( 'NONE', #381 ) ;
#610 = EDGE_LOOP ( 'NONE', ( #785, #304, #93, #551 ) ) ;
#611 =( GEOMETRIC_REPRESENTATION_CONTEXT ( 3 ) GLOBAL_UNCERTAINTY_ASSIGNED_CONTEXT ( ( #446 ) ) GLOBAL_UNIT_ASSIGNED_CONTEXT ( ( #485, #546, #740 ) ) REPRESENTATION_CONTEXT ( 'NONE', 'WORKASPACE' ) );
#612 = CARTESIAN_POINT ( 'NONE',  ( -64.00000000000001421, 6.000000000000000000, -43.00000000000000000 ) ) ;
#613 = ADVANCED_FACE ( 'NONE', ( #521 ), #585, .F. ) ;
#614 = DIRECTION ( 'NONE',  ( 0.000000000000000000, -1.000000000000000000, 0.000000000000000000 ) ) ;
#615 = DIRECTION ( 'NONE',  ( 0.000000000000000000, 0.000000000000000000, 1.000000000000000000 ) ) ;
#616 = DIRECTION ( 'NONE',  ( 0.000000000000000000, 0.000000000000000000, 1.000000000000000000 ) ) ;
#617 = AXIS2_PLACEMENT_3D ( 'NONE', #493, #226, #549 ) ;
#618 = CARTESIAN_POINT ( 'NONE',  ( -63.49999999999998579, 3.000000000000000000, 39.99999999999998579 ) ) ;
#619 = ADVANCED_FACE ( 'NONE', ( #41 ), #697, .F. ) ;
#620 = LINE ( 'NONE', #21, #271 ) ;
#621 = EDGE_LOOP ( 'NONE', ( #579, #608, #477, #660 ) ) ;
#622 = CLOSED_SHELL ( 'NONE', ( #639, #531, #210, #247, #205, #600, #619, #690, #27, #216, #814, #371, #345, #772, #426, #837, #680, #613, #577, #82, #541, #225, #552, #179, #123, #335, #757 ) ) ;
#623 = CARTESIAN_POINT ( 'NONE',  ( 30.80000000000000071, 0.000000000000000000, 1.699999999999985523 ) ) ;
#624 = DIRECTION ( 'NONE',  ( -0.000000000000000000, 1.000000000000000000, -0.000000000000000000 ) ) ;
#625 = ORIENTED_EDGE ( 'NONE', *, *, #781, .F. ) ;
#626 = FACE_OUTER_BOUND ( 'NONE', #670, .T. ) ;
#627 = VERTEX_POINT ( 'NONE', #125 ) ;
#628 = CARTESIAN_POINT ( 'NONE',  ( -64.00000000000001421, 6.000000000000000000, -43.00000000000000000 ) ) ;
#629 = VERTEX_POINT ( 'NONE', #250 ) ;
#630 = EDGE_CURVE ( 'NONE', #723, #736, #259, .T. ) ;
#631 = CARTESIAN_POINT ( 'NONE',  ( 30.80000000000000071, 3.000000000000001776, -1.115187669281842951E-14 ) ) ;
#632 = CARTESIAN_POINT ( 'NONE',  ( 61.00000000000000000, 3.000000000000000000, 42.49999999999998579 ) ) ;
#633 = ORIENTED_EDGE ( 'NONE', *, *, #57, .F. ) ;
#634 = FACE_BOUND ( 'NONE', #316, .T. ) ;
#635 = ORIENTED_EDGE ( 'NONE', *, *, #6, .T. ) ;
#636 = DIRECTION ( 'NONE',  ( 0.000000000000000000, 0.000000000000000000, -1.000000000000000000 ) ) ;
#637 = VECTOR ( 'NONE', #580, 1000.000000000000000 ) ;
#638 = AXIS2_PLACEMENT_3D ( 'NONE', #628, #31, #17 ) ;
#639 = ADVANCED_FACE ( 'NONE', ( #185 ), #3, .F. ) ;
#640 = FACE_OUTER_BOUND ( 'NONE', #764, .T. ) ;
#641 = FACE_BOUND ( 'NONE', #436, .T. ) ;
#642 = ORIENTED_EDGE ( 'NONE', *, *, #797, .F. ) ;
#643 = CARTESIAN_POINT ( 'NONE',  ( -64.00000000000000000, 6.000000000000000000, 45.49999999999999289 ) ) ;
#644 = CARTESIAN_POINT ( 'NONE',  ( -30.80000000000000071, 3.000000000000001776, 7.707684014050808551E-15 ) ) ;
#645 = DIRECTION ( 'NONE',  ( 0.000000000000000000, 0.000000000000000000, 1.000000000000000000 ) ) ;
#646 = CONICAL_SURFACE ( 'NONE', #321, 3.149999999999999911, 0.7853981633974465026 ) ;
#647 = VERTEX_POINT ( 'NONE', #195 ) ;
#648 = DIRECTION ( 'NONE',  ( 0.000000000000000000, 0.000000000000000000, -1.000000000000000000 ) ) ;
#649 = DIRECTION ( 'NONE',  ( 1.000000000000000000, 0.000000000000000000, -0.000000000000000000 ) ) ;
#650 = DIRECTION ( 'NONE',  ( -1.665334536937733233E-14, 0.000000000000000000, 1.000000000000000000 ) ) ;
#651 = CARTESIAN_POINT ( 'NONE',  ( -63.49999999999998579, 6.000000000000000000, 39.99999999999998579 ) ) ;
#652 = CARTESIAN_POINT ( 'NONE',  ( -63.49999999999998579, 3.000000000000000000, 42.49999999999998579 ) ) ;
#653 = MECHANICAL_DESIGN_GEOMETRIC_PRESENTATION_REPRESENTATION (  '', ( #313 ), #611 ) ;
#654 = FACE_OUTER_BOUND ( 'NONE', #668, .T. ) ;
#655 = PRODUCT_DEFINITION_SHAPE ( 'NONE', 'NONE',  #482 ) ;
#656 = DIRECTION ( 'NONE',  ( 0.000000000000000000, -1.000000000000000000, 0.000000000000000000 ) ) ;
#657 = ORIENTED_EDGE ( 'NONE', *, *, #275, .F. ) ;
#658 = CARTESIAN_POINT ( 'NONE',  ( -66.50000000000001421, 6.000000000000000000, -45.50000000000000711 ) ) ;
#659 = CARTESIAN_POINT ( 'NONE',  ( -63.50000000000000000, 3.000000000000000000, -42.50000000000001421 ) ) ;
#660 = ORIENTED_EDGE ( 'NONE', *, *, #696, .T. ) ;
#661 = AXIS2_PLACEMENT_3D ( 'NONE', #756, #163, #420 ) ;
#662 = LINE ( 'NONE', #725, #229 ) ;
#663 = VERTEX_POINT ( 'NONE', #766 ) ;
#664 = EDGE_CURVE ( 'NONE', #799, #443, #130, .T. ) ;
#665 = AXIS2_PLACEMENT_3D ( 'NONE', #742, #86, #155 ) ;
#666 = CARTESIAN_POINT ( 'NONE',  ( 30.80000000000000071, 3.000000000000001776, -3.150000000000011458 ) ) ;
#667 = ORIENTED_EDGE ( 'NONE', *, *, #465, .F. ) ;
#668 = EDGE_LOOP ( 'NONE', ( #633, #467, #78, #232 ) ) ;
#669 = EDGE_CURVE ( 'NONE', #799, #106, #394, .T. ) ;
#670 = EDGE_LOOP ( 'NONE', ( #150, #809, #211, #368 ) ) ;
#671 = ORIENTED_EDGE ( 'NONE', *, *, #807, .F. ) ;
#672 = EDGE_CURVE ( 'NONE', #295, #536, #507, .T. ) ;
#673 = AXIS2_PLACEMENT_3D ( 'NONE', #266, #270, #793 ) ;
#674 = EDGE_LOOP ( 'NONE', ( #571, #374, #695, #525, #607, #497, #583, #824 ) ) ;
#675 = VECTOR ( 'NONE', #831, 1000.000000000000000 ) ;
#676 = CARTESIAN_POINT ( 'NONE',  ( -30.80000000000000071, 3.000000000000000000, -1.699999999999988853 ) ) ;
#677 = FACE_OUTER_BOUND ( 'NONE', #674, .T. ) ;
#678 = CARTESIAN_POINT ( 'NONE',  ( 66.49999999999998579, 0.000000000000000000, 42.99999999999999289 ) ) ;
#679 = VECTOR ( 'NONE', #581, 1000.000000000000000 ) ;
#680 = ADVANCED_FACE ( 'NONE', ( #838 ), #114, .F. ) ;
#681 = DIRECTION ( 'NONE',  ( 0.000000000000000000, 0.000000000000000000, 1.000000000000000000 ) ) ;
#682 = CARTESIAN_POINT ( 'NONE',  ( 63.99999999999998579, 6.000000000000000000, 42.99999999999999289 ) ) ;
#683 = ORIENTED_EDGE ( 'NONE', *, *, #591, .T. ) ;
#684 = DIRECTION ( 'NONE',  ( -0.000000000000000000, -1.000000000000000000, -0.000000000000000000 ) ) ;
#685 = DIRECTION ( 'NONE',  ( 1.000000000000000000, 0.000000000000000000, 0.000000000000000000 ) ) ;
#686 = ORIENTED_EDGE ( 'NONE', *, *, #360, .F. ) ;
#687 = PLANE ( 'NONE',  #605 ) ;
#688 = ORIENTED_EDGE ( 'NONE', *, *, #128, .T. ) ;
#689 = CARTESIAN_POINT ( 'NONE',  ( -66.50000000000000000, 6.000000000000000000, 42.99999999999999289 ) ) ;
#690 = ADVANCED_FACE ( 'NONE', ( #56 ), #107, .F. ) ;
#691 = ORIENTED_EDGE ( 'NONE', *, *, #538, .F. ) ;
#692 = FACE_OUTER_BOUND ( 'NONE', #476, .T. ) ;
#693 = ORIENTED_EDGE ( 'NONE', *, *, #672, .F. ) ;
#694 = CARTESIAN_POINT ( 'NONE',  ( -66.50000000000001421, 6.000000000000000000, -45.50000000000000711 ) ) ;
#695 = ORIENTED_EDGE ( 'NONE', *, *, #397, .T. ) ;
#696 = EDGE_CURVE ( 'NONE', #504, #795, #847, .T. ) ;
#697 = PLANE ( 'NONE',  #855 ) ;
#698 = CIRCLE ( 'NONE', #617, 1.699999999999996625 ) ;
#699 = DIRECTION ( 'NONE',  ( 0.000000000000000000, 0.000000000000000000, 1.000000000000000000 ) ) ;
#700 = PLANE ( 'NONE',  #665 ) ;
#701 = EDGE_LOOP ( 'NONE', ( #76, #274 ) ) ;
#702 = CYLINDRICAL_SURFACE ( 'NONE', #238, 2.500000000000002220 ) ;
#703 = DIRECTION ( 'NONE',  ( 0.000000000000000000, 0.000000000000000000, -1.000000000000000000 ) ) ;
#704 = CARTESIAN_POINT ( 'NONE',  ( 64.00000000000000000, 0.000000000000000000, 45.49999999999999289 ) ) ;
#705 = ORIENTED_EDGE ( 'NONE', *, *, #452, .T. ) ;
#706 = CARTESIAN_POINT ( 'NONE',  ( 63.50000000000000000, 6.000000000000000000, 39.99999999999998579 ) ) ;
#707 = LINE ( 'NONE', #264, #679 ) ;
#708 = DIRECTION ( 'NONE',  ( 0.000000000000000000, 0.000000000000000000, 1.000000000000000000 ) ) ;
#709 = EDGE_CURVE ( 'NONE', #743, #449, #707, .T. ) ;
#710 = CIRCLE ( 'NONE', #488, 1.699999999999996625 ) ;
#711 = CIRCLE ( 'NONE', #349, 2.500000000000002220 ) ;
#712 = CARTESIAN_POINT ( 'NONE',  ( -64.00000000000000000, 6.000000000000000000, 42.99999999999999289 ) ) ;
#713 = CARTESIAN_POINT ( 'NONE',  ( 30.80000000000000071, 3.000000000000000000, -1.700000000000007727 ) ) ;
#714 = CARTESIAN_POINT ( 'NONE',  ( -66.50000000000001421, 0.000000000000000000, -45.50000000000000711 ) ) ;
#715 = CYLINDRICAL_SURFACE ( 'NONE', #599, 2.500000000000002220 ) ;
#716 = AXIS2_PLACEMENT_3D ( 'NONE', #724, #589, #72 ) ;
#717 = DIRECTION ( 'NONE',  ( -0.000000000000000000, 1.000000000000000000, -0.000000000000000000 ) ) ;
#718 = AXIS2_PLACEMENT_3D ( 'NONE', #233, #811, #753 ) ;
#719 = LINE ( 'NONE', #395, #2 ) ;
#720 =( NAMED_UNIT ( * ) PLANE_ANGLE_UNIT ( ) SI_UNIT ( $, .RADIAN. ) );
#721 = DIRECTION ( 'NONE',  ( -0.000000000000000000, -0.000000000000000000, -1.000000000000000000 ) ) ;
#722 = EDGE_CURVE ( 'NONE', #253, #495, #255, .T. ) ;
#723 = VERTEX_POINT ( 'NONE', #513 ) ;
#724 = CARTESIAN_POINT ( 'NONE',  ( -30.80000000000000071, 1.549999999999996714, 7.707684014050808551E-15 ) ) ;
#725 = CARTESIAN_POINT ( 'NONE',  ( 66.49999999999998579, 0.000000000000000000, -45.50000000000000711 ) ) ;
#726 = EDGE_CURVE ( 'NONE', #405, #429, #606, .T. ) ;
#727 = VERTEX_POINT ( 'NONE', #267 ) ;
#728 = CIRCLE ( 'NONE', #596, 2.500000000000002220 ) ;
#729 = CARTESIAN_POINT ( 'NONE',  ( -30.80000000000000071, 1.549999999999996714, 7.707684014050808551E-15 ) ) ;
#730 = EDGE_LOOP ( 'NONE', ( #407, #344, #32, #145 ) ) ;
#731 = EDGE_CURVE ( 'NONE', #307, #30, #156, .T. ) ;
#732 = PLANE ( 'NONE',  #561 ) ;
#733 = ORIENTED_EDGE ( 'NONE', *, *, #417, .T. ) ;
#734 = EDGE_CURVE ( 'NONE', #325, #253, #323, .T. ) ;
#735 = ORIENTED_EDGE ( 'NONE', *, *, #591, .F. ) ;
#736 = VERTEX_POINT ( 'NONE', #396 ) ;
#737 = DIRECTION ( 'NONE',  ( -0.000000000000000000, 1.000000000000000000, -0.000000000000000000 ) ) ;
#738 = AXIS2_PLACEMENT_3D ( 'NONE', #326, #778, #774 ) ;
#739 = CARTESIAN_POINT ( 'NONE',  ( -63.50000000000000000, 6.000000000000000000, -40.00000000000001421 ) ) ;
#740 =( NAMED_UNIT ( * ) SI_UNIT ( $, .STERADIAN. ) SOLID_ANGLE_UNIT ( ) );
#741 = EDGE_CURVE ( 'NONE', #449, #727, #662, .T. ) ;
#742 = CARTESIAN_POINT ( 'NONE',  ( 0.000000000000000000, 6.000000000000000000, 0.000000000000000000 ) ) ;
#743 = VERTEX_POINT ( 'NONE', #139 ) ;
#744 = VECTOR ( 'NONE', #747, 1000.000000000000000 ) ;
#745 = EDGE_CURVE ( 'NONE', #800, #164, #711, .T. ) ;
#746 = AXIS2_PLACEMENT_3D ( 'NONE', #331, #703, #590 ) ;
#747 = DIRECTION ( 'NONE',  ( -0.000000000000000000, -1.000000000000000000, -0.000000000000000000 ) ) ;
#748 = DIRECTION ( 'NONE',  ( -1.000000000000000000, -0.000000000000000000, -0.000000000000000000 ) ) ;
#749 = ORIENTED_EDGE ( 'NONE', *, *, #696, .F. ) ;
#750 = AXIS2_PLACEMENT_3D ( 'NONE', #4, #263, #133 ) ;
#751 = DIRECTION ( 'NONE',  ( -0.000000000000000000, 1.000000000000000000, -0.000000000000000000 ) ) ;
#752 = ORIENTED_EDGE ( 'NONE', *, *, #745, .T. ) ;
#753 = DIRECTION ( 'NONE',  ( 0.000000000000000000, 0.000000000000000000, 1.000000000000000000 ) ) ;
#754 = ORIENTED_EDGE ( 'NONE', *, *, #144, .T. ) ;
#755 = AXIS2_PLACEMENT_3D ( 'NONE', #294, #170, #92 ) ;
#756 = CARTESIAN_POINT ( 'NONE',  ( 30.80000000000000071, 3.000000000000000000, -1.115187669281842951E-14 ) ) ;
#757 = ADVANCED_FACE ( 'NONE', ( #784 ), #457, .F. ) ;
#758 = ORIENTED_EDGE ( 'NONE', *, *, #171, .F. ) ;
#759 = DIRECTION ( 'NONE',  ( 0.000000000000000000, -0.000000000000000000, 1.000000000000000000 ) ) ;
#760 = EDGE_LOOP ( 'NONE', ( #166, #257, #98, #135, #202, #688, #74, #23 ) ) ;
#761 = DIRECTION ( 'NONE',  ( 1.632680918566406547E-16, 0.000000000000000000, 1.000000000000000000 ) ) ;
#762 = FACE_OUTER_BOUND ( 'NONE', #230, .T. ) ;
#763 = DIRECTION ( 'NONE',  ( 0.000000000000000000, 1.000000000000000000, 0.000000000000000000 ) ) ;
#764 = EDGE_LOOP ( 'NONE', ( #1, #33, #50, #39 ) ) ;
#765 = LINE ( 'NONE', #516, #675 ) ;
#766 = CARTESIAN_POINT ( 'NONE',  ( 63.99999999999998579, 0.000000000000000000, -45.50000000000000711 ) ) ;
#767 = VECTOR ( 'NONE', #168, 1000.000000000000000 ) ;
#768 = CARTESIAN_POINT ( 'NONE',  ( 61.00000000000000000, 3.000000000000000000, -42.50000000000001421 ) ) ;
#769 = EDGE_LOOP ( 'NONE', ( #36, #410, #832, #533, #348, #366, #70, #160 ) ) ;
#770 = CARTESIAN_POINT ( 'NONE',  ( -66.50000000000001421, 6.000000000000000000, -43.00000000000000000 ) ) ;
#771 = CARTESIAN_POINT ( 'NONE',  ( -30.80000000000000071, 3.000000000000001776, 7.707684014050808551E-15 ) ) ;
#772 = ADVANCED_FACE ( 'NONE', ( #334 ), #854, .F. ) ;
#773 = CARTESIAN_POINT ( 'NONE',  ( 30.80000000000000071, 0.000000000000000000, -1.700000000000007727 ) ) ;
#774 = DIRECTION ( 'NONE',  ( 0.000000000000000000, 0.000000000000000000, 1.000000000000000000 ) ) ;
#775 = DIRECTION ( 'NONE',  ( -0.000000000000000000, 1.000000000000000000, -0.000000000000000000 ) ) ;
#776 = UNCERTAINTY_MEASURE_WITH_UNIT (LENGTH_MEASURE( 1.000000000000000082E-05 ), #59, 'distance_accuracy_value', 'NONE');
#777 = DIRECTION ( 'NONE',  ( 0.000000000000000000, 0.7071067811865489050, 0.7071067811865462405 ) ) ;
#778 = DIRECTION ( 'NONE',  ( -0.000000000000000000, 1.000000000000000000, -0.000000000000000000 ) ) ;
#779 = CARTESIAN_POINT ( 'NONE',  ( -63.50000000000000000, 3.000000000000000000, -42.50000000000001421 ) ) ;
#780 = DIRECTION ( 'NONE',  ( 0.000000000000000000, 0.000000000000000000, 1.000000000000000000 ) ) ;
#781 = EDGE_CURVE ( 'NONE', #536, #30, #212, .T. ) ;
#782 = CIRCLE ( 'NONE', #716, 1.699999999999996625 ) ;
#783 = APPLICATION_PROTOCOL_DEFINITION ( 'draft international standard', 'automotive_design', 1998, #152 ) ;
#784 = FACE_OUTER_BOUND ( 'NONE', #852, .T. ) ;
#785 = ORIENTED_EDGE ( 'NONE', *, *, #282, .F. ) ;
#786 = AXIS2_PLACEMENT_3D ( 'NONE', #823, #221, #416 ) ;
#787 = EDGE_CURVE ( 'NONE', #495, #799, #391, .T. ) ;
#788 = DIRECTION ( 'NONE',  ( 0.000000000000000000, 1.000000000000000000, 0.000000000000000000 ) ) ;
#789 = DIRECTION ( 'NONE',  ( -0.000000000000000000, -1.000000000000000000, -0.000000000000000000 ) ) ;
#790 = ORIENTED_EDGE ( 'NONE', *, *, #192, .F. ) ;
#791 = AXIS2_PLACEMENT_3D ( 'NONE', #514, #324, #708 ) ;
#792 = AXIS2_PLACEMENT_3D ( 'NONE', #340, #277, #281 ) ;
#793 = DIRECTION ( 'NONE',  ( 0.000000000000000000, 0.000000000000000000, -1.000000000000000000 ) ) ;
#794 = CARTESIAN_POINT ( 'NONE',  ( 30.80000000000000071, 3.000000000000001776, -1.115187669281842951E-14 ) ) ;
#795 = VERTEX_POINT ( 'NONE', #343 ) ;
#796 = FACE_OUTER_BOUND ( 'NONE', #602, .T. ) ;
#797 = EDGE_CURVE ( 'NONE', #663, #727, #9, .T. ) ;
#798 = ORIENTED_EDGE ( 'NONE', *, *, #260, .F. ) ;
#799 = VERTEX_POINT ( 'NONE', #857 ) ;
#800 = VERTEX_POINT ( 'NONE', #530 ) ;
#801 = CARTESIAN_POINT ( 'NONE',  ( 63.50000000000000000, 3.000000000000000000, -40.00000000000001421 ) ) ;
#802 = EDGE_CURVE ( 'NONE', #537, #336, #820, .T. ) ;
#803 = DIRECTION ( 'NONE',  ( 0.000000000000000000, 0.000000000000000000, 1.000000000000000000 ) ) ;
#804 = DIRECTION ( 'NONE',  ( -0.000000000000000000, 1.000000000000000000, -0.000000000000000000 ) ) ;
#805 = PRODUCT_DEFINITION_CONTEXT ( 'detailed design', #152, 'design' ) ;
#806 = DIRECTION ( 'NONE',  ( 1.000000000000000000, 0.000000000000000000, 0.000000000000000000 ) ) ;
#807 = EDGE_CURVE ( 'NONE', #647, #609, #81, .T. ) ;
#808 = LINE ( 'NONE', #694, #464 ) ;
#809 = ORIENTED_EDGE ( 'NONE', *, *, #22, .T. ) ;
#810 = CARTESIAN_POINT ( 'NONE',  ( -64.00000000000000000, 0.000000000000000000, 42.99999999999999289 ) ) ;
#811 = DIRECTION ( 'NONE',  ( -0.000000000000000000, 1.000000000000000000, -0.000000000000000000 ) ) ;
#812 = VERTEX_POINT ( 'NONE', #475 ) ;
#813 = VECTOR ( 'NONE', #116, 1000.000000000000000 ) ;
#814 = ADVANCED_FACE ( 'NONE', ( #796 ), #732, .F. ) ;
#815 = DIRECTION ( 'NONE',  ( 0.000000000000000000, 0.000000000000000000, 1.000000000000000000 ) ) ;
#816 = EDGE_LOOP ( 'NONE', ( #8, #18, #642, #314 ) ) ;
#817 = PLANE ( 'NONE',  #355 ) ;
#818 = ORIENTED_EDGE ( 'NONE', *, *, #115, .T. ) ;
#819 = EDGE_CURVE ( 'NONE', #106, #62, #535, .T. ) ;
#820 = CIRCLE ( 'NONE', #127, 2.500000000000002220 ) ;
#821 = DIRECTION ( 'NONE',  ( -0.000000000000000000, -1.000000000000000000, -0.000000000000000000 ) ) ;
#822 = ORIENTED_EDGE ( 'NONE', *, *, #214, .T. ) ;
#823 = CARTESIAN_POINT ( 'NONE',  ( -64.00000000000001421, 0.000000000000000000, -43.00000000000000000 ) ) ;
#824 = ORIENTED_EDGE ( 'NONE', *, *, #43, .T. ) ;
#825 = VECTOR ( 'NONE', #563, 1000.000000000000000 ) ;
#826 = DIRECTION ( 'NONE',  ( -0.000000000000000000, 1.000000000000000000, -0.000000000000000000 ) ) ;
#827 = EDGE_LOOP ( 'NONE', ( #217, #370, #398, #691 ) ) ;
#828 = CYLINDRICAL_SURFACE ( 'NONE', #661, 1.699999999999996625 ) ;
#829 = ORIENTED_EDGE ( 'NONE', *, *, #171, .T. ) ;
#830 = ORIENTED_EDGE ( 'NONE', *, *, #709, .F. ) ;
#831 = DIRECTION ( 'NONE',  ( 1.632680918566406547E-16, 0.000000000000000000, 1.000000000000000000 ) ) ;
#832 = ORIENTED_EDGE ( 'NONE', *, *, #260, .T. ) ;
#833 = DIRECTION ( 'NONE',  ( -1.525031627232357891E-16, 0.000000000000000000, -1.000000000000000000 ) ) ;
#834 = CARTESIAN_POINT ( 'NONE',  ( -66.50000000000000000, 6.000000000000000000, 42.99999999999999289 ) ) ;
#835 = ORIENTED_EDGE ( 'NONE', *, *, #745, .F. ) ;
#836 = CARTESIAN_POINT ( 'NONE',  ( 63.50000000000000000, 3.000000000000000000, -40.00000000000001421 ) ) ;
#837 = ADVANCED_FACE ( 'NONE', ( #520 ), #846, .T. ) ;
#838 = FACE_OUTER_BOUND ( 'NONE', #434, .T. ) ;
#839 = AXIS2_PLACEMENT_3D ( 'NONE', #14, #293, #290 ) ;
#840 = LINE ( 'NONE', #714, #419 ) ;
#841 = EDGE_LOOP ( 'NONE', ( #474, #822, #408, #140 ) ) ;
#842 = DIRECTION ( 'NONE',  ( 0.000000000000000000, -1.000000000000000000, 0.000000000000000000 ) ) ;
#843 = CARTESIAN_POINT ( 'NONE',  ( 61.00000000000000000, 3.000000000000000000, 39.99999999999998579 ) ) ;
#844 = CARTESIAN_POINT ( 'NONE',  ( 63.50000000000000000, 6.000000000000000000, -40.00000000000001421 ) ) ;
#845 = DIRECTION ( 'NONE',  ( 0.000000000000000000, 0.000000000000000000, -1.000000000000000000 ) ) ;
#846 = CYLINDRICAL_SURFACE ( 'NONE', #673, 2.500000000000002220 ) ;
#847 = LINE ( 'NONE', #308, #578 ) ;
#848 = EDGE_CURVE ( 'NONE', #609, #647, #782, .T. ) ;
#849 = DIRECTION ( 'NONE',  ( 0.000000000000000000, 0.7071067811865479058, 0.7071067811865471286 ) ) ;
#850 =( NAMED_UNIT ( * ) SI_UNIT ( $, .STERADIAN. ) SOLID_ANGLE_UNIT ( ) );
#851 = DIRECTION ( 'NONE',  ( -0.000000000000000000, 0.000000000000000000, -1.000000000000000000 ) ) ;
#852 = EDGE_LOOP ( 'NONE', ( #686, #111, #402, #384 ) ) ;
#853 = EDGE_CURVE ( 'NONE', #629, #609, #471, .T. ) ;
#854 = PLANE ( 'NONE',  #421 ) ;
#855 = AXIS2_PLACEMENT_3D ( 'NONE', #173, #501, #833 ) ;
#856 = ORIENTED_EDGE ( 'NONE', *, *, #506, .T. ) ;
#857 = CARTESIAN_POINT ( 'NONE',  ( -60.99999999999998579, 3.000000000000000000, 42.49999999999998579 ) ) ;
ENDSEC;
END-ISO-10303-21;
