ISO-10303-21;
HEADER;
FILE_DESCRIPTION (( 'STEP AP203' ),
    '1' );
FILE_NAME ('NEB-TUBE-SUB-BLOCK-v001.STEP',
    '2019-08-12T17:46:14',
    ( '' ),
    ( '' ),
    'SwSTEP 2.0',
    'SolidWorks 2019',
    '' );
FILE_SCHEMA (( 'CONFIG_CONTROL_DESIGN' ));
ENDSEC;

DATA;
#1 = VERTEX_POINT ( 'NONE', #449 ) ;
#2 = CARTESIAN_POINT ( 'NONE',  ( 39.99999999999995026, 105.0000000000000000, 40.00000000000000000 ) ) ;
#3 = AXIS2_PLACEMENT_3D ( 'NONE', #808, #335, #803 ) ;
#4 = FACE_OUTER_BOUND ( 'NONE', #811, .T. ) ;
#5 = VECTOR ( 'NONE', #690, 1000.000000000000000 ) ;
#6 = CYLINDRICAL_SURFACE ( 'NONE', #384, 5.249999999999997335 ) ;
#7 = EDGE_CURVE ( 'NONE', #864, #677, #599, .T. ) ;
#8 = ORIENTED_EDGE ( 'NONE', *, *, #68, .F. ) ;
#9 = FACE_OUTER_BOUND ( 'NONE', #423, .T. ) ;
#10 = CARTESIAN_POINT ( 'NONE',  ( 27.74999999999996092, 90.00000000000000000, 40.00000000000000000 ) ) ;
#11 = APPROVAL_DATE_TIME ( #371, #408 ) ;
#12 = AXIS2_PLACEMENT_3D ( 'NONE', #182, #20, #377 ) ;
#13 = ORIENTED_EDGE ( 'NONE', *, *, #441, .F. ) ;
#14 = DIRECTION ( 'NONE',  ( 0.0000000000000000000, 0.0000000000000000000, 1.000000000000000000 ) ) ;
#15 = ADVANCED_FACE ( 'NONE', ( #790 ), #597, .F. ) ;
#16 = VECTOR ( 'NONE', #78, 1000.000000000000000 ) ;
#17 = CARTESIAN_POINT ( 'NONE',  ( 0.0000000000000000000, 0.0000000000000000000, 0.0000000000000000000 ) ) ;
#18 = CARTESIAN_POINT ( 'NONE',  ( 22.49999999999997868, 40.00000000000000000, 22.50000000000000000 ) ) ;
#19 = FACE_OUTER_BOUND ( 'NONE', #659, .T. ) ;
#20 = DIRECTION ( 'NONE',  ( -0.0000000000000000000, -0.0000000000000000000, 1.000000000000000000 ) ) ;
#21 = CARTESIAN_POINT ( 'NONE',  ( 22.49999999999996447, 90.00000000000000000, 7.500000000000000000 ) ) ;
#22 =( GEOMETRIC_REPRESENTATION_CONTEXT ( 3 ) GLOBAL_UNCERTAINTY_ASSIGNED_CONTEXT ( ( #544 ) ) GLOBAL_UNIT_ASSIGNED_CONTEXT ( ( #558, #359, #210 ) ) REPRESENTATION_CONTEXT ( 'NONE', 'WORKASPACE' ) );
#23 = VERTEX_POINT ( 'NONE', #386 ) ;
#24 = DIRECTION ( 'NONE',  ( 0.0000000000000000000, 0.0000000000000000000, 1.000000000000000000 ) ) ;
#25 = EDGE_LOOP ( 'NONE', ( #57, #121 ) ) ;
#26 = DIRECTION ( 'NONE',  ( 1.000000000000000000, 3.304235192336775512E-16, -0.0000000000000000000 ) ) ;
#27 = FACE_OUTER_BOUND ( 'NONE', #552, .T. ) ;
#28 = DIRECTION ( 'NONE',  ( 1.000000000000000000, 0.0000000000000000000, 0.0000000000000000000 ) ) ;
#29 = CARTESIAN_POINT ( 'NONE',  ( 22.49999999999997158, 65.00000000000000000, 22.50000000000000000 ) ) ;
#30 = EDGE_CURVE ( 'NONE', #403, #688, #580, .T. ) ;
#31 = ORIENTED_EDGE ( 'NONE', *, *, #128, .T. ) ;
#32 = CARTESIAN_POINT ( 'NONE',  ( 22.49999999999996447, 90.00000000000000000, 40.00000000000000000 ) ) ;
#33 = DIRECTION ( 'NONE',  ( 1.000000000000000000, 0.0000000000000000000, 0.0000000000000000000 ) ) ;
#34 = VERTEX_POINT ( 'NONE', #260 ) ;
#35 = PRODUCT_RELATED_PRODUCT_CATEGORY ( 'detail', '', ( #113 ) ) ;
#36 = ORIENTED_EDGE ( 'NONE', *, *, #363, .T. ) ;
#37 = EDGE_CURVE ( 'NONE', #292, #213, #62, .T. ) ;
#38 = DIRECTION ( 'NONE',  ( -0.0000000000000000000, -0.0000000000000000000, 1.000000000000000000 ) ) ;
#39 = CARTESIAN_POINT ( 'NONE',  ( 39.99999999999997158, 0.0000000000000000000, 0.0000000000000000000 ) ) ;
#40 = EDGE_LOOP ( 'NONE', ( #176, #65, #276, #180 ) ) ;
#41 = DIRECTION ( 'NONE',  ( -3.304235192336775512E-16, 1.000000000000000000, 0.0000000000000000000 ) ) ;
#42 = ORIENTED_EDGE ( 'NONE', *, *, #206, .T. ) ;
#43 = DIRECTION ( 'NONE',  ( -0.0000000000000000000, -0.0000000000000000000, 1.000000000000000000 ) ) ;
#44 = AXIS2_PLACEMENT_3D ( 'NONE', #444, #789, #716 ) ;
#45 = DIRECTION ( 'NONE',  ( 0.0000000000000000000, 0.0000000000000000000, 1.000000000000000000 ) ) ;
#46 = EDGE_LOOP ( 'NONE', ( #760, #771, #665, #796, #446, #36, #286, #249 ) ) ;
#47 = CYLINDRICAL_SURFACE ( 'NONE', #529, 5.249999999999997335 ) ;
#48 = LINE ( 'NONE', #344, #651 ) ;
#49 = ADVANCED_FACE ( 'NONE', ( #183 ), #579, .F. ) ;
#50 = APPROVAL_STATUS ( 'not_yet_approved' ) ;
#51 = AXIS2_PLACEMENT_3D ( 'NONE', #347, #751, #404 ) ;
#52 = ORIENTED_EDGE ( 'NONE', *, *, #495, .F. ) ;
#53 = VECTOR ( 'NONE', #99, 1000.000000000000227 ) ;
#54 = CARTESIAN_POINT ( 'NONE',  ( 24.99999999999998224, 40.00000000000000000, 7.500000000000000000 ) ) ;
#55 = AXIS2_PLACEMENT_3D ( 'NONE', #381, #456, #393 ) ;
#56 = CARTESIAN_POINT ( 'NONE',  ( 22.49999999999997158, 65.00000000000000000, 22.50000000000000000 ) ) ;
#57 = ORIENTED_EDGE ( 'NONE', *, *, #837, .T. ) ;
#58 = LINE ( 'NONE', #637, #224 ) ;
#59 = CIRCLE ( 'NONE', #295, 5.000000000000000000 ) ;
#60 = LINE ( 'NONE', #762, #294 ) ;
#61 = VECTOR ( 'NONE', #718, 1000.000000000000000 ) ;
#62 = CIRCLE ( 'NONE', #186, 4.999999999999997335 ) ;
#63 = ORIENTED_EDGE ( 'NONE', *, *, #734, .F. ) ;
#64 = ADVANCED_FACE ( 'NONE', ( #394 ), #112, .F. ) ;
#65 = ORIENTED_EDGE ( 'NONE', *, *, #354, .F. ) ;
#66 = CARTESIAN_POINT ( 'NONE',  ( 44.99999999999996447, 99.99999999999998579, 0.0000000000000000000 ) ) ;
#67 = SECURITY_CLASSIFICATION ( '', '', #676 ) ;
#68 = EDGE_CURVE ( 'NONE', #575, #896, #869, .T. ) ;
#69 = CIRCLE ( 'NONE', #195, 5.249999999999997335 ) ;
#70 = ORIENTED_EDGE ( 'NONE', *, *, #155, .T. ) ;
#71 = CARTESIAN_POINT ( 'NONE',  ( 4.999999999999965361, 105.0000000000000000, 0.0000000000000000000 ) ) ;
#72 = CARTESIAN_POINT ( 'NONE',  ( 17.24999999999997513, 65.00000000000000000, 22.50000000000000000 ) ) ;
#73 = CIRCLE ( 'NONE', #815, 2.499999999999998668 ) ;
#74 = VERTEX_POINT ( 'NONE', #254 ) ;
#75 = LINE ( 'NONE', #144, #759 ) ;
#76 = AXIS2_PLACEMENT_3D ( 'NONE', #782, #843, #448 ) ;
#77 = LINE ( 'NONE', #72, #107 ) ;
#78 = DIRECTION ( 'NONE',  ( -0.0000000000000000000, -0.0000000000000000000, 1.000000000000000000 ) ) ;
#79 = DIRECTION ( 'NONE',  ( 0.0000000000000000000, 0.0000000000000000000, 1.000000000000000000 ) ) ;
#80 = PERSON_AND_ORGANIZATION ( #173, #83 ) ;
#81 = CYLINDRICAL_SURFACE ( 'NONE', #102, 5.249999999999997335 ) ;
#82 = DIRECTION ( 'NONE',  ( 0.0000000000000000000, 0.0000000000000000000, 1.000000000000000000 ) ) ;
#83 = ORGANIZATION ( 'UNSPECIFIED', 'UNSPECIFIED', '' ) ;
#84 = DIRECTION ( 'NONE',  ( 0.0000000000000000000, 0.0000000000000000000, 1.000000000000000000 ) ) ;
#85 = CARTESIAN_POINT ( 'NONE',  ( 22.49999999999998934, 14.99999999999999289, 22.50000000000000000 ) ) ;
#86 = CALENDAR_DATE ( 2019, 12, 8 ) ;
#87 = EDGE_CURVE ( 'NONE', #474, #593, #707, .T. ) ;
#88 = ORIENTED_EDGE ( 'NONE', *, *, #783, .F. ) ;
#89 = FACE_OUTER_BOUND ( 'NONE', #263, .T. ) ;
#90 = CARTESIAN_POINT ( 'NONE',  ( 22.49999999999997158, 65.00000000000000000, 40.00000000000000000 ) ) ;
#91 = FACE_OUTER_BOUND ( 'NONE', #767, .T. ) ;
#92 = CONICAL_SURFACE ( 'NONE', #232, 2.500000000000002220, 0.1813197744014899138 ) ;
#93 = AXIS2_PLACEMENT_3D ( 'NONE', #797, #714, #33 ) ;
#94 = ORIENTED_EDGE ( 'NONE', *, *, #509, .F. ) ;
#95 = AXIS2_PLACEMENT_3D ( 'NONE', #21, #703, #311 ) ;
#96 = CARTESIAN_POINT ( 'NONE',  ( 44.99999999999998579, 5.000000000000000888, 40.00000000000000000 ) ) ;
#97 = ADVANCED_FACE ( 'NONE', ( #4 ), #375, .F. ) ;
#98 = DIRECTION ( 'NONE',  ( 1.000000000000000000, 0.0000000000000000000, 0.0000000000000000000 ) ) ;
#99 = DIRECTION ( 'NONE',  ( -0.1803278688524586892, 2.208379473872272663E-17, 0.9836065573770491621 ) ) ;
#100 = DIRECTION ( 'NONE',  ( 0.0000000000000000000, -0.0000000000000000000, 1.000000000000000000 ) ) ;
#101 = ADVANCED_FACE ( 'NONE', ( #326 ), #235, .F. ) ;
#102 = AXIS2_PLACEMENT_3D ( 'NONE', #867, #171, #534 ) ;
#103 = ORIENTED_EDGE ( 'NONE', *, *, #457, .F. ) ;
#104 = CARTESIAN_POINT ( 'NONE',  ( 22.49999999999996447, 90.00000000000000000, 22.50000000000000000 ) ) ;
#105 = AXIS2_PLACEMENT_3D ( 'NONE', #670, #38, #336 ) ;
#106 = DIRECTION ( 'NONE',  ( 1.000000000000000000, 0.0000000000000000000, 0.0000000000000000000 ) ) ;
#107 = VECTOR ( 'NONE', #362, 1000.000000000000000 ) ;
#108 = ORIENTED_EDGE ( 'NONE', *, *, #160, .T. ) ;
#109 = DIRECTION ( 'NONE',  ( 1.000000000000000000, 0.0000000000000000000, 0.0000000000000000000 ) ) ;
#110 = APPROVAL ( #478, 'UNSPECIFIED' ) ;
#111 = ORIENTED_EDGE ( 'NONE', *, *, #128, .F. ) ;
#112 = CONICAL_SURFACE ( 'NONE', #856, 2.500000000000002220, 0.1813197744014899138 ) ;
#113 = PRODUCT ( 'NEB-TUBE-SUB-BLOCK-v001', 'NEB-TUBE-SUB-BLOCK-v001', '', ( #705 ) ) ;
#114 = CALENDAR_DATE ( 2019, 12, 8 ) ;
#115 = ADVANCED_FACE ( 'NONE', ( #508 ), #163, .T. ) ;
#116 = EDGE_LOOP ( 'NONE', ( #264, #417, #522, #132 ) ) ;
#117 = DIRECTION ( 'NONE',  ( 1.000000000000000000, 0.0000000000000000000, 0.0000000000000000000 ) ) ;
#118 = FACE_OUTER_BOUND ( 'NONE', #116, .T. ) ;
#119 = LOCAL_TIME ( 10, 46, 14.00000000000000000, #620 ) ;
#120 = CC_DESIGN_DATE_AND_TIME_ASSIGNMENT ( #870, #736, ( #684 ) ) ;
#121 = ORIENTED_EDGE ( 'NONE', *, *, #739, .T. ) ;
#122 = PRODUCT_DEFINITION_SHAPE ( 'NONE', 'NONE',  #684 ) ;
#123 = ORIENTED_EDGE ( 'NONE', *, *, #549, .T. ) ;
#124 = FACE_BOUND ( 'NONE', #787, .T. ) ;
#125 = EDGE_CURVE ( 'NONE', #538, #271, #774, .T. ) ;
#126 = CIRCLE ( 'NONE', #351, 5.249999999999997335 ) ;
#127 = ORIENTED_EDGE ( 'NONE', *, *, #160, .F. ) ;
#128 = EDGE_CURVE ( 'NONE', #1, #692, #216, .T. ) ;
#129 = CARTESIAN_POINT ( 'NONE',  ( 44.99999999999998579, 5.000000000000000888, 0.0000000000000000000 ) ) ;
#130 = APPROVAL_DATE_TIME ( #262, #110 ) ;
#131 = CONICAL_SURFACE ( 'NONE', #798, 2.500000000000002220, 0.1813197744014899138 ) ;
#132 = ORIENTED_EDGE ( 'NONE', *, *, #621, .T. ) ;
#133 = FACE_OUTER_BOUND ( 'NONE', #632, .T. ) ;
#134 = DIRECTION ( 'NONE',  ( 0.0000000000000000000, 0.0000000000000000000, -1.000000000000000000 ) ) ;
#135 = VECTOR ( 'NONE', #725, 1000.000000000000000 ) ;
#136 = DIRECTION ( 'NONE',  ( 0.1803278688524586892, 0.0000000000000000000, 0.9836065573770491621 ) ) ;
#137 = CARTESIAN_POINT ( 'NONE',  ( 4.999999999999998224, 5.000000000000000000, 40.00000000000000000 ) ) ;
#138 = ORIENTED_EDGE ( 'NONE', *, *, #453, .T. ) ;
#139 = DIRECTION ( 'NONE',  ( 0.0000000000000000000, 0.0000000000000000000, 1.000000000000000000 ) ) ;
#140 = CARTESIAN_POINT ( 'NONE',  ( 4.999999999999967137, 99.99999999999998579, 40.00000000000000000 ) ) ;
#141 = VECTOR ( 'NONE', #836, 1000.000000000000000 ) ;
#142 = ORIENTED_EDGE ( 'NONE', *, *, #269, .F. ) ;
#143 = EDGE_CURVE ( 'NONE', #527, #185, #585, .T. ) ;
#144 = CARTESIAN_POINT ( 'NONE',  ( 24.99999999999998934, 14.99999999999999289, 7.500000000000000000 ) ) ;
#145 = CYLINDRICAL_SURFACE ( 'NONE', #606, 5.000000000000000000 ) ;
#146 = EDGE_LOOP ( 'NONE', ( #730, #541, #123, #559 ) ) ;
#147 = DIRECTION ( 'NONE',  ( -1.000000000000000000, 0.0000000000000000000, 0.0000000000000000000 ) ) ;
#148 = CIRCLE ( 'NONE', #770, 2.499999999999998668 ) ;
#149 = CC_DESIGN_DATE_AND_TIME_ASSIGNMENT ( #801, #410, ( #67 ) ) ;
#150 = AXIS2_PLACEMENT_3D ( 'NONE', #832, #221, #582 ) ;
#151 = ORIENTED_EDGE ( 'NONE', *, *, #671, .F. ) ;
#152 = CARTESIAN_POINT ( 'NONE',  ( 27.74999999999996092, 90.00000000000000000, 22.50000000000000000 ) ) ;
#153 = CARTESIAN_POINT ( 'NONE',  ( -3.469446951953614189E-14, 105.0000000000000000, 40.00000000000000000 ) ) ;
#154 = FACE_OUTER_BOUND ( 'NONE', #466, .T. ) ;
#155 = EDGE_CURVE ( 'NONE', #863, #538, #629, .T. ) ;
#156 = AXIS2_PLACEMENT_3D ( 'NONE', #652, #231, #642 ) ;
#157 = DIRECTION ( 'NONE',  ( 0.0000000000000000000, 0.0000000000000000000, 1.000000000000000000 ) ) ;
#158 = LINE ( 'NONE', #205, #187 ) ;
#159 = DIRECTION ( 'NONE',  ( -0.1803278688524586892, 2.208379473872272663E-17, 0.9836065573770491621 ) ) ;
#160 = EDGE_CURVE ( 'NONE', #709, #677, #383, .T. ) ;
#161 = EDGE_LOOP ( 'NONE', ( #738, #672 ) ) ;
#162 = CARTESIAN_POINT ( 'NONE',  ( 4.999999999999967137, 99.99999999999998579, 40.00000000000000000 ) ) ;
#163 = PLANE ( 'NONE',  #201 ) ;
#164 = ADVANCED_FACE ( 'NONE', ( #154 ), #557, .F. ) ;
#165 = ORIENTED_EDGE ( 'NONE', *, *, #671, .T. ) ;
#166 = CARTESIAN_POINT ( 'NONE',  ( -3.304235192336775117E-14, 99.99999999999998579, 40.00000000000000000 ) ) ;
#167 = CARTESIAN_POINT ( 'NONE',  ( -3.469446951953614189E-14, 105.0000000000000000, 0.0000000000000000000 ) ) ;
#168 = VERTEX_POINT ( 'NONE', #10 ) ;
#169 = EDGE_CURVE ( 'NONE', #497, #437, #252, .T. ) ;
#170 = ORIENTED_EDGE ( 'NONE', *, *, #712, .F. ) ;
#171 = DIRECTION ( 'NONE',  ( -0.0000000000000000000, -0.0000000000000000000, 1.000000000000000000 ) ) ;
#172 = DIRECTION ( 'NONE',  ( -1.000000000000000000, 0.0000000000000000000, 0.0000000000000000000 ) ) ;
#173 = PERSON ( 'UNSPECIFIED', 'UNSPECIFIED', 'UNSPECIFIED', ('UNSPECIFIED'), ('UNSPECIFIED'), ('UNSPECIFIED') ) ;
#174 = DIRECTION ( 'NONE',  ( 1.000000000000000000, 0.0000000000000000000, 0.0000000000000000000 ) ) ;
#175 = ORIENTED_EDGE ( 'NONE', *, *, #284, .F. ) ;
#176 = ORIENTED_EDGE ( 'NONE', *, *, #143, .F. ) ;
#177 = CARTESIAN_POINT ( 'NONE',  ( 19.99999999999997513, 40.00000000000000000, 7.500000000000000000 ) ) ;
#178 = CARTESIAN_POINT ( 'NONE',  ( 22.49999999999998934, 14.99999999999999289, 22.50000000000000000 ) ) ;
#179 = CIRCLE ( 'NONE', #571, 4.999999999999997335 ) ;
#180 = ORIENTED_EDGE ( 'NONE', *, *, #783, .T. ) ;
#181 = ORIENTED_EDGE ( 'NONE', *, *, #430, .F. ) ;
#182 = CARTESIAN_POINT ( 'NONE',  ( 39.99999999999998579, 5.000000000000000000, 40.00000000000000000 ) ) ;
#183 = FACE_OUTER_BOUND ( 'NONE', #791, .T. ) ;
#184 = PERSON_AND_ORGANIZATION ( #173, #83 ) ;
#185 = VERTEX_POINT ( 'NONE', #367 ) ;
#186 = AXIS2_PLACEMENT_3D ( 'NONE', #800, #458, #732 ) ;
#187 = VECTOR ( 'NONE', #285, 1000.000000000000227 ) ;
#188 = ADVANCED_FACE ( 'NONE', ( #370 ), #786, .F. ) ;
#189 = PERSON_AND_ORGANIZATION ( #173, #83 ) ;
#190 = EDGE_LOOP ( 'NONE', ( #197, #830, #892, #826 ) ) ;
#191 = LINE ( 'NONE', #177, #795 ) ;
#192 = LOCAL_TIME ( 10, 46, 14.00000000000000000, #681 ) ;
#193 = PERSON_AND_ORGANIZATION ( #173, #83 ) ;
#194 = ORIENTED_EDGE ( 'NONE', *, *, #239, .F. ) ;
#195 = AXIS2_PLACEMENT_3D ( 'NONE', #827, #219, #496 ) ;
#196 = LINE ( 'NONE', #472, #503 ) ;
#197 = ORIENTED_EDGE ( 'NONE', *, *, #87, .F. ) ;
#198 = FACE_BOUND ( 'NONE', #857, .T. ) ;
#199 = EDGE_CURVE ( 'NONE', #794, #329, #406, .T. ) ;
#200 = AXIS2_PLACEMENT_3D ( 'NONE', #320, #507, #781 ) ;
#201 = AXIS2_PLACEMENT_3D ( 'NONE', #17, #317, #662 ) ;
#202 = COORDINATED_UNIVERSAL_TIME_OFFSET ( 8, 0, .BEHIND. ) ;
#203 = ORIENTED_EDGE ( 'NONE', *, *, #630, .T. ) ;
#204 = CARTESIAN_POINT ( 'NONE',  ( 27.74999999999997513, 40.00000000000000000, 22.50000000000000000 ) ) ;
#205 = CARTESIAN_POINT ( 'NONE',  ( 24.99999999999996803, 90.00000000000000000, 7.500000000000000000 ) ) ;
#206 = EDGE_CURVE ( 'NONE', #474, #208, #805, .T. ) ;
#207 = AXIS2_PLACEMENT_3D ( 'NONE', #265, #26, #41 ) ;
#208 = VERTEX_POINT ( 'NONE', #510 ) ;
#209 = VECTOR ( 'NONE', #412, 1000.000000000000000 ) ;
#210 =( NAMED_UNIT ( * ) SI_UNIT ( $, .STERADIAN. ) SOLID_ANGLE_UNIT ( ) );
#211 = CARTESIAN_POINT ( 'NONE',  ( 0.0000000000000000000, 0.0000000000000000000, 0.0000000000000000000 ) ) ;
#212 = ADVANCED_FACE ( 'NONE', ( #91 ), #307, .F. ) ;
#213 = VERTEX_POINT ( 'NONE', #39 ) ;
#214 = CARTESIAN_POINT ( 'NONE',  ( -3.304235192336775117E-14, 99.99999999999998579, 40.00000000000000000 ) ) ;
#215 = APPLICATION_PROTOCOL_DEFINITION ( 'international standard', 'config_control_design', 1994, #765 ) ;
#216 = CIRCLE ( 'NONE', #828, 5.249999999999997335 ) ;
#217 = CC_DESIGN_PERSON_AND_ORGANIZATION_ASSIGNMENT ( #547, #743, ( #740 ) ) ;
#218 = ORIENTED_EDGE ( 'NONE', *, *, #372, .F. ) ;
#219 = DIRECTION ( 'NONE',  ( 0.0000000000000000000, 0.0000000000000000000, 1.000000000000000000 ) ) ;
#220 = ORIENTED_EDGE ( 'NONE', *, *, #310, .F. ) ;
#221 = DIRECTION ( 'NONE',  ( -0.0000000000000000000, -0.0000000000000000000, 1.000000000000000000 ) ) ;
#222 = ADVANCED_FACE ( 'NONE', ( #118 ), #598, .F. ) ;
#223 = CARTESIAN_POINT ( 'NONE',  ( 22.49999999999997158, 65.00000000000000000, 7.499999999999980460 ) ) ;
#224 = VECTOR ( 'NONE', #422, 1000.000000000000000 ) ;
#225 = CIRCLE ( 'NONE', #727, 2.499999999999998668 ) ;
#226 = CARTESIAN_POINT ( 'NONE',  ( 27.74999999999996803, 65.00000000000000000, 22.50000000000000000 ) ) ;
#227 = ORIENTED_EDGE ( 'NONE', *, *, #372, .T. ) ;
#228 = CARTESIAN_POINT ( 'NONE',  ( 22.49999999999997868, 40.00000000000000000, 7.500000000000000000 ) ) ;
#229 = DIRECTION ( 'NONE',  ( -1.000000000000000000, 0.0000000000000000000, 0.0000000000000000000 ) ) ;
#230 = ADVANCED_FACE ( 'NONE', ( #519 ), #721, .F. ) ;
#231 = DIRECTION ( 'NONE',  ( -0.0000000000000000000, 0.0000000000000000000, -1.000000000000000000 ) ) ;
#232 = AXIS2_PLACEMENT_3D ( 'NONE', #524, #862, #109 ) ;
#233 = APPROVAL_ROLE ( '' ) ;
#234 = DIRECTION ( 'NONE',  ( 1.000000000000000000, 0.0000000000000000000, 0.0000000000000000000 ) ) ;
#235 = CONICAL_SURFACE ( 'NONE', #95, 2.500000000000002220, 0.1813197744014899138 ) ;
#236 = ORIENTED_EDGE ( 'NONE', *, *, #728, .F. ) ;
#237 = CARTESIAN_POINT ( 'NONE',  ( 24.99999999999997158, 65.00000000000000000, 7.499999999999980460 ) ) ;
#238 = DIRECTION ( 'NONE',  ( 0.0000000000000000000, -0.0000000000000000000, -1.000000000000000000 ) ) ;
#239 = EDGE_CURVE ( 'NONE', #74, #575, #158, .T. ) ;
#240 = CARTESIAN_POINT ( 'NONE',  ( 27.74999999999996092, 90.00000000000000000, 22.50000000000000000 ) ) ;
#241 = CARTESIAN_POINT ( 'NONE',  ( 44.99999999999998579, 0.0000000000000000000, 40.00000000000000000 ) ) ;
#242 = LOCAL_TIME ( 10, 46, 14.00000000000000000, #581 ) ;
#243 = CARTESIAN_POINT ( 'NONE',  ( 17.24999999999998224, 40.00000000000000000, 22.50000000000000000 ) ) ;
#244 = ORIENTED_EDGE ( 'NONE', *, *, #799, .F. ) ;
#245 = ADVANCED_FACE ( 'NONE', ( #486 ), #888, .F. ) ;
#246 = FACE_OUTER_BOUND ( 'NONE', #332, .T. ) ;
#247 = DIRECTION ( 'NONE',  ( 0.0000000000000000000, 0.0000000000000000000, 1.000000000000000000 ) ) ;
#248 = DIRECTION ( 'NONE',  ( 0.0000000000000000000, 0.0000000000000000000, 1.000000000000000000 ) ) ;
#249 = ORIENTED_EDGE ( 'NONE', *, *, #679, .T. ) ;
#250 = AXIS2_PLACEMENT_3D ( 'NONE', #573, #545, #229 ) ;
#251 = ORIENTED_EDGE ( 'NONE', *, *, #199, .T. ) ;
#252 = CIRCLE ( 'NONE', #352, 2.499999999999998668 ) ;
#253 = CARTESIAN_POINT ( 'NONE',  ( 22.49999999999997868, 40.00000000000000000, 7.500000000000000000 ) ) ;
#254 = CARTESIAN_POINT ( 'NONE',  ( 24.99999999999996447, 90.00000000000000000, 7.499999999999980460 ) ) ;
#255 = DIRECTION ( 'NONE',  ( 0.0000000000000000000, 0.0000000000000000000, 1.000000000000000000 ) ) ;
#256 = CARTESIAN_POINT ( 'NONE',  ( 39.99999999999995026, 105.0000000000000000, 0.0000000000000000000 ) ) ;
#257 = EDGE_LOOP ( 'NONE', ( #750, #845, #411, #298 ) ) ;
#258 = DIRECTION ( 'NONE',  ( 0.0000000000000000000, 0.0000000000000000000, 1.000000000000000000 ) ) ;
#259 = ADVANCED_FACE ( 'NONE', ( #551 ), #287, .T. ) ;
#260 = CARTESIAN_POINT ( 'NONE',  ( 24.99999999999998579, 14.99999999999999289, 7.499999999999980460 ) ) ;
#261 = AXIS2_PLACEMENT_3D ( 'NONE', #343, #615, #117 ) ;
#262 = DATE_AND_TIME ( #540, #467 ) ;
#263 = EDGE_LOOP ( 'NONE', ( #744, #349, #379, #170 ) ) ;
#264 = ORIENTED_EDGE ( 'NONE', *, *, #269, .T. ) ;
#265 = CARTESIAN_POINT ( 'NONE',  ( 0.0000000000000000000, 0.0000000000000000000, 40.00000000000000000 ) ) ;
#266 = CARTESIAN_POINT ( 'NONE',  ( 4.999999999999967137, 105.0000000000000000, 40.00000000000000000 ) ) ;
#267 = CIRCLE ( 'NONE', #687, 5.249999999999997335 ) ;
#268 = CIRCLE ( 'NONE', #884, 5.249999999999997335 ) ;
#269 = EDGE_CURVE ( 'NONE', #863, #213, #821, .T. ) ;
#270 = COORDINATED_UNIVERSAL_TIME_OFFSET ( 8, 0, .BEHIND. ) ;
#271 = VERTEX_POINT ( 'NONE', #686 ) ;
#272 = CARTESIAN_POINT ( 'NONE',  ( 22.49999999999997158, 65.00000000000000000, 7.500000000000000000 ) ) ;
#273 = AXIS2_PLACEMENT_3D ( 'NONE', #228, #501, #776 ) ;
#274 = PERSON_AND_ORGANIZATION ( #173, #83 ) ;
#275 = EDGE_CURVE ( 'NONE', #601, #720, #432, .T. ) ;
#276 = ORIENTED_EDGE ( 'NONE', *, *, #643, .T. ) ;
#277 = FACE_OUTER_BOUND ( 'NONE', #46, .T. ) ;
#278 = CIRCLE ( 'NONE', #468, 2.499999999999998668 ) ;
#279 = CARTESIAN_POINT ( 'NONE',  ( 39.99999999999996447, 99.99999999999998579, 0.0000000000000000000 ) ) ;
#280 = DIRECTION ( 'NONE',  ( -1.000000000000000000, 0.0000000000000000000, 0.0000000000000000000 ) ) ;
#281 = EDGE_LOOP ( 'NONE', ( #682, #548, #851, #387 ) ) ;
#282 = CARTESIAN_POINT ( 'NONE',  ( 19.99999999999996447, 90.00000000000000000, 7.499999999999980460 ) ) ;
#283 = LINE ( 'NONE', #813, #209 ) ;
#284 = EDGE_CURVE ( 'NONE', #896, #401, #680, .T. ) ;
#285 = DIRECTION ( 'NONE',  ( 0.1803278688524586892, 0.0000000000000000000, 0.9836065573770491621 ) ) ;
#286 = ORIENTED_EDGE ( 'NONE', *, *, #495, .T. ) ;
#287 = CYLINDRICAL_SURFACE ( 'NONE', #653, 5.000000000000000000 ) ;
#288 = VECTOR ( 'NONE', #136, 1000.000000000000227 ) ;
#289 = ORIENTED_EDGE ( 'NONE', *, *, #435, .F. ) ;
#290 = CC_DESIGN_SECURITY_CLASSIFICATION ( #67, ( #740 ) ) ;
#291 = DATE_AND_TIME ( #114, #119 ) ;
#292 = VERTEX_POINT ( 'NONE', #129 ) ;
#293 = CYLINDRICAL_SURFACE ( 'NONE', #588, 5.249999999999997335 ) ;
#294 = VECTOR ( 'NONE', #341, 1000.000000000000227 ) ;
#295 = AXIS2_PLACEMENT_3D ( 'NONE', #162, #447, #528 ) ;
#296 = AXIS2_PLACEMENT_3D ( 'NONE', #638, #518, #667 ) ;
#297 = EDGE_CURVE ( 'NONE', #834, #807, #482, .T. ) ;
#298 = ORIENTED_EDGE ( 'NONE', *, *, #68, .T. ) ;
#299 = CARTESIAN_POINT ( 'NONE',  ( 39.99999999999998579, 5.000000000000000000, 40.00000000000000000 ) ) ;
#300 = DIRECTION ( 'NONE',  ( 0.1803278688524586892, 0.0000000000000000000, 0.9836065573770491621 ) ) ;
#301 = ORIENTED_EDGE ( 'NONE', *, *, #476, .T. ) ;
#302 = EDGE_CURVE ( 'NONE', #688, #403, #268, .T. ) ;
#303 = CIRCLE ( 'NONE', #55, 5.249999999999997335 ) ;
#304 = VERTEX_POINT ( 'NONE', #883 ) ;
#305 = CYLINDRICAL_SURFACE ( 'NONE', #250, 4.999999999999997335 ) ;
#306 = CARTESIAN_POINT ( 'NONE',  ( 22.49999999999998934, 14.99999999999999289, 40.00000000000000000 ) ) ;
#307 = CYLINDRICAL_SURFACE ( 'NONE', #463, 5.249999999999997335 ) ;
#308 = CARTESIAN_POINT ( 'NONE',  ( 24.99999999999997513, 65.00000000000000000, 7.500000000000000000 ) ) ;
#309 = LINE ( 'NONE', #841, #715 ) ;
#310 = EDGE_CURVE ( 'NONE', #497, #403, #60, .T. ) ;
#311 = DIRECTION ( 'NONE',  ( 1.000000000000000000, 0.0000000000000000000, 0.0000000000000000000 ) ) ;
#312 = PERSON_AND_ORGANIZATION_ROLE ( 'design_owner' ) ;
#313 = VECTOR ( 'NONE', #159, 1000.000000000000227 ) ;
#314 = VECTOR ( 'NONE', #641, 1000.000000000000000 ) ;
#315 = ORIENTED_EDGE ( 'NONE', *, *, #831, .T. ) ;
#316 = LINE ( 'NONE', #166, #135 ) ;
#317 = DIRECTION ( 'NONE',  ( 0.0000000000000000000, 0.0000000000000000000, -1.000000000000000000 ) ) ;
#318 = EDGE_CURVE ( 'NONE', #324, #489, #873, .T. ) ;
#319 = ORIENTED_EDGE ( 'NONE', *, *, #712, .T. ) ;
#320 = CARTESIAN_POINT ( 'NONE',  ( 22.49999999999998934, 14.99999999999999289, 7.499999999999980460 ) ) ;
#321 = DIRECTION ( 'NONE',  ( 1.000000000000000000, 0.0000000000000000000, 0.0000000000000000000 ) ) ;
#322 = CC_DESIGN_PERSON_AND_ORGANIZATION_ASSIGNMENT ( #193, #469, ( #740 ) ) ;
#323 = ORIENTED_EDGE ( 'NONE', *, *, #199, .F. ) ;
#324 = VERTEX_POINT ( 'NONE', #2 ) ;
#325 = CYLINDRICAL_SURFACE ( 'NONE', #261, 5.249999999999997335 ) ;
#326 = FACE_OUTER_BOUND ( 'NONE', #257, .T. ) ;
#327 = DIRECTION ( 'NONE',  ( -0.0000000000000000000, -0.0000000000000000000, 1.000000000000000000 ) ) ;
#328 = ADVANCED_FACE ( 'NONE', ( #701 ), #305, .T. ) ;
#329 = VERTEX_POINT ( 'NONE', #777 ) ;
#330 = AXIS2_PLACEMENT_3D ( 'NONE', #90, #656, #321 ) ;
#331 = CARTESIAN_POINT ( 'NONE',  ( 17.24999999999998224, 40.00000000000000000, 22.50000000000000000 ) ) ;
#332 = EDGE_LOOP ( 'NONE', ( #244, #357, #840, #614 ) ) ;
#333 = EDGE_CURVE ( 'NONE', #864, #538, #196, .T. ) ;
#334 = ORIENTED_EDGE ( 'NONE', *, *, #630, .F. ) ;
#335 = DIRECTION ( 'NONE',  ( 0.0000000000000000000, 0.0000000000000000000, 1.000000000000000000 ) ) ;
#336 = DIRECTION ( 'NONE',  ( -1.000000000000000000, 0.0000000000000000000, 0.0000000000000000000 ) ) ;
#337 = ORIENTED_EDGE ( 'NONE', *, *, #563, .T. ) ;
#338 = ORIENTED_EDGE ( 'NONE', *, *, #844, .F. ) ;
#339 = DIRECTION ( 'NONE',  ( 0.0000000000000000000, 0.0000000000000000000, 1.000000000000000000 ) ) ;
#340 = EDGE_CURVE ( 'NONE', #292, #601, #48, .T. ) ;
#341 = DIRECTION ( 'NONE',  ( -0.1803278688524586892, 2.208379473872272663E-17, 0.9836065573770491621 ) ) ;
#342 = ORIENTED_EDGE ( 'NONE', *, *, #591, .F. ) ;
#343 = CARTESIAN_POINT ( 'NONE',  ( 22.49999999999997158, 65.00000000000000000, 22.50000000000000000 ) ) ;
#344 = CARTESIAN_POINT ( 'NONE',  ( 44.99999999999998579, 0.0000000000000000000, 0.0000000000000000000 ) ) ;
#345 = ADVANCED_FACE ( 'NONE', ( #710 ), #92, .F. ) ;
#346 = ORIENTED_EDGE ( 'NONE', *, *, #143, .T. ) ;
#347 = CARTESIAN_POINT ( 'NONE',  ( 0.0000000000000000000, 0.0000000000000000000, 40.00000000000000000 ) ) ;
#348 = CARTESIAN_POINT ( 'NONE',  ( 19.99999999999997158, 65.00000000000000000, 7.499999999999980460 ) ) ;
#349 = ORIENTED_EDGE ( 'NONE', *, *, #310, .T. ) ;
#350 = LINE ( 'NONE', #54, #288 ) ;
#351 = AXIS2_PLACEMENT_3D ( 'NONE', #178, #247, #516 ) ;
#352 = AXIS2_PLACEMENT_3D ( 'NONE', #433, #84, #440 ) ;
#353 = ORIENTED_EDGE ( 'NONE', *, *, #536, .F. ) ;
#354 = EDGE_CURVE ( 'NONE', #34, #527, #491, .T. ) ;
#355 = DIRECTION ( 'NONE',  ( 0.0000000000000000000, 0.0000000000000000000, -1.000000000000000000 ) ) ;
#356 = CC_DESIGN_APPROVAL ( #110, ( #740 ) ) ;
#357 = ORIENTED_EDGE ( 'NONE', *, *, #453, .F. ) ;
#358 = DIRECTION ( 'NONE',  ( -0.0000000000000000000, -0.0000000000000000000, 1.000000000000000000 ) ) ;
#359 =( NAMED_UNIT ( * ) PLANE_ANGLE_UNIT ( ) SI_UNIT ( $, .RADIAN. ) );
#360 = ORIENTED_EDGE ( 'NONE', *, *, #37, .F. ) ;
#361 = DIRECTION ( 'NONE',  ( 0.0000000000000000000, 0.0000000000000000000, 1.000000000000000000 ) ) ;
#362 = DIRECTION ( 'NONE',  ( -0.0000000000000000000, -0.0000000000000000000, 1.000000000000000000 ) ) ;
#363 = EDGE_CURVE ( 'NONE', #489, #626, #59, .T. ) ;
#364 = ORIENTED_EDGE ( 'NONE', *, *, #521, .F. ) ;
#365 = DIRECTION ( 'NONE',  ( -0.0000000000000000000, -0.0000000000000000000, 1.000000000000000000 ) ) ;
#366 = CARTESIAN_POINT ( 'NONE',  ( 22.49999999999997158, 65.00000000000000000, 7.500000000000000000 ) ) ;
#367 = CARTESIAN_POINT ( 'NONE',  ( 17.24999999999998934, 14.99999999999999289, 22.50000000000000000 ) ) ;
#368 = APPLICATION_PROTOCOL_DEFINITION ( 'international standard', 'config_control_design', 1994, #635 ) ;
#369 = DIRECTION ( 'NONE',  ( 0.0000000000000000000, 0.0000000000000000000, 1.000000000000000000 ) ) ;
#370 = FACE_OUTER_BOUND ( 'NONE', #25, .T. ) ;
#371 = DATE_AND_TIME ( #86, #242 ) ;
#372 = EDGE_CURVE ( 'NONE', #401, #168, #267, .T. ) ;
#373 = ORIENTED_EDGE ( 'NONE', *, *, #521, .T. ) ;
#374 = CARTESIAN_POINT ( 'NONE',  ( 22.49999999999997868, 40.00000000000000000, 7.499999999999980460 ) ) ;
#375 = PLANE ( 'NONE',  #392 ) ;
#376 = DIRECTION ( 'NONE',  ( -1.000000000000000000, 0.0000000000000000000, 0.0000000000000000000 ) ) ;
#377 = DIRECTION ( 'NONE',  ( -1.000000000000000000, 0.0000000000000000000, 0.0000000000000000000 ) ) ;
#378 = CARTESIAN_POINT ( 'NONE',  ( 19.99999999999998579, 14.99999999999999289, 7.500000000000000000 ) ) ;
#379 = ORIENTED_EDGE ( 'NONE', *, *, #30, .T. ) ;
#380 = CARTESIAN_POINT ( 'NONE',  ( 22.49999999999997868, 40.00000000000000000, 7.500000000000000000 ) ) ;
#381 = CARTESIAN_POINT ( 'NONE',  ( 22.49999999999998934, 14.99999999999999289, 22.50000000000000000 ) ) ;
#382 = DIRECTION ( 'NONE',  ( -1.000000000000000000, -1.982541115402065110E-16, 0.0000000000000000000 ) ) ;
#383 = LINE ( 'NONE', #167, #702 ) ;
#384 = AXIS2_PLACEMENT_3D ( 'NONE', #18, #775, #234 ) ;
#385 = EDGE_CURVE ( 'NONE', #208, #474, #537, .T. ) ;
#386 = CARTESIAN_POINT ( 'NONE',  ( 44.99999999999998579, 5.000000000000000888, 40.00000000000000000 ) ) ;
#387 = ORIENTED_EDGE ( 'NONE', *, *, #621, .F. ) ;
#388 = PLANE ( 'NONE',  #207 ) ;
#389 = DIRECTION ( 'NONE',  ( 1.000000000000000000, 0.0000000000000000000, 0.0000000000000000000 ) ) ;
#390 = EDGE_LOOP ( 'NONE', ( #175, #8, #809, #315 ) ) ;
#391 = VERTEX_POINT ( 'NONE', #849 ) ;
#392 = AXIS2_PLACEMENT_3D ( 'NONE', #574, #838, #238 ) ;
#393 = DIRECTION ( 'NONE',  ( 1.000000000000000000, 0.0000000000000000000, 0.0000000000000000000 ) ) ;
#394 = FACE_OUTER_BOUND ( 'NONE', #531, .T. ) ;
#395 = DIRECTION ( 'NONE',  ( 1.000000000000000000, 0.0000000000000000000, 0.0000000000000000000 ) ) ;
#396 = ORIENTED_EDGE ( 'NONE', *, *, #610, .T. ) ;
#397 = EDGE_CURVE ( 'NONE', #807, #23, #748, .T. ) ;
#398 = VECTOR ( 'NONE', #576, 1000.000000000000000 ) ;
#399 = DIRECTION ( 'NONE',  ( 0.0000000000000000000, 1.000000000000000000, 0.0000000000000000000 ) ) ;
#400 = PERSON_AND_ORGANIZATION_ROLE ( 'creator' ) ;
#401 = VERTEX_POINT ( 'NONE', #706 ) ;
#402 = DIRECTION ( 'NONE',  ( 0.0000000000000000000, -0.0000000000000000000, 1.000000000000000000 ) ) ;
#403 = VERTEX_POINT ( 'NONE', #438 ) ;
#404 = DIRECTION ( 'NONE',  ( -1.000000000000000000, 0.0000000000000000000, -0.0000000000000000000 ) ) ;
#405 = VECTOR ( 'NONE', #577, 1000.000000000000000 ) ;
#406 = CIRCLE ( 'NONE', #330, 5.249999999999997335 ) ;
#407 = DIRECTION ( 'NONE',  ( 1.000000000000000000, 0.0000000000000000000, 0.0000000000000000000 ) ) ;
#408 = APPROVAL ( #434, 'UNSPECIFIED' ) ;
#409 = CARTESIAN_POINT ( 'NONE',  ( 44.99999999999996447, 99.99999999999998579, 40.00000000000000000 ) ) ;
#410 = DATE_TIME_ROLE ( 'classification_date' ) ;
#411 = ORIENTED_EDGE ( 'NONE', *, *, #239, .T. ) ;
#412 = DIRECTION ( 'NONE',  ( 3.304235192336775512E-16, -1.000000000000000000, -0.0000000000000000000 ) ) ;
#413 = ADVANCED_FACE ( 'NONE', ( #89 ), #825, .F. ) ;
#414 = AXIS2_PLACEMENT_3D ( 'NONE', #241, #382, #660 ) ;
#415 = EDGE_LOOP ( 'NONE', ( #181, #88, #421, #31 ) ) ;
#416 = EDGE_CURVE ( 'NONE', #185, #885, #126, .T. ) ;
#417 = ORIENTED_EDGE ( 'NONE', *, *, #556, .T. ) ;
#418 = VECTOR ( 'NONE', #428, 1000.000000000000000 ) ;
#419 = CONICAL_SURFACE ( 'NONE', #741, 2.500000000000002220, 0.1813197744014899138 ) ;
#420 = AXIS2_PLACEMENT_3D ( 'NONE', #366, #758, #280 ) ;
#421 = ORIENTED_EDGE ( 'NONE', *, *, #509, .T. ) ;
#422 = DIRECTION ( 'NONE',  ( -0.0000000000000000000, 0.0000000000000000000, -1.000000000000000000 ) ) ;
#423 = EDGE_LOOP ( 'NONE', ( #852, #515, #479, #590 ) ) ;
#424 = CARTESIAN_POINT ( 'NONE',  ( 22.49999999999997158, 65.00000000000000000, 22.50000000000000000 ) ) ;
#425 = CARTESIAN_POINT ( 'NONE',  ( 44.99999999999996447, 99.99999999999998579, 40.00000000000000000 ) ) ;
#426 = ORIENTED_EDGE ( 'NONE', *, *, #397, .F. ) ;
#427 = LINE ( 'NONE', #764, #619 ) ;
#428 = DIRECTION ( 'NONE',  ( -1.000000000000000000, -0.0000000000000000000, -0.0000000000000000000 ) ) ;
#429 = CARTESIAN_POINT ( 'NONE',  ( 22.49999999999996447, 90.00000000000000000, 7.500000000000000000 ) ) ;
#430 = EDGE_CURVE ( 'NONE', #185, #692, #788, .T. ) ;
#431 = AXIS2_PLACEMENT_3D ( 'NONE', #589, #248, #174 ) ;
#432 = LINE ( 'NONE', #409, #16 ) ;
#433 = CARTESIAN_POINT ( 'NONE',  ( 22.49999999999997158, 65.00000000000000000, 7.499999999999980460 ) ) ;
#434 = APPROVAL_STATUS ( 'not_yet_approved' ) ;
#435 = EDGE_CURVE ( 'NONE', #324, #709, #309, .T. ) ;
#436 = APPROVAL_PERSON_ORGANIZATION ( #839, #408, #233 ) ;
#437 = VERTEX_POINT ( 'NONE', #237 ) ;
#438 = CARTESIAN_POINT ( 'NONE',  ( 17.24999999999997513, 65.00000000000000000, 22.50000000000000000 ) ) ;
#439 = AXIS2_PLACEMENT_3D ( 'NONE', #627, #361, #490 ) ;
#440 = DIRECTION ( 'NONE',  ( -1.000000000000000000, 0.0000000000000000000, 0.0000000000000000000 ) ) ;
#441 = EDGE_CURVE ( 'NONE', #527, #34, #73, .T. ) ;
#442 = VERTEX_POINT ( 'NONE', #443 ) ;
#443 = CARTESIAN_POINT ( 'NONE',  ( 19.99999999999997868, 40.00000000000000000, 7.499999999999980460 ) ) ;
#444 = CARTESIAN_POINT ( 'NONE',  ( 22.49999999999996447, 90.00000000000001421, 7.500000000000000000 ) ) ;
#445 = ORIENTED_EDGE ( 'NONE', *, *, #780, .F. ) ;
#446 = ORIENTED_EDGE ( 'NONE', *, *, #318, .T. ) ;
#447 = DIRECTION ( 'NONE',  ( -0.0000000000000000000, -0.0000000000000000000, 1.000000000000000000 ) ) ;
#448 = DIRECTION ( 'NONE',  ( 1.000000000000000000, 0.0000000000000000000, 0.0000000000000000000 ) ) ;
#449 = CARTESIAN_POINT ( 'NONE',  ( 27.74999999999998579, 14.99999999999999289, 40.00000000000000000 ) ) ;
#450 = ORIENTED_EDGE ( 'NONE', *, *, #125, .T. ) ;
#451 = LINE ( 'NONE', #96, #61 ) ;
#452 = VECTOR ( 'NONE', #875, 1000.000000000000000 ) ;
#453 = EDGE_CURVE ( 'NONE', #391, #442, #555, .T. ) ;
#454 = DIRECTION ( 'NONE',  ( 1.000000000000000000, 0.0000000000000000000, 0.0000000000000000000 ) ) ;
#455 = ORIENTED_EDGE ( 'NONE', *, *, #563, .F. ) ;
#456 = DIRECTION ( 'NONE',  ( 0.0000000000000000000, 0.0000000000000000000, 1.000000000000000000 ) ) ;
#457 = EDGE_CURVE ( 'NONE', #23, #292, #451, .T. ) ;
#458 = DIRECTION ( 'NONE',  ( 0.0000000000000000000, 0.0000000000000000000, -1.000000000000000000 ) ) ;
#459 = ADVANCED_FACE ( 'NONE', ( #650 ), #419, .F. ) ;
#460 = APPROVAL_ROLE ( '' ) ;
#461 = AXIS2_PLACEMENT_3D ( 'NONE', #29, #255, #454 ) ;
#462 = ORIENTED_EDGE ( 'NONE', *, *, #7, .F. ) ;
#463 = AXIS2_PLACEMENT_3D ( 'NONE', #85, #648, #395 ) ;
#464 = DIRECTION ( 'NONE',  ( -0.0000000000000000000, -0.0000000000000000000, 1.000000000000000000 ) ) ;
#465 = EDGE_CURVE ( 'NONE', #626, #864, #316, .T. ) ;
#466 = EDGE_LOOP ( 'NONE', ( #784, #301, #203, #194 ) ) ;
#467 = LOCAL_TIME ( 10, 46, 14.00000000000000000, #270 ) ;
#468 = AXIS2_PLACEMENT_3D ( 'NONE', #886, #139, #147 ) ;
#469 = PERSON_AND_ORGANIZATION_ROLE ( 'creator' ) ;
#470 = CC_DESIGN_PERSON_AND_ORGANIZATION_ASSIGNMENT ( #80, #312, ( #113 ) ) ;
#471 = ORIENTED_EDGE ( 'NONE', *, *, #7, .T. ) ;
#472 = CARTESIAN_POINT ( 'NONE',  ( 0.0000000000000000000, 0.0000000000000000000, 0.0000000000000000000 ) ) ;
#473 = PERSON_AND_ORGANIZATION ( #173, #83 ) ;
#474 = VERTEX_POINT ( 'NONE', #331 ) ;
#475 = DIRECTION ( 'NONE',  ( 1.000000000000000000, 0.0000000000000000000, 0.0000000000000000000 ) ) ;
#476 = EDGE_CURVE ( 'NONE', #879, #896, #646, .T. ) ;
#477 = CARTESIAN_POINT ( 'NONE',  ( 0.0000000000000000000, 0.0000000000000000000, 40.00000000000000000 ) ) ;
#478 = APPROVAL_STATUS ( 'not_yet_approved' ) ;
#479 = ORIENTED_EDGE ( 'NONE', *, *, #340, .T. ) ;
#480 = CARTESIAN_POINT ( 'NONE',  ( 39.99999999999998579, 0.0000000000000000000, 40.00000000000000000 ) ) ;
#481 = ADVANCED_FACE ( 'NONE', ( #9 ), #584, .F. ) ;
#482 = LINE ( 'NONE', #477, #141 ) ;
#483 = AXIS2_PLACEMENT_3D ( 'NONE', #492, #694, #407 ) ;
#484 = ORIENTED_EDGE ( 'NONE', *, *, #643, .F. ) ;
#485 = DIRECTION ( 'NONE',  ( 0.0000000000000000000, 0.0000000000000000000, 1.000000000000000000 ) ) ;
#486 = FACE_OUTER_BOUND ( 'NONE', #161, .T. ) ;
#487 = SHAPE_DEFINITION_REPRESENTATION ( #122, #664 ) ;
#488 = ADVANCED_FACE ( 'NONE', ( #27 ), #325, .F. ) ;
#489 = VERTEX_POINT ( 'NONE', #804 ) ;
#490 = DIRECTION ( 'NONE',  ( 1.000000000000000000, 0.0000000000000000000, 0.0000000000000000000 ) ) ;
#491 = CIRCLE ( 'NONE', #200, 2.499999999999998668 ) ;
#492 = CARTESIAN_POINT ( 'NONE',  ( 0.0000000000000000000, 0.0000000000000000000, 0.0000000000000000000 ) ) ;
#493 = VECTOR ( 'NONE', #855, 1000.000000000000000 ) ;
#494 = ORIENTED_EDGE ( 'NONE', *, *, #556, .F. ) ;
#495 = EDGE_CURVE ( 'NONE', #626, #271, #283, .T. ) ;
#496 = DIRECTION ( 'NONE',  ( 1.000000000000000000, 0.0000000000000000000, 0.0000000000000000000 ) ) ;
#497 = VERTEX_POINT ( 'NONE', #348 ) ;
#498 = CARTESIAN_POINT ( 'NONE',  ( 17.24999999999998224, 40.00000000000000000, 40.00000000000000000 ) ) ;
#499 = CIRCLE ( 'NONE', #683, 2.499999999999998668 ) ;
#500 = CC_DESIGN_PERSON_AND_ORGANIZATION_ASSIGNMENT ( #189, #400, ( #684 ) ) ;
#501 = DIRECTION ( 'NONE',  ( -0.0000000000000000000, 0.0000000000000000000, -1.000000000000000000 ) ) ;
#502 = DIRECTION ( 'NONE',  ( -1.000000000000000000, 0.0000000000000000000, 0.0000000000000000000 ) ) ;
#503 = VECTOR ( 'NONE', #747, 1000.000000000000000 ) ;
#504 = DIRECTION ( 'NONE',  ( 1.000000000000000000, 0.0000000000000000000, 0.0000000000000000000 ) ) ;
#505 = CLOSED_SHELL ( 'NONE', ( #413, #488, #164, #230, #689, #459, #212, #64, #345, #49, #868, #704, #768, #773, #793, #222, #481, #97, #859, #115, #15, #101, #188, #657, #245, #880, #578, #259, #328, #891 ) ) ;
#506 = LINE ( 'NONE', #308, #876 ) ;
#507 = DIRECTION ( 'NONE',  ( 0.0000000000000000000, 0.0000000000000000000, 1.000000000000000000 ) ) ;
#508 = FACE_OUTER_BOUND ( 'NONE', #608, .T. ) ;
#509 = EDGE_CURVE ( 'NONE', #885, #1, #535, .T. ) ;
#510 = CARTESIAN_POINT ( 'NONE',  ( 27.74999999999997513, 40.00000000000000000, 22.50000000000000000 ) ) ;
#511 = LOCAL_TIME ( 10, 46, 14.00000000000000000, #202 ) ;
#512 = DIRECTION ( 'NONE',  ( 0.0000000000000000000, 0.0000000000000000000, 1.000000000000000000 ) ) ;
#513 = CARTESIAN_POINT ( 'NONE',  ( 17.24999999999998934, 14.99999999999999289, 22.50000000000000000 ) ) ;
#514 = DIRECTION ( 'NONE',  ( -1.000000000000000000, -0.0000000000000000000, -0.0000000000000000000 ) ) ;
#515 = ORIENTED_EDGE ( 'NONE', *, *, #457, .T. ) ;
#516 = DIRECTION ( 'NONE',  ( 1.000000000000000000, 0.0000000000000000000, 0.0000000000000000000 ) ) ;
#517 = DIRECTION ( 'NONE',  ( 0.0000000000000000000, 0.0000000000000000000, 1.000000000000000000 ) ) ;
#518 = DIRECTION ( 'NONE',  ( 0.0000000000000000000, 0.0000000000000000000, -1.000000000000000000 ) ) ;
#519 = FACE_OUTER_BOUND ( 'NONE', #658, .T. ) ;
#520 = AXIS2_PLACEMENT_3D ( 'NONE', #717, #327, #98 ) ;
#521 = EDGE_CURVE ( 'NONE', #677, #489, #554, .T. ) ;
#522 = ORIENTED_EDGE ( 'NONE', *, *, #297, .F. ) ;
#523 = FACE_OUTER_BOUND ( 'NONE', #713, .T. ) ;
#524 = CARTESIAN_POINT ( 'NONE',  ( 22.49999999999998934, 14.99999999999999289, 7.500000000000000000 ) ) ;
#525 = EDGE_LOOP ( 'NONE', ( #426, #494, #360, #103 ) ) ;
#526 = DIRECTION ( 'NONE',  ( 1.000000000000000000, 0.0000000000000000000, 0.0000000000000000000 ) ) ;
#527 = VERTEX_POINT ( 'NONE', #624 ) ;
#528 = DIRECTION ( 'NONE',  ( -1.000000000000000000, 0.0000000000000000000, 0.0000000000000000000 ) ) ;
#529 = AXIS2_PLACEMENT_3D ( 'NONE', #550, #623, #475 ) ;
#530 = CC_DESIGN_PERSON_AND_ORGANIZATION_ASSIGNMENT ( #274, #532, ( #67 ) ) ;
#531 = EDGE_LOOP ( 'NONE', ( #13, #346, #605, #484 ) ) ;
#532 = PERSON_AND_ORGANIZATION_ROLE ( 'classification_officer' ) ;
#533 = EDGE_LOOP ( 'NONE', ( #111, #151 ) ) ;
#534 = DIRECTION ( 'NONE',  ( 1.000000000000000000, 0.0000000000000000000, 0.0000000000000000000 ) ) ;
#535 = LINE ( 'NONE', #731, #607 ) ;
#536 = EDGE_CURVE ( 'NONE', #720, #324, #546, .T. ) ;
#537 = CIRCLE ( 'NONE', #93, 5.249999999999997335 ) ;
#538 = VERTEX_POINT ( 'NONE', #609 ) ;
#539 = LINE ( 'NONE', #824, #5 ) ;
#540 = CALENDAR_DATE ( 2019, 12, 8 ) ;
#541 = ORIENTED_EDGE ( 'NONE', *, *, #302, .F. ) ;
#542 = DIRECTION ( 'NONE',  ( 0.0000000000000000000, 0.0000000000000000000, 1.000000000000000000 ) ) ;
#543 = AXIS2_PLACEMENT_3D ( 'NONE', #380, #24, #106 ) ;
#544 = UNCERTAINTY_MEASURE_WITH_UNIT (LENGTH_MEASURE( 1.000000000000000082E-05 ), #558, 'distance_accuracy_value', 'NONE');
#545 = DIRECTION ( 'NONE',  ( 0.0000000000000000000, 0.0000000000000000000, -1.000000000000000000 ) ) ;
#546 = CIRCLE ( 'NONE', #105, 4.999999999999997335 ) ;
#547 = PERSON_AND_ORGANIZATION ( #173, #83 ) ;
#548 = ORIENTED_EDGE ( 'NONE', *, *, #125, .F. ) ;
#549 = EDGE_CURVE ( 'NONE', #688, #329, #539, .T. ) ;
#550 = CARTESIAN_POINT ( 'NONE',  ( 22.49999999999998934, 14.99999999999999289, 22.50000000000000000 ) ) ;
#551 = FACE_OUTER_BOUND ( 'NONE', #281, .T. ) ;
#552 = EDGE_LOOP ( 'NONE', ( #649, #763, #251, #699 ) ) ;
#553 = PLANE ( 'NONE',  #51 ) ;
#554 = LINE ( 'NONE', #266, #661 ) ;
#555 = CIRCLE ( 'NONE', #628, 2.499999999999998668 ) ;
#556 = EDGE_CURVE ( 'NONE', #213, #807, #893, .T. ) ;
#557 = CONICAL_SURFACE ( 'NONE', #735, 2.500000000000002220, 0.1813197744014899138 ) ;
#558 =( LENGTH_UNIT ( ) NAMED_UNIT ( * ) SI_UNIT ( .MILLI., .METRE. ) );
#559 = ORIENTED_EDGE ( 'NONE', *, *, #780, .T. ) ;
#560 = FACE_OUTER_BOUND ( 'NONE', #525, .T. ) ;
#561 = ORIENTED_EDGE ( 'NONE', *, *, #430, .T. ) ;
#562 = CYLINDRICAL_SURFACE ( 'NONE', #644, 4.999999999999997335 ) ;
#563 = EDGE_CURVE ( 'NONE', #593, #304, #634, .T. ) ;
#564 = ORIENTED_EDGE ( 'NONE', *, *, #610, .F. ) ;
#565 = DIRECTION ( 'NONE',  ( 1.000000000000000000, 0.0000000000000000000, 0.0000000000000000000 ) ) ;
#566 = FACE_OUTER_BOUND ( 'NONE', #685, .T. ) ;
#567 = ORIENTED_EDGE ( 'NONE', *, *, #441, .T. ) ;
#568 = DIRECTION ( 'NONE',  ( 0.1803278688524586892, 0.0000000000000000000, 0.9836065573770491621 ) ) ;
#569 = ORIENTED_EDGE ( 'NONE', *, *, #354, .T. ) ;
#570 = CIRCLE ( 'NONE', #439, 5.249999999999997335 ) ;
#571 = AXIS2_PLACEMENT_3D ( 'NONE', #279, #882, #756 ) ;
#572 = FACE_OUTER_BOUND ( 'NONE', #190, .T. ) ;
#573 = CARTESIAN_POINT ( 'NONE',  ( 39.99999999999996447, 99.99999999999998579, 40.00000000000000000 ) ) ;
#574 = CARTESIAN_POINT ( 'NONE',  ( -3.469446951953614189E-14, 105.0000000000000000, 40.00000000000000000 ) ) ;
#575 = VERTEX_POINT ( 'NONE', #152 ) ;
#576 = DIRECTION ( 'NONE',  ( -0.0000000000000000000, -0.0000000000000000000, 1.000000000000000000 ) ) ;
#577 = DIRECTION ( 'NONE',  ( -0.0000000000000000000, -0.0000000000000000000, 1.000000000000000000 ) ) ;
#578 = ADVANCED_FACE ( 'NONE', ( #560 ), #562, .T. ) ;
#579 = SPHERICAL_SURFACE ( 'NONE', #156, 2.500000000000002220 ) ;
#580 = CIRCLE ( 'NONE', #461, 5.249999999999997335 ) ;
#581 = COORDINATED_UNIVERSAL_TIME_OFFSET ( 8, 0, .BEHIND. ) ;
#582 = DIRECTION ( 'NONE',  ( -1.000000000000000000, 0.0000000000000000000, 0.0000000000000000000 ) ) ;
#583 = LINE ( 'NONE', #240, #398 ) ;
#584 = PLANE ( 'NONE',  #414 ) ;
#585 = LINE ( 'NONE', #378, #313 ) ;
#586 = APPROVAL_PERSON_ORGANIZATION ( #473, #110, #753 ) ;
#587 = CARTESIAN_POINT ( 'NONE',  ( 22.49999999999996447, 90.00000000000000000, 40.00000000000000000 ) ) ;
#588 = AXIS2_PLACEMENT_3D ( 'NONE', #424, #365, #565 ) ;
#589 = CARTESIAN_POINT ( 'NONE',  ( 22.49999999999997868, 40.00000000000000000, 22.50000000000000000 ) ) ;
#590 = ORIENTED_EDGE ( 'NONE', *, *, #275, .T. ) ;
#591 = EDGE_CURVE ( 'NONE', #304, #593, #708, .T. ) ;
#592 = FACE_OUTER_BOUND ( 'NONE', #802, .T. ) ;
#593 = VERTEX_POINT ( 'NONE', #498 ) ;
#594 = DIRECTION ( 'NONE',  ( -0.1803278688524586892, 2.208379473872272663E-17, 0.9836065573770491621 ) ) ;
#595 = DIRECTION ( 'NONE',  ( 0.0000000000000000000, 0.0000000000000000000, 1.000000000000000000 ) ) ;
#596 = DIRECTION ( 'NONE',  ( -1.000000000000000000, 0.0000000000000000000, 0.0000000000000000000 ) ) ;
#597 = CYLINDRICAL_SURFACE ( 'NONE', #520, 5.249999999999997335 ) ;
#598 = PLANE ( 'NONE',  #778 ) ;
#599 = CIRCLE ( 'NONE', #296, 5.000000000000000000 ) ;
#600 = APPROVAL ( #50, 'UNSPECIFIED' ) ;
#601 = VERTEX_POINT ( 'NONE', #66 ) ;
#602 = CARTESIAN_POINT ( 'NONE',  ( 22.49999999999996447, 90.00000000000001421, 7.499999999999980460 ) ) ;
#603 = CARTESIAN_POINT ( 'NONE',  ( 19.99999999999996092, 90.00000000000000000, 7.500000000000000000 ) ) ;
#604 = ORIENTED_EDGE ( 'NONE', *, *, #465, .F. ) ;
#605 = ORIENTED_EDGE ( 'NONE', *, *, #416, .T. ) ;
#606 = AXIS2_PLACEMENT_3D ( 'NONE', #140, #355, #829 ) ;
#607 = VECTOR ( 'NONE', #464, 1000.000000000000000 ) ;
#608 = EDGE_LOOP ( 'NONE', ( #645, #860, #142, #70, #871, #471, #127, #754 ) ) ;
#609 = CARTESIAN_POINT ( 'NONE',  ( -1.652117596168387164E-15, 4.999999999999998224, 0.0000000000000000000 ) ) ;
#610 = EDGE_CURVE ( 'NONE', #442, #391, #278, .T. ) ;
#611 = CALENDAR_DATE ( 2019, 12, 8 ) ;
#612 = VECTOR ( 'NONE', #100, 1000.000000000000000 ) ;
#613 = ORIENTED_EDGE ( 'NONE', *, *, #275, .F. ) ;
#614 = ORIENTED_EDGE ( 'NONE', *, *, #385, .T. ) ;
#615 = DIRECTION ( 'NONE',  ( -0.0000000000000000000, -0.0000000000000000000, 1.000000000000000000 ) ) ;
#616 = AXIS2_PLACEMENT_3D ( 'NONE', #32, #339, #853 ) ;
#617 = DESIGN_CONTEXT ( 'detailed design', #635, 'design' ) ;
#618 = DIRECTION ( 'NONE',  ( -0.0000000000000000000, 0.0000000000000000000, -1.000000000000000000 ) ) ;
#619 = VECTOR ( 'NONE', #761, 1000.000000000000000 ) ;
#620 = COORDINATED_UNIVERSAL_TIME_OFFSET ( 8, 0, .BEHIND. ) ;
#621 = EDGE_CURVE ( 'NONE', #834, #863, #58, .T. ) ;
#622 = ORIENTED_EDGE ( 'NONE', *, *, #831, .F. ) ;
#623 = DIRECTION ( 'NONE',  ( -0.0000000000000000000, -0.0000000000000000000, 1.000000000000000000 ) ) ;
#624 = CARTESIAN_POINT ( 'NONE',  ( 19.99999999999998934, 14.99999999999999289, 7.499999999999980460 ) ) ;
#625 = DIRECTION ( 'NONE',  ( 1.000000000000000000, 0.0000000000000000000, 0.0000000000000000000 ) ) ;
#626 = VERTEX_POINT ( 'NONE', #214 ) ;
#627 = CARTESIAN_POINT ( 'NONE',  ( 22.49999999999996447, 90.00000000000000000, 22.50000000000000000 ) ) ;
#628 = AXIS2_PLACEMENT_3D ( 'NONE', #374, #595, #655 ) ;
#629 = CIRCLE ( 'NONE', #842, 5.000000000000000000 ) ;
#630 = EDGE_CURVE ( 'NONE', #896, #575, #570, .T. ) ;
#631 = CARTESIAN_POINT ( 'NONE',  ( 17.24999999999996803, 90.00000000000000000, 22.50000000000000000 ) ) ;
#632 = EDGE_LOOP ( 'NONE', ( #220, #63, #319, #696 ) ) ;
#633 = CC_DESIGN_APPROVAL ( #600, ( #67 ) ) ;
#634 = CIRCLE ( 'NONE', #769, 5.249999999999997335 ) ;
#635 = APPLICATION_CONTEXT ( 'configuration controlled 3d designs of mechanical parts and assemblies' ) ;
#636 = ORIENTED_EDGE ( 'NONE', *, *, #87, .T. ) ;
#637 = CARTESIAN_POINT ( 'NONE',  ( 4.999999999999998224, 0.0000000000000000000, 40.00000000000000000 ) ) ;
#638 = CARTESIAN_POINT ( 'NONE',  ( 4.999999999999967137, 99.99999999999998579, 0.0000000000000000000 ) ) ;
#639 = EDGE_CURVE ( 'NONE', #23, #720, #427, .T. ) ;
#640 = ORIENTED_EDGE ( 'NONE', *, *, #799, .T. ) ;
#641 = DIRECTION ( 'NONE',  ( 1.000000000000000000, 0.0000000000000000000, 0.0000000000000000000 ) ) ;
#642 = DIRECTION ( 'NONE',  ( -1.000000000000000000, 0.0000000000000000000, 0.0000000000000000000 ) ) ;
#643 = EDGE_CURVE ( 'NONE', #34, #885, #75, .T. ) ;
#644 = AXIS2_PLACEMENT_3D ( 'NONE', #299, #134, #700 ) ;
#645 = ORIENTED_EDGE ( 'NONE', *, *, #340, .F. ) ;
#646 = LINE ( 'NONE', #603, #53 ) ;
#647 = DIRECTION ( 'NONE',  ( 1.000000000000000000, 0.0000000000000000000, 0.0000000000000000000 ) ) ;
#648 = DIRECTION ( 'NONE',  ( -0.0000000000000000000, -0.0000000000000000000, 1.000000000000000000 ) ) ;
#649 = ORIENTED_EDGE ( 'NONE', *, *, #30, .F. ) ;
#650 = FACE_OUTER_BOUND ( 'NONE', #816, .T. ) ;
#651 = VECTOR ( 'NONE', #878, 1000.000000000000000 ) ;
#652 = CARTESIAN_POINT ( 'NONE',  ( 22.49999999999998934, 14.99999999999999289, 7.500000000000000000 ) ) ;
#653 = AXIS2_PLACEMENT_3D ( 'NONE', #137, #618, #502 ) ;
#654 = CARTESIAN_POINT ( 'NONE',  ( 22.49999999999996447, 90.00000000000001421, 7.499999999999980460 ) ) ;
#655 = DIRECTION ( 'NONE',  ( -1.000000000000000000, 0.0000000000000000000, 0.0000000000000000000 ) ) ;
#656 = DIRECTION ( 'NONE',  ( 0.0000000000000000000, 0.0000000000000000000, 1.000000000000000000 ) ) ;
#657 = ADVANCED_FACE ( 'NONE', ( #693 ), #293, .F. ) ;
#658 = EDGE_LOOP ( 'NONE', ( #334, #823, #227, #236 ) ) ;
#659 = EDGE_LOOP ( 'NONE', ( #138, #396 ) ) ;
#660 = DIRECTION ( 'NONE',  ( 1.982541115402065110E-16, -1.000000000000000000, 0.0000000000000000000 ) ) ;
#661 = VECTOR ( 'NONE', #43, 1000.000000000000000 ) ;
#662 = DIRECTION ( 'NONE',  ( -1.000000000000000000, 0.0000000000000000000, -0.0000000000000000000 ) ) ;
#663 = EDGE_LOOP ( 'NONE', ( #353, #613, #674, #289 ) ) ;
#664 = ADVANCED_BREP_SHAPE_REPRESENTATION ( 'NEB-TUBE-SUB-BLOCK-v001', ( #833, #483 ), #22 ) ;
#665 = ORIENTED_EDGE ( 'NONE', *, *, #639, .T. ) ;
#666 = DIRECTION ( 'NONE',  ( 1.000000000000000000, 0.0000000000000000000, 0.0000000000000000000 ) ) ;
#667 = DIRECTION ( 'NONE',  ( -1.000000000000000000, 0.0000000000000000000, 0.0000000000000000000 ) ) ;
#668 = ORIENTED_EDGE ( 'NONE', *, *, #318, .F. ) ;
#669 = CARTESIAN_POINT ( 'NONE',  ( 17.24999999999997513, 65.00000000000000000, 40.00000000000000000 ) ) ;
#670 = CARTESIAN_POINT ( 'NONE',  ( 39.99999999999996447, 99.99999999999998579, 40.00000000000000000 ) ) ;
#671 = EDGE_CURVE ( 'NONE', #692, #1, #69, .T. ) ;
#672 = ORIENTED_EDGE ( 'NONE', *, *, #169, .T. ) ;
#673 = CIRCLE ( 'NONE', #3, 5.249999999999997335 ) ;
#674 = ORIENTED_EDGE ( 'NONE', *, *, #894, .F. ) ;
#675 = CARTESIAN_POINT ( 'NONE',  ( 39.99999999999997158, 0.0000000000000000000, 40.00000000000000000 ) ) ;
#676 = SECURITY_CLASSIFICATION_LEVEL ( 'unclassified' ) ;
#677 = VERTEX_POINT ( 'NONE', #71 ) ;
#678 = CARTESIAN_POINT ( 'NONE',  ( 4.999999999999996447, 0.0000000000000000000, 0.0000000000000000000 ) ) ;
#679 = EDGE_CURVE ( 'NONE', #271, #834, #695, .T. ) ;
#680 = LINE ( 'NONE', #814, #806 ) ;
#681 = COORDINATED_UNIVERSAL_TIME_OFFSET ( 8, 0, .BEHIND. ) ;
#682 = ORIENTED_EDGE ( 'NONE', *, *, #679, .F. ) ;
#683 = AXIS2_PLACEMENT_3D ( 'NONE', #654, #157, #698 ) ;
#684 = PRODUCT_DEFINITION ( 'UNKNOWN', '', #740, #617 ) ;
#685 = EDGE_LOOP ( 'NONE', ( #818, #364, #462, #604 ) ) ;
#686 = CARTESIAN_POINT ( 'NONE',  ( -1.652117596168387164E-15, 4.999999999999998224, 40.00000000000000000 ) ) ;
#687 = AXIS2_PLACEMENT_3D ( 'NONE', #587, #258, #666 ) ;
#688 = VERTEX_POINT ( 'NONE', #226 ) ;
#689 = ADVANCED_FACE ( 'NONE', ( #592 ), #6, .F. ) ;
#690 = DIRECTION ( 'NONE',  ( -0.0000000000000000000, -0.0000000000000000000, 1.000000000000000000 ) ) ;
#691 = AXIS2_PLACEMENT_3D ( 'NONE', #104, #858, #526 ) ;
#692 = VERTEX_POINT ( 'NONE', #722 ) ;
#693 = FACE_OUTER_BOUND ( 'NONE', #146, .T. ) ;
#694 = DIRECTION ( 'NONE',  ( 0.0000000000000000000, 0.0000000000000000000, 1.000000000000000000 ) ) ;
#695 = CIRCLE ( 'NONE', #150, 5.000000000000000000 ) ;
#696 = ORIENTED_EDGE ( 'NONE', *, *, #302, .T. ) ;
#697 = DIRECTION ( 'NONE',  ( 1.000000000000000000, 0.0000000000000000000, 0.0000000000000000000 ) ) ;
#698 = DIRECTION ( 'NONE',  ( -1.000000000000000000, -5.551115123125785858E-15, 0.0000000000000000000 ) ) ;
#699 = ORIENTED_EDGE ( 'NONE', *, *, #549, .F. ) ;
#700 = DIRECTION ( 'NONE',  ( -1.000000000000000000, 0.0000000000000000000, 0.0000000000000000000 ) ) ;
#701 = FACE_OUTER_BOUND ( 'NONE', #663, .T. ) ;
#702 = VECTOR ( 'NONE', #514, 1000.000000000000000 ) ;
#703 = DIRECTION ( 'NONE',  ( 0.0000000000000000000, 0.0000000000000000000, 1.000000000000000000 ) ) ;
#704 = ADVANCED_FACE ( 'NONE', ( #246 ), #726, .F. ) ;
#705 = MECHANICAL_CONTEXT ( 'NONE', #765, 'mechanical' ) ;
#706 = CARTESIAN_POINT ( 'NONE',  ( 17.24999999999996803, 90.00000000000000000, 40.00000000000000000 ) ) ;
#707 = LINE ( 'NONE', #243, #493 ) ;
#708 = CIRCLE ( 'NONE', #822, 5.249999999999997335 ) ;
#709 = VERTEX_POINT ( 'NONE', #256 ) ;
#710 = FACE_OUTER_BOUND ( 'NONE', #40, .T. ) ;
#711 = CARTESIAN_POINT ( 'NONE',  ( 22.49999999999998934, 14.99999999999999289, 7.500000000000000000 ) ) ;
#712 = EDGE_CURVE ( 'NONE', #437, #688, #506, .T. ) ;
#713 = EDGE_LOOP ( 'NONE', ( #874, #450, #52, #895 ) ) ;
#714 = DIRECTION ( 'NONE',  ( 0.0000000000000000000, 0.0000000000000000000, 1.000000000000000000 ) ) ;
#715 = VECTOR ( 'NONE', #846, 1000.000000000000000 ) ;
#716 = DIRECTION ( 'NONE',  ( -1.000000000000000000, 0.0000000000000000000, 0.0000000000000000000 ) ) ;
#717 = CARTESIAN_POINT ( 'NONE',  ( 22.49999999999996447, 90.00000000000000000, 22.50000000000000000 ) ) ;
#718 = DIRECTION ( 'NONE',  ( 0.0000000000000000000, 0.0000000000000000000, -1.000000000000000000 ) ) ;
#719 = CARTESIAN_POINT ( 'NONE',  ( -1.652117596168387164E-15, 4.999999999999998224, 40.00000000000000000 ) ) ;
#720 = VERTEX_POINT ( 'NONE', #425 ) ;
#721 = CYLINDRICAL_SURFACE ( 'NONE', #691, 5.249999999999997335 ) ;
#722 = CARTESIAN_POINT ( 'NONE',  ( 17.24999999999998934, 14.99999999999999289, 40.00000000000000000 ) ) ;
#723 = ORIENTED_EDGE ( 'NONE', *, *, #206, .F. ) ;
#724 = CARTESIAN_POINT ( 'NONE',  ( 4.999999999999996447, 0.0000000000000000000, 40.00000000000000000 ) ) ;
#725 = DIRECTION ( 'NONE',  ( 0.0000000000000000000, 0.0000000000000000000, -1.000000000000000000 ) ) ;
#726 = CONICAL_SURFACE ( 'NONE', #543, 2.500000000000002220, 0.1813197744014899138 ) ;
#727 = AXIS2_PLACEMENT_3D ( 'NONE', #602, #861, #817 ) ;
#728 = EDGE_CURVE ( 'NONE', #575, #168, #583, .T. ) ;
#729 = ORIENTED_EDGE ( 'NONE', *, *, #435, .T. ) ;
#730 = ORIENTED_EDGE ( 'NONE', *, *, #746, .F. ) ;
#731 = CARTESIAN_POINT ( 'NONE',  ( 27.74999999999998579, 14.99999999999999289, 22.50000000000000000 ) ) ;
#732 = DIRECTION ( 'NONE',  ( -1.000000000000000000, 0.0000000000000000000, 0.0000000000000000000 ) ) ;
#733 = AXIS2_PLACEMENT_3D ( 'NONE', #792, #82, #389 ) ;
#734 = EDGE_CURVE ( 'NONE', #437, #497, #148, .T. ) ;
#735 = AXIS2_PLACEMENT_3D ( 'NONE', #429, #79, #647 ) ;
#736 = DATE_TIME_ROLE ( 'creation_date' ) ;
#737 = ORIENTED_EDGE ( 'NONE', *, *, #887, .F. ) ;
#738 = ORIENTED_EDGE ( 'NONE', *, *, #734, .T. ) ;
#739 = EDGE_CURVE ( 'NONE', #879, #74, #499, .T. ) ;
#740 = PRODUCT_DEFINITION_FORMATION_WITH_SPECIFIED_SOURCE ( 'ANY', '', #113, .NOT_KNOWN. ) ;
#741 = AXIS2_PLACEMENT_3D ( 'NONE', #253, #14, #854 ) ;
#742 = CARTESIAN_POINT ( 'NONE',  ( 0.0000000000000000000, 0.0000000000000000000, 40.00000000000000000 ) ) ;
#743 = PERSON_AND_ORGANIZATION_ROLE ( 'design_supplier' ) ;
#744 = ORIENTED_EDGE ( 'NONE', *, *, #169, .F. ) ;
#745 = LINE ( 'NONE', #204, #452 ) ;
#746 = EDGE_CURVE ( 'NONE', #403, #794, #77, .T. ) ;
#747 = DIRECTION ( 'NONE',  ( 3.304235192336775512E-16, -1.000000000000000000, -0.0000000000000000000 ) ) ;
#748 = CIRCLE ( 'NONE', #12, 4.999999999999997335 ) ;
#749 = CALENDAR_DATE ( 2019, 12, 8 ) ;
#750 = ORIENTED_EDGE ( 'NONE', *, *, #476, .F. ) ;
#751 = DIRECTION ( 'NONE',  ( 0.0000000000000000000, 0.0000000000000000000, -1.000000000000000000 ) ) ;
#752 = DIRECTION ( 'NONE',  ( -0.0000000000000000000, -0.0000000000000000000, 1.000000000000000000 ) ) ;
#753 = APPROVAL_ROLE ( '' ) ;
#754 = ORIENTED_EDGE ( 'NONE', *, *, #894, .T. ) ;
#755 = CARTESIAN_POINT ( 'NONE',  ( 22.49999999999997868, 40.00000000000000000, 40.00000000000000000 ) ) ;
#757 = CIRCLE ( 'NONE', #616, 5.249999999999997335 ) ;
#756 = DIRECTION ( 'NONE',  ( -1.000000000000000000, 0.0000000000000000000, 0.0000000000000000000 ) ) ;
#758 = DIRECTION ( 'NONE',  ( -0.0000000000000000000, 0.0000000000000000000, -1.000000000000000000 ) ) ;
#759 = VECTOR ( 'NONE', #568, 1000.000000000000227 ) ;
#760 = ORIENTED_EDGE ( 'NONE', *, *, #297, .T. ) ;
#761 = DIRECTION ( 'NONE',  ( -1.982541115402065110E-16, 1.000000000000000000, 0.0000000000000000000 ) ) ;
#762 = CARTESIAN_POINT ( 'NONE',  ( 19.99999999999996803, 65.00000000000000000, 7.500000000000000000 ) ) ;
#763 = ORIENTED_EDGE ( 'NONE', *, *, #746, .T. ) ;
#764 = CARTESIAN_POINT ( 'NONE',  ( 44.99999999999998579, 0.0000000000000000000, 40.00000000000000000 ) ) ;
#765 = APPLICATION_CONTEXT ( 'configuration controlled 3d designs of mechanical parts and assemblies' ) ;
#766 = APPROVAL_DATE_TIME ( #291, #600 ) ;
#767 = EDGE_LOOP ( 'NONE', ( #866, #561, #165, #94 ) ) ;
#768 = ADVANCED_FACE ( 'NONE', ( #19 ), #835, .F. ) ;
#769 = AXIS2_PLACEMENT_3D ( 'NONE', #755, #772, #897 ) ;
#770 = AXIS2_PLACEMENT_3D ( 'NONE', #223, #512, #376 ) ;
#771 = ORIENTED_EDGE ( 'NONE', *, *, #397, .T. ) ;
#772 = DIRECTION ( 'NONE',  ( 0.0000000000000000000, 0.0000000000000000000, 1.000000000000000000 ) ) ;
#773 = ADVANCED_FACE ( 'NONE', ( #572 ), #81, .F. ) ;
#774 = LINE ( 'NONE', #719, #612 ) ;
#775 = DIRECTION ( 'NONE',  ( -0.0000000000000000000, -0.0000000000000000000, 1.000000000000000000 ) ) ;
#776 = DIRECTION ( 'NONE',  ( -1.000000000000000000, 0.0000000000000000000, 0.0000000000000000000 ) ) ;
#777 = CARTESIAN_POINT ( 'NONE',  ( 27.74999999999996803, 65.00000000000000000, 40.00000000000000000 ) ) ;
#778 = AXIS2_PLACEMENT_3D ( 'NONE', #742, #399, #402 ) ;
#779 = DIRECTION ( 'NONE',  ( 0.0000000000000000000, 0.0000000000000000000, 1.000000000000000000 ) ) ;
#780 = EDGE_CURVE ( 'NONE', #329, #794, #673, .T. ) ;
#781 = DIRECTION ( 'NONE',  ( -1.000000000000000000, 0.0000000000000000000, 0.0000000000000000000 ) ) ;
#782 = CARTESIAN_POINT ( 'NONE',  ( 22.49999999999996447, 90.00000000000000000, 22.50000000000000000 ) ) ;
#783 = EDGE_CURVE ( 'NONE', #885, #185, #303, .T. ) ;
#784 = ORIENTED_EDGE ( 'NONE', *, *, #739, .F. ) ;
#785 = CARTESIAN_POINT ( 'NONE',  ( 22.49999999999998934, 14.99999999999999289, 7.499999999999980460 ) ) ;
#786 = SPHERICAL_SURFACE ( 'NONE', #44, 2.500000000000002220 ) ;
#787 = EDGE_LOOP ( 'NONE', ( #622, #218 ) ) ;
#788 = LINE ( 'NONE', #513, #405 ) ;
#789 = DIRECTION ( 'NONE',  ( -0.0000000000000000000, 0.0000000000000000000, -1.000000000000000000 ) ) ;
#790 = FACE_OUTER_BOUND ( 'NONE', #390, .T. ) ;
#791 = EDGE_LOOP ( 'NONE', ( #569, #567 ) ) ;
#792 = CARTESIAN_POINT ( 'NONE',  ( 22.49999999999997158, 65.00000000000000000, 7.500000000000000000 ) ) ;
#793 = ADVANCED_FACE ( 'NONE', ( #523 ), #388, .F. ) ;
#794 = VERTEX_POINT ( 'NONE', #669 ) ;
#795 = VECTOR ( 'NONE', #594, 1000.000000000000227 ) ;
#796 = ORIENTED_EDGE ( 'NONE', *, *, #536, .T. ) ;
#797 = CARTESIAN_POINT ( 'NONE',  ( 22.49999999999997868, 40.00000000000000000, 22.50000000000000000 ) ) ;
#798 = AXIS2_PLACEMENT_3D ( 'NONE', #272, #542, #820 ) ;
#799 = EDGE_CURVE ( 'NONE', #442, #474, #191, .T. ) ;
#800 = CARTESIAN_POINT ( 'NONE',  ( 39.99999999999998579, 5.000000000000000000, 0.0000000000000000000 ) ) ;
#801 = DATE_AND_TIME ( #749, #192 ) ;
#802 = EDGE_LOOP ( 'NONE', ( #723, #636, #337, #338 ) ) ;
#803 = DIRECTION ( 'NONE',  ( 1.000000000000000000, 0.0000000000000000000, 0.0000000000000000000 ) ) ;
#804 = CARTESIAN_POINT ( 'NONE',  ( 4.999999999999965361, 105.0000000000000000, 40.00000000000000000 ) ) ;
#805 = CIRCLE ( 'NONE', #431, 5.249999999999997335 ) ;
#806 = VECTOR ( 'NONE', #752, 1000.000000000000000 ) ;
#807 = VERTEX_POINT ( 'NONE', #675 ) ;
#808 = CARTESIAN_POINT ( 'NONE',  ( 22.49999999999997158, 65.00000000000000000, 40.00000000000000000 ) ) ;
#809 = ORIENTED_EDGE ( 'NONE', *, *, #728, .T. ) ;
#810 = CARTESIAN_POINT ( 'NONE',  ( -3.304235192336775117E-14, 99.99999999999998579, 0.0000000000000000000 ) ) ;
#811 = EDGE_LOOP ( 'NONE', ( #668, #729, #108, #373 ) ) ;
#812 = FACE_BOUND ( 'NONE', #889, .T. ) ;
#813 = CARTESIAN_POINT ( 'NONE',  ( 0.0000000000000000000, 0.0000000000000000000, 40.00000000000000000 ) ) ;
#814 = CARTESIAN_POINT ( 'NONE',  ( 17.24999999999996803, 90.00000000000000000, 22.50000000000000000 ) ) ;
#815 = AXIS2_PLACEMENT_3D ( 'NONE', #785, #369, #172 ) ;
#816 = EDGE_LOOP ( 'NONE', ( #564, #640, #42, #737 ) ) ;
#817 = DIRECTION ( 'NONE',  ( -1.000000000000000000, 5.551115123125785858E-15, 0.0000000000000000000 ) ) ;
#818 = ORIENTED_EDGE ( 'NONE', *, *, #363, .F. ) ;
#819 = CARTESIAN_POINT ( 'NONE',  ( 22.49999999999997868, 40.00000000000000000, 40.00000000000000000 ) ) ;
#820 = DIRECTION ( 'NONE',  ( 1.000000000000000000, 0.0000000000000000000, 0.0000000000000000000 ) ) ;
#821 = LINE ( 'NONE', #211, #314 ) ;
#822 = AXIS2_PLACEMENT_3D ( 'NONE', #819, #485, #697 ) ;
#823 = ORIENTED_EDGE ( 'NONE', *, *, #284, .T. ) ;
#824 = CARTESIAN_POINT ( 'NONE',  ( 27.74999999999996803, 65.00000000000000000, 22.50000000000000000 ) ) ;
#825 = CONICAL_SURFACE ( 'NONE', #733, 2.500000000000002220, 0.1813197744014899138 ) ;
#826 = ORIENTED_EDGE ( 'NONE', *, *, #591, .T. ) ;
#827 = CARTESIAN_POINT ( 'NONE',  ( 22.49999999999998934, 14.99999999999999289, 40.00000000000000000 ) ) ;
#828 = AXIS2_PLACEMENT_3D ( 'NONE', #306, #779, #28 ) ;
#829 = DIRECTION ( 'NONE',  ( -1.000000000000000000, 0.0000000000000000000, 0.0000000000000000000 ) ) ;
#830 = ORIENTED_EDGE ( 'NONE', *, *, #385, .F. ) ;
#831 = EDGE_CURVE ( 'NONE', #168, #401, #757, .T. ) ;
#832 = CARTESIAN_POINT ( 'NONE',  ( 4.999999999999998224, 5.000000000000000000, 40.00000000000000000 ) ) ;
#833 = MANIFOLD_SOLID_BREP ( 'Fillet1', #505 ) ;
#834 = VERTEX_POINT ( 'NONE', #724 ) ;
#835 = SPHERICAL_SURFACE ( 'NONE', #273, 2.500000000000002220 ) ;
#836 = DIRECTION ( 'NONE',  ( 1.000000000000000000, 0.0000000000000000000, 0.0000000000000000000 ) ) ;
#837 = EDGE_CURVE ( 'NONE', #74, #879, #225, .T. ) ;
#838 = DIRECTION ( 'NONE',  ( 0.0000000000000000000, -1.000000000000000000, 0.0000000000000000000 ) ) ;
#839 = PERSON_AND_ORGANIZATION ( #173, #83 ) ;
#840 = ORIENTED_EDGE ( 'NONE', *, *, #887, .T. ) ;
#841 = CARTESIAN_POINT ( 'NONE',  ( 39.99999999999996447, 105.0000000000000000, 40.00000000000000000 ) ) ;
#842 = AXIS2_PLACEMENT_3D ( 'NONE', #847, #850, #596 ) ;
#843 = DIRECTION ( 'NONE',  ( 0.0000000000000000000, 0.0000000000000000000, 1.000000000000000000 ) ) ;
#844 = EDGE_CURVE ( 'NONE', #208, #304, #745, .T. ) ;
#845 = ORIENTED_EDGE ( 'NONE', *, *, #837, .F. ) ;
#846 = DIRECTION ( 'NONE',  ( 0.0000000000000000000, 0.0000000000000000000, -1.000000000000000000 ) ) ;
#847 = CARTESIAN_POINT ( 'NONE',  ( 4.999999999999998224, 5.000000000000000000, 0.0000000000000000000 ) ) ;
#848 = CC_DESIGN_APPROVAL ( #408, ( #684 ) ) ;
#849 = CARTESIAN_POINT ( 'NONE',  ( 24.99999999999997868, 40.00000000000000000, 7.499999999999980460 ) ) ;
#850 = DIRECTION ( 'NONE',  ( 0.0000000000000000000, 0.0000000000000000000, -1.000000000000000000 ) ) ;
#851 = ORIENTED_EDGE ( 'NONE', *, *, #155, .F. ) ;
#852 = ORIENTED_EDGE ( 'NONE', *, *, #639, .F. ) ;
#853 = DIRECTION ( 'NONE',  ( 1.000000000000000000, 0.0000000000000000000, 0.0000000000000000000 ) ) ;
#854 = DIRECTION ( 'NONE',  ( 1.000000000000000000, 0.0000000000000000000, 0.0000000000000000000 ) ) ;
#855 = DIRECTION ( 'NONE',  ( -0.0000000000000000000, -0.0000000000000000000, 1.000000000000000000 ) ) ;
#856 = AXIS2_PLACEMENT_3D ( 'NONE', #711, #517, #504 ) ;
#857 = EDGE_LOOP ( 'NONE', ( #445, #323 ) ) ;
#858 = DIRECTION ( 'NONE',  ( -0.0000000000000000000, -0.0000000000000000000, 1.000000000000000000 ) ) ;
#859 = ADVANCED_FACE ( 'NONE', ( #198, #124, #277, #812, #881 ), #553, .F. ) ;
#860 = ORIENTED_EDGE ( 'NONE', *, *, #37, .T. ) ;
#861 = DIRECTION ( 'NONE',  ( 0.0000000000000000000, 0.0000000000000000000, 1.000000000000000000 ) ) ;
#862 = DIRECTION ( 'NONE',  ( 0.0000000000000000000, 0.0000000000000000000, 1.000000000000000000 ) ) ;
#863 = VERTEX_POINT ( 'NONE', #678 ) ;
#864 = VERTEX_POINT ( 'NONE', #810 ) ;
#865 = VECTOR ( 'NONE', #358, 1000.000000000000000 ) ;
#866 = ORIENTED_EDGE ( 'NONE', *, *, #416, .F. ) ;
#867 = CARTESIAN_POINT ( 'NONE',  ( 22.49999999999997868, 40.00000000000000000, 22.50000000000000000 ) ) ;
#868 = ADVANCED_FACE ( 'NONE', ( #872 ), #47, .F. ) ;
#869 = CIRCLE ( 'NONE', #76, 5.249999999999997335 ) ;
#870 = DATE_AND_TIME ( #611, #511 ) ;
#871 = ORIENTED_EDGE ( 'NONE', *, *, #333, .F. ) ;
#872 = FACE_OUTER_BOUND ( 'NONE', #415, .T. ) ;
#873 = LINE ( 'NONE', #153, #418 ) ;
#874 = ORIENTED_EDGE ( 'NONE', *, *, #333, .T. ) ;
#875 = DIRECTION ( 'NONE',  ( -0.0000000000000000000, -0.0000000000000000000, 1.000000000000000000 ) ) ;
#876 = VECTOR ( 'NONE', #300, 1000.000000000000227 ) ;
#877 = CARTESIAN_POINT ( 'NONE',  ( 27.74999999999998579, 14.99999999999999289, 22.50000000000000000 ) ) ;
#878 = DIRECTION ( 'NONE',  ( -1.982541115402065110E-16, 1.000000000000000000, 0.0000000000000000000 ) ) ;
#879 = VERTEX_POINT ( 'NONE', #282 ) ;
#880 = ADVANCED_FACE ( 'NONE', ( #133 ), #131, .F. ) ;
#881 = FACE_BOUND ( 'NONE', #533, .T. ) ;
#882 = DIRECTION ( 'NONE',  ( 0.0000000000000000000, 0.0000000000000000000, -1.000000000000000000 ) ) ;
#883 = CARTESIAN_POINT ( 'NONE',  ( 27.74999999999997513, 40.00000000000000000, 40.00000000000000000 ) ) ;
#884 = AXIS2_PLACEMENT_3D ( 'NONE', #56, #45, #625 ) ;
#885 = VERTEX_POINT ( 'NONE', #877 ) ;
#886 = CARTESIAN_POINT ( 'NONE',  ( 22.49999999999997868, 40.00000000000000000, 7.499999999999980460 ) ) ;
#887 = EDGE_CURVE ( 'NONE', #391, #208, #350, .T. ) ;
#888 = SPHERICAL_SURFACE ( 'NONE', #420, 2.500000000000002220 ) ;
#889 = EDGE_LOOP ( 'NONE', ( #342, #455 ) ) ;
#890 = APPROVAL_PERSON_ORGANIZATION ( #184, #600, #460 ) ;
#891 = ADVANCED_FACE ( 'NONE', ( #566 ), #145, .T. ) ;
#892 = ORIENTED_EDGE ( 'NONE', *, *, #844, .T. ) ;
#893 = LINE ( 'NONE', #480, #865 ) ;
#894 = EDGE_CURVE ( 'NONE', #709, #601, #179, .T. ) ;
#895 = ORIENTED_EDGE ( 'NONE', *, *, #465, .T. ) ;
#896 = VERTEX_POINT ( 'NONE', #631 ) ;
#897 = DIRECTION ( 'NONE',  ( 1.000000000000000000, 0.0000000000000000000, 0.0000000000000000000 ) ) ;
ENDSEC;
END-ISO-10303-21;
