ISO-10303-21;
HEADER;
FILE_DESCRIPTION (( 'STEP AP214' ),
    '1' );
FILE_NAME ('UNIVERSAL-MAIN-BASE_INSULATION-v001.STEP',
    '2026-01-27T00:17:12',
    ( '' ),
    ( '' ),
    'SwSTEP 2.0',
    'SolidWorks 2023',
    '' );
FILE_SCHEMA (( 'AUTOMOTIVE_DESIGN' ));
ENDSEC;

DATA;
#1 = CARTESIAN_POINT ( 'NONE',  ( 95.00000000000000000, 165.0000000000000284, 3.000000000000000000 ) ) ;
#2 = PRODUCT_DEFINITION ( 'UNKNOWN', '', #185, #482 ) ;
#3 = CARTESIAN_POINT ( 'NONE',  ( 0.000000000000000000, 0.000000000000000000, 0.000000000000000000 ) ) ;
#4 = ORIENTED_EDGE ( 'NONE', *, *, #55, .F. ) ;
#5 = EDGE_LOOP ( 'NONE', ( #344, #365, #544, #209 ) ) ;
#6 = DIRECTION ( 'NONE',  ( -0.000000000000000000, -0.000000000000000000, 1.000000000000000000 ) ) ;
#7 = ORIENTED_EDGE ( 'NONE', *, *, #155, .T. ) ;
#8 = VECTOR ( 'NONE', #334, 1000.000000000000000 ) ;
#9 = CARTESIAN_POINT ( 'NONE',  ( 94.99999999999997158, 165.0000000000000000, 3.000000000000000000 ) ) ;
#10 = ADVANCED_FACE ( 'NONE', ( #306 ), #507, .F. ) ;
#11 = EDGE_CURVE ( 'NONE', #440, #200, #609, .T. ) ;
#12 = AXIS2_PLACEMENT_3D ( 'NONE', #273, #29, #132 ) ;
#13 = CARTESIAN_POINT ( 'NONE',  ( 95.00000000000000000, 165.0000000000000284, 0.000000000000000000 ) ) ;
#14 = VECTOR ( 'NONE', #139, 1000.000000000000000 ) ;
#15 = FACE_OUTER_BOUND ( 'NONE', #358, .T. ) ;
#16 = VERTEX_POINT ( 'NONE', #564 ) ;
#17 = ORIENTED_EDGE ( 'NONE', *, *, #265, .F. ) ;
#18 = MANIFOLD_SOLID_BREP ( 'Fillet1', #96 ) ;
#19 = FACE_BOUND ( 'NONE', #551, .T. ) ;
#20 = ORIENTED_EDGE ( 'NONE', *, *, #217, .T. ) ;
#21 = ORIENTED_EDGE ( 'NONE', *, *, #265, .T. ) ;
#22 = EDGE_CURVE ( 'NONE', #452, #616, #510, .T. ) ;
#23 = FACE_OUTER_BOUND ( 'NONE', #268, .T. ) ;
#24 = VERTEX_POINT ( 'NONE', #370 ) ;
#25 = DIRECTION ( 'NONE',  ( 0.000000000000000000, -0.000000000000000000, -1.000000000000000000 ) ) ;
#26 = AXIS2_PLACEMENT_3D ( 'NONE', #9, #54, #255 ) ;
#27 = CYLINDRICAL_SURFACE ( 'NONE', #611, 1.699999999999993072 ) ;
#28 = DIRECTION ( 'NONE',  ( 0.000000000000000000, 0.000000000000000000, -1.000000000000000000 ) ) ;
#29 = DIRECTION ( 'NONE',  ( 0.000000000000000000, 0.000000000000000000, 1.000000000000000000 ) ) ;
#30 = DIRECTION ( 'NONE',  ( -0.000000000000000000, -0.000000000000000000, 1.000000000000000000 ) ) ;
#31 = MECHANICAL_DESIGN_GEOMETRIC_PRESENTATION_REPRESENTATION (  '', ( #516 ), #153 ) ;
#32 = ADVANCED_FACE ( 'NONE', ( #130 ), #464, .F. ) ;
#33 = DIRECTION ( 'NONE',  ( -1.632680918566406547E-16, 1.000000000000000000, 0.000000000000000000 ) ) ;
#34 = DIRECTION ( 'NONE',  ( 0.000000000000000000, 0.000000000000000000, -1.000000000000000000 ) ) ;
#35 = DIRECTION ( 'NONE',  ( 1.000000000000000000, 0.000000000000000000, 0.000000000000000000 ) ) ;
#36 = VECTOR ( 'NONE', #30, 1000.000000000000000 ) ;
#37 = ORIENTED_EDGE ( 'NONE', *, *, #349, .F. ) ;
#38 = CARTESIAN_POINT ( 'NONE',  ( 96.69999999999998863, 5.000000000000000000, 3.000000000000000000 ) ) ;
#39 =( LENGTH_UNIT ( ) NAMED_UNIT ( * ) SI_UNIT ( .MILLI., .METRE. ) );
#40 = COLOUR_RGB ( '',0.7921568627450980005, 0.8196078431372548767, 0.9333333333333333481 ) ;
#41 = DIRECTION ( 'NONE',  ( 1.632680918566406547E-16, -1.000000000000000000, 0.000000000000000000 ) ) ;
#42 = CARTESIAN_POINT ( 'NONE',  ( 0.000000000000000000, 0.000000000000000000, 0.000000000000000000 ) ) ;
#43 = ORIENTED_EDGE ( 'NONE', *, *, #419, .T. ) ;
#44 = AXIS2_PLACEMENT_3D ( 'NONE', #182, #275, #35 ) ;
#45 = ADVANCED_FACE ( 'NONE', ( #225 ), #556, .F. ) ;
#46 = PLANE ( 'NONE',  #236 ) ;
#47 = AXIS2_PLACEMENT_3D ( 'NONE', #48, #296, #345 ) ;
#48 = CARTESIAN_POINT ( 'NONE',  ( 4.999999999999992006, 5.000000000000004441, 3.000000000000000000 ) ) ;
#49 = VECTOR ( 'NONE', #546, 1000.000000000000000 ) ;
#50 = ORIENTED_EDGE ( 'NONE', *, *, #62, .T. ) ;
#51 = ORIENTED_EDGE ( 'NONE', *, *, #155, .F. ) ;
#52 = CARTESIAN_POINT ( 'NONE',  ( 100.0000000000000000, 0.000000000000000000, 3.000000000000000000 ) ) ;
#53 = ORIENTED_EDGE ( 'NONE', *, *, #525, .T. ) ;
#54 = DIRECTION ( 'NONE',  ( -0.000000000000000000, -0.000000000000000000, 1.000000000000000000 ) ) ;
#55 = EDGE_CURVE ( 'NONE', #529, #215, #559, .T. ) ;
#56 = ORIENTED_EDGE ( 'NONE', *, *, #517, .T. ) ;
#57 = EDGE_CURVE ( 'NONE', #313, #110, #367, .T. ) ;
#58 = AXIS2_PLACEMENT_3D ( 'NONE', #243, #193, #526 ) ;
#59 = FACE_OUTER_BOUND ( 'NONE', #291, .T. ) ;
#60 = FACE_OUTER_BOUND ( 'NONE', #206, .T. ) ;
#61 = ORIENTED_EDGE ( 'NONE', *, *, #55, .T. ) ;
#62 = EDGE_CURVE ( 'NONE', #200, #440, #475, .T. ) ;
#63 = CARTESIAN_POINT ( 'NONE',  ( 0.000000000000000000, 0.000000000000000000, 3.000000000000000000 ) ) ;
#64 = ORIENTED_EDGE ( 'NONE', *, *, #586, .F. ) ;
#65 = ORIENTED_EDGE ( 'NONE', *, *, #479, .T. ) ;
#66 = VECTOR ( 'NONE', #238, 1000.000000000000000 ) ;
#67 = LINE ( 'NONE', #298, #431 ) ;
#68 = ORIENTED_EDGE ( 'NONE', *, *, #169, .F. ) ;
#69 = ORIENTED_EDGE ( 'NONE', *, *, #372, .F. ) ;
#70 = FACE_OUTER_BOUND ( 'NONE', #154, .T. ) ;
#71 = ORIENTED_EDGE ( 'NONE', *, *, #447, .T. ) ;
#72 = ORIENTED_EDGE ( 'NONE', *, *, #399, .T. ) ;
#73 = DIRECTION ( 'NONE',  ( 0.000000000000000000, 0.000000000000000000, -1.000000000000000000 ) ) ;
#74 = AXIS2_PLACEMENT_3D ( 'NONE', #512, #87, #563 ) ;
#75 = LINE ( 'NONE', #382, #299 ) ;
#76 = EDGE_CURVE ( 'NONE', #603, #313, #276, .T. ) ;
#77 = FILL_AREA_STYLE ('',( #272 ) ) ;
#78 = EDGE_CURVE ( 'NONE', #616, #24, #445, .T. ) ;
#79 = LINE ( 'NONE', #604, #585 ) ;
#80 = DIRECTION ( 'NONE',  ( -1.000000000000000000, 0.000000000000000000, 0.000000000000000000 ) ) ;
#81 = VECTOR ( 'NONE', #347, 1000.000000000000000 ) ;
#82 = ORIENTED_EDGE ( 'NONE', *, *, #460, .T. ) ;
#83 = CARTESIAN_POINT ( 'NONE',  ( 100.0000000000000000, 5.000000000000000888, 3.000000000000000000 ) ) ;
#84 = LINE ( 'NONE', #38, #36 ) ;
#85 = DIRECTION ( 'NONE',  ( -0.000000000000000000, -0.000000000000000000, 1.000000000000000000 ) ) ;
#86 = ORIENTED_EDGE ( 'NONE', *, *, #217, .F. ) ;
#87 = DIRECTION ( 'NONE',  ( 0.000000000000000000, 0.000000000000000000, -1.000000000000000000 ) ) ;
#88 = EDGE_CURVE ( 'NONE', #613, #569, #552, .T. ) ;
#89 = SURFACE_SIDE_STYLE ('',( #220 ) ) ;
#90 = CARTESIAN_POINT ( 'NONE',  ( 94.99999999999997158, 165.0000000000000000, 0.000000000000000000 ) ) ;
#91 = DIRECTION ( 'NONE',  ( -1.000000000000000000, 0.000000000000000000, 0.000000000000000000 ) ) ;
#92 = EDGE_LOOP ( 'NONE', ( #598, #282 ) ) ;
#93 = DIRECTION ( 'NONE',  ( -0.000000000000000000, -0.000000000000000000, 1.000000000000000000 ) ) ;
#94 = EDGE_LOOP ( 'NONE', ( #489, #597, #20, #65 ) ) ;
#95 = LINE ( 'NONE', #388, #493 ) ;
#96 = CLOSED_SHELL ( 'NONE', ( #126, #32, #457, #417, #398, #192, #124, #572, #254, #406, #228, #10, #45, #443, #524, #104, #302, #373 ) ) ;
#97 = CIRCLE ( 'NONE', #198, 5.000000000000004441 ) ;
#98 = ORIENTED_EDGE ( 'NONE', *, *, #399, .F. ) ;
#99 = CARTESIAN_POINT ( 'NONE',  ( 0.000000000000000000, 0.000000000000000000, 3.000000000000000000 ) ) ;
#100 = ORIENTED_EDGE ( 'NONE', *, *, #360, .F. ) ;
#101 = UNCERTAINTY_MEASURE_WITH_UNIT (LENGTH_MEASURE( 1.000000000000000082E-05 ), #218, 'distance_accuracy_value', 'NONE');
#102 = FACE_OUTER_BOUND ( 'NONE', #94, .T. ) ;
#103 = ORIENTED_EDGE ( 'NONE', *, *, #488, .T. ) ;
#104 = ADVANCED_FACE ( 'NONE', ( #474 ), #471, .T. ) ;
#105 = CARTESIAN_POINT ( 'NONE',  ( 4.999999999999999112, 0.000000000000000000, 3.000000000000000000 ) ) ;
#106 = CIRCLE ( 'NONE', #26, 5.000000000000004441 ) ;
#107 = CARTESIAN_POINT ( 'NONE',  ( 95.00000000000000000, 5.000000000000000000, 3.000000000000000000 ) ) ;
#108 = AXIS2_PLACEMENT_3D ( 'NONE', #183, #467, #134 ) ;
#109 = LINE ( 'NONE', #301, #434 ) ;
#110 = VERTEX_POINT ( 'NONE', #615 ) ;
#111 = ORIENTED_EDGE ( 'NONE', *, *, #539, .T. ) ;
#112 = CARTESIAN_POINT ( 'NONE',  ( 95.00000000000000000, 5.000000000000000000, 3.000000000000000000 ) ) ;
#113 = ORIENTED_EDGE ( 'NONE', *, *, #180, .F. ) ;
#114 = EDGE_CURVE ( 'NONE', #199, #569, #521, .T. ) ;
#115 = ORIENTED_EDGE ( 'NONE', *, *, #372, .T. ) ;
#116 = CARTESIAN_POINT ( 'NONE',  ( 4.999999999999999112, 5.000000000000000000, 3.000000000000000000 ) ) ;
#117 = CIRCLE ( 'NONE', #44, 1.699999999999998401 ) ;
#118 = DIRECTION ( 'NONE',  ( 0.000000000000000000, 0.000000000000000000, -1.000000000000000000 ) ) ;
#119 = EDGE_LOOP ( 'NONE', ( #175, #574 ) ) ;
#120 = VECTOR ( 'NONE', #324, 1000.000000000000000 ) ;
#121 = CARTESIAN_POINT ( 'NONE',  ( 3.299999999999994049, 5.000000000000004441, 0.000000000000000000 ) ) ;
#122 = EDGE_LOOP ( 'NONE', ( #498, #113 ) ) ;
#123 = ORIENTED_EDGE ( 'NONE', *, *, #114, .F. ) ;
#124 = ADVANCED_FACE ( 'NONE', ( #337 ), #46, .F. ) ;
#125 = CARTESIAN_POINT ( 'NONE',  ( 94.99999999999997158, 170.0000000000000000, 3.000000000000000000 ) ) ;
#126 = ADVANCED_FACE ( 'NONE', ( #433 ), #148, .F. ) ;
#127 = DIRECTION ( 'NONE',  ( 0.000000000000000000, 0.000000000000000000, -1.000000000000000000 ) ) ;
#128 = CARTESIAN_POINT ( 'NONE',  ( 4.999999999999973355, 165.0000000000000000, 0.000000000000000000 ) ) ;
#129 = CARTESIAN_POINT ( 'NONE',  ( 0.000000000000000000, 0.000000000000000000, 0.000000000000000000 ) ) ;
#130 = FACE_OUTER_BOUND ( 'NONE', #234, .T. ) ;
#131 = ORIENTED_EDGE ( 'NONE', *, *, #57, .T. ) ;
#132 = DIRECTION ( 'NONE',  ( 1.000000000000000000, 0.000000000000000000, 0.000000000000000000 ) ) ;
#133 = DIRECTION ( 'NONE',  ( -0.000000000000000000, -0.000000000000000000, 1.000000000000000000 ) ) ;
#134 = DIRECTION ( 'NONE',  ( -1.000000000000000000, 0.000000000000000000, 0.000000000000000000 ) ) ;
#135 = AXIS2_PLACEMENT_3D ( 'NONE', #478, #437, #143 ) ;
#136 = EDGE_CURVE ( 'NONE', #242, #110, #575, .T. ) ;
#137 = CARTESIAN_POINT ( 'NONE',  ( 94.99999999999997158, 170.0000000000000000, 3.000000000000000000 ) ) ;
#138 = DIRECTION ( 'NONE',  ( 0.000000000000000000, 0.000000000000000000, -1.000000000000000000 ) ) ;
#139 = DIRECTION ( 'NONE',  ( -0.000000000000000000, -0.000000000000000000, 1.000000000000000000 ) ) ;
#140 = CIRCLE ( 'NONE', #269, 1.699999999999993072 ) ;
#141 = CARTESIAN_POINT ( 'NONE',  ( 93.30000000000001137, 165.0000000000000284, 3.000000000000000000 ) ) ;
#142 = VERTEX_POINT ( 'NONE', #483 ) ;
#143 = DIRECTION ( 'NONE',  ( -1.000000000000000000, 0.000000000000000000, 0.000000000000000000 ) ) ;
#144 = ORIENTED_EDGE ( 'NONE', *, *, #461, .F. ) ;
#145 = EDGE_CURVE ( 'NONE', #359, #529, #152, .T. ) ;
#146 = APPLICATION_CONTEXT ( 'automotive_design' ) ;
#147 = FACE_OUTER_BOUND ( 'NONE', #394, .T. ) ;
#148 = CYLINDRICAL_SURFACE ( 'NONE', #314, 1.699999999999998401 ) ;
#149 = AXIS2_PLACEMENT_3D ( 'NONE', #458, #495, #320 ) ;
#150 = AXIS2_PLACEMENT_3D ( 'NONE', #107, #402, #587 ) ;
#151 = VERTEX_POINT ( 'NONE', #246 ) ;
#152 = LINE ( 'NONE', #42, #602 ) ;
#153 =( GEOMETRIC_REPRESENTATION_CONTEXT ( 3 ) GLOBAL_UNCERTAINTY_ASSIGNED_CONTEXT ( ( #534 ) ) GLOBAL_UNIT_ASSIGNED_CONTEXT ( ( #39, #415, #174 ) ) REPRESENTATION_CONTEXT ( 'NONE', 'WORKASPACE' ) );
#154 = EDGE_LOOP ( 'NONE', ( #167, #450, #317, #362 ) ) ;
#155 = EDGE_CURVE ( 'NONE', #242, #529, #336, .T. ) ;
#156 = CARTESIAN_POINT ( 'NONE',  ( 6.699999999999990408, 5.000000000000004441, 3.000000000000000000 ) ) ;
#157 = LINE ( 'NONE', #263, #158 ) ;
#158 = VECTOR ( 'NONE', #550, 1000.000000000000000 ) ;
#159 = CARTESIAN_POINT ( 'NONE',  ( 99.99999999999997158, 165.0000000000000000, 3.000000000000000000 ) ) ;
#160 = VERTEX_POINT ( 'NONE', #290 ) ;
#161 = DIRECTION ( 'NONE',  ( 0.000000000000000000, 0.000000000000000000, -1.000000000000000000 ) ) ;
#162 = VERTEX_POINT ( 'NONE', #241 ) ;
#163 = CARTESIAN_POINT ( 'NONE',  ( 0.000000000000000000, 0.000000000000000000, 3.000000000000000000 ) ) ;
#164 = ORIENTED_EDGE ( 'NONE', *, *, #549, .T. ) ;
#165 =( NAMED_UNIT ( * ) PLANE_ANGLE_UNIT ( ) SI_UNIT ( $, .RADIAN. ) );
#166 = FACE_BOUND ( 'NONE', #184, .T. ) ;
#167 = ORIENTED_EDGE ( 'NONE', *, *, #584, .F. ) ;
#168 = EDGE_CURVE ( 'NONE', #468, #221, #418, .T. ) ;
#169 = EDGE_CURVE ( 'NONE', #110, #142, #95, .T. ) ;
#170 = AXIS2_PLACEMENT_3D ( 'NONE', #426, #328, #91 ) ;
#171 = CARTESIAN_POINT ( 'NONE',  ( 4.999999999999972466, 165.0000000000000000, 0.000000000000000000 ) ) ;
#172 = DIRECTION ( 'NONE',  ( -0.000000000000000000, -0.000000000000000000, 1.000000000000000000 ) ) ;
#173 = FACE_OUTER_BOUND ( 'NONE', #230, .T. ) ;
#174 =( NAMED_UNIT ( * ) SI_UNIT ( $, .STERADIAN. ) SOLID_ANGLE_UNIT ( ) );
#175 = ORIENTED_EDGE ( 'NONE', *, *, #239, .F. ) ;
#176 = VECTOR ( 'NONE', #608, 1000.000000000000000 ) ;
#177 = FACE_OUTER_BOUND ( 'NONE', #245, .T. ) ;
#178 = CARTESIAN_POINT ( 'NONE',  ( -8.163404592832031007E-16, 4.999999999999999112, 3.000000000000000000 ) ) ;
#179 = ORIENTED_EDGE ( 'NONE', *, *, #447, .F. ) ;
#180 = EDGE_CURVE ( 'NONE', #569, #613, #355, .T. ) ;
#181 = APPLICATION_PROTOCOL_DEFINITION ( 'draft international standard', 'automotive_design', 1998, #146 ) ;
#182 = CARTESIAN_POINT ( 'NONE',  ( 4.999999999999992006, 5.000000000000004441, 3.000000000000000000 ) ) ;
#183 = CARTESIAN_POINT ( 'NONE',  ( 95.00000000000000000, 5.000000000000000000, 0.000000000000000000 ) ) ;
#184 = EDGE_LOOP ( 'NONE', ( #486, #98 ) ) ;
#185 = PRODUCT_DEFINITION_FORMATION_WITH_SPECIFIED_SOURCE ( 'ANY', '', #357, .NOT_KNOWN. ) ;
#186 = DIRECTION ( 'NONE',  ( -1.000000000000000000, 0.000000000000000000, 0.000000000000000000 ) ) ;
#187 = PRESENTATION_STYLE_ASSIGNMENT (( #519 ) ) ;
#188 = AXIS2_PLACEMENT_3D ( 'NONE', #63, #404, #589 ) ;
#189 = DIRECTION ( 'NONE',  ( 0.000000000000000000, 1.000000000000000000, 0.000000000000000000 ) ) ;
#190 = ORIENTED_EDGE ( 'NONE', *, *, #287, .F. ) ;
#191 = EDGE_CURVE ( 'NONE', #307, #16, #223, .T. ) ;
#192 = ADVANCED_FACE ( 'NONE', ( #147 ), #201, .F. ) ;
#193 = DIRECTION ( 'NONE',  ( 0.000000000000000000, 0.000000000000000000, -1.000000000000000000 ) ) ;
#194 = VECTOR ( 'NONE', #229, 1000.000000000000000 ) ;
#195 = DIRECTION ( 'NONE',  ( -0.000000000000000000, -0.000000000000000000, 1.000000000000000000 ) ) ;
#196 = VERTEX_POINT ( 'NONE', #396 ) ;
#197 = CARTESIAN_POINT ( 'NONE',  ( 96.69999999999998863, 5.000000000000000000, 0.000000000000000000 ) ) ;
#198 = AXIS2_PLACEMENT_3D ( 'NONE', #90, #315, #500 ) ;
#199 = VERTEX_POINT ( 'NONE', #248 ) ;
#200 = VERTEX_POINT ( 'NONE', #582 ) ;
#201 = PLANE ( 'NONE',  #465 ) ;
#202 = FACE_BOUND ( 'NONE', #122, .T. ) ;
#203 = DIRECTION ( 'NONE',  ( -1.000000000000000000, 0.000000000000000000, 0.000000000000000000 ) ) ;
#204 = AXIS2_PLACEMENT_3D ( 'NONE', #614, #428, #219 ) ;
#205 = DIRECTION ( 'NONE',  ( 0.000000000000000000, 0.000000000000000000, -1.000000000000000000 ) ) ;
#206 = EDGE_LOOP ( 'NONE', ( #561, #455, #591, #329 ) ) ;
#207 = ORIENTED_EDGE ( 'NONE', *, *, #76, .T. ) ;
#208 = CARTESIAN_POINT ( 'NONE',  ( 6.699999999999971756, 165.0000000000000000, 3.000000000000000000 ) ) ;
#209 = ORIENTED_EDGE ( 'NONE', *, *, #252, .F. ) ;
#210 = VERTEX_POINT ( 'NONE', #197 ) ;
#211 = FACE_OUTER_BOUND ( 'NONE', #261, .T. ) ;
#212 = CARTESIAN_POINT ( 'NONE',  ( 99.99999999999997158, 165.0000000000000000, 3.000000000000000000 ) ) ;
#213 = ORIENTED_EDGE ( 'NONE', *, *, #145, .F. ) ;
#214 = EDGE_CURVE ( 'NONE', #423, #199, #274, .T. ) ;
#215 = VERTEX_POINT ( 'NONE', #294 ) ;
#216 = AXIS2_PLACEMENT_3D ( 'NONE', #128, #73, #462 ) ;
#217 = EDGE_CURVE ( 'NONE', #200, #532, #579, .T. ) ;
#218 =( LENGTH_UNIT ( ) NAMED_UNIT ( * ) SI_UNIT ( .MILLI., .METRE. ) );
#219 = DIRECTION ( 'NONE',  ( 1.000000000000000000, 0.000000000000000000, 0.000000000000000000 ) ) ;
#220 = SURFACE_STYLE_FILL_AREA ( #77 ) ;
#221 = VERTEX_POINT ( 'NONE', #340 ) ;
#222 = PRODUCT_CONTEXT ( 'NONE', #304, 'mechanical' ) ;
#223 = CIRCLE ( 'NONE', #326, 1.699999999999993072 ) ;
#224 = FACE_OUTER_BOUND ( 'NONE', #354, .T. ) ;
#225 = FACE_OUTER_BOUND ( 'NONE', #260, .T. ) ;
#226 = ORIENTED_EDGE ( 'NONE', *, *, #360, .T. ) ;
#227 = LINE ( 'NONE', #425, #176 ) ;
#228 = ADVANCED_FACE ( 'NONE', ( #102 ), #573, .F. ) ;
#229 = DIRECTION ( 'NONE',  ( 0.000000000000000000, 0.000000000000000000, -1.000000000000000000 ) ) ;
#230 = EDGE_LOOP ( 'NONE', ( #405, #164, #410, #131, #577, #7, #213, #594 ) ) ;
#231 = AXIS2_PLACEMENT_3D ( 'NONE', #171, #470, #186 ) ;
#232 = LINE ( 'NONE', #369, #403 ) ;
#233 = CARTESIAN_POINT ( 'NONE',  ( -2.775557561562891351E-14, 170.0000000000000000, 3.000000000000000000 ) ) ;
#234 = EDGE_LOOP ( 'NONE', ( #542, #383, #321, #190 ) ) ;
#235 = CYLINDRICAL_SURFACE ( 'NONE', #292, 5.000000000000004441 ) ;
#236 = AXIS2_PLACEMENT_3D ( 'NONE', #52, #435, #41 ) ;
#237 = ORIENTED_EDGE ( 'NONE', *, *, #191, .F. ) ;
#238 = DIRECTION ( 'NONE',  ( -0.000000000000000000, 0.000000000000000000, -1.000000000000000000 ) ) ;
#239 = EDGE_CURVE ( 'NONE', #257, #160, #244, .T. ) ;
#240 = EDGE_CURVE ( 'NONE', #390, #242, #535, .T. ) ;
#241 = CARTESIAN_POINT ( 'NONE',  ( 94.99999999999997158, 170.0000000000000000, 0.000000000000000000 ) ) ;
#242 = VERTEX_POINT ( 'NONE', #618 ) ;
#243 = CARTESIAN_POINT ( 'NONE',  ( 4.999999999999999112, 5.000000000000000000, 0.000000000000000000 ) ) ;
#244 = CIRCLE ( 'NONE', #346, 1.699999999999999289 ) ;
#245 = EDGE_LOOP ( 'NONE', ( #17, #619, #386, #553 ) ) ;
#246 = CARTESIAN_POINT ( 'NONE',  ( 3.299999999999994049, 5.000000000000004441, 3.000000000000000000 ) ) ;
#247 = ORIENTED_EDGE ( 'NONE', *, *, #460, .F. ) ;
#248 = CARTESIAN_POINT ( 'NONE',  ( 93.30000000000001137, 165.0000000000000284, 0.000000000000000000 ) ) ;
#249 = FACE_BOUND ( 'NONE', #119, .T. ) ;
#250 = PRESENTATION_LAYER_ASSIGNMENT (  '', '', ( #516 ) ) ;
#251 = CYLINDRICAL_SURFACE ( 'NONE', #427, 5.000000000000000000 ) ;
#252 = EDGE_CURVE ( 'NONE', #221, #257, #67, .T. ) ;
#253 = AXIS2_PLACEMENT_3D ( 'NONE', #116, #504, #469 ) ;
#254 = ADVANCED_FACE ( 'NONE', ( #249, #202, #451, #19, #23 ), #494, .F. ) ;
#255 = DIRECTION ( 'NONE',  ( -1.000000000000000000, 0.000000000000000000, 0.000000000000000000 ) ) ;
#256 = EDGE_LOOP ( 'NONE', ( #277, #401, #607, #207 ) ) ;
#257 = VERTEX_POINT ( 'NONE', #208 ) ;
#258 = CIRCLE ( 'NONE', #231, 1.699999999999998401 ) ;
#259 = DIRECTION ( 'NONE',  ( -0.000000000000000000, -0.000000000000000000, 1.000000000000000000 ) ) ;
#260 = EDGE_LOOP ( 'NONE', ( #123, #335, #395, #523 ) ) ;
#261 = EDGE_LOOP ( 'NONE', ( #502, #485, #325, #56 ) ) ;
#262 = DIRECTION ( 'NONE',  ( 0.000000000000000000, -1.000000000000000000, 0.000000000000000000 ) ) ;
#263 = CARTESIAN_POINT ( 'NONE',  ( -2.775557561562891351E-14, 170.0000000000000000, 0.000000000000000000 ) ) ;
#264 = EDGE_LOOP ( 'NONE', ( #536, #312 ) ) ;
#265 = EDGE_CURVE ( 'NONE', #295, #452, #106, .T. ) ;
#266 =( NAMED_UNIT ( * ) SI_UNIT ( $, .STERADIAN. ) SOLID_ANGLE_UNIT ( ) );
#267 = DIRECTION ( 'NONE',  ( 1.000000000000000000, 0.000000000000000000, 0.000000000000000000 ) ) ;
#268 = EDGE_LOOP ( 'NONE', ( #53, #21, #496, #527, #82, #338, #371, #115 ) ) ;
#269 = AXIS2_PLACEMENT_3D ( 'NONE', #13, #361, #203 ) ;
#270 = APPLICATION_PROTOCOL_DEFINITION ( 'draft international standard', 'automotive_design', 1998, #304 ) ;
#271 = DIRECTION ( 'NONE',  ( -0.000000000000000000, -0.000000000000000000, 1.000000000000000000 ) ) ;
#272 = FILL_AREA_STYLE_COLOUR ( '', #40 ) ;
#273 = CARTESIAN_POINT ( 'NONE',  ( 0.000000000000000000, 0.000000000000000000, 0.000000000000000000 ) ) ;
#274 = CIRCLE ( 'NONE', #623, 1.699999999999993072 ) ;
#275 = DIRECTION ( 'NONE',  ( -0.000000000000000000, -0.000000000000000000, 1.000000000000000000 ) ) ;
#276 = LINE ( 'NONE', #379, #194 ) ;
#277 = ORIENTED_EDGE ( 'NONE', *, *, #505, .T. ) ;
#278 = DIRECTION ( 'NONE',  ( 0.000000000000000000, 0.000000000000000000, -1.000000000000000000 ) ) ;
#279 = AXIS2_PLACEMENT_3D ( 'NONE', #429, #28, #422 ) ;
#280 = CARTESIAN_POINT ( 'NONE',  ( 4.999999999999992006, 5.000000000000004441, 3.000000000000000000 ) ) ;
#281 = DIRECTION ( 'NONE',  ( 1.000000000000000000, 0.000000000000000000, 0.000000000000000000 ) ) ;
#282 = ORIENTED_EDGE ( 'NONE', *, *, #168, .F. ) ;
#283 = FACE_BOUND ( 'NONE', #264, .T. ) ;
#284 = CARTESIAN_POINT ( 'NONE',  ( 95.00000000000000000, 165.0000000000000284, 3.000000000000000000 ) ) ;
#285 = LINE ( 'NONE', #567, #14 ) ;
#286 = AXIS2_PLACEMENT_3D ( 'NONE', #566, #138, #331 ) ;
#287 = EDGE_CURVE ( 'NONE', #423, #613, #109, .T. ) ;
#288 = DIRECTION ( 'NONE',  ( 1.000000000000000000, 0.000000000000000000, 0.000000000000000000 ) ) ;
#289 = VECTOR ( 'NONE', #278, 1000.000000000000000 ) ;
#290 = CARTESIAN_POINT ( 'NONE',  ( 3.299999999999973177, 165.0000000000000000, 3.000000000000000000 ) ) ;
#291 = EDGE_LOOP ( 'NONE', ( #64, #4, #51, #453 ) ) ;
#292 = AXIS2_PLACEMENT_3D ( 'NONE', #327, #378, #565 ) ;
#293 = DIRECTION ( 'NONE',  ( 1.000000000000000000, 0.000000000000000000, 0.000000000000000000 ) ) ;
#294 = CARTESIAN_POINT ( 'NONE',  ( -8.163404592832031007E-16, 4.999999999999999112, 3.000000000000000000 ) ) ;
#295 = VERTEX_POINT ( 'NONE', #212 ) ;
#296 = DIRECTION ( 'NONE',  ( -0.000000000000000000, -0.000000000000000000, 1.000000000000000000 ) ) ;
#297 = ORIENTED_EDGE ( 'NONE', *, *, #332, .F. ) ;
#298 = CARTESIAN_POINT ( 'NONE',  ( 6.699999999999970868, 165.0000000000000000, 3.000000000000000000 ) ) ;
#299 = VECTOR ( 'NONE', #456, 1000.000000000000000 ) ;
#300 = EDGE_CURVE ( 'NONE', #162, #480, #157, .T. ) ;
#301 = CARTESIAN_POINT ( 'NONE',  ( 96.69999999999998863, 165.0000000000000284, 3.000000000000000000 ) ) ;
#302 = ADVANCED_FACE ( 'NONE', ( #59 ), #251, .T. ) ;
#303 = AXIS2_PLACEMENT_3D ( 'NONE', #1, #6, #439 ) ;
#304 = APPLICATION_CONTEXT ( 'automotive_design' ) ;
#305 = CARTESIAN_POINT ( 'NONE',  ( -2.693923515634571110E-14, 165.0000000000000000, 0.000000000000000000 ) ) ;
#306 = FACE_OUTER_BOUND ( 'NONE', #416, .T. ) ;
#307 = VERTEX_POINT ( 'NONE', #446 ) ;
#308 = FACE_BOUND ( 'NONE', #412, .T. ) ;
#309 = AXIS2_PLACEMENT_3D ( 'NONE', #112, #454, #547 ) ;
#310 = LINE ( 'NONE', #125, #289 ) ;
#311 = CARTESIAN_POINT ( 'NONE',  ( 4.999999999999973355, 165.0000000000000000, 3.000000000000000000 ) ) ;
#312 = ORIENTED_EDGE ( 'NONE', *, *, #11, .F. ) ;
#313 = VERTEX_POINT ( 'NONE', #492 ) ;
#314 = AXIS2_PLACEMENT_3D ( 'NONE', #528, #93, #476 ) ;
#315 = DIRECTION ( 'NONE',  ( 0.000000000000000000, 0.000000000000000000, -1.000000000000000000 ) ) ;
#316 = LINE ( 'NONE', #432, #560 ) ;
#317 = ORIENTED_EDGE ( 'NONE', *, *, #252, .T. ) ;
#318 = DIRECTION ( 'NONE',  ( -0.000000000000000000, -0.000000000000000000, 1.000000000000000000 ) ) ;
#319 = PLANE ( 'NONE',  #481 ) ;
#320 = DIRECTION ( 'NONE',  ( 1.000000000000000000, 0.000000000000000000, 0.000000000000000000 ) ) ;
#321 = ORIENTED_EDGE ( 'NONE', *, *, #180, .T. ) ;
#322 = CARTESIAN_POINT ( 'NONE',  ( -2.775557561562891351E-14, 170.0000000000000000, 3.000000000000000000 ) ) ;
#323 = DIRECTION ( 'NONE',  ( 1.000000000000000000, 0.000000000000000000, 0.000000000000000000 ) ) ;
#324 = DIRECTION ( 'NONE',  ( 0.000000000000000000, -0.000000000000000000, 1.000000000000000000 ) ) ;
#325 = ORIENTED_EDGE ( 'NONE', *, *, #300, .T. ) ;
#326 = AXIS2_PLACEMENT_3D ( 'NONE', #621, #195, #389 ) ;
#327 = CARTESIAN_POINT ( 'NONE',  ( 94.99999999999997158, 165.0000000000000000, 3.000000000000000000 ) ) ;
#328 = DIRECTION ( 'NONE',  ( -0.000000000000000000, -0.000000000000000000, 1.000000000000000000 ) ) ;
#329 = ORIENTED_EDGE ( 'NONE', *, *, #488, .F. ) ;
#330 = DIRECTION ( 'NONE',  ( -0.000000000000000000, -0.000000000000000000, 1.000000000000000000 ) ) ;
#331 = DIRECTION ( 'NONE',  ( -1.000000000000000000, 0.000000000000000000, 0.000000000000000000 ) ) ;
#332 = EDGE_CURVE ( 'NONE', #390, #142, #350, .T. ) ;
#333 = CARTESIAN_POINT ( 'NONE',  ( -8.163404592832031007E-16, 4.999999999999999112, 0.000000000000000000 ) ) ;
#334 = DIRECTION ( 'NONE',  ( -0.000000000000000000, -0.000000000000000000, 1.000000000000000000 ) ) ;
#335 = ORIENTED_EDGE ( 'NONE', *, *, #349, .T. ) ;
#336 = CIRCLE ( 'NONE', #58, 5.000000000000000000 ) ;
#337 = FACE_OUTER_BOUND ( 'NONE', #256, .T. ) ;
#338 = ORIENTED_EDGE ( 'NONE', *, *, #586, .T. ) ;
#339 = AXIS2_PLACEMENT_3D ( 'NONE', #322, #262, #25 ) ;
#340 = CARTESIAN_POINT ( 'NONE',  ( 6.699999999999970868, 165.0000000000000000, 0.000000000000000000 ) ) ;
#341 = VECTOR ( 'NONE', #33, 1000.000000000000000 ) ;
#342 = CARTESIAN_POINT ( 'NONE',  ( 95.00000000000000000, 165.0000000000000284, 0.000000000000000000 ) ) ;
#343 = PRODUCT_RELATED_PRODUCT_CATEGORY ( 'part', '', ( #357 ) ) ;
#344 = ORIENTED_EDGE ( 'NONE', *, *, #442, .T. ) ;
#345 = DIRECTION ( 'NONE',  ( 1.000000000000000000, 0.000000000000000000, 0.000000000000000000 ) ) ;
#346 = AXIS2_PLACEMENT_3D ( 'NONE', #487, #533, #484 ) ;
#347 = DIRECTION ( 'NONE',  ( -0.000000000000000000, -0.000000000000000000, 1.000000000000000000 ) ) ;
#348 = ORIENTED_EDGE ( 'NONE', *, *, #571, .T. ) ;
#349 = EDGE_CURVE ( 'NONE', #199, #423, #140, .T. ) ;
#350 = LINE ( 'NONE', #163, #384 ) ;
#351 = AXIS2_PLACEMENT_3D ( 'NONE', #448, #205, #444 ) ;
#352 = DIRECTION ( 'NONE',  ( -0.000000000000000000, -0.000000000000000000, 1.000000000000000000 ) ) ;
#353 = VERTEX_POINT ( 'NONE', #593 ) ;
#354 = EDGE_LOOP ( 'NONE', ( #43, #71, #226, #144 ) ) ;
#355 = CIRCLE ( 'NONE', #303, 1.699999999999993072 ) ;
#356 = DIRECTION ( 'NONE',  ( -1.000000000000000000, 0.000000000000000000, 0.000000000000000000 ) ) ;
#357 = PRODUCT ( 'UNIVERSAL-MAIN-BASE_INSULATION-v001', 'UNIVERSAL-MAIN-BASE_INSULATION-v001', '', ( #222 ) ) ;
#358 = EDGE_LOOP ( 'NONE', ( #391, #61, #247, #103 ) ) ;
#359 = VERTEX_POINT ( 'NONE', #305 ) ;
#360 = EDGE_CURVE ( 'NONE', #16, #307, #449, .T. ) ;
#361 = DIRECTION ( 'NONE',  ( 0.000000000000000000, 0.000000000000000000, -1.000000000000000000 ) ) ;
#362 = ORIENTED_EDGE ( 'NONE', *, *, #239, .T. ) ;
#363 = CARTESIAN_POINT ( 'NONE',  ( 4.999999999999973355, 170.0000000000000000, 3.000000000000000000 ) ) ;
#364 = PLANE ( 'NONE',  #188 ) ;
#365 = ORIENTED_EDGE ( 'NONE', *, *, #584, .T. ) ;
#366 = ORIENTED_EDGE ( 'NONE', *, *, #57, .F. ) ;
#367 = CIRCLE ( 'NONE', #108, 5.000000000000004441 ) ;
#368 = CARTESIAN_POINT ( 'NONE',  ( 4.999999999999992006, 5.000000000000004441, 3.000000000000000000 ) ) ;
#369 = CARTESIAN_POINT ( 'NONE',  ( -2.693923515634571110E-14, 165.0000000000000000, 3.000000000000000000 ) ) ;
#370 = CARTESIAN_POINT ( 'NONE',  ( -2.693923515634571110E-14, 165.0000000000000000, 3.000000000000000000 ) ) ;
#371 = ORIENTED_EDGE ( 'NONE', *, *, #332, .T. ) ;
#372 = EDGE_CURVE ( 'NONE', #142, #603, #620, .T. ) ;
#373 = ADVANCED_FACE ( 'NONE', ( #60 ), #501, .T. ) ;
#374 = CARTESIAN_POINT ( 'NONE',  ( 3.299999999999974065, 165.0000000000000000, 0.000000000000000000 ) ) ;
#375 = DIRECTION ( 'NONE',  ( -0.000000000000000000, -0.000000000000000000, 1.000000000000000000 ) ) ;
#376 = AXIS2_PLACEMENT_3D ( 'NONE', #311, #118, #411 ) ;
#377 = DIRECTION ( 'NONE',  ( 0.000000000000000000, 0.000000000000000000, -1.000000000000000000 ) ) ;
#378 = DIRECTION ( 'NONE',  ( 0.000000000000000000, 0.000000000000000000, -1.000000000000000000 ) ) ;
#379 = CARTESIAN_POINT ( 'NONE',  ( 100.0000000000000000, 5.000000000000000888, 3.000000000000000000 ) ) ;
#380 = ORIENTED_EDGE ( 'NONE', *, *, #214, .F. ) ;
#381 = EDGE_CURVE ( 'NONE', #196, #295, #408, .T. ) ;
#382 = CARTESIAN_POINT ( 'NONE',  ( 93.30000000000001137, 5.000000000000000000, 3.000000000000000000 ) ) ;
#383 = ORIENTED_EDGE ( 'NONE', *, *, #114, .T. ) ;
#384 = VECTOR ( 'NONE', #497, 1000.000000000000000 ) ;
#385 = DIRECTION ( 'NONE',  ( 1.632680918566406547E-16, -1.000000000000000000, -0.000000000000000000 ) ) ;
#386 = ORIENTED_EDGE ( 'NONE', *, *, #549, .F. ) ;
#387 = AXIS2_PLACEMENT_3D ( 'NONE', #606, #375, #288 ) ;
#388 = CARTESIAN_POINT ( 'NONE',  ( 95.00000000000000000, 0.000000000000000000, 3.000000000000000000 ) ) ;
#389 = DIRECTION ( 'NONE',  ( 1.000000000000000000, 0.000000000000000000, 0.000000000000000000 ) ) ;
#390 = VERTEX_POINT ( 'NONE', #540 ) ;
#391 = ORIENTED_EDGE ( 'NONE', *, *, #145, .T. ) ;
#392 = CIRCLE ( 'NONE', #74, 1.699999999999993072 ) ;
#393 = DIRECTION ( 'NONE',  ( -1.000000000000000000, 0.000000000000000000, 0.000000000000000000 ) ) ;
#394 = EDGE_LOOP ( 'NONE', ( #545, #588, #297, #590 ) ) ;
#395 = ORIENTED_EDGE ( 'NONE', *, *, #287, .T. ) ;
#396 = CARTESIAN_POINT ( 'NONE',  ( 99.99999999999997158, 165.0000000000000000, 0.000000000000000000 ) ) ;
#397 = AXIS2_PLACEMENT_3D ( 'NONE', #601, #172, #610 ) ;
#398 = ADVANCED_FACE ( 'NONE', ( #15 ), #364, .F. ) ;
#399 = EDGE_CURVE ( 'NONE', #353, #210, #472, .T. ) ;
#400 = DIRECTION ( 'NONE',  ( -1.000000000000000000, 0.000000000000000000, 0.000000000000000000 ) ) ;
#401 = ORIENTED_EDGE ( 'NONE', *, *, #381, .T. ) ;
#402 = DIRECTION ( 'NONE',  ( -0.000000000000000000, -0.000000000000000000, 1.000000000000000000 ) ) ;
#403 = VECTOR ( 'NONE', #377, 1000.000000000000000 ) ;
#404 = DIRECTION ( 'NONE',  ( 1.000000000000000000, 1.632680918566406547E-16, -0.000000000000000000 ) ) ;
#405 = ORIENTED_EDGE ( 'NONE', *, *, #300, .F. ) ;
#406 = ADVANCED_FACE ( 'NONE', ( #543, #308, #166, #283, #173 ), #319, .T. ) ;
#407 = EDGE_CURVE ( 'NONE', #160, #257, #530, .T. ) ;
#408 = LINE ( 'NONE', #159, #459 ) ;
#409 =( GEOMETRIC_REPRESENTATION_CONTEXT ( 3 ) GLOBAL_UNCERTAINTY_ASSIGNED_CONTEXT ( ( #101 ) ) GLOBAL_UNIT_ASSIGNED_CONTEXT ( ( #218, #165, #266 ) ) REPRESENTATION_CONTEXT ( 'NONE', 'WORKASPACE' ) );
#410 = ORIENTED_EDGE ( 'NONE', *, *, #505, .F. ) ;
#411 = DIRECTION ( 'NONE',  ( -1.000000000000000000, 0.000000000000000000, 0.000000000000000000 ) ) ;
#412 = EDGE_LOOP ( 'NONE', ( #380, #37 ) ) ;
#413 = CARTESIAN_POINT ( 'NONE',  ( 3.299999999999974065, 165.0000000000000000, 3.000000000000000000 ) ) ;
#414 = FACE_OUTER_BOUND ( 'NONE', #622, .T. ) ;
#415 =( NAMED_UNIT ( * ) PLANE_ANGLE_UNIT ( ) SI_UNIT ( $, .RADIAN. ) );
#416 = EDGE_LOOP ( 'NONE', ( #179, #72, #515, #438 ) ) ;
#417 = ADVANCED_FACE ( 'NONE', ( #414 ), #600, .F. ) ;
#418 = CIRCLE ( 'NONE', #135, 1.699999999999998401 ) ;
#419 = EDGE_CURVE ( 'NONE', #210, #353, #392, .T. ) ;
#420 = SHAPE_DEFINITION_REPRESENTATION ( #592, #514 ) ;
#421 = CARTESIAN_POINT ( 'NONE',  ( 95.00000000000000000, 5.000000000000000000, 3.000000000000000000 ) ) ;
#422 = DIRECTION ( 'NONE',  ( -1.000000000000000000, 0.000000000000000000, 0.000000000000000000 ) ) ;
#423 = VERTEX_POINT ( 'NONE', #509 ) ;
#424 = PLANE ( 'NONE',  #339 ) ;
#425 = CARTESIAN_POINT ( 'NONE',  ( 4.999999999999973355, 170.0000000000000000, 3.000000000000000000 ) ) ;
#426 = CARTESIAN_POINT ( 'NONE',  ( 4.999999999999973355, 165.0000000000000000, 3.000000000000000000 ) ) ;
#427 = AXIS2_PLACEMENT_3D ( 'NONE', #491, #583, #400 ) ;
#428 = DIRECTION ( 'NONE',  ( -0.000000000000000000, -0.000000000000000000, 1.000000000000000000 ) ) ;
#429 = CARTESIAN_POINT ( 'NONE',  ( 4.999999999999992006, 5.000000000000004441, 0.000000000000000000 ) ) ;
#430 = EDGE_LOOP ( 'NONE', ( #69, #68, #366, #499 ) ) ;
#431 = VECTOR ( 'NONE', #259, 1000.000000000000000 ) ;
#432 = CARTESIAN_POINT ( 'NONE',  ( 100.0000000000000000, 0.000000000000000000, 3.000000000000000000 ) ) ;
#433 = FACE_OUTER_BOUND ( 'NONE', #5, .T. ) ;
#434 = VECTOR ( 'NONE', #538, 1000.000000000000000 ) ;
#435 = DIRECTION ( 'NONE',  ( -1.000000000000000000, -1.632680918566406547E-16, 0.000000000000000000 ) ) ;
#436 = VECTOR ( 'NONE', #293, 1000.000000000000000 ) ;
#437 = DIRECTION ( 'NONE',  ( 0.000000000000000000, 0.000000000000000000, -1.000000000000000000 ) ) ;
#438 = ORIENTED_EDGE ( 'NONE', *, *, #191, .T. ) ;
#439 = DIRECTION ( 'NONE',  ( 1.000000000000000000, 0.000000000000000000, 0.000000000000000000 ) ) ;
#440 = VERTEX_POINT ( 'NONE', #121 ) ;
#441 = DIRECTION ( 'NONE',  ( -0.000000000000000000, -0.000000000000000000, 1.000000000000000000 ) ) ;
#442 = EDGE_CURVE ( 'NONE', #221, #468, #258, .T. ) ;
#443 = ADVANCED_FACE ( 'NONE', ( #70 ), #473, .F. ) ;
#444 = DIRECTION ( 'NONE',  ( -1.000000000000000000, 0.000000000000000000, -0.000000000000000000 ) ) ;
#445 = CIRCLE ( 'NONE', #170, 5.000000000000000000 ) ;
#446 = CARTESIAN_POINT ( 'NONE',  ( 96.69999999999998863, 5.000000000000000000, 3.000000000000000000 ) ) ;
#447 = EDGE_CURVE ( 'NONE', #353, #16, #75, .T. ) ;
#448 = CARTESIAN_POINT ( 'NONE',  ( 0.000000000000000000, 0.000000000000000000, 3.000000000000000000 ) ) ;
#449 = CIRCLE ( 'NONE', #309, 1.699999999999993072 ) ;
#450 = ORIENTED_EDGE ( 'NONE', *, *, #168, .T. ) ;
#451 = FACE_BOUND ( 'NONE', #508, .T. ) ;
#452 = VERTEX_POINT ( 'NONE', #137 ) ;
#453 = ORIENTED_EDGE ( 'NONE', *, *, #240, .F. ) ;
#454 = DIRECTION ( 'NONE',  ( -0.000000000000000000, -0.000000000000000000, 1.000000000000000000 ) ) ;
#455 = ORIENTED_EDGE ( 'NONE', *, *, #517, .F. ) ;
#456 = DIRECTION ( 'NONE',  ( -0.000000000000000000, -0.000000000000000000, 1.000000000000000000 ) ) ;
#457 = ADVANCED_FACE ( 'NONE', ( #224 ), #27, .F. ) ;
#458 = CARTESIAN_POINT ( 'NONE',  ( 95.00000000000000000, 5.000000000000000000, 3.000000000000000000 ) ) ;
#459 = VECTOR ( 'NONE', #352, 1000.000000000000000 ) ;
#460 = EDGE_CURVE ( 'NONE', #24, #215, #79, .T. ) ;
#461 = EDGE_CURVE ( 'NONE', #210, #307, #84, .T. ) ;
#462 = DIRECTION ( 'NONE',  ( -1.000000000000000000, 0.000000000000000000, 0.000000000000000000 ) ) ;
#463 = DIRECTION ( 'NONE',  ( 1.000000000000000000, 0.000000000000000000, 0.000000000000000000 ) ) ;
#464 = CYLINDRICAL_SURFACE ( 'NONE', #397, 1.699999999999993072 ) ;
#465 = AXIS2_PLACEMENT_3D ( 'NONE', #99, #189, #576 ) ;
#466 = LINE ( 'NONE', #612, #341 ) ;
#467 = DIRECTION ( 'NONE',  ( 0.000000000000000000, 0.000000000000000000, -1.000000000000000000 ) ) ;
#468 = VERTEX_POINT ( 'NONE', #374 ) ;
#469 = DIRECTION ( 'NONE',  ( -1.000000000000000000, 0.000000000000000000, 0.000000000000000000 ) ) ;
#470 = DIRECTION ( 'NONE',  ( 0.000000000000000000, 0.000000000000000000, -1.000000000000000000 ) ) ;
#471 = CYLINDRICAL_SURFACE ( 'NONE', #286, 5.000000000000004441 ) ;
#472 = CIRCLE ( 'NONE', #537, 1.699999999999993072 ) ;
#473 = CYLINDRICAL_SURFACE ( 'NONE', #578, 1.699999999999998401 ) ;
#474 = FACE_OUTER_BOUND ( 'NONE', #430, .T. ) ;
#475 = CIRCLE ( 'NONE', #503, 1.699999999999998401 ) ;
#476 = DIRECTION ( 'NONE',  ( 1.000000000000000000, 0.000000000000000000, 0.000000000000000000 ) ) ;
#477 = CIRCLE ( 'NONE', #253, 5.000000000000000000 ) ;
#478 = CARTESIAN_POINT ( 'NONE',  ( 4.999999999999972466, 165.0000000000000000, 0.000000000000000000 ) ) ;
#479 = EDGE_CURVE ( 'NONE', #532, #151, #117, .T. ) ;
#480 = VERTEX_POINT ( 'NONE', #555 ) ;
#481 = AXIS2_PLACEMENT_3D ( 'NONE', #129, #127, #558 ) ;
#482 = PRODUCT_DEFINITION_CONTEXT ( 'detailed design', #146, 'design' ) ;
#483 = CARTESIAN_POINT ( 'NONE',  ( 95.00000000000000000, 0.000000000000000000, 3.000000000000000000 ) ) ;
#484 = DIRECTION ( 'NONE',  ( 1.000000000000000000, 0.000000000000000000, 0.000000000000000000 ) ) ;
#485 = ORIENTED_EDGE ( 'NONE', *, *, #617, .T. ) ;
#486 = ORIENTED_EDGE ( 'NONE', *, *, #419, .F. ) ;
#487 = CARTESIAN_POINT ( 'NONE',  ( 4.999999999999972466, 165.0000000000000000, 3.000000000000000000 ) ) ;
#488 = EDGE_CURVE ( 'NONE', #24, #359, #232, .T. ) ;
#489 = ORIENTED_EDGE ( 'NONE', *, *, #539, .F. ) ;
#490 = CIRCLE ( 'NONE', #216, 5.000000000000000000 ) ;
#491 = CARTESIAN_POINT ( 'NONE',  ( 4.999999999999999112, 5.000000000000000000, 3.000000000000000000 ) ) ;
#492 = CARTESIAN_POINT ( 'NONE',  ( 100.0000000000000000, 5.000000000000000888, 0.000000000000000000 ) ) ;
#493 = VECTOR ( 'NONE', #441, 1000.000000000000000 ) ;
#494 = PLANE ( 'NONE',  #351 ) ;
#495 = DIRECTION ( 'NONE',  ( -0.000000000000000000, -0.000000000000000000, 1.000000000000000000 ) ) ;
#496 = ORIENTED_EDGE ( 'NONE', *, *, #22, .T. ) ;
#497 = DIRECTION ( 'NONE',  ( 1.000000000000000000, 0.000000000000000000, 0.000000000000000000 ) ) ;
#498 = ORIENTED_EDGE ( 'NONE', *, *, #88, .F. ) ;
#499 = ORIENTED_EDGE ( 'NONE', *, *, #76, .F. ) ;
#500 = DIRECTION ( 'NONE',  ( -1.000000000000000000, 0.000000000000000000, 0.000000000000000000 ) ) ;
#501 = CYLINDRICAL_SURFACE ( 'NONE', #376, 5.000000000000000000 ) ;
#502 = ORIENTED_EDGE ( 'NONE', *, *, #22, .F. ) ;
#503 = AXIS2_PLACEMENT_3D ( 'NONE', #513, #34, #80 ) ;
#504 = DIRECTION ( 'NONE',  ( -0.000000000000000000, -0.000000000000000000, 1.000000000000000000 ) ) ;
#505 = EDGE_CURVE ( 'NONE', #313, #196, #466, .T. ) ;
#506 = DIRECTION ( 'NONE',  ( -1.632680918566406547E-16, 1.000000000000000000, 0.000000000000000000 ) ) ;
#507 = CYLINDRICAL_SURFACE ( 'NONE', #149, 1.699999999999993072 ) ;
#508 = EDGE_LOOP ( 'NONE', ( #237, #100 ) ) ;
#509 = CARTESIAN_POINT ( 'NONE',  ( 96.69999999999998863, 165.0000000000000284, 0.000000000000000000 ) ) ;
#510 = LINE ( 'NONE', #233, #581 ) ;
#511 = AXIS2_PLACEMENT_3D ( 'NONE', #280, #330, #323 ) ;
#512 = CARTESIAN_POINT ( 'NONE',  ( 95.00000000000000000, 5.000000000000000000, 0.000000000000000000 ) ) ;
#513 = CARTESIAN_POINT ( 'NONE',  ( 4.999999999999992006, 5.000000000000004441, 0.000000000000000000 ) ) ;
#514 = ADVANCED_BREP_SHAPE_REPRESENTATION ( 'UNIVERSAL-MAIN-BASE_INSULATION-v001', ( #18, #12 ), #409 ) ;
#515 = ORIENTED_EDGE ( 'NONE', *, *, #461, .T. ) ;
#516 = STYLED_ITEM ( 'NONE', ( #187 ), #18 ) ;
#517 = EDGE_CURVE ( 'NONE', #480, #616, #227, .T. ) ;
#518 = CARTESIAN_POINT ( 'NONE',  ( 4.999999999999972466, 165.0000000000000000, 3.000000000000000000 ) ) ;
#519 = SURFACE_STYLE_USAGE ( .BOTH. , #89 ) ;
#520 = DIRECTION ( 'NONE',  ( 1.632680918566406547E-16, -1.000000000000000000, -0.000000000000000000 ) ) ;
#521 = LINE ( 'NONE', #141, #8 ) ;
#522 = CARTESIAN_POINT ( 'NONE',  ( 6.699999999999990408, 5.000000000000004441, 3.000000000000000000 ) ) ;
#523 = ORIENTED_EDGE ( 'NONE', *, *, #88, .T. ) ;
#524 = ADVANCED_FACE ( 'NONE', ( #177 ), #235, .T. ) ;
#525 = EDGE_CURVE ( 'NONE', #603, #295, #316, .T. ) ;
#526 = DIRECTION ( 'NONE',  ( -1.000000000000000000, 0.000000000000000000, 0.000000000000000000 ) ) ;
#527 = ORIENTED_EDGE ( 'NONE', *, *, #78, .T. ) ;
#528 = CARTESIAN_POINT ( 'NONE',  ( 4.999999999999972466, 165.0000000000000000, 3.000000000000000000 ) ) ;
#529 = VERTEX_POINT ( 'NONE', #333 ) ;
#530 = CIRCLE ( 'NONE', #204, 1.699999999999999289 ) ;
#531 = DIRECTION ( 'NONE',  ( 0.000000000000000000, 0.000000000000000000, -1.000000000000000000 ) ) ;
#532 = VERTEX_POINT ( 'NONE', #522 ) ;
#533 = DIRECTION ( 'NONE',  ( -0.000000000000000000, -0.000000000000000000, 1.000000000000000000 ) ) ;
#534 = UNCERTAINTY_MEASURE_WITH_UNIT (LENGTH_MEASURE( 1.000000000000000082E-05 ), #39, 'distance_accuracy_value', 'NONE');
#535 = LINE ( 'NONE', #105, #66 ) ;
#536 = ORIENTED_EDGE ( 'NONE', *, *, #62, .F. ) ;
#537 = AXIS2_PLACEMENT_3D ( 'NONE', #596, #161, #356 ) ;
#538 = DIRECTION ( 'NONE',  ( -0.000000000000000000, -0.000000000000000000, 1.000000000000000000 ) ) ;
#539 = EDGE_CURVE ( 'NONE', #440, #151, #285, .T. ) ;
#540 = CARTESIAN_POINT ( 'NONE',  ( 4.999999999999999112, 0.000000000000000000, 3.000000000000000000 ) ) ;
#541 = AXIS2_PLACEMENT_3D ( 'NONE', #284, #85, #281 ) ;
#542 = ORIENTED_EDGE ( 'NONE', *, *, #214, .T. ) ;
#543 = FACE_BOUND ( 'NONE', #92, .T. ) ;
#544 = ORIENTED_EDGE ( 'NONE', *, *, #407, .T. ) ;
#545 = ORIENTED_EDGE ( 'NONE', *, *, #136, .T. ) ;
#546 = DIRECTION ( 'NONE',  ( -0.000000000000000000, -0.000000000000000000, 1.000000000000000000 ) ) ;
#547 = DIRECTION ( 'NONE',  ( 1.000000000000000000, 0.000000000000000000, 0.000000000000000000 ) ) ;
#548 = ORIENTED_EDGE ( 'NONE', *, *, #479, .F. ) ;
#549 = EDGE_CURVE ( 'NONE', #162, #196, #97, .T. ) ;
#550 = DIRECTION ( 'NONE',  ( -1.000000000000000000, -0.000000000000000000, -0.000000000000000000 ) ) ;
#551 = EDGE_LOOP ( 'NONE', ( #548, #580 ) ) ;
#552 = CIRCLE ( 'NONE', #541, 1.699999999999993072 ) ;
#553 = ORIENTED_EDGE ( 'NONE', *, *, #617, .F. ) ;
#554 = CARTESIAN_POINT ( 'NONE',  ( 93.30000000000001137, 165.0000000000000284, 3.000000000000000000 ) ) ;
#555 = CARTESIAN_POINT ( 'NONE',  ( 4.999999999999973355, 170.0000000000000000, 0.000000000000000000 ) ) ;
#556 = CYLINDRICAL_SURFACE ( 'NONE', #387, 1.699999999999993072 ) ;
#557 = DIRECTION ( 'NONE',  ( 1.000000000000000000, 0.000000000000000000, 0.000000000000000000 ) ) ;
#558 = DIRECTION ( 'NONE',  ( -1.000000000000000000, 0.000000000000000000, -0.000000000000000000 ) ) ;
#559 = LINE ( 'NONE', #178, #120 ) ;
#560 = VECTOR ( 'NONE', #506, 1000.000000000000000 ) ;
#561 = ORIENTED_EDGE ( 'NONE', *, *, #78, .F. ) ;
#562 = EDGE_CURVE ( 'NONE', #359, #480, #490, .T. ) ;
#563 = DIRECTION ( 'NONE',  ( -1.000000000000000000, 0.000000000000000000, 0.000000000000000000 ) ) ;
#564 = CARTESIAN_POINT ( 'NONE',  ( 93.30000000000001137, 5.000000000000000000, 3.000000000000000000 ) ) ;
#565 = DIRECTION ( 'NONE',  ( -1.000000000000000000, 0.000000000000000000, 0.000000000000000000 ) ) ;
#566 = CARTESIAN_POINT ( 'NONE',  ( 95.00000000000000000, 5.000000000000000000, 3.000000000000000000 ) ) ;
#567 = CARTESIAN_POINT ( 'NONE',  ( 3.299999999999994049, 5.000000000000004441, 3.000000000000000000 ) ) ;
#568 = DIRECTION ( 'NONE',  ( -1.000000000000000000, -0.000000000000000000, -0.000000000000000000 ) ) ;
#569 = VERTEX_POINT ( 'NONE', #554 ) ;
#570 = CIRCLE ( 'NONE', #605, 1.699999999999998401 ) ;
#571 = EDGE_CURVE ( 'NONE', #151, #532, #570, .T. ) ;
#572 = ADVANCED_FACE ( 'NONE', ( #211 ), #424, .F. ) ;
#573 = CYLINDRICAL_SURFACE ( 'NONE', #47, 1.699999999999998401 ) ;
#574 = ORIENTED_EDGE ( 'NONE', *, *, #407, .F. ) ;
#575 = LINE ( 'NONE', #3, #436 ) ;
#576 = DIRECTION ( 'NONE',  ( 0.000000000000000000, -0.000000000000000000, 1.000000000000000000 ) ) ;
#577 = ORIENTED_EDGE ( 'NONE', *, *, #136, .F. ) ;
#578 = AXIS2_PLACEMENT_3D ( 'NONE', #518, #133, #267 ) ;
#579 = LINE ( 'NONE', #156, #81 ) ;
#580 = ORIENTED_EDGE ( 'NONE', *, *, #571, .F. ) ;
#581 = VECTOR ( 'NONE', #568, 1000.000000000000000 ) ;
#582 = CARTESIAN_POINT ( 'NONE',  ( 6.699999999999990408, 5.000000000000004441, 0.000000000000000000 ) ) ;
#583 = DIRECTION ( 'NONE',  ( -0.000000000000000000, 0.000000000000000000, -1.000000000000000000 ) ) ;
#584 = EDGE_CURVE ( 'NONE', #468, #160, #595, .T. ) ;
#585 = VECTOR ( 'NONE', #520, 1000.000000000000000 ) ;
#586 = EDGE_CURVE ( 'NONE', #215, #390, #477, .T. ) ;
#587 = DIRECTION ( 'NONE',  ( -1.000000000000000000, 0.000000000000000000, 0.000000000000000000 ) ) ;
#588 = ORIENTED_EDGE ( 'NONE', *, *, #169, .T. ) ;
#589 = DIRECTION ( 'NONE',  ( -1.632680918566406547E-16, 1.000000000000000000, 0.000000000000000000 ) ) ;
#590 = ORIENTED_EDGE ( 'NONE', *, *, #240, .T. ) ;
#591 = ORIENTED_EDGE ( 'NONE', *, *, #562, .F. ) ;
#592 = PRODUCT_DEFINITION_SHAPE ( 'NONE', 'NONE',  #2 ) ;
#593 = CARTESIAN_POINT ( 'NONE',  ( 93.30000000000001137, 5.000000000000000000, 0.000000000000000000 ) ) ;
#594 = ORIENTED_EDGE ( 'NONE', *, *, #562, .T. ) ;
#595 = LINE ( 'NONE', #413, #49 ) ;
#596 = CARTESIAN_POINT ( 'NONE',  ( 95.00000000000000000, 5.000000000000000000, 0.000000000000000000 ) ) ;
#597 = ORIENTED_EDGE ( 'NONE', *, *, #11, .T. ) ;
#598 = ORIENTED_EDGE ( 'NONE', *, *, #442, .F. ) ;
#599 = CARTESIAN_POINT ( 'NONE',  ( 96.69999999999998863, 165.0000000000000284, 3.000000000000000000 ) ) ;
#600 = CYLINDRICAL_SURFACE ( 'NONE', #511, 1.699999999999998401 ) ;
#601 = CARTESIAN_POINT ( 'NONE',  ( 95.00000000000000000, 165.0000000000000284, 3.000000000000000000 ) ) ;
#602 = VECTOR ( 'NONE', #385, 1000.000000000000000 ) ;
#603 = VERTEX_POINT ( 'NONE', #83 ) ;
#604 = CARTESIAN_POINT ( 'NONE',  ( 0.000000000000000000, 0.000000000000000000, 3.000000000000000000 ) ) ;
#605 = AXIS2_PLACEMENT_3D ( 'NONE', #368, #318, #557 ) ;
#606 = CARTESIAN_POINT ( 'NONE',  ( 95.00000000000000000, 165.0000000000000284, 3.000000000000000000 ) ) ;
#607 = ORIENTED_EDGE ( 'NONE', *, *, #525, .F. ) ;
#608 = DIRECTION ( 'NONE',  ( -0.000000000000000000, -0.000000000000000000, 1.000000000000000000 ) ) ;
#609 = CIRCLE ( 'NONE', #279, 1.699999999999998401 ) ;
#610 = DIRECTION ( 'NONE',  ( 1.000000000000000000, 0.000000000000000000, 0.000000000000000000 ) ) ;
#611 = AXIS2_PLACEMENT_3D ( 'NONE', #421, #271, #463 ) ;
#612 = CARTESIAN_POINT ( 'NONE',  ( 100.0000000000000000, 0.000000000000000000, 0.000000000000000000 ) ) ;
#613 = VERTEX_POINT ( 'NONE', #599 ) ;
#614 = CARTESIAN_POINT ( 'NONE',  ( 4.999999999999972466, 165.0000000000000000, 3.000000000000000000 ) ) ;
#615 = CARTESIAN_POINT ( 'NONE',  ( 95.00000000000000000, 0.000000000000000000, 0.000000000000000000 ) ) ;
#616 = VERTEX_POINT ( 'NONE', #363 ) ;
#617 = EDGE_CURVE ( 'NONE', #452, #162, #310, .T. ) ;
#618 = CARTESIAN_POINT ( 'NONE',  ( 4.999999999999999112, 0.000000000000000000, 0.000000000000000000 ) ) ;
#619 = ORIENTED_EDGE ( 'NONE', *, *, #381, .F. ) ;
#620 = CIRCLE ( 'NONE', #150, 5.000000000000004441 ) ;
#621 = CARTESIAN_POINT ( 'NONE',  ( 95.00000000000000000, 5.000000000000000000, 3.000000000000000000 ) ) ;
#622 = EDGE_LOOP ( 'NONE', ( #50, #111, #348, #86 ) ) ;
#623 = AXIS2_PLACEMENT_3D ( 'NONE', #342, #531, #393 ) ;
ENDSEC;
END-ISO-10303-21;
