ISO-10303-21;
HEADER;
FILE_DESCRIPTION (( 'STEP AP214' ),
    '1' );
FILE_NAME ('UNIVERSAL-MAIN-BASE-v001.STEP',
    '2026-01-27T00:16:32',
    ( '' ),
    ( '' ),
    'SwSTEP 2.0',
    'SolidWorks 2023',
    '' );
FILE_SCHEMA (( 'AUTOMOTIVE_DESIGN' ));
ENDSEC;

DATA;
#1 = VERTEX_POINT ( 'NONE', #87 ) ;
#2 = VERTEX_POINT ( 'NONE', #9 ) ;
#3 = CIRCLE ( 'NONE', #482, 1.699999999999993072 ) ;
#4 = CIRCLE ( 'NONE', #714, 5.000000000000004441 ) ;
#5 = FACE_OUTER_BOUND ( 'NONE', #698, .T. ) ;
#6 = CIRCLE ( 'NONE', #736, 1.699999999999993072 ) ;
#7 = DIRECTION ( 'NONE',  ( 0.000000000000000000, 0.000000000000000000, -1.000000000000000000 ) ) ;
#8 = ORIENTED_EDGE ( 'NONE', *, *, #1026, .T. ) ;
#9 = CARTESIAN_POINT ( 'NONE',  ( 51.69999999999996021, 35.00000000000000000, 1.450000000000006839 ) ) ;
#10 = CIRCLE ( 'NONE', #815, 1.699999999999993072 ) ;
#11 = DIRECTION ( 'NONE',  ( 1.000000000000000000, 0.000000000000000000, 0.000000000000000000 ) ) ;
#12 = DIRECTION ( 'NONE',  ( 0.7071067811865486830, 0.000000000000000000, 0.7071067811865464625 ) ) ;
#13 = EDGE_LOOP ( 'NONE', ( #969, #1142, #8, #918 ) ) ;
#14 = ORIENTED_EDGE ( 'NONE', *, *, #230, .T. ) ;
#15 = EDGE_CURVE ( 'NONE', #1019, #547, #302, .T. ) ;
#16 = AXIS2_PLACEMENT_3D ( 'NONE', #647, #630, #551 ) ;
#17 = DIRECTION ( 'NONE',  ( -0.000000000000000000, -0.000000000000000000, -1.000000000000000000 ) ) ;
#18 = ADVANCED_FACE ( 'NONE', ( #558 ), #617, .F. ) ;
#19 = FACE_OUTER_BOUND ( 'NONE', #313, .T. ) ;
#20 = EDGE_LOOP ( 'NONE', ( #645, #145, #77, #213 ) ) ;
#21 = EDGE_CURVE ( 'NONE', #135, #808, #1144, .T. ) ;
#22 = CARTESIAN_POINT ( 'NONE',  ( 51.69999999999996021, 35.00000000000000000, 0.000000000000000000 ) ) ;
#23 = CARTESIAN_POINT ( 'NONE',  ( 95.00000000000000000, 5.000000000000000000, 3.000000000000001776 ) ) ;
#24 = LINE ( 'NONE', #469, #218 ) ;
#25 = ORIENTED_EDGE ( 'NONE', *, *, #958, .F. ) ;
#26 = AXIS2_PLACEMENT_3D ( 'NONE', #1147, #382, #288 ) ;
#27 = AXIS2_PLACEMENT_3D ( 'NONE', #67, #1086, #428 ) ;
#28 = CARTESIAN_POINT ( 'NONE',  ( 4.999999999999973355, 170.0000000000000000, 0.000000000000000000 ) ) ;
#29 = VERTEX_POINT ( 'NONE', #492 ) ;
#30 = AXIS2_PLACEMENT_3D ( 'NONE', #712, #254, #1098 ) ;
#31 = EDGE_CURVE ( 'NONE', #1, #882, #326, .T. ) ;
#32 = FACE_BOUND ( 'NONE', #967, .T. ) ;
#33 = ORIENTED_EDGE ( 'NONE', *, *, #607, .F. ) ;
#34 = DIRECTION ( 'NONE',  ( -1.000000000000000000, 0.000000000000000000, 0.000000000000000000 ) ) ;
#35 = EDGE_LOOP ( 'NONE', ( #221, #455 ) ) ;
#36 = CARTESIAN_POINT ( 'NONE',  ( 48.29999999999999716, 135.0000000000000000, 3.000000000000000000 ) ) ;
#37 = AXIS2_PLACEMENT_3D ( 'NONE', #697, #968, #156 ) ;
#38 = DIRECTION ( 'NONE',  ( -0.000000000000000000, -0.000000000000000000, 1.000000000000000000 ) ) ;
#39 = ORIENTED_EDGE ( 'NONE', *, *, #874, .T. ) ;
#40 = DIRECTION ( 'NONE',  ( -0.000000000000000000, -0.000000000000000000, -1.000000000000000000 ) ) ;
#41 = FACE_OUTER_BOUND ( 'NONE', #20, .T. ) ;
#42 = ORIENTED_EDGE ( 'NONE', *, *, #542, .T. ) ;
#43 = CARTESIAN_POINT ( 'NONE',  ( 4.999999999999972466, 165.0000000000000000, 1.549999999999999378 ) ) ;
#44 = ORIENTED_EDGE ( 'NONE', *, *, #787, .T. ) ;
#45 = ADVANCED_FACE ( 'NONE', ( #393 ), #234, .F. ) ;
#46 = VECTOR ( 'NONE', #897, 1000.000000000000000 ) ;
#47 = DIRECTION ( 'NONE',  ( -1.632680918566406547E-16, 1.000000000000000000, 0.000000000000000000 ) ) ;
#48 = CARTESIAN_POINT ( 'NONE',  ( 49.99999999999997158, 35.00000000000000000, 0.000000000000000000 ) ) ;
#49 = EDGE_LOOP ( 'NONE', ( #460, #685, #1148, #704 ) ) ;
#50 = CARTESIAN_POINT ( 'NONE',  ( 4.999999999999999112, 0.000000000000000000, 3.000000000000000000 ) ) ;
#51 = ORIENTED_EDGE ( 'NONE', *, *, #354, .T. ) ;
#52 = AXIS2_PLACEMENT_3D ( 'NONE', #321, #1174, #966 ) ;
#53 = DIRECTION ( 'NONE',  ( -1.000000000000000000, 0.000000000000000000, 0.000000000000000000 ) ) ;
#54 = PRODUCT_DEFINITION_SHAPE ( 'NONE', 'NONE',  #141 ) ;
#55 = CARTESIAN_POINT ( 'NONE',  ( 0.000000000000000000, 0.000000000000000000, 3.000000000000000000 ) ) ;
#56 =( GEOMETRIC_REPRESENTATION_CONTEXT ( 3 ) GLOBAL_UNCERTAINTY_ASSIGNED_CONTEXT ( ( #136 ) ) GLOBAL_UNIT_ASSIGNED_CONTEXT ( ( #261, #270, #836 ) ) REPRESENTATION_CONTEXT ( 'NONE', 'WORKASPACE' ) );
#57 = CARTESIAN_POINT ( 'NONE',  ( 95.00000000000000000, 5.000000000000000000, 3.000000000000000000 ) ) ;
#58 = ORIENTED_EDGE ( 'NONE', *, *, #352, .T. ) ;
#59 = DIRECTION ( 'NONE',  ( -1.000000000000000000, 0.000000000000000000, 0.000000000000000000 ) ) ;
#60 = CARTESIAN_POINT ( 'NONE',  ( 94.99999999999997158, 165.0000000000000000, 3.000000000000000000 ) ) ;
#61 = CARTESIAN_POINT ( 'NONE',  ( 96.69999999999998863, 165.0000000000000284, 0.000000000000000000 ) ) ;
#62 = ORIENTED_EDGE ( 'NONE', *, *, #755, .T. ) ;
#63 = CIRCLE ( 'NONE', #970, 1.699999999999999289 ) ;
#64 = CARTESIAN_POINT ( 'NONE',  ( 95.00000000000000000, 0.000000000000000000, 3.000000000000000000 ) ) ;
#65 = AXIS2_PLACEMENT_3D ( 'NONE', #1004, #606, #806 ) ;
#66 = CARTESIAN_POINT ( 'NONE',  ( 100.0000000000000000, 0.000000000000000000, 0.000000000000000000 ) ) ;
#67 = CARTESIAN_POINT ( 'NONE',  ( 95.00000000000000000, 165.0000000000000284, 3.000000000000001776 ) ) ;
#68 = ADVANCED_FACE ( 'NONE', ( #486 ), #753, .F. ) ;
#69 = DIRECTION ( 'NONE',  ( 1.000000000000000000, 0.000000000000000000, 0.000000000000000000 ) ) ;
#70 = ORIENTED_EDGE ( 'NONE', *, *, #273, .T. ) ;
#71 = CIRCLE ( 'NONE', #1031, 1.699999999999999289 ) ;
#72 = CIRCLE ( 'NONE', #451, 1.699999999999993072 ) ;
#73 = EDGE_CURVE ( 'NONE', #470, #746, #3, .T. ) ;
#74 = DIRECTION ( 'NONE',  ( -0.000000000000000000, -0.000000000000000000, 1.000000000000000000 ) ) ;
#75 = DIRECTION ( 'NONE',  ( 1.632680918566406547E-16, -1.000000000000000000, -0.000000000000000000 ) ) ;
#76 = CARTESIAN_POINT ( 'NONE',  ( 49.99999999999997158, 35.00000000000000000, -1.734723475976807883E-15 ) ) ;
#77 = ORIENTED_EDGE ( 'NONE', *, *, #187, .T. ) ;
#78 = DIRECTION ( 'NONE',  ( 1.000000000000000000, 0.000000000000000000, 0.000000000000000000 ) ) ;
#79 = DIRECTION ( 'NONE',  ( -1.000000000000000000, 0.000000000000000000, 0.000000000000000000 ) ) ;
#80 = CARTESIAN_POINT ( 'NONE',  ( 99.99999999999997158, 165.0000000000000000, 0.000000000000000000 ) ) ;
#81 = ORIENTED_EDGE ( 'NONE', *, *, #140, .T. ) ;
#82 = EDGE_LOOP ( 'NONE', ( #1053, #351 ) ) ;
#83 = EDGE_CURVE ( 'NONE', #882, #1, #582, .T. ) ;
#84 = CARTESIAN_POINT ( 'NONE',  ( 49.99999999999997868, 135.0000000000000000, 0.000000000000000000 ) ) ;
#85 = DIRECTION ( 'NONE',  ( 1.000000000000000000, 0.000000000000000000, 0.000000000000000000 ) ) ;
#86 = EDGE_LOOP ( 'NONE', ( #520, #535 ) ) ;
#87 = CARTESIAN_POINT ( 'NONE',  ( 98.15000000000000568, 165.0000000000000284, 3.000000000000001776 ) ) ;
#88 = CIRCLE ( 'NONE', #525, 3.150000000000000799 ) ;
#89 = DIRECTION ( 'NONE',  ( -0.000000000000000000, -0.000000000000000000, 1.000000000000000000 ) ) ;
#90 = LINE ( 'NONE', #454, #395 ) ;
#91 = VERTEX_POINT ( 'NONE', #948 ) ;
#92 = ORIENTED_EDGE ( 'NONE', *, *, #629, .F. ) ;
#93 = AXIS2_PLACEMENT_3D ( 'NONE', #624, #546, #1191 ) ;
#94 = CARTESIAN_POINT ( 'NONE',  ( 0.000000000000000000, 0.000000000000000000, 3.000000000000000000 ) ) ;
#95 = CARTESIAN_POINT ( 'NONE',  ( 4.999999999999992006, 5.000000000000004441, 1.549999999999999378 ) ) ;
#96 = ORIENTED_EDGE ( 'NONE', *, *, #1107, .F. ) ;
#97 = ORIENTED_EDGE ( 'NONE', *, *, #809, .T. ) ;
#98 = CARTESIAN_POINT ( 'NONE',  ( 1.849999999999992317, 5.000000000000004441, 3.000000000000001776 ) ) ;
#99 = EDGE_CURVE ( 'NONE', #476, #491, #694, .T. ) ;
#100 = VECTOR ( 'NONE', #790, 999.9999999999998863 ) ;
#101 = DIRECTION ( 'NONE',  ( 0.000000000000000000, 0.000000000000000000, -1.000000000000000000 ) ) ;
#102 = ORIENTED_EDGE ( 'NONE', *, *, #1156, .T. ) ;
#103 = VERTEX_POINT ( 'NONE', #961 ) ;
#104 = EDGE_CURVE ( 'NONE', #103, #249, #888, .T. ) ;
#105 = CARTESIAN_POINT ( 'NONE',  ( 6.699999999999990408, 5.000000000000004441, 1.549999999999999378 ) ) ;
#106 = EDGE_CURVE ( 'NONE', #603, #272, #1111, .T. ) ;
#107 = DIRECTION ( 'NONE',  ( 1.000000000000000000, 0.000000000000000000, 0.000000000000000000 ) ) ;
#108 = VERTEX_POINT ( 'NONE', #28 ) ;
#109 = DIRECTION ( 'NONE',  ( 0.000000000000000000, 0.000000000000000000, -1.000000000000000000 ) ) ;
#110 = AXIS2_PLACEMENT_3D ( 'NONE', #1027, #1050, #216 ) ;
#111 = STYLED_ITEM ( 'NONE', ( #727 ), #413 ) ;
#112 = CARTESIAN_POINT ( 'NONE',  ( 49.99999999999997158, 35.00000000000000000, 1.450000000000006839 ) ) ;
#113 = CARTESIAN_POINT ( 'NONE',  ( 3.299999999999994049, 5.000000000000004441, 1.549999999999999378 ) ) ;
#114 = ADVANCED_BREP_SHAPE_REPRESENTATION ( 'UNIVERSAL-MAIN-BASE-v001', ( #413, #732 ), #345 ) ;
#115 = ORIENTED_EDGE ( 'NONE', *, *, #354, .F. ) ;
#116 = DIRECTION ( 'NONE',  ( -0.000000000000000000, -0.000000000000000000, -1.000000000000000000 ) ) ;
#117 = EDGE_CURVE ( 'NONE', #808, #135, #637, .T. ) ;
#118 = AXIS2_PLACEMENT_3D ( 'NONE', #418, #527, #1163 ) ;
#119 = CARTESIAN_POINT ( 'NONE',  ( 48.29999999999999005, 35.00000000000000000, 3.000000000000000000 ) ) ;
#120 = ORIENTED_EDGE ( 'NONE', *, *, #529, .T. ) ;
#121 = CARTESIAN_POINT ( 'NONE',  ( 49.99999999999997158, 35.00000000000000000, -1.734723475976807883E-15 ) ) ;
#122 = ORIENTED_EDGE ( 'NONE', *, *, #963, .F. ) ;
#123 = DIRECTION ( 'NONE',  ( -0.000000000000000000, -0.000000000000000000, 1.000000000000000000 ) ) ;
#124 = AXIS2_PLACEMENT_3D ( 'NONE', #555, #279, #11 ) ;
#125 = DIRECTION ( 'NONE',  ( -0.000000000000000000, -0.000000000000000000, 1.000000000000000000 ) ) ;
#126 = ORIENTED_EDGE ( 'NONE', *, *, #104, .T. ) ;
#127 = CARTESIAN_POINT ( 'NONE',  ( 49.99999999999997868, 135.0000000000000000, 1.450000000000006839 ) ) ;
#128 = ORIENTED_EDGE ( 'NONE', *, *, #601, .T. ) ;
#129 = CARTESIAN_POINT ( 'NONE',  ( 96.69999999999998863, 5.000000000000000000, 1.549999999999999378 ) ) ;
#130 = VERTEX_POINT ( 'NONE', #1035 ) ;
#131 = CARTESIAN_POINT ( 'NONE',  ( 4.999999999999992006, 5.000000000000004441, 0.000000000000000000 ) ) ;
#132 = ORIENTED_EDGE ( 'NONE', *, *, #328, .T. ) ;
#133 = DIRECTION ( 'NONE',  ( 1.000000000000000000, 0.000000000000000000, 0.000000000000000000 ) ) ;
#134 = DIRECTION ( 'NONE',  ( 1.000000000000000000, 0.000000000000000000, 0.000000000000000000 ) ) ;
#135 = VERTEX_POINT ( 'NONE', #844 ) ;
#136 = UNCERTAINTY_MEASURE_WITH_UNIT (LENGTH_MEASURE( 1.000000000000000082E-05 ), #261, 'distance_accuracy_value', 'NONE');
#137 = FACE_OUTER_BOUND ( 'NONE', #392, .T. ) ;
#138 = VECTOR ( 'NONE', #335, 1000.000000000000000 ) ;
#139 = DIRECTION ( 'NONE',  ( -0.7071067811865487940, 0.000000000000000000, -0.7071067811865463515 ) ) ;
#140 = EDGE_CURVE ( 'NONE', #1019, #2, #667, .T. ) ;
#141 = PRODUCT_DEFINITION ( 'UNKNOWN', '', #827, #315 ) ;
#142 = CARTESIAN_POINT ( 'NONE',  ( 100.0000000000000000, 5.000000000000000888, 0.000000000000000000 ) ) ;
#143 = AXIS2_PLACEMENT_3D ( 'NONE', #23, #633, #268 ) ;
#144 = DIRECTION ( 'NONE',  ( -0.000000000000000000, 0.000000000000000000, -1.000000000000000000 ) ) ;
#145 = ORIENTED_EDGE ( 'NONE', *, *, #378, .T. ) ;
#146 = CARTESIAN_POINT ( 'NONE',  ( 95.00000000000000000, 5.000000000000000000, 3.000000000000001776 ) ) ;
#147 = CARTESIAN_POINT ( 'NONE',  ( 3.299999999999998934, 5.000000000000004441, 0.000000000000000000 ) ) ;
#148 = CYLINDRICAL_SURFACE ( 'NONE', #696, 5.000000000000004441 ) ;
#149 = VECTOR ( 'NONE', #923, 1000.000000000000000 ) ;
#150 = CYLINDRICAL_SURFACE ( 'NONE', #444, 1.699999999999993072 ) ;
#151 = ORIENTED_EDGE ( 'NONE', *, *, #1065, .F. ) ;
#152 = CARTESIAN_POINT ( 'NONE',  ( 98.15000000000000568, 5.000000000000000000, 3.000000000000001776 ) ) ;
#153 = ADVANCED_FACE ( 'NONE', ( #771 ), #207, .F. ) ;
#154 = CARTESIAN_POINT ( 'NONE',  ( 48.29999999999999005, 85.00000000000000000, 1.450000000000006839 ) ) ;
#155 = FACE_OUTER_BOUND ( 'NONE', #1034, .T. ) ;
#156 = DIRECTION ( 'NONE',  ( 1.000000000000000000, 0.000000000000000000, 0.000000000000000000 ) ) ;
#157 = ORIENTED_EDGE ( 'NONE', *, *, #187, .F. ) ;
#158 = CONICAL_SURFACE ( 'NONE', #1046, 3.149999999999999911, 0.7853981633974500554 ) ;
#159 = DIRECTION ( 'NONE',  ( -0.000000000000000000, -0.000000000000000000, -1.000000000000000000 ) ) ;
#160 = CIRCLE ( 'NONE', #911, 1.699999999999993072 ) ;
#161 = DIRECTION ( 'NONE',  ( -0.000000000000000000, -0.000000000000000000, -1.000000000000000000 ) ) ;
#162 = CARTESIAN_POINT ( 'NONE',  ( 95.00000000000000000, 165.0000000000000284, 1.549999999999999378 ) ) ;
#163 = ORIENTED_EDGE ( 'NONE', *, *, #705, .F. ) ;
#164 = AXIS2_PLACEMENT_3D ( 'NONE', #964, #574, #390 ) ;
#165 = CIRCLE ( 'NONE', #838, 1.699999999999986189 ) ;
#166 = DIRECTION ( 'NONE',  ( 0.000000000000000000, 0.000000000000000000, 1.000000000000000000 ) ) ;
#167 = LINE ( 'NONE', #66, #1072 ) ;
#168 = ADVANCED_FACE ( 'NONE', ( #212 ), #1134, .T. ) ;
#169 = FACE_OUTER_BOUND ( 'NONE', #278, .T. ) ;
#170 = ORIENTED_EDGE ( 'NONE', *, *, #1091, .F. ) ;
#171 = AXIS2_PLACEMENT_3D ( 'NONE', #938, #562, #475 ) ;
#172 = FACE_BOUND ( 'NONE', #35, .T. ) ;
#173 = EDGE_LOOP ( 'NONE', ( #398, #1154 ) ) ;
#174 = EDGE_CURVE ( 'NONE', #29, #498, #63, .T. ) ;
#175 = ORIENTED_EDGE ( 'NONE', *, *, #508, .T. ) ;
#176 = DIRECTION ( 'NONE',  ( 0.000000000000000000, -1.000000000000000000, 0.000000000000000000 ) ) ;
#177 = VECTOR ( 'NONE', #1151, 1000.000000000000000 ) ;
#178 = DIRECTION ( 'NONE',  ( -0.000000000000000000, -0.000000000000000000, 1.000000000000000000 ) ) ;
#179 = EDGE_LOOP ( 'NONE', ( #1139, #281, #837, #25 ) ) ;
#180 = EDGE_LOOP ( 'NONE', ( #190, #419, #1006, #819 ) ) ;
#181 = CIRCLE ( 'NONE', #334, 3.149999999999999911 ) ;
#182 = DIRECTION ( 'NONE',  ( -1.000000000000000000, 0.000000000000000000, -0.000000000000000000 ) ) ;
#183 = LINE ( 'NONE', #448, #149 ) ;
#184 = ORIENTED_EDGE ( 'NONE', *, *, #361, .F. ) ;
#185 = ORIENTED_EDGE ( 'NONE', *, *, #755, .F. ) ;
#186 = AXIS2_PLACEMENT_3D ( 'NONE', #1101, #1011, #463 ) ;
#187 = EDGE_CURVE ( 'NONE', #1083, #829, #675, .T. ) ;
#188 = DIRECTION ( 'NONE',  ( -0.000000000000000000, -0.000000000000000000, 1.000000000000000000 ) ) ;
#189 = CARTESIAN_POINT ( 'NONE',  ( 6.699999999999985079, 5.000000000000004441, 0.000000000000000000 ) ) ;
#190 = ORIENTED_EDGE ( 'NONE', *, *, #73, .T. ) ;
#191 = ORIENTED_EDGE ( 'NONE', *, *, #531, .F. ) ;
#192 = ADVANCED_FACE ( 'NONE', ( #220 ), #158, .F. ) ;
#193 = FACE_OUTER_BOUND ( 'NONE', #1158, .T. ) ;
#194 = VECTOR ( 'NONE', #1085, 1000.000000000000000 ) ;
#195 = CARTESIAN_POINT ( 'NONE',  ( 94.99999999999997158, 170.0000000000000000, 3.000000000000000000 ) ) ;
#196 = ORIENTED_EDGE ( 'NONE', *, *, #99, .F. ) ;
#197 = DIRECTION ( 'NONE',  ( -0.000000000000000000, -0.000000000000000000, -1.000000000000000000 ) ) ;
#198 = FACE_OUTER_BOUND ( 'NONE', #1113, .T. ) ;
#199 = FACE_BOUND ( 'NONE', #776, .T. ) ;
#200 = EDGE_LOOP ( 'NONE', ( #157, #734, #902, #163 ) ) ;
#201 = ADVANCED_FACE ( 'NONE', ( #316 ), #1040, .F. ) ;
#202 = DIRECTION ( 'NONE',  ( -1.000000000000000000, 0.000000000000000000, 0.000000000000000000 ) ) ;
#203 = DIRECTION ( 'NONE',  ( -0.000000000000000000, -0.000000000000000000, 1.000000000000000000 ) ) ;
#204 = ORIENTED_EDGE ( 'NONE', *, *, #15, .F. ) ;
#205 = DIRECTION ( 'NONE',  ( 0.000000000000000000, 1.000000000000000000, 0.000000000000000000 ) ) ;
#206 = EDGE_CURVE ( 'NONE', #1146, #649, #1061, .T. ) ;
#207 = CONICAL_SURFACE ( 'NONE', #26, 3.150000000000000799, 0.7853981633974480570 ) ;
#208 = FACE_OUTER_BOUND ( 'NONE', #13, .T. ) ;
#209 = CARTESIAN_POINT ( 'NONE',  ( 94.99999999999997158, 165.0000000000000000, 3.000000000000000000 ) ) ;
#210 = ORIENTED_EDGE ( 'NONE', *, *, #868, .T. ) ;
#211 = AXIS2_PLACEMENT_3D ( 'NONE', #1168, #904, #79 ) ;
#212 = FACE_OUTER_BOUND ( 'NONE', #1066, .T. ) ;
#213 = ORIENTED_EDGE ( 'NONE', *, *, #845, .F. ) ;
#214 = CARTESIAN_POINT ( 'NONE',  ( -8.163404592832031007E-16, 4.999999999999999112, 0.000000000000000000 ) ) ;
#215 = VECTOR ( 'NONE', #229, 1000.000000000000000 ) ;
#216 = DIRECTION ( 'NONE',  ( -1.000000000000000000, 0.000000000000000000, 0.000000000000000000 ) ) ;
#217 = ORIENTED_EDGE ( 'NONE', *, *, #958, .T. ) ;
#218 = VECTOR ( 'NONE', #769, 1000.000000000000000 ) ;
#219 = UNCERTAINTY_MEASURE_WITH_UNIT (LENGTH_MEASURE( 1.000000000000000082E-05 ), #805, 'distance_accuracy_value', 'NONE');
#220 = FACE_OUTER_BOUND ( 'NONE', #729, .T. ) ;
#221 = ORIENTED_EDGE ( 'NONE', *, *, #1065, .T. ) ;
#222 = LINE ( 'NONE', #761, #681 ) ;
#223 = EDGE_CURVE ( 'NONE', #299, #91, #830, .T. ) ;
#224 = DIRECTION ( 'NONE',  ( -0.7071067811865487940, 0.000000000000000000, -0.7071067811865463515 ) ) ;
#225 = ORIENTED_EDGE ( 'NONE', *, *, #883, .F. ) ;
#226 = CARTESIAN_POINT ( 'NONE',  ( 100.0000000000000000, 5.000000000000000888, 3.000000000000000000 ) ) ;
#227 = ORIENTED_EDGE ( 'NONE', *, *, #117, .T. ) ;
#228 = EDGE_CURVE ( 'NONE', #829, #1083, #480, .T. ) ;
#229 = DIRECTION ( 'NONE',  ( 0.000000000000000000, -0.000000000000000000, 1.000000000000000000 ) ) ;
#230 = EDGE_CURVE ( 'NONE', #746, #470, #634, .T. ) ;
#231 = CARTESIAN_POINT ( 'NONE',  ( 4.999999999999992006, 5.000000000000004441, 3.000000000000000000 ) ) ;
#232 = ORIENTED_EDGE ( 'NONE', *, *, #1014, .T. ) ;
#233 = CARTESIAN_POINT ( 'NONE',  ( 51.69999999999996732, 135.0000000000000000, 1.450000000000006839 ) ) ;
#234 = CONICAL_SURFACE ( 'NONE', #364, 3.149999999999999911, 0.7853981633974500554 ) ;
#235 = ORIENTED_EDGE ( 'NONE', *, *, #531, .T. ) ;
#236 = AXIS2_PLACEMENT_3D ( 'NONE', #719, #332, #59 ) ;
#237 =( NAMED_UNIT ( * ) PLANE_ANGLE_UNIT ( ) SI_UNIT ( $, .RADIAN. ) );
#238 = CARTESIAN_POINT ( 'NONE',  ( 6.699999999999985079, 5.000000000000004441, 3.000000000000000000 ) ) ;
#239 = DIRECTION ( 'NONE',  ( -1.000000000000000000, -0.000000000000000000, -0.000000000000000000 ) ) ;
#240 = VECTOR ( 'NONE', #47, 1000.000000000000000 ) ;
#241 = CARTESIAN_POINT ( 'NONE',  ( 49.99999999999997158, 85.00000000000000000, -1.734723475976807883E-15 ) ) ;
#242 = VERTEX_POINT ( 'NONE', #61 ) ;
#243 = EDGE_CURVE ( 'NONE', #485, #330, #980, .T. ) ;
#244 = FACE_OUTER_BOUND ( 'NONE', #674, .T. ) ;
#245 = DIRECTION ( 'NONE',  ( -0.000000000000000000, -0.000000000000000000, -1.000000000000000000 ) ) ;
#246 = CYLINDRICAL_SURFACE ( 'NONE', #462, 1.699999999999986189 ) ;
#247 = CIRCLE ( 'NONE', #16, 1.699999999999993072 ) ;
#248 = DIRECTION ( 'NONE',  ( -0.000000000000000000, -0.000000000000000000, -1.000000000000000000 ) ) ;
#249 = VERTEX_POINT ( 'NONE', #233 ) ;
#250 = DIRECTION ( 'NONE',  ( 0.000000000000000000, 0.000000000000000000, -1.000000000000000000 ) ) ;
#251 = CARTESIAN_POINT ( 'NONE',  ( 8.149999999999991473, 5.000000000000004441, 3.000000000000001776 ) ) ;
#252 = CARTESIAN_POINT ( 'NONE',  ( 4.999999999999973355, 170.0000000000000000, 3.000000000000000000 ) ) ;
#253 = ORIENTED_EDGE ( 'NONE', *, *, #318, .T. ) ;
#254 = DIRECTION ( 'NONE',  ( 1.000000000000000000, 1.632680918566406547E-16, -0.000000000000000000 ) ) ;
#255 = ADVANCED_FACE ( 'NONE', ( #986 ), #150, .F. ) ;
#256 = DIRECTION ( 'NONE',  ( -0.000000000000000000, -0.000000000000000000, 1.000000000000000000 ) ) ;
#257 = SURFACE_STYLE_USAGE ( .BOTH. , #1022 ) ;
#258 = EDGE_LOOP ( 'NONE', ( #1133, #1023, #1118, #941 ) ) ;
#259 = CARTESIAN_POINT ( 'NONE',  ( 49.99999999999997868, 135.0000000000000000, -1.734723475976807883E-15 ) ) ;
#260 = DIRECTION ( 'NONE',  ( -1.000000000000000000, 0.000000000000000000, 0.000000000000000000 ) ) ;
#261 =( LENGTH_UNIT ( ) NAMED_UNIT ( * ) SI_UNIT ( .MILLI., .METRE. ) );
#262 = ORIENTED_EDGE ( 'NONE', *, *, #440, .T. ) ;
#263 = ORIENTED_EDGE ( 'NONE', *, *, #508, .F. ) ;
#264 = EDGE_CURVE ( 'NONE', #746, #563, #785, .T. ) ;
#265 = DIRECTION ( 'NONE',  ( 0.000000000000000000, 0.000000000000000000, -1.000000000000000000 ) ) ;
#266 = ORIENTED_EDGE ( 'NONE', *, *, #1188, .F. ) ;
#267 = ORIENTED_EDGE ( 'NONE', *, *, #529, .F. ) ;
#268 = DIRECTION ( 'NONE',  ( 1.000000000000000000, 0.000000000000000000, 0.000000000000000000 ) ) ;
#269 = VECTOR ( 'NONE', #532, 1000.000000000000000 ) ;
#270 =( NAMED_UNIT ( * ) PLANE_ANGLE_UNIT ( ) SI_UNIT ( $, .RADIAN. ) );
#271 = ORIENTED_EDGE ( 'NONE', *, *, #828, .F. ) ;
#272 = VERTEX_POINT ( 'NONE', #614 ) ;
#273 = EDGE_CURVE ( 'NONE', #108, #330, #791, .T. ) ;
#274 = CARTESIAN_POINT ( 'NONE',  ( 4.999999999999972466, 165.0000000000000000, 3.000000000000000000 ) ) ;
#275 = CARTESIAN_POINT ( 'NONE',  ( -8.163404592832031007E-16, 4.999999999999999112, 3.000000000000000000 ) ) ;
#276 = VERTEX_POINT ( 'NONE', #798 ) ;
#277 = ADVANCED_FACE ( 'NONE', ( #329 ), #1105, .F. ) ;
#278 = EDGE_LOOP ( 'NONE', ( #394, #305, #1126, #184 ) ) ;
#279 = DIRECTION ( 'NONE',  ( -0.000000000000000000, -0.000000000000000000, 1.000000000000000000 ) ) ;
#280 = FACE_BOUND ( 'NONE', #554, .T. ) ;
#281 = ORIENTED_EDGE ( 'NONE', *, *, #273, .F. ) ;
#282 = DIRECTION ( 'NONE',  ( -1.000000000000000000, 0.000000000000000000, 0.000000000000000000 ) ) ;
#283 = CARTESIAN_POINT ( 'NONE',  ( 4.999999999999992006, 5.000000000000004441, 3.000000000000001776 ) ) ;
#284 = AXIS2_PLACEMENT_3D ( 'NONE', #466, #839, #282 ) ;
#285 = ADVANCED_FACE ( 'NONE', ( #596 ), #344, .F. ) ;
#286 = DIRECTION ( 'NONE',  ( -1.000000000000000000, 0.000000000000000000, 0.000000000000000000 ) ) ;
#287 = EDGE_LOOP ( 'NONE', ( #711, #548, #1024, #906 ) ) ;
#288 = DIRECTION ( 'NONE',  ( 1.000000000000000000, 0.000000000000000000, 0.000000000000000000 ) ) ;
#289 = VECTOR ( 'NONE', #139, 1000.000000000000000 ) ;
#290 = CARTESIAN_POINT ( 'NONE',  ( 4.999999999999992006, 5.000000000000004441, 3.000000000000001776 ) ) ;
#291 = FACE_OUTER_BOUND ( 'NONE', #258, .T. ) ;
#292 = ORIENTED_EDGE ( 'NONE', *, *, #1001, .T. ) ;
#293 = DIRECTION ( 'NONE',  ( -1.000000000000000000, 0.000000000000000000, 0.000000000000000000 ) ) ;
#294 = ORIENTED_EDGE ( 'NONE', *, *, #318, .F. ) ;
#295 = CIRCLE ( 'NONE', #766, 1.699999999999993072 ) ;
#296 = DIRECTION ( 'NONE',  ( -1.000000000000000000, 0.000000000000000000, 0.000000000000000000 ) ) ;
#297 = ADVANCED_FACE ( 'NONE', ( #137 ), #1084, .F. ) ;
#298 = DIRECTION ( 'NONE',  ( -1.000000000000000000, 0.000000000000000000, -0.000000000000000000 ) ) ;
#299 = VERTEX_POINT ( 'NONE', #894 ) ;
#300 = DIRECTION ( 'NONE',  ( -0.000000000000000000, -0.000000000000000000, -1.000000000000000000 ) ) ;
#301 = VERTEX_POINT ( 'NONE', #502 ) ;
#302 = CIRCLE ( 'NONE', #988, 1.699999999999986189 ) ;
#303 = VECTOR ( 'NONE', #325, 1000.000000000000000 ) ;
#304 = DIRECTION ( 'NONE',  ( 0.000000000000000000, 0.000000000000000000, -1.000000000000000000 ) ) ;
#305 = ORIENTED_EDGE ( 'NONE', *, *, #441, .T. ) ;
#306 = AXIS2_PLACEMENT_3D ( 'NONE', #537, #1099, #708 ) ;
#307 = DIRECTION ( 'NONE',  ( -0.000000000000000000, -0.000000000000000000, 1.000000000000000000 ) ) ;
#308 = ORIENTED_EDGE ( 'NONE', *, *, #982, .F. ) ;
#309 = EDGE_CURVE ( 'NONE', #29, #130, #430, .T. ) ;
#310 = LINE ( 'NONE', #499, #545 ) ;
#311 = AXIS2_PLACEMENT_3D ( 'NONE', #283, #1120, #651 ) ;
#312 = CARTESIAN_POINT ( 'NONE',  ( 91.84999999999999432, 5.000000000000000000, 3.000000000000001776 ) ) ;
#313 = EDGE_LOOP ( 'NONE', ( #487, #151, #813, #371 ) ) ;
#314 = EDGE_CURVE ( 'NONE', #1018, #1059, #1075, .T. ) ;
#315 = PRODUCT_DEFINITION_CONTEXT ( 'detailed design', #432, 'design' ) ;
#316 = FACE_OUTER_BOUND ( 'NONE', #1095, .T. ) ;
#317 = ORIENTED_EDGE ( 'NONE', *, *, #730, .T. ) ;
#318 = EDGE_CURVE ( 'NONE', #491, #1164, #340, .T. ) ;
#319 = CARTESIAN_POINT ( 'NONE',  ( 95.00000000000000000, 165.0000000000000284, 1.549999999999999378 ) ) ;
#320 = PRESENTATION_LAYER_ASSIGNMENT (  '', '', ( #111 ) ) ;
#321 = CARTESIAN_POINT ( 'NONE',  ( 4.999999999999973355, 165.0000000000000000, 3.000000000000000000 ) ) ;
#322 = EDGE_LOOP ( 'NONE', ( #387, #501 ) ) ;
#323 = LINE ( 'NONE', #435, #533 ) ;
#324 = EDGE_LOOP ( 'NONE', ( #672, #786 ) ) ;
#325 = DIRECTION ( 'NONE',  ( -0.000000000000000000, -0.000000000000000000, -1.000000000000000000 ) ) ;
#326 = CIRCLE ( 'NONE', #950, 3.149999999999999911 ) ;
#327 = LINE ( 'NONE', #781, #930 ) ;
#328 = EDGE_CURVE ( 'NONE', #2, #808, #703, .T. ) ;
#329 = FACE_OUTER_BOUND ( 'NONE', #1176, .T. ) ;
#330 = VERTEX_POINT ( 'NONE', #252 ) ;
#331 = AXIS2_PLACEMENT_3D ( 'NONE', #231, #880, #695 ) ;
#332 = DIRECTION ( 'NONE',  ( 0.000000000000000000, 0.000000000000000000, -1.000000000000000000 ) ) ;
#333 = CARTESIAN_POINT ( 'NONE',  ( 1.849999999999971445, 165.0000000000000000, 3.000000000000001776 ) ) ;
#334 = AXIS2_PLACEMENT_3D ( 'NONE', #146, #1179, #433 ) ;
#335 = DIRECTION ( 'NONE',  ( -0.000000000000000000, -0.000000000000000000, 1.000000000000000000 ) ) ;
#336 = ORIENTED_EDGE ( 'NONE', *, *, #783, .T. ) ;
#337 = CARTESIAN_POINT ( 'NONE',  ( 98.15000000000000568, 165.0000000000000284, 3.000000000000001776 ) ) ;
#338 = DIRECTION ( 'NONE',  ( 0.000000000000000000, 0.000000000000000000, -1.000000000000000000 ) ) ;
#339 = CIRCLE ( 'NONE', #1178, 1.699999999999986189 ) ;
#340 = LINE ( 'NONE', #50, #937 ) ;
#341 = ORIENTED_EDGE ( 'NONE', *, *, #309, .T. ) ;
#342 = DIRECTION ( 'NONE',  ( -0.000000000000000000, -0.000000000000000000, 1.000000000000000000 ) ) ;
#343 = FACE_BOUND ( 'NONE', #324, .T. ) ;
#344 = CYLINDRICAL_SURFACE ( 'NONE', #358, 1.699999999999993072 ) ;
#345 =( GEOMETRIC_REPRESENTATION_CONTEXT ( 3 ) GLOBAL_UNCERTAINTY_ASSIGNED_CONTEXT ( ( #219 ) ) GLOBAL_UNIT_ASSIGNED_CONTEXT ( ( #805, #237, #426 ) ) REPRESENTATION_CONTEXT ( 'NONE', 'WORKASPACE' ) );
#346 = ORIENTED_EDGE ( 'NONE', *, *, #314, .F. ) ;
#347 = DIRECTION ( 'NONE',  ( -1.000000000000000000, -1.632680918566406547E-16, 0.000000000000000000 ) ) ;
#348 = CIRCLE ( 'NONE', #65, 5.000000000000004441 ) ;
#349 = CARTESIAN_POINT ( 'NONE',  ( 95.00000000000000000, 5.000000000000000000, 0.000000000000000000 ) ) ;
#350 = SURFACE_STYLE_FILL_AREA ( #739 ) ;
#351 = ORIENTED_EDGE ( 'NONE', *, *, #834, .F. ) ;
#352 = EDGE_CURVE ( 'NONE', #491, #1193, #323, .T. ) ;
#353 = ORIENTED_EDGE ( 'NONE', *, *, #657, .T. ) ;
#354 = EDGE_CURVE ( 'NONE', #728, #760, #553, .T. ) ;
#355 = LINE ( 'NONE', #890, #368 ) ;
#356 = FILL_AREA_STYLE_COLOUR ( '', #788 ) ;
#357 = ORIENTED_EDGE ( 'NONE', *, *, #796, .F. ) ;
#358 = AXIS2_PLACEMENT_3D ( 'NONE', #715, #519, #1159 ) ;
#359 = ORIENTED_EDGE ( 'NONE', *, *, #666, .F. ) ;
#360 = DIRECTION ( 'NONE',  ( -0.000000000000000000, -0.000000000000000000, 1.000000000000000000 ) ) ;
#361 = EDGE_CURVE ( 'NONE', #576, #1160, #1067, .T. ) ;
#362 = DIRECTION ( 'NONE',  ( -0.000000000000000000, -0.000000000000000000, 1.000000000000000000 ) ) ;
#363 = ORIENTED_EDGE ( 'NONE', *, *, #910, .T. ) ;
#364 = AXIS2_PLACEMENT_3D ( 'NONE', #388, #116, #478 ) ;
#365 = ORIENTED_EDGE ( 'NONE', *, *, #744, .F. ) ;
#366 = VECTOR ( 'NONE', #400, 1000.000000000000000 ) ;
#367 = CARTESIAN_POINT ( 'NONE',  ( 4.999999999999972466, 165.0000000000000000, 1.549999999999999378 ) ) ;
#368 = VECTOR ( 'NONE', #517, 1000.000000000000000 ) ;
#369 = CARTESIAN_POINT ( 'NONE',  ( 8.149999999999991473, 5.000000000000004441, 3.000000000000001776 ) ) ;
#370 = ORIENTED_EDGE ( 'NONE', *, *, #1181, .F. ) ;
#371 = ORIENTED_EDGE ( 'NONE', *, *, #228, .T. ) ;
#372 = CIRCLE ( 'NONE', #588, 1.699999999999998401 ) ;
#373 = CIRCLE ( 'NONE', #1055, 1.699999999999993516 ) ;
#374 = CARTESIAN_POINT ( 'NONE',  ( 4.999999999999972466, 165.0000000000000000, 3.000000000000001776 ) ) ;
#375 = CARTESIAN_POINT ( 'NONE',  ( 95.00000000000000000, 165.0000000000000284, 0.000000000000000000 ) ) ;
#376 = ORIENTED_EDGE ( 'NONE', *, *, #223, .T. ) ;
#377 = CARTESIAN_POINT ( 'NONE',  ( 49.99999999999997158, 35.00000000000000000, -1.734723475976807883E-15 ) ) ;
#378 = EDGE_CURVE ( 'NONE', #528, #1083, #817, .T. ) ;
#379 = PLANE ( 'NONE',  #483 ) ;
#380 = DIRECTION ( 'NONE',  ( -1.000000000000000000, 0.000000000000000000, 0.000000000000000000 ) ) ;
#381 = ORIENTED_EDGE ( 'NONE', *, *, #942, .T. ) ;
#382 = DIRECTION ( 'NONE',  ( -0.000000000000000000, -0.000000000000000000, 1.000000000000000000 ) ) ;
#383 = DIRECTION ( 'NONE',  ( -0.7071067811865473507, 8.659560562354931626E-17, 0.7071067811865477948 ) ) ;
#384 = AXIS2_PLACEMENT_3D ( 'NONE', #127, #40, #765 ) ;
#385 = AXIS2_PLACEMENT_3D ( 'NONE', #618, #245, #260 ) ;
#386 = CARTESIAN_POINT ( 'NONE',  ( 49.99999999999997158, 85.00000000000000000, 0.000000000000000000 ) ) ;
#387 = ORIENTED_EDGE ( 'NONE', *, *, #907, .F. ) ;
#388 = CARTESIAN_POINT ( 'NONE',  ( 49.99999999999997868, 135.0000000000000000, -1.734723475976807883E-15 ) ) ;
#389 = CIRCLE ( 'NONE', #1077, 3.149999999999999911 ) ;
#390 = DIRECTION ( 'NONE',  ( -1.000000000000000000, 0.000000000000000000, 0.000000000000000000 ) ) ;
#391 = DIRECTION ( 'NONE',  ( -1.000000000000000000, 0.000000000000000000, 0.000000000000000000 ) ) ;
#392 = EDGE_LOOP ( 'NONE', ( #751, #539, #552, #1123 ) ) ;
#393 = FACE_OUTER_BOUND ( 'NONE', #887, .T. ) ;
#394 = ORIENTED_EDGE ( 'NONE', *, *, #1014, .F. ) ;
#395 = VECTOR ( 'NONE', #823, 1000.000000000000000 ) ;
#396 = DIRECTION ( 'NONE',  ( -0.000000000000000000, -0.000000000000000000, -1.000000000000000000 ) ) ;
#397 = FACE_BOUND ( 'NONE', #86, .T. ) ;
#398 = ORIENTED_EDGE ( 'NONE', *, *, #21, .F. ) ;
#399 = EDGE_CURVE ( 'NONE', #678, #130, #725, .T. ) ;
#400 = DIRECTION ( 'NONE',  ( -0.000000000000000000, -0.000000000000000000, -1.000000000000000000 ) ) ;
#401 = CARTESIAN_POINT ( 'NONE',  ( 100.0000000000000000, 0.000000000000000000, 3.000000000000000000 ) ) ;
#402 = CIRCLE ( 'NONE', #1089, 3.149999999999999911 ) ;
#403 = ADVANCED_FACE ( 'NONE', ( #169 ), #687, .F. ) ;
#404 = FACE_BOUND ( 'NONE', #82, .T. ) ;
#405 = EDGE_LOOP ( 'NONE', ( #587, #590 ) ) ;
#406 = CONICAL_SURFACE ( 'NONE', #27, 3.149999999999999911, 0.7853981633974498333 ) ;
#407 = DIRECTION ( 'NONE',  ( -1.000000000000000000, 0.000000000000000000, 0.000000000000000000 ) ) ;
#408 = DIRECTION ( 'NONE',  ( 0.000000000000000000, 0.000000000000000000, -1.000000000000000000 ) ) ;
#409 = DIRECTION ( 'NONE',  ( -1.000000000000000000, 0.000000000000000000, 0.000000000000000000 ) ) ;
#410 = VERTEX_POINT ( 'NONE', #369 ) ;
#411 = DIRECTION ( 'NONE',  ( -1.000000000000000000, 0.000000000000000000, 0.000000000000000000 ) ) ;
#412 = ORIENTED_EDGE ( 'NONE', *, *, #796, .T. ) ;
#413 = MANIFOLD_SOLID_BREP ( 'CSK for M3 Flat Head Machine Screw2', #1069 ) ;
#414 = AXIS2_PLACEMENT_3D ( 'NONE', #584, #203, #107 ) ;
#415 = CARTESIAN_POINT ( 'NONE',  ( 100.0000000000000000, 5.000000000000000888, 3.000000000000000000 ) ) ;
#416 = EDGE_CURVE ( 'NONE', #631, #882, #927, .T. ) ;
#417 = CARTESIAN_POINT ( 'NONE',  ( 96.69999999999998863, 5.000000000000000000, 0.000000000000000000 ) ) ;
#418 = CARTESIAN_POINT ( 'NONE',  ( 4.999999999999992006, 5.000000000000004441, 0.000000000000000000 ) ) ;
#419 = ORIENTED_EDGE ( 'NONE', *, *, #264, .T. ) ;
#420 = CARTESIAN_POINT ( 'NONE',  ( 95.00000000000000000, 0.000000000000000000, 0.000000000000000000 ) ) ;
#421 = CARTESIAN_POINT ( 'NONE',  ( 53.14999999999998437, 135.0000000000000000, -1.734723475976807883E-15 ) ) ;
#422 = DIRECTION ( 'NONE',  ( 0.000000000000000000, 0.000000000000000000, -1.000000000000000000 ) ) ;
#423 = DIRECTION ( 'NONE',  ( -0.000000000000000000, -0.000000000000000000, 1.000000000000000000 ) ) ;
#424 = AXIS2_PLACEMENT_3D ( 'NONE', #752, #856, #1129 ) ;
#425 = VERTEX_POINT ( 'NONE', #905 ) ;
#426 =( NAMED_UNIT ( * ) SI_UNIT ( $, .STERADIAN. ) SOLID_ANGLE_UNIT ( ) );
#427 = CARTESIAN_POINT ( 'NONE',  ( 46.84999999999998010, 135.0000000000000000, -1.734723475976807883E-15 ) ) ;
#428 = DIRECTION ( 'NONE',  ( 1.000000000000000000, 0.000000000000000000, 0.000000000000000000 ) ) ;
#429 = CIRCLE ( 'NONE', #800, 5.000000000000000000 ) ;
#430 = LINE ( 'NONE', #877, #510 ) ;
#431 = ORIENTED_EDGE ( 'NONE', *, *, #106, .F. ) ;
#432 = APPLICATION_CONTEXT ( 'automotive_design' ) ;
#433 = DIRECTION ( 'NONE',  ( 1.000000000000000000, 0.000000000000000000, 0.000000000000000000 ) ) ;
#434 = LINE ( 'NONE', #337, #269 ) ;
#435 = CARTESIAN_POINT ( 'NONE',  ( 0.000000000000000000, 0.000000000000000000, 3.000000000000000000 ) ) ;
#436 = EDGE_LOOP ( 'NONE', ( #266, #33, #987, #126 ) ) ;
#437 = ADVANCED_FACE ( 'NONE', ( #1117 ), #1017, .F. ) ;
#438 = DIRECTION ( 'NONE',  ( 1.000000000000000000, 0.000000000000000000, 0.000000000000000000 ) ) ;
#439 = DIRECTION ( 'NONE',  ( -1.000000000000000000, 0.000000000000000000, 0.000000000000000000 ) ) ;
#440 = EDGE_CURVE ( 'NONE', #925, #456, #493, .T. ) ;
#441 = EDGE_CURVE ( 'NONE', #1104, #669, #183, .T. ) ;
#442 = CARTESIAN_POINT ( 'NONE',  ( 98.15000000000000568, 5.000000000000000000, 3.000000000000001776 ) ) ;
#443 = ORIENTED_EDGE ( 'NONE', *, *, #416, .T. ) ;
#444 = AXIS2_PLACEMENT_3D ( 'NONE', #57, #513, #69 ) ;
#445 = ORIENTED_EDGE ( 'NONE', *, *, #503, .F. ) ;
#446 = DIRECTION ( 'NONE',  ( 1.000000000000000000, 0.000000000000000000, 0.000000000000000000 ) ) ;
#447 = AXIS2_PLACEMENT_3D ( 'NONE', #768, #1150, #871 ) ;
#448 = CARTESIAN_POINT ( 'NONE',  ( 91.84999999999999432, 5.000000000000000000, 3.000000000000001776 ) ) ;
#449 = ORIENTED_EDGE ( 'NONE', *, *, #998, .F. ) ;
#450 = ORIENTED_EDGE ( 'NONE', *, *, #1097, .F. ) ;
#451 = AXIS2_PLACEMENT_3D ( 'NONE', #575, #125, #1138 ) ;
#452 = EDGE_CURVE ( 'NONE', #242, #954, #295, .T. ) ;
#453 = CARTESIAN_POINT ( 'NONE',  ( -2.693923515634571110E-14, 165.0000000000000000, 3.000000000000000000 ) ) ;
#454 = CARTESIAN_POINT ( 'NONE',  ( 48.29999999999999716, 135.0000000000000000, 0.000000000000000000 ) ) ;
#455 = ORIENTED_EDGE ( 'NONE', *, *, #477, .T. ) ;
#456 = VERTEX_POINT ( 'NONE', #80 ) ;
#457 = DIRECTION ( 'NONE',  ( -0.7071067811865473507, 8.659560562354931626E-17, 0.7071067811865477948 ) ) ;
#458 = EDGE_LOOP ( 'NONE', ( #735, #292, #381, #359 ) ) ;
#459 = AXIS2_PLACEMENT_3D ( 'NONE', #1165, #342, #438 ) ;
#460 = ORIENTED_EDGE ( 'NONE', *, *, #1001, .F. ) ;
#461 = DIRECTION ( 'NONE',  ( -1.000000000000000000, 0.000000000000000000, 0.000000000000000000 ) ) ;
#462 = AXIS2_PLACEMENT_3D ( 'NONE', #84, #161, #439 ) ;
#463 = DIRECTION ( 'NONE',  ( -1.000000000000000000, 0.000000000000000000, 0.000000000000000000 ) ) ;
#464 = ORIENTED_EDGE ( 'NONE', *, *, #814, .T. ) ;
#465 = EDGE_CURVE ( 'NONE', #301, #638, #247, .T. ) ;
#466 = CARTESIAN_POINT ( 'NONE',  ( 49.99999999999997158, 85.00000000000000000, -1.734723475976807883E-15 ) ) ;
#467 = CONICAL_SURFACE ( 'NONE', #124, 3.149999999999999911, 0.7853981633974498333 ) ;
#468 = CARTESIAN_POINT ( 'NONE',  ( 91.84999999999999432, 165.0000000000000284, 3.000000000000001776 ) ) ;
#469 = CARTESIAN_POINT ( 'NONE',  ( 0.000000000000000000, 0.000000000000000000, 0.000000000000000000 ) ) ;
#470 = VERTEX_POINT ( 'NONE', #189 ) ;
#471 = DIRECTION ( 'NONE',  ( -0.000000000000000000, -0.000000000000000000, 1.000000000000000000 ) ) ;
#472 = EDGE_CURVE ( 'NONE', #1102, #103, #90, .T. ) ;
#473 = DIRECTION ( 'NONE',  ( -0.000000000000000000, -0.000000000000000000, 1.000000000000000000 ) ) ;
#474 = EDGE_CURVE ( 'NONE', #563, #867, #1021, .T. ) ;
#475 = DIRECTION ( 'NONE',  ( -1.000000000000000000, 0.000000000000000000, 0.000000000000000000 ) ) ;
#476 = VERTEX_POINT ( 'NONE', #275 ) ;
#477 = EDGE_CURVE ( 'NONE', #528, #276, #339, .T. ) ;
#478 = DIRECTION ( 'NONE',  ( -1.000000000000000000, 0.000000000000000000, 0.000000000000000000 ) ) ;
#479 = EDGE_LOOP ( 'NONE', ( #1012, #115 ) ) ;
#480 = CIRCLE ( 'NONE', #851, 1.699999999999986189 ) ;
#481 = DIRECTION ( 'NONE',  ( 1.000000000000000000, 0.000000000000000000, 0.000000000000000000 ) ) ;
#482 = AXIS2_PLACEMENT_3D ( 'NONE', #131, #109, #1141 ) ;
#483 = AXIS2_PLACEMENT_3D ( 'NONE', #94, #737, #182 ) ;
#484 = DIRECTION ( 'NONE',  ( -0.000000000000000000, -0.000000000000000000, -1.000000000000000000 ) ) ;
#485 = VERTEX_POINT ( 'NONE', #195 ) ;
#486 = FACE_OUTER_BOUND ( 'NONE', #818, .T. ) ;
#487 = ORIENTED_EDGE ( 'NONE', *, *, #378, .F. ) ;
#488 = DIRECTION ( 'NONE',  ( -0.000000000000000000, -0.000000000000000000, 1.000000000000000000 ) ) ;
#489 = ADVANCED_FACE ( 'NONE', ( #1033 ), #1121, .F. ) ;
#490 = CARTESIAN_POINT ( 'NONE',  ( 4.999999999999992006, 5.000000000000004441, 3.000000000000001776 ) ) ;
#491 = VERTEX_POINT ( 'NONE', #847 ) ;
#492 = CARTESIAN_POINT ( 'NONE',  ( 6.699999999999971756, 165.0000000000000000, 1.549999999999999378 ) ) ;
#493 = CIRCLE ( 'NONE', #186, 5.000000000000004441 ) ;
#494 = DIRECTION ( 'NONE',  ( -0.000000000000000000, -0.000000000000000000, 1.000000000000000000 ) ) ;
#495 = CARTESIAN_POINT ( 'NONE',  ( 4.999999999999972466, 165.0000000000000000, 0.000000000000000000 ) ) ;
#496 = ORIENTED_EDGE ( 'NONE', *, *, #629, .T. ) ;
#497 = CARTESIAN_POINT ( 'NONE',  ( 95.00000000000000000, 165.0000000000000284, 3.000000000000001776 ) ) ;
#498 = VERTEX_POINT ( 'NONE', #1145 ) ;
#499 = CARTESIAN_POINT ( 'NONE',  ( 48.29999999999999005, 35.00000000000000000, 0.000000000000000000 ) ) ;
#500 = FACE_OUTER_BOUND ( 'NONE', #914, .T. ) ;
#501 = ORIENTED_EDGE ( 'NONE', *, *, #399, .F. ) ;
#502 = CARTESIAN_POINT ( 'NONE',  ( 93.30000000000001137, 5.000000000000000000, 0.000000000000000000 ) ) ;
#503 = EDGE_CURVE ( 'NONE', #954, #631, #756, .T. ) ;
#504 = DIRECTION ( 'NONE',  ( -0.000000000000000000, -0.000000000000000000, 1.000000000000000000 ) ) ;
#505 = LINE ( 'NONE', #1064, #951 ) ;
#506 = CARTESIAN_POINT ( 'NONE',  ( 0.000000000000000000, 0.000000000000000000, 0.000000000000000000 ) ) ;
#507 = ORIENTED_EDGE ( 'NONE', *, *, #705, .T. ) ;
#508 = EDGE_CURVE ( 'NONE', #924, #485, #1100, .T. ) ;
#509 = DIRECTION ( 'NONE',  ( -1.000000000000000000, 0.000000000000000000, 0.000000000000000000 ) ) ;
#510 = VECTOR ( 'NONE', #1087, 999.9999999999998863 ) ;
#511 = LINE ( 'NONE', #801, #194 ) ;
#512 = FACE_OUTER_BOUND ( 'NONE', #1186, .T. ) ;
#513 = DIRECTION ( 'NONE',  ( -0.000000000000000000, -0.000000000000000000, 1.000000000000000000 ) ) ;
#514 = ORIENTED_EDGE ( 'NONE', *, *, #762, .F. ) ;
#515 = DIRECTION ( 'NONE',  ( -0.000000000000000000, -0.000000000000000000, 1.000000000000000000 ) ) ;
#516 = AXIS2_PLACEMENT_3D ( 'NONE', #777, #300, #586 ) ;
#517 = DIRECTION ( 'NONE',  ( -0.000000000000000000, -0.000000000000000000, -1.000000000000000000 ) ) ;
#518 = CARTESIAN_POINT ( 'NONE',  ( 4.999999999999972466, 165.0000000000000000, 3.000000000000001776 ) ) ;
#519 = DIRECTION ( 'NONE',  ( -0.000000000000000000, -0.000000000000000000, 1.000000000000000000 ) ) ;
#520 = ORIENTED_EDGE ( 'NONE', *, *, #452, .F. ) ;
#521 = VECTOR ( 'NONE', #75, 1000.000000000000000 ) ;
#522 = PLANE ( 'NONE',  #30 ) ;
#523 = CARTESIAN_POINT ( 'NONE',  ( 49.99999999999997158, 35.00000000000000000, 3.000000000000000000 ) ) ;
#524 = DIRECTION ( 'NONE',  ( 1.000000000000000000, 0.000000000000000000, 0.000000000000000000 ) ) ;
#525 = AXIS2_PLACEMENT_3D ( 'NONE', #374, #1110, #731 ) ;
#526 = ADVANCED_FACE ( 'NONE', ( #932 ), #1132, .F. ) ;
#527 = DIRECTION ( 'NONE',  ( 0.000000000000000000, 0.000000000000000000, -1.000000000000000000 ) ) ;
#528 = VERTEX_POINT ( 'NONE', #959 ) ;
#529 = EDGE_CURVE ( 'NONE', #576, #1104, #72, .T. ) ;
#530 = LINE ( 'NONE', #1078, #1115 ) ;
#531 = EDGE_CURVE ( 'NONE', #1164, #1122, #24, .T. ) ;
#532 = DIRECTION ( 'NONE',  ( 0.7071067811865486830, 0.000000000000000000, 0.7071067811865464625 ) ) ;
#533 = VECTOR ( 'NONE', #692, 1000.000000000000000 ) ;
#534 = DIRECTION ( 'NONE',  ( -0.7071067811865486830, 8.659560562354947649E-17, 0.7071067811865464625 ) ) ;
#535 = ORIENTED_EDGE ( 'NONE', *, *, #783, .F. ) ;
#536 = LINE ( 'NONE', #889, #303 ) ;
#537 = CARTESIAN_POINT ( 'NONE',  ( 49.99999999999997158, 35.00000000000000000, 1.450000000000006839 ) ) ;
#538 = DIRECTION ( 'NONE',  ( -1.000000000000000000, 0.000000000000000000, 0.000000000000000000 ) ) ;
#539 = ORIENTED_EDGE ( 'NONE', *, *, #820, .F. ) ;
#540 = AXIS2_PLACEMENT_3D ( 'NONE', #673, #869, #1052 ) ;
#541 = EDGE_LOOP ( 'NONE', ( #557, #450 ) ) ;
#542 = EDGE_CURVE ( 'NONE', #330, #723, #1103, .T. ) ;
#543 = AXIS2_PLACEMENT_3D ( 'NONE', #518, #599, #134 ) ;
#544 = LINE ( 'NONE', #98, #622 ) ;
#545 = VECTOR ( 'NONE', #865, 1000.000000000000000 ) ;
#546 = DIRECTION ( 'NONE',  ( -0.000000000000000000, -0.000000000000000000, 1.000000000000000000 ) ) ;
#547 = VERTEX_POINT ( 'NONE', #119 ) ;
#548 = ORIENTED_EDGE ( 'NONE', *, *, #1188, .T. ) ;
#549 = ADVANCED_FACE ( 'NONE', ( #19 ), #671, .F. ) ;
#550 = DIRECTION ( 'NONE',  ( 0.7071067811865487940, 8.659560562354948882E-17, -0.7071067811865463515 ) ) ;
#551 = DIRECTION ( 'NONE',  ( -1.000000000000000000, 0.000000000000000000, 0.000000000000000000 ) ) ;
#552 = ORIENTED_EDGE ( 'NONE', *, *, #1054, .T. ) ;
#553 = CIRCLE ( 'NONE', #1137, 3.149999999999999911 ) ;
#554 = EDGE_LOOP ( 'NONE', ( #431, #644 ) ) ;
#555 = CARTESIAN_POINT ( 'NONE',  ( 95.00000000000000000, 165.0000000000000284, 3.000000000000001776 ) ) ;
#556 = CARTESIAN_POINT ( 'NONE',  ( 49.99999999999997158, 85.00000000000000000, 3.000000000000000000 ) ) ;
#557 = ORIENTED_EDGE ( 'NONE', *, *, #976, .F. ) ;
#558 = FACE_OUTER_BOUND ( 'NONE', #200, .T. ) ;
#559 = FACE_OUTER_BOUND ( 'NONE', #49, .T. ) ;
#560 = CIRCLE ( 'NONE', #1149, 1.699999999999986189 ) ;
#561 = ADVANCED_FACE ( 'NONE', ( #291 ), #784, .F. ) ;
#562 = DIRECTION ( 'NONE',  ( -0.000000000000000000, -0.000000000000000000, -1.000000000000000000 ) ) ;
#563 = VERTEX_POINT ( 'NONE', #113 ) ;
#564 = DIRECTION ( 'NONE',  ( -1.000000000000000000, 0.000000000000000000, 0.000000000000000000 ) ) ;
#565 = VECTOR ( 'NONE', #239, 1000.000000000000000 ) ;
#566 = ADVANCED_FACE ( 'NONE', ( #1043, #404, #854, #280, #397, #199, #32, #652 ), #750, .T. ) ;
#567 = PLANE ( 'NONE',  #832 ) ;
#568 = ADVANCED_FACE ( 'NONE', ( #41 ), #677, .F. ) ;
#569 = AXIS2_PLACEMENT_3D ( 'NONE', #490, #38, #664 ) ;
#570 = CYLINDRICAL_SURFACE ( 'NONE', #52, 5.000000000000000000 ) ;
#571 = ORIENTED_EDGE ( 'NONE', *, *, #982, .T. ) ;
#572 = CARTESIAN_POINT ( 'NONE',  ( 0.000000000000000000, 0.000000000000000000, 3.000000000000000000 ) ) ;
#573 = VECTOR ( 'NONE', #643, 1000.000000000000000 ) ;
#574 = DIRECTION ( 'NONE',  ( -0.000000000000000000, -0.000000000000000000, -1.000000000000000000 ) ) ;
#575 = CARTESIAN_POINT ( 'NONE',  ( 95.00000000000000000, 5.000000000000000000, 1.549999999999999378 ) ) ;
#576 = VERTEX_POINT ( 'NONE', #129 ) ;
#577 = DIRECTION ( 'NONE',  ( -0.000000000000000000, -0.000000000000000000, 1.000000000000000000 ) ) ;
#578 = AXIS2_PLACEMENT_3D ( 'NONE', #935, #849, #407 ) ;
#579 = AXIS2_PLACEMENT_3D ( 'NONE', #793, #347, #994 ) ;
#580 = EDGE_CURVE ( 'NONE', #272, #603, #373, .T. ) ;
#581 = FACE_OUTER_BOUND ( 'NONE', #1135, .T. ) ;
#582 = CIRCLE ( 'NONE', #811, 3.149999999999999911 ) ;
#583 = VECTOR ( 'NONE', #256, 1000.000000000000000 ) ;
#584 = CARTESIAN_POINT ( 'NONE',  ( 95.00000000000000000, 5.000000000000000000, 3.000000000000000000 ) ) ;
#585 = ORIENTED_EDGE ( 'NONE', *, *, #883, .T. ) ;
#586 = DIRECTION ( 'NONE',  ( -1.000000000000000000, 0.000000000000000000, 0.000000000000000000 ) ) ;
#587 = ORIENTED_EDGE ( 'NONE', *, *, #31, .F. ) ;
#588 = AXIS2_PLACEMENT_3D ( 'NONE', #921, #473, #749 ) ;
#589 = DIRECTION ( 'NONE',  ( -1.000000000000000000, 0.000000000000000000, 0.000000000000000000 ) ) ;
#590 = ORIENTED_EDGE ( 'NONE', *, *, #83, .F. ) ;
#591 = CARTESIAN_POINT ( 'NONE',  ( 49.99999999999997158, 85.00000000000000000, -1.734723475976807883E-15 ) ) ;
#592 = CARTESIAN_POINT ( 'NONE',  ( 51.69999999999996021, 35.00000000000000000, 3.000000000000000000 ) ) ;
#593 = DIRECTION ( 'NONE',  ( -1.000000000000000000, 0.000000000000000000, 0.000000000000000000 ) ) ;
#594 = ADVANCED_FACE ( 'NONE', ( #659 ), #570, .T. ) ;
#595 = ORIENTED_EDGE ( 'NONE', *, *, #607, .T. ) ;
#596 = FACE_OUTER_BOUND ( 'NONE', #1076, .T. ) ;
#597 = EDGE_LOOP ( 'NONE', ( #1171, #653, #210, #120 ) ) ;
#598 = CARTESIAN_POINT ( 'NONE',  ( 49.99999999999997158, 85.00000000000000000, 3.000000000000000000 ) ) ;
#599 = DIRECTION ( 'NONE',  ( -0.000000000000000000, -0.000000000000000000, 1.000000000000000000 ) ) ;
#600 = EDGE_LOOP ( 'NONE', ( #850, #14, #748, #363 ) ) ;
#601 = EDGE_CURVE ( 'NONE', #925, #108, #690, .T. ) ;
#602 = DIRECTION ( 'NONE',  ( -0.000000000000000000, -0.000000000000000000, -1.000000000000000000 ) ) ;
#603 = VERTEX_POINT ( 'NONE', #619 ) ;
#604 = FACE_OUTER_BOUND ( 'NONE', #458, .T. ) ;
#605 = VECTOR ( 'NONE', #550, 1000.000000000000000 ) ;
#606 = DIRECTION ( 'NONE',  ( 0.000000000000000000, 0.000000000000000000, -1.000000000000000000 ) ) ;
#607 = EDGE_CURVE ( 'NONE', #1102, #895, #165, .T. ) ;
#608 = CARTESIAN_POINT ( 'NONE',  ( 93.30000000000001137, 165.0000000000000284, 1.549999999999999378 ) ) ;
#609 = DIRECTION ( 'NONE',  ( -1.000000000000000000, 0.000000000000000000, 0.000000000000000000 ) ) ;
#610 = ORIENTED_EDGE ( 'NONE', *, *, #1032, .F. ) ;
#611 = FACE_OUTER_BOUND ( 'NONE', #857, .T. ) ;
#612 = CARTESIAN_POINT ( 'NONE',  ( 93.30000000000001137, 5.000000000000000000, 3.000000000000000000 ) ) ;
#613 = DIRECTION ( 'NONE',  ( -1.000000000000000000, 0.000000000000000000, 0.000000000000000000 ) ) ;
#614 = CARTESIAN_POINT ( 'NONE',  ( 3.299999999999978950, 165.0000000000000000, 0.000000000000000000 ) ) ;
#615 = ORIENTED_EDGE ( 'NONE', *, *, #104, .F. ) ;
#616 = ADVANCED_FACE ( 'NONE', ( #155 ), #780, .F. ) ;
#617 = CONICAL_SURFACE ( 'NONE', #284, 3.149999999999999911, 0.7853981633974500554 ) ;
#618 = CARTESIAN_POINT ( 'NONE',  ( 49.99999999999997158, 85.00000000000000000, -1.734723475976807883E-15 ) ) ;
#619 = CARTESIAN_POINT ( 'NONE',  ( 6.699999999999966427, 165.0000000000000000, 0.000000000000000000 ) ) ;
#620 = CARTESIAN_POINT ( 'NONE',  ( 49.99999999999997868, 135.0000000000000000, -1.734723475976807883E-15 ) ) ;
#621 = ORIENTED_EDGE ( 'NONE', *, *, #416, .F. ) ;
#622 = VECTOR ( 'NONE', #457, 999.9999999999998863 ) ;
#623 = LINE ( 'NONE', #612, #639 ) ;
#624 = CARTESIAN_POINT ( 'NONE',  ( 95.00000000000000000, 5.000000000000000000, 3.000000000000001776 ) ) ;
#625 = EDGE_LOOP ( 'NONE', ( #1039, #267, #962, #741 ) ) ;
#626 = CYLINDRICAL_SURFACE ( 'NONE', #459, 1.699999999999993960 ) ;
#627 = DIRECTION ( 'NONE',  ( -0.000000000000000000, -0.000000000000000000, 1.000000000000000000 ) ) ;
#628 = AXIS2_PLACEMENT_3D ( 'NONE', #917, #178, #999 ) ;
#629 = EDGE_CURVE ( 'NONE', #723, #476, #892, .T. ) ;
#630 = DIRECTION ( 'NONE',  ( 0.000000000000000000, 0.000000000000000000, -1.000000000000000000 ) ) ;
#631 = VERTEX_POINT ( 'NONE', #608 ) ;
#632 = DIRECTION ( 'NONE',  ( 0.000000000000000000, 0.000000000000000000, -1.000000000000000000 ) ) ;
#633 = DIRECTION ( 'NONE',  ( -0.000000000000000000, -0.000000000000000000, 1.000000000000000000 ) ) ;
#634 = CIRCLE ( 'NONE', #118, 1.699999999999993072 ) ;
#635 = ORIENTED_EDGE ( 'NONE', *, *, #309, .F. ) ;
#636 = ADVANCED_FACE ( 'NONE', ( #512 ), #406, .F. ) ;
#637 = CIRCLE ( 'NONE', #891, 3.149999999999999911 ) ;
#638 = VERTEX_POINT ( 'NONE', #417 ) ;
#639 = VECTOR ( 'NONE', #627, 1000.000000000000000 ) ;
#640 = DIRECTION ( 'NONE',  ( -0.000000000000000000, -0.000000000000000000, -1.000000000000000000 ) ) ;
#641 = EDGE_CURVE ( 'NONE', #867, #410, #702, .T. ) ;
#642 = CIRCLE ( 'NONE', #975, 1.699999999999986189 ) ;
#643 = DIRECTION ( 'NONE',  ( -0.000000000000000000, -0.000000000000000000, -1.000000000000000000 ) ) ;
#644 = ORIENTED_EDGE ( 'NONE', *, *, #580, .F. ) ;
#645 = ORIENTED_EDGE ( 'NONE', *, *, #477, .F. ) ;
#646 = LINE ( 'NONE', #453, #758 ) ;
#647 = CARTESIAN_POINT ( 'NONE',  ( 95.00000000000000000, 5.000000000000000000, 0.000000000000000000 ) ) ;
#648 = ORIENTED_EDGE ( 'NONE', *, *, #601, .F. ) ;
#649 = VERTEX_POINT ( 'NONE', #142 ) ;
#650 = ADVANCED_FACE ( 'NONE', ( #500 ), #148, .T. ) ;
#651 = DIRECTION ( 'NONE',  ( 1.000000000000000000, 0.000000000000000000, 0.000000000000000000 ) ) ;
#652 = FACE_OUTER_BOUND ( 'NONE', #1108, .T. ) ;
#653 = ORIENTED_EDGE ( 'NONE', *, *, #465, .T. ) ;
#654 = EDGE_CURVE ( 'NONE', #485, #925, #505, .T. ) ;
#655 = ORIENTED_EDGE ( 'NONE', *, *, #474, .F. ) ;
#656 = VECTOR ( 'NONE', #1182, 1000.000000000000000 ) ;
#657 = EDGE_CURVE ( 'NONE', #425, #631, #160, .T. ) ;
#658 = CARTESIAN_POINT ( 'NONE',  ( 49.99999999999997158, 35.00000000000000000, -1.734723475976807883E-15 ) ) ;
#659 = FACE_OUTER_BOUND ( 'NONE', #179, .T. ) ;
#660 = ORIENTED_EDGE ( 'NONE', *, *, #744, .T. ) ;
#661 = AXIS2_PLACEMENT_3D ( 'NONE', #658, #640, #461 ) ;
#662 = DIRECTION ( 'NONE',  ( 1.000000000000000000, 0.000000000000000000, 0.000000000000000000 ) ) ;
#663 = CARTESIAN_POINT ( 'NONE',  ( 95.00000000000000000, 5.000000000000000000, 1.549999999999999378 ) ) ;
#664 = DIRECTION ( 'NONE',  ( 1.000000000000000000, 0.000000000000000000, 0.000000000000000000 ) ) ;
#665 = ORIENTED_EDGE ( 'NONE', *, *, #1032, .T. ) ;
#666 = EDGE_CURVE ( 'NONE', #603, #29, #899, .T. ) ;
#667 = LINE ( 'NONE', #22, #366 ) ;
#668 = VECTOR ( 'NONE', #534, 1000.000000000000000 ) ;
#669 = VERTEX_POINT ( 'NONE', #312 ) ;
#670 = CYLINDRICAL_SURFACE ( 'NONE', #447, 1.699999999999993072 ) ;
#671 = CYLINDRICAL_SURFACE ( 'NONE', #879, 1.699999999999986189 ) ;
#672 = ORIENTED_EDGE ( 'NONE', *, *, #778, .T. ) ;
#673 = CARTESIAN_POINT ( 'NONE',  ( 4.999999999999999112, 5.000000000000000000, 3.000000000000000000 ) ) ;
#674 = EDGE_LOOP ( 'NONE', ( #824, #571, #92, #217 ) ) ;
#675 = CIRCLE ( 'NONE', #516, 1.699999999999986189 ) ;
#676 = CIRCLE ( 'NONE', #1010, 3.149999999999999911 ) ;
#677 = CYLINDRICAL_SURFACE ( 'NONE', #110, 1.699999999999986189 ) ;
#678 = VERTEX_POINT ( 'NONE', #333 ) ;
#679 = CARTESIAN_POINT ( 'NONE',  ( 95.00000000000000000, 165.0000000000000284, 3.000000000000001776 ) ) ;
#680 = ORIENTED_EDGE ( 'NONE', *, *, #452, .T. ) ;
#681 = VECTOR ( 'NONE', #494, 1000.000000000000000 ) ;
#682 = DIRECTION ( 'NONE',  ( 0.000000000000000000, 0.000000000000000000, -1.000000000000000000 ) ) ;
#683 = ADVANCED_FACE ( 'NONE', ( #684 ), #1162, .T. ) ;
#684 = FACE_OUTER_BOUND ( 'NONE', #1051, .T. ) ;
#685 = ORIENTED_EDGE ( 'NONE', *, *, #580, .T. ) ;
#686 = DIRECTION ( 'NONE',  ( 0.000000000000000000, -0.000000000000000000, 1.000000000000000000 ) ) ;
#687 = CONICAL_SURFACE ( 'NONE', #93, 3.149999999999999911, 0.7853981633974498333 ) ;
#688 = CARTESIAN_POINT ( 'NONE',  ( 95.00000000000000000, 0.000000000000000000, 3.000000000000000000 ) ) ;
#689 = ADVANCED_FACE ( 'NONE', ( #1081 ), #875, .F. ) ;
#690 = LINE ( 'NONE', #991, #565 ) ;
#691 = ORIENTED_EDGE ( 'NONE', *, *, #1181, .T. ) ;
#692 = DIRECTION ( 'NONE',  ( 1.000000000000000000, 0.000000000000000000, 0.000000000000000000 ) ) ;
#693 = EDGE_LOOP ( 'NONE', ( #799, #271 ) ) ;
#694 = CIRCLE ( 'NONE', #540, 5.000000000000000000 ) ;
#695 = DIRECTION ( 'NONE',  ( 1.000000000000000000, 0.000000000000000000, 0.000000000000000000 ) ) ;
#696 = AXIS2_PLACEMENT_3D ( 'NONE', #802, #338, #593 ) ;
#697 = CARTESIAN_POINT ( 'NONE',  ( 4.999999999999992006, 5.000000000000004441, 3.000000000000001776 ) ) ;
#698 = EDGE_LOOP ( 'NONE', ( #716, #974, #128, #70 ) ) ;
#699 = DIRECTION ( 'NONE',  ( 0.7071067811865487940, 8.659560562354948882E-17, -0.7071067811865463515 ) ) ;
#700 = AXIS2_PLACEMENT_3D ( 'NONE', #663, #1063, #133 ) ;
#701 = CARTESIAN_POINT ( 'NONE',  ( 95.00000000000000000, 5.000000000000000000, 3.000000000000001776 ) ) ;
#702 = LINE ( 'NONE', #251, #100 ) ;
#703 = LINE ( 'NONE', #1175, #1194 ) ;
#704 = ORIENTED_EDGE ( 'NONE', *, *, #174, .T. ) ;
#705 = EDGE_CURVE ( 'NONE', #829, #299, #327, .T. ) ;
#706 = CARTESIAN_POINT ( 'NONE',  ( 93.30000000000001137, 5.000000000000000000, 1.549999999999999378 ) ) ;
#707 = AXIS2_PLACEMENT_3D ( 'NONE', #95, #362, #733 ) ;
#708 = DIRECTION ( 'NONE',  ( -1.000000000000000000, 0.000000000000000000, 0.000000000000000000 ) ) ;
#709 = DIRECTION ( 'NONE',  ( -0.000000000000000000, -0.000000000000000000, 1.000000000000000000 ) ) ;
#710 = DIRECTION ( 'NONE',  ( 0.7071067811865487940, 8.659560562354948882E-17, -0.7071067811865463515 ) ) ;
#711 = ORIENTED_EDGE ( 'NONE', *, *, #1074, .F. ) ;
#712 = CARTESIAN_POINT ( 'NONE',  ( 0.000000000000000000, 0.000000000000000000, 3.000000000000000000 ) ) ;
#713 = CARTESIAN_POINT ( 'NONE',  ( 48.29999999999999005, 35.00000000000000000, 1.450000000000006839 ) ) ;
#714 = AXIS2_PLACEMENT_3D ( 'NONE', #789, #515, #509 ) ;
#715 = CARTESIAN_POINT ( 'NONE',  ( 95.00000000000000000, 165.0000000000000284, 3.000000000000000000 ) ) ;
#716 = ORIENTED_EDGE ( 'NONE', *, *, #243, .F. ) ;
#717 = SHAPE_DEFINITION_REPRESENTATION ( #54, #114 ) ;
#718 = ADVANCED_FACE ( 'NONE', ( #1157 ), #795, .F. ) ;
#719 = CARTESIAN_POINT ( 'NONE',  ( 4.999999999999973355, 165.0000000000000000, 0.000000000000000000 ) ) ;
#720 = DIRECTION ( 'NONE',  ( -0.000000000000000000, -0.000000000000000000, 1.000000000000000000 ) ) ;
#721 = AXIS2_PLACEMENT_3D ( 'NONE', #842, #945, #391 ) ;
#722 = ORIENTED_EDGE ( 'NONE', *, *, #942, .F. ) ;
#723 = VERTEX_POINT ( 'NONE', #1073 ) ;
#724 = FACE_BOUND ( 'NONE', #693, .T. ) ;
#725 = CIRCLE ( 'NONE', #628, 3.150000000000000799 ) ;
#726 = ADVANCED_FACE ( 'NONE', ( #885 ), #246, .F. ) ;
#727 = PRESENTATION_STYLE_ASSIGNMENT (( #257 ) ) ;
#728 = VERTEX_POINT ( 'NONE', #421 ) ;
#729 = EDGE_LOOP ( 'NONE', ( #96, #1068, #507, #376 ) ) ;
#730 = EDGE_CURVE ( 'NONE', #649, #456, #167, .T. ) ;
#731 = DIRECTION ( 'NONE',  ( 1.000000000000000000, 0.000000000000000000, 0.000000000000000000 ) ) ;
#732 = AXIS2_PLACEMENT_3D ( 'NONE', #1071, #166, #78 ) ;
#733 = DIRECTION ( 'NONE',  ( 1.000000000000000000, 0.000000000000000000, 0.000000000000000000 ) ) ;
#734 = ORIENTED_EDGE ( 'NONE', *, *, #1107, .T. ) ;
#735 = ORIENTED_EDGE ( 'NONE', *, *, #106, .T. ) ;
#736 = AXIS2_PLACEMENT_3D ( 'NONE', #349, #1173, #884 ) ;
#737 = DIRECTION ( 'NONE',  ( 0.000000000000000000, 0.000000000000000000, -1.000000000000000000 ) ) ;
#738 = CIRCLE ( 'NONE', #311, 3.149999999999999911 ) ;
#739 = FILL_AREA_STYLE ('',( #356 ) ) ;
#740 = ORIENTED_EDGE ( 'NONE', *, *, #399, .T. ) ;
#741 = ORIENTED_EDGE ( 'NONE', *, *, #1140, .T. ) ;
#742 = EDGE_CURVE ( 'NONE', #301, #1104, #623, .T. ) ;
#743 = FACE_OUTER_BOUND ( 'NONE', #625, .T. ) ;
#744 = EDGE_CURVE ( 'NONE', #425, #1, #434, .T. ) ;
#745 = CARTESIAN_POINT ( 'NONE',  ( 4.999999999999992006, 5.000000000000004441, 3.000000000000000000 ) ) ;
#746 = VERTEX_POINT ( 'NONE', #147 ) ;
#747 = EDGE_CURVE ( 'NONE', #470, #867, #1189, .T. ) ;
#748 = ORIENTED_EDGE ( 'NONE', *, *, #747, .T. ) ;
#749 = DIRECTION ( 'NONE',  ( 1.000000000000000000, 0.000000000000000000, 0.000000000000000000 ) ) ;
#750 = PLANE ( 'NONE',  #898 ) ;
#751 = ORIENTED_EDGE ( 'NONE', *, *, #328, .F. ) ;
#752 = CARTESIAN_POINT ( 'NONE',  ( 4.999999999999972466, 165.0000000000000000, 0.000000000000000000 ) ) ;
#753 = CONICAL_SURFACE ( 'NONE', #578, 3.149999999999999911, 0.7853981633974500554 ) ;
#754 = DIRECTION ( 'NONE',  ( 0.000000000000000000, 0.000000000000000000, -1.000000000000000000 ) ) ;
#755 = EDGE_CURVE ( 'NONE', #242, #425, #511, .T. ) ;
#756 = LINE ( 'NONE', #1125, #1060 ) ;
#757 = ORIENTED_EDGE ( 'NONE', *, *, #230, .F. ) ;
#758 = VECTOR ( 'NONE', #265, 1000.000000000000000 ) ;
#759 = DIRECTION ( 'NONE',  ( -0.000000000000000000, -0.000000000000000000, -1.000000000000000000 ) ) ;
#760 = VERTEX_POINT ( 'NONE', #816 ) ;
#761 = CARTESIAN_POINT ( 'NONE',  ( 3.299999999999978950, 165.0000000000000000, 3.000000000000000000 ) ) ;
#762 = EDGE_CURVE ( 'NONE', #456, #924, #990, .T. ) ;
#763 = CARTESIAN_POINT ( 'NONE',  ( 0.000000000000000000, 0.000000000000000000, 0.000000000000000000 ) ) ;
#764 = ORIENTED_EDGE ( 'NONE', *, *, #1091, .T. ) ;
#765 = DIRECTION ( 'NONE',  ( -1.000000000000000000, 0.000000000000000000, 0.000000000000000000 ) ) ;
#766 = AXIS2_PLACEMENT_3D ( 'NONE', #375, #7, #538 ) ;
#767 = EDGE_LOOP ( 'NONE', ( #621, #946, #660, #1044 ) ) ;
#768 = CARTESIAN_POINT ( 'NONE',  ( 95.00000000000000000, 165.0000000000000284, 3.000000000000000000 ) ) ;
#769 = DIRECTION ( 'NONE',  ( 1.000000000000000000, 0.000000000000000000, 0.000000000000000000 ) ) ;
#770 = VERTEX_POINT ( 'NONE', #713 ) ;
#771 = FACE_OUTER_BOUND ( 'NONE', #1029, .T. ) ;
#772 = ORIENTED_EDGE ( 'NONE', *, *, #742, .T. ) ;
#773 = CARTESIAN_POINT ( 'NONE',  ( 46.84999999999997300, 35.00000000000000000, -1.734723475976807883E-15 ) ) ;
#774 = CIRCLE ( 'NONE', #211, 1.699999999999993072 ) ;
#775 = CARTESIAN_POINT ( 'NONE',  ( 6.699999999999966427, 165.0000000000000000, 3.000000000000000000 ) ) ;
#776 = EDGE_LOOP ( 'NONE', ( #861, #792 ) ) ;
#777 = CARTESIAN_POINT ( 'NONE',  ( 49.99999999999997158, 85.00000000000000000, 1.450000000000006839 ) ) ;
#778 = EDGE_CURVE ( 'NONE', #547, #1019, #560, .T. ) ;
#779 = CYLINDRICAL_SURFACE ( 'NONE', #164, 1.699999999999986189 ) ;
#780 = CONICAL_SURFACE ( 'NONE', #543, 3.150000000000000799, 0.7853981633974480570 ) ;
#781 = CARTESIAN_POINT ( 'NONE',  ( 46.84999999999997300, 85.00000000000000000, -1.734723475976807883E-15 ) ) ;
#782 = ORIENTED_EDGE ( 'NONE', *, *, #1097, .T. ) ;
#783 = EDGE_CURVE ( 'NONE', #954, #242, #774, .T. ) ;
#784 = CONICAL_SURFACE ( 'NONE', #569, 3.149999999999999911, 0.7853981633974480570 ) ;
#785 = LINE ( 'NONE', #973, #138 ) ;
#786 = ORIENTED_EDGE ( 'NONE', *, *, #15, .T. ) ;
#787 = EDGE_CURVE ( 'NONE', #649, #1122, #348, .T. ) ;
#788 = COLOUR_RGB ( '',0.7921568627450980005, 0.8196078431372548767, 0.9333333333333333481 ) ;
#789 = CARTESIAN_POINT ( 'NONE',  ( 95.00000000000000000, 5.000000000000000000, 3.000000000000000000 ) ) ;
#790 = DIRECTION ( 'NONE',  ( 0.7071067811865473507, 0.000000000000000000, 0.7071067811865477948 ) ) ;
#791 = LINE ( 'NONE', #1082, #822 ) ;
#792 = ORIENTED_EDGE ( 'NONE', *, *, #465, .F. ) ;
#793 = CARTESIAN_POINT ( 'NONE',  ( 100.0000000000000000, 0.000000000000000000, 3.000000000000000000 ) ) ;
#794 = DIRECTION ( 'NONE',  ( -0.000000000000000000, -0.000000000000000000, 1.000000000000000000 ) ) ;
#795 = CYLINDRICAL_SURFACE ( 'NONE', #331, 1.699999999999993072 ) ;
#796 = EDGE_CURVE ( 'NONE', #103, #760, #984, .T. ) ;
#797 = AXIS2_PLACEMENT_3D ( 'NONE', #60, #422, #1058 ) ;
#798 = CARTESIAN_POINT ( 'NONE',  ( 48.29999999999999005, 85.00000000000000000, 3.000000000000000000 ) ) ;
#799 = ORIENTED_EDGE ( 'NONE', *, *, #1140, .F. ) ;
#800 = AXIS2_PLACEMENT_3D ( 'NONE', #1155, #408, #53 ) ;
#801 = CARTESIAN_POINT ( 'NONE',  ( 96.69999999999998863, 165.0000000000000284, 3.000000000000000000 ) ) ;
#802 = CARTESIAN_POINT ( 'NONE',  ( 95.00000000000000000, 5.000000000000000000, 3.000000000000000000 ) ) ;
#803 = DIRECTION ( 'NONE',  ( 1.632680918566406547E-16, -1.000000000000000000, -0.000000000000000000 ) ) ;
#804 = ORIENTED_EDGE ( 'NONE', *, *, #1047, .F. ) ;
#805 =( LENGTH_UNIT ( ) NAMED_UNIT ( * ) SI_UNIT ( .MILLI., .METRE. ) );
#806 = DIRECTION ( 'NONE',  ( -1.000000000000000000, 0.000000000000000000, 0.000000000000000000 ) ) ;
#807 = DIRECTION ( 'NONE',  ( -0.000000000000000000, -0.000000000000000000, -1.000000000000000000 ) ) ;
#808 = VERTEX_POINT ( 'NONE', #810 ) ;
#809 = EDGE_CURVE ( 'NONE', #638, #301, #6, .T. ) ;
#810 = CARTESIAN_POINT ( 'NONE',  ( 53.14999999999997726, 35.00000000000000000, -1.734723475976807883E-15 ) ) ;
#811 = AXIS2_PLACEMENT_3D ( 'NONE', #497, #471, #862 ) ;
#812 = ORIENTED_EDGE ( 'NONE', *, *, #907, .T. ) ;
#813 = ORIENTED_EDGE ( 'NONE', *, *, #845, .T. ) ;
#814 = EDGE_CURVE ( 'NONE', #1018, #108, #873, .T. ) ;
#815 = AXIS2_PLACEMENT_3D ( 'NONE', #319, #123, #481 ) ;
#816 = CARTESIAN_POINT ( 'NONE',  ( 46.84999999999998010, 135.0000000000000000, -1.734723475976807883E-15 ) ) ;
#817 = LINE ( 'NONE', #1005, #573 ) ;
#818 = EDGE_LOOP ( 'NONE', ( #122, #615, #412, #102 ) ) ;
#819 = ORIENTED_EDGE ( 'NONE', *, *, #747, .F. ) ;
#820 = EDGE_CURVE ( 'NONE', #770, #2, #852, .T. ) ;
#821 = FACE_OUTER_BOUND ( 'NONE', #767, .T. ) ;
#822 = VECTOR ( 'NONE', #423, 1000.000000000000000 ) ;
#823 = DIRECTION ( 'NONE',  ( -0.000000000000000000, -0.000000000000000000, -1.000000000000000000 ) ) ;
#824 = ORIENTED_EDGE ( 'NONE', *, *, #314, .T. ) ;
#825 = ORIENTED_EDGE ( 'NONE', *, *, #1096, .T. ) ;
#826 = DIRECTION ( 'NONE',  ( -1.000000000000000000, 0.000000000000000000, 0.000000000000000000 ) ) ;
#827 = PRODUCT_DEFINITION_FORMATION_WITH_SPECIFIED_SOURCE ( 'ANY', '', #1057, .NOT_KNOWN. ) ;
#828 = EDGE_CURVE ( 'NONE', #669, #1160, #676, .T. ) ;
#829 = VERTEX_POINT ( 'NONE', #154 ) ;
#830 = CIRCLE ( 'NONE', #1008, 3.149999999999999911 ) ;
#831 = VERTEX_POINT ( 'NONE', #1079 ) ;
#832 = AXIS2_PLACEMENT_3D ( 'NONE', #1025, #176, #1106 ) ;
#833 = CARTESIAN_POINT ( 'NONE',  ( 96.69999999999998863, 5.000000000000000000, 3.000000000000000000 ) ) ;
#834 = EDGE_CURVE ( 'NONE', #91, #299, #893, .T. ) ;
#835 = CIRCLE ( 'NONE', #955, 1.699999999999986189 ) ;
#836 =( NAMED_UNIT ( * ) SI_UNIT ( $, .STERADIAN. ) SOLID_ANGLE_UNIT ( ) );
#837 = ORIENTED_EDGE ( 'NONE', *, *, #814, .F. ) ;
#838 = AXIS2_PLACEMENT_3D ( 'NONE', #985, #979, #613 ) ;
#839 = DIRECTION ( 'NONE',  ( -0.000000000000000000, -0.000000000000000000, -1.000000000000000000 ) ) ;
#840 = DIRECTION ( 'NONE',  ( 1.000000000000000000, 0.000000000000000000, 0.000000000000000000 ) ) ;
#841 = AXIS2_PLACEMENT_3D ( 'NONE', #76, #602, #1170 ) ;
#842 = CARTESIAN_POINT ( 'NONE',  ( 4.999999999999973355, 165.0000000000000000, 3.000000000000000000 ) ) ;
#843 = ORIENTED_EDGE ( 'NONE', *, *, #503, .T. ) ;
#844 = CARTESIAN_POINT ( 'NONE',  ( 46.84999999999997300, 35.00000000000000000, -1.734723475976807883E-15 ) ) ;
#845 = EDGE_CURVE ( 'NONE', #276, #829, #355, .T. ) ;
#846 = CARTESIAN_POINT ( 'NONE',  ( 51.69999999999996732, 135.0000000000000000, 3.000000000000000000 ) ) ;
#847 = CARTESIAN_POINT ( 'NONE',  ( 4.999999999999999112, 0.000000000000000000, 3.000000000000000000 ) ) ;
#848 = ORIENTED_EDGE ( 'NONE', *, *, #762, .T. ) ;
#849 = DIRECTION ( 'NONE',  ( -0.000000000000000000, -0.000000000000000000, -1.000000000000000000 ) ) ;
#850 = ORIENTED_EDGE ( 'NONE', *, *, #264, .F. ) ;
#851 = AXIS2_PLACEMENT_3D ( 'NONE', #992, #248, #1094 ) ;
#852 = CIRCLE ( 'NONE', #306, 1.699999999999986189 ) ;
#853 = CARTESIAN_POINT ( 'NONE',  ( 49.99999999999997868, 135.0000000000000000, 3.000000000000000000 ) ) ;
#854 = FACE_BOUND ( 'NONE', #173, .T. ) ;
#855 = ORIENTED_EDGE ( 'NONE', *, *, #868, .F. ) ;
#856 = DIRECTION ( 'NONE',  ( 0.000000000000000000, 0.000000000000000000, -1.000000000000000000 ) ) ;
#857 = EDGE_LOOP ( 'NONE', ( #317, #848, #610, #928 ) ) ;
#858 = ADVANCED_FACE ( 'NONE', ( #1180, #172, #343, #1092, #909, #724, #936, #198 ), #379, .F. ) ;
#859 = DIRECTION ( 'NONE',  ( 1.000000000000000000, 0.000000000000000000, 0.000000000000000000 ) ) ;
#860 = DIRECTION ( 'NONE',  ( -1.000000000000000000, 0.000000000000000000, 0.000000000000000000 ) ) ;
#861 = ORIENTED_EDGE ( 'NONE', *, *, #809, .F. ) ;
#862 = DIRECTION ( 'NONE',  ( 1.000000000000000000, 0.000000000000000000, 0.000000000000000000 ) ) ;
#863 = VECTOR ( 'NONE', #803, 1000.000000000000000 ) ;
#864 = ORIENTED_EDGE ( 'NONE', *, *, #934, .F. ) ;
#865 = DIRECTION ( 'NONE',  ( -0.000000000000000000, -0.000000000000000000, -1.000000000000000000 ) ) ;
#866 = DIRECTION ( 'NONE',  ( 0.000000000000000000, 0.000000000000000000, -1.000000000000000000 ) ) ;
#867 = VERTEX_POINT ( 'NONE', #105 ) ;
#868 = EDGE_CURVE ( 'NONE', #638, #576, #1030, .T. ) ;
#869 = DIRECTION ( 'NONE',  ( -0.000000000000000000, -0.000000000000000000, 1.000000000000000000 ) ) ;
#870 = ORIENTED_EDGE ( 'NONE', *, *, #641, .F. ) ;
#871 = DIRECTION ( 'NONE',  ( 1.000000000000000000, 0.000000000000000000, 0.000000000000000000 ) ) ;
#872 = ADVANCED_FACE ( 'NONE', ( #5 ), #567, .F. ) ;
#873 = CIRCLE ( 'NONE', #236, 5.000000000000000000 ) ;
#874 = EDGE_CURVE ( 'NONE', #563, #831, #544, .T. ) ;
#875 = CYLINDRICAL_SURFACE ( 'NONE', #1093, 1.699999999999986189 ) ;
#876 = ORIENTED_EDGE ( 'NONE', *, *, #73, .F. ) ;
#877 = CARTESIAN_POINT ( 'NONE',  ( 8.149999999999973710, 165.0000000000000000, 3.000000000000001776 ) ) ;
#878 = CIRCLE ( 'NONE', #1187, 1.699999999999986189 ) ;
#879 = AXIS2_PLACEMENT_3D ( 'NONE', #386, #484, #380 ) ;
#880 = DIRECTION ( 'NONE',  ( -0.000000000000000000, -0.000000000000000000, 1.000000000000000000 ) ) ;
#881 = DIRECTION ( 'NONE',  ( -0.000000000000000000, -0.000000000000000000, -1.000000000000000000 ) ) ;
#882 = VERTEX_POINT ( 'NONE', #468 ) ;
#883 = EDGE_CURVE ( 'NONE', #2, #770, #1167, .T. ) ;
#884 = DIRECTION ( 'NONE',  ( -1.000000000000000000, 0.000000000000000000, 0.000000000000000000 ) ) ;
#885 = FACE_OUTER_BOUND ( 'NONE', #287, .T. ) ;
#886 = CARTESIAN_POINT ( 'NONE',  ( -2.775557561562891351E-14, 170.0000000000000000, 3.000000000000000000 ) ) ;
#887 = EDGE_LOOP ( 'NONE', ( #804, #1185, #51, #357 ) ) ;
#888 = CIRCLE ( 'NONE', #384, 1.699999999999986189 ) ;
#889 = CARTESIAN_POINT ( 'NONE',  ( 51.69999999999996732, 135.0000000000000000, 0.000000000000000000 ) ) ;
#890 = CARTESIAN_POINT ( 'NONE',  ( 48.29999999999999005, 85.00000000000000000, 0.000000000000000000 ) ) ;
#891 = AXIS2_PLACEMENT_3D ( 'NONE', #121, #759, #34 ) ;
#892 = LINE ( 'NONE', #55, #521 ) ;
#893 = CIRCLE ( 'NONE', #385, 3.149999999999999911 ) ;
#894 = CARTESIAN_POINT ( 'NONE',  ( 46.84999999999997300, 85.00000000000000000, -1.734723475976807883E-15 ) ) ;
#895 = VERTEX_POINT ( 'NONE', #846 ) ;
#896 = CONICAL_SURFACE ( 'NONE', #661, 3.149999999999999911, 0.7853981633974500554 ) ;
#897 = DIRECTION ( 'NONE',  ( -0.7071067811865487940, 0.000000000000000000, -0.7071067811865463515 ) ) ;
#898 = AXIS2_PLACEMENT_3D ( 'NONE', #763, #304, #298 ) ;
#899 = LINE ( 'NONE', #775, #177 ) ;
#900 = ADVANCED_FACE ( 'NONE', ( #821 ), #467, .F. ) ;
#901 = DIRECTION ( 'NONE',  ( -1.000000000000000000, -0.000000000000000000, -0.000000000000000000 ) ) ;
#902 = ORIENTED_EDGE ( 'NONE', *, *, #834, .T. ) ;
#903 = CARTESIAN_POINT ( 'NONE',  ( 4.999999999999999112, 0.000000000000000000, 0.000000000000000000 ) ) ;
#904 = DIRECTION ( 'NONE',  ( 0.000000000000000000, 0.000000000000000000, -1.000000000000000000 ) ) ;
#905 = CARTESIAN_POINT ( 'NONE',  ( 96.69999999999998863, 165.0000000000000284, 1.549999999999999378 ) ) ;
#906 = ORIENTED_EDGE ( 'NONE', *, *, #472, .F. ) ;
#907 = EDGE_CURVE ( 'NONE', #130, #678, #88, .T. ) ;
#908 = APPLICATION_CONTEXT ( 'automotive_design' ) ;
#909 = FACE_BOUND ( 'NONE', #405, .T. ) ;
#910 = EDGE_CURVE ( 'NONE', #867, #563, #372, .T. ) ;
#911 = AXIS2_PLACEMENT_3D ( 'NONE', #162, #709, #524 ) ;
#912 = CARTESIAN_POINT ( 'NONE',  ( 91.84999999999999432, 165.0000000000000284, 3.000000000000001776 ) ) ;
#913 = ORIENTED_EDGE ( 'NONE', *, *, #998, .T. ) ;
#914 = EDGE_LOOP ( 'NONE', ( #370, #949, #960, #1028 ) ) ;
#915 = VECTOR ( 'NONE', #504, 1000.000000000000000 ) ;
#916 = LINE ( 'NONE', #1195, #605 ) ;
#917 = CARTESIAN_POINT ( 'NONE',  ( 4.999999999999972466, 165.0000000000000000, 3.000000000000001776 ) ) ;
#918 = ORIENTED_EDGE ( 'NONE', *, *, #820, .T. ) ;
#919 = EDGE_LOOP ( 'NONE', ( #595, #1109 ) ) ;
#920 = ADVANCED_FACE ( 'NONE', ( #743 ), #1131, .F. ) ;
#921 = CARTESIAN_POINT ( 'NONE',  ( 4.999999999999992006, 5.000000000000004441, 1.549999999999999378 ) ) ;
#922 = AXIS2_PLACEMENT_3D ( 'NONE', #745, #720, #85 ) ;
#923 = DIRECTION ( 'NONE',  ( -0.7071067811865486830, 8.659560562354947649E-17, 0.7071067811865464625 ) ) ;
#924 = VERTEX_POINT ( 'NONE', #1020 ) ;
#925 = VERTEX_POINT ( 'NONE', #1009 ) ;
#926 = DIRECTION ( 'NONE',  ( 1.000000000000000000, 0.000000000000000000, 0.000000000000000000 ) ) ;
#927 = LINE ( 'NONE', #912, #668 ) ;
#928 = ORIENTED_EDGE ( 'NONE', *, *, #206, .T. ) ;
#929 = ORIENTED_EDGE ( 'NONE', *, *, #99, .T. ) ;
#930 = VECTOR ( 'NONE', #224, 1000.000000000000000 ) ;
#931 = CARTESIAN_POINT ( 'NONE',  ( 1.849999999999971445, 165.0000000000000000, 3.000000000000001776 ) ) ;
#932 = FACE_OUTER_BOUND ( 'NONE', #939, .T. ) ;
#933 = ORIENTED_EDGE ( 'NONE', *, *, #174, .F. ) ;
#934 = EDGE_CURVE ( 'NONE', #498, #678, #1124, .T. ) ;
#935 = CARTESIAN_POINT ( 'NONE',  ( 49.99999999999997868, 135.0000000000000000, -1.734723475976807883E-15 ) ) ;
#936 = FACE_BOUND ( 'NONE', #541, .T. ) ;
#937 = VECTOR ( 'NONE', #144, 1000.000000000000000 ) ;
#938 = CARTESIAN_POINT ( 'NONE',  ( 49.99999999999997868, 135.0000000000000000, 0.000000000000000000 ) ) ;
#939 = EDGE_LOOP ( 'NONE', ( #97, #772, #232, #855 ) ) ;
#940 = DIRECTION ( 'NONE',  ( -0.000000000000000000, 0.000000000000000000, -1.000000000000000000 ) ) ;
#941 = ORIENTED_EDGE ( 'NONE', *, *, #976, .T. ) ;
#942 = EDGE_CURVE ( 'NONE', #498, #29, #71, .T. ) ;
#943 = DIRECTION ( 'NONE',  ( -1.000000000000000000, 0.000000000000000000, 0.000000000000000000 ) ) ;
#944 = VECTOR ( 'NONE', #901, 1000.000000000000000 ) ;
#945 = DIRECTION ( 'NONE',  ( -0.000000000000000000, -0.000000000000000000, 1.000000000000000000 ) ) ;
#946 = ORIENTED_EDGE ( 'NONE', *, *, #657, .F. ) ;
#947 = ADVANCED_FACE ( 'NONE', ( #193 ), #896, .F. ) ;
#948 = CARTESIAN_POINT ( 'NONE',  ( 53.14999999999997726, 85.00000000000000000, -1.734723475976807883E-15 ) ) ;
#949 = ORIENTED_EDGE ( 'NONE', *, *, #1096, .F. ) ;
#950 = AXIS2_PLACEMENT_3D ( 'NONE', #679, #577, #956 ) ;
#951 = VECTOR ( 'NONE', #1169, 1000.000000000000000 ) ;
#952 = CARTESIAN_POINT ( 'NONE',  ( 49.99999999999997868, 135.0000000000000000, 1.450000000000006839 ) ) ;
#953 = DIRECTION ( 'NONE',  ( -0.000000000000000000, -0.000000000000000000, 1.000000000000000000 ) ) ;
#954 = VERTEX_POINT ( 'NONE', #1016 ) ;
#955 = AXIS2_PLACEMENT_3D ( 'NONE', #952, #396, #1041 ) ;
#956 = DIRECTION ( 'NONE',  ( 1.000000000000000000, 0.000000000000000000, 0.000000000000000000 ) ) ;
#957 = CARTESIAN_POINT ( 'NONE',  ( -8.163404592832031007E-16, 4.999999999999999112, 3.000000000000000000 ) ) ;
#958 = EDGE_CURVE ( 'NONE', #723, #1018, #646, .T. ) ;
#959 = CARTESIAN_POINT ( 'NONE',  ( 51.69999999999996021, 85.00000000000000000, 3.000000000000000000 ) ) ;
#960 = ORIENTED_EDGE ( 'NONE', *, *, #787, .F. ) ;
#961 = CARTESIAN_POINT ( 'NONE',  ( 48.29999999999999716, 135.0000000000000000, 1.450000000000006839 ) ) ;
#962 = ORIENTED_EDGE ( 'NONE', *, *, #361, .T. ) ;
#963 = EDGE_CURVE ( 'NONE', #249, #728, #916, .T. ) ;
#964 = CARTESIAN_POINT ( 'NONE',  ( 49.99999999999997158, 35.00000000000000000, 0.000000000000000000 ) ) ;
#965 = ADVANCED_FACE ( 'NONE', ( #559 ), #1116, .F. ) ;
#966 = DIRECTION ( 'NONE',  ( -1.000000000000000000, 0.000000000000000000, 0.000000000000000000 ) ) ;
#967 = EDGE_LOOP ( 'NONE', ( #876, #757 ) ) ;
#968 = DIRECTION ( 'NONE',  ( -0.000000000000000000, -0.000000000000000000, 1.000000000000000000 ) ) ;
#969 = ORIENTED_EDGE ( 'NONE', *, *, #140, .F. ) ;
#970 = AXIS2_PLACEMENT_3D ( 'NONE', #43, #307, #662 ) ;
#971 = LINE ( 'NONE', #688, #915 ) ;
#972 = DIRECTION ( 'NONE',  ( -0.000000000000000000, -0.000000000000000000, -1.000000000000000000 ) ) ;
#973 = CARTESIAN_POINT ( 'NONE',  ( 3.299999999999998934, 5.000000000000004441, 3.000000000000000000 ) ) ;
#974 = ORIENTED_EDGE ( 'NONE', *, *, #654, .T. ) ;
#975 = AXIS2_PLACEMENT_3D ( 'NONE', #853, #754, #296 ) ;
#976 = EDGE_CURVE ( 'NONE', #410, #831, #738, .T. ) ;
#977 = APPLICATION_PROTOCOL_DEFINITION ( 'draft international standard', 'automotive_design', 1998, #908 ) ;
#978 = DIRECTION ( 'NONE',  ( -1.632680918566406547E-16, 1.000000000000000000, 0.000000000000000000 ) ) ;
#979 = DIRECTION ( 'NONE',  ( 0.000000000000000000, 0.000000000000000000, -1.000000000000000000 ) ) ;
#980 = LINE ( 'NONE', #886, #944 ) ;
#981 = ORIENTED_EDGE ( 'NONE', *, *, #83, .T. ) ;
#982 = EDGE_CURVE ( 'NONE', #1059, #476, #1056, .T. ) ;
#983 = DIRECTION ( 'NONE',  ( -1.000000000000000000, 0.000000000000000000, 0.000000000000000000 ) ) ;
#984 = LINE ( 'NONE', #427, #46 ) ;
#985 = CARTESIAN_POINT ( 'NONE',  ( 49.99999999999997868, 135.0000000000000000, 3.000000000000000000 ) ) ;
#986 = FACE_OUTER_BOUND ( 'NONE', #597, .T. ) ;
#987 = ORIENTED_EDGE ( 'NONE', *, *, #472, .T. ) ;
#988 = AXIS2_PLACEMENT_3D ( 'NONE', #1119, #632, #1007 ) ;
#989 = APPLICATION_PROTOCOL_DEFINITION ( 'draft international standard', 'automotive_design', 1998, #432 ) ;
#990 = LINE ( 'NONE', #1184, #583 ) ;
#991 = CARTESIAN_POINT ( 'NONE',  ( -2.775557561562891351E-14, 170.0000000000000000, 0.000000000000000000 ) ) ;
#992 = CARTESIAN_POINT ( 'NONE',  ( 49.99999999999997158, 85.00000000000000000, 1.450000000000006839 ) ) ;
#993 = ORIENTED_EDGE ( 'NONE', *, *, #243, .T. ) ;
#994 = DIRECTION ( 'NONE',  ( 1.632680918566406547E-16, -1.000000000000000000, 0.000000000000000000 ) ) ;
#995 = VECTOR ( 'NONE', #383, 999.9999999999998863 ) ;
#996 = DIRECTION ( 'NONE',  ( -1.000000000000000000, 0.000000000000000000, 0.000000000000000000 ) ) ;
#997 = AXIS2_PLACEMENT_3D ( 'NONE', #112, #17, #826 ) ;
#998 = EDGE_CURVE ( 'NONE', #631, #425, #10, .T. ) ;
#999 = DIRECTION ( 'NONE',  ( 1.000000000000000000, 0.000000000000000000, 0.000000000000000000 ) ) ;
#1000 = ORIENTED_EDGE ( 'NONE', *, *, #730, .F. ) ;
#1001 = EDGE_CURVE ( 'NONE', #272, #498, #222, .T. ) ;
#1002 = MECHANICAL_DESIGN_GEOMETRIC_PRESENTATION_REPRESENTATION (  '', ( #111 ), #56 ) ;
#1003 = ADVANCED_FACE ( 'NONE', ( #208 ), #779, .F. ) ;
#1004 = CARTESIAN_POINT ( 'NONE',  ( 95.00000000000000000, 5.000000000000000000, 0.000000000000000000 ) ) ;
#1005 = CARTESIAN_POINT ( 'NONE',  ( 51.69999999999996021, 85.00000000000000000, 0.000000000000000000 ) ) ;
#1006 = ORIENTED_EDGE ( 'NONE', *, *, #474, .T. ) ;
#1007 = DIRECTION ( 'NONE',  ( -1.000000000000000000, 0.000000000000000000, 0.000000000000000000 ) ) ;
#1008 = AXIS2_PLACEMENT_3D ( 'NONE', #241, #881, #609 ) ;
#1009 = CARTESIAN_POINT ( 'NONE',  ( 94.99999999999997158, 170.0000000000000000, 0.000000000000000000 ) ) ;
#1010 = AXIS2_PLACEMENT_3D ( 'NONE', #701, #74, #446 ) ;
#1011 = DIRECTION ( 'NONE',  ( 0.000000000000000000, 0.000000000000000000, -1.000000000000000000 ) ) ;
#1012 = ORIENTED_EDGE ( 'NONE', *, *, #1156, .F. ) ;
#1013 = ORIENTED_EDGE ( 'NONE', *, *, #1054, .F. ) ;
#1014 = EDGE_CURVE ( 'NONE', #1104, #576, #1172, .T. ) ;
#1015 = AXIS2_PLACEMENT_3D ( 'NONE', #274, #188, #926 ) ;
#1016 = CARTESIAN_POINT ( 'NONE',  ( 93.30000000000001137, 165.0000000000000284, 0.000000000000000000 ) ) ;
#1017 = CYLINDRICAL_SURFACE ( 'NONE', #922, 1.699999999999993072 ) ;
#1018 = VERTEX_POINT ( 'NONE', #1049 ) ;
#1019 = VERTEX_POINT ( 'NONE', #592 ) ;
#1020 = CARTESIAN_POINT ( 'NONE',  ( 99.99999999999997158, 165.0000000000000000, 3.000000000000000000 ) ) ;
#1021 = CIRCLE ( 'NONE', #707, 1.699999999999998401 ) ;
#1022 = SURFACE_SIDE_STYLE ('',( #350 ) ) ;
#1023 = ORIENTED_EDGE ( 'NONE', *, *, #910, .F. ) ;
#1024 = ORIENTED_EDGE ( 'NONE', *, *, #1047, .T. ) ;
#1025 = CARTESIAN_POINT ( 'NONE',  ( -2.775557561562891351E-14, 170.0000000000000000, 3.000000000000000000 ) ) ;
#1026 = EDGE_CURVE ( 'NONE', #547, #770, #310, .T. ) ;
#1027 = CARTESIAN_POINT ( 'NONE',  ( 49.99999999999997158, 85.00000000000000000, 0.000000000000000000 ) ) ;
#1028 = ORIENTED_EDGE ( 'NONE', *, *, #206, .F. ) ;
#1029 = EDGE_LOOP ( 'NONE', ( #722, #1192, #740, #635 ) ) ;
#1030 = LINE ( 'NONE', #833, #1048 ) ;
#1031 = AXIS2_PLACEMENT_3D ( 'NONE', #367, #89, #840 ) ;
#1032 = EDGE_CURVE ( 'NONE', #1146, #924, #1036, .T. ) ;
#1033 = FACE_OUTER_BOUND ( 'NONE', #436, .T. ) ;
#1034 = EDGE_LOOP ( 'NONE', ( #864, #933, #341, #812 ) ) ;
#1035 = CARTESIAN_POINT ( 'NONE',  ( 8.149999999999973710, 165.0000000000000000, 3.000000000000001776 ) ) ;
#1036 = LINE ( 'NONE', #401, #240 ) ;
#1037 = VECTOR ( 'NONE', #12, 1000.000000000000000 ) ;
#1038 = DIRECTION ( 'NONE',  ( -0.000000000000000000, -0.000000000000000000, 1.000000000000000000 ) ) ;
#1039 = ORIENTED_EDGE ( 'NONE', *, *, #441, .F. ) ;
#1040 = PLANE ( 'NONE',  #1127 ) ;
#1041 = DIRECTION ( 'NONE',  ( -1.000000000000000000, 0.000000000000000000, 0.000000000000000000 ) ) ;
#1042 = AXIS2_PLACEMENT_3D ( 'NONE', #1045, #940, #202 ) ;
#1043 = FACE_BOUND ( 'NONE', #479, .T. ) ;
#1044 = ORIENTED_EDGE ( 'NONE', *, *, #31, .T. ) ;
#1045 = CARTESIAN_POINT ( 'NONE',  ( 4.999999999999999112, 5.000000000000000000, 3.000000000000000000 ) ) ;
#1046 = AXIS2_PLACEMENT_3D ( 'NONE', #591, #1153, #293 ) ;
#1047 = EDGE_CURVE ( 'NONE', #249, #103, #835, .T. ) ;
#1048 = VECTOR ( 'NONE', #360, 1000.000000000000000 ) ;
#1049 = CARTESIAN_POINT ( 'NONE',  ( -2.693923515634571110E-14, 165.0000000000000000, 0.000000000000000000 ) ) ;
#1050 = DIRECTION ( 'NONE',  ( -0.000000000000000000, -0.000000000000000000, -1.000000000000000000 ) ) ;
#1051 = EDGE_LOOP ( 'NONE', ( #263, #514, #1114, #1152 ) ) ;
#1052 = DIRECTION ( 'NONE',  ( -1.000000000000000000, 0.000000000000000000, 0.000000000000000000 ) ) ;
#1053 = ORIENTED_EDGE ( 'NONE', *, *, #223, .F. ) ;
#1054 = EDGE_CURVE ( 'NONE', #770, #135, #1143, .T. ) ;
#1055 = AXIS2_PLACEMENT_3D ( 'NONE', #495, #866, #286 ) ;
#1056 = LINE ( 'NONE', #957, #215 ) ;
#1057 = PRODUCT ( 'UNIVERSAL-MAIN-BASE-v001', 'UNIVERSAL-MAIN-BASE-v001', '', ( #1090 ) ) ;
#1058 = DIRECTION ( 'NONE',  ( -1.000000000000000000, 0.000000000000000000, 0.000000000000000000 ) ) ;
#1059 = VERTEX_POINT ( 'NONE', #214 ) ;
#1060 = VECTOR ( 'NONE', #1038, 1000.000000000000000 ) ;
#1061 = LINE ( 'NONE', #226, #656 ) ;
#1062 = ORIENTED_EDGE ( 'NONE', *, *, #1026, .F. ) ;
#1063 = DIRECTION ( 'NONE',  ( -0.000000000000000000, -0.000000000000000000, 1.000000000000000000 ) ) ;
#1064 = CARTESIAN_POINT ( 'NONE',  ( 94.99999999999997158, 170.0000000000000000, 3.000000000000000000 ) ) ;
#1065 = EDGE_CURVE ( 'NONE', #276, #528, #878, .T. ) ;
#1066 = EDGE_LOOP ( 'NONE', ( #196, #308, #170, #294 ) ) ;
#1067 = LINE ( 'NONE', #442, #1037 ) ;
#1068 = ORIENTED_EDGE ( 'NONE', *, *, #228, .F. ) ;
#1069 = CLOSED_SHELL ( 'NONE', ( #45, #726, #18, #568, #947, #689, #153, #1177, #636, #285, #403, #526, #277, #718, #1128, #201, #1166, #872, #858, #566, #437, #561, #255, #920, #1080, #900, #965, #616, #683, #650, #168, #594, #1003, #297, #549, #192, #489, #68 ) ) ;
#1070 = AXIS2_PLACEMENT_3D ( 'NONE', #377, #197, #564 ) ;
#1071 = CARTESIAN_POINT ( 'NONE',  ( 0.000000000000000000, 0.000000000000000000, 0.000000000000000000 ) ) ;
#1072 = VECTOR ( 'NONE', #978, 1000.000000000000000 ) ;
#1073 = CARTESIAN_POINT ( 'NONE',  ( -2.693923515634571110E-14, 165.0000000000000000, 3.000000000000000000 ) ) ;
#1074 = EDGE_CURVE ( 'NONE', #895, #1102, #642, .T. ) ;
#1075 = LINE ( 'NONE', #506, #863 ) ;
#1076 = EDGE_LOOP ( 'NONE', ( #680, #843, #913, #185 ) ) ;
#1077 = AXIS2_PLACEMENT_3D ( 'NONE', #290, #488, #859 ) ;
#1078 = CARTESIAN_POINT ( 'NONE',  ( 53.14999999999997726, 85.00000000000000000, -1.734723475976807883E-15 ) ) ;
#1079 = CARTESIAN_POINT ( 'NONE',  ( 1.849999999999992317, 5.000000000000004441, 3.000000000000001776 ) ) ;
#1080 = ADVANCED_FACE ( 'NONE', ( #581 ), #670, .F. ) ;
#1081 = FACE_OUTER_BOUND ( 'NONE', #1183, .T. ) ;
#1082 = CARTESIAN_POINT ( 'NONE',  ( 4.999999999999973355, 170.0000000000000000, 3.000000000000000000 ) ) ;
#1083 = VERTEX_POINT ( 'NONE', #1136 ) ;
#1084 = CONICAL_SURFACE ( 'NONE', #841, 3.149999999999999911, 0.7853981633974500554 ) ;
#1085 = DIRECTION ( 'NONE',  ( -0.000000000000000000, -0.000000000000000000, 1.000000000000000000 ) ) ;
#1086 = DIRECTION ( 'NONE',  ( -0.000000000000000000, -0.000000000000000000, 1.000000000000000000 ) ) ;
#1087 = DIRECTION ( 'NONE',  ( 0.7071067811865473507, 0.000000000000000000, 0.7071067811865477948 ) ) ;
#1088 = ORIENTED_EDGE ( 'NONE', *, *, #352, .F. ) ;
#1089 = AXIS2_PLACEMENT_3D ( 'NONE', #259, #159, #983 ) ;
#1090 = PRODUCT_CONTEXT ( 'NONE', #908, 'mechanical' ) ;
#1091 = EDGE_CURVE ( 'NONE', #1164, #1059, #429, .T. ) ;
#1092 = FACE_BOUND ( 'NONE', #322, .T. ) ;
#1093 = AXIS2_PLACEMENT_3D ( 'NONE', #48, #972, #409 ) ;
#1094 = DIRECTION ( 'NONE',  ( -1.000000000000000000, 0.000000000000000000, 0.000000000000000000 ) ) ;
#1095 = EDGE_LOOP ( 'NONE', ( #235, #825, #1088, #253 ) ) ;
#1096 = EDGE_CURVE ( 'NONE', #1122, #1193, #971, .T. ) ;
#1097 = EDGE_CURVE ( 'NONE', #831, #410, #389, .T. ) ;
#1098 = DIRECTION ( 'NONE',  ( -1.632680918566406547E-16, 1.000000000000000000, 0.000000000000000000 ) ) ;
#1099 = DIRECTION ( 'NONE',  ( -0.000000000000000000, -0.000000000000000000, -1.000000000000000000 ) ) ;
#1100 = CIRCLE ( 'NONE', #1190, 5.000000000000004441 ) ;
#1101 = CARTESIAN_POINT ( 'NONE',  ( 94.99999999999997158, 165.0000000000000000, 0.000000000000000000 ) ) ;
#1102 = VERTEX_POINT ( 'NONE', #36 ) ;
#1103 = CIRCLE ( 'NONE', #721, 5.000000000000000000 ) ;
#1104 = VERTEX_POINT ( 'NONE', #706 ) ;
#1105 = CONICAL_SURFACE ( 'NONE', #37, 3.149999999999999911, 0.7853981633974480570 ) ;
#1106 = DIRECTION ( 'NONE',  ( 0.000000000000000000, -0.000000000000000000, -1.000000000000000000 ) ) ;
#1107 = EDGE_CURVE ( 'NONE', #1083, #91, #530, .T. ) ;
#1108 = EDGE_LOOP ( 'NONE', ( #648, #262, #1000, #44, #191, #764, #346, #464 ) ) ;
#1109 = ORIENTED_EDGE ( 'NONE', *, *, #1074, .T. ) ;
#1110 = DIRECTION ( 'NONE',  ( -0.000000000000000000, -0.000000000000000000, 1.000000000000000000 ) ) ;
#1111 = CIRCLE ( 'NONE', #424, 1.699999999999993516 ) ;
#1112 = VECTOR ( 'NONE', #794, 1000.000000000000000 ) ;
#1113 = EDGE_LOOP ( 'NONE', ( #665, #175, #993, #42, #496, #929, #58, #691 ) ) ;
#1114 = ORIENTED_EDGE ( 'NONE', *, *, #440, .F. ) ;
#1115 = VECTOR ( 'NONE', #699, 1000.000000000000000 ) ;
#1116 = CYLINDRICAL_SURFACE ( 'NONE', #1015, 1.699999999999993960 ) ;
#1117 = FACE_OUTER_BOUND ( 'NONE', #600, .T. ) ;
#1118 = ORIENTED_EDGE ( 'NONE', *, *, #641, .T. ) ;
#1119 = CARTESIAN_POINT ( 'NONE',  ( 49.99999999999997158, 35.00000000000000000, 3.000000000000000000 ) ) ;
#1120 = DIRECTION ( 'NONE',  ( -0.000000000000000000, -0.000000000000000000, 1.000000000000000000 ) ) ;
#1121 = CYLINDRICAL_SURFACE ( 'NONE', #171, 1.699999999999986189 ) ;
#1122 = VERTEX_POINT ( 'NONE', #420 ) ;
#1123 = ORIENTED_EDGE ( 'NONE', *, *, #21, .T. ) ;
#1124 = LINE ( 'NONE', #931, #995 ) ;
#1125 = CARTESIAN_POINT ( 'NONE',  ( 93.30000000000001137, 165.0000000000000284, 3.000000000000000000 ) ) ;
#1126 = ORIENTED_EDGE ( 'NONE', *, *, #828, .T. ) ;
#1127 = AXIS2_PLACEMENT_3D ( 'NONE', #572, #205, #686 ) ;
#1128 = ADVANCED_FACE ( 'NONE', ( #244 ), #522, .F. ) ;
#1129 = DIRECTION ( 'NONE',  ( -1.000000000000000000, 0.000000000000000000, 0.000000000000000000 ) ) ;
#1130 = PRODUCT_RELATED_PRODUCT_CATEGORY ( 'part', '', ( #1057 ) ) ;
#1131 = CONICAL_SURFACE ( 'NONE', #143, 3.149999999999999911, 0.7853981633974498333 ) ;
#1132 = CYLINDRICAL_SURFACE ( 'NONE', #414, 1.699999999999993072 ) ;
#1133 = ORIENTED_EDGE ( 'NONE', *, *, #874, .F. ) ;
#1134 = CYLINDRICAL_SURFACE ( 'NONE', #1042, 5.000000000000000000 ) ;
#1135 = EDGE_LOOP ( 'NONE', ( #445, #336, #62, #353 ) ) ;
#1136 = CARTESIAN_POINT ( 'NONE',  ( 51.69999999999996021, 85.00000000000000000, 1.450000000000006839 ) ) ;
#1137 = AXIS2_PLACEMENT_3D ( 'NONE', #620, #807, #411 ) ;
#1138 = DIRECTION ( 'NONE',  ( 1.000000000000000000, 0.000000000000000000, 0.000000000000000000 ) ) ;
#1139 = ORIENTED_EDGE ( 'NONE', *, *, #542, .F. ) ;
#1140 = EDGE_CURVE ( 'NONE', #1160, #669, #181, .T. ) ;
#1141 = DIRECTION ( 'NONE',  ( -1.000000000000000000, 0.000000000000000000, 0.000000000000000000 ) ) ;
#1142 = ORIENTED_EDGE ( 'NONE', *, *, #778, .F. ) ;
#1143 = LINE ( 'NONE', #773, #289 ) ;
#1144 = CIRCLE ( 'NONE', #1070, 3.149999999999999911 ) ;
#1145 = CARTESIAN_POINT ( 'NONE',  ( 3.299999999999973177, 165.0000000000000000, 1.549999999999999378 ) ) ;
#1146 = VERTEX_POINT ( 'NONE', #415 ) ;
#1147 = CARTESIAN_POINT ( 'NONE',  ( 4.999999999999972466, 165.0000000000000000, 3.000000000000001776 ) ) ;
#1148 = ORIENTED_EDGE ( 'NONE', *, *, #666, .T. ) ;
#1149 = AXIS2_PLACEMENT_3D ( 'NONE', #523, #250, #996 ) ;
#1150 = DIRECTION ( 'NONE',  ( -0.000000000000000000, -0.000000000000000000, 1.000000000000000000 ) ) ;
#1151 = DIRECTION ( 'NONE',  ( -0.000000000000000000, -0.000000000000000000, 1.000000000000000000 ) ) ;
#1152 = ORIENTED_EDGE ( 'NONE', *, *, #654, .F. ) ;
#1153 = DIRECTION ( 'NONE',  ( -0.000000000000000000, -0.000000000000000000, -1.000000000000000000 ) ) ;
#1154 = ORIENTED_EDGE ( 'NONE', *, *, #117, .F. ) ;
#1155 = CARTESIAN_POINT ( 'NONE',  ( 4.999999999999999112, 5.000000000000000000, 0.000000000000000000 ) ) ;
#1156 = EDGE_CURVE ( 'NONE', #760, #728, #402, .T. ) ;
#1157 = FACE_OUTER_BOUND ( 'NONE', #180, .T. ) ;
#1158 = EDGE_LOOP ( 'NONE', ( #225, #132, #227, #1013 ) ) ;
#1159 = DIRECTION ( 'NONE',  ( 1.000000000000000000, 0.000000000000000000, 0.000000000000000000 ) ) ;
#1160 = VERTEX_POINT ( 'NONE', #152 ) ;
#1161 = PLANE ( 'NONE',  #579 ) ;
#1162 = CYLINDRICAL_SURFACE ( 'NONE', #797, 5.000000000000004441 ) ;
#1163 = DIRECTION ( 'NONE',  ( -1.000000000000000000, 0.000000000000000000, 0.000000000000000000 ) ) ;
#1164 = VERTEX_POINT ( 'NONE', #903 ) ;
#1165 = CARTESIAN_POINT ( 'NONE',  ( 4.999999999999972466, 165.0000000000000000, 3.000000000000000000 ) ) ;
#1166 = ADVANCED_FACE ( 'NONE', ( #611 ), #1161, .F. ) ;
#1167 = CIRCLE ( 'NONE', #997, 1.699999999999986189 ) ;
#1168 = CARTESIAN_POINT ( 'NONE',  ( 95.00000000000000000, 165.0000000000000284, 0.000000000000000000 ) ) ;
#1169 = DIRECTION ( 'NONE',  ( 0.000000000000000000, 0.000000000000000000, -1.000000000000000000 ) ) ;
#1170 = DIRECTION ( 'NONE',  ( -1.000000000000000000, 0.000000000000000000, 0.000000000000000000 ) ) ;
#1171 = ORIENTED_EDGE ( 'NONE', *, *, #742, .F. ) ;
#1172 = CIRCLE ( 'NONE', #700, 1.699999999999993072 ) ;
#1173 = DIRECTION ( 'NONE',  ( 0.000000000000000000, 0.000000000000000000, -1.000000000000000000 ) ) ;
#1174 = DIRECTION ( 'NONE',  ( 0.000000000000000000, 0.000000000000000000, -1.000000000000000000 ) ) ;
#1175 = CARTESIAN_POINT ( 'NONE',  ( 53.14999999999997726, 35.00000000000000000, -1.734723475976807883E-15 ) ) ;
#1176 = EDGE_LOOP ( 'NONE', ( #655, #39, #782, #870 ) ) ;
#1177 = ADVANCED_FACE ( 'NONE', ( #604 ), #626, .F. ) ;
#1178 = AXIS2_PLACEMENT_3D ( 'NONE', #556, #101, #860 ) ;
#1179 = DIRECTION ( 'NONE',  ( -0.000000000000000000, -0.000000000000000000, 1.000000000000000000 ) ) ;
#1180 = FACE_BOUND ( 'NONE', #919, .T. ) ;
#1181 = EDGE_CURVE ( 'NONE', #1193, #1146, #4, .T. ) ;
#1182 = DIRECTION ( 'NONE',  ( 0.000000000000000000, 0.000000000000000000, -1.000000000000000000 ) ) ;
#1183 = EDGE_LOOP ( 'NONE', ( #204, #81, #585, #1062 ) ) ;
#1184 = CARTESIAN_POINT ( 'NONE',  ( 99.99999999999997158, 165.0000000000000000, 3.000000000000000000 ) ) ;
#1185 = ORIENTED_EDGE ( 'NONE', *, *, #963, .T. ) ;
#1186 = EDGE_LOOP ( 'NONE', ( #449, #443, #981, #365 ) ) ;
#1187 = AXIS2_PLACEMENT_3D ( 'NONE', #598, #682, #943 ) ;
#1188 = EDGE_CURVE ( 'NONE', #895, #249, #536, .T. ) ;
#1189 = LINE ( 'NONE', #238, #1112 ) ;
#1190 = AXIS2_PLACEMENT_3D ( 'NONE', #209, #953, #589 ) ;
#1191 = DIRECTION ( 'NONE',  ( 1.000000000000000000, 0.000000000000000000, 0.000000000000000000 ) ) ;
#1192 = ORIENTED_EDGE ( 'NONE', *, *, #934, .T. ) ;
#1193 = VERTEX_POINT ( 'NONE', #64 ) ;
#1194 = VECTOR ( 'NONE', #710, 1000.000000000000000 ) ;
#1195 = CARTESIAN_POINT ( 'NONE',  ( 53.14999999999998437, 135.0000000000000000, -1.734723475976807883E-15 ) ) ;
ENDSEC;
END-ISO-10303-21;
