ISO-10303-21;
HEADER;
FILE_DESCRIPTION (( 'STEP AP214' ),
    '1' );
FILE_NAME ('UNIVERSAL-MAIN-COVER-v001.STEP',
    '2026-01-27T00:16:42',
    ( '' ),
    ( '' ),
    'SwSTEP 2.0',
    'SolidWorks 2023',
    '' );
FILE_SCHEMA (( 'AUTOMOTIVE_DESIGN' ));
ENDSEC;

DATA;
#1 = AXIS2_PLACEMENT_3D ( 'NONE', #1096, #233, #248 ) ;
#2 = ORIENTED_EDGE ( 'NONE', *, *, #1073, .T. ) ;
#3 = ORIENTED_EDGE ( 'NONE', *, *, #254, .T. ) ;
#4 = EDGE_CURVE ( 'NONE', #760, #992, #120, .T. ) ;
#5 = CARTESIAN_POINT ( 'NONE',  ( 53.14999999999996305, 5.000000000000000000, 3.000000000000001776 ) ) ;
#6 = ORIENTED_EDGE ( 'NONE', *, *, #394, .T. ) ;
#7 = ORIENTED_EDGE ( 'NONE', *, *, #148, .T. ) ;
#8 = ORIENTED_EDGE ( 'NONE', *, *, #271, .F. ) ;
#9 = CARTESIAN_POINT ( 'NONE',  ( 4.999999999999983125, 85.00000000000000000, 3.000000000000000000 ) ) ;
#10 = EDGE_CURVE ( 'NONE', #859, #422, #285, .T. ) ;
#11 = CARTESIAN_POINT ( 'NONE',  ( 99.99999999999997158, 165.0000000000000000, 0.000000000000000000 ) ) ;
#12 = DIRECTION ( 'NONE',  ( -0.000000000000000000, -0.000000000000000000, 1.000000000000000000 ) ) ;
#13 = ORIENTED_EDGE ( 'NONE', *, *, #172, .T. ) ;
#14 = DIRECTION ( 'NONE',  ( -0.000000000000000000, -0.000000000000000000, 1.000000000000000000 ) ) ;
#15 = DIRECTION ( 'NONE',  ( 0.000000000000000000, -0.000000000000000000, -1.000000000000000000 ) ) ;
#16 = FACE_OUTER_BOUND ( 'NONE', #736, .T. ) ;
#17 = CARTESIAN_POINT ( 'NONE',  ( 94.99999999999997158, 165.0000000000000000, 0.000000000000000000 ) ) ;
#18 = AXIS2_PLACEMENT_3D ( 'NONE', #520, #604, #1007 ) ;
#19 = CIRCLE ( 'NONE', #933, 5.000000000000004441 ) ;
#20 = FILL_AREA_STYLE_COLOUR ( '', #462 ) ;
#21 = ORIENTED_EDGE ( 'NONE', *, *, #748, .T. ) ;
#22 = AXIS2_PLACEMENT_3D ( 'NONE', #733, #209, #724 ) ;
#23 = FACE_BOUND ( 'NONE', #745, .T. ) ;
#24 = LINE ( 'NONE', #470, #430 ) ;
#25 = CARTESIAN_POINT ( 'NONE',  ( 4.999999999999973355, 165.0000000000000000, 3.000000000000000000 ) ) ;
#26 = ORIENTED_EDGE ( 'NONE', *, *, #688, .F. ) ;
#27 = FACE_OUTER_BOUND ( 'NONE', #766, .T. ) ;
#28 =( LENGTH_UNIT ( ) NAMED_UNIT ( * ) SI_UNIT ( .MILLI., .METRE. ) );
#29 = EDGE_CURVE ( 'NONE', #580, #945, #540, .T. ) ;
#30 = CARTESIAN_POINT ( 'NONE',  ( 51.69999999999994600, 165.0000000000000000, 1.549999999999993161 ) ) ;
#31 = CARTESIAN_POINT ( 'NONE',  ( 91.84999999999999432, 85.00000000000000000, 3.000000000000001776 ) ) ;
#32 = VERTEX_POINT ( 'NONE', #810 ) ;
#33 = EDGE_CURVE ( 'NONE', #143, #288, #521, .T. ) ;
#34 = DIRECTION ( 'NONE',  ( -1.000000000000000000, 0.000000000000000000, 0.000000000000000000 ) ) ;
#35 = DIRECTION ( 'NONE',  ( -1.000000000000000000, 0.000000000000000000, -0.000000000000000000 ) ) ;
#36 = DIRECTION ( 'NONE',  ( -0.000000000000000000, -0.000000000000000000, 1.000000000000000000 ) ) ;
#37 = CARTESIAN_POINT ( 'NONE',  ( 95.00000000000000000, 0.000000000000000000, 3.000000000000000000 ) ) ;
#38 = PRESENTATION_STYLE_ASSIGNMENT (( #654 ) ) ;
#39 = CIRCLE ( 'NONE', #371, 1.699999999999987965 ) ;
#40 = VERTEX_POINT ( 'NONE', #720 ) ;
#41 = AXIS2_PLACEMENT_3D ( 'NONE', #51, #150, #911 ) ;
#42 = ORIENTED_EDGE ( 'NONE', *, *, #525, .F. ) ;
#43 = CARTESIAN_POINT ( 'NONE',  ( 4.999999999999973355, 170.0000000000000000, 3.000000000000000000 ) ) ;
#44 = CARTESIAN_POINT ( 'NONE',  ( 91.84999999999999432, 85.00000000000000000, 3.000000000000001776 ) ) ;
#45 = AXIS2_PLACEMENT_3D ( 'NONE', #337, #1015, #679 ) ;
#46 = FACE_OUTER_BOUND ( 'NONE', #877, .T. ) ;
#47 = DIRECTION ( 'NONE',  ( 0.000000000000000000, 0.000000000000000000, -1.000000000000000000 ) ) ;
#48 = CARTESIAN_POINT ( 'NONE',  ( 4.999999999999983125, 85.00000000000000000, 3.000000000000001776 ) ) ;
#49 = ORIENTED_EDGE ( 'NONE', *, *, #434, .T. ) ;
#50 = ORIENTED_EDGE ( 'NONE', *, *, #394, .F. ) ;
#51 = CARTESIAN_POINT ( 'NONE',  ( 49.99999999999996447, 165.0000000000000000, 3.000000000000001776 ) ) ;
#52 = DIRECTION ( 'NONE',  ( -0.000000000000000000, -0.000000000000000000, 1.000000000000000000 ) ) ;
#53 = EDGE_CURVE ( 'NONE', #231, #692, #200, .T. ) ;
#54 = VERTEX_POINT ( 'NONE', #31 ) ;
#55 = VERTEX_POINT ( 'NONE', #636 ) ;
#56 = DIRECTION ( 'NONE',  ( -0.000000000000000000, -0.000000000000000000, 1.000000000000000000 ) ) ;
#57 =( NAMED_UNIT ( * ) PLANE_ANGLE_UNIT ( ) SI_UNIT ( $, .RADIAN. ) );
#58 = LINE ( 'NONE', #72, #487 ) ;
#59 = EDGE_CURVE ( 'NONE', #431, #436, #113, .T. ) ;
#60 = EDGE_CURVE ( 'NONE', #269, #860, #909, .T. ) ;
#61 = EDGE_LOOP ( 'NONE', ( #1088, #882 ) ) ;
#62 = DIRECTION ( 'NONE',  ( 1.000000000000000000, 0.000000000000000000, 0.000000000000000000 ) ) ;
#63 = AXIS2_PLACEMENT_3D ( 'NONE', #896, #1078, #1058 ) ;
#64 = VECTOR ( 'NONE', #863, 1000.000000000000000 ) ;
#65 = AXIS2_PLACEMENT_3D ( 'NONE', #101, #453, #334 ) ;
#66 = CARTESIAN_POINT ( 'NONE',  ( 0.000000000000000000, 0.000000000000000000, 0.000000000000000000 ) ) ;
#67 = VERTEX_POINT ( 'NONE', #551 ) ;
#68 = DIRECTION ( 'NONE',  ( -1.000000000000000000, 0.000000000000000000, 0.000000000000000000 ) ) ;
#69 = DIRECTION ( 'NONE',  ( -0.000000000000000000, -0.000000000000000000, 1.000000000000000000 ) ) ;
#70 = EDGE_CURVE ( 'NONE', #940, #992, #429, .T. ) ;
#71 = DIRECTION ( 'NONE',  ( -0.000000000000000000, -0.000000000000000000, 1.000000000000000000 ) ) ;
#72 = CARTESIAN_POINT ( 'NONE',  ( 46.84999999999995879, 5.000000000000000000, 3.000000000000001776 ) ) ;
#73 = ORIENTED_EDGE ( 'NONE', *, *, #666, .T. ) ;
#74 = PLANE ( 'NONE',  #65 ) ;
#75 = ORIENTED_EDGE ( 'NONE', *, *, #678, .F. ) ;
#76 = ADVANCED_FACE ( 'NONE', ( #459 ), #985, .T. ) ;
#77 = CARTESIAN_POINT ( 'NONE',  ( 4.999999999999983125, 85.00000000000000000, 0.000000000000000000 ) ) ;
#78 = EDGE_LOOP ( 'NONE', ( #460, #659, #917, #792 ) ) ;
#79 = AXIS2_PLACEMENT_3D ( 'NONE', #1093, #332, #770 ) ;
#80 = VECTOR ( 'NONE', #176, 1000.000000000000000 ) ;
#81 = CIRCLE ( 'NONE', #697, 1.699999999999998401 ) ;
#82 = EDGE_CURVE ( 'NONE', #940, #86, #184, .T. ) ;
#83 = VERTEX_POINT ( 'NONE', #210 ) ;
#84 = EDGE_CURVE ( 'NONE', #823, #993, #1044, .T. ) ;
#85 = EDGE_LOOP ( 'NONE', ( #857, #114 ) ) ;
#86 = VERTEX_POINT ( 'NONE', #630 ) ;
#87 = CARTESIAN_POINT ( 'NONE',  ( 46.84999999999995879, 165.0000000000000000, 3.000000000000001776 ) ) ;
#88 = EDGE_CURVE ( 'NONE', #903, #83, #816, .T. ) ;
#89 = EDGE_LOOP ( 'NONE', ( #1049, #441, #530, #21 ) ) ;
#90 = ORIENTED_EDGE ( 'NONE', *, *, #968, .T. ) ;
#91 = DIRECTION ( 'NONE',  ( 1.000000000000000000, 0.000000000000000000, 0.000000000000000000 ) ) ;
#92 = CONICAL_SURFACE ( 'NONE', #1117, 3.149999999999999911, 0.7853981633974500554 ) ;
#93 = AXIS2_PLACEMENT_3D ( 'NONE', #999, #56, #1009 ) ;
#94 = DIRECTION ( 'NONE',  ( -0.000000000000000000, -0.000000000000000000, 1.000000000000000000 ) ) ;
#95 = CONICAL_SURFACE ( 'NONE', #557, 3.149999999999999911, 0.7853981633974477239 ) ;
#96 = AXIS2_PLACEMENT_3D ( 'NONE', #243, #539, #161 ) ;
#97 = EDGE_LOOP ( 'NONE', ( #170, #902, #357, #684 ) ) ;
#98 = EDGE_LOOP ( 'NONE', ( #777, #898, #405, #497 ) ) ;
#99 = EDGE_CURVE ( 'NONE', #553, #870, #1048, .T. ) ;
#100 = DIRECTION ( 'NONE',  ( 1.000000000000000000, 0.000000000000000000, 0.000000000000000000 ) ) ;
#101 = CARTESIAN_POINT ( 'NONE',  ( 0.000000000000000000, 0.000000000000000000, 3.000000000000000000 ) ) ;
#102 = ORIENTED_EDGE ( 'NONE', *, *, #59, .F. ) ;
#103 = FACE_BOUND ( 'NONE', #829, .T. ) ;
#104 = DIRECTION ( 'NONE',  ( -0.000000000000000000, -0.000000000000000000, 1.000000000000000000 ) ) ;
#105 = CARTESIAN_POINT ( 'NONE',  ( 4.999999999999983125, 85.00000000000000000, 3.000000000000001776 ) ) ;
#106 = ORIENTED_EDGE ( 'NONE', *, *, #880, .T. ) ;
#107 = DIRECTION ( 'NONE',  ( -0.000000000000000000, -0.000000000000000000, 1.000000000000000000 ) ) ;
#108 =( NAMED_UNIT ( * ) PLANE_ANGLE_UNIT ( ) SI_UNIT ( $, .RADIAN. ) );
#109 = DIRECTION ( 'NONE',  ( -0.000000000000000000, -0.000000000000000000, 1.000000000000000000 ) ) ;
#110 = CARTESIAN_POINT ( 'NONE',  ( 95.00000000000000000, 165.0000000000000284, 3.000000000000000000 ) ) ;
#111 = CIRCLE ( 'NONE', #355, 1.699999999999987965 ) ;
#112 = CARTESIAN_POINT ( 'NONE',  ( 95.00000000000000000, 85.00000000000000000, 3.000000000000000000 ) ) ;
#113 = LINE ( 'NONE', #303, #727 ) ;
#114 = ORIENTED_EDGE ( 'NONE', *, *, #325, .F. ) ;
#115 = CIRCLE ( 'NONE', #22, 1.699999999999986189 ) ;
#116 = CARTESIAN_POINT ( 'NONE',  ( 0.000000000000000000, 0.000000000000000000, 0.000000000000000000 ) ) ;
#117 = FACE_OUTER_BOUND ( 'NONE', #955, .T. ) ;
#118 = DIRECTION ( 'NONE',  ( 1.000000000000000000, 0.000000000000000000, 0.000000000000000000 ) ) ;
#119 = EDGE_CURVE ( 'NONE', #316, #86, #928, .T. ) ;
#120 = LINE ( 'NONE', #888, #369 ) ;
#121 = EDGE_LOOP ( 'NONE', ( #274, #749, #455, #631 ) ) ;
#122 = MANIFOLD_SOLID_BREP ( 'CSK for M3 Flat Head Machine Screw1', #768 ) ;
#123 = FACE_BOUND ( 'NONE', #335, .T. ) ;
#124 = DIRECTION ( 'NONE',  ( 0.000000000000000000, 0.000000000000000000, -1.000000000000000000 ) ) ;
#125 = DIRECTION ( 'NONE',  ( 1.000000000000000000, 0.000000000000000000, 0.000000000000000000 ) ) ;
#126 = CARTESIAN_POINT ( 'NONE',  ( 3.299999999999994937, 85.00000000000000000, 1.549999999999993161 ) ) ;
#127 = DIRECTION ( 'NONE',  ( -1.000000000000000000, 0.000000000000000000, 0.000000000000000000 ) ) ;
#128 = EDGE_LOOP ( 'NONE', ( #614, #935, #235, #268 ) ) ;
#129 = PLANE ( 'NONE',  #821 ) ;
#130 = LINE ( 'NONE', #44, #1001 ) ;
#131 = FACE_OUTER_BOUND ( 'NONE', #408, .T. ) ;
#132 = CARTESIAN_POINT ( 'NONE',  ( 46.84999999999995879, 5.000000000000000000, 3.000000000000001776 ) ) ;
#133 = AXIS2_PLACEMENT_3D ( 'NONE', #251, #855, #420 ) ;
#134 = ORIENTED_EDGE ( 'NONE', *, *, #159, .F. ) ;
#135 = AXIS2_PLACEMENT_3D ( 'NONE', #1077, #671, #68 ) ;
#136 = ORIENTED_EDGE ( 'NONE', *, *, #589, .T. ) ;
#137 = CARTESIAN_POINT ( 'NONE',  ( 98.15000000000000568, 85.00000000000000000, 3.000000000000001776 ) ) ;
#138 = CIRCLE ( 'NONE', #228, 3.150000000000000799 ) ;
#139 = ADVANCED_FACE ( 'NONE', ( #983 ), #442, .F. ) ;
#140 = CARTESIAN_POINT ( 'NONE',  ( 4.999999999999999112, 5.000000000000000000, 3.000000000000000000 ) ) ;
#141 =( LENGTH_UNIT ( ) NAMED_UNIT ( * ) SI_UNIT ( .MILLI., .METRE. ) );
#142 = ORIENTED_EDGE ( 'NONE', *, *, #374, .F. ) ;
#143 = VERTEX_POINT ( 'NONE', #652 ) ;
#144 = DIRECTION ( 'NONE',  ( 0.000000000000000000, 0.000000000000000000, -1.000000000000000000 ) ) ;
#145 = ADVANCED_FACE ( 'NONE', ( #46 ), #1090, .F. ) ;
#146 = LINE ( 'NONE', #238, #181 ) ;
#147 =( NAMED_UNIT ( * ) SI_UNIT ( $, .STERADIAN. ) SOLID_ANGLE_UNIT ( ) );
#148 = EDGE_CURVE ( 'NONE', #860, #269, #535, .T. ) ;
#149 = ORIENTED_EDGE ( 'NONE', *, *, #148, .F. ) ;
#150 = DIRECTION ( 'NONE',  ( -0.000000000000000000, -0.000000000000000000, 1.000000000000000000 ) ) ;
#151 = CARTESIAN_POINT ( 'NONE',  ( 100.0000000000000000, 0.000000000000000000, 3.000000000000000000 ) ) ;
#152 = ORIENTED_EDGE ( 'NONE', *, *, #858, .T. ) ;
#153 = DIRECTION ( 'NONE',  ( -0.000000000000000000, -0.000000000000000000, 1.000000000000000000 ) ) ;
#154 = EDGE_CURVE ( 'NONE', #67, #553, #24, .T. ) ;
#155 = AXIS2_PLACEMENT_3D ( 'NONE', #875, #761, #173 ) ;
#156 = AXIS2_PLACEMENT_3D ( 'NONE', #66, #915, #828 ) ;
#157 = DIRECTION ( 'NONE',  ( 0.000000000000000000, 0.000000000000000000, -1.000000000000000000 ) ) ;
#158 = FACE_OUTER_BOUND ( 'NONE', #196, .T. ) ;
#159 = EDGE_CURVE ( 'NONE', #908, #474, #989, .T. ) ;
#160 = ORIENTED_EDGE ( 'NONE', *, *, #702, .T. ) ;
#161 = DIRECTION ( 'NONE',  ( 1.000000000000000000, 0.000000000000000000, 0.000000000000000000 ) ) ;
#162 = FACE_OUTER_BOUND ( 'NONE', #451, .T. ) ;
#163 = CYLINDRICAL_SURFACE ( 'NONE', #18, 1.699999999999993072 ) ;
#164 = ORIENTED_EDGE ( 'NONE', *, *, #527, .T. ) ;
#165 = ORIENTED_EDGE ( 'NONE', *, *, #702, .F. ) ;
#166 = AXIS2_PLACEMENT_3D ( 'NONE', #140, #400, #657 ) ;
#167 = ADVANCED_FACE ( 'NONE', ( #378 ), #808, .F. ) ;
#168 = CIRCLE ( 'NONE', #731, 1.699999999999986189 ) ;
#169 = CONICAL_SURFACE ( 'NONE', #800, 3.149999999999999911, 0.7853981633974500554 ) ;
#170 = ORIENTED_EDGE ( 'NONE', *, *, #4, .F. ) ;
#171 = ADVANCED_FACE ( 'NONE', ( #463 ), #1105, .F. ) ;
#172 = EDGE_CURVE ( 'NONE', #1024, #908, #39, .T. ) ;
#173 = DIRECTION ( 'NONE',  ( 1.000000000000000000, 0.000000000000000000, 0.000000000000000000 ) ) ;
#174 = EDGE_LOOP ( 'NONE', ( #1031, #160, #526, #592 ) ) ;
#175 = VERTEX_POINT ( 'NONE', #219 ) ;
#176 = DIRECTION ( 'NONE',  ( -0.000000000000000000, 0.000000000000000000, -1.000000000000000000 ) ) ;
#177 = ORIENTED_EDGE ( 'NONE', *, *, #611, .T. ) ;
#178 = ORIENTED_EDGE ( 'NONE', *, *, #789, .F. ) ;
#179 = CARTESIAN_POINT ( 'NONE',  ( 49.99999999999996447, 165.0000000000000000, 3.000000000000000000 ) ) ;
#180 = EDGE_CURVE ( 'NONE', #580, #617, #301, .T. ) ;
#181 = VECTOR ( 'NONE', #931, 1000.000000000000000 ) ;
#182 = AXIS2_PLACEMENT_3D ( 'NONE', #469, #107, #377 ) ;
#183 = CARTESIAN_POINT ( 'NONE',  ( 49.99999999999996447, 5.000000000000000000, 3.000000000000001776 ) ) ;
#184 = LINE ( 'NONE', #473, #506 ) ;
#185 = VERTEX_POINT ( 'NONE', #715 ) ;
#186 = CARTESIAN_POINT ( 'NONE',  ( 4.999999999999992006, 5.000000000000004441, 3.000000000000000000 ) ) ;
#187 = CARTESIAN_POINT ( 'NONE',  ( 8.149999999999984368, 85.00000000000000000, 3.000000000000001776 ) ) ;
#188 = CARTESIAN_POINT ( 'NONE',  ( 49.99999999999996447, 165.0000000000000000, 3.000000000000001776 ) ) ;
#189 = EDGE_LOOP ( 'NONE', ( #618, #717 ) ) ;
#190 = FACE_OUTER_BOUND ( 'NONE', #948, .T. ) ;
#191 = CARTESIAN_POINT ( 'NONE',  ( 4.999999999999983125, 85.00000000000000000, 3.000000000000001776 ) ) ;
#192 = CARTESIAN_POINT ( 'NONE',  ( 95.00000000000000000, 85.00000000000000000, 1.549999999999993161 ) ) ;
#193 = DIRECTION ( 'NONE',  ( -0.000000000000000000, -0.000000000000000000, 1.000000000000000000 ) ) ;
#194 = ADVANCED_FACE ( 'NONE', ( #913 ), #568, .F. ) ;
#195 = DIRECTION ( 'NONE',  ( 1.000000000000000000, 0.000000000000000000, 0.000000000000000000 ) ) ;
#196 = EDGE_LOOP ( 'NONE', ( #787, #762, #623, #204 ) ) ;
#197 = CARTESIAN_POINT ( 'NONE',  ( 100.0000000000000000, 5.000000000000000888, 0.000000000000000000 ) ) ;
#198 = DIRECTION ( 'NONE',  ( -0.7071067811865486830, 8.659560562354947649E-17, 0.7071067811865464625 ) ) ;
#199 = EDGE_CURVE ( 'NONE', #389, #945, #222, .T. ) ;
#200 = CIRCLE ( 'NONE', #957, 5.000000000000004441 ) ;
#201 = CARTESIAN_POINT ( 'NONE',  ( 51.69999999999994600, 5.000000000000000000, 0.000000000000000000 ) ) ;
#202 = AXIS2_PLACEMENT_3D ( 'NONE', #517, #946, #279 ) ;
#203 = CARTESIAN_POINT ( 'NONE',  ( 94.99999999999997158, 165.0000000000000000, 3.000000000000000000 ) ) ;
#204 = ORIENTED_EDGE ( 'NONE', *, *, #59, .T. ) ;
#205 = VECTOR ( 'NONE', #94, 1000.000000000000000 ) ;
#206 = DIRECTION ( 'NONE',  ( 0.000000000000000000, 0.000000000000000000, -1.000000000000000000 ) ) ;
#207 = FACE_BOUND ( 'NONE', #273, .T. ) ;
#208 = DIRECTION ( 'NONE',  ( -1.000000000000000000, 0.000000000000000000, 0.000000000000000000 ) ) ;
#209 = DIRECTION ( 'NONE',  ( 0.000000000000000000, 0.000000000000000000, -1.000000000000000000 ) ) ;
#210 = CARTESIAN_POINT ( 'NONE',  ( -8.163404592832031007E-16, 4.999999999999999112, 0.000000000000000000 ) ) ;
#211 = ORIENTED_EDGE ( 'NONE', *, *, #763, .F. ) ;
#212 = FACE_OUTER_BOUND ( 'NONE', #845, .T. ) ;
#213 = DIRECTION ( 'NONE',  ( -0.000000000000000000, -0.000000000000000000, 1.000000000000000000 ) ) ;
#214 = DIRECTION ( 'NONE',  ( 1.000000000000000000, 0.000000000000000000, 0.000000000000000000 ) ) ;
#215 = EDGE_LOOP ( 'NONE', ( #516, #90, #781, #264 ) ) ;
#216 = EDGE_CURVE ( 'NONE', #785, #997, #691, .T. ) ;
#217 = ORIENTED_EDGE ( 'NONE', *, *, #880, .F. ) ;
#218 = LINE ( 'NONE', #746, #261 ) ;
#219 = CARTESIAN_POINT ( 'NONE',  ( 51.69999999999994600, 5.000000000000000000, 1.549999999999993161 ) ) ;
#220 = CARTESIAN_POINT ( 'NONE',  ( 3.299999999999994937, 85.00000000000000000, 0.000000000000000000 ) ) ;
#221 = DIRECTION ( 'NONE',  ( 0.000000000000000000, 0.000000000000000000, -1.000000000000000000 ) ) ;
#222 = CIRCLE ( 'NONE', #1017, 1.699999999999993072 ) ;
#223 = EDGE_LOOP ( 'NONE', ( #552, #835 ) ) ;
#224 = CIRCLE ( 'NONE', #854, 1.699999999999993072 ) ;
#225 = ADVANCED_FACE ( 'NONE', ( #131 ), #314, .T. ) ;
#226 = ORIENTED_EDGE ( 'NONE', *, *, #542, .F. ) ;
#227 = CARTESIAN_POINT ( 'NONE',  ( 100.0000000000000000, 0.000000000000000000, 0.000000000000000000 ) ) ;
#228 = AXIS2_PLACEMENT_3D ( 'NONE', #48, #403, #372 ) ;
#229 = CARTESIAN_POINT ( 'NONE',  ( 3.299999999999973177, 165.0000000000000000, 3.000000000000000000 ) ) ;
#230 = DIRECTION ( 'NONE',  ( 0.000000000000000000, 0.000000000000000000, -1.000000000000000000 ) ) ;
#231 = VERTEX_POINT ( 'NONE', #1052 ) ;
#232 = LINE ( 'NONE', #567, #868 ) ;
#233 = DIRECTION ( 'NONE',  ( 0.000000000000000000, 0.000000000000000000, -1.000000000000000000 ) ) ;
#234 = FACE_OUTER_BOUND ( 'NONE', #637, .T. ) ;
#235 = ORIENTED_EDGE ( 'NONE', *, *, #938, .F. ) ;
#236 = DIRECTION ( 'NONE',  ( 0.000000000000000000, 0.000000000000000000, -1.000000000000000000 ) ) ;
#237 = ORIENTED_EDGE ( 'NONE', *, *, #254, .F. ) ;
#238 = CARTESIAN_POINT ( 'NONE',  ( -8.163404592832031007E-16, 4.999999999999999112, 3.000000000000000000 ) ) ;
#239 = EDGE_CURVE ( 'NONE', #926, #806, #891, .T. ) ;
#240 = CARTESIAN_POINT ( 'NONE',  ( 4.999999999999992006, 5.000000000000004441, 0.000000000000000000 ) ) ;
#241 = AXIS2_PLACEMENT_3D ( 'NONE', #296, #801, #15 ) ;
#242 = ORIENTED_EDGE ( 'NONE', *, *, #287, .F. ) ;
#243 = CARTESIAN_POINT ( 'NONE',  ( 4.999999999999972466, 165.0000000000000000, 3.000000000000000000 ) ) ;
#244 = AXIS2_PLACEMENT_3D ( 'NONE', #9, #980, #289 ) ;
#245 = CIRCLE ( 'NONE', #396, 1.699999999999998401 ) ;
#246 = AXIS2_PLACEMENT_3D ( 'NONE', #565, #193, #550 ) ;
#247 = FACE_BOUND ( 'NONE', #541, .T. ) ;
#248 = DIRECTION ( 'NONE',  ( -1.000000000000000000, 0.000000000000000000, 0.000000000000000000 ) ) ;
#249 = DIRECTION ( 'NONE',  ( -1.000000000000000000, 0.000000000000000000, 0.000000000000000000 ) ) ;
#250 = ORIENTED_EDGE ( 'NONE', *, *, #518, .F. ) ;
#251 = CARTESIAN_POINT ( 'NONE',  ( 4.999999999999983125, 85.00000000000000000, 3.000000000000000000 ) ) ;
#252 = DIRECTION ( 'NONE',  ( -0.000000000000000000, -0.000000000000000000, 1.000000000000000000 ) ) ;
#253 = ORIENTED_EDGE ( 'NONE', *, *, #811, .F. ) ;
#254 = EDGE_CURVE ( 'NONE', #860, #143, #741, .T. ) ;
#255 = ORIENTED_EDGE ( 'NONE', *, *, #952, .T. ) ;
#256 = ORIENTED_EDGE ( 'NONE', *, *, #60, .T. ) ;
#257 = PRESENTATION_LAYER_ASSIGNMENT (  '', '', ( #594 ) ) ;
#258 = EDGE_CURVE ( 'NONE', #1042, #701, #942, .T. ) ;
#259 = CIRCLE ( 'NONE', #645, 1.699999999999998401 ) ;
#260 = EDGE_CURVE ( 'NONE', #992, #940, #597, .T. ) ;
#261 = VECTOR ( 'NONE', #236, 1000.000000000000000 ) ;
#262 = LINE ( 'NONE', #776, #1047 ) ;
#263 = ORIENTED_EDGE ( 'NONE', *, *, #608, .F. ) ;
#264 = ORIENTED_EDGE ( 'NONE', *, *, #342, .T. ) ;
#265 = ORIENTED_EDGE ( 'NONE', *, *, #1019, .F. ) ;
#266 = CYLINDRICAL_SURFACE ( 'NONE', #96, 1.699999999999998401 ) ;
#267 = EDGE_CURVE ( 'NONE', #502, #940, #924, .T. ) ;
#268 = ORIENTED_EDGE ( 'NONE', *, *, #562, .F. ) ;
#269 = VERTEX_POINT ( 'NONE', #519 ) ;
#270 = CARTESIAN_POINT ( 'NONE',  ( 1.849999999999981881, 85.00000000000000000, 3.000000000000001776 ) ) ;
#271 = EDGE_CURVE ( 'NONE', #83, #185, #146, .T. ) ;
#272 = DIRECTION ( 'NONE',  ( 0.7071067811865486830, 0.000000000000000000, 0.7071067811865464625 ) ) ;
#273 = EDGE_LOOP ( 'NONE', ( #250, #217 ) ) ;
#274 = ORIENTED_EDGE ( 'NONE', *, *, #258, .F. ) ;
#275 = FACE_OUTER_BOUND ( 'NONE', #424, .T. ) ;
#276 = VECTOR ( 'NONE', #725, 1000.000000000000000 ) ;
#277 = VECTOR ( 'NONE', #390, 1000.000000000000000 ) ;
#278 = CIRCLE ( 'NONE', #894, 1.699999999999986189 ) ;
#279 = DIRECTION ( 'NONE',  ( -1.000000000000000000, 0.000000000000000000, 0.000000000000000000 ) ) ;
#280 = CIRCLE ( 'NONE', #665, 1.699999999999993072 ) ;
#281 = ORIENTED_EDGE ( 'NONE', *, *, #1026, .F. ) ;
#282 = EDGE_LOOP ( 'NONE', ( #1109, #830 ) ) ;
#283 = CARTESIAN_POINT ( 'NONE',  ( 4.999999999999992006, 5.000000000000004441, 0.000000000000000000 ) ) ;
#284 = CARTESIAN_POINT ( 'NONE',  ( 96.69999999999998863, 165.0000000000000284, 0.000000000000000000 ) ) ;
#285 = LINE ( 'NONE', #977, #486 ) ;
#286 = ORIENTED_EDGE ( 'NONE', *, *, #428, .F. ) ;
#287 = EDGE_CURVE ( 'NONE', #1094, #903, #832, .T. ) ;
#288 = VERTEX_POINT ( 'NONE', #229 ) ;
#289 = DIRECTION ( 'NONE',  ( 1.000000000000000000, 0.000000000000000000, 0.000000000000000000 ) ) ;
#290 = DIRECTION ( 'NONE',  ( -1.000000000000000000, 0.000000000000000000, 0.000000000000000000 ) ) ;
#291 = LINE ( 'NONE', #471, #412 ) ;
#292 = DIRECTION ( 'NONE',  ( -0.000000000000000000, -0.000000000000000000, 1.000000000000000000 ) ) ;
#293 = DIRECTION ( 'NONE',  ( 1.000000000000000000, 0.000000000000000000, 0.000000000000000000 ) ) ;
#294 = ORIENTED_EDGE ( 'NONE', *, *, #374, .T. ) ;
#295 = FACE_BOUND ( 'NONE', #986, .T. ) ;
#296 = CARTESIAN_POINT ( 'NONE',  ( -2.775557561562891351E-14, 170.0000000000000000, 3.000000000000000000 ) ) ;
#297 = ADVANCED_FACE ( 'NONE', ( #582, #505, #764, #677, #247, #601, #207, #117, #1000 ), #307, .F. ) ;
#298 = CYLINDRICAL_SURFACE ( 'NONE', #575, 1.699999999999998401 ) ;
#299 = VECTOR ( 'NONE', #622, 1000.000000000000000 ) ;
#300 = DIRECTION ( 'NONE',  ( -0.000000000000000000, -0.000000000000000000, 1.000000000000000000 ) ) ;
#301 = CIRCLE ( 'NONE', #320, 1.699999999999993072 ) ;
#302 = VECTOR ( 'NONE', #1118, 1000.000000000000000 ) ;
#303 = CARTESIAN_POINT ( 'NONE',  ( 100.0000000000000000, 5.000000000000000888, 3.000000000000000000 ) ) ;
#304 = ORIENTED_EDGE ( 'NONE', *, *, #686, .F. ) ;
#305 = PRODUCT_DEFINITION_FORMATION_WITH_SPECIFIED_SOURCE ( 'ANY', '', #545, .NOT_KNOWN. ) ;
#306 = CARTESIAN_POINT ( 'NONE',  ( 95.00000000000000000, 0.000000000000000000, 0.000000000000000000 ) ) ;
#307 = PLANE ( 'NONE',  #596 ) ;
#308 = DIRECTION ( 'NONE',  ( 1.000000000000000000, 0.000000000000000000, 0.000000000000000000 ) ) ;
#309 = EDGE_CURVE ( 'NONE', #1042, #54, #130, .T. ) ;
#310 = CARTESIAN_POINT ( 'NONE',  ( 4.999999999999999112, 5.000000000000000000, 0.000000000000000000 ) ) ;
#311 = FILL_AREA_STYLE ('',( #20 ) ) ;
#312 = VERTEX_POINT ( 'NONE', #399 ) ;
#313 = CARTESIAN_POINT ( 'NONE',  ( 49.99999999999996447, 5.000000000000000000, 3.000000000000000000 ) ) ;
#314 = CYLINDRICAL_SURFACE ( 'NONE', #166, 5.000000000000000000 ) ;
#315 = DIRECTION ( 'NONE',  ( -0.000000000000000000, -0.000000000000000000, 1.000000000000000000 ) ) ;
#316 = VERTEX_POINT ( 'NONE', #738 ) ;
#317 = ORIENTED_EDGE ( 'NONE', *, *, #797, .T. ) ;
#318 = FACE_OUTER_BOUND ( 'NONE', #98, .T. ) ;
#319 = DIRECTION ( 'NONE',  ( -0.000000000000000000, -0.000000000000000000, 1.000000000000000000 ) ) ;
#320 = AXIS2_PLACEMENT_3D ( 'NONE', #573, #1063, #290 ) ;
#321 = VECTOR ( 'NONE', #656, 1000.000000000000000 ) ;
#322 = ORIENTED_EDGE ( 'NONE', *, *, #199, .T. ) ;
#323 = CARTESIAN_POINT ( 'NONE',  ( 49.99999999999996447, 5.000000000000000000, 3.000000000000000000 ) ) ;
#324 = AXIS2_PLACEMENT_3D ( 'NONE', #458, #970, #576 ) ;
#325 = EDGE_CURVE ( 'NONE', #474, #444, #392, .T. ) ;
#326 = DIRECTION ( 'NONE',  ( 0.000000000000000000, 0.000000000000000000, -1.000000000000000000 ) ) ;
#327 = ORIENTED_EDGE ( 'NONE', *, *, #271, .T. ) ;
#328 = DIRECTION ( 'NONE',  ( 1.000000000000000000, 0.000000000000000000, 0.000000000000000000 ) ) ;
#329 = ADVANCED_FACE ( 'NONE', ( #504 ), #672, .F. ) ;
#330 = CARTESIAN_POINT ( 'NONE',  ( 51.69999999999994600, 165.0000000000000000, 3.000000000000000000 ) ) ;
#331 = DIRECTION ( 'NONE',  ( -1.000000000000000000, -1.632680918566406547E-16, 0.000000000000000000 ) ) ;
#332 = DIRECTION ( 'NONE',  ( 0.000000000000000000, 0.000000000000000000, -1.000000000000000000 ) ) ;
#333 = ORIENTED_EDGE ( 'NONE', *, *, #239, .F. ) ;
#334 = DIRECTION ( 'NONE',  ( 0.000000000000000000, -0.000000000000000000, 1.000000000000000000 ) ) ;
#335 = EDGE_LOOP ( 'NONE', ( #705, #529 ) ) ;
#336 = DIRECTION ( 'NONE',  ( -0.000000000000000000, -0.000000000000000000, 1.000000000000000000 ) ) ;
#337 = CARTESIAN_POINT ( 'NONE',  ( 95.00000000000000000, 5.000000000000000000, 3.000000000000000000 ) ) ;
#338 = CIRCLE ( 'NONE', #930, 1.699999999999993072 ) ;
#339 = VERTEX_POINT ( 'NONE', #353 ) ;
#340 = CIRCLE ( 'NONE', #1003, 5.000000000000000000 ) ;
#341 = CARTESIAN_POINT ( 'NONE',  ( 49.99999999999996447, 165.0000000000000000, 3.000000000000001776 ) ) ;
#342 = EDGE_CURVE ( 'NONE', #422, #312, #338, .T. ) ;
#343 = DIRECTION ( 'NONE',  ( 0.000000000000000000, 0.000000000000000000, -1.000000000000000000 ) ) ;
#344 = ORIENTED_EDGE ( 'NONE', *, *, #410, .T. ) ;
#345 = ORIENTED_EDGE ( 'NONE', *, *, #947, .T. ) ;
#346 = EDGE_CURVE ( 'NONE', #347, #908, #593, .T. ) ;
#347 = VERTEX_POINT ( 'NONE', #220 ) ;
#348 = ADVANCED_FACE ( 'NONE', ( #740 ), #298, .F. ) ;
#349 = DIRECTION ( 'NONE',  ( 1.000000000000000000, 0.000000000000000000, 0.000000000000000000 ) ) ;
#350 = CARTESIAN_POINT ( 'NONE',  ( 49.99999999999996447, 5.000000000000000000, 1.549999999999993161 ) ) ;
#351 = ORIENTED_EDGE ( 'NONE', *, *, #722, .F. ) ;
#352 = ORIENTED_EDGE ( 'NONE', *, *, #70, .F. ) ;
#353 = CARTESIAN_POINT ( 'NONE',  ( 94.99999999999997158, 170.0000000000000000, 0.000000000000000000 ) ) ;
#354 = AXIS2_PLACEMENT_3D ( 'NONE', #188, #546, #881 ) ;
#355 = AXIS2_PLACEMENT_3D ( 'NONE', #77, #343, #802 ) ;
#356 = DIRECTION ( 'NONE',  ( 1.000000000000000000, 0.000000000000000000, 0.000000000000000000 ) ) ;
#357 = ORIENTED_EDGE ( 'NONE', *, *, #267, .T. ) ;
#358 = ORIENTED_EDGE ( 'NONE', *, *, #1033, .F. ) ;
#359 = CARTESIAN_POINT ( 'NONE',  ( 95.00000000000000000, 165.0000000000000284, 3.000000000000000000 ) ) ;
#360 = ADVANCED_FACE ( 'NONE', ( #919 ), #477, .F. ) ;
#361 = CARTESIAN_POINT ( 'NONE',  ( 4.999999999999983125, 85.00000000000000000, 1.549999999999993161 ) ) ;
#362 = CARTESIAN_POINT ( 'NONE',  ( 0.000000000000000000, 0.000000000000000000, 0.000000000000000000 ) ) ;
#363 = ORIENTED_EDGE ( 'NONE', *, *, #783, .T. ) ;
#364 = CARTESIAN_POINT ( 'NONE',  ( 95.00000000000000000, 85.00000000000000000, 1.549999999999993161 ) ) ;
#365 = CARTESIAN_POINT ( 'NONE',  ( 93.30000000000001137, 85.00000000000000000, 0.000000000000000000 ) ) ;
#366 = DIRECTION ( 'NONE',  ( -0.000000000000000000, -0.000000000000000000, 1.000000000000000000 ) ) ;
#367 = VERTEX_POINT ( 'NONE', #755 ) ;
#368 = LINE ( 'NONE', #456, #598 ) ;
#369 = VECTOR ( 'NONE', #1054, 1000.000000000000000 ) ;
#370 = DIRECTION ( 'NONE',  ( 1.000000000000000000, 0.000000000000000000, 0.000000000000000000 ) ) ;
#371 = AXIS2_PLACEMENT_3D ( 'NONE', #814, #820, #370 ) ;
#372 = DIRECTION ( 'NONE',  ( 1.000000000000000000, 0.000000000000000000, 0.000000000000000000 ) ) ;
#373 = CIRCLE ( 'NONE', #324, 5.000000000000004441 ) ;
#374 = EDGE_CURVE ( 'NONE', #185, #32, #1067, .T. ) ;
#375 = DIRECTION ( 'NONE',  ( -1.000000000000000000, 0.000000000000000000, 0.000000000000000000 ) ) ;
#376 = ORIENTED_EDGE ( 'NONE', *, *, #640, .T. ) ;
#377 = DIRECTION ( 'NONE',  ( 1.000000000000000000, 0.000000000000000000, 0.000000000000000000 ) ) ;
#378 = FACE_OUTER_BOUND ( 'NONE', #215, .T. ) ;
#379 = DIRECTION ( 'NONE',  ( -0.000000000000000000, -0.000000000000000000, 1.000000000000000000 ) ) ;
#380 = DIRECTION ( 'NONE',  ( -0.000000000000000000, -0.000000000000000000, 1.000000000000000000 ) ) ;
#381 = EDGE_CURVE ( 'NONE', #903, #367, #446, .T. ) ;
#382 = ORIENTED_EDGE ( 'NONE', *, *, #10, .F. ) ;
#383 = CYLINDRICAL_SURFACE ( 'NONE', #960, 1.699999999999993072 ) ;
#384 = ADVANCED_FACE ( 'NONE', ( #680 ), #163, .F. ) ;
#385 = DIRECTION ( 'NONE',  ( 0.000000000000000000, 0.000000000000000000, -1.000000000000000000 ) ) ;
#386 = DIRECTION ( 'NONE',  ( -1.632680918566406547E-16, 1.000000000000000000, 0.000000000000000000 ) ) ;
#387 = DIRECTION ( 'NONE',  ( -1.000000000000000000, 0.000000000000000000, 0.000000000000000000 ) ) ;
#388 = CARTESIAN_POINT ( 'NONE',  ( 93.30000000000001137, 5.000000000000000000, 3.000000000000000000 ) ) ;
#389 = VERTEX_POINT ( 'NONE', #834 ) ;
#390 = DIRECTION ( 'NONE',  ( -0.000000000000000000, -0.000000000000000000, 1.000000000000000000 ) ) ;
#391 = AXIS2_PLACEMENT_3D ( 'NONE', #105, #493, #634 ) ;
#392 = CIRCLE ( 'NONE', #464, 3.150000000000000799 ) ;
#393 = DIRECTION ( 'NONE',  ( 0.000000000000000000, 0.000000000000000000, -1.000000000000000000 ) ) ;
#394 = EDGE_CURVE ( 'NONE', #796, #993, #58, .T. ) ;
#395 = CIRCLE ( 'NONE', #182, 1.699999999999993072 ) ;
#396 = AXIS2_PLACEMENT_3D ( 'NONE', #240, #230, #583 ) ;
#397 = ORIENTED_EDGE ( 'NONE', *, *, #88, .F. ) ;
#398 = CARTESIAN_POINT ( 'NONE',  ( 96.69999999999998863, 5.000000000000000000, 0.000000000000000000 ) ) ;
#399 = CARTESIAN_POINT ( 'NONE',  ( 93.30000000000001137, 165.0000000000000284, 3.000000000000000000 ) ) ;
#400 = DIRECTION ( 'NONE',  ( -0.000000000000000000, 0.000000000000000000, -1.000000000000000000 ) ) ;
#401 = ADVANCED_FACE ( 'NONE', ( #234 ), #1023, .F. ) ;
#402 = DIRECTION ( 'NONE',  ( -1.000000000000000000, 0.000000000000000000, 0.000000000000000000 ) ) ;
#403 = DIRECTION ( 'NONE',  ( -0.000000000000000000, -0.000000000000000000, 1.000000000000000000 ) ) ;
#404 = ORIENTED_EDGE ( 'NONE', *, *, #199, .F. ) ;
#405 = ORIENTED_EDGE ( 'NONE', *, *, #660, .T. ) ;
#406 = DIRECTION ( 'NONE',  ( 1.000000000000000000, 0.000000000000000000, 0.000000000000000000 ) ) ;
#407 = ORIENTED_EDGE ( 'NONE', *, *, #789, .T. ) ;
#408 = EDGE_LOOP ( 'NONE', ( #142, #8, #590, #1061 ) ) ;
#409 = CARTESIAN_POINT ( 'NONE',  ( 6.699999999999990408, 5.000000000000004441, 3.000000000000000000 ) ) ;
#410 = EDGE_CURVE ( 'NONE', #431, #231, #291, .T. ) ;
#411 = LINE ( 'NONE', #602, #871 ) ;
#412 = VECTOR ( 'NONE', #386, 1000.000000000000000 ) ;
#413 = EDGE_CURVE ( 'NONE', #347, #40, #111, .T. ) ;
#414 = VECTOR ( 'NONE', #778, 1000.000000000000000 ) ;
#415 = ORIENTED_EDGE ( 'NONE', *, *, #159, .T. ) ;
#416 = LINE ( 'NONE', #1012, #610 ) ;
#417 = ORIENTED_EDGE ( 'NONE', *, *, #60, .F. ) ;
#418 = AXIS2_PLACEMENT_3D ( 'NONE', #110, #315, #1080 ) ;
#419 = DIRECTION ( 'NONE',  ( -0.000000000000000000, -0.000000000000000000, 1.000000000000000000 ) ) ;
#420 = DIRECTION ( 'NONE',  ( 1.000000000000000000, 0.000000000000000000, 0.000000000000000000 ) ) ;
#421 = ADVANCED_FACE ( 'NONE', ( #16 ), #92, .F. ) ;
#422 = VERTEX_POINT ( 'NONE', #813 ) ;
#423 = CARTESIAN_POINT ( 'NONE',  ( 48.29999999999997584, 5.000000000000000000, 0.000000000000000000 ) ) ;
#424 = EDGE_LOOP ( 'NONE', ( #7, #566, #317, #237 ) ) ;
#425 = DIRECTION ( 'NONE',  ( -1.000000000000000000, 0.000000000000000000, 0.000000000000000000 ) ) ;
#426 = VERTEX_POINT ( 'NONE', #1043 ) ;
#427 = CARTESIAN_POINT ( 'NONE',  ( 99.99999999999997158, 165.0000000000000000, 3.000000000000000000 ) ) ;
#428 = EDGE_CURVE ( 'NONE', #426, #1114, #259, .T. ) ;
#429 = CIRCLE ( 'NONE', #839, 1.699999999999986189 ) ;
#430 = VECTOR ( 'NONE', #125, 1000.000000000000000 ) ;
#431 = VERTEX_POINT ( 'NONE', #1051 ) ;
#432 = DIRECTION ( 'NONE',  ( -0.000000000000000000, -0.000000000000000000, 1.000000000000000000 ) ) ;
#433 = VECTOR ( 'NONE', #629, 1000.000000000000000 ) ;
#434 = EDGE_CURVE ( 'NONE', #617, #389, #973, .T. ) ;
#435 = SHAPE_DEFINITION_REPRESENTATION ( #893, #481 ) ;
#436 = VERTEX_POINT ( 'NONE', #197 ) ;
#437 = ORIENTED_EDGE ( 'NONE', *, *, #99, .F. ) ;
#438 = EDGE_LOOP ( 'NONE', ( #561, #327, #226, #1020 ) ) ;
#439 = ADVANCED_FACE ( 'NONE', ( #899, #872, #123, #878, #295, #103, #554, #23, #632 ), #798, .T. ) ;
#440 = DIRECTION ( 'NONE',  ( -0.000000000000000000, -0.000000000000000000, 1.000000000000000000 ) ) ;
#441 = ORIENTED_EDGE ( 'NONE', *, *, #99, .T. ) ;
#442 = CONICAL_SURFACE ( 'NONE', #391, 3.150000000000000799, 0.7853981633974498333 ) ;
#443 = ADVANCED_FACE ( 'NONE', ( #190 ), #548, .F. ) ;
#444 = VERTEX_POINT ( 'NONE', #461 ) ;
#445 = ORIENTED_EDGE ( 'NONE', *, *, #428, .T. ) ;
#446 = CIRCLE ( 'NONE', #79, 5.000000000000000000 ) ;
#447 = CIRCLE ( 'NONE', #1002, 1.699999999999993072 ) ;
#448 = CIRCLE ( 'NONE', #714, 3.149999999999999911 ) ;
#449 = LINE ( 'NONE', #790, #433 ) ;
#450 = ORIENTED_EDGE ( 'NONE', *, *, #666, .F. ) ;
#451 = EDGE_LOOP ( 'NONE', ( #165, #352, #1076, #136 ) ) ;
#452 = DIRECTION ( 'NONE',  ( -0.000000000000000000, -0.000000000000000000, 1.000000000000000000 ) ) ;
#453 = DIRECTION ( 'NONE',  ( 0.000000000000000000, 1.000000000000000000, 0.000000000000000000 ) ) ;
#454 = DIRECTION ( 'NONE',  ( -0.000000000000000000, -0.000000000000000000, 1.000000000000000000 ) ) ;
#455 = ORIENTED_EDGE ( 'NONE', *, *, #869, .T. ) ;
#456 = CARTESIAN_POINT ( 'NONE',  ( 3.299999999999994049, 5.000000000000004441, 3.000000000000000000 ) ) ;
#457 = EDGE_CURVE ( 'NONE', #1114, #55, #368, .T. ) ;
#458 = CARTESIAN_POINT ( 'NONE',  ( 95.00000000000000000, 5.000000000000000000, 0.000000000000000000 ) ) ;
#459 = FACE_OUTER_BOUND ( 'NONE', #128, .T. ) ;
#460 = ORIENTED_EDGE ( 'NONE', *, *, #457, .F. ) ;
#461 = CARTESIAN_POINT ( 'NONE',  ( 8.149999999999984368, 85.00000000000000000, 3.000000000000001776 ) ) ;
#462 = COLOUR_RGB ( '',0.7921568627450980005, 0.8196078431372548767, 0.9333333333333333481 ) ;
#463 = FACE_OUTER_BOUND ( 'NONE', #174, .T. ) ;
#464 = AXIS2_PLACEMENT_3D ( 'NONE', #767, #432, #1103 ) ;
#465 = ADVANCED_FACE ( 'NONE', ( #707 ), #95, .F. ) ;
#466 = CARTESIAN_POINT ( 'NONE',  ( -2.693923515634571110E-14, 165.0000000000000000, 0.000000000000000000 ) ) ;
#467 = DIRECTION ( 'NONE',  ( 0.000000000000000000, 0.000000000000000000, -1.000000000000000000 ) ) ;
#468 = ORIENTED_EDGE ( 'NONE', *, *, #381, .F. ) ;
#469 = CARTESIAN_POINT ( 'NONE',  ( 95.00000000000000000, 165.0000000000000284, 3.000000000000000000 ) ) ;
#470 = CARTESIAN_POINT ( 'NONE',  ( 0.000000000000000000, 0.000000000000000000, 0.000000000000000000 ) ) ;
#471 = CARTESIAN_POINT ( 'NONE',  ( 100.0000000000000000, 0.000000000000000000, 3.000000000000000000 ) ) ;
#472 = CYLINDRICAL_SURFACE ( 'NONE', #418, 1.699999999999993072 ) ;
#473 = CARTESIAN_POINT ( 'NONE',  ( 53.14999999999996305, 165.0000000000000000, 3.000000000000001776 ) ) ;
#474 = VERTEX_POINT ( 'NONE', #270 ) ;
#475 = CARTESIAN_POINT ( 'NONE',  ( 95.00000000000000000, 85.00000000000000000, 3.000000000000001776 ) ) ;
#476 = CARTESIAN_POINT ( 'NONE',  ( 95.00000000000000000, 85.00000000000000000, 0.000000000000000000 ) ) ;
#477 = CYLINDRICAL_SURFACE ( 'NONE', #751, 1.699999999999993072 ) ;
#478 = LINE ( 'NONE', #990, #963 ) ;
#479 = CARTESIAN_POINT ( 'NONE',  ( 49.99999999999996447, 5.000000000000000000, 3.000000000000001776 ) ) ;
#480 = ORIENTED_EDGE ( 'NONE', *, *, #865, .T. ) ;
#481 = ADVANCED_BREP_SHAPE_REPRESENTATION ( 'UNIVERSAL-MAIN-COVER-v001', ( #122, #156 ), #895 ) ;
#482 = EDGE_CURVE ( 'NONE', #312, #422, #395, .T. ) ;
#483 = FACE_OUTER_BOUND ( 'NONE', #522, .T. ) ;
#484 = DIRECTION ( 'NONE',  ( -0.7071067811865471286, 8.659560562354927928E-17, 0.7071067811865479058 ) ) ;
#485 = DIRECTION ( 'NONE',  ( 1.000000000000000000, 0.000000000000000000, 0.000000000000000000 ) ) ;
#486 = VECTOR ( 'NONE', #366, 1000.000000000000000 ) ;
#487 = VECTOR ( 'NONE', #605, 1000.000000000000000 ) ;
#488 = CARTESIAN_POINT ( 'NONE',  ( 95.00000000000000000, 165.0000000000000284, 0.000000000000000000 ) ) ;
#489 = AXIS2_PLACEMENT_3D ( 'NONE', #179, #537, #788 ) ;
#490 = EDGE_LOOP ( 'NONE', ( #345, #584, #1108, #607 ) ) ;
#491 = ORIENTED_EDGE ( 'NONE', *, *, #53, .T. ) ;
#492 = CYLINDRICAL_SURFACE ( 'NONE', #782, 1.699999999999986189 ) ;
#493 = DIRECTION ( 'NONE',  ( -0.000000000000000000, -0.000000000000000000, 1.000000000000000000 ) ) ;
#494 = CARTESIAN_POINT ( 'NONE',  ( 4.999999999999992006, 5.000000000000004441, 3.000000000000000000 ) ) ;
#495 = CARTESIAN_POINT ( 'NONE',  ( 49.99999999999996447, 5.000000000000000000, 0.000000000000000000 ) ) ;
#496 = ADVANCED_FACE ( 'NONE', ( #275 ), #956, .F. ) ;
#497 = ORIENTED_EDGE ( 'NONE', *, *, #1013, .T. ) ;
#498 = EDGE_LOOP ( 'NONE', ( #773, #42 ) ) ;
#499 = CYLINDRICAL_SURFACE ( 'NONE', #93, 1.699999999999993072 ) ;
#500 = ADVANCED_FACE ( 'NONE', ( #27 ), #383, .F. ) ;
#501 = CYLINDRICAL_SURFACE ( 'NONE', #45, 5.000000000000004441 ) ;
#502 = VERTEX_POINT ( 'NONE', #793 ) ;
#503 = CARTESIAN_POINT ( 'NONE',  ( 0.000000000000000000, 0.000000000000000000, 3.000000000000000000 ) ) ;
#504 = FACE_OUTER_BOUND ( 'NONE', #490, .T. ) ;
#505 = FACE_BOUND ( 'NONE', #61, .T. ) ;
#506 = VECTOR ( 'NONE', #791, 1000.000000000000000 ) ;
#507 = ADVANCED_FACE ( 'NONE', ( #1037 ), #619, .F. ) ;
#508 = VECTOR ( 'NONE', #1005, 1000.000000000000000 ) ;
#509 = EDGE_CURVE ( 'NONE', #701, #1042, #447, .T. ) ;
#510 = VECTOR ( 'NONE', #272, 1000.000000000000000 ) ;
#511 = CARTESIAN_POINT ( 'NONE',  ( 4.999999999999999112, 5.000000000000000000, 3.000000000000000000 ) ) ;
#512 = EDGE_LOOP ( 'NONE', ( #351, #706, #255, #655 ) ) ;
#513 = LINE ( 'NONE', #1089, #1029 ) ;
#514 = CIRCLE ( 'NONE', #873, 1.699999999999993072 ) ;
#515 = CARTESIAN_POINT ( 'NONE',  ( 6.699999999999970868, 85.00000000000000000, 1.549999999999993161 ) ) ;
#516 = ORIENTED_EDGE ( 'NONE', *, *, #991, .F. ) ;
#517 = CARTESIAN_POINT ( 'NONE',  ( 4.999999999999983125, 85.00000000000000000, 0.000000000000000000 ) ) ;
#518 = EDGE_CURVE ( 'NONE', #547, #55, #1119, .T. ) ;
#519 = CARTESIAN_POINT ( 'NONE',  ( 3.299999999999974065, 165.0000000000000000, 0.000000000000000000 ) ) ;
#520 = CARTESIAN_POINT ( 'NONE',  ( 95.00000000000000000, 85.00000000000000000, 3.000000000000000000 ) ) ;
#521 = CIRCLE ( 'NONE', #1025, 1.699999999999999289 ) ;
#522 = EDGE_LOOP ( 'NONE', ( #253, #73, #2, #376 ) ) ;
#523 = AXIS2_PLACEMENT_3D ( 'NONE', #186, #14, #712 ) ;
#524 = AXIS2_PLACEMENT_3D ( 'NONE', #17, #984, #387 ) ;
#525 = EDGE_CURVE ( 'NONE', #760, #502, #168, .T. ) ;
#526 = ORIENTED_EDGE ( 'NONE', *, *, #119, .T. ) ;
#527 = EDGE_CURVE ( 'NONE', #870, #431, #19, .T. ) ;
#528 = CARTESIAN_POINT ( 'NONE',  ( 4.999999999999999112, 0.000000000000000000, 3.000000000000000000 ) ) ;
#529 = ORIENTED_EDGE ( 'NONE', *, *, #216, .F. ) ;
#530 = ORIENTED_EDGE ( 'NONE', *, *, #1113, .F. ) ;
#531 = DIRECTION ( 'NONE',  ( -1.000000000000000000, -0.000000000000000000, -0.000000000000000000 ) ) ;
#532 = ADVANCED_FACE ( 'NONE', ( #212 ), #499, .F. ) ;
#533 = ORIENTED_EDGE ( 'NONE', *, *, #678, .T. ) ;
#534 = ORIENTED_EDGE ( 'NONE', *, *, #742, .T. ) ;
#535 = CIRCLE ( 'NONE', #711, 1.699999999999998401 ) ;
#536 = ORIENTED_EDGE ( 'NONE', *, *, #413, .T. ) ;
#537 = DIRECTION ( 'NONE',  ( -0.000000000000000000, -0.000000000000000000, 1.000000000000000000 ) ) ;
#538 = CIRCLE ( 'NONE', #524, 5.000000000000004441 ) ;
#539 = DIRECTION ( 'NONE',  ( -0.000000000000000000, -0.000000000000000000, 1.000000000000000000 ) ) ;
#540 = LINE ( 'NONE', #388, #276 ) ;
#541 = EDGE_LOOP ( 'NONE', ( #728, #916 ) ) ;
#542 = EDGE_CURVE ( 'NONE', #1094, #185, #232, .T. ) ;
#543 = DIRECTION ( 'NONE',  ( -0.000000000000000000, -0.000000000000000000, 1.000000000000000000 ) ) ;
#544 = CARTESIAN_POINT ( 'NONE',  ( 98.15000000000000568, 85.00000000000000000, 3.000000000000001776 ) ) ;
#545 = PRODUCT ( 'UNIVERSAL-MAIN-COVER-v001', 'UNIVERSAL-MAIN-COVER-v001', '', ( #1092 ) ) ;
#546 = DIRECTION ( 'NONE',  ( -0.000000000000000000, -0.000000000000000000, 1.000000000000000000 ) ) ;
#547 = VERTEX_POINT ( 'NONE', #409 ) ;
#548 = CYLINDRICAL_SURFACE ( 'NONE', #244, 1.699999999999987965 ) ;
#549 = CARTESIAN_POINT ( 'NONE',  ( 4.999999999999972466, 165.0000000000000000, 0.000000000000000000 ) ) ;
#550 = DIRECTION ( 'NONE',  ( 1.000000000000000000, 0.000000000000000000, 0.000000000000000000 ) ) ;
#551 = CARTESIAN_POINT ( 'NONE',  ( 4.999999999999999112, 0.000000000000000000, 0.000000000000000000 ) ) ;
#552 = ORIENTED_EDGE ( 'NONE', *, *, #1013, .F. ) ;
#553 = VERTEX_POINT ( 'NONE', #306 ) ;
#554 = FACE_BOUND ( 'NONE', #642, .T. ) ;
#555 =( GEOMETRIC_REPRESENTATION_CONTEXT ( 3 ) GLOBAL_UNCERTAINTY_ASSIGNED_CONTEXT ( ( #862 ) ) GLOBAL_UNIT_ASSIGNED_CONTEXT ( ( #28, #108, #564 ) ) REPRESENTATION_CONTEXT ( 'NONE', 'WORKASPACE' ) );
#556 = DIRECTION ( 'NONE',  ( -1.000000000000000000, 0.000000000000000000, 0.000000000000000000 ) ) ;
#557 = AXIS2_PLACEMENT_3D ( 'NONE', #475, #883, #100 ) ;
#558 = LINE ( 'NONE', #569, #842 ) ;
#559 = AXIS2_PLACEMENT_3D ( 'NONE', #310, #221, #639 ) ;
#560 = DIRECTION ( 'NONE',  ( 0.000000000000000000, 0.000000000000000000, -1.000000000000000000 ) ) ;
#561 = ORIENTED_EDGE ( 'NONE', *, *, #88, .T. ) ;
#562 = EDGE_CURVE ( 'NONE', #692, #339, #218, .T. ) ;
#563 = DIRECTION ( 'NONE',  ( 1.000000000000000000, 0.000000000000000000, 0.000000000000000000 ) ) ;
#564 =( NAMED_UNIT ( * ) SI_UNIT ( $, .STERADIAN. ) SOLID_ANGLE_UNIT ( ) );
#565 = CARTESIAN_POINT ( 'NONE',  ( 95.00000000000000000, 85.00000000000000000, 3.000000000000001776 ) ) ;
#566 = ORIENTED_EDGE ( 'NONE', *, *, #1019, .T. ) ;
#567 = CARTESIAN_POINT ( 'NONE',  ( 0.000000000000000000, 0.000000000000000000, 3.000000000000000000 ) ) ;
#568 = PLANE ( 'NONE',  #241 ) ;
#569 = CARTESIAN_POINT ( 'NONE',  ( 93.30000000000001137, 165.0000000000000284, 3.000000000000000000 ) ) ;
#570 = ORIENTED_EDGE ( 'NONE', *, *, #921, .T. ) ;
#571 = ORIENTED_EDGE ( 'NONE', *, *, #29, .T. ) ;
#572 = DIRECTION ( 'NONE',  ( 1.000000000000000000, 0.000000000000000000, 0.000000000000000000 ) ) ;
#573 = CARTESIAN_POINT ( 'NONE',  ( 95.00000000000000000, 5.000000000000000000, 0.000000000000000000 ) ) ;
#574 = VECTOR ( 'NONE', #704, 1000.000000000000000 ) ;
#575 = AXIS2_PLACEMENT_3D ( 'NONE', #494, #1079, #826 ) ;
#576 = DIRECTION ( 'NONE',  ( -1.000000000000000000, 0.000000000000000000, 0.000000000000000000 ) ) ;
#577 = CIRCLE ( 'NONE', #694, 1.699999999999986189 ) ;
#578 = AXIS2_PLACEMENT_3D ( 'NONE', #1053, #300, #214 ) ;
#579 = ORIENTED_EDGE ( 'NONE', *, *, #686, .T. ) ;
#580 = VERTEX_POINT ( 'NONE', #737 ) ;
#581 = DIRECTION ( 'NONE',  ( -1.000000000000000000, -0.000000000000000000, -0.000000000000000000 ) ) ;
#582 = FACE_BOUND ( 'NONE', #282, .T. ) ;
#583 = DIRECTION ( 'NONE',  ( -1.000000000000000000, 0.000000000000000000, 0.000000000000000000 ) ) ;
#584 = ORIENTED_EDGE ( 'NONE', *, *, #4, .T. ) ;
#585 = CARTESIAN_POINT ( 'NONE',  ( 49.99999999999996447, 165.0000000000000000, 0.000000000000000000 ) ) ;
#586 = ADVANCED_FACE ( 'NONE', ( #318 ), #1091, .F. ) ;
#587 = CARTESIAN_POINT ( 'NONE',  ( 49.99999999999996447, 165.0000000000000000, 1.549999999999993161 ) ) ;
#588 = DIRECTION ( 'NONE',  ( -0.000000000000000000, -0.000000000000000000, 1.000000000000000000 ) ) ;
#589 = EDGE_CURVE ( 'NONE', #86, #316, #732, .T. ) ;
#590 = ORIENTED_EDGE ( 'NONE', *, *, #858, .F. ) ;
#591 = DIRECTION ( 'NONE',  ( -1.000000000000000000, 0.000000000000000000, 0.000000000000000000 ) ) ;
#592 = ORIENTED_EDGE ( 'NONE', *, *, #82, .F. ) ;
#593 = LINE ( 'NONE', #929, #959 ) ;
#594 = STYLED_ITEM ( 'NONE', ( #38 ), #122 ) ;
#595 = DIRECTION ( 'NONE',  ( 1.000000000000000000, 0.000000000000000000, 0.000000000000000000 ) ) ;
#596 = AXIS2_PLACEMENT_3D ( 'NONE', #900, #124, #35 ) ;
#597 = CIRCLE ( 'NONE', #1027, 1.699999999999986189 ) ;
#598 = VECTOR ( 'NONE', #543, 1000.000000000000000 ) ;
#599 = CARTESIAN_POINT ( 'NONE',  ( 95.00000000000000000, 5.000000000000000000, 3.000000000000000000 ) ) ;
#600 = ADVANCED_FACE ( 'NONE', ( #668 ), #129, .F. ) ;
#601 = FACE_BOUND ( 'NONE', #864, .T. ) ;
#602 = CARTESIAN_POINT ( 'NONE',  ( 51.69999999999994600, 5.000000000000000000, 3.000000000000000000 ) ) ;
#603 = ORIENTED_EDGE ( 'NONE', *, *, #239, .T. ) ;
#604 = DIRECTION ( 'NONE',  ( -0.000000000000000000, -0.000000000000000000, 1.000000000000000000 ) ) ;
#605 = DIRECTION ( 'NONE',  ( -0.7071067811865487940, 8.659560562354948882E-17, 0.7071067811865463515 ) ) ;
#606 = ORIENTED_EDGE ( 'NONE', *, *, #865, .F. ) ;
#607 = ORIENTED_EDGE ( 'NONE', *, *, #267, .F. ) ;
#608 = EDGE_CURVE ( 'NONE', #436, #689, #1084, .T. ) ;
#609 = ORIENTED_EDGE ( 'NONE', *, *, #968, .F. ) ;
#610 = VECTOR ( 'NONE', #958, 1000.000000000000000 ) ;
#611 = EDGE_CURVE ( 'NONE', #40, #1024, #1095, .T. ) ;
#612 = LINE ( 'NONE', #528, #80 ) ;
#613 = ORIENTED_EDGE ( 'NONE', *, *, #852, .T. ) ;
#614 = ORIENTED_EDGE ( 'NONE', *, *, #53, .F. ) ;
#615 = LINE ( 'NONE', #1098, #205 ) ;
#616 = ORIENTED_EDGE ( 'NONE', *, *, #774, .F. ) ;
#617 = VERTEX_POINT ( 'NONE', #398 ) ;
#618 = ORIENTED_EDGE ( 'NONE', *, *, #33, .F. ) ;
#619 = CYLINDRICAL_SURFACE ( 'NONE', #489, 1.699999999999986189 ) ;
#620 = FACE_OUTER_BOUND ( 'NONE', #89, .T. ) ;
#621 = EDGE_CURVE ( 'NONE', #692, #661, #513, .T. ) ;
#622 = DIRECTION ( 'NONE',  ( -0.000000000000000000, -0.000000000000000000, 1.000000000000000000 ) ) ;
#623 = ORIENTED_EDGE ( 'NONE', *, *, #410, .F. ) ;
#624 = CARTESIAN_POINT ( 'NONE',  ( 49.99999999999996447, 5.000000000000000000, 3.000000000000001776 ) ) ;
#625 = AXIS2_PLACEMENT_3D ( 'NONE', #1115, #950, #91 ) ;
#626 = DIRECTION ( 'NONE',  ( -0.000000000000000000, -0.000000000000000000, 1.000000000000000000 ) ) ;
#627 = CIRCLE ( 'NONE', #135, 1.699999999999986189 ) ;
#628 = CIRCLE ( 'NONE', #1050, 1.699999999999993072 ) ;
#629 = DIRECTION ( 'NONE',  ( -0.000000000000000000, -0.000000000000000000, 1.000000000000000000 ) ) ;
#630 = CARTESIAN_POINT ( 'NONE',  ( 53.14999999999996305, 165.0000000000000000, 3.000000000000001776 ) ) ;
#631 = ORIENTED_EDGE ( 'NONE', *, *, #660, .F. ) ;
#632 = FACE_OUTER_BOUND ( 'NONE', #1036, .T. ) ;
#633 = PRODUCT_DEFINITION_CONTEXT ( 'detailed design', #1041, 'design' ) ;
#634 = DIRECTION ( 'NONE',  ( 1.000000000000000000, 0.000000000000000000, 0.000000000000000000 ) ) ;
#635 = DIRECTION ( 'NONE',  ( 1.000000000000000000, 0.000000000000000000, 0.000000000000000000 ) ) ;
#636 = CARTESIAN_POINT ( 'NONE',  ( 3.299999999999994049, 5.000000000000004441, 3.000000000000000000 ) ) ;
#637 = EDGE_LOOP ( 'NONE', ( #756, #536, #177, #13 ) ) ;
#638 = DIRECTION ( 'NONE',  ( -0.000000000000000000, -0.000000000000000000, 1.000000000000000000 ) ) ;
#639 = DIRECTION ( 'NONE',  ( -1.000000000000000000, 0.000000000000000000, 0.000000000000000000 ) ) ;
#640 = EDGE_CURVE ( 'NONE', #175, #796, #278, .T. ) ;
#641 = CARTESIAN_POINT ( 'NONE',  ( 94.99999999999997158, 165.0000000000000000, 3.000000000000000000 ) ) ;
#642 = EDGE_LOOP ( 'NONE', ( #358, #1066 ) ) ;
#643 = DIRECTION ( 'NONE',  ( 0.000000000000000000, 0.000000000000000000, -1.000000000000000000 ) ) ;
#644 = CARTESIAN_POINT ( 'NONE',  ( 95.00000000000000000, 5.000000000000000000, 3.000000000000000000 ) ) ;
#645 = AXIS2_PLACEMENT_3D ( 'NONE', #283, #206, #34 ) ;
#646 = ADVANCED_FACE ( 'NONE', ( #483 ), #1071, .F. ) ;
#647 = CIRCLE ( 'NONE', #155, 1.699999999999999289 ) ;
#648 = FACE_OUTER_BOUND ( 'NONE', #978, .T. ) ;
#649 = AXIS2_PLACEMENT_3D ( 'NONE', #151, #331, #1006 ) ;
#650 = EDGE_LOOP ( 'NONE', ( #211, #670 ) ) ;
#651 = DIRECTION ( 'NONE',  ( -1.000000000000000000, 0.000000000000000000, 0.000000000000000000 ) ) ;
#652 = CARTESIAN_POINT ( 'NONE',  ( 6.699999999999971756, 165.0000000000000000, 3.000000000000000000 ) ) ;
#653 = CARTESIAN_POINT ( 'NONE',  ( 4.999999999999973355, 165.0000000000000000, 3.000000000000000000 ) ) ;
#654 = SURFACE_STYLE_USAGE ( .BOTH. , #1075 ) ;
#655 = ORIENTED_EDGE ( 'NONE', *, *, #509, .T. ) ;
#656 = DIRECTION ( 'NONE',  ( 0.7071067811865471286, 0.000000000000000000, 0.7071067811865479058 ) ) ;
#657 = DIRECTION ( 'NONE',  ( -1.000000000000000000, 0.000000000000000000, 0.000000000000000000 ) ) ;
#658 = CYLINDRICAL_SURFACE ( 'NONE', #1107, 5.000000000000000000 ) ;
#659 = ORIENTED_EDGE ( 'NONE', *, *, #1085, .T. ) ;
#660 = EDGE_CURVE ( 'NONE', #701, #696, #844, .T. ) ;
#661 = VERTEX_POINT ( 'NONE', #43 ) ;
#662 = DIRECTION ( 'NONE',  ( -1.632680918566406547E-16, 1.000000000000000000, 0.000000000000000000 ) ) ;
#663 = PLANE ( 'NONE',  #649 ) ;
#664 = VECTOR ( 'NONE', #662, 1000.000000000000000 ) ;
#665 = AXIS2_PLACEMENT_3D ( 'NONE', #769, #1101, #425 ) ;
#666 = EDGE_CURVE ( 'NONE', #806, #926, #627, .T. ) ;
#667 = EDGE_LOOP ( 'NONE', ( #847, #817, #1040, #613 ) ) ;
#668 = FACE_OUTER_BOUND ( 'NONE', #438, .T. ) ;
#669 = DIRECTION ( 'NONE',  ( 1.000000000000000000, 0.000000000000000000, 0.000000000000000000 ) ) ;
#670 = ORIENTED_EDGE ( 'NONE', *, *, #413, .F. ) ;
#671 = DIRECTION ( 'NONE',  ( 0.000000000000000000, 0.000000000000000000, -1.000000000000000000 ) ) ;
#672 = CYLINDRICAL_SURFACE ( 'NONE', #625, 1.699999999999986189 ) ;
#673 = CARTESIAN_POINT ( 'NONE',  ( -2.693923515634571110E-14, 165.0000000000000000, 3.000000000000000000 ) ) ;
#674 = ADVANCED_FACE ( 'NONE', ( #994 ), #492, .F. ) ;
#675 = ORIENTED_EDGE ( 'NONE', *, *, #763, .T. ) ;
#676 = LINE ( 'NONE', #1016, #856 ) ;
#677 = FACE_BOUND ( 'NONE', #189, .T. ) ;
#678 = EDGE_CURVE ( 'NONE', #175, #823, #416, .T. ) ;
#679 = DIRECTION ( 'NONE',  ( -1.000000000000000000, 0.000000000000000000, 0.000000000000000000 ) ) ;
#680 = FACE_OUTER_BOUND ( 'NONE', #687, .T. ) ;
#681 = AXIS2_PLACEMENT_3D ( 'NONE', #495, #47, #402 ) ;
#682 = AXIS2_PLACEMENT_3D ( 'NONE', #718, #638, #807 ) ;
#683 = ORIENTED_EDGE ( 'NONE', *, *, #381, .T. ) ;
#684 = ORIENTED_EDGE ( 'NONE', *, *, #70, .T. ) ;
#685 = EDGE_LOOP ( 'NONE', ( #304, #415, #941, #178 ) ) ;
#686 = EDGE_CURVE ( 'NONE', #908, #1024, #771, .T. ) ;
#687 = EDGE_LOOP ( 'NONE', ( #951, #972, #837, #1082 ) ) ;
#688 = EDGE_CURVE ( 'NONE', #426, #547, #449, .T. ) ;
#689 = VERTEX_POINT ( 'NONE', #11 ) ;
#690 = LINE ( 'NONE', #427, #414 ) ;
#691 = CIRCLE ( 'NONE', #1046, 1.699999999999993072 ) ;
#692 = VERTEX_POINT ( 'NONE', #1045 ) ;
#693 = ORIENTED_EDGE ( 'NONE', *, *, #1026, .T. ) ;
#694 = AXIS2_PLACEMENT_3D ( 'NONE', #350, #1028, #356 ) ;
#695 = EDGE_CURVE ( 'NONE', #689, #231, #690, .T. ) ;
#696 = VERTEX_POINT ( 'NONE', #544 ) ;
#697 = AXIS2_PLACEMENT_3D ( 'NONE', #887, #901, #635 ) ;
#698 = EDGE_CURVE ( 'NONE', #339, #367, #262, .T. ) ;
#699 = FACE_OUTER_BOUND ( 'NONE', #949, .T. ) ;
#700 = ORIENTED_EDGE ( 'NONE', *, *, #1004, .T. ) ;
#701 = VERTEX_POINT ( 'NONE', #953 ) ;
#702 = EDGE_CURVE ( 'NONE', #992, #316, #1034, .T. ) ;
#703 = CARTESIAN_POINT ( 'NONE',  ( 93.30000000000001137, 85.00000000000000000, 3.000000000000000000 ) ) ;
#704 = DIRECTION ( 'NONE',  ( 1.632680918566406547E-16, -1.000000000000000000, -0.000000000000000000 ) ) ;
#705 = ORIENTED_EDGE ( 'NONE', *, *, #1099, .F. ) ;
#706 = ORIENTED_EDGE ( 'NONE', *, *, #216, .T. ) ;
#707 = FACE_OUTER_BOUND ( 'NONE', #121, .T. ) ;
#708 = LINE ( 'NONE', #187, #510 ) ;
#709 = CARTESIAN_POINT ( 'NONE',  ( 4.999999999999972466, 165.0000000000000000, 0.000000000000000000 ) ) ;
#710 = EDGE_LOOP ( 'NONE', ( #445, #843, #106, #26 ) ) ;
#711 = AXIS2_PLACEMENT_3D ( 'NONE', #549, #385, #556 ) ;
#712 = DIRECTION ( 'NONE',  ( 1.000000000000000000, 0.000000000000000000, 0.000000000000000000 ) ) ;
#713 = CIRCLE ( 'NONE', #202, 1.699999999999987965 ) ;
#714 = AXIS2_PLACEMENT_3D ( 'NONE', #747, #419, #595 ) ;
#715 = CARTESIAN_POINT ( 'NONE',  ( -8.163404592832031007E-16, 4.999999999999999112, 3.000000000000000000 ) ) ;
#716 = CARTESIAN_POINT ( 'NONE',  ( 6.699999999999970868, 165.0000000000000000, 0.000000000000000000 ) ) ;
#717 = ORIENTED_EDGE ( 'NONE', *, *, #797, .F. ) ;
#718 = CARTESIAN_POINT ( 'NONE',  ( 4.999999999999972466, 165.0000000000000000, 3.000000000000000000 ) ) ;
#719 = FACE_OUTER_BOUND ( 'NONE', #824, .T. ) ;
#720 = CARTESIAN_POINT ( 'NONE',  ( 6.699999999999970868, 85.00000000000000000, 0.000000000000000000 ) ) ;
#721 = ORIENTED_EDGE ( 'NONE', *, *, #640, .F. ) ;
#722 = EDGE_CURVE ( 'NONE', #785, #1042, #1111, .T. ) ;
#723 = CARTESIAN_POINT ( 'NONE',  ( 95.00000000000000000, 5.000000000000000000, 3.000000000000000000 ) ) ;
#724 = DIRECTION ( 'NONE',  ( -1.000000000000000000, 0.000000000000000000, 0.000000000000000000 ) ) ;
#725 = DIRECTION ( 'NONE',  ( -0.000000000000000000, -0.000000000000000000, 1.000000000000000000 ) ) ;
#726 = ORIENTED_EDGE ( 'NONE', *, *, #172, .F. ) ;
#727 = VECTOR ( 'NONE', #966, 1000.000000000000000 ) ;
#728 = ORIENTED_EDGE ( 'NONE', *, *, #342, .F. ) ;
#729 = DIRECTION ( 'NONE',  ( -0.000000000000000000, -0.000000000000000000, 1.000000000000000000 ) ) ;
#730 = AXIS2_PLACEMENT_3D ( 'NONE', #116, #643, #969 ) ;
#731 = AXIS2_PLACEMENT_3D ( 'NONE', #585, #144, #651 ) ;
#732 = CIRCLE ( 'NONE', #41, 3.149999999999999911 ) ;
#733 = CARTESIAN_POINT ( 'NONE',  ( 49.99999999999996447, 165.0000000000000000, 0.000000000000000000 ) ) ;
#734 = CIRCLE ( 'NONE', #246, 3.149999999999999911 ) ;
#735 = SURFACE_STYLE_FILL_AREA ( #311 ) ;
#736 = EDGE_LOOP ( 'NONE', ( #50, #721, #533, #1112 ) ) ;
#737 = CARTESIAN_POINT ( 'NONE',  ( 93.30000000000001137, 5.000000000000000000, 0.000000000000000000 ) ) ;
#738 = CARTESIAN_POINT ( 'NONE',  ( 46.84999999999995879, 165.0000000000000000, 3.000000000000001776 ) ) ;
#739 = DIRECTION ( 'NONE',  ( 1.000000000000000000, 0.000000000000000000, 0.000000000000000000 ) ) ;
#740 = FACE_OUTER_BOUND ( 'NONE', #710, .T. ) ;
#741 = LINE ( 'NONE', #827, #867 ) ;
#742 = EDGE_CURVE ( 'NONE', #796, #175, #577, .T. ) ;
#743 = CYLINDRICAL_SURFACE ( 'NONE', #578, 1.699999999999998401 ) ;
#744 = ORIENTED_EDGE ( 'NONE', *, *, #698, .F. ) ;
#745 = EDGE_LOOP ( 'NONE', ( #286, #1097 ) ) ;
#746 = CARTESIAN_POINT ( 'NONE',  ( 94.99999999999997158, 170.0000000000000000, 3.000000000000000000 ) ) ;
#747 = CARTESIAN_POINT ( 'NONE',  ( 95.00000000000000000, 85.00000000000000000, 3.000000000000001776 ) ) ;
#748 = EDGE_CURVE ( 'NONE', #32, #67, #612, .T. ) ;
#749 = ORIENTED_EDGE ( 'NONE', *, *, #309, .T. ) ;
#750 = DIRECTION ( 'NONE',  ( 1.000000000000000000, 1.632680918566406547E-16, -0.000000000000000000 ) ) ;
#751 = AXIS2_PLACEMENT_3D ( 'NONE', #112, #1081, #759 ) ;
#752 = APPLICATION_PROTOCOL_DEFINITION ( 'draft international standard', 'automotive_design', 1998, #874 ) ;
#753 = AXIS2_PLACEMENT_3D ( 'NONE', #361, #1038, #965 ) ;
#754 = AXIS2_PLACEMENT_3D ( 'NONE', #897, #1059, #118 ) ;
#755 = CARTESIAN_POINT ( 'NONE',  ( 4.999999999999973355, 170.0000000000000000, 0.000000000000000000 ) ) ;
#756 = ORIENTED_EDGE ( 'NONE', *, *, #346, .F. ) ;
#757 = DIRECTION ( 'NONE',  ( -0.000000000000000000, -0.000000000000000000, 1.000000000000000000 ) ) ;
#758 = DIRECTION ( 'NONE',  ( -1.000000000000000000, 0.000000000000000000, 0.000000000000000000 ) ) ;
#759 = DIRECTION ( 'NONE',  ( 1.000000000000000000, 0.000000000000000000, 0.000000000000000000 ) ) ;
#760 = VERTEX_POINT ( 'NONE', #879 ) ;
#761 = DIRECTION ( 'NONE',  ( -0.000000000000000000, -0.000000000000000000, 1.000000000000000000 ) ) ;
#762 = ORIENTED_EDGE ( 'NONE', *, *, #695, .T. ) ;
#763 = EDGE_CURVE ( 'NONE', #40, #347, #713, .T. ) ;
#764 = FACE_BOUND ( 'NONE', #223, .T. ) ;
#765 = FACE_OUTER_BOUND ( 'NONE', #937, .T. ) ;
#766 = EDGE_LOOP ( 'NONE', ( #1032, #571, #851, #786 ) ) ;
#767 = CARTESIAN_POINT ( 'NONE',  ( 4.999999999999983125, 85.00000000000000000, 3.000000000000001776 ) ) ;
#768 = CLOSED_SHELL ( 'NONE', ( #171, #329, #1010, #674, #465, #384, #139, #443, #496, #886, #500, #348, #297, #600, #838, #1057, #194, #439, #987, #532, #167, #804, #76, #1110, #225, #904, #401, #145, #360, #586, #646, #421, #507, #1087 ) ) ;
#769 = CARTESIAN_POINT ( 'NONE',  ( 95.00000000000000000, 85.00000000000000000, 0.000000000000000000 ) ) ;
#770 = DIRECTION ( 'NONE',  ( -1.000000000000000000, 0.000000000000000000, 0.000000000000000000 ) ) ;
#771 = CIRCLE ( 'NONE', #753, 1.699999999999987965 ) ;
#772 = CIRCLE ( 'NONE', #1, 1.699999999999993072 ) ;
#773 = ORIENTED_EDGE ( 'NONE', *, *, #947, .F. ) ;
#774 = EDGE_CURVE ( 'NONE', #945, #389, #224, .T. ) ;
#775 = DIRECTION ( 'NONE',  ( -0.000000000000000000, -0.000000000000000000, 1.000000000000000000 ) ) ;
#776 = CARTESIAN_POINT ( 'NONE',  ( -2.775557561562891351E-14, 170.0000000000000000, 0.000000000000000000 ) ) ;
#777 = ORIENTED_EDGE ( 'NONE', *, *, #309, .F. ) ;
#778 = DIRECTION ( 'NONE',  ( -0.000000000000000000, -0.000000000000000000, 1.000000000000000000 ) ) ;
#779 = AXIS2_PLACEMENT_3D ( 'NONE', #479, #12, #195 ) ;
#780 = ORIENTED_EDGE ( 'NONE', *, *, #991, .T. ) ;
#781 = ORIENTED_EDGE ( 'NONE', *, *, #10, .T. ) ;
#782 = AXIS2_PLACEMENT_3D ( 'NONE', #323, #825, #62 ) ;
#783 = EDGE_CURVE ( 'NONE', #993, #823, #841, .T. ) ;
#784 = DIRECTION ( 'NONE',  ( 1.000000000000000000, 0.000000000000000000, 0.000000000000000000 ) ) ;
#785 = VERTEX_POINT ( 'NONE', #365 ) ;
#786 = ORIENTED_EDGE ( 'NONE', *, *, #434, .F. ) ;
#787 = ORIENTED_EDGE ( 'NONE', *, *, #608, .T. ) ;
#788 = DIRECTION ( 'NONE',  ( 1.000000000000000000, 0.000000000000000000, 0.000000000000000000 ) ) ;
#789 = EDGE_CURVE ( 'NONE', #1024, #444, #708, .T. ) ;
#790 = CARTESIAN_POINT ( 'NONE',  ( 6.699999999999990408, 5.000000000000004441, 3.000000000000000000 ) ) ;
#791 = DIRECTION ( 'NONE',  ( 0.7071067811865487940, 0.000000000000000000, 0.7071067811865463515 ) ) ;
#792 = ORIENTED_EDGE ( 'NONE', *, *, #518, .T. ) ;
#793 = CARTESIAN_POINT ( 'NONE',  ( 51.69999999999994600, 165.0000000000000000, 0.000000000000000000 ) ) ;
#794 = DIRECTION ( 'NONE',  ( 0.000000000000000000, 0.000000000000000000, -1.000000000000000000 ) ) ;
#795 = DIRECTION ( 'NONE',  ( 1.000000000000000000, 0.000000000000000000, 0.000000000000000000 ) ) ;
#796 = VERTEX_POINT ( 'NONE', #936 ) ;
#797 = EDGE_CURVE ( 'NONE', #288, #143, #647, .T. ) ;
#798 = PLANE ( 'NONE',  #730 ) ;
#799 = AXIS2_PLACEMENT_3D ( 'NONE', #923, #757, #572 ) ;
#800 = AXIS2_PLACEMENT_3D ( 'NONE', #341, #71, #920 ) ;
#801 = DIRECTION ( 'NONE',  ( 0.000000000000000000, -1.000000000000000000, 0.000000000000000000 ) ) ;
#802 = DIRECTION ( 'NONE',  ( -1.000000000000000000, 0.000000000000000000, 0.000000000000000000 ) ) ;
#803 = FACE_OUTER_BOUND ( 'NONE', #1102, .T. ) ;
#804 = ADVANCED_FACE ( 'NONE', ( #699 ), #266, .F. ) ;
#805 = CARTESIAN_POINT ( 'NONE',  ( 4.999999999999972466, 165.0000000000000000, 3.000000000000000000 ) ) ;
#806 = VERTEX_POINT ( 'NONE', #423 ) ;
#807 = DIRECTION ( 'NONE',  ( 1.000000000000000000, 0.000000000000000000, 0.000000000000000000 ) ) ;
#808 = CYLINDRICAL_SURFACE ( 'NONE', #63, 1.699999999999993072 ) ;
#809 = DIRECTION ( 'NONE',  ( -0.000000000000000000, -0.000000000000000000, 1.000000000000000000 ) ) ;
#810 = CARTESIAN_POINT ( 'NONE',  ( 4.999999999999999112, 0.000000000000000000, 3.000000000000000000 ) ) ;
#811 = EDGE_CURVE ( 'NONE', #806, #796, #615, .T. ) ;
#812 = ORIENTED_EDGE ( 'NONE', *, *, #527, .F. ) ;
#813 = CARTESIAN_POINT ( 'NONE',  ( 96.69999999999998863, 165.0000000000000284, 3.000000000000000000 ) ) ;
#814 = CARTESIAN_POINT ( 'NONE',  ( 4.999999999999983125, 85.00000000000000000, 1.549999999999993161 ) ) ;
#815 = DIRECTION ( 'NONE',  ( -1.000000000000000000, 0.000000000000000000, 0.000000000000000000 ) ) ;
#816 = LINE ( 'NONE', #362, #574 ) ;
#817 = ORIENTED_EDGE ( 'NONE', *, *, #562, .T. ) ;
#818 = DIRECTION ( 'NONE',  ( -0.000000000000000000, -0.000000000000000000, 1.000000000000000000 ) ) ;
#819 = VECTOR ( 'NONE', #198, 1000.000000000000000 ) ;
#820 = DIRECTION ( 'NONE',  ( -0.000000000000000000, -0.000000000000000000, 1.000000000000000000 ) ) ;
#821 = AXIS2_PLACEMENT_3D ( 'NONE', #503, #750, #836 ) ;
#822 = CARTESIAN_POINT ( 'NONE',  ( 96.69999999999998863, 85.00000000000000000, 0.000000000000000000 ) ) ;
#823 = VERTEX_POINT ( 'NONE', #5 ) ;
#824 = EDGE_LOOP ( 'NONE', ( #998, #6, #363, #75 ) ) ;
#825 = DIRECTION ( 'NONE',  ( -0.000000000000000000, -0.000000000000000000, 1.000000000000000000 ) ) ;
#826 = DIRECTION ( 'NONE',  ( 1.000000000000000000, 0.000000000000000000, 0.000000000000000000 ) ) ;
#827 = CARTESIAN_POINT ( 'NONE',  ( 6.699999999999970868, 165.0000000000000000, 3.000000000000000000 ) ) ;
#828 = DIRECTION ( 'NONE',  ( 1.000000000000000000, 0.000000000000000000, 0.000000000000000000 ) ) ;
#829 = EDGE_LOOP ( 'NONE', ( #281, #609 ) ) ;
#830 = ORIENTED_EDGE ( 'NONE', *, *, #119, .F. ) ;
#831 = CARTESIAN_POINT ( 'NONE',  ( 95.00000000000000000, 5.000000000000000000, 3.000000000000000000 ) ) ;
#832 = LINE ( 'NONE', #1100, #912 ) ;
#833 = CARTESIAN_POINT ( 'NONE',  ( 3.299999999999994049, 5.000000000000004441, 0.000000000000000000 ) ) ;
#834 = CARTESIAN_POINT ( 'NONE',  ( 96.69999999999998863, 5.000000000000000000, 3.000000000000000000 ) ) ;
#835 = ORIENTED_EDGE ( 'NONE', *, *, #869, .F. ) ;
#836 = DIRECTION ( 'NONE',  ( -1.632680918566406547E-16, 1.000000000000000000, 0.000000000000000000 ) ) ;
#837 = ORIENTED_EDGE ( 'NONE', *, *, #258, .T. ) ;
#838 = ADVANCED_FACE ( 'NONE', ( #620 ), #74, .F. ) ;
#839 = AXIS2_PLACEMENT_3D ( 'NONE', #971, #961, #293 ) ;
#840 = AXIS2_PLACEMENT_3D ( 'NONE', #511, #252, #249 ) ;
#841 = CIRCLE ( 'NONE', #981, 3.149999999999999911 ) ;
#842 = VECTOR ( 'NONE', #379, 1000.000000000000000 ) ;
#843 = ORIENTED_EDGE ( 'NONE', *, *, #457, .T. ) ;
#844 = LINE ( 'NONE', #137, #321 ) ;
#845 = EDGE_LOOP ( 'NONE', ( #1068, #876, #49, #322 ) ) ;
#846 = CARTESIAN_POINT ( 'NONE',  ( 93.30000000000001137, 165.0000000000000284, 0.000000000000000000 ) ) ;
#847 = ORIENTED_EDGE ( 'NONE', *, *, #621, .F. ) ;
#848 = DIRECTION ( 'NONE',  ( 1.000000000000000000, 0.000000000000000000, 0.000000000000000000 ) ) ;
#849 = ORIENTED_EDGE ( 'NONE', *, *, #1073, .F. ) ;
#850 = CARTESIAN_POINT ( 'NONE',  ( 0.000000000000000000, 0.000000000000000000, 3.000000000000000000 ) ) ;
#851 = ORIENTED_EDGE ( 'NONE', *, *, #774, .T. ) ;
#852 = EDGE_CURVE ( 'NONE', #367, #661, #676, .T. ) ;
#853 = AXIS2_PLACEMENT_3D ( 'NONE', #995, #213, #308 ) ;
#854 = AXIS2_PLACEMENT_3D ( 'NONE', #599, #440, #848 ) ;
#855 = DIRECTION ( 'NONE',  ( -0.000000000000000000, -0.000000000000000000, 1.000000000000000000 ) ) ;
#856 = VECTOR ( 'NONE', #292, 1000.000000000000000 ) ;
#857 = ORIENTED_EDGE ( 'NONE', *, *, #1004, .F. ) ;
#858 = EDGE_CURVE ( 'NONE', #67, #83, #1030, .T. ) ;
#859 = VERTEX_POINT ( 'NONE', #284 ) ;
#860 = VERTEX_POINT ( 'NONE', #716 ) ;
#861 = ORIENTED_EDGE ( 'NONE', *, *, #482, .T. ) ;
#862 = UNCERTAINTY_MEASURE_WITH_UNIT (LENGTH_MEASURE( 1.000000000000000082E-05 ), #28, 'distance_accuracy_value', 'NONE');
#863 = DIRECTION ( 'NONE',  ( -0.7071067811865487940, 8.659560562354948882E-17, 0.7071067811865463515 ) ) ;
#864 = EDGE_LOOP ( 'NONE', ( #404, #616 ) ) ;
#865 = EDGE_CURVE ( 'NONE', #436, #553, #373, .T. ) ;
#866 = DIRECTION ( 'NONE',  ( -0.000000000000000000, -0.000000000000000000, 1.000000000000000000 ) ) ;
#867 = VECTOR ( 'NONE', #52, 1000.000000000000000 ) ;
#868 = VECTOR ( 'NONE', #927, 1000.000000000000000 ) ;
#869 = EDGE_CURVE ( 'NONE', #54, #696, #734, .T. ) ;
#870 = VERTEX_POINT ( 'NONE', #37 ) ;
#871 = VECTOR ( 'NONE', #588, 1000.000000000000000 ) ;
#872 = FACE_BOUND ( 'NONE', #1035, .T. ) ;
#873 = AXIS2_PLACEMENT_3D ( 'NONE', #1021, #326, #758 ) ;
#874 = APPLICATION_CONTEXT ( 'automotive_design' ) ;
#875 = CARTESIAN_POINT ( 'NONE',  ( 4.999999999999972466, 165.0000000000000000, 3.000000000000000000 ) ) ;
#876 = ORIENTED_EDGE ( 'NONE', *, *, #180, .T. ) ;
#877 = EDGE_LOOP ( 'NONE', ( #134, #726, #407, #700 ) ) ;
#878 = FACE_BOUND ( 'NONE', #650, .T. ) ;
#879 = CARTESIAN_POINT ( 'NONE',  ( 48.29999999999997584, 165.0000000000000000, 0.000000000000000000 ) ) ;
#880 = EDGE_CURVE ( 'NONE', #55, #547, #81, .T. ) ;
#881 = DIRECTION ( 'NONE',  ( 1.000000000000000000, 0.000000000000000000, 0.000000000000000000 ) ) ;
#882 = ORIENTED_EDGE ( 'NONE', *, *, #783, .F. ) ;
#883 = DIRECTION ( 'NONE',  ( -0.000000000000000000, -0.000000000000000000, 1.000000000000000000 ) ) ;
#884 = UNCERTAINTY_MEASURE_WITH_UNIT (LENGTH_MEASURE( 1.000000000000000082E-05 ), #141, 'distance_accuracy_value', 'NONE');
#885 = CARTESIAN_POINT ( 'NONE',  ( 1.849999999999981881, 85.00000000000000000, 3.000000000000001776 ) ) ;
#886 = ADVANCED_FACE ( 'NONE', ( #648 ), #472, .F. ) ;
#887 = CARTESIAN_POINT ( 'NONE',  ( 4.999999999999992006, 5.000000000000004441, 3.000000000000000000 ) ) ;
#888 = CARTESIAN_POINT ( 'NONE',  ( 48.29999999999997584, 165.0000000000000000, 3.000000000000000000 ) ) ;
#889 = MECHANICAL_DESIGN_GEOMETRIC_PRESENTATION_REPRESENTATION (  '', ( #594 ), #555 ) ;
#890 = ORIENTED_EDGE ( 'NONE', *, *, #154, .F. ) ;
#891 = CIRCLE ( 'NONE', #681, 1.699999999999986189 ) ;
#892 = DIRECTION ( 'NONE',  ( 1.000000000000000000, 0.000000000000000000, 0.000000000000000000 ) ) ;
#893 = PRODUCT_DEFINITION_SHAPE ( 'NONE', 'NONE',  #1022 ) ;
#894 = AXIS2_PLACEMENT_3D ( 'NONE', #918, #729, #406 ) ;
#895 =( GEOMETRIC_REPRESENTATION_CONTEXT ( 3 ) GLOBAL_UNCERTAINTY_ASSIGNED_CONTEXT ( ( #884 ) ) GLOBAL_UNIT_ASSIGNED_CONTEXT ( ( #141, #57, #147 ) ) REPRESENTATION_CONTEXT ( 'NONE', 'WORKASPACE' ) );
#896 = CARTESIAN_POINT ( 'NONE',  ( 95.00000000000000000, 165.0000000000000284, 3.000000000000000000 ) ) ;
#897 = CARTESIAN_POINT ( 'NONE',  ( 49.99999999999996447, 5.000000000000000000, 3.000000000000001776 ) ) ;
#898 = ORIENTED_EDGE ( 'NONE', *, *, #509, .F. ) ;
#899 = FACE_BOUND ( 'NONE', #498, .T. ) ;
#900 = CARTESIAN_POINT ( 'NONE',  ( 0.000000000000000000, 0.000000000000000000, 3.000000000000000000 ) ) ;
#901 = DIRECTION ( 'NONE',  ( -0.000000000000000000, -0.000000000000000000, 1.000000000000000000 ) ) ;
#902 = ORIENTED_EDGE ( 'NONE', *, *, #525, .T. ) ;
#903 = VERTEX_POINT ( 'NONE', #466 ) ;
#904 = ADVANCED_FACE ( 'NONE', ( #803 ), #658, .T. ) ;
#905 = DIRECTION ( 'NONE',  ( -0.000000000000000000, -0.000000000000000000, 1.000000000000000000 ) ) ;
#906 = DIRECTION ( 'NONE',  ( 0.000000000000000000, 0.000000000000000000, -1.000000000000000000 ) ) ;
#907 = CARTESIAN_POINT ( 'NONE',  ( 48.29999999999997584, 165.0000000000000000, 1.549999999999993161 ) ) ;
#908 = VERTEX_POINT ( 'NONE', #126 ) ;
#909 = CIRCLE ( 'NONE', #1104, 1.699999999999998401 ) ;
#910 = ORIENTED_EDGE ( 'NONE', *, *, #852, .F. ) ;
#911 = DIRECTION ( 'NONE',  ( 1.000000000000000000, 0.000000000000000000, 0.000000000000000000 ) ) ;
#912 = VECTOR ( 'NONE', #157, 1000.000000000000000 ) ;
#913 = FACE_OUTER_BOUND ( 'NONE', #667, .T. ) ;
#914 = VECTOR ( 'NONE', #669, 1000.000000000000000 ) ;
#915 = DIRECTION ( 'NONE',  ( 0.000000000000000000, 0.000000000000000000, 1.000000000000000000 ) ) ;
#916 = ORIENTED_EDGE ( 'NONE', *, *, #482, .F. ) ;
#917 = ORIENTED_EDGE ( 'NONE', *, *, #688, .T. ) ;
#918 = CARTESIAN_POINT ( 'NONE',  ( 49.99999999999996447, 5.000000000000000000, 1.549999999999993161 ) ) ;
#919 = FACE_OUTER_BOUND ( 'NONE', #512, .T. ) ;
#920 = DIRECTION ( 'NONE',  ( 1.000000000000000000, 0.000000000000000000, 0.000000000000000000 ) ) ;
#921 = EDGE_CURVE ( 'NONE', #661, #1094, #340, .T. ) ;
#922 = EDGE_LOOP ( 'NONE', ( #603, #1008, #534, #849 ) ) ;
#923 = CARTESIAN_POINT ( 'NONE',  ( 95.00000000000000000, 85.00000000000000000, 3.000000000000001776 ) ) ;
#924 = LINE ( 'NONE', #330, #508 ) ;
#925 = CARTESIAN_POINT ( 'NONE',  ( 93.30000000000001137, 85.00000000000000000, 1.549999999999993161 ) ) ;
#926 = VERTEX_POINT ( 'NONE', #201 ) ;
#927 = DIRECTION ( 'NONE',  ( 1.632680918566406547E-16, -1.000000000000000000, -0.000000000000000000 ) ) ;
#928 = CIRCLE ( 'NONE', #354, 3.149999999999999911 ) ;
#929 = CARTESIAN_POINT ( 'NONE',  ( 3.299999999999994937, 85.00000000000000000, 3.000000000000000000 ) ) ;
#930 = AXIS2_PLACEMENT_3D ( 'NONE', #359, #775, #349 ) ;
#931 = DIRECTION ( 'NONE',  ( 0.000000000000000000, -0.000000000000000000, 1.000000000000000000 ) ) ;
#932 = CARTESIAN_POINT ( 'NONE',  ( 3.299999999999974065, 165.0000000000000000, 3.000000000000000000 ) ) ;
#933 = AXIS2_PLACEMENT_3D ( 'NONE', #831, #905, #591 ) ;
#934 = VECTOR ( 'NONE', #319, 1000.000000000000000 ) ;
#935 = ORIENTED_EDGE ( 'NONE', *, *, #695, .F. ) ;
#936 = CARTESIAN_POINT ( 'NONE',  ( 48.29999999999997584, 5.000000000000000000, 1.549999999999993161 ) ) ;
#937 = EDGE_LOOP ( 'NONE', ( #812, #437, #606, #102 ) ) ;
#938 = EDGE_CURVE ( 'NONE', #339, #689, #538, .T. ) ;
#939 = APPLICATION_PROTOCOL_DEFINITION ( 'draft international standard', 'automotive_design', 1998, #1041 ) ;
#940 = VERTEX_POINT ( 'NONE', #30 ) ;
#941 = ORIENTED_EDGE ( 'NONE', *, *, #325, .T. ) ;
#942 = CIRCLE ( 'NONE', #1069, 1.699999999999993072 ) ;
#943 = AXIS2_PLACEMENT_3D ( 'NONE', #313, #818, #328 ) ;
#944 = ORIENTED_EDGE ( 'NONE', *, *, #33, .T. ) ;
#945 = VERTEX_POINT ( 'NONE', #996 ) ;
#946 = DIRECTION ( 'NONE',  ( 0.000000000000000000, 0.000000000000000000, -1.000000000000000000 ) ) ;
#947 = EDGE_CURVE ( 'NONE', #502, #760, #115, .T. ) ;
#948 = EDGE_LOOP ( 'NONE', ( #675, #1055, #579, #1083 ) ) ;
#949 = EDGE_LOOP ( 'NONE', ( #265, #256, #3, #944 ) ) ;
#950 = DIRECTION ( 'NONE',  ( -0.000000000000000000, -0.000000000000000000, 1.000000000000000000 ) ) ;
#951 = ORIENTED_EDGE ( 'NONE', *, *, #1099, .T. ) ;
#952 = EDGE_CURVE ( 'NONE', #997, #701, #478, .T. ) ;
#953 = CARTESIAN_POINT ( 'NONE',  ( 96.69999999999998863, 85.00000000000000000, 1.549999999999993161 ) ) ;
#954 = ORIENTED_EDGE ( 'NONE', *, *, #1113, .T. ) ;
#955 = EDGE_LOOP ( 'NONE', ( #344, #491, #967, #570, #1116, #294, #954, #164 ) ) ;
#956 = CYLINDRICAL_SURFACE ( 'NONE', #682, 1.699999999999998401 ) ;
#957 = AXIS2_PLACEMENT_3D ( 'NONE', #641, #454, #127 ) ;
#958 = DIRECTION ( 'NONE',  ( 0.7071067811865487940, 0.000000000000000000, 0.7071067811865463515 ) ) ;
#959 = VECTOR ( 'NONE', #69, 1000.000000000000000 ) ;
#960 = AXIS2_PLACEMENT_3D ( 'NONE', #723, #1062, #563 ) ;
#961 = DIRECTION ( 'NONE',  ( -0.000000000000000000, -0.000000000000000000, 1.000000000000000000 ) ) ;
#962 = ORIENTED_EDGE ( 'NONE', *, *, #938, .T. ) ;
#963 = VECTOR ( 'NONE', #104, 1000.000000000000000 ) ;
#964 = DIRECTION ( 'NONE',  ( 1.000000000000000000, 0.000000000000000000, 0.000000000000000000 ) ) ;
#965 = DIRECTION ( 'NONE',  ( 1.000000000000000000, 0.000000000000000000, 0.000000000000000000 ) ) ;
#966 = DIRECTION ( 'NONE',  ( 0.000000000000000000, 0.000000000000000000, -1.000000000000000000 ) ) ;
#967 = ORIENTED_EDGE ( 'NONE', *, *, #621, .T. ) ;
#968 = EDGE_CURVE ( 'NONE', #1070, #859, #628, .T. ) ;
#969 = DIRECTION ( 'NONE',  ( -1.000000000000000000, 0.000000000000000000, -0.000000000000000000 ) ) ;
#970 = DIRECTION ( 'NONE',  ( 0.000000000000000000, 0.000000000000000000, -1.000000000000000000 ) ) ;
#971 = CARTESIAN_POINT ( 'NONE',  ( 49.99999999999996447, 165.0000000000000000, 1.549999999999993161 ) ) ;
#972 = ORIENTED_EDGE ( 'NONE', *, *, #722, .T. ) ;
#973 = LINE ( 'NONE', #1056, #277 ) ;
#974 = PRODUCT_RELATED_PRODUCT_CATEGORY ( 'part', '', ( #545 ) ) ;
#975 = DIRECTION ( 'NONE',  ( 1.000000000000000000, 0.000000000000000000, 0.000000000000000000 ) ) ;
#976 = DIRECTION ( 'NONE',  ( -1.000000000000000000, 0.000000000000000000, 0.000000000000000000 ) ) ;
#977 = CARTESIAN_POINT ( 'NONE',  ( 96.69999999999998863, 165.0000000000000284, 3.000000000000000000 ) ) ;
#978 = EDGE_LOOP ( 'NONE', ( #693, #780, #861, #382 ) ) ;
#979 = AXIS2_PLACEMENT_3D ( 'NONE', #191, #1072, #485 ) ;
#980 = DIRECTION ( 'NONE',  ( -0.000000000000000000, -0.000000000000000000, 1.000000000000000000 ) ) ;
#981 = AXIS2_PLACEMENT_3D ( 'NONE', #183, #866, #784 ) ;
#982 = CONICAL_SURFACE ( 'NONE', #754, 3.149999999999999911, 0.7853981633974500554 ) ;
#983 = FACE_OUTER_BOUND ( 'NONE', #685, .T. ) ;
#984 = DIRECTION ( 'NONE',  ( 0.000000000000000000, 0.000000000000000000, -1.000000000000000000 ) ) ;
#985 = CYLINDRICAL_SURFACE ( 'NONE', #1065, 5.000000000000004441 ) ;
#986 = EDGE_LOOP ( 'NONE', ( #149, #417 ) ) ;
#987 = ADVANCED_FACE ( 'NONE', ( #1074 ), #743, .F. ) ;
#988 = CARTESIAN_POINT ( 'NONE',  ( 6.699999999999970868, 85.00000000000000000, 3.000000000000000000 ) ) ;
#989 = LINE ( 'NONE', #885, #819 ) ;
#990 = CARTESIAN_POINT ( 'NONE',  ( 96.69999999999998863, 85.00000000000000000, 3.000000000000000000 ) ) ;
#991 = EDGE_CURVE ( 'NONE', #1070, #312, #558, .T. ) ;
#992 = VERTEX_POINT ( 'NONE', #907 ) ;
#993 = VERTEX_POINT ( 'NONE', #132 ) ;
#994 = FACE_OUTER_BOUND ( 'NONE', #922, .T. ) ;
#995 = CARTESIAN_POINT ( 'NONE',  ( 49.99999999999996447, 165.0000000000000000, 3.000000000000001776 ) ) ;
#996 = CARTESIAN_POINT ( 'NONE',  ( 93.30000000000001137, 5.000000000000000000, 3.000000000000000000 ) ) ;
#997 = VERTEX_POINT ( 'NONE', #822 ) ;
#998 = ORIENTED_EDGE ( 'NONE', *, *, #742, .F. ) ;
#999 = CARTESIAN_POINT ( 'NONE',  ( 95.00000000000000000, 5.000000000000000000, 3.000000000000000000 ) ) ;
#1000 = FACE_BOUND ( 'NONE', #85, .T. ) ;
#1001 = VECTOR ( 'NONE', #484, 1000.000000000000000 ) ;
#1002 = AXIS2_PLACEMENT_3D ( 'NONE', #364, #626, #964 ) ;
#1003 = AXIS2_PLACEMENT_3D ( 'NONE', #25, #809, #976 ) ;
#1004 = EDGE_CURVE ( 'NONE', #444, #474, #138, .T. ) ;
#1005 = DIRECTION ( 'NONE',  ( -0.000000000000000000, -0.000000000000000000, 1.000000000000000000 ) ) ;
#1006 = DIRECTION ( 'NONE',  ( 1.632680918566406547E-16, -1.000000000000000000, 0.000000000000000000 ) ) ;
#1007 = DIRECTION ( 'NONE',  ( 1.000000000000000000, 0.000000000000000000, 0.000000000000000000 ) ) ;
#1008 = ORIENTED_EDGE ( 'NONE', *, *, #811, .T. ) ;
#1009 = DIRECTION ( 'NONE',  ( 1.000000000000000000, 0.000000000000000000, 0.000000000000000000 ) ) ;
#1010 = ADVANCED_FACE ( 'NONE', ( #719 ), #982, .F. ) ;
#1011 = ORIENTED_EDGE ( 'NONE', *, *, #921, .F. ) ;
#1012 = CARTESIAN_POINT ( 'NONE',  ( 53.14999999999996305, 5.000000000000000000, 3.000000000000001776 ) ) ;
#1013 = EDGE_CURVE ( 'NONE', #696, #54, #448, .T. ) ;
#1014 = DIRECTION ( 'NONE',  ( 1.000000000000000000, 0.000000000000000000, 0.000000000000000000 ) ) ;
#1015 = DIRECTION ( 'NONE',  ( 0.000000000000000000, 0.000000000000000000, -1.000000000000000000 ) ) ;
#1016 = CARTESIAN_POINT ( 'NONE',  ( 4.999999999999973355, 170.0000000000000000, 3.000000000000000000 ) ) ;
#1017 = AXIS2_PLACEMENT_3D ( 'NONE', #644, #36, #739 ) ;
#1018 = LINE ( 'NONE', #850, #914 ) ;
#1019 = EDGE_CURVE ( 'NONE', #269, #288, #1086, .T. ) ;
#1020 = ORIENTED_EDGE ( 'NONE', *, *, #287, .T. ) ;
#1021 = CARTESIAN_POINT ( 'NONE',  ( 95.00000000000000000, 165.0000000000000284, 0.000000000000000000 ) ) ;
#1022 = PRODUCT_DEFINITION ( 'UNKNOWN', '', #305, #633 ) ;
#1023 = CYLINDRICAL_SURFACE ( 'NONE', #133, 1.699999999999987965 ) ;
#1024 = VERTEX_POINT ( 'NONE', #515 ) ;
#1025 = AXIS2_PLACEMENT_3D ( 'NONE', #805, #380, #795 ) ;
#1026 = EDGE_CURVE ( 'NONE', #859, #1070, #514, .T. ) ;
#1027 = AXIS2_PLACEMENT_3D ( 'NONE', #587, #336, #1014 ) ;
#1028 = DIRECTION ( 'NONE',  ( -0.000000000000000000, -0.000000000000000000, 1.000000000000000000 ) ) ;
#1029 = VECTOR ( 'NONE', #581, 1000.000000000000000 ) ;
#1030 = CIRCLE ( 'NONE', #559, 5.000000000000000000 ) ;
#1031 = ORIENTED_EDGE ( 'NONE', *, *, #260, .F. ) ;
#1032 = ORIENTED_EDGE ( 'NONE', *, *, #1033, .T. ) ;
#1033 = EDGE_CURVE ( 'NONE', #617, #580, #772, .T. ) ;
#1034 = LINE ( 'NONE', #87, #64 ) ;
#1035 = EDGE_LOOP ( 'NONE', ( #333, #450 ) ) ;
#1036 = EDGE_LOOP ( 'NONE', ( #744, #962, #263, #480, #890, #152, #397, #683 ) ) ;
#1037 = FACE_OUTER_BOUND ( 'NONE', #97, .T. ) ;
#1038 = DIRECTION ( 'NONE',  ( -0.000000000000000000, -0.000000000000000000, 1.000000000000000000 ) ) ;
#1039 = CARTESIAN_POINT ( 'NONE',  ( 95.00000000000000000, 0.000000000000000000, 3.000000000000000000 ) ) ;
#1040 = ORIENTED_EDGE ( 'NONE', *, *, #698, .T. ) ;
#1041 = APPLICATION_CONTEXT ( 'automotive_design' ) ;
#1042 = VERTEX_POINT ( 'NONE', #925 ) ;
#1043 = CARTESIAN_POINT ( 'NONE',  ( 6.699999999999990408, 5.000000000000004441, 0.000000000000000000 ) ) ;
#1044 = CIRCLE ( 'NONE', #779, 3.149999999999999911 ) ;
#1045 = CARTESIAN_POINT ( 'NONE',  ( 94.99999999999997158, 170.0000000000000000, 3.000000000000000000 ) ) ;
#1046 = AXIS2_PLACEMENT_3D ( 'NONE', #476, #906, #208 ) ;
#1047 = VECTOR ( 'NONE', #531, 1000.000000000000000 ) ;
#1048 = LINE ( 'NONE', #1039, #299 ) ;
#1049 = ORIENTED_EDGE ( 'NONE', *, *, #154, .T. ) ;
#1050 = AXIS2_PLACEMENT_3D ( 'NONE', #488, #794, #1064 ) ;
#1051 = CARTESIAN_POINT ( 'NONE',  ( 100.0000000000000000, 5.000000000000000888, 3.000000000000000000 ) ) ;
#1052 = CARTESIAN_POINT ( 'NONE',  ( 99.99999999999997158, 165.0000000000000000, 3.000000000000000000 ) ) ;
#1053 = CARTESIAN_POINT ( 'NONE',  ( 4.999999999999992006, 5.000000000000004441, 3.000000000000000000 ) ) ;
#1054 = DIRECTION ( 'NONE',  ( -0.000000000000000000, -0.000000000000000000, 1.000000000000000000 ) ) ;
#1055 = ORIENTED_EDGE ( 'NONE', *, *, #346, .T. ) ;
#1056 = CARTESIAN_POINT ( 'NONE',  ( 96.69999999999998863, 5.000000000000000000, 3.000000000000000000 ) ) ;
#1057 = ADVANCED_FACE ( 'NONE', ( #158 ), #663, .F. ) ;
#1058 = DIRECTION ( 'NONE',  ( 1.000000000000000000, 0.000000000000000000, 0.000000000000000000 ) ) ;
#1059 = DIRECTION ( 'NONE',  ( -0.000000000000000000, -0.000000000000000000, 1.000000000000000000 ) ) ;
#1060 = DIRECTION ( 'NONE',  ( -1.000000000000000000, 0.000000000000000000, 0.000000000000000000 ) ) ;
#1061 = ORIENTED_EDGE ( 'NONE', *, *, #748, .F. ) ;
#1062 = DIRECTION ( 'NONE',  ( -0.000000000000000000, -0.000000000000000000, 1.000000000000000000 ) ) ;
#1063 = DIRECTION ( 'NONE',  ( 0.000000000000000000, 0.000000000000000000, -1.000000000000000000 ) ) ;
#1064 = DIRECTION ( 'NONE',  ( -1.000000000000000000, 0.000000000000000000, 0.000000000000000000 ) ) ;
#1065 = AXIS2_PLACEMENT_3D ( 'NONE', #203, #560, #375 ) ;
#1066 = ORIENTED_EDGE ( 'NONE', *, *, #180, .F. ) ;
#1067 = CIRCLE ( 'NONE', #840, 5.000000000000000000 ) ;
#1068 = ORIENTED_EDGE ( 'NONE', *, *, #29, .F. ) ;
#1069 = AXIS2_PLACEMENT_3D ( 'NONE', #192, #109, #975 ) ;
#1070 = VERTEX_POINT ( 'NONE', #846 ) ;
#1071 = CYLINDRICAL_SURFACE ( 'NONE', #943, 1.699999999999986189 ) ;
#1072 = DIRECTION ( 'NONE',  ( -0.000000000000000000, -0.000000000000000000, 1.000000000000000000 ) ) ;
#1073 = EDGE_CURVE ( 'NONE', #926, #175, #411, .T. ) ;
#1074 = FACE_OUTER_BOUND ( 'NONE', #78, .T. ) ;
#1075 = SURFACE_SIDE_STYLE ('',( #735 ) ) ;
#1076 = ORIENTED_EDGE ( 'NONE', *, *, #82, .T. ) ;
#1077 = CARTESIAN_POINT ( 'NONE',  ( 49.99999999999996447, 5.000000000000000000, 0.000000000000000000 ) ) ;
#1078 = DIRECTION ( 'NONE',  ( -0.000000000000000000, -0.000000000000000000, 1.000000000000000000 ) ) ;
#1079 = DIRECTION ( 'NONE',  ( -0.000000000000000000, -0.000000000000000000, 1.000000000000000000 ) ) ;
#1080 = DIRECTION ( 'NONE',  ( 1.000000000000000000, 0.000000000000000000, 0.000000000000000000 ) ) ;
#1081 = DIRECTION ( 'NONE',  ( -0.000000000000000000, -0.000000000000000000, 1.000000000000000000 ) ) ;
#1082 = ORIENTED_EDGE ( 'NONE', *, *, #952, .F. ) ;
#1083 = ORIENTED_EDGE ( 'NONE', *, *, #611, .F. ) ;
#1084 = LINE ( 'NONE', #227, #664 ) ;
#1085 = EDGE_CURVE ( 'NONE', #1114, #426, #245, .T. ) ;
#1086 = LINE ( 'NONE', #932, #934 ) ;
#1087 = ADVANCED_FACE ( 'NONE', ( #162 ), #169, .F. ) ;
#1088 = ORIENTED_EDGE ( 'NONE', *, *, #84, .F. ) ;
#1089 = CARTESIAN_POINT ( 'NONE',  ( -2.775557561562891351E-14, 170.0000000000000000, 3.000000000000000000 ) ) ;
#1090 = CONICAL_SURFACE ( 'NONE', #979, 3.150000000000000799, 0.7853981633974498333 ) ;
#1091 = CONICAL_SURFACE ( 'NONE', #799, 3.149999999999999911, 0.7853981633974477239 ) ;
#1092 = PRODUCT_CONTEXT ( 'NONE', #874, 'mechanical' ) ;
#1093 = CARTESIAN_POINT ( 'NONE',  ( 4.999999999999973355, 165.0000000000000000, 0.000000000000000000 ) ) ;
#1094 = VERTEX_POINT ( 'NONE', #673 ) ;
#1095 = LINE ( 'NONE', #988, #1106 ) ;
#1096 = CARTESIAN_POINT ( 'NONE',  ( 95.00000000000000000, 5.000000000000000000, 0.000000000000000000 ) ) ;
#1097 = ORIENTED_EDGE ( 'NONE', *, *, #1085, .F. ) ;
#1098 = CARTESIAN_POINT ( 'NONE',  ( 48.29999999999997584, 5.000000000000000000, 3.000000000000000000 ) ) ;
#1099 = EDGE_CURVE ( 'NONE', #997, #785, #280, .T. ) ;
#1100 = CARTESIAN_POINT ( 'NONE',  ( -2.693923515634571110E-14, 165.0000000000000000, 3.000000000000000000 ) ) ;
#1101 = DIRECTION ( 'NONE',  ( 0.000000000000000000, 0.000000000000000000, -1.000000000000000000 ) ) ;
#1102 = EDGE_LOOP ( 'NONE', ( #1011, #910, #468, #242 ) ) ;
#1103 = DIRECTION ( 'NONE',  ( 1.000000000000000000, 0.000000000000000000, 0.000000000000000000 ) ) ;
#1104 = AXIS2_PLACEMENT_3D ( 'NONE', #709, #467, #1060 ) ;
#1105 = CONICAL_SURFACE ( 'NONE', #853, 3.149999999999999911, 0.7853981633974500554 ) ;
#1106 = VECTOR ( 'NONE', #153, 1000.000000000000000 ) ;
#1107 = AXIS2_PLACEMENT_3D ( 'NONE', #653, #393, #815 ) ;
#1108 = ORIENTED_EDGE ( 'NONE', *, *, #260, .T. ) ;
#1109 = ORIENTED_EDGE ( 'NONE', *, *, #589, .F. ) ;
#1110 = ADVANCED_FACE ( 'NONE', ( #765 ), #501, .T. ) ;
#1111 = LINE ( 'NONE', #703, #302 ) ;
#1112 = ORIENTED_EDGE ( 'NONE', *, *, #84, .T. ) ;
#1113 = EDGE_CURVE ( 'NONE', #32, #870, #1018, .T. ) ;
#1114 = VERTEX_POINT ( 'NONE', #833 ) ;
#1115 = CARTESIAN_POINT ( 'NONE',  ( 49.99999999999996447, 165.0000000000000000, 3.000000000000000000 ) ) ;
#1116 = ORIENTED_EDGE ( 'NONE', *, *, #542, .T. ) ;
#1117 = AXIS2_PLACEMENT_3D ( 'NONE', #624, #452, #892 ) ;
#1118 = DIRECTION ( 'NONE',  ( -0.000000000000000000, -0.000000000000000000, 1.000000000000000000 ) ) ;
#1119 = CIRCLE ( 'NONE', #523, 1.699999999999998401 ) ;
ENDSEC;
END-ISO-10303-21;
