ISO-10303-21;
HEADER;
FILE_DESCRIPTION (( 'STEP AP203' ),
    '1' );
FILE_NAME ('CHILLED-POSITION-COVER_V001.STEP',
    '2019-06-27T15:08:03',
    ( '' ),
    ( '' ),
    'SwSTEP 2.0',
    'SolidWorks 2019',
    '' );
FILE_SCHEMA (( 'CONFIG_CONTROL_DESIGN' ));
ENDSEC;

DATA;
#1 = CYLINDRICAL_SURFACE ( 'NONE', #389, 3.000000000000002665 ) ;
#2 = CARTESIAN_POINT ( 'NONE',  ( 0.0000000000000000000, 3.000000000000000000, -20.00999999999999801 ) ) ;
#3 = DIRECTION ( 'NONE',  ( 0.0000000000000000000, 0.0000000000000000000, -1.000000000000000000 ) ) ;
#4 = ORIENTED_EDGE ( 'NONE', *, *, #74, .T. ) ;
#5 = EDGE_LOOP ( 'NONE', ( #359, #450, #645, #1106 ) ) ;
#6 = CIRCLE ( 'NONE', #1068, 1.700000000000000178 ) ;
#7 = CARTESIAN_POINT ( 'NONE',  ( 61.00000000000001421, 3.000000000000000000, 39.85000000000000142 ) ) ;
#8 = EDGE_CURVE ( 'NONE', #679, #72, #799, .T. ) ;
#9 = CARTESIAN_POINT ( 'NONE',  ( -60.49999999999998579, 0.0000000000000000000, 41.05000000000000426 ) ) ;
#10 = VERTEX_POINT ( 'NONE', #115 ) ;
#11 = ADVANCED_FACE ( 'NONE', ( #806 ), #551, .F. ) ;
#12 = EDGE_CURVE ( 'NONE', #415, #992, #210, .T. ) ;
#13 = DIRECTION ( 'NONE',  ( -0.0000000000000000000, 1.000000000000000000, -0.0000000000000000000 ) ) ;
#14 = APPLICATION_CONTEXT ( 'configuration controlled 3d designs of mechanical parts and assemblies' ) ;
#15 = ORIENTED_EDGE ( 'NONE', *, *, #246, .T. ) ;
#16 = PLANE ( 'NONE',  #909 ) ;
#17 = ORIENTED_EDGE ( 'NONE', *, *, #726, .T. ) ;
#18 = DIRECTION ( 'NONE',  ( -0.0000000000000000000, 1.000000000000000000, -0.0000000000000000000 ) ) ;
#19 = CARTESIAN_POINT ( 'NONE',  ( 2.081899558550499294E-16, 3.000000000000000000, -21.70999999999999730 ) ) ;
#20 = DIRECTION ( 'NONE',  ( -0.0000000000000000000, 1.000000000000000000, -0.0000000000000000000 ) ) ;
#21 = VECTOR ( 'NONE', #572, 1000.000000000000000 ) ;
#22 = ADVANCED_FACE ( 'NONE', ( #731 ), #31, .F. ) ;
#23 = ORIENTED_EDGE ( 'NONE', *, *, #1007, .F. ) ;
#24 = DIRECTION ( 'NONE',  ( 0.0000000000000000000, 0.0000000000000000000, 1.000000000000000000 ) ) ;
#25 = EDGE_CURVE ( 'NONE', #79, #319, #987, .T. ) ;
#26 = VECTOR ( 'NONE', #678, 1000.000000000000000 ) ;
#27 = CARTESIAN_POINT ( 'NONE',  ( 60.50000000000001421, 0.0000000000000000000, -39.34999999999998721 ) ) ;
#28 = CARTESIAN_POINT ( 'NONE',  ( -60.49999999999998579, 3.000000000000000000, 39.35000000000000142 ) ) ;
#29 = AXIS2_PLACEMENT_3D ( 'NONE', #735, #1081, #1037 ) ;
#30 = AXIS2_PLACEMENT_3D ( 'NONE', #964, #198, #112 ) ;
#31 = CYLINDRICAL_SURFACE ( 'NONE', #499, 1.700000000000000178 ) ;
#32 = DIRECTION ( 'NONE',  ( 0.0000000000000000000, 0.0000000000000000000, 1.000000000000000000 ) ) ;
#33 = DIRECTION ( 'NONE',  ( 0.0000000000000000000, -1.000000000000000000, 0.0000000000000000000 ) ) ;
#34 = CARTESIAN_POINT ( 'NONE',  ( 0.0000000000000000000, 0.0000000000000000000, 21.71000000000000441 ) ) ;
#35 = CARTESIAN_POINT ( 'NONE',  ( -60.99999999999998579, 3.000000000000000000, 42.85000000000000853 ) ) ;
#36 = CARTESIAN_POINT ( 'NONE',  ( 0.0000000000000000000, 3.000000000000000000, 41.05000000000000426 ) ) ;
#37 = VECTOR ( 'NONE', #982, 1000.000000000000000 ) ;
#38 = DIRECTION ( 'NONE',  ( 0.0000000000000000000, -1.000000000000000000, 0.0000000000000000000 ) ) ;
#39 = DIRECTION ( 'NONE',  ( 0.0000000000000000000, 0.0000000000000000000, 1.000000000000000000 ) ) ;
#40 = EDGE_CURVE ( 'NONE', #72, #82, #557, .T. ) ;
#41 = ORIENTED_EDGE ( 'NONE', *, *, #402, .T. ) ;
#42 = DIRECTION ( 'NONE',  ( 0.0000000000000000000, -1.000000000000000000, 0.0000000000000000000 ) ) ;
#43 = VERTEX_POINT ( 'NONE', #562 ) ;
#44 = EDGE_CURVE ( 'NONE', #873, #817, #1047, .T. ) ;
#45 = CARTESIAN_POINT ( 'NONE',  ( 60.50000000000001421, 3.000000000000000000, 1.700000000000000178 ) ) ;
#46 = DIRECTION ( 'NONE',  ( -0.0000000000000000000, 1.000000000000000000, -0.0000000000000000000 ) ) ;
#47 = EDGE_CURVE ( 'NONE', #79, #138, #380, .T. ) ;
#48 = EDGE_LOOP ( 'NONE', ( #363, #538, #533, #143 ) ) ;
#49 = FACE_OUTER_BOUND ( 'NONE', #767, .T. ) ;
#50 = VERTEX_POINT ( 'NONE', #35 ) ;
#51 = CARTESIAN_POINT ( 'NONE',  ( 0.0000000000000000000, 3.000000000000000000, -39.34999999999999432 ) ) ;
#52 = CC_DESIGN_APPROVAL ( #619, ( #1026 ) ) ;
#53 = DIRECTION ( 'NONE',  ( 0.0000000000000000000, -1.000000000000000000, 0.0000000000000000000 ) ) ;
#54 = VECTOR ( 'NONE', #377, 1000.000000000000000 ) ;
#55 = ORIENTED_EDGE ( 'NONE', *, *, #423, .F. ) ;
#56 = FACE_BOUND ( 'NONE', #883, .T. ) ;
#57 = AXIS2_PLACEMENT_3D ( 'NONE', #802, #33, #298 ) ;
#58 = ORIENTED_EDGE ( 'NONE', *, *, #507, .F. ) ;
#59 = FACE_BOUND ( 'NONE', #681, .T. ) ;
#60 = ORIENTED_EDGE ( 'NONE', *, *, #328, .T. ) ;
#61 = CARTESIAN_POINT ( 'NONE',  ( -63.99999999999998579, 0.0000000000000000000, 39.85000000000000142 ) ) ;
#62 = ORIENTED_EDGE ( 'NONE', *, *, #756, .F. ) ;
#63 = DIRECTION ( 'NONE',  ( 1.000000000000000000, 0.0000000000000000000, 0.0000000000000000000 ) ) ;
#64 = ORIENTED_EDGE ( 'NONE', *, *, #409, .F. ) ;
#65 = PERSON_AND_ORGANIZATION ( #1003, #786 ) ;
#66 = FACE_BOUND ( 'NONE', #996, .T. ) ;
#67 = EDGE_LOOP ( 'NONE', ( #695, #518, #92, #399 ) ) ;
#68 = CARTESIAN_POINT ( 'NONE',  ( 0.0000000000000000000, 3.000000000000000000, 21.71000000000000441 ) ) ;
#69 = ORIENTED_EDGE ( 'NONE', *, *, #704, .F. ) ;
#70 = AXIS2_PLACEMENT_3D ( 'NONE', #635, #813, #818 ) ;
#71 = DIRECTION ( 'NONE',  ( 0.0000000000000000000, 0.0000000000000000000, 1.000000000000000000 ) ) ;
#72 = VERTEX_POINT ( 'NONE', #466 ) ;
#73 = DIRECTION ( 'NONE',  ( -0.0000000000000000000, 1.000000000000000000, -0.0000000000000000000 ) ) ;
#74 = EDGE_CURVE ( 'NONE', #530, #1053, #1071, .T. ) ;
#75 = EDGE_LOOP ( 'NONE', ( #410, #55 ) ) ;
#76 = DATE_AND_TIME ( #427, #895 ) ;
#77 = AXIS2_PLACEMENT_3D ( 'NONE', #906, #744, #301 ) ;
#78 = CARTESIAN_POINT ( 'NONE',  ( 0.0000000000000000000, 3.000000000000000000, 39.35000000000000142 ) ) ;
#79 = VERTEX_POINT ( 'NONE', #289 ) ;
#80 = FACE_OUTER_BOUND ( 'NONE', #1082, .T. ) ;
#81 = ADVANCED_FACE ( 'NONE', ( #49 ), #898, .F. ) ;
#82 = VERTEX_POINT ( 'NONE', #302 ) ;
#83 = AXIS2_PLACEMENT_3D ( 'NONE', #161, #852, #1113 ) ;
#84 = DATE_AND_TIME ( #335, #684 ) ;
#85 = VECTOR ( 'NONE', #527, 1000.000000000000000 ) ;
#86 = DIRECTION ( 'NONE',  ( -0.0000000000000000000, 1.000000000000000000, -0.0000000000000000000 ) ) ;
#87 = VECTOR ( 'NONE', #579, 1000.000000000000000 ) ;
#88 = DIRECTION ( 'NONE',  ( -0.0000000000000000000, 1.000000000000000000, -0.0000000000000000000 ) ) ;
#89 = DIRECTION ( 'NONE',  ( 0.0000000000000000000, -1.000000000000000000, 0.0000000000000000000 ) ) ;
#90 = LOCAL_TIME ( 8, 8, 3.000000000000000000, #1027 ) ;
#91 = VERTEX_POINT ( 'NONE', #545 ) ;
#92 = ORIENTED_EDGE ( 'NONE', *, *, #960, .T. ) ;
#93 = ADVANCED_FACE ( 'NONE', ( #582 ), #842, .T. ) ;
#94 = CARTESIAN_POINT ( 'NONE',  ( -60.99999999999998579, 3.000000000000000000, 39.85000000000000142 ) ) ;
#95 = CARTESIAN_POINT ( 'NONE',  ( 60.50000000000001421, 3.000000000000000000, 0.0000000000000000000 ) ) ;
#96 = EDGE_CURVE ( 'NONE', #897, #425, #320, .T. ) ;
#97 = ORIENTED_EDGE ( 'NONE', *, *, #1044, .T. ) ;
#98 = EDGE_CURVE ( 'NONE', #1018, #1043, #219, .T. ) ;
#99 = AXIS2_PLACEMENT_3D ( 'NONE', #95, #1042, #941 ) ;
#100 = DIRECTION ( 'NONE',  ( 0.0000000000000000000, -1.000000000000000000, 0.0000000000000000000 ) ) ;
#101 = EDGE_LOOP ( 'NONE', ( #109, #41 ) ) ;
#102 = CYLINDRICAL_SURFACE ( 'NONE', #977, 3.000000000000002665 ) ;
#103 = VERTEX_POINT ( 'NONE', #669 ) ;
#104 = DIRECTION ( 'NONE',  ( -0.0000000000000000000, 1.000000000000000000, -0.0000000000000000000 ) ) ;
#105 = AXIS2_PLACEMENT_3D ( 'NONE', #980, #732, #32 ) ;
#106 = DIRECTION ( 'NONE',  ( -0.0000000000000000000, 1.000000000000000000, -0.0000000000000000000 ) ) ;
#107 = CC_DESIGN_PERSON_AND_ORGANIZATION_ASSIGNMENT ( #601, #400, ( #823 ) ) ;
#108 = DIRECTION ( 'NONE',  ( -1.000000000000000000, 0.0000000000000000000, 0.0000000000000000000 ) ) ;
#109 = ORIENTED_EDGE ( 'NONE', *, *, #531, .T. ) ;
#110 = EDGE_CURVE ( 'NONE', #385, #415, #482, .T. ) ;
#111 = DIRECTION ( 'NONE',  ( 0.0000000000000000000, -0.0000000000000000000, -1.000000000000000000 ) ) ;
#112 = DIRECTION ( 'NONE',  ( 0.0000000000000000000, 0.0000000000000000000, 1.000000000000000000 ) ) ;
#113 = CARTESIAN_POINT ( 'NONE',  ( 0.0000000000000000000, 3.000000000000000000, 21.71000000000000441 ) ) ;
#114 = VECTOR ( 'NONE', #836, 1000.000000000000000 ) ;
#115 = CARTESIAN_POINT ( 'NONE',  ( 64.00000000000001421, 0.0000000000000000000, 39.85000000000000142 ) ) ;
#116 = LINE ( 'NONE', #1054, #26 ) ;
#117 = DIRECTION ( 'NONE',  ( -0.0000000000000000000, 1.000000000000000000, -0.0000000000000000000 ) ) ;
#118 = DIRECTION ( 'NONE',  ( 0.0000000000000000000, 0.0000000000000000000, 1.000000000000000000 ) ) ;
#119 = CARTESIAN_POINT ( 'NONE',  ( -60.49999999999998579, 3.000000000000000000, 37.65000000000000568 ) ) ;
#120 = DIRECTION ( 'NONE',  ( 0.0000000000000000000, 0.0000000000000000000, -1.000000000000000000 ) ) ;
#121 = EDGE_CURVE ( 'NONE', #782, #992, #142, .T. ) ;
#122 = DIRECTION ( 'NONE',  ( 0.0000000000000000000, 0.0000000000000000000, 1.000000000000000000 ) ) ;
#123 = ORIENTED_EDGE ( 'NONE', *, *, #288, .T. ) ;
#124 = ADVANCED_FACE ( 'NONE', ( #1006 ), #146, .F. ) ;
#125 = DIRECTION ( 'NONE',  ( 0.0000000000000000000, 0.0000000000000000000, 1.000000000000000000 ) ) ;
#126 =( LENGTH_UNIT ( ) NAMED_UNIT ( * ) SI_UNIT ( .MILLI., .METRE. ) );
#127 = EDGE_CURVE ( 'NONE', #501, #855, #416, .T. ) ;
#128 = CARTESIAN_POINT ( 'NONE',  ( 61.00000000000001421, 0.0000000000000000000, -42.84999999999999432 ) ) ;
#129 = FACE_OUTER_BOUND ( 'NONE', #131, .T. ) ;
#130 = VERTEX_POINT ( 'NONE', #1103 ) ;
#131 = EDGE_LOOP ( 'NONE', ( #206, #412, #674, #841 ) ) ;
#132 = ORIENTED_EDGE ( 'NONE', *, *, #445, .T. ) ;
#133 = DIRECTION ( 'NONE',  ( -0.0000000000000000000, 1.000000000000000000, -0.0000000000000000000 ) ) ;
#134 = CIRCLE ( 'NONE', #312, 1.700000000000000178 ) ;
#135 = CIRCLE ( 'NONE', #660, 1.700000000000000178 ) ;
#136 = DIRECTION ( 'NONE',  ( 0.0000000000000000000, 0.0000000000000000000, 1.000000000000000000 ) ) ;
#137 = VECTOR ( 'NONE', #796, 1000.000000000000000 ) ;
#138 = VERTEX_POINT ( 'NONE', #999 ) ;
#139 = FACE_OUTER_BOUND ( 'NONE', #48, .T. ) ;
#140 = VECTOR ( 'NONE', #884, 1000.000000000000000 ) ;
#141 = EDGE_CURVE ( 'NONE', #422, #897, #739, .T. ) ;
#142 = LINE ( 'NONE', #487, #795 ) ;
#143 = ORIENTED_EDGE ( 'NONE', *, *, #758, .F. ) ;
#144 = DIRECTION ( 'NONE',  ( 0.0000000000000000000, 0.0000000000000000000, -1.000000000000000000 ) ) ;
#145 = AXIS2_PLACEMENT_3D ( 'NONE', #899, #541, #627 ) ;
#146 = PLANE ( 'NONE',  #418 ) ;
#147 = EDGE_LOOP ( 'NONE', ( #604, #957 ) ) ;
#148 = AXIS2_PLACEMENT_3D ( 'NONE', #693, #163, #434 ) ;
#149 = CALENDAR_DATE ( 2019, 27, 6 ) ;
#150 = CARTESIAN_POINT ( 'NONE',  ( -60.49999999999998579, 3.000000000000000000, 41.05000000000000426 ) ) ;
#151 = ORIENTED_EDGE ( 'NONE', *, *, #8, .F. ) ;
#152 = FACE_BOUND ( 'NONE', #733, .T. ) ;
#153 = ORIENTED_EDGE ( 'NONE', *, *, #637, .F. ) ;
#154 = CARTESIAN_POINT ( 'NONE',  ( 61.00000000000001421, 0.0000000000000000000, 42.85000000000000853 ) ) ;
#155 = EDGE_CURVE ( 'NONE', #207, #817, #914, .T. ) ;
#156 = ORIENTED_EDGE ( 'NONE', *, *, #403, .F. ) ;
#157 = VECTOR ( 'NONE', #807, 1000.000000000000000 ) ;
#158 = DIRECTION ( 'NONE',  ( -0.0000000000000000000, 1.000000000000000000, -0.0000000000000000000 ) ) ;
#159 = ORIENTED_EDGE ( 'NONE', *, *, #357, .T. ) ;
#160 = PERSON_AND_ORGANIZATION ( #1003, #786 ) ;
#161 = CARTESIAN_POINT ( 'NONE',  ( -60.49999999999998579, 3.000000000000000000, 39.35000000000000142 ) ) ;
#162 = ORIENTED_EDGE ( 'NONE', *, *, #25, .F. ) ;
#163 = DIRECTION ( 'NONE',  ( 0.0000000000000000000, -1.000000000000000000, 0.0000000000000000000 ) ) ;
#164 = ORIENTED_EDGE ( 'NONE', *, *, #789, .F. ) ;
#165 = PERSON_AND_ORGANIZATION_ROLE ( 'creator' ) ;
#166 = LINE ( 'NONE', #514, #937 ) ;
#167 = ORIENTED_EDGE ( 'NONE', *, *, #925, .T. ) ;
#168 = CARTESIAN_POINT ( 'NONE',  ( 0.0000000000000000000, 3.000000000000000000, 20.01000000000000512 ) ) ;
#169 = ORIENTED_EDGE ( 'NONE', *, *, #446, .F. ) ;
#170 = AXIS2_PLACEMENT_3D ( 'NONE', #420, #1028, #253 ) ;
#171 = APPROVAL_DATE_TIME ( #666, #1050 ) ;
#172 = AXIS2_PLACEMENT_3D ( 'NONE', #628, #46, #543 ) ;
#173 = VECTOR ( 'NONE', #727, 1000.000000000000000 ) ;
#174 = DIRECTION ( 'NONE',  ( 0.0000000000000000000, 0.0000000000000000000, 1.000000000000000000 ) ) ;
#175 = CYLINDRICAL_SURFACE ( 'NONE', #872, 1.700000000000000178 ) ;
#176 = ORIENTED_EDGE ( 'NONE', *, *, #446, .T. ) ;
#177 = CC_DESIGN_DATE_AND_TIME_ASSIGNMENT ( #84, #247, ( #1026 ) ) ;
#178 = AXIS2_PLACEMENT_3D ( 'NONE', #373, #549, #553 ) ;
#179 = DIRECTION ( 'NONE',  ( 0.0000000000000000000, 0.0000000000000000000, 1.000000000000000000 ) ) ;
#180 = DIRECTION ( 'NONE',  ( 0.0000000000000000000, 0.0000000000000000000, 1.000000000000000000 ) ) ;
#181 = ORIENTED_EDGE ( 'NONE', *, *, #96, .F. ) ;
#182 = DIRECTION ( 'NONE',  ( 0.0000000000000000000, 0.0000000000000000000, 1.000000000000000000 ) ) ;
#183 = ORIENTED_EDGE ( 'NONE', *, *, #110, .T. ) ;
#184 = FACE_OUTER_BOUND ( 'NONE', #915, .T. ) ;
#185 = DIRECTION ( 'NONE',  ( -0.0000000000000000000, 1.000000000000000000, -0.0000000000000000000 ) ) ;
#186 = CIRCLE ( 'NONE', #1004, 3.000000000000002665 ) ;
#187 = CARTESIAN_POINT ( 'NONE',  ( -60.49999999999998579, 0.0000000000000000000, -37.64999999999999147 ) ) ;
#188 = ADVANCED_FACE ( 'NONE', ( #490, #927, #831, #405, #152, #663, #59, #995, #411, #675, #1019 ), #231, .T. ) ;
#189 = EDGE_LOOP ( 'NONE', ( #902, #1070, #488, #1117 ) ) ;
#190 = CARTESIAN_POINT ( 'NONE',  ( 2.081899558550499787E-16, 3.000000000000000000, 37.65000000000000568 ) ) ;
#191 = AXIS2_PLACEMENT_3D ( 'NONE', #725, #208, #631 ) ;
#192 = FACE_OUTER_BOUND ( 'NONE', #868, .T. ) ;
#193 = AXIS2_PLACEMENT_3D ( 'NONE', #804, #900, #797 ) ;
#194 = FACE_OUTER_BOUND ( 'NONE', #751, .T. ) ;
#195 = VERTEX_POINT ( 'NONE', #933 ) ;
#196 = CARTESIAN_POINT ( 'NONE',  ( 64.00000000000001421, 3.000000000000000000, 39.85000000000000142 ) ) ;
#197 = CIRCLE ( 'NONE', #395, 1.700000000000000178 ) ;
#198 = DIRECTION ( 'NONE',  ( -0.0000000000000000000, 1.000000000000000000, -0.0000000000000000000 ) ) ;
#199 = CYLINDRICAL_SURFACE ( 'NONE', #178, 1.700000000000000178 ) ;
#200 = DIRECTION ( 'NONE',  ( 0.0000000000000000000, 0.0000000000000000000, 1.000000000000000000 ) ) ;
#201 = CARTESIAN_POINT ( 'NONE',  ( -63.99999999999998579, 0.0000000000000000000, 42.85000000000000853 ) ) ;
#202 = ADVANCED_FACE ( 'NONE', ( #502 ), #762, .F. ) ;
#203 = CYLINDRICAL_SURFACE ( 'NONE', #30, 1.700000000000000178 ) ;
#204 = ADVANCED_FACE ( 'NONE', ( #1087 ), #1092, .F. ) ;
#205 = DIRECTION ( 'NONE',  ( -0.0000000000000000000, 1.000000000000000000, -0.0000000000000000000 ) ) ;
#206 = ORIENTED_EDGE ( 'NONE', *, *, #357, .F. ) ;
#207 = VERTEX_POINT ( 'NONE', #824 ) ;
#208 = DIRECTION ( 'NONE',  ( -0.0000000000000000000, 1.000000000000000000, -0.0000000000000000000 ) ) ;
#209 = ADVANCED_FACE ( 'NONE', ( #308 ), #655, .F. ) ;
#210 = CIRCLE ( 'NONE', #354, 1.700000000000000178 ) ;
#211 = CYLINDRICAL_SURFACE ( 'NONE', #544, 1.700000000000000178 ) ;
#212 = DIRECTION ( 'NONE',  ( 0.0000000000000000000, 0.0000000000000000000, 1.000000000000000000 ) ) ;
#213 = ORIENTED_EDGE ( 'NONE', *, *, #155, .T. ) ;
#214 = DIRECTION ( 'NONE',  ( -0.0000000000000000000, 1.000000000000000000, -0.0000000000000000000 ) ) ;
#215 = FACE_OUTER_BOUND ( 'NONE', #330, .T. ) ;
#216 = ORIENTED_EDGE ( 'NONE', *, *, #44, .T. ) ;
#217 = CARTESIAN_POINT ( 'NONE',  ( 2.081899558550499787E-16, 3.000000000000000000, -41.04999999999999716 ) ) ;
#218 = CARTESIAN_POINT ( 'NONE',  ( 0.0000000000000000000, 0.0000000000000000000, 0.0000000000000000000 ) ) ;
#219 = CIRCLE ( 'NONE', #1089, 1.700000000000000178 ) ;
#220 = ORIENTED_EDGE ( 'NONE', *, *, #98, .T. ) ;
#221 = EDGE_CURVE ( 'NONE', #974, #592, #258, .T. ) ;
#222 = DIRECTION ( 'NONE',  ( -0.0000000000000000000, 1.000000000000000000, -0.0000000000000000000 ) ) ;
#223 = AXIS2_PLACEMENT_3D ( 'NONE', #617, #462, #794 ) ;
#224 = VERTEX_POINT ( 'NONE', #1023 ) ;
#225 = ADVANCED_FACE ( 'NONE', ( #80 ), #175, .F. ) ;
#226 = AXIS2_PLACEMENT_3D ( 'NONE', #1064, #988, #118 ) ;
#227 = DIRECTION ( 'NONE',  ( 0.0000000000000000000, 0.0000000000000000000, 1.000000000000000000 ) ) ;
#228 = VECTOR ( 'NONE', #396, 1000.000000000000000 ) ;
#229 = VERTEX_POINT ( 'NONE', #523 ) ;
#230 = DIRECTION ( 'NONE',  ( -0.0000000000000000000, 1.000000000000000000, -0.0000000000000000000 ) ) ;
#231 = PLANE ( 'NONE',  #1052 ) ;
#232 = VERTEX_POINT ( 'NONE', #948 ) ;
#233 = APPROVAL_STATUS ( 'not_yet_approved' ) ;
#234 = VECTOR ( 'NONE', #333, 1000.000000000000000 ) ;
#235 = CARTESIAN_POINT ( 'NONE',  ( 0.0000000000000000000, 3.000000000000000000, -39.34999999999999432 ) ) ;
#236 = EDGE_LOOP ( 'NONE', ( #1078, #984 ) ) ;
#237 = DIRECTION ( 'NONE',  ( 0.0000000000000000000, 0.0000000000000000000, -1.000000000000000000 ) ) ;
#238 = EDGE_LOOP ( 'NONE', ( #1031, #476 ) ) ;
#239 = AXIS2_PLACEMENT_3D ( 'NONE', #1032, #517, #862 ) ;
#240 = EDGE_CURVE ( 'NONE', #830, #495, #378, .T. ) ;
#241 = DIRECTION ( 'NONE',  ( -0.0000000000000000000, 1.000000000000000000, -0.0000000000000000000 ) ) ;
#242 = EDGE_CURVE ( 'NONE', #876, #793, #593, .T. ) ;
#243 = ORIENTED_EDGE ( 'NONE', *, *, #591, .F. ) ;
#244 = CARTESIAN_POINT ( 'NONE',  ( 61.00000000000001421, 3.000000000000000000, 39.85000000000000142 ) ) ;
#245 = ORIENTED_EDGE ( 'NONE', *, *, #840, .F. ) ;
#246 = EDGE_CURVE ( 'NONE', #817, #873, #781, .T. ) ;
#247 = DATE_TIME_ROLE ( 'creation_date' ) ;
#248 = CYLINDRICAL_SURFACE ( 'NONE', #798, 1.700000000000000178 ) ;
#249 = ORIENTED_EDGE ( 'NONE', *, *, #127, .F. ) ;
#250 = APPROVAL ( #771, 'UNSPECIFIED' ) ;
#251 = DIRECTION ( 'NONE',  ( 0.0000000000000000000, 0.0000000000000000000, 1.000000000000000000 ) ) ;
#252 = EDGE_LOOP ( 'NONE', ( #936, #676, #69, #932 ) ) ;
#253 = DIRECTION ( 'NONE',  ( 0.0000000000000000000, 0.0000000000000000000, 1.000000000000000000 ) ) ;
#254 = ORIENTED_EDGE ( 'NONE', *, *, #609, .T. ) ;
#255 = AXIS2_PLACEMENT_3D ( 'NONE', #437, #13, #179 ) ;
#256 = DIRECTION ( 'NONE',  ( -0.0000000000000000000, 1.000000000000000000, -0.0000000000000000000 ) ) ;
#257 = ORIENTED_EDGE ( 'NONE', *, *, #726, .F. ) ;
#258 = CIRCLE ( 'NONE', #398, 1.700000000000000178 ) ;
#259 = DIRECTION ( 'NONE',  ( 0.0000000000000000000, 0.0000000000000000000, -1.000000000000000000 ) ) ;
#260 = EDGE_CURVE ( 'NONE', #316, #679, #1072, .T. ) ;
#261 = FACE_OUTER_BOUND ( 'NONE', #417, .T. ) ;
#262 = DIRECTION ( 'NONE',  ( -0.0000000000000000000, 1.000000000000000000, -0.0000000000000000000 ) ) ;
#263 = ORIENTED_EDGE ( 'NONE', *, *, #729, .T. ) ;
#264 = EDGE_LOOP ( 'NONE', ( #132, #469 ) ) ;
#265 = DIRECTION ( 'NONE',  ( 0.0000000000000000000, 0.0000000000000000000, 1.000000000000000000 ) ) ;
#266 = DIRECTION ( 'NONE',  ( -0.0000000000000000000, 1.000000000000000000, -0.0000000000000000000 ) ) ;
#267 = ORIENTED_EDGE ( 'NONE', *, *, #989, .F. ) ;
#268 = DIRECTION ( 'NONE',  ( -0.0000000000000000000, 1.000000000000000000, -0.0000000000000000000 ) ) ;
#269 = ORIENTED_EDGE ( 'NONE', *, *, #722, .T. ) ;
#270 = ADVANCED_FACE ( 'NONE', ( #955 ), #871, .T. ) ;
#271 = DIRECTION ( 'NONE',  ( -0.0000000000000000000, 1.000000000000000000, -0.0000000000000000000 ) ) ;
#272 = EDGE_LOOP ( 'NONE', ( #1094, #156, #379, #763 ) ) ;
#273 = CARTESIAN_POINT ( 'NONE',  ( 60.50000000000001421, 0.0000000000000000000, 41.05000000000000426 ) ) ;
#274 = CIRCLE ( 'NONE', #857, 1.700000000000000178 ) ;
#275 = CIRCLE ( 'NONE', #314, 1.700000000000000178 ) ;
#276 = CARTESIAN_POINT ( 'NONE',  ( 2.081899558550498801E-16, 0.0000000000000000000, -41.04999999999999716 ) ) ;
#277 = VECTOR ( 'NONE', #916, 1000.000000000000000 ) ;
#278 = CARTESIAN_POINT ( 'NONE',  ( 60.50000000000001421, 3.000000000000000000, 37.65000000000000568 ) ) ;
#279 = ORIENTED_EDGE ( 'NONE', *, *, #406, .F. ) ;
#280 = CARTESIAN_POINT ( 'NONE',  ( -63.99999999999998579, 3.000000000000000000, 42.85000000000000853 ) ) ;
#281 = CARTESIAN_POINT ( 'NONE',  ( -60.99999999999998579, 3.000000000000000000, 39.85000000000000142 ) ) ;
#282 = CARTESIAN_POINT ( 'NONE',  ( -63.99999999999998579, 3.000000000000000000, 42.85000000000000853 ) ) ;
#283 = CARTESIAN_POINT ( 'NONE',  ( -60.49999999999998579, 3.000000000000000000, 39.35000000000000142 ) ) ;
#284 = CIRCLE ( 'NONE', #346, 3.000000000000002665 ) ;
#285 = CARTESIAN_POINT ( 'NONE',  ( 0.0000000000000000000, 3.000000000000000000, 39.35000000000000142 ) ) ;
#286 = CARTESIAN_POINT ( 'NONE',  ( 2.081899558550498801E-16, 0.0000000000000000000, 37.65000000000000568 ) ) ;
#287 = VECTOR ( 'NONE', #775, 1000.000000000000000 ) ;
#288 = EDGE_CURVE ( 'NONE', #82, #72, #924, .T. ) ;
#289 = CARTESIAN_POINT ( 'NONE',  ( -60.49999999999998579, 0.0000000000000000000, 37.65000000000000568 ) ) ;
#290 = PRODUCT_RELATED_PRODUCT_CATEGORY ( 'detail', '', ( #823 ) ) ;
#291 = DIRECTION ( 'NONE',  ( 0.0000000000000000000, 0.0000000000000000000, 1.000000000000000000 ) ) ;
#292 = DIRECTION ( 'NONE',  ( 0.0000000000000000000, 0.0000000000000000000, 1.000000000000000000 ) ) ;
#293 = VERTEX_POINT ( 'NONE', #424 ) ;
#294 = CARTESIAN_POINT ( 'NONE',  ( -63.99999999999998579, 3.000000000000000000, -42.84999999999999432 ) ) ;
#295 = APPLICATION_CONTEXT ( 'configuration controlled 3d designs of mechanical parts and assemblies' ) ;
#296 = EDGE_LOOP ( 'NONE', ( #23, #1088 ) ) ;
#297 = LOCAL_TIME ( 8, 8, 3.000000000000000000, #1009 ) ;
#298 = DIRECTION ( 'NONE',  ( 0.0000000000000000000, 0.0000000000000000000, -1.000000000000000000 ) ) ;
#299 = DIRECTION ( 'NONE',  ( 0.0000000000000000000, 0.0000000000000000000, -1.000000000000000000 ) ) ;
#300 = ORIENTED_EDGE ( 'NONE', *, *, #803, .F. ) ;
#301 = DIRECTION ( 'NONE',  ( 0.0000000000000000000, 0.0000000000000000000, 1.000000000000000000 ) ) ;
#302 = CARTESIAN_POINT ( 'NONE',  ( 60.50000000000001421, 3.000000000000000000, 1.700000000000000178 ) ) ;
#303 = EDGE_CURVE ( 'NONE', #422, #832, #719, .T. ) ;
#304 = ORIENTED_EDGE ( 'NONE', *, *, #240, .T. ) ;
#305 = LINE ( 'NONE', #911, #277 ) ;
#306 = EDGE_CURVE ( 'NONE', #10, #224, #347, .T. ) ;
#307 = ORIENTED_EDGE ( 'NONE', *, *, #321, .T. ) ;
#308 = FACE_OUTER_BOUND ( 'NONE', #67, .T. ) ;
#309 = VECTOR ( 'NONE', #642, 1000.000000000000000 ) ;
#310 = ORIENTED_EDGE ( 'NONE', *, *, #303, .T. ) ;
#311 = FACE_BOUND ( 'NONE', #835, .T. ) ;
#312 = AXIS2_PLACEMENT_3D ( 'NONE', #78, #944, #364 ) ;
#313 = ORIENTED_EDGE ( 'NONE', *, *, #639, .F. ) ;
#314 = AXIS2_PLACEMENT_3D ( 'NONE', #972, #696, #536 ) ;
#315 = CARTESIAN_POINT ( 'NONE',  ( 60.50000000000001421, 3.000000000000000000, 39.35000000000000142 ) ) ;
#316 = VERTEX_POINT ( 'NONE', #780 ) ;
#317 = COORDINATED_UNIVERSAL_TIME_OFFSET ( 8, 0, .BEHIND. ) ;
#318 = LINE ( 'NONE', #150, #87 ) ;
#319 = VERTEX_POINT ( 'NONE', #9 ) ;
#320 = LINE ( 'NONE', #749, #946 ) ;
#321 = EDGE_CURVE ( 'NONE', #319, #79, #670, .T. ) ;
#322 = ORIENTED_EDGE ( 'NONE', *, *, #121, .T. ) ;
#323 = PERSON_AND_ORGANIZATION ( #1003, #786 ) ;
#324 = AXIS2_PLACEMENT_3D ( 'NONE', #351, #266, #180 ) ;
#325 = EDGE_CURVE ( 'NONE', #91, #974, #608, .T. ) ;
#326 = CARTESIAN_POINT ( 'NONE',  ( 60.50000000000001421, 3.000000000000000000, -41.04999999999999005 ) ) ;
#327 = EDGE_LOOP ( 'NONE', ( #784, #62, #998, #961 ) ) ;
#328 = EDGE_CURVE ( 'NONE', #50, #425, #680, .T. ) ;
#329 = CARTESIAN_POINT ( 'NONE',  ( 60.50000000000001421, 3.000000000000000000, -41.04999999999999005 ) ) ;
#330 = EDGE_LOOP ( 'NONE', ( #567, #153, #167, #580 ) ) ;
#331 = DIRECTION ( 'NONE',  ( 0.0000000000000000000, 0.0000000000000000000, 1.000000000000000000 ) ) ;
#332 = ORIENTED_EDGE ( 'NONE', *, *, #637, .T. ) ;
#333 = DIRECTION ( 'NONE',  ( -0.0000000000000000000, 1.000000000000000000, -0.0000000000000000000 ) ) ;
#334 = ORIENTED_EDGE ( 'NONE', *, *, #321, .F. ) ;
#335 = CALENDAR_DATE ( 2019, 27, 6 ) ;
#336 = CIRCLE ( 'NONE', #520, 1.700000000000000178 ) ;
#337 = CARTESIAN_POINT ( 'NONE',  ( 60.50000000000001421, 3.000000000000000000, 0.0000000000000000000 ) ) ;
#338 = EDGE_LOOP ( 'NONE', ( #162, #491, #1049, #1039 ) ) ;
#339 = APPROVAL_PERSON_ORGANIZATION ( #1016, #1050, #838 ) ;
#340 = CARTESIAN_POINT ( 'NONE',  ( 0.0000000000000000000, 3.000000000000000000, -20.00999999999999801 ) ) ;
#341 = ORIENTED_EDGE ( 'NONE', *, *, #47, .F. ) ;
#342 = EDGE_CURVE ( 'NONE', #1053, #103, #374, .T. ) ;
#343 = CIRCLE ( 'NONE', #973, 1.700000000000000178 ) ;
#344 = LINE ( 'NONE', #613, #568 ) ;
#345 = DIRECTION ( 'NONE',  ( -0.0000000000000000000, 1.000000000000000000, -0.0000000000000000000 ) ) ;
#346 = AXIS2_PLACEMENT_3D ( 'NONE', #7, #954, #353 ) ;
#347 = LINE ( 'NONE', #697, #809 ) ;
#348 = ORIENTED_EDGE ( 'NONE', *, *, #561, .F. ) ;
#349 = ORIENTED_EDGE ( 'NONE', *, *, #492, .F. ) ;
#350 = LINE ( 'NONE', #965, #519 ) ;
#351 = CARTESIAN_POINT ( 'NONE',  ( -60.49999999999998579, 0.0000000000000000000, 39.35000000000000142 ) ) ;
#352 = ORIENTED_EDGE ( 'NONE', *, *, #507, .T. ) ;
#353 = DIRECTION ( 'NONE',  ( 0.0000000000000000000, 0.0000000000000000000, -1.000000000000000000 ) ) ;
#354 = AXIS2_PLACEMENT_3D ( 'NONE', #901, #724, #200 ) ;
#355 = ORIENTED_EDGE ( 'NONE', *, *, #531, .F. ) ;
#356 = ADVANCED_FACE ( 'NONE', ( #369 ), #199, .F. ) ;
#357 = EDGE_CURVE ( 'NONE', #229, #592, #465, .T. ) ;
#358 = DIRECTION ( 'NONE',  ( 0.0000000000000000000, 0.0000000000000000000, 1.000000000000000000 ) ) ;
#359 = ORIENTED_EDGE ( 'NONE', *, *, #1045, .F. ) ;
#360 = CARTESIAN_POINT ( 'NONE',  ( 60.50000000000001421, 3.000000000000000000, 39.35000000000000142 ) ) ;
#361 = CARTESIAN_POINT ( 'NONE',  ( 60.50000000000001421, 3.000000000000000000, 39.35000000000000142 ) ) ;
#362 = CARTESIAN_POINT ( 'NONE',  ( -60.49999999999998579, 3.000000000000000000, -39.34999999999998721 ) ) ;
#363 = ORIENTED_EDGE ( 'NONE', *, *, #994, .F. ) ;
#364 = DIRECTION ( 'NONE',  ( 0.0000000000000000000, 0.0000000000000000000, 1.000000000000000000 ) ) ;
#365 = CIRCLE ( 'NONE', #1000, 3.000000000000002665 ) ;
#366 = AXIS2_PLACEMENT_3D ( 'NONE', #522, #108, #358 ) ;
#367 = DIRECTION ( 'NONE',  ( 0.0000000000000000000, 0.0000000000000000000, 1.000000000000000000 ) ) ;
#368 = AXIS2_PLACEMENT_3D ( 'NONE', #1063, #891, #464 ) ;
#369 = FACE_OUTER_BOUND ( 'NONE', #404, .T. ) ;
#370 = CARTESIAN_POINT ( 'NONE',  ( -60.49999999999998579, 0.0000000000000000000, 39.35000000000000142 ) ) ;
#371 = LINE ( 'NONE', #36, #971 ) ;
#372 = DIRECTION ( 'NONE',  ( 0.0000000000000000000, 0.0000000000000000000, 1.000000000000000000 ) ) ;
#373 = CARTESIAN_POINT ( 'NONE',  ( -60.49999999999998579, 3.000000000000000000, -39.34999999999998721 ) ) ;
#374 = CIRCLE ( 'NONE', #867, 3.000000000000002665 ) ;
#375 = VERTEX_POINT ( 'NONE', #286 ) ;
#376 = CARTESIAN_POINT ( 'NONE',  ( 0.0000000000000000000, 3.000000000000000000, -37.64999999999999858 ) ) ;
#377 = DIRECTION ( 'NONE',  ( 0.0000000000000000000, 1.000000000000000000, -0.0000000000000000000 ) ) ;
#378 = CIRCLE ( 'NONE', #148, 3.000000000000002665 ) ;
#379 = ORIENTED_EDGE ( 'NONE', *, *, #303, .F. ) ;
#380 = LINE ( 'NONE', #119, #565 ) ;
#381 = CARTESIAN_POINT ( 'NONE',  ( -60.49999999999998579, 3.000000000000000000, 41.05000000000000426 ) ) ;
#382 = ORIENTED_EDGE ( 'NONE', *, *, #388, .F. ) ;
#383 = CARTESIAN_POINT ( 'NONE',  ( 60.50000000000001421, 3.000000000000000000, 39.35000000000000142 ) ) ;
#384 = CARTESIAN_POINT ( 'NONE',  ( -60.99999999999998579, 3.000000000000000000, -39.84999999999998721 ) ) ;
#385 = VERTEX_POINT ( 'NONE', #34 ) ;
#386 = DIRECTION ( 'NONE',  ( 0.0000000000000000000, 0.0000000000000000000, 1.000000000000000000 ) ) ;
#387 = VERTEX_POINT ( 'NONE', #716 ) ;
#388 = EDGE_CURVE ( 'NONE', #1086, #138, #882, .T. ) ;
#389 = AXIS2_PLACEMENT_3D ( 'NONE', #690, #790, #259 ) ;
#390 = CARTESIAN_POINT ( 'NONE',  ( -60.49999999999998579, 0.0000000000000000000, -41.04999999999999005 ) ) ;
#391 = CIRCLE ( 'NONE', #828, 1.700000000000000178 ) ;
#392 = ORIENTED_EDGE ( 'NONE', *, *, #822, .T. ) ;
#393 = DIRECTION ( 'NONE',  ( -1.000000000000000000, 0.0000000000000000000, -0.0000000000000000000 ) ) ;
#394 = ORIENTED_EDGE ( 'NONE', *, *, #288, .F. ) ;
#395 = AXIS2_PLACEMENT_3D ( 'NONE', #285, #632, #815 ) ;
#396 = DIRECTION ( 'NONE',  ( -1.000000000000000000, -0.0000000000000000000, -0.0000000000000000000 ) ) ;
#397 = DIRECTION ( 'NONE',  ( 0.0000000000000000000, -0.0000000000000000000, -1.000000000000000000 ) ) ;
#398 = AXIS2_PLACEMENT_3D ( 'NONE', #340, #256, #686 ) ;
#399 = ORIENTED_EDGE ( 'NONE', *, *, #639, .T. ) ;
#400 = PERSON_AND_ORGANIZATION_ROLE ( 'design_owner' ) ;
#401 = CARTESIAN_POINT ( 'NONE',  ( 60.50000000000001421, 0.0000000000000000000, -37.64999999999999147 ) ) ;
#402 = EDGE_CURVE ( 'NONE', #375, #616, #391, .T. ) ;
#403 = EDGE_CURVE ( 'NONE', #832, #812, #892, .T. ) ;
#404 = EDGE_LOOP ( 'NONE', ( #612, #641, #983, #814 ) ) ;
#405 = FACE_BOUND ( 'NONE', #849, .T. ) ;
#406 = EDGE_CURVE ( 'NONE', #876, #501, #687, .T. ) ;
#407 = ORIENTED_EDGE ( 'NONE', *, *, #1079, .T. ) ;
#408 = LINE ( 'NONE', #1101, #228 ) ;
#409 = EDGE_CURVE ( 'NONE', #592, #974, #1029, .T. ) ;
#410 = ORIENTED_EDGE ( 'NONE', *, *, #12, .F. ) ;
#411 = FACE_BOUND ( 'NONE', #147, .T. ) ;
#412 = ORIENTED_EDGE ( 'NONE', *, *, #922, .F. ) ;
#413 = DATE_AND_TIME ( #577, #297 ) ;
#414 = FACE_BOUND ( 'NONE', #75, .T. ) ;
#415 = VERTEX_POINT ( 'NONE', #113 ) ;
#416 = LINE ( 'NONE', #587, #600 ) ;
#417 = EDGE_LOOP ( 'NONE', ( #949, #159, #730, #777 ) ) ;
#418 = AXIS2_PLACEMENT_3D ( 'NONE', #755, #1014, #393 ) ;
#419 = DATE_TIME_ROLE ( 'classification_date' ) ;
#420 = CARTESIAN_POINT ( 'NONE',  ( -60.49999999999998579, 3.000000000000000000, 39.35000000000000142 ) ) ;
#421 = AXIS2_PLACEMENT_3D ( 'NONE', #590, #683, #546 ) ;
#422 = VERTEX_POINT ( 'NONE', #728 ) ;
#423 = EDGE_CURVE ( 'NONE', #992, #415, #343, .T. ) ;
#424 = CARTESIAN_POINT ( 'NONE',  ( -60.49999999999998579, 0.0000000000000000000, 1.700000000000000178 ) ) ;
#425 = VERTEX_POINT ( 'NONE', #640 ) ;
#426 = AXIS2_PLACEMENT_3D ( 'NONE', #1046, #268, #453 ) ;
#427 = CALENDAR_DATE ( 2019, 27, 6 ) ;
#428 = CIRCLE ( 'NONE', #820, 1.700000000000000178 ) ;
#429 = MANIFOLD_SOLID_BREP ( 'Fillet1', #554 ) ;
#430 = ADVANCED_FACE ( 'NONE', ( #721 ), #559, .F. ) ;
#431 = LINE ( 'NONE', #1035, #657 ) ;
#432 = CC_DESIGN_APPROVAL ( #250, ( #934 ) ) ;
#433 = CYLINDRICAL_SURFACE ( 'NONE', #1112, 1.700000000000000178 ) ;
#434 = DIRECTION ( 'NONE',  ( 0.0000000000000000000, 0.0000000000000000000, -1.000000000000000000 ) ) ;
#435 = ORIENTED_EDGE ( 'NONE', *, *, #510, .F. ) ;
#436 = ORIENTED_EDGE ( 'NONE', *, *, #260, .F. ) ;
#437 = CARTESIAN_POINT ( 'NONE',  ( 60.50000000000001421, 0.0000000000000000000, -39.34999999999998721 ) ) ;
#438 = AXIS2_PLACEMENT_3D ( 'NONE', #791, #106, #535 ) ;
#439 = CARTESIAN_POINT ( 'NONE',  ( -60.99999999999998579, 0.0000000000000000000, 39.85000000000000142 ) ) ;
#440 = ORIENTED_EDGE ( 'NONE', *, *, #1013, .F. ) ;
#441 = AXIS2_PLACEMENT_3D ( 'NONE', #528, #262, #509 ) ;
#442 = CARTESIAN_POINT ( 'NONE',  ( -63.99999999999998579, 3.000000000000000000, -42.84999999999999432 ) ) ;
#443 = ADVANCED_FACE ( 'NONE', ( #129 ), #816, .F. ) ;
#444 = ORIENTED_EDGE ( 'NONE', *, *, #25, .T. ) ;
#445 = EDGE_CURVE ( 'NONE', #501, #876, #859, .T. ) ;
#446 = EDGE_CURVE ( 'NONE', #782, #385, #1002, .T. ) ;
#447 = FACE_OUTER_BOUND ( 'NONE', #563, .T. ) ;
#448 = VECTOR ( 'NONE', #979, 1000.000000000000000 ) ;
#449 = VECTOR ( 'NONE', #42, 1000.000000000000000 ) ;
#450 = ORIENTED_EDGE ( 'NONE', *, *, #1013, .T. ) ;
#451 = DIRECTION ( 'NONE',  ( -0.0000000000000000000, -1.000000000000000000, 0.0000000000000000000 ) ) ;
#452 = FACE_OUTER_BOUND ( 'NONE', #189, .T. ) ;
#453 = DIRECTION ( 'NONE',  ( 0.0000000000000000000, 0.0000000000000000000, 1.000000000000000000 ) ) ;
#454 = VERTEX_POINT ( 'NONE', #602 ) ;
#455 = CARTESIAN_POINT ( 'NONE',  ( 2.081899558550499294E-16, 3.000000000000000000, 18.31000000000000227 ) ) ;
#456 = VECTOR ( 'NONE', #63, 1000.000000000000000 ) ;
#457 = ADVANCED_FACE ( 'NONE', ( #447 ), #16, .F. ) ;
#458 = DIRECTION ( 'NONE',  ( 0.0000000000000000000, 0.0000000000000000000, -1.000000000000000000 ) ) ;
#459 = CARTESIAN_POINT ( 'NONE',  ( -63.99999999999998579, 3.000000000000000000, 39.85000000000000142 ) ) ;
#460 = ADVANCED_FACE ( 'NONE', ( #951 ), #433, .F. ) ;
#461 = ORIENTED_EDGE ( 'NONE', *, *, #846, .T. ) ;
#462 = DIRECTION ( 'NONE',  ( -0.0000000000000000000, 1.000000000000000000, -0.0000000000000000000 ) ) ;
#463 = CIRCLE ( 'NONE', #170, 1.700000000000000178 ) ;
#464 = DIRECTION ( 'NONE',  ( 0.0000000000000000000, 0.0000000000000000000, 1.000000000000000000 ) ) ;
#465 = LINE ( 'NONE', #1069, #37 ) ;
#466 = CARTESIAN_POINT ( 'NONE',  ( 60.50000000000001421, 3.000000000000000000, -1.700000000000000178 ) ) ;
#467 = DIRECTION ( 'NONE',  ( -0.0000000000000000000, 1.000000000000000000, -0.0000000000000000000 ) ) ;
#468 = DIRECTION ( 'NONE',  ( -0.0000000000000000000, 1.000000000000000000, -0.0000000000000000000 ) ) ;
#469 = ORIENTED_EDGE ( 'NONE', *, *, #406, .T. ) ;
#470 = CARTESIAN_POINT ( 'NONE',  ( 60.50000000000001421, 3.000000000000000000, -1.700000000000000178 ) ) ;
#471 =( NAMED_UNIT ( * ) SI_UNIT ( $, .STERADIAN. ) SOLID_ANGLE_UNIT ( ) );
#472 = CARTESIAN_POINT ( 'NONE',  ( 61.00000000000001421, 0.0000000000000000000, 39.85000000000000142 ) ) ;
#473 = CARTESIAN_POINT ( 'NONE',  ( -60.49999999999998579, 0.0000000000000000000, -39.34999999999998721 ) ) ;
#474 = ADVANCED_FACE ( 'NONE', ( #959 ), #614, .F. ) ;
#475 = DIRECTION ( 'NONE',  ( -0.0000000000000000000, 1.000000000000000000, -0.0000000000000000000 ) ) ;
#476 = ORIENTED_EDGE ( 'NONE', *, *, #246, .F. ) ;
#477 = CIRCLE ( 'NONE', #421, 1.700000000000000178 ) ;
#478 = CARTESIAN_POINT ( 'NONE',  ( -63.99999999999998579, 3.000000000000000000, 42.85000000000000853 ) ) ;
#479 = CIRCLE ( 'NONE', #618, 1.700000000000000178 ) ;
#480 = VECTOR ( 'NONE', #574, 1000.000000000000000 ) ;
#481 = VERTEX_POINT ( 'NONE', #278 ) ;
#482 = LINE ( 'NONE', #68, #114 ) ;
#483 = ORIENTED_EDGE ( 'NONE', *, *, #342, .T. ) ;
#484 = FACE_BOUND ( 'NONE', #650, .T. ) ;
#485 = AXIS2_PLACEMENT_3D ( 'NONE', #473, #205, #122 ) ;
#486 = ORIENTED_EDGE ( 'NONE', *, *, #141, .T. ) ;
#487 = CARTESIAN_POINT ( 'NONE',  ( 2.081899558550499787E-16, 3.000000000000000000, 18.31000000000000227 ) ) ;
#488 = ORIENTED_EDGE ( 'NONE', *, *, #989, .T. ) ;
#489 = CARTESIAN_POINT ( 'NONE',  ( 61.00000000000001421, 3.000000000000000000, -39.84999999999998721 ) ) ;
#490 = FACE_BOUND ( 'NONE', #264, .T. ) ;
#491 = ORIENTED_EDGE ( 'NONE', *, *, #47, .T. ) ;
#492 = EDGE_CURVE ( 'NONE', #760, #873, #350, .T. ) ;
#493 = PERSON_AND_ORGANIZATION ( #1003, #786 ) ;
#494 = CARTESIAN_POINT ( 'NONE',  ( -60.49999999999998579, 0.0000000000000000000, -1.700000000000000178 ) ) ;
#495 = VERTEX_POINT ( 'NONE', #779 ) ;
#496 = DIRECTION ( 'NONE',  ( -0.0000000000000000000, 1.000000000000000000, -0.0000000000000000000 ) ) ;
#497 = VERTEX_POINT ( 'NONE', #622 ) ;
#498 = SHAPE_DEFINITION_REPRESENTATION ( #651, #785 ) ;
#499 = AXIS2_PLACEMENT_3D ( 'NONE', #555, #888, #893 ) ;
#500 = FACE_BOUND ( 'NONE', #238, .T. ) ;
#501 = VERTEX_POINT ( 'NONE', #187 ) ;
#502 = FACE_OUTER_BOUND ( 'NONE', #1115, .T. ) ;
#503 = EDGE_LOOP ( 'NONE', ( #263, #754 ) ) ;
#504 = DIRECTION ( 'NONE',  ( 0.0000000000000000000, 0.0000000000000000000, 1.000000000000000000 ) ) ;
#505 = DESIGN_CONTEXT ( 'detailed design', #295, 'design' ) ;
#506 = CYLINDRICAL_SURFACE ( 'NONE', #83, 1.700000000000000178 ) ;
#507 = EDGE_CURVE ( 'NONE', #679, #316, #135, .T. ) ;
#508 = ORIENTED_EDGE ( 'NONE', *, *, #423, .T. ) ;
#509 = DIRECTION ( 'NONE',  ( 0.0000000000000000000, 0.0000000000000000000, 1.000000000000000000 ) ) ;
#510 = EDGE_CURVE ( 'NONE', #855, #793, #479, .T. ) ;
#511 = EDGE_LOOP ( 'NONE', ( #837, #300, #705, #440 ) ) ;
#512 = AXIS2_PLACEMENT_3D ( 'NONE', #990, #214, #386 ) ;
#513 = MECHANICAL_CONTEXT ( 'NONE', #14, 'mechanical' ) ;
#514 = CARTESIAN_POINT ( 'NONE',  ( -63.99999999999998579, 3.000000000000000000, -39.84999999999998721 ) ) ;
#515 = CIRCLE ( 'NONE', #1055, 1.700000000000000178 ) ;
#516 = ORIENTED_EDGE ( 'NONE', *, *, #1044, .F. ) ;
#517 = DIRECTION ( 'NONE',  ( -0.0000000000000000000, 1.000000000000000000, -0.0000000000000000000 ) ) ;
#518 = ORIENTED_EDGE ( 'NONE', *, *, #905, .F. ) ;
#519 = VECTOR ( 'NONE', #774, 1000.000000000000000 ) ;
#520 = AXIS2_PLACEMENT_3D ( 'NONE', #1080, #185, #715 ) ;
#521 = UNCERTAINTY_MEASURE_WITH_UNIT (LENGTH_MEASURE( 1.000000000000000082E-05 ), #126, 'distance_accuracy_value', 'NONE');
#522 = CARTESIAN_POINT ( 'NONE',  ( 64.00000000000001421, 3.000000000000000000, 42.85000000000000853 ) ) ;
#523 = CARTESIAN_POINT ( 'NONE',  ( 2.081899558550498801E-16, 0.0000000000000000000, -21.70999999999999730 ) ) ;
#524 = ORIENTED_EDGE ( 'NONE', *, *, #591, .T. ) ;
#525 = AXIS2_PLACEMENT_3D ( 'NONE', #439, #769, #3 ) ;
#526 = ADVANCED_FACE ( 'NONE', ( #261 ), #860, .F. ) ;
#527 = DIRECTION ( 'NONE',  ( -0.0000000000000000000, 1.000000000000000000, -0.0000000000000000000 ) ) ;
#528 = CARTESIAN_POINT ( 'NONE',  ( 60.50000000000001421, 3.000000000000000000, -39.34999999999998721 ) ) ;
#529 = EDGE_CURVE ( 'NONE', #229, #91, #275, .T. ) ;
#530 = VERTEX_POINT ( 'NONE', #532 ) ;
#531 = EDGE_CURVE ( 'NONE', #616, #375, #1058, .T. ) ;
#532 = CARTESIAN_POINT ( 'NONE',  ( 61.00000000000001421, 3.000000000000000000, -42.84999999999999432 ) ) ;
#533 = ORIENTED_EDGE ( 'NONE', *, *, #840, .T. ) ;
#534 = DIRECTION ( 'NONE',  ( 0.0000000000000000000, 0.0000000000000000000, 1.000000000000000000 ) ) ;
#535 = DIRECTION ( 'NONE',  ( 0.0000000000000000000, 0.0000000000000000000, 1.000000000000000000 ) ) ;
#536 = DIRECTION ( 'NONE',  ( 0.0000000000000000000, 0.0000000000000000000, 1.000000000000000000 ) ) ;
#537 = AXIS2_PLACEMENT_3D ( 'NONE', #856, #504, #589 ) ;
#538 = ORIENTED_EDGE ( 'NONE', *, *, #808, .T. ) ;
#539 = DIRECTION ( 'NONE',  ( -0.0000000000000000000, 1.000000000000000000, -0.0000000000000000000 ) ) ;
#540 = AXIS2_PLACEMENT_3D ( 'NONE', #28, #633, #292 ) ;
#541 = DIRECTION ( 'NONE',  ( -0.0000000000000000000, 1.000000000000000000, -0.0000000000000000000 ) ) ;
#542 = ADVANCED_FACE ( 'NONE', ( #194 ), #692, .F. ) ;
#543 = DIRECTION ( 'NONE',  ( 0.0000000000000000000, 0.0000000000000000000, 1.000000000000000000 ) ) ;
#544 = AXIS2_PLACEMENT_3D ( 'NONE', #361, #467, #734 ) ;
#545 = CARTESIAN_POINT ( 'NONE',  ( 0.0000000000000000000, 0.0000000000000000000, -18.30999999999999517 ) ) ;
#546 = DIRECTION ( 'NONE',  ( 0.0000000000000000000, 0.0000000000000000000, 1.000000000000000000 ) ) ;
#547 = CC_DESIGN_PERSON_AND_ORGANIZATION_ASSIGNMENT ( #65, #833, ( #934 ) ) ;
#548 = LINE ( 'NONE', #45, #137 ) ;
#549 = DIRECTION ( 'NONE',  ( -0.0000000000000000000, 1.000000000000000000, -0.0000000000000000000 ) ) ;
#550 = EDGE_CURVE ( 'NONE', #224, #232, #1051, .T. ) ;
#551 = CYLINDRICAL_SURFACE ( 'NONE', #699, 1.700000000000000178 ) ;
#552 = CARTESIAN_POINT ( 'NONE',  ( -60.49999999999998579, 3.000000000000000000, 0.0000000000000000000 ) ) ;
#553 = DIRECTION ( 'NONE',  ( 0.0000000000000000000, 0.0000000000000000000, 1.000000000000000000 ) ) ;
#554 = CLOSED_SHELL ( 'NONE', ( #460, #805, #22, #474, #643, #81, #958, #605, #202, #526, #188, #542, #457, #875, #124, #903, #443, #225, #1107, #11, #707, #209, #945, #204, #430, #356, #270, #93, #1030, #558 ) ) ;
#555 = CARTESIAN_POINT ( 'NONE',  ( 60.50000000000001421, 3.000000000000000000, -39.34999999999998721 ) ) ;
#556 = LINE ( 'NONE', #885, #578 ) ;
#557 = CIRCLE ( 'NONE', #70, 1.700000000000000178 ) ;
#558 = ADVANCED_FACE ( 'NONE', ( #611 ), #102, .T. ) ;
#559 = CYLINDRICAL_SURFACE ( 'NONE', #226, 1.700000000000000178 ) ;
#560 = ORIENTED_EDGE ( 'NONE', *, *, #827, .F. ) ;
#561 = EDGE_CURVE ( 'NONE', #207, #760, #869, .T. ) ;
#562 = CARTESIAN_POINT ( 'NONE',  ( 0.0000000000000000000, 0.0000000000000000000, -37.64999999999999858 ) ) ;
#563 = EDGE_LOOP ( 'NONE', ( #599, #254, #597, #745 ) ) ;
#564 = CARTESIAN_POINT ( 'NONE',  ( -63.99999999999998579, 0.0000000000000000000, -39.84999999999998721 ) ) ;
#565 = VECTOR ( 'NONE', #1083, 1000.000000000000000 ) ;
#566 = DIRECTION ( 'NONE',  ( -0.0000000000000000000, 1.000000000000000000, -0.0000000000000000000 ) ) ;
#567 = ORIENTED_EDGE ( 'NONE', *, *, #658, .F. ) ;
#568 = VECTOR ( 'NONE', #86, 1000.000000000000000 ) ;
#569 = DIRECTION ( 'NONE',  ( -0.0000000000000000000, 1.000000000000000000, -0.0000000000000000000 ) ) ;
#570 = VECTOR ( 'NONE', #569, 1000.000000000000000 ) ;
#571 = ORIENTED_EDGE ( 'NONE', *, *, #1111, .F. ) ;
#572 = DIRECTION ( 'NONE',  ( -0.0000000000000000000, 1.000000000000000000, -0.0000000000000000000 ) ) ;
#573 = EDGE_LOOP ( 'NONE', ( #243, #181, #634, #826 ) ) ;
#574 = DIRECTION ( 'NONE',  ( -0.0000000000000000000, 1.000000000000000000, -0.0000000000000000000 ) ) ;
#575 = DIRECTION ( 'NONE',  ( 0.0000000000000000000, -1.000000000000000000, 0.0000000000000000000 ) ) ;
#576 = ORIENTED_EDGE ( 'NONE', *, *, #925, .F. ) ;
#577 = CALENDAR_DATE ( 2019, 27, 6 ) ;
#578 = VECTOR ( 'NONE', #1073, 1000.000000000000000 ) ;
#579 = DIRECTION ( 'NONE',  ( -0.0000000000000000000, 1.000000000000000000, -0.0000000000000000000 ) ) ;
#580 = ORIENTED_EDGE ( 'NONE', *, *, #606, .T. ) ;
#581 = AXIS2_PLACEMENT_3D ( 'NONE', #603, #89, #866 ) ;
#582 = FACE_OUTER_BOUND ( 'NONE', #573, .T. ) ;
#583 = ORIENTED_EDGE ( 'NONE', *, *, #141, .F. ) ;
#584 = CALENDAR_DATE ( 2019, 27, 6 ) ;
#585 = PLANE ( 'NONE',  #1093 ) ;
#586 = ORIENTED_EDGE ( 'NONE', *, *, #110, .F. ) ;
#587 = CARTESIAN_POINT ( 'NONE',  ( -60.49999999999998579, 3.000000000000000000, -37.64999999999999147 ) ) ;
#588 = EDGE_LOOP ( 'NONE', ( #662, #1097 ) ) ;
#589 = DIRECTION ( 'NONE',  ( 1.000000000000000000, 0.0000000000000000000, 0.0000000000000000000 ) ) ;
#590 = CARTESIAN_POINT ( 'NONE',  ( 60.50000000000001421, 0.0000000000000000000, 39.35000000000000142 ) ) ;
#591 = EDGE_CURVE ( 'NONE', #425, #195, #284, .T. ) ;
#592 = VERTEX_POINT ( 'NONE', #19 ) ;
#593 = LINE ( 'NONE', #1038, #287 ) ;
#594 = ORIENTED_EDGE ( 'NONE', *, *, #740, .F. ) ;
#595 = APPLICATION_PROTOCOL_DEFINITION ( 'international standard', 'config_control_design', 1994, #14 ) ;
#596 = CARTESIAN_POINT ( 'NONE',  ( -60.49999999999998579, 0.0000000000000000000, 0.0000000000000000000 ) ) ;
#597 = ORIENTED_EDGE ( 'NONE', *, *, #789, .T. ) ;
#598 = DIRECTION ( 'NONE',  ( -0.0000000000000000000, 1.000000000000000000, -0.0000000000000000000 ) ) ;
#599 = ORIENTED_EDGE ( 'NONE', *, *, #74, .F. ) ;
#600 = VECTOR ( 'NONE', #158, 1000.000000000000000 ) ;
#601 = PERSON_AND_ORGANIZATION ( #1003, #786 ) ;
#602 = CARTESIAN_POINT ( 'NONE',  ( 60.50000000000001421, 3.000000000000000000, 41.05000000000000426 ) ) ;
#603 = CARTESIAN_POINT ( 'NONE',  ( 61.00000000000001421, 3.000000000000000000, -39.84999999999998721 ) ) ;
#604 = ORIENTED_EDGE ( 'NONE', *, *, #922, .T. ) ;
#605 = ADVANCED_FACE ( 'NONE', ( #879 ), #621, .F. ) ;
#606 = EDGE_CURVE ( 'NONE', #928, #694, #1034, .T. ) ;
#607 = DIRECTION ( 'NONE',  ( 0.0000000000000000000, 0.0000000000000000000, 1.000000000000000000 ) ) ;
#608 = LINE ( 'NONE', #1108, #234 ) ;
#609 = EDGE_CURVE ( 'NONE', #530, #671, #556, .T. ) ;
#610 = ORIENTED_EDGE ( 'NONE', *, *, #1062, .T. ) ;
#611 = FACE_OUTER_BOUND ( 'NONE', #272, .T. ) ;
#612 = ORIENTED_EDGE ( 'NONE', *, *, #242, .F. ) ;
#613 = CARTESIAN_POINT ( 'NONE',  ( -60.49999999999998579, 3.000000000000000000, 1.700000000000000178 ) ) ;
#614 = CYLINDRICAL_SURFACE ( 'NONE', #426, 1.700000000000000178 ) ;
#615 = CIRCLE ( 'NONE', #710, 1.700000000000000178 ) ;
#616 = VERTEX_POINT ( 'NONE', #970 ) ;
#617 = CARTESIAN_POINT ( 'NONE',  ( 0.0000000000000000000, 0.0000000000000000000, -39.34999999999999432 ) ) ;
#618 = AXIS2_PLACEMENT_3D ( 'NONE', #709, #345, #607 ) ;
#619 = APPROVAL ( #233, 'UNSPECIFIED' ) ;
#620 = CIRCLE ( 'NONE', #768, 1.700000000000000178 ) ;
#621 = CYLINDRICAL_SURFACE ( 'NONE', #919, 1.700000000000000178 ) ;
#622 = CARTESIAN_POINT ( 'NONE',  ( 2.081899558550499294E-16, 3.000000000000000000, 37.65000000000000568 ) ) ;
#623 = EDGE_CURVE ( 'NONE', #497, #387, #197, .T. ) ;
#624 = APPROVAL_PERSON_ORGANIZATION ( #938, #619, #752 ) ;
#625 = ORIENTED_EDGE ( 'NONE', *, *, #963, .F. ) ;
#626 = LINE ( 'NONE', #280, #140 ) ;
#627 = DIRECTION ( 'NONE',  ( 0.0000000000000000000, 0.0000000000000000000, 1.000000000000000000 ) ) ;
#628 = CARTESIAN_POINT ( 'NONE',  ( 0.0000000000000000000, 3.000000000000000000, -20.00999999999999801 ) ) ;
#629 = AXIS2_PLACEMENT_3D ( 'NONE', #281, #708, #120 ) ;
#630 = DIRECTION ( 'NONE',  ( 0.0000000000000000000, 0.0000000000000000000, 1.000000000000000000 ) ) ;
#631 = DIRECTION ( 'NONE',  ( 0.0000000000000000000, 0.0000000000000000000, 1.000000000000000000 ) ) ;
#632 = DIRECTION ( 'NONE',  ( -0.0000000000000000000, 1.000000000000000000, -0.0000000000000000000 ) ) ;
#633 = DIRECTION ( 'NONE',  ( -0.0000000000000000000, 1.000000000000000000, -0.0000000000000000000 ) ) ;
#634 = ORIENTED_EDGE ( 'NONE', *, *, #722, .F. ) ;
#635 = CARTESIAN_POINT ( 'NONE',  ( 60.50000000000001421, 3.000000000000000000, 0.0000000000000000000 ) ) ;
#636 = CYLINDRICAL_SURFACE ( 'NONE', #105, 1.700000000000000178 ) ;
#637 = EDGE_CURVE ( 'NONE', #293, #844, #886, .T. ) ;
#638 = CARTESIAN_POINT ( 'NONE',  ( -60.49999999999998579, 3.000000000000000000, -1.700000000000000178 ) ) ;
#639 = EDGE_CURVE ( 'NONE', #454, #481, #6, .T. ) ;
#640 = CARTESIAN_POINT ( 'NONE',  ( 61.00000000000001421, 3.000000000000000000, 42.85000000000000853 ) ) ;
#641 = ORIENTED_EDGE ( 'NONE', *, *, #445, .F. ) ;
#642 = DIRECTION ( 'NONE',  ( -1.000000000000000000, -0.0000000000000000000, -0.0000000000000000000 ) ) ;
#643 = ADVANCED_FACE ( 'NONE', ( #452 ), #211, .F. ) ;
#644 = CIRCLE ( 'NONE', #191, 1.700000000000000178 ) ;
#645 = ORIENTED_EDGE ( 'NONE', *, *, #1111, .T. ) ;
#646 = DIRECTION ( 'NONE',  ( 0.0000000000000000000, 0.0000000000000000000, 1.000000000000000000 ) ) ;
#647 = CC_DESIGN_PERSON_AND_ORGANIZATION_ASSIGNMENT ( #493, #943, ( #825 ) ) ;
#648 = ORIENTED_EDGE ( 'NONE', *, *, #740, .T. ) ;
#649 = CARTESIAN_POINT ( 'NONE',  ( 60.50000000000001421, 3.000000000000000000, -39.34999999999998721 ) ) ;
#650 = EDGE_LOOP ( 'NONE', ( #737, #245 ) ) ;
#651 = PRODUCT_DEFINITION_SHAPE ( 'NONE', 'NONE',  #1026 ) ;
#652 = DIRECTION ( 'NONE',  ( -0.0000000000000000000, 1.000000000000000000, -0.0000000000000000000 ) ) ;
#653 = AXIS2_PLACEMENT_3D ( 'NONE', #649, #566, #136 ) ;
#654 = EDGE_LOOP ( 'NONE', ( #341, #334, #461, #741 ) ) ;
#655 = CYLINDRICAL_SURFACE ( 'NONE', #890, 1.700000000000000178 ) ;
#656 = ORIENTED_EDGE ( 'NONE', *, *, #1079, .F. ) ;
#657 = VECTOR ( 'NONE', #800, 1000.000000000000000 ) ;
#658 = EDGE_CURVE ( 'NONE', #844, #694, #986, .T. ) ;
#659 = CARTESIAN_POINT ( 'NONE',  ( -60.49999999999998579, 3.000000000000000000, -39.34999999999998721 ) ) ;
#660 = AXIS2_PLACEMENT_3D ( 'NONE', #792, #20, #265 ) ;
#661 = VECTOR ( 'NONE', #230, 1000.000000000000000 ) ;
#662 = ORIENTED_EDGE ( 'NONE', *, *, #606, .F. ) ;
#663 = FACE_BOUND ( 'NONE', #101, .T. ) ;
#664 = ORIENTED_EDGE ( 'NONE', *, *, #221, .F. ) ;
#665 = CC_DESIGN_PERSON_AND_ORGANIZATION_ASSIGNMENT ( #160, #921, ( #825 ) ) ;
#666 = DATE_AND_TIME ( #149, #750 ) ;
#667 = DIRECTION ( 'NONE',  ( 0.0000000000000000000, 0.0000000000000000000, 1.000000000000000000 ) ) ;
#668 = ORIENTED_EDGE ( 'NONE', *, *, #8, .T. ) ;
#669 = CARTESIAN_POINT ( 'NONE',  ( -63.99999999999998579, 3.000000000000000000, -39.84999999999998721 ) ) ;
#670 = CIRCLE ( 'NONE', #324, 1.700000000000000178 ) ;
#671 = VERTEX_POINT ( 'NONE', #128 ) ;
#672 = DATE_AND_TIME ( #584, #90 ) ;
#673 = DIRECTION ( 'NONE',  ( 0.0000000000000000000, 0.0000000000000000000, 1.000000000000000000 ) ) ;
#674 = ORIENTED_EDGE ( 'NONE', *, *, #325, .T. ) ;
#675 = FACE_BOUND ( 'NONE', #1109, .T. ) ;
#676 = ORIENTED_EDGE ( 'NONE', *, *, #550, .F. ) ;
#677 = EDGE_CURVE ( 'NONE', #812, #50, #778, .T. ) ;
#678 = DIRECTION ( 'NONE',  ( 0.0000000000000000000, -1.000000000000000000, 0.0000000000000000000 ) ) ;
#679 = VERTEX_POINT ( 'NONE', #810 ) ;
#680 = LINE ( 'NONE', #282, #956 ) ;
#681 = EDGE_LOOP ( 'NONE', ( #307, #444 ) ) ;
#682 = APPROVAL_ROLE ( '' ) ;
#683 = DIRECTION ( 'NONE',  ( -0.0000000000000000000, 1.000000000000000000, -0.0000000000000000000 ) ) ;
#684 = LOCAL_TIME ( 8, 8, 3.000000000000000000, #950 ) ;
#685 = ORIENTED_EDGE ( 'NONE', *, *, #12, .T. ) ;
#686 = DIRECTION ( 'NONE',  ( 0.0000000000000000000, 0.0000000000000000000, 1.000000000000000000 ) ) ;
#687 = CIRCLE ( 'NONE', #485, 1.700000000000000178 ) ;
#688 = VERTEX_POINT ( 'NONE', #1056 ) ;
#689 = SECURITY_CLASSIFICATION_LEVEL ( 'unclassified' ) ;
#690 = CARTESIAN_POINT ( 'NONE',  ( -60.99999999999998579, 3.000000000000000000, -39.84999999999998721 ) ) ;
#691 = CIRCLE ( 'NONE', #57, 3.000000000000002665 ) ;
#692 = PLANE ( 'NONE',  #366 ) ;
#693 = CARTESIAN_POINT ( 'NONE',  ( -60.99999999999998579, 0.0000000000000000000, -39.84999999999998721 ) ) ;
#694 = VERTEX_POINT ( 'NONE', #638 ) ;
#695 = ORIENTED_EDGE ( 'NONE', *, *, #843, .F. ) ;
#696 = DIRECTION ( 'NONE',  ( -0.0000000000000000000, 1.000000000000000000, -0.0000000000000000000 ) ) ;
#697 = CARTESIAN_POINT ( 'NONE',  ( 64.00000000000001421, 0.0000000000000000000, 42.85000000000000853 ) ) ;
#698 = EDGE_LOOP ( 'NONE', ( #394, #1015 ) ) ;
#699 = AXIS2_PLACEMENT_3D ( 'NONE', #283, #736, #125 ) ;
#700 = DIRECTION ( 'NONE',  ( 0.0000000000000000000, 0.0000000000000000000, 1.000000000000000000 ) ) ;
#701 = VERTEX_POINT ( 'NONE', #276 ) ;
#702 = AXIS2_PLACEMENT_3D ( 'NONE', #717, #1065, #630 ) ;
#703 = CARTESIAN_POINT ( 'NONE',  ( 0.0000000000000000000, 0.0000000000000000000, 39.35000000000000142 ) ) ;
#704 = EDGE_CURVE ( 'NONE', #671, #224, #691, .T. ) ;
#705 = ORIENTED_EDGE ( 'NONE', *, *, #240, .F. ) ;
#706 = DIRECTION ( 'NONE',  ( 0.0000000000000000000, -1.000000000000000000, 0.0000000000000000000 ) ) ;
#707 = ADVANCED_FACE ( 'NONE', ( #192 ), #203, .F. ) ;
#708 = DIRECTION ( 'NONE',  ( -0.0000000000000000000, 1.000000000000000000, -0.0000000000000000000 ) ) ;
#709 = CARTESIAN_POINT ( 'NONE',  ( -60.49999999999998579, 3.000000000000000000, -39.34999999999998721 ) ) ;
#710 = AXIS2_PLACEMENT_3D ( 'NONE', #596, #18, #877 ) ;
#711 = ORIENTED_EDGE ( 'NONE', *, *, #260, .T. ) ;
#712 = CARTESIAN_POINT ( 'NONE',  ( 0.0000000000000000000, 3.000000000000000000, -18.30999999999999517 ) ) ;
#713 = AXIS2_PLACEMENT_3D ( 'NONE', #703, #881, #174 ) ;
#714 = CIRCLE ( 'NONE', #801, 1.700000000000000178 ) ;
#715 = DIRECTION ( 'NONE',  ( 0.0000000000000000000, 0.0000000000000000000, 1.000000000000000000 ) ) ;
#716 = CARTESIAN_POINT ( 'NONE',  ( 0.0000000000000000000, 3.000000000000000000, 41.05000000000000426 ) ) ;
#717 = CARTESIAN_POINT ( 'NONE',  ( 60.50000000000001421, 3.000000000000000000, -39.34999999999998721 ) ) ;
#718 = LINE ( 'NONE', #201, #157 ) ;
#719 = CIRCLE ( 'NONE', #525, 3.000000000000002665 ) ;
#720 = DIRECTION ( 'NONE',  ( -0.0000000000000000000, 1.000000000000000000, -0.0000000000000000000 ) ) ;
#721 = FACE_OUTER_BOUND ( 'NONE', #327, .T. ) ;
#722 = EDGE_CURVE ( 'NONE', #10, #897, #186, .T. ) ;
#723 = VECTOR ( 'NONE', #720, 1000.000000000000000 ) ;
#724 = DIRECTION ( 'NONE',  ( -0.0000000000000000000, 1.000000000000000000, -0.0000000000000000000 ) ) ;
#725 = CARTESIAN_POINT ( 'NONE',  ( -60.49999999999998579, 3.000000000000000000, 0.0000000000000000000 ) ) ;
#726 = EDGE_CURVE ( 'NONE', #316, #82, #548, .T. ) ;
#727 = DIRECTION ( 'NONE',  ( -0.0000000000000000000, 1.000000000000000000, -0.0000000000000000000 ) ) ;
#728 = CARTESIAN_POINT ( 'NONE',  ( -60.99999999999998579, 0.0000000000000000000, 42.85000000000000853 ) ) ;
#729 = EDGE_CURVE ( 'NONE', #760, #207, #428, .T. ) ;
#730 = ORIENTED_EDGE ( 'NONE', *, *, #409, .T. ) ;
#731 = FACE_OUTER_BOUND ( 'NONE', #920, .T. ) ;
#732 = DIRECTION ( 'NONE',  ( -0.0000000000000000000, 1.000000000000000000, -0.0000000000000000000 ) ) ;
#733 = EDGE_LOOP ( 'NONE', ( #1012, #220 ) ) ;
#734 = DIRECTION ( 'NONE',  ( 0.0000000000000000000, 0.0000000000000000000, 1.000000000000000000 ) ) ;
#735 = CARTESIAN_POINT ( 'NONE',  ( -60.49999999999998579, 0.0000000000000000000, -39.34999999999998721 ) ) ;
#736 = DIRECTION ( 'NONE',  ( -0.0000000000000000000, 1.000000000000000000, -0.0000000000000000000 ) ) ;
#737 = ORIENTED_EDGE ( 'NONE', *, *, #761, .F. ) ;
#738 = DIRECTION ( 'NONE',  ( 0.0000000000000000000, 0.0000000000000000000, -1.000000000000000000 ) ) ;
#739 = LINE ( 'NONE', #918, #456 ) ;
#740 = EDGE_CURVE ( 'NONE', #385, #782, #336, .T. ) ;
#741 = ORIENTED_EDGE ( 'NONE', *, *, #388, .T. ) ;
#742 = FACE_BOUND ( 'NONE', #296, .T. ) ;
#743 = ORIENTED_EDGE ( 'NONE', *, *, #96, .T. ) ;
#744 = DIRECTION ( 'NONE',  ( -0.0000000000000000000, 1.000000000000000000, -0.0000000000000000000 ) ) ;
#745 = ORIENTED_EDGE ( 'NONE', *, *, #803, .T. ) ;
#746 = APPLICATION_PROTOCOL_DEFINITION ( 'international standard', 'config_control_design', 1994, #295 ) ;
#747 = CARTESIAN_POINT ( 'NONE',  ( -63.99999999999998579, 3.000000000000000000, 39.85000000000000142 ) ) ;
#748 = ORIENTED_EDGE ( 'NONE', *, *, #704, .T. ) ;
#749 = CARTESIAN_POINT ( 'NONE',  ( 61.00000000000001421, 3.000000000000000000, 42.85000000000000853 ) ) ;
#750 = LOCAL_TIME ( 8, 8, 3.000000000000000000, #317 ) ;
#751 = EDGE_LOOP ( 'NONE', ( #1022, #1099, #560, #1104 ) ) ;
#752 = APPROVAL_ROLE ( '' ) ;
#753 = CARTESIAN_POINT ( 'NONE',  ( 60.50000000000001421, 3.000000000000000000, 37.65000000000000568 ) ) ;
#754 = ORIENTED_EDGE ( 'NONE', *, *, #561, .T. ) ;
#755 = CARTESIAN_POINT ( 'NONE',  ( -63.99999999999998579, 3.000000000000000000, 42.85000000000000853 ) ) ;
#756 = EDGE_CURVE ( 'NONE', #43, #701, #967, .T. ) ;
#757 = EDGE_LOOP ( 'NONE', ( #279, #1001, #392, #249 ) ) ;
#758 = EDGE_CURVE ( 'NONE', #43, #688, #894, .T. ) ;
#759 = CARTESIAN_POINT ( 'NONE',  ( -60.99999999999998579, 3.000000000000000000, -42.84999999999999432 ) ) ;
#760 = VERTEX_POINT ( 'NONE', #401 ) ;
#761 = EDGE_CURVE ( 'NONE', #688, #130, #714, .T. ) ;
#762 = CYLINDRICAL_SURFACE ( 'NONE', #77, 1.700000000000000178 ) ;
#763 = ORIENTED_EDGE ( 'NONE', *, *, #929, .F. ) ;
#764 = AXIS2_PLACEMENT_3D ( 'NONE', #962, #706, #111 ) ;
#765 = CARTESIAN_POINT ( 'NONE',  ( 0.0000000000000000000, 0.0000000000000000000, -20.00999999999999801 ) ) ;
#766 = AXIS2_PLACEMENT_3D ( 'NONE', #2, #783, #182 ) ;
#767 = EDGE_LOOP ( 'NONE', ( #847, #97, #770, #656 ) ) ;
#768 = AXIS2_PLACEMENT_3D ( 'NONE', #659, #222, #667 ) ;
#769 = DIRECTION ( 'NONE',  ( 0.0000000000000000000, -1.000000000000000000, 0.0000000000000000000 ) ) ;
#770 = ORIENTED_EDGE ( 'NONE', *, *, #623, .T. ) ;
#771 = APPROVAL_STATUS ( 'not_yet_approved' ) ;
#772 = CC_DESIGN_APPROVAL ( #1050, ( #825 ) ) ;
#773 = FACE_OUTER_BOUND ( 'NONE', #511, .T. ) ;
#774 = DIRECTION ( 'NONE',  ( -0.0000000000000000000, 1.000000000000000000, -0.0000000000000000000 ) ) ;
#775 = DIRECTION ( 'NONE',  ( -0.0000000000000000000, 1.000000000000000000, -0.0000000000000000000 ) ) ;
#776 = ORIENTED_EDGE ( 'NONE', *, *, #963, .T. ) ;
#777 = ORIENTED_EDGE ( 'NONE', *, *, #325, .F. ) ;
#778 = CIRCLE ( 'NONE', #629, 3.000000000000002665 ) ;
#779 = CARTESIAN_POINT ( 'NONE',  ( -60.99999999999998579, 0.0000000000000000000, -42.84999999999999432 ) ) ;
#780 = CARTESIAN_POINT ( 'NONE',  ( 60.50000000000001421, 0.0000000000000000000, 1.700000000000000178 ) ) ;
#781 = CIRCLE ( 'NONE', #441, 1.700000000000000178 ) ;
#782 = VERTEX_POINT ( 'NONE', #1017 ) ;
#783 = DIRECTION ( 'NONE',  ( -0.0000000000000000000, 1.000000000000000000, -0.0000000000000000000 ) ) ;
#784 = ORIENTED_EDGE ( 'NONE', *, *, #808, .F. ) ;
#785 = ADVANCED_BREP_SHAPE_REPRESENTATION ( 'CHILLED-POSITION-COVER_V001', ( #429, #537 ), #880 ) ;
#786 = ORGANIZATION ( 'UNSPECIFIED', 'UNSPECIFIED', '' ) ;
#787 = DIRECTION ( 'NONE',  ( 0.0000000000000000000, 0.0000000000000000000, 1.000000000000000000 ) ) ;
#788 = EDGE_LOOP ( 'NONE', ( #164, #748, #917, #269, #583, #310, #571, #304 ) ) ;
#789 = EDGE_CURVE ( 'NONE', #671, #495, #408, .T. ) ;
#790 = DIRECTION ( 'NONE',  ( -0.0000000000000000000, -1.000000000000000000, 0.0000000000000000000 ) ) ;
#791 = CARTESIAN_POINT ( 'NONE',  ( -60.49999999999998579, 3.000000000000000000, 0.0000000000000000000 ) ) ;
#792 = CARTESIAN_POINT ( 'NONE',  ( 60.50000000000001421, 0.0000000000000000000, 0.0000000000000000000 ) ) ;
#793 = VERTEX_POINT ( 'NONE', #997 ) ;
#794 = DIRECTION ( 'NONE',  ( 0.0000000000000000000, 0.0000000000000000000, 1.000000000000000000 ) ) ;
#795 = VECTOR ( 'NONE', #73, 1000.000000000000000 ) ;
#796 = DIRECTION ( 'NONE',  ( -0.0000000000000000000, 1.000000000000000000, -0.0000000000000000000 ) ) ;
#797 = DIRECTION ( 'NONE',  ( 0.0000000000000000000, 0.0000000000000000000, 1.000000000000000000 ) ) ;
#798 = AXIS2_PLACEMENT_3D ( 'NONE', #337, #939, #534 ) ;
#799 = LINE ( 'NONE', #470, #448 ) ;
#800 = DIRECTION ( 'NONE',  ( -0.0000000000000000000, 1.000000000000000000, -0.0000000000000000000 ) ) ;
#801 = AXIS2_PLACEMENT_3D ( 'NONE', #235, #652, #71 ) ;
#802 = CARTESIAN_POINT ( 'NONE',  ( 61.00000000000001421, 0.0000000000000000000, -39.84999999999998721 ) ) ;
#803 = EDGE_CURVE ( 'NONE', #495, #1053, #1105, .T. ) ;
#804 = CARTESIAN_POINT ( 'NONE',  ( 0.0000000000000000000, 3.000000000000000000, -20.00999999999999801 ) ) ;
#805 = ADVANCED_FACE ( 'NONE', ( #139 ), #834, .F. ) ;
#806 = FACE_OUTER_BOUND ( 'NONE', #654, .T. ) ;
#807 = DIRECTION ( 'NONE',  ( -0.0000000000000000000, -0.0000000000000000000, 1.000000000000000000 ) ) ;
#808 = EDGE_CURVE ( 'NONE', #701, #130, #993, .T. ) ;
#809 = VECTOR ( 'NONE', #952, 1000.000000000000000 ) ;
#810 = CARTESIAN_POINT ( 'NONE',  ( 60.50000000000001421, 0.0000000000000000000, -1.700000000000000178 ) ) ;
#811 = CARTESIAN_POINT ( 'NONE',  ( 0.0000000000000000000, 0.0000000000000000000, 39.35000000000000142 ) ) ;
#812 = VERTEX_POINT ( 'NONE', #747 ) ;
#813 = DIRECTION ( 'NONE',  ( -0.0000000000000000000, 1.000000000000000000, -0.0000000000000000000 ) ) ;
#814 = ORIENTED_EDGE ( 'NONE', *, *, #510, .T. ) ;
#815 = DIRECTION ( 'NONE',  ( 0.0000000000000000000, 0.0000000000000000000, 1.000000000000000000 ) ) ;
#816 = CYLINDRICAL_SURFACE ( 'NONE', #172, 1.700000000000000178 ) ;
#817 = VERTEX_POINT ( 'NONE', #326 ) ;
#818 = DIRECTION ( 'NONE',  ( 0.0000000000000000000, 0.0000000000000000000, 1.000000000000000000 ) ) ;
#819 = EDGE_LOOP ( 'NONE', ( #625, #908, #610, #576 ) ) ;
#820 = AXIS2_PLACEMENT_3D ( 'NONE', #27, #117, #367 ) ;
#821 = DIRECTION ( 'NONE',  ( -0.0000000000000000000, 1.000000000000000000, -0.0000000000000000000 ) ) ;
#822 = EDGE_CURVE ( 'NONE', #793, #855, #620, .T. ) ;
#823 = PRODUCT ( 'CHILLED-POSITION-COVER_V001', 'CHILLED-POSITION-COVER_V001', '', ( #513 ) ) ;
#824 = CARTESIAN_POINT ( 'NONE',  ( 60.50000000000001421, 0.0000000000000000000, -41.04999999999999005 ) ) ;
#825 = PRODUCT_DEFINITION_FORMATION_WITH_SPECIFIED_SOURCE ( 'ANY', '', #823, .NOT_KNOWN. ) ;
#826 = ORIENTED_EDGE ( 'NONE', *, *, #1048, .F. ) ;
#827 = EDGE_CURVE ( 'NONE', #195, #232, #305, .T. ) ;
#828 = AXIS2_PLACEMENT_3D ( 'NONE', #811, #887, #39 ) ;
#829 = FACE_BOUND ( 'NONE', #698, .T. ) ;
#830 = VERTEX_POINT ( 'NONE', #564 ) ;
#831 = FACE_BOUND ( 'NONE', #503, .T. ) ;
#832 = VERTEX_POINT ( 'NONE', #61 ) ;
#833 = PERSON_AND_ORGANIZATION_ROLE ( 'classification_officer' ) ;
#834 = CYLINDRICAL_SURFACE ( 'NONE', #1114, 1.700000000000000178 ) ;
#835 = EDGE_LOOP ( 'NONE', ( #664, #64 ) ) ;
#836 = DIRECTION ( 'NONE',  ( -0.0000000000000000000, 1.000000000000000000, -0.0000000000000000000 ) ) ;
#837 = ORIENTED_EDGE ( 'NONE', *, *, #342, .F. ) ;
#838 = APPROVAL_ROLE ( '' ) ;
#839 = CARTESIAN_POINT ( 'NONE',  ( 0.0000000000000000000, 3.000000000000000000, -39.34999999999999432 ) ) ;
#840 = EDGE_CURVE ( 'NONE', #130, #688, #910, .T. ) ;
#841 = ORIENTED_EDGE ( 'NONE', *, *, #221, .T. ) ;
#842 = CYLINDRICAL_SURFACE ( 'NONE', #1036, 3.000000000000002665 ) ;
#843 = EDGE_CURVE ( 'NONE', #1018, #481, #904, .T. ) ;
#844 = VERTEX_POINT ( 'NONE', #494 ) ;
#845 = FACE_OUTER_BOUND ( 'NONE', #5, .T. ) ;
#846 = EDGE_CURVE ( 'NONE', #319, #1086, #318, .T. ) ;
#847 = ORIENTED_EDGE ( 'NONE', *, *, #402, .F. ) ;
#848 = CARTESIAN_POINT ( 'NONE',  ( 60.50000000000001421, 0.0000000000000000000, 39.35000000000000142 ) ) ;
#849 = EDGE_LOOP ( 'NONE', ( #711, #352 ) ) ;
#850 = CC_DESIGN_DATE_AND_TIME_ASSIGNMENT ( #76, #419, ( #934 ) ) ;
#851 = PERSON_AND_ORGANIZATION ( #1003, #786 ) ;
#852 = DIRECTION ( 'NONE',  ( -0.0000000000000000000, 1.000000000000000000, -0.0000000000000000000 ) ) ;
#853 = ORIENTED_EDGE ( 'NONE', *, *, #729, .F. ) ;
#854 = DIRECTION ( 'NONE',  ( 0.0000000000000000000, 0.0000000000000000000, 1.000000000000000000 ) ) ;
#855 = VERTEX_POINT ( 'NONE', #1005 ) ;
#856 = CARTESIAN_POINT ( 'NONE',  ( 0.0000000000000000000, 0.0000000000000000000, 0.0000000000000000000 ) ) ;
#857 = AXIS2_PLACEMENT_3D ( 'NONE', #360, #104, #331 ) ;
#858 = CARTESIAN_POINT ( 'NONE',  ( 60.50000000000001421, 0.0000000000000000000, 37.65000000000000568 ) ) ;
#859 = CIRCLE ( 'NONE', #29, 1.700000000000000178 ) ;
#860 = CYLINDRICAL_SURFACE ( 'NONE', #766, 1.700000000000000178 ) ;
#861 = EDGE_CURVE ( 'NONE', #232, #530, #365, .T. ) ;
#862 = DIRECTION ( 'NONE',  ( 0.0000000000000000000, 0.0000000000000000000, 1.000000000000000000 ) ) ;
#863 = EDGE_LOOP ( 'NONE', ( #1024, #853, #1033, #216 ) ) ;
#864 = EDGE_LOOP ( 'NONE', ( #435, #968 ) ) ;
#865 = DIRECTION ( 'NONE',  ( 1.000000000000000000, 0.0000000000000000000, -0.0000000000000000000 ) ) ;
#866 = DIRECTION ( 'NONE',  ( 0.0000000000000000000, 0.0000000000000000000, -1.000000000000000000 ) ) ;
#867 = AXIS2_PLACEMENT_3D ( 'NONE', #384, #468, #299 ) ;
#868 = EDGE_LOOP ( 'NONE', ( #516, #355, #407, #1060 ) ) ;
#869 = CIRCLE ( 'NONE', #255, 1.700000000000000178 ) ;
#870 = CARTESIAN_POINT ( 'NONE',  ( 0.0000000000000000000, 0.0000000000000000000, 20.01000000000000512 ) ) ;
#871 = CYLINDRICAL_SURFACE ( 'NONE', #581, 3.000000000000002665 ) ;
#872 = AXIS2_PLACEMENT_3D ( 'NONE', #168, #598, #251 ) ;
#873 = VERTEX_POINT ( 'NONE', #931 ) ;
#874 = CARTESIAN_POINT ( 'NONE',  ( 64.00000000000001421, 3.000000000000000000, -39.84999999999998721 ) ) ;
#875 = ADVANCED_FACE ( 'NONE', ( #845 ), #585, .F. ) ;
#876 = VERTEX_POINT ( 'NONE', #390 ) ;
#877 = DIRECTION ( 'NONE',  ( 0.0000000000000000000, 0.0000000000000000000, 1.000000000000000000 ) ) ;
#878 = CC_DESIGN_SECURITY_CLASSIFICATION ( #934, ( #825 ) ) ;
#879 = FACE_OUTER_BOUND ( 'NONE', #819, .T. ) ;
#880 =( GEOMETRIC_REPRESENTATION_CONTEXT ( 3 ) GLOBAL_UNCERTAINTY_ASSIGNED_CONTEXT ( ( #521 ) ) GLOBAL_UNIT_ASSIGNED_CONTEXT ( ( #126, #1077, #471 ) ) REPRESENTATION_CONTEXT ( 'NONE', 'WORKASPACE' ) );
#881 = DIRECTION ( 'NONE',  ( -0.0000000000000000000, 1.000000000000000000, -0.0000000000000000000 ) ) ;
#882 = CIRCLE ( 'NONE', #540, 1.700000000000000178 ) ;
#883 = EDGE_LOOP ( 'NONE', ( #313, #267 ) ) ;
#884 = DIRECTION ( 'NONE',  ( -0.0000000000000000000, -0.0000000000000000000, 1.000000000000000000 ) ) ;
#885 = CARTESIAN_POINT ( 'NONE',  ( 61.00000000000001421, 3.000000000000000000, -42.84999999999999432 ) ) ;
#886 = CIRCLE ( 'NONE', #145, 1.700000000000000178 ) ;
#887 = DIRECTION ( 'NONE',  ( -0.0000000000000000000, 1.000000000000000000, -0.0000000000000000000 ) ) ;
#888 = DIRECTION ( 'NONE',  ( -0.0000000000000000000, 1.000000000000000000, -0.0000000000000000000 ) ) ;
#889 = CARTESIAN_POINT ( 'NONE',  ( -60.49999999999998579, 3.000000000000000000, 1.700000000000000178 ) ) ;
#890 = AXIS2_PLACEMENT_3D ( 'NONE', #315, #1116, #854 ) ;
#891 = DIRECTION ( 'NONE',  ( -0.0000000000000000000, 1.000000000000000000, -0.0000000000000000000 ) ) ;
#892 = LINE ( 'NONE', #459, #54 ) ;
#893 = DIRECTION ( 'NONE',  ( 0.0000000000000000000, 0.0000000000000000000, 1.000000000000000000 ) ) ;
#894 = LINE ( 'NONE', #376, #173 ) ;
#895 = LOCAL_TIME ( 8, 8, 3.000000000000000000, #1100 ) ;
#896 = CARTESIAN_POINT ( 'NONE',  ( 0.0000000000000000000, 3.000000000000000000, 20.01000000000000512 ) ) ;
#897 = VERTEX_POINT ( 'NONE', #154 ) ;
#898 = CYLINDRICAL_SURFACE ( 'NONE', #512, 1.700000000000000178 ) ;
#899 = CARTESIAN_POINT ( 'NONE',  ( -60.49999999999998579, 0.0000000000000000000, 0.0000000000000000000 ) ) ;
#900 = DIRECTION ( 'NONE',  ( -0.0000000000000000000, 1.000000000000000000, -0.0000000000000000000 ) ) ;
#901 = CARTESIAN_POINT ( 'NONE',  ( 0.0000000000000000000, 3.000000000000000000, 20.01000000000000512 ) ) ;
#902 = ORIENTED_EDGE ( 'NONE', *, *, #98, .F. ) ;
#903 = ADVANCED_FACE ( 'NONE', ( #1085, #484, #500, #829, #56, #742, #66, #1090, #414, #311, #1011 ), #923, .F. ) ;
#904 = LINE ( 'NONE', #753, #570 ) ;
#905 = EDGE_CURVE ( 'NONE', #1043, #1018, #477, .T. ) ;
#906 = CARTESIAN_POINT ( 'NONE',  ( 0.0000000000000000000, 3.000000000000000000, 20.01000000000000512 ) ) ;
#907 = CIRCLE ( 'NONE', #223, 1.700000000000000178 ) ;
#908 = ORIENTED_EDGE ( 'NONE', *, *, #658, .T. ) ;
#909 = AXIS2_PLACEMENT_3D ( 'NONE', #442, #787, #865 ) ;
#910 = CIRCLE ( 'NONE', #1059, 1.700000000000000178 ) ;
#911 = CARTESIAN_POINT ( 'NONE',  ( 64.00000000000001421, 3.000000000000000000, 42.85000000000000853 ) ) ;
#912 = APPROVAL_PERSON_ORGANIZATION ( #323, #250, #682 ) ;
#913 = ORIENTED_EDGE ( 'NONE', *, *, #827, .T. ) ;
#914 = LINE ( 'NONE', #329, #21 ) ;
#915 = EDGE_LOOP ( 'NONE', ( #151, #436, #17, #123 ) ) ;
#916 = DIRECTION ( 'NONE',  ( 0.0000000000000000000, 0.0000000000000000000, -1.000000000000000000 ) ) ;
#917 = ORIENTED_EDGE ( 'NONE', *, *, #306, .F. ) ;
#918 = CARTESIAN_POINT ( 'NONE',  ( -63.99999999999998579, 0.0000000000000000000, 42.85000000000000853 ) ) ;
#919 = AXIS2_PLACEMENT_3D ( 'NONE', #552, #1067, #372 ) ;
#920 = EDGE_LOOP ( 'NONE', ( #348, #213, #15, #349 ) ) ;
#921 = PERSON_AND_ORGANIZATION_ROLE ( 'creator' ) ;
#922 = EDGE_CURVE ( 'NONE', #91, #229, #515, .T. ) ;
#923 = PLANE ( 'NONE',  #764 ) ;
#924 = CIRCLE ( 'NONE', #99, 1.700000000000000178 ) ;
#925 = EDGE_CURVE ( 'NONE', #293, #928, #344, .T. ) ;
#926 = ORIENTED_EDGE ( 'NONE', *, *, #40, .T. ) ;
#927 = FACE_BOUND ( 'NONE', #236, .T. ) ;
#928 = VERTEX_POINT ( 'NONE', #889 ) ;
#929 = EDGE_CURVE ( 'NONE', #50, #422, #116, .T. ) ;
#930 = APPROVAL_DATE_TIME ( #672, #250 ) ;
#931 = CARTESIAN_POINT ( 'NONE',  ( 60.50000000000001421, 3.000000000000000000, -37.64999999999999147 ) ) ;
#932 = ORIENTED_EDGE ( 'NONE', *, *, #609, .F. ) ;
#933 = CARTESIAN_POINT ( 'NONE',  ( 64.00000000000001421, 3.000000000000000000, 39.85000000000000142 ) ) ;
#934 = SECURITY_CLASSIFICATION ( '', '', #689 ) ;
#935 = AXIS2_PLACEMENT_3D ( 'NONE', #370, #475, #1076 ) ;
#936 = ORIENTED_EDGE ( 'NONE', *, *, #861, .F. ) ;
#937 = VECTOR ( 'NONE', #451, 1000.000000000000000 ) ;
#938 = PERSON_AND_ORGANIZATION ( #1003, #786 ) ;
#939 = DIRECTION ( 'NONE',  ( -0.0000000000000000000, 1.000000000000000000, -0.0000000000000000000 ) ) ;
#940 = ORIENTED_EDGE ( 'NONE', *, *, #121, .F. ) ;
#941 = DIRECTION ( 'NONE',  ( 0.0000000000000000000, 0.0000000000000000000, 1.000000000000000000 ) ) ;
#942 = ORIENTED_EDGE ( 'NONE', *, *, #861, .T. ) ;
#943 = PERSON_AND_ORGANIZATION_ROLE ( 'design_supplier' ) ;
#944 = DIRECTION ( 'NONE',  ( -0.0000000000000000000, 1.000000000000000000, -0.0000000000000000000 ) ) ;
#945 = ADVANCED_FACE ( 'NONE', ( #184 ), #248, .F. ) ;
#946 = VECTOR ( 'NONE', #496, 1000.000000000000000 ) ;
#947 = ORIENTED_EDGE ( 'NONE', *, *, #328, .F. ) ;
#948 = CARTESIAN_POINT ( 'NONE',  ( 64.00000000000001421, 3.000000000000000000, -39.84999999999998721 ) ) ;
#949 = ORIENTED_EDGE ( 'NONE', *, *, #529, .F. ) ;
#950 = COORDINATED_UNIVERSAL_TIME_OFFSET ( 8, 0, .BEHIND. ) ;
#951 = FACE_OUTER_BOUND ( 'NONE', #757, .T. ) ;
#952 = DIRECTION ( 'NONE',  ( 0.0000000000000000000, 0.0000000000000000000, -1.000000000000000000 ) ) ;
#953 = ORIENTED_EDGE ( 'NONE', *, *, #1010, .F. ) ;
#954 = DIRECTION ( 'NONE',  ( -0.0000000000000000000, 1.000000000000000000, -0.0000000000000000000 ) ) ;
#955 = FACE_OUTER_BOUND ( 'NONE', #252, .T. ) ;
#956 = VECTOR ( 'NONE', #978, 1000.000000000000000 ) ;
#957 = ORIENTED_EDGE ( 'NONE', *, *, #529, .T. ) ;
#958 = ADVANCED_FACE ( 'NONE', ( #1061 ), #506, .F. ) ;
#959 = FACE_OUTER_BOUND ( 'NONE', #1020, .T. ) ;
#960 = EDGE_CURVE ( 'NONE', #1043, #454, #431, .T. ) ;
#961 = ORIENTED_EDGE ( 'NONE', *, *, #761, .T. ) ;
#962 = CARTESIAN_POINT ( 'NONE',  ( 0.0000000000000000000, 3.000000000000000000, 0.0000000000000000000 ) ) ;
#963 = EDGE_CURVE ( 'NONE', #844, #293, #615, .T. ) ;
#964 = CARTESIAN_POINT ( 'NONE',  ( 0.0000000000000000000, 3.000000000000000000, 39.35000000000000142 ) ) ;
#965 = CARTESIAN_POINT ( 'NONE',  ( 60.50000000000001421, 3.000000000000000000, -37.64999999999999147 ) ) ;
#966 = AXIS2_PLACEMENT_3D ( 'NONE', #870, #88, #1057 ) ;
#967 = CIRCLE ( 'NONE', #368, 1.700000000000000178 ) ;
#968 = ORIENTED_EDGE ( 'NONE', *, *, #822, .F. ) ;
#969 = LINE ( 'NONE', #190, #1025 ) ;
#970 = CARTESIAN_POINT ( 'NONE',  ( 0.0000000000000000000, 0.0000000000000000000, 41.05000000000000426 ) ) ;
#971 = VECTOR ( 'NONE', #991, 1000.000000000000000 ) ;
#972 = CARTESIAN_POINT ( 'NONE',  ( 0.0000000000000000000, 0.0000000000000000000, -20.00999999999999801 ) ) ;
#973 = AXIS2_PLACEMENT_3D ( 'NONE', #896, #1074, #212 ) ;
#974 = VERTEX_POINT ( 'NONE', #712 ) ;
#975 = LINE ( 'NONE', #196, #449 ) ;
#976 = DIRECTION ( 'NONE',  ( -0.0000000000000000000, 1.000000000000000000, -0.0000000000000000000 ) ) ;
#977 = AXIS2_PLACEMENT_3D ( 'NONE', #94, #100, #1041 ) ;
#978 = DIRECTION ( 'NONE',  ( 1.000000000000000000, 0.0000000000000000000, 0.0000000000000000000 ) ) ;
#979 = DIRECTION ( 'NONE',  ( -0.0000000000000000000, 1.000000000000000000, -0.0000000000000000000 ) ) ;
#980 = CARTESIAN_POINT ( 'NONE',  ( -60.49999999999998579, 3.000000000000000000, 0.0000000000000000000 ) ) ;
#981 = CARTESIAN_POINT ( 'NONE',  ( -60.49999999999998579, 3.000000000000000000, -1.700000000000000178 ) ) ;
#982 = DIRECTION ( 'NONE',  ( -0.0000000000000000000, 1.000000000000000000, -0.0000000000000000000 ) ) ;
#983 = ORIENTED_EDGE ( 'NONE', *, *, #127, .T. ) ;
#984 = ORIENTED_EDGE ( 'NONE', *, *, #994, .T. ) ;
#985 = CARTESIAN_POINT ( 'NONE',  ( -60.99999999999998579, 3.000000000000000000, -42.84999999999999432 ) ) ;
#986 = LINE ( 'NONE', #981, #723 ) ;
#987 = CIRCLE ( 'NONE', #935, 1.700000000000000178 ) ;
#988 = DIRECTION ( 'NONE',  ( -0.0000000000000000000, 1.000000000000000000, -0.0000000000000000000 ) ) ;
#989 = EDGE_CURVE ( 'NONE', #481, #454, #274, .T. ) ;
#990 = CARTESIAN_POINT ( 'NONE',  ( 0.0000000000000000000, 3.000000000000000000, 39.35000000000000142 ) ) ;
#991 = DIRECTION ( 'NONE',  ( -0.0000000000000000000, 1.000000000000000000, -0.0000000000000000000 ) ) ;
#992 = VERTEX_POINT ( 'NONE', #455 ) ;
#993 = LINE ( 'NONE', #217, #480 ) ;
#994 = EDGE_CURVE ( 'NONE', #701, #43, #907, .T. ) ;
#995 = FACE_OUTER_BOUND ( 'NONE', #788, .T. ) ;
#996 = EDGE_LOOP ( 'NONE', ( #382, #953 ) ) ;
#997 = CARTESIAN_POINT ( 'NONE',  ( -60.49999999999998579, 3.000000000000000000, -41.04999999999999005 ) ) ;
#998 = ORIENTED_EDGE ( 'NONE', *, *, #758, .T. ) ;
#999 = CARTESIAN_POINT ( 'NONE',  ( -60.49999999999998579, 3.000000000000000000, 37.65000000000000568 ) ) ;
#1000 = AXIS2_PLACEMENT_3D ( 'NONE', #489, #133, #144 ) ;
#1001 = ORIENTED_EDGE ( 'NONE', *, *, #242, .T. ) ;
#1002 = CIRCLE ( 'NONE', #966, 1.700000000000000178 ) ;
#1003 = PERSON ( 'UNSPECIFIED', 'UNSPECIFIED', 'UNSPECIFIED', ('UNSPECIFIED'), ('UNSPECIFIED'), ('UNSPECIFIED') ) ;
#1004 = AXIS2_PLACEMENT_3D ( 'NONE', #472, #38, #458 ) ;
#1005 = CARTESIAN_POINT ( 'NONE',  ( -60.49999999999998579, 3.000000000000000000, -37.64999999999999147 ) ) ;
#1006 = FACE_OUTER_BOUND ( 'NONE', #1084, .T. ) ;
#1007 = EDGE_CURVE ( 'NONE', #387, #497, #134, .T. ) ;
#1008 = ORIENTED_EDGE ( 'NONE', *, *, #929, .T. ) ;
#1009 = COORDINATED_UNIVERSAL_TIME_OFFSET ( 8, 0, .BEHIND. ) ;
#1010 = EDGE_CURVE ( 'NONE', #138, #1086, #463, .T. ) ;
#1011 = FACE_OUTER_BOUND ( 'NONE', #1040, .T. ) ;
#1012 = ORIENTED_EDGE ( 'NONE', *, *, #905, .T. ) ;
#1013 = EDGE_CURVE ( 'NONE', #103, #830, #166, .T. ) ;
#1014 = DIRECTION ( 'NONE',  ( 0.0000000000000000000, 0.0000000000000000000, -1.000000000000000000 ) ) ;
#1015 = ORIENTED_EDGE ( 'NONE', *, *, #40, .F. ) ;
#1016 = PERSON_AND_ORGANIZATION ( #1003, #786 ) ;
#1017 = CARTESIAN_POINT ( 'NONE',  ( 2.081899558550498801E-16, 0.0000000000000000000, 18.31000000000000227 ) ) ;
#1018 = VERTEX_POINT ( 'NONE', #858 ) ;
#1019 = FACE_BOUND ( 'NONE', #1091, .T. ) ;
#1020 = EDGE_LOOP ( 'NONE', ( #58, #668, #926, #257 ) ) ;
#1021 = DIRECTION ( 'NONE',  ( -0.0000000000000000000, 1.000000000000000000, -0.0000000000000000000 ) ) ;
#1022 = ORIENTED_EDGE ( 'NONE', *, *, #306, .T. ) ;
#1023 = CARTESIAN_POINT ( 'NONE',  ( 64.00000000000001421, 0.0000000000000000000, -39.84999999999998721 ) ) ;
#1024 = ORIENTED_EDGE ( 'NONE', *, *, #155, .F. ) ;
#1025 = VECTOR ( 'NONE', #539, 1000.000000000000000 ) ;
#1026 = PRODUCT_DEFINITION ( 'UNKNOWN', '', #825, #505 ) ;
#1027 = COORDINATED_UNIVERSAL_TIME_OFFSET ( 8, 0, .BEHIND. ) ;
#1028 = DIRECTION ( 'NONE',  ( -0.0000000000000000000, 1.000000000000000000, -0.0000000000000000000 ) ) ;
#1029 = CIRCLE ( 'NONE', #193, 1.700000000000000178 ) ;
#1030 = ADVANCED_FACE ( 'NONE', ( #773 ), #1, .T. ) ;
#1031 = ORIENTED_EDGE ( 'NONE', *, *, #44, .F. ) ;
#1032 = CARTESIAN_POINT ( 'NONE',  ( 60.50000000000001421, 0.0000000000000000000, 0.0000000000000000000 ) ) ;
#1033 = ORIENTED_EDGE ( 'NONE', *, *, #492, .T. ) ;
#1034 = CIRCLE ( 'NONE', #438, 1.700000000000000178 ) ;
#1035 = CARTESIAN_POINT ( 'NONE',  ( 60.50000000000001421, 3.000000000000000000, 41.05000000000000426 ) ) ;
#1036 = AXIS2_PLACEMENT_3D ( 'NONE', #244, #53, #237 ) ;
#1037 = DIRECTION ( 'NONE',  ( 0.0000000000000000000, 0.0000000000000000000, 1.000000000000000000 ) ) ;
#1038 = CARTESIAN_POINT ( 'NONE',  ( -60.49999999999998579, 3.000000000000000000, -41.04999999999999005 ) ) ;
#1039 = ORIENTED_EDGE ( 'NONE', *, *, #846, .F. ) ;
#1040 = EDGE_LOOP ( 'NONE', ( #913, #942, #4, #483, #1075, #1102, #60, #524 ) ) ;
#1041 = DIRECTION ( 'NONE',  ( 0.0000000000000000000, 0.0000000000000000000, -1.000000000000000000 ) ) ;
#1042 = DIRECTION ( 'NONE',  ( -0.0000000000000000000, 1.000000000000000000, -0.0000000000000000000 ) ) ;
#1043 = VERTEX_POINT ( 'NONE', #273 ) ;
#1044 = EDGE_CURVE ( 'NONE', #375, #497, #969, .T. ) ;
#1045 = EDGE_CURVE ( 'NONE', #103, #812, #626, .T. ) ;
#1046 = CARTESIAN_POINT ( 'NONE',  ( 60.50000000000001421, 3.000000000000000000, 0.0000000000000000000 ) ) ;
#1047 = CIRCLE ( 'NONE', #702, 1.700000000000000178 ) ;
#1048 = EDGE_CURVE ( 'NONE', #195, #10, #975, .T. ) ;
#1049 = ORIENTED_EDGE ( 'NONE', *, *, #1010, .T. ) ;
#1050 = APPROVAL ( #1095, 'UNSPECIFIED' ) ;
#1051 = LINE ( 'NONE', #874, #85 ) ;
#1052 = AXIS2_PLACEMENT_3D ( 'NONE', #218, #575, #397 ) ;
#1053 = VERTEX_POINT ( 'NONE', #985 ) ;
#1054 = CARTESIAN_POINT ( 'NONE',  ( -60.99999999999998579, 3.000000000000000000, 42.85000000000000853 ) ) ;
#1055 = AXIS2_PLACEMENT_3D ( 'NONE', #765, #1021, #24 ) ;
#1056 = CARTESIAN_POINT ( 'NONE',  ( 0.0000000000000000000, 3.000000000000000000, -37.64999999999999858 ) ) ;
#1057 = DIRECTION ( 'NONE',  ( 0.0000000000000000000, 0.0000000000000000000, 1.000000000000000000 ) ) ;
#1058 = CIRCLE ( 'NONE', #713, 1.700000000000000178 ) ;
#1059 = AXIS2_PLACEMENT_3D ( 'NONE', #839, #241, #673 ) ;
#1060 = ORIENTED_EDGE ( 'NONE', *, *, #1007, .T. ) ;
#1061 = FACE_OUTER_BOUND ( 'NONE', #338, .T. ) ;
#1062 = EDGE_CURVE ( 'NONE', #694, #928, #644, .T. ) ;
#1063 = CARTESIAN_POINT ( 'NONE',  ( 0.0000000000000000000, 0.0000000000000000000, -39.34999999999999432 ) ) ;
#1064 = CARTESIAN_POINT ( 'NONE',  ( 0.0000000000000000000, 3.000000000000000000, -39.34999999999999432 ) ) ;
#1065 = DIRECTION ( 'NONE',  ( -0.0000000000000000000, 1.000000000000000000, -0.0000000000000000000 ) ) ;
#1066 = CC_DESIGN_PERSON_AND_ORGANIZATION_ASSIGNMENT ( #851, #165, ( #1026 ) ) ;
#1067 = DIRECTION ( 'NONE',  ( -0.0000000000000000000, 1.000000000000000000, -0.0000000000000000000 ) ) ;
#1068 = AXIS2_PLACEMENT_3D ( 'NONE', #383, #976, #291 ) ;
#1069 = CARTESIAN_POINT ( 'NONE',  ( 2.081899558550499787E-16, 3.000000000000000000, -21.70999999999999730 ) ) ;
#1070 = ORIENTED_EDGE ( 'NONE', *, *, #843, .T. ) ;
#1071 = LINE ( 'NONE', #294, #309 ) ;
#1072 = CIRCLE ( 'NONE', #239, 1.700000000000000178 ) ;
#1073 = DIRECTION ( 'NONE',  ( 0.0000000000000000000, -1.000000000000000000, 0.0000000000000000000 ) ) ;
#1074 = DIRECTION ( 'NONE',  ( -0.0000000000000000000, 1.000000000000000000, -0.0000000000000000000 ) ) ;
#1075 = ORIENTED_EDGE ( 'NONE', *, *, #1045, .T. ) ;
#1076 = DIRECTION ( 'NONE',  ( 0.0000000000000000000, 0.0000000000000000000, 1.000000000000000000 ) ) ;
#1077 =( NAMED_UNIT ( * ) PLANE_ANGLE_UNIT ( ) SI_UNIT ( $, .RADIAN. ) );
#1078 = ORIENTED_EDGE ( 'NONE', *, *, #756, .T. ) ;
#1079 = EDGE_CURVE ( 'NONE', #616, #387, #371, .T. ) ;
#1080 = CARTESIAN_POINT ( 'NONE',  ( 0.0000000000000000000, 0.0000000000000000000, 20.01000000000000512 ) ) ;
#1081 = DIRECTION ( 'NONE',  ( -0.0000000000000000000, 1.000000000000000000, -0.0000000000000000000 ) ) ;
#1082 = EDGE_LOOP ( 'NONE', ( #940, #594, #183, #685 ) ) ;
#1083 = DIRECTION ( 'NONE',  ( -0.0000000000000000000, 1.000000000000000000, -0.0000000000000000000 ) ) ;
#1084 = EDGE_LOOP ( 'NONE', ( #486, #743, #947, #1008 ) ) ;
#1085 = FACE_BOUND ( 'NONE', #864, .T. ) ;
#1086 = VERTEX_POINT ( 'NONE', #381 ) ;
#1087 = FACE_OUTER_BOUND ( 'NONE', #863, .T. ) ;
#1088 = ORIENTED_EDGE ( 'NONE', *, *, #623, .F. ) ;
#1089 = AXIS2_PLACEMENT_3D ( 'NONE', #848, #1098, #227 ) ;
#1090 = FACE_BOUND ( 'NONE', #588, .T. ) ;
#1091 = EDGE_LOOP ( 'NONE', ( #332, #776 ) ) ;
#1092 = CYLINDRICAL_SURFACE ( 'NONE', #653, 1.700000000000000178 ) ;
#1093 = AXIS2_PLACEMENT_3D ( 'NONE', #478, #1096, #738 ) ;
#1094 = ORIENTED_EDGE ( 'NONE', *, *, #677, .F. ) ;
#1095 = APPROVAL_STATUS ( 'not_yet_approved' ) ;
#1096 = DIRECTION ( 'NONE',  ( 1.000000000000000000, -0.0000000000000000000, 0.0000000000000000000 ) ) ;
#1097 = ORIENTED_EDGE ( 'NONE', *, *, #1062, .F. ) ;
#1098 = DIRECTION ( 'NONE',  ( -0.0000000000000000000, 1.000000000000000000, -0.0000000000000000000 ) ) ;
#1099 = ORIENTED_EDGE ( 'NONE', *, *, #550, .T. ) ;
#1100 = COORDINATED_UNIVERSAL_TIME_OFFSET ( 8, 0, .BEHIND. ) ;
#1101 = CARTESIAN_POINT ( 'NONE',  ( -63.99999999999998579, 0.0000000000000000000, -42.84999999999999432 ) ) ;
#1102 = ORIENTED_EDGE ( 'NONE', *, *, #677, .T. ) ;
#1103 = CARTESIAN_POINT ( 'NONE',  ( 2.081899558550499294E-16, 3.000000000000000000, -41.04999999999999716 ) ) ;
#1104 = ORIENTED_EDGE ( 'NONE', *, *, #1048, .T. ) ;
#1105 = LINE ( 'NONE', #759, #661 ) ;
#1106 = ORIENTED_EDGE ( 'NONE', *, *, #403, .T. ) ;
#1107 = ADVANCED_FACE ( 'NONE', ( #215 ), #636, .F. ) ;
#1108 = CARTESIAN_POINT ( 'NONE',  ( 0.0000000000000000000, 3.000000000000000000, -18.30999999999999517 ) ) ;
#1109 = EDGE_LOOP ( 'NONE', ( #648, #176 ) ) ;
#1110 = APPROVAL_DATE_TIME ( #413, #619 ) ;
#1111 = EDGE_CURVE ( 'NONE', #830, #832, #718, .T. ) ;
#1112 = AXIS2_PLACEMENT_3D ( 'NONE', #362, #271, #700 ) ;
#1113 = DIRECTION ( 'NONE',  ( 0.0000000000000000000, 0.0000000000000000000, 1.000000000000000000 ) ) ;
#1114 = AXIS2_PLACEMENT_3D ( 'NONE', #51, #821, #646 ) ;
#1115 = EDGE_LOOP ( 'NONE', ( #169, #322, #508, #586 ) ) ;
#1116 = DIRECTION ( 'NONE',  ( -0.0000000000000000000, 1.000000000000000000, -0.0000000000000000000 ) ) ;
#1117 = ORIENTED_EDGE ( 'NONE', *, *, #960, .F. ) ;
ENDSEC;
END-ISO-10303-21;
