ISO-10303-21;
HEADER;
FILE_DESCRIPTION (( 'STEP AP203' ),
    '1' );
FILE_NAME ('CHILLED-POSITION-BASE_V001.STEP',
    '2019-06-27T15:07:47',
    ( '' ),
    ( '' ),
    'SwSTEP 2.0',
    'SolidWorks 2019',
    '' );
FILE_SCHEMA (( 'CONFIG_CONTROL_DESIGN' ));
ENDSEC;

DATA;
#1 = DIRECTION ( 'NONE',  ( -0.0000000000000000000, 1.000000000000000000, -0.0000000000000000000 ) ) ;
#2 = CYLINDRICAL_SURFACE ( 'NONE', #146, 3.149999999999999911 ) ;
#3 = DIRECTION ( 'NONE',  ( 0.0000000000000000000, -0.0000000000000000000, -1.000000000000000000 ) ) ;
#4 = ADVANCED_FACE ( 'NONE', ( #255 ), #820, .F. ) ;
#5 = AXIS2_PLACEMENT_3D ( 'NONE', #570, #911, #328 ) ;
#6 = AXIS2_PLACEMENT_3D ( 'NONE', #151, #814, #482 ) ;
#7 = DIRECTION ( 'NONE',  ( 0.0000000000000000000, 0.7071067811865473507, 0.7071067811865477948 ) ) ;
#8 = DIRECTION ( 'NONE',  ( -0.0000000000000000000, 1.000000000000000000, -0.0000000000000000000 ) ) ;
#9 = ORIENTED_EDGE ( 'NONE', *, *, #762, .F. ) ;
#10 = DIRECTION ( 'NONE',  ( 0.0000000000000000000, -1.000000000000000000, 0.0000000000000000000 ) ) ;
#11 = EDGE_CURVE ( 'NONE', #932, #442, #305, .T. ) ;
#12 = CYLINDRICAL_SURFACE ( 'NONE', #752, 3.149999999999999911 ) ;
#13 = ORIENTED_EDGE ( 'NONE', *, *, #918, .F. ) ;
#14 = CARTESIAN_POINT ( 'NONE',  ( -60.49999999999998579, 3.000000000000000000, -39.34999999999998721 ) ) ;
#15 = FACE_OUTER_BOUND ( 'NONE', #886, .T. ) ;
#16 = DIRECTION ( 'NONE',  ( 0.0000000000000000000, -1.000000000000000000, 0.0000000000000000000 ) ) ;
#17 = ORIENTED_EDGE ( 'NONE', *, *, #440, .T. ) ;
#18 = CARTESIAN_POINT ( 'NONE',  ( 60.50000000000001421, 2.000000000000000000, -39.34999999999998721 ) ) ;
#19 = CIRCLE ( 'NONE', #983, 3.149999999999999911 ) ;
#20 = EDGE_CURVE ( 'NONE', #777, #538, #168, .T. ) ;
#21 = FACE_OUTER_BOUND ( 'NONE', #149, .T. ) ;
#22 = ORIENTED_EDGE ( 'NONE', *, *, #99, .F. ) ;
#23 = DIRECTION ( 'NONE',  ( -0.0000000000000000000, 1.000000000000000000, -0.0000000000000000000 ) ) ;
#24 = LINE ( 'NONE', #532, #804 ) ;
#25 = VERTEX_POINT ( 'NONE', #172 ) ;
#26 = DIRECTION ( 'NONE',  ( 0.0000000000000000000, 0.7071067811865473507, 0.7071067811865477948 ) ) ;
#27 = COORDINATED_UNIVERSAL_TIME_OFFSET ( 8, 0, .BEHIND. ) ;
#28 = CARTESIAN_POINT ( 'NONE',  ( -60.49999999999998579, 3.000000000000000000, 42.50000000000000000 ) ) ;
#29 = ORIENTED_EDGE ( 'NONE', *, *, #330, .T. ) ;
#30 = CARTESIAN_POINT ( 'NONE',  ( 60.50000000000001421, -2.602085213965210642E-15, 37.64999999999999858 ) ) ;
#31 = EDGE_CURVE ( 'NONE', #208, #569, #582, .T. ) ;
#32 = AXIS2_PLACEMENT_3D ( 'NONE', #61, #127, #799 ) ;
#33 = AXIS2_PLACEMENT_3D ( 'NONE', #953, #563, #802 ) ;
#34 = ORIENTED_EDGE ( 'NONE', *, *, #11, .T. ) ;
#35 = AXIS2_PLACEMENT_3D ( 'NONE', #659, #916, #503 ) ;
#36 = AXIS2_PLACEMENT_3D ( 'NONE', #498, #567, #818 ) ;
#37 = ORIENTED_EDGE ( 'NONE', *, *, #53, .T. ) ;
#38 = DIRECTION ( 'NONE',  ( -0.0000000000000000000, 1.000000000000000000, -0.0000000000000000000 ) ) ;
#39 = ORIENTED_EDGE ( 'NONE', *, *, #876, .F. ) ;
#40 = CARTESIAN_POINT ( 'NONE',  ( -60.49999999999998579, 3.000000000000000000, -36.19999999999998863 ) ) ;
#41 = ORIENTED_EDGE ( 'NONE', *, *, #128, .F. ) ;
#42 = DIRECTION ( 'NONE',  ( -0.0000000000000000000, 1.000000000000000000, -0.0000000000000000000 ) ) ;
#43 = ORIENTED_EDGE ( 'NONE', *, *, #177, .F. ) ;
#44 = ORIENTED_EDGE ( 'NONE', *, *, #909, .T. ) ;
#45 = EDGE_CURVE ( 'NONE', #1046, #148, #351, .T. ) ;
#46 = CARTESIAN_POINT ( 'NONE',  ( 64.00000000000001421, 3.000000000000000000, 42.85000000000000853 ) ) ;
#47 = ORIENTED_EDGE ( 'NONE', *, *, #749, .F. ) ;
#48 = CARTESIAN_POINT ( 'NONE',  ( -63.99999999999998579, 3.000000000000000000, 42.85000000000000853 ) ) ;
#49 = ORIENTED_EDGE ( 'NONE', *, *, #1065, .F. ) ;
#50 = ORIENTED_EDGE ( 'NONE', *, *, #45, .T. ) ;
#51 = CIRCLE ( 'NONE', #407, 1.700000000000007061 ) ;
#52 = CARTESIAN_POINT ( 'NONE',  ( 60.50000000000001421, 2.000000000000000000, -42.49999999999998579 ) ) ;
#53 = EDGE_CURVE ( 'NONE', #148, #869, #740, .T. ) ;
#54 = DIRECTION ( 'NONE',  ( 0.0000000000000000000, 0.0000000000000000000, 1.000000000000000000 ) ) ;
#55 = AXIS2_PLACEMENT_3D ( 'NONE', #1008, #10, #3 ) ;
#56 = ORIENTED_EDGE ( 'NONE', *, *, #749, .T. ) ;
#57 = EDGE_CURVE ( 'NONE', #1051, #1023, #88, .T. ) ;
#58 = SHAPE_DEFINITION_REPRESENTATION ( #253, #828 ) ;
#59 = ORIENTED_EDGE ( 'NONE', *, *, #245, .T. ) ;
#60 = DIRECTION ( 'NONE',  ( 1.000000000000000000, 0.0000000000000000000, 0.0000000000000000000 ) ) ;
#61 = CARTESIAN_POINT ( 'NONE',  ( 60.50000000000001421, 0.5500000000000005995, 39.35000000000000142 ) ) ;
#62 = ORIENTED_EDGE ( 'NONE', *, *, #517, .T. ) ;
#63 = CC_DESIGN_DATE_AND_TIME_ASSIGNMENT ( #465, #957, ( #773 ) ) ;
#64 = EDGE_LOOP ( 'NONE', ( #464, #43, #987, #370 ) ) ;
#65 = FACE_OUTER_BOUND ( 'NONE', #906, .T. ) ;
#66 = CYLINDRICAL_SURFACE ( 'NONE', #87, 1.700000000000000178 ) ;
#67 = ORIENTED_EDGE ( 'NONE', *, *, #251, .T. ) ;
#68 = ADVANCED_FACE ( 'NONE', ( #832 ), #1063, .F. ) ;
#69 = CARTESIAN_POINT ( 'NONE',  ( -63.99999999999998579, 0.0000000000000000000, 39.85000000000000142 ) ) ;
#70 = DIRECTION ( 'NONE',  ( -0.0000000000000000000, -1.000000000000000000, 0.0000000000000000000 ) ) ;
#71 = VECTOR ( 'NONE', #325, 1000.000000000000000 ) ;
#72 = VECTOR ( 'NONE', #369, 1000.000000000000000 ) ;
#73 = FACE_BOUND ( 'NONE', #723, .T. ) ;
#74 = AXIS2_PLACEMENT_3D ( 'NONE', #654, #414, #1001 ) ;
#75 = AXIS2_PLACEMENT_3D ( 'NONE', #929, #947, #98 ) ;
#76 = DIRECTION ( 'NONE',  ( 0.0000000000000000000, 0.0000000000000000000, 1.000000000000000000 ) ) ;
#77 = FACE_OUTER_BOUND ( 'NONE', #634, .T. ) ;
#78 = CARTESIAN_POINT ( 'NONE',  ( -60.49999999999998579, 3.000000000000003553, 39.35000000000000142 ) ) ;
#79 = CARTESIAN_POINT ( 'NONE',  ( -60.49999999999998579, -2.602085213965210642E-15, 39.35000000000000142 ) ) ;
#80 = EDGE_CURVE ( 'NONE', #1057, #641, #822, .T. ) ;
#81 = CARTESIAN_POINT ( 'NONE',  ( -60.49999999999998579, 0.5500000000000005995, -39.34999999999998721 ) ) ;
#82 = ADVANCED_FACE ( 'NONE', ( #266, #991, #176, #73, #337 ), #83, .T. ) ;
#83 = PLANE ( 'NONE',  #55 ) ;
#84 = CARTESIAN_POINT ( 'NONE',  ( 60.50000000000001421, -2.602085213965210642E-15, -41.04999999999999716 ) ) ;
#85 = DIRECTION ( 'NONE',  ( -0.0000000000000000000, 1.000000000000000000, -0.0000000000000000000 ) ) ;
#86 = ADVANCED_FACE ( 'NONE', ( #342 ), #428, .F. ) ;
#87 = AXIS2_PLACEMENT_3D ( 'NONE', #974, #874, #54 ) ;
#88 = LINE ( 'NONE', #1003, #474 ) ;
#89 = CIRCLE ( 'NONE', #436, 1.700000000000000178 ) ;
#90 = AXIS2_PLACEMENT_3D ( 'NONE', #157, #252, #170 ) ;
#91 = CIRCLE ( 'NONE', #120, 1.700000000000000178 ) ;
#92 = DIRECTION ( 'NONE',  ( 8.659560562354936556E-17, 0.7071067811865473507, -0.7071067811865477948 ) ) ;
#93 = LINE ( 'NONE', #171, #326 ) ;
#94 = CARTESIAN_POINT ( 'NONE',  ( -60.49999999999998579, 3.000000000000000000, -39.34999999999998721 ) ) ;
#95 = PERSON_AND_ORGANIZATION_ROLE ( 'design_supplier' ) ;
#96 = FACE_OUTER_BOUND ( 'NONE', #893, .T. ) ;
#97 = VERTEX_POINT ( 'NONE', #843 ) ;
#98 = DIRECTION ( 'NONE',  ( 0.0000000000000000000, 0.0000000000000000000, 1.000000000000000000 ) ) ;
#99 = EDGE_CURVE ( 'NONE', #538, #572, #424, .T. ) ;
#100 = DATE_AND_TIME ( #426, #943 ) ;
#101 = DIRECTION ( 'NONE',  ( 0.0000000000000000000, 0.0000000000000000000, -1.000000000000000000 ) ) ;
#102 = EDGE_LOOP ( 'NONE', ( #39, #729, #850, #213 ) ) ;
#103 = PLANE ( 'NONE',  #324 ) ;
#104 = AXIS2_PLACEMENT_3D ( 'NONE', #554, #143, #737 ) ;
#105 = MECHANICAL_CONTEXT ( 'NONE', #310, 'mechanical' ) ;
#106 = CIRCLE ( 'NONE', #250, 1.700000000000000178 ) ;
#107 = DIRECTION ( 'NONE',  ( 0.0000000000000000000, 0.0000000000000000000, 1.000000000000000000 ) ) ;
#108 = ORIENTED_EDGE ( 'NONE', *, *, #490, .F. ) ;
#109 = DIRECTION ( 'NONE',  ( 0.0000000000000000000, 0.0000000000000000000, 1.000000000000000000 ) ) ;
#110 = CALENDAR_DATE ( 2019, 27, 6 ) ;
#111 = CARTESIAN_POINT ( 'NONE',  ( -63.99999999999998579, 3.000000000000000000, 42.85000000000000853 ) ) ;
#112 = ADVANCED_FACE ( 'NONE', ( #995 ), #761, .F. ) ;
#113 = ORIENTED_EDGE ( 'NONE', *, *, #201, .F. ) ;
#114 = LINE ( 'NONE', #446, #837 ) ;
#115 = CARTESIAN_POINT ( 'NONE',  ( -60.49999999999998579, 3.000000000000000000, -42.49999999999998579 ) ) ;
#116 = ORIENTED_EDGE ( 'NONE', *, *, #583, .T. ) ;
#117 = CARTESIAN_POINT ( 'NONE',  ( -60.49999999999998579, 2.000000000000000000, -39.34999999999998721 ) ) ;
#118 = EDGE_CURVE ( 'NONE', #97, #869, #944, .T. ) ;
#119 = PRODUCT ( 'CHILLED-POSITION-BASE_V001', 'CHILLED-POSITION-BASE_V001', '', ( #105 ) ) ;
#120 = AXIS2_PLACEMENT_3D ( 'NONE', #744, #257, #993 ) ;
#121 = CONICAL_SURFACE ( 'NONE', #340, 3.149999999999999911, 0.7853981633974485010 ) ;
#122 = ORIENTED_EDGE ( 'NONE', *, *, #447, .T. ) ;
#123 = VECTOR ( 'NONE', #26, 999.9999999999998863 ) ;
#124 = CARTESIAN_POINT ( 'NONE',  ( 60.50000000000001421, -2.602085213965210642E-15, 41.05000000000001137 ) ) ;
#125 = VECTOR ( 'NONE', #1002, 1000.000000000000000 ) ;
#126 = ORIENTED_EDGE ( 'NONE', *, *, #413, .T. ) ;
#127 = DIRECTION ( 'NONE',  ( -0.0000000000000000000, 1.000000000000000000, -0.0000000000000000000 ) ) ;
#128 = EDGE_CURVE ( 'NONE', #193, #712, #196, .T. ) ;
#129 = CC_DESIGN_PERSON_AND_ORGANIZATION_ASSIGNMENT ( #758, #1005, ( #438 ) ) ;
#130 = VERTEX_POINT ( 'NONE', #249 ) ;
#131 = LINE ( 'NONE', #468, #574 ) ;
#132 = ORIENTED_EDGE ( 'NONE', *, *, #579, .T. ) ;
#133 = CYLINDRICAL_SURFACE ( 'NONE', #237, 1.700000000000000178 ) ;
#134 = ORIENTED_EDGE ( 'NONE', *, *, #909, .F. ) ;
#135 = ADVANCED_FACE ( 'NONE', ( #578 ), #913, .T. ) ;
#136 = PERSON_AND_ORGANIZATION ( #205, #857 ) ;
#137 = ORIENTED_EDGE ( 'NONE', *, *, #852, .T. ) ;
#138 = FACE_OUTER_BOUND ( 'NONE', #1048, .T. ) ;
#139 = DIRECTION ( 'NONE',  ( 0.0000000000000000000, 0.0000000000000000000, 1.000000000000000000 ) ) ;
#140 = ORIENTED_EDGE ( 'NONE', *, *, #546, .T. ) ;
#141 = ORIENTED_EDGE ( 'NONE', *, *, #889, .T. ) ;
#142 = AXIS2_PLACEMENT_3D ( 'NONE', #226, #398, #150 ) ;
#143 = DIRECTION ( 'NONE',  ( 0.0000000000000000000, -1.000000000000000000, 0.0000000000000000000 ) ) ;
#144 = AXIS2_PLACEMENT_3D ( 'NONE', #1024, #599, #432 ) ;
#145 = LINE ( 'NONE', #881, #229 ) ;
#146 = AXIS2_PLACEMENT_3D ( 'NONE', #905, #901, #834 ) ;
#147 = EDGE_CURVE ( 'NONE', #208, #1023, #374, .T. ) ;
#148 = VERTEX_POINT ( 'NONE', #525 ) ;
#149 = EDGE_LOOP ( 'NONE', ( #319, #389, #397, #771 ) ) ;
#150 = DIRECTION ( 'NONE',  ( 0.0000000000000000000, 0.0000000000000000000, 1.000000000000000000 ) ) ;
#151 = CARTESIAN_POINT ( 'NONE',  ( 60.50000000000001421, 3.000000000000000000, -39.34999999999998721 ) ) ;
#152 = ADVANCED_FACE ( 'NONE', ( #847 ), #754, .F. ) ;
#153 = ORIENTED_EDGE ( 'NONE', *, *, #379, .F. ) ;
#154 = DIRECTION ( 'NONE',  ( 0.0000000000000000000, 0.0000000000000000000, 1.000000000000000000 ) ) ;
#155 = CARTESIAN_POINT ( 'NONE',  ( 60.50000000000001421, 0.5500000000000005995, 41.05000000000000426 ) ) ;
#156 = DIRECTION ( 'NONE',  ( -0.0000000000000000000, 1.000000000000000000, -0.0000000000000000000 ) ) ;
#157 = CARTESIAN_POINT ( 'NONE',  ( 61.00000000000001421, 3.000000000000000000, 39.85000000000000142 ) ) ;
#158 = DIRECTION ( 'NONE',  ( -0.0000000000000000000, 1.000000000000000000, -0.0000000000000000000 ) ) ;
#159 = AXIS2_PLACEMENT_3D ( 'NONE', #849, #192, #862 ) ;
#160 = AXIS2_PLACEMENT_3D ( 'NONE', #923, #948, #191 ) ;
#161 = DIRECTION ( 'NONE',  ( 8.659560562354936556E-17, 0.7071067811865473507, -0.7071067811865477948 ) ) ;
#162 = APPROVAL_PERSON_ORGANIZATION ( #136, #1047, #887 ) ;
#163 = CIRCLE ( 'NONE', #964, 3.000000000000002665 ) ;
#164 = LOCAL_TIME ( 8, 7, 47.00000000000000000, #629 ) ;
#165 = ADVANCED_FACE ( 'NONE', ( #1015 ), #103, .F. ) ;
#166 = LINE ( 'NONE', #830, #391 ) ;
#167 = LINE ( 'NONE', #1067, #980 ) ;
#168 = LINE ( 'NONE', #672, #996 ) ;
#169 = EDGE_CURVE ( 'NONE', #1057, #606, #272, .T. ) ;
#170 = DIRECTION ( 'NONE',  ( 0.0000000000000000000, 0.0000000000000000000, -1.000000000000000000 ) ) ;
#171 = CARTESIAN_POINT ( 'NONE',  ( -63.99999999999998579, 3.000000000000000000, -39.84999999999998721 ) ) ;
#172 = CARTESIAN_POINT ( 'NONE',  ( 60.50000000000001421, 0.5500000000000005995, -37.64999999999999147 ) ) ;
#173 = DIRECTION ( 'NONE',  ( -0.0000000000000000000, 1.000000000000000000, -0.0000000000000000000 ) ) ;
#174 = LINE ( 'NONE', #825, #375 ) ;
#175 = AXIS2_PLACEMENT_3D ( 'NONE', #963, #544, #469 ) ;
#176 = FACE_BOUND ( 'NONE', #1040, .T. ) ;
#177 = EDGE_CURVE ( 'NONE', #606, #895, #268, .T. ) ;
#178 = CIRCLE ( 'NONE', #489, 1.700000000000000178 ) ;
#179 = VECTOR ( 'NONE', #161, 999.9999999999998863 ) ;
#180 = VECTOR ( 'NONE', #577, 1000.000000000000000 ) ;
#181 = DATE_AND_TIME ( #110, #910 ) ;
#182 = CARTESIAN_POINT ( 'NONE',  ( 60.50000000000001421, 3.000000000000003553, -36.19999999999998863 ) ) ;
#183 = EDGE_LOOP ( 'NONE', ( #621, #880, #745, #977 ) ) ;
#184 = CARTESIAN_POINT ( 'NONE',  ( -60.49999999999998579, 0.5500000000000005995, -37.64999999999999147 ) ) ;
#185 = EDGE_CURVE ( 'NONE', #1051, #639, #163, .T. ) ;
#186 = ADVANCED_FACE ( 'NONE', ( #1034 ), #294, .F. ) ;
#187 = APPROVAL_ROLE ( '' ) ;
#188 = DIRECTION ( 'NONE',  ( -0.0000000000000000000, 1.000000000000000000, -0.0000000000000000000 ) ) ;
#189 = ORIENTED_EDGE ( 'NONE', *, *, #675, .T. ) ;
#190 = DIRECTION ( 'NONE',  ( 0.0000000000000000000, 0.0000000000000000000, -1.000000000000000000 ) ) ;
#191 = DIRECTION ( 'NONE',  ( 0.0000000000000000000, 0.0000000000000000000, 1.000000000000000000 ) ) ;
#192 = DIRECTION ( 'NONE',  ( -0.0000000000000000000, 1.000000000000000000, -0.0000000000000000000 ) ) ;
#193 = VERTEX_POINT ( 'NONE', #530 ) ;
#194 = CARTESIAN_POINT ( 'NONE',  ( -63.99999999999998579, 3.000000000000000000, -42.84999999999999432 ) ) ;
#195 = APPROVAL_PERSON_ORGANIZATION ( #368, #642, #187 ) ;
#196 = CIRCLE ( 'NONE', #924, 3.149999999999999911 ) ;
#197 = EDGE_CURVE ( 'NONE', #712, #193, #493, .T. ) ;
#198 = LINE ( 'NONE', #434, #941 ) ;
#199 = VERTEX_POINT ( 'NONE', #184 ) ;
#200 = DIRECTION ( 'NONE',  ( -0.0000000000000000000, 1.000000000000000000, -0.0000000000000000000 ) ) ;
#201 = EDGE_CURVE ( 'NONE', #199, #311, #106, .T. ) ;
#202 = LINE ( 'NONE', #28, #72 ) ;
#203 = EDGE_LOOP ( 'NONE', ( #455, #902, #593, #972 ) ) ;
#204 = CARTESIAN_POINT ( 'NONE',  ( 60.50000000000001421, 3.000000000000000000, 39.35000000000000142 ) ) ;
#205 = PERSON ( 'UNSPECIFIED', 'UNSPECIFIED', 'UNSPECIFIED', ('UNSPECIFIED'), ('UNSPECIFIED'), ('UNSPECIFIED') ) ;
#206 = VERTEX_POINT ( 'NONE', #933 ) ;
#207 = CARTESIAN_POINT ( 'NONE',  ( -60.99999999999998579, 3.000000000000000000, -42.84999999999999432 ) ) ;
#208 = VERTEX_POINT ( 'NONE', #362 ) ;
#209 = CARTESIAN_POINT ( 'NONE',  ( -60.49999999999998579, 3.000000000000000000, 39.35000000000000142 ) ) ;
#210 = EDGE_CURVE ( 'NONE', #869, #97, #286, .T. ) ;
#211 = CIRCLE ( 'NONE', #175, 3.149999999999999911 ) ;
#212 = CIRCLE ( 'NONE', #1025, 3.149999999999999911 ) ;
#213 = ORIENTED_EDGE ( 'NONE', *, *, #315, .T. ) ;
#214 = AXIS2_PLACEMENT_3D ( 'NONE', #117, #23, #859 ) ;
#215 = DIRECTION ( 'NONE',  ( -0.0000000000000000000, 1.000000000000000000, -0.0000000000000000000 ) ) ;
#216 = ORIENTED_EDGE ( 'NONE', *, *, #728, .T. ) ;
#217 = CARTESIAN_POINT ( 'NONE',  ( 60.50000000000001421, 3.000000000000000000, -39.34999999999998721 ) ) ;
#218 = VERTEX_POINT ( 'NONE', #30 ) ;
#219 = EDGE_CURVE ( 'NONE', #715, #290, #921, .T. ) ;
#220 = VERTEX_POINT ( 'NONE', #851 ) ;
#221 = LINE ( 'NONE', #207, #390 ) ;
#222 = FACE_OUTER_BOUND ( 'NONE', #480, .T. ) ;
#223 = ORIENTED_EDGE ( 'NONE', *, *, #583, .F. ) ;
#224 = CALENDAR_DATE ( 2019, 27, 6 ) ;
#225 = VERTEX_POINT ( 'NONE', #951 ) ;
#226 = CARTESIAN_POINT ( 'NONE',  ( 60.50000000000001421, -2.602085213965210642E-15, -39.34999999999998721 ) ) ;
#227 = FACE_OUTER_BOUND ( 'NONE', #903, .T. ) ;
#228 = ORIENTED_EDGE ( 'NONE', *, *, #692, .F. ) ;
#229 = VECTOR ( 'NONE', #644, 1000.000000000000000 ) ;
#230 = EDGE_LOOP ( 'NONE', ( #800, #301, #899, #22 ) ) ;
#231 = EDGE_CURVE ( 'NONE', #1053, #760, #356, .T. ) ;
#232 = VECTOR ( 'NONE', #239, 1000.000000000000000 ) ;
#233 = LINE ( 'NONE', #40, #682 ) ;
#234 = CONICAL_SURFACE ( 'NONE', #160, 3.149999999999999911, 0.7853981633974485010 ) ;
#235 = VECTOR ( 'NONE', #587, 1000.000000000000000 ) ;
#236 = DIRECTION ( 'NONE',  ( 0.0000000000000000000, 0.0000000000000000000, 1.000000000000000000 ) ) ;
#237 = AXIS2_PLACEMENT_3D ( 'NONE', #731, #1059, #383 ) ;
#238 = EDGE_LOOP ( 'NONE', ( #228, #431, #534, #132 ) ) ;
#239 = DIRECTION ( 'NONE',  ( -1.000000000000000000, -0.0000000000000000000, -0.0000000000000000000 ) ) ;
#240 = CARTESIAN_POINT ( 'NONE',  ( 60.50000000000001421, -2.602085213965210642E-15, 39.35000000000000142 ) ) ;
#241 = ORIENTED_EDGE ( 'NONE', *, *, #709, .F. ) ;
#242 = CARTESIAN_POINT ( 'NONE',  ( -60.49999999999998579, -2.602085213965210642E-15, -37.64999999999998437 ) ) ;
#243 = CARTESIAN_POINT ( 'NONE',  ( -60.49999999999998579, 2.000000000000000000, -42.49999999999998579 ) ) ;
#244 = DIRECTION ( 'NONE',  ( -0.0000000000000000000, 1.000000000000000000, -0.0000000000000000000 ) ) ;
#245 = EDGE_CURVE ( 'NONE', #569, #292, #114, .T. ) ;
#246 = CARTESIAN_POINT ( 'NONE',  ( 60.50000000000001421, 3.000000000000003553, -39.34999999999998721 ) ) ;
#247 = LINE ( 'NONE', #502, #71 ) ;
#248 = AXIS2_PLACEMENT_3D ( 'NONE', #417, #1, #833 ) ;
#249 = CARTESIAN_POINT ( 'NONE',  ( -60.99999999999998579, 3.000000000000000000, 42.85000000000000853 ) ) ;
#250 = AXIS2_PLACEMENT_3D ( 'NONE', #516, #782, #778 ) ;
#251 = EDGE_CURVE ( 'NONE', #1043, #483, #1064, .T. ) ;
#252 = DIRECTION ( 'NONE',  ( -0.0000000000000000000, 1.000000000000000000, -0.0000000000000000000 ) ) ;
#253 = PRODUCT_DEFINITION_SHAPE ( 'NONE', 'NONE',  #293 ) ;
#254 = DIRECTION ( 'NONE',  ( 8.659560562354936556E-17, 0.7071067811865473507, -0.7071067811865477948 ) ) ;
#255 = FACE_OUTER_BOUND ( 'NONE', #238, .T. ) ;
#256 = DIRECTION ( 'NONE',  ( -0.0000000000000000000, 1.000000000000000000, -0.0000000000000000000 ) ) ;
#257 = DIRECTION ( 'NONE',  ( -0.0000000000000000000, 1.000000000000000000, -0.0000000000000000000 ) ) ;
#258 = CC_DESIGN_PERSON_AND_ORGANIZATION_ASSIGNMENT ( #763, #513, ( #773 ) ) ;
#259 = ORIENTED_EDGE ( 'NONE', *, *, #467, .T. ) ;
#260 = CARTESIAN_POINT ( 'NONE',  ( -60.49999999999998579, 0.5500000000000005995, 39.35000000000000142 ) ) ;
#261 = PERSON_AND_ORGANIZATION ( #205, #857 ) ;
#262 = EDGE_CURVE ( 'NONE', #572, #1053, #410, .T. ) ;
#263 = DIRECTION ( 'NONE',  ( -0.0000000000000000000, 1.000000000000000000, -0.0000000000000000000 ) ) ;
#264 = ORIENTED_EDGE ( 'NONE', *, *, #810, .T. ) ;
#265 = CIRCLE ( 'NONE', #36, 3.149999999999999911 ) ;
#266 = FACE_BOUND ( 'NONE', #811, .T. ) ;
#267 = VECTOR ( 'NONE', #797, 1000.000000000000000 ) ;
#268 = CIRCLE ( 'NONE', #358, 3.149999999999999911 ) ;
#269 = DIRECTION ( 'NONE',  ( 0.0000000000000000000, 0.0000000000000000000, 1.000000000000000000 ) ) ;
#270 = CARTESIAN_POINT ( 'NONE',  ( -60.49999999999998579, -2.602085213965210642E-15, 37.64999999999999858 ) ) ;
#271 = ORIENTED_EDGE ( 'NONE', *, *, #579, .F. ) ;
#272 = LINE ( 'NONE', #450, #123 ) ;
#273 =( NAMED_UNIT ( * ) SI_UNIT ( $, .STERADIAN. ) SOLID_ANGLE_UNIT ( ) );
#274 = CYLINDRICAL_SURFACE ( 'NONE', #768, 3.000000000000002665 ) ;
#275 = EDGE_LOOP ( 'NONE', ( #863, #888, #134, #216, #586, #950, #623, #536 ) ) ;
#276 = CYLINDRICAL_SURFACE ( 'NONE', #505, 1.700000000000000178 ) ;
#277 = ADVANCED_FACE ( 'NONE', ( #1020 ), #276, .F. ) ;
#278 = APPLICATION_PROTOCOL_DEFINITION ( 'international standard', 'config_control_design', 1994, #310 ) ;
#279 = DIRECTION ( 'NONE',  ( 0.0000000000000000000, 0.0000000000000000000, 1.000000000000000000 ) ) ;
#280 = EDGE_LOOP ( 'NONE', ( #271, #108 ) ) ;
#281 = CARTESIAN_POINT ( 'NONE',  ( -60.99999999999998579, 0.0000000000000000000, -39.84999999999998721 ) ) ;
#282 = AXIS2_PLACEMENT_3D ( 'NONE', #845, #695, #448 ) ;
#283 = ADVANCED_FACE ( 'NONE', ( #222 ), #1055, .F. ) ;
#284 = AXIS2_PLACEMENT_3D ( 'NONE', #94, #156, #419 ) ;
#285 = CARTESIAN_POINT ( 'NONE',  ( -60.49999999999998579, 0.5500000000000005995, 41.05000000000000426 ) ) ;
#286 = CIRCLE ( 'NONE', #696, 3.149999999999999911 ) ;
#287 = CARTESIAN_POINT ( 'NONE',  ( -60.49999999999998579, -2.602085213965210642E-15, -39.34999999999998721 ) ) ;
#288 = ORIENTED_EDGE ( 'NONE', *, *, #776, .F. ) ;
#289 = DIRECTION ( 'NONE',  ( 0.0000000000000000000, 0.0000000000000000000, 1.000000000000000000 ) ) ;
#290 = VERTEX_POINT ( 'NONE', #885 ) ;
#291 = LINE ( 'NONE', #871, #717 ) ;
#292 = VERTEX_POINT ( 'NONE', #1044 ) ;
#293 = PRODUCT_DEFINITION ( 'UNKNOWN', '', #438, #575 ) ;
#294 = CYLINDRICAL_SURFACE ( 'NONE', #75, 3.149999999999999911 ) ;
#295 = ORIENTED_EDGE ( 'NONE', *, *, #80, .F. ) ;
#296 = DIRECTION ( 'NONE',  ( 0.0000000000000000000, 0.0000000000000000000, -1.000000000000000000 ) ) ;
#297 = ADVANCED_FACE ( 'NONE', ( #633 ), #133, .F. ) ;
#298 = EDGE_LOOP ( 'NONE', ( #241, #515, #122, #449 ) ) ;
#299 = CARTESIAN_POINT ( 'NONE',  ( 60.50000000000001421, -2.602085213965210642E-15, -37.64999999999998437 ) ) ;
#300 = EDGE_CURVE ( 'NONE', #1046, #307, #945, .T. ) ;
#301 = ORIENTED_EDGE ( 'NONE', *, *, #452, .T. ) ;
#302 = AXIS2_PLACEMENT_3D ( 'NONE', #1032, #618, #960 ) ;
#303 = CC_DESIGN_APPROVAL ( #823, ( #293 ) ) ;
#304 = ORIENTED_EDGE ( 'NONE', *, *, #852, .F. ) ;
#305 = CIRCLE ( 'NONE', #664, 3.000000000000002665 ) ;
#306 = DIRECTION ( 'NONE',  ( 0.0000000000000000000, 0.0000000000000000000, 1.000000000000000000 ) ) ;
#307 = VERTEX_POINT ( 'NONE', #299 ) ;
#308 = DIRECTION ( 'NONE',  ( 0.0000000000000000000, 0.0000000000000000000, 1.000000000000000000 ) ) ;
#309 = ORIENTED_EDGE ( 'NONE', *, *, #876, .T. ) ;
#310 = APPLICATION_CONTEXT ( 'configuration controlled 3d designs of mechanical parts and assemblies' ) ;
#311 = VERTEX_POINT ( 'NONE', #620 ) ;
#312 = CARTESIAN_POINT ( 'NONE',  ( -60.99999999999998579, 3.000000000000000000, 39.85000000000000142 ) ) ;
#313 = DIRECTION ( 'NONE',  ( -0.0000000000000000000, 1.000000000000000000, -0.0000000000000000000 ) ) ;
#314 = ORIENTED_EDGE ( 'NONE', *, *, #714, .F. ) ;
#315 = EDGE_CURVE ( 'NONE', #538, #316, #894, .T. ) ;
#316 = VERTEX_POINT ( 'NONE', #638 ) ;
#317 = FACE_BOUND ( 'NONE', #280, .T. ) ;
#318 = DIRECTION ( 'NONE',  ( -0.0000000000000000000, 1.000000000000000000, -0.0000000000000000000 ) ) ;
#319 = ORIENTED_EDGE ( 'NONE', *, *, #11, .F. ) ;
#320 = ADVANCED_FACE ( 'NONE', ( #956 ), #66, .F. ) ;
#321 = AXIS2_PLACEMENT_3D ( 'NONE', #240, #8, #915 ) ;
#322 = VECTOR ( 'NONE', #456, 1000.000000000000000 ) ;
#323 = LINE ( 'NONE', #651, #422 ) ;
#324 = AXIS2_PLACEMENT_3D ( 'NONE', #194, #109, #868 ) ;
#325 = DIRECTION ( 'NONE',  ( -0.0000000000000000000, 1.000000000000000000, -0.0000000000000000000 ) ) ;
#326 = VECTOR ( 'NONE', #70, 1000.000000000000000 ) ;
#327 = ORIENTED_EDGE ( 'NONE', *, *, #1016, .F. ) ;
#328 = DIRECTION ( 'NONE',  ( 0.0000000000000000000, 0.0000000000000000000, 1.000000000000000000 ) ) ;
#329 = LINE ( 'NONE', #421, #785 ) ;
#330 = EDGE_CURVE ( 'NONE', #220, #760, #610, .T. ) ;
#331 = ORIENTED_EDGE ( 'NONE', *, *, #783, .T. ) ;
#332 = DIRECTION ( 'NONE',  ( 0.0000000000000000000, 0.0000000000000000000, -1.000000000000000000 ) ) ;
#333 = EDGE_CURVE ( 'NONE', #653, #405, #562, .T. ) ;
#334 = CARTESIAN_POINT ( 'NONE',  ( -60.49999999999998579, 2.000000000000000000, -42.49999999999998579 ) ) ;
#335 = CARTESIAN_POINT ( 'NONE',  ( -60.49999999999998579, -2.602085213965210642E-15, 41.05000000000001137 ) ) ;
#336 = ADVANCED_FACE ( 'NONE', ( #968 ), #716, .F. ) ;
#337 = FACE_OUTER_BOUND ( 'NONE', #275, .T. ) ;
#338 = FACE_OUTER_BOUND ( 'NONE', #384, .T. ) ;
#339 = LINE ( 'NONE', #581, #821 ) ;
#340 = AXIS2_PLACEMENT_3D ( 'NONE', #403, #879, #637 ) ;
#341 = AXIS2_PLACEMENT_3D ( 'NONE', #907, #1070, #999 ) ;
#342 = FACE_OUTER_BOUND ( 'NONE', #183, .T. ) ;
#343 = CARTESIAN_POINT ( 'NONE',  ( -63.99999999999998579, 0.0000000000000000000, -39.84999999999998721 ) ) ;
#344 = FACE_OUTER_BOUND ( 'NONE', #298, .T. ) ;
#345 = VERTEX_POINT ( 'NONE', #388 ) ;
#346 = CARTESIAN_POINT ( 'NONE',  ( 60.50000000000001421, 3.000000000000003553, -39.34999999999998721 ) ) ;
#347 = ADVANCED_FACE ( 'NONE', ( #1050 ), #624, .F. ) ;
#348 =( NAMED_UNIT ( * ) PLANE_ANGLE_UNIT ( ) SI_UNIT ( $, .RADIAN. ) );
#349 = FACE_OUTER_BOUND ( 'NONE', #704, .T. ) ;
#350 = ORIENTED_EDGE ( 'NONE', *, *, #231, .F. ) ;
#351 = LINE ( 'NONE', #573, #235 ) ;
#352 = UNCERTAINTY_MEASURE_WITH_UNIT (LENGTH_MEASURE( 1.000000000000000082E-05 ), #688, 'distance_accuracy_value', 'NONE');
#353 = DIRECTION ( 'NONE',  ( 0.0000000000000000000, 0.0000000000000000000, 1.000000000000000000 ) ) ;
#354 = ORIENTED_EDGE ( 'NONE', *, *, #219, .F. ) ;
#355 = AXIS2_PLACEMENT_3D ( 'NONE', #371, #699, #1029 ) ;
#356 = LINE ( 'NONE', #684, #755 ) ;
#357 = AXIS2_PLACEMENT_3D ( 'NONE', #817, #256, #154 ) ;
#358 = AXIS2_PLACEMENT_3D ( 'NONE', #443, #38, #378 ) ;
#359 = CARTESIAN_POINT ( 'NONE',  ( 60.50000000000001421, 0.5500000000000005995, 39.35000000000000142 ) ) ;
#360 = ADVANCED_FACE ( 'NONE', ( #227 ), #891, .F. ) ;
#361 = ORIENTED_EDGE ( 'NONE', *, *, #118, .T. ) ;
#362 = CARTESIAN_POINT ( 'NONE',  ( -60.99999999999998579, 0.0000000000000000000, 42.85000000000000853 ) ) ;
#363 = CC_DESIGN_DATE_AND_TIME_ASSIGNMENT ( #181, #531, ( #293 ) ) ;
#364 = LINE ( 'NONE', #115, #873 ) ;
#365 = ORIENTED_EDGE ( 'NONE', *, *, #649, .T. ) ;
#366 = DIRECTION ( 'NONE',  ( 0.0000000000000000000, 0.0000000000000000000, 1.000000000000000000 ) ) ;
#367 = EDGE_CURVE ( 'NONE', #760, #220, #211, .T. ) ;
#368 = PERSON_AND_ORGANIZATION ( #205, #857 ) ;
#369 = DIRECTION ( 'NONE',  ( -0.0000000000000000000, 1.000000000000000000, -0.0000000000000000000 ) ) ;
#370 = ORIENTED_EDGE ( 'NONE', *, *, #197, .T. ) ;
#371 = CARTESIAN_POINT ( 'NONE',  ( -60.99999999999998579, 3.000000000000000000, -39.84999999999998721 ) ) ;
#372 = CIRCLE ( 'NONE', #1027, 1.700000000000000178 ) ;
#373 = CIRCLE ( 'NONE', #74, 3.149999999999999911 ) ;
#374 = CIRCLE ( 'NONE', #665, 3.000000000000002665 ) ;
#375 = VECTOR ( 'NONE', #1072, 1000.000000000000000 ) ;
#376 = ORIENTED_EDGE ( 'NONE', *, *, #490, .T. ) ;
#377 = ORIENTED_EDGE ( 'NONE', *, *, #99, .T. ) ;
#378 = DIRECTION ( 'NONE',  ( 0.0000000000000000000, 0.0000000000000000000, 1.000000000000000000 ) ) ;
#379 = EDGE_CURVE ( 'NONE', #405, #1057, #145, .T. ) ;
#380 = VERTEX_POINT ( 'NONE', #394 ) ;
#381 = DIRECTION ( 'NONE',  ( -0.0000000000000000000, 1.000000000000000000, -0.0000000000000000000 ) ) ;
#382 = ORIENTED_EDGE ( 'NONE', *, *, #795, .T. ) ;
#383 = DIRECTION ( 'NONE',  ( 0.0000000000000000000, 0.0000000000000000000, 1.000000000000000000 ) ) ;
#384 = EDGE_LOOP ( 'NONE', ( #327, #603, #561, #952 ) ) ;
#385 = ORIENTED_EDGE ( 'NONE', *, *, #367, .F. ) ;
#386 = CARTESIAN_POINT ( 'NONE',  ( -60.49999999999998579, 2.000000000000000000, 36.20000000000000284 ) ) ;
#387 = ORIENTED_EDGE ( 'NONE', *, *, #379, .T. ) ;
#388 = CARTESIAN_POINT ( 'NONE',  ( 64.00000000000001421, 0.0000000000000000000, -39.84999999999998721 ) ) ;
#389 = ORIENTED_EDGE ( 'NONE', *, *, #1000, .F. ) ;
#390 = VECTOR ( 'NONE', #813, 1000.000000000000000 ) ;
#391 = VECTOR ( 'NONE', #7, 999.9999999999998863 ) ;
#392 = ORIENTED_EDGE ( 'NONE', *, *, #210, .F. ) ;
#393 = CARTESIAN_POINT ( 'NONE',  ( 60.50000000000001421, 0.5500000000000005995, -39.34999999999998721 ) ) ;
#394 = CARTESIAN_POINT ( 'NONE',  ( 64.00000000000001421, 0.0000000000000000000, 39.85000000000000142 ) ) ;
#395 = EDGE_CURVE ( 'NONE', #895, #193, #722, .T. ) ;
#396 = ORIENTED_EDGE ( 'NONE', *, *, #1030, .T. ) ;
#397 = ORIENTED_EDGE ( 'NONE', *, *, #743, .F. ) ;
#398 = DIRECTION ( 'NONE',  ( -0.0000000000000000000, 1.000000000000000000, -0.0000000000000000000 ) ) ;
#399 = CARTESIAN_POINT ( 'NONE',  ( 60.50000000000001421, 3.000000000000003553, 39.35000000000000142 ) ) ;
#400 = ORIENTED_EDGE ( 'NONE', *, *, #53, .F. ) ;
#401 = ADVANCED_FACE ( 'NONE', ( #979 ), #564, .F. ) ;
#402 = ORIENTED_EDGE ( 'NONE', *, *, #635, .T. ) ;
#403 = CARTESIAN_POINT ( 'NONE',  ( 60.50000000000001421, 2.000000000000000000, -39.34999999999998721 ) ) ;
#404 = DIRECTION ( 'NONE',  ( 0.0000000000000000000, 0.0000000000000000000, 1.000000000000000000 ) ) ;
#405 = VERTEX_POINT ( 'NONE', #335 ) ;
#406 = AXIS2_PLACEMENT_3D ( 'NONE', #346, #607, #938 ) ;
#407 = AXIS2_PLACEMENT_3D ( 'NONE', #287, #263, #353 ) ;
#408 = DIRECTION ( 'NONE',  ( 0.0000000000000000000, 0.0000000000000000000, -1.000000000000000000 ) ) ;
#409 = LINE ( 'NONE', #986, #589 ) ;
#410 = CIRCLE ( 'NONE', #736, 3.149999999999999911 ) ;
#411 = ORIENTED_EDGE ( 'NONE', *, *, #795, .F. ) ;
#412 = CARTESIAN_POINT ( 'NONE',  ( -63.99999999999998579, 0.0000000000000000000, 42.85000000000000853 ) ) ;
#413 = EDGE_CURVE ( 'NONE', #869, #290, #167, .T. ) ;
#414 = DIRECTION ( 'NONE',  ( -0.0000000000000000000, 1.000000000000000000, -0.0000000000000000000 ) ) ;
#415 = CARTESIAN_POINT ( 'NONE',  ( 61.00000000000001421, 3.000000000000000000, -42.84999999999999432 ) ) ;
#416 = DIRECTION ( 'NONE',  ( 0.0000000000000000000, 0.0000000000000000000, 1.000000000000000000 ) ) ;
#417 = CARTESIAN_POINT ( 'NONE',  ( 60.50000000000001421, 2.000000000000000000, -39.34999999999998721 ) ) ;
#418 = CARTESIAN_POINT ( 'NONE',  ( 60.50000000000001421, 3.000000000000000000, -37.64999999999999147 ) ) ;
#419 = DIRECTION ( 'NONE',  ( 0.0000000000000000000, 0.0000000000000000000, 1.000000000000000000 ) ) ;
#420 = DIRECTION ( 'NONE',  ( -0.0000000000000000000, 1.000000000000000000, -0.0000000000000000000 ) ) ;
#421 = CARTESIAN_POINT ( 'NONE',  ( 60.50000000000001421, 2.000000000000000000, 36.20000000000000284 ) ) ;
#422 = VECTOR ( 'NONE', #408, 1000.000000000000000 ) ;
#423 = AXIS2_PLACEMENT_3D ( 'NONE', #594, #244, #496 ) ;
#424 = LINE ( 'NONE', #757, #735 ) ;
#425 = EDGE_CURVE ( 'NONE', #25, #148, #91, .T. ) ;
#426 = CALENDAR_DATE ( 2019, 27, 6 ) ;
#427 = CYLINDRICAL_SURFACE ( 'NONE', #733, 1.700000000000000178 ) ;
#428 = CYLINDRICAL_SURFACE ( 'NONE', #35, 1.700000000000000178 ) ;
#429 = PERSON_AND_ORGANIZATION ( #205, #857 ) ;
#430 = DIRECTION ( 'NONE',  ( 0.0000000000000000000, 0.0000000000000000000, 1.000000000000000000 ) ) ;
#431 = ORIENTED_EDGE ( 'NONE', *, *, #600, .F. ) ;
#432 = DIRECTION ( 'NONE',  ( 0.0000000000000000000, 0.0000000000000000000, -1.000000000000000000 ) ) ;
#433 = PERSON_AND_ORGANIZATION_ROLE ( 'creator' ) ;
#434 = CARTESIAN_POINT ( 'NONE',  ( -60.99999999999998579, 3.000000000000000000, 42.85000000000000853 ) ) ;
#435 = ORIENTED_EDGE ( 'NONE', *, *, #219, .T. ) ;
#436 = AXIS2_PLACEMENT_3D ( 'NONE', #393, #215, #306 ) ;
#437 = DIRECTION ( 'NONE',  ( -0.0000000000000000000, 1.000000000000000000, -0.0000000000000000000 ) ) ;
#438 = PRODUCT_DEFINITION_FORMATION_WITH_SPECIFIED_SOURCE ( 'ANY', '', #119, .NOT_KNOWN. ) ;
#439 = DIRECTION ( 'NONE',  ( 0.0000000000000000000, 0.0000000000000000000, 1.000000000000000000 ) ) ;
#440 = EDGE_CURVE ( 'NONE', #641, #1057, #789, .T. ) ;
#441 = CARTESIAN_POINT ( 'NONE',  ( -60.49999999999998579, 2.000000000000000000, 42.50000000000000000 ) ) ;
#442 = VERTEX_POINT ( 'NONE', #989 ) ;
#443 = CARTESIAN_POINT ( 'NONE',  ( -60.49999999999998579, 2.000000000000000000, 39.35000000000000142 ) ) ;
#444 = DIRECTION ( 'NONE',  ( -0.0000000000000000000, 1.000000000000000000, -0.0000000000000000000 ) ) ;
#445 = VERTEX_POINT ( 'NONE', #666 ) ;
#446 = CARTESIAN_POINT ( 'NONE',  ( 61.00000000000001421, 3.000000000000000000, 42.85000000000000853 ) ) ;
#447 = EDGE_CURVE ( 'NONE', #982, #199, #409, .T. ) ;
#448 = DIRECTION ( 'NONE',  ( 0.0000000000000000000, 0.0000000000000000000, -1.000000000000000000 ) ) ;
#449 = ORIENTED_EDGE ( 'NONE', *, *, #201, .T. ) ;
#450 = CARTESIAN_POINT ( 'NONE',  ( -60.49999999999998579, 2.000000000000000000, 42.50000000000000000 ) ) ;
#451 = AXIS2_PLACEMENT_3D ( 'NONE', #458, #555, #139 ) ;
#452 = EDGE_CURVE ( 'NONE', #316, #1053, #329, .T. ) ;
#453 = CIRCLE ( 'NONE', #1041, 3.149999999999999911 ) ;
#454 = VECTOR ( 'NONE', #313, 1000.000000000000000 ) ;
#455 = ORIENTED_EDGE ( 'NONE', *, *, #440, .F. ) ;
#456 = DIRECTION ( 'NONE',  ( -0.0000000000000000000, 1.000000000000000000, -0.0000000000000000000 ) ) ;
#457 = ORIENTED_EDGE ( 'NONE', *, *, #829, .F. ) ;
#458 = CARTESIAN_POINT ( 'NONE',  ( -60.49999999999998579, -2.602085213965210642E-15, 39.35000000000000142 ) ) ;
#459 = ORIENTED_EDGE ( 'NONE', *, *, #660, .T. ) ;
#460 = ORIENTED_EDGE ( 'NONE', *, *, #57, .T. ) ;
#461 = CARTESIAN_POINT ( 'NONE',  ( 60.50000000000001421, 3.000000000000000000, 37.65000000000000568 ) ) ;
#462 = VERTEX_POINT ( 'NONE', #243 ) ;
#463 = DIRECTION ( 'NONE',  ( 0.0000000000000000000, 0.0000000000000000000, 1.000000000000000000 ) ) ;
#464 = ORIENTED_EDGE ( 'NONE', *, *, #395, .F. ) ;
#465 = DATE_AND_TIME ( #224, #1012 ) ;
#466 = ORIENTED_EDGE ( 'NONE', *, *, #954, .T. ) ;
#467 = EDGE_CURVE ( 'NONE', #311, #199, #372, .T. ) ;
#468 = CARTESIAN_POINT ( 'NONE',  ( -63.99999999999998579, 3.000000000000000000, 39.85000000000000142 ) ) ;
#469 = DIRECTION ( 'NONE',  ( 0.0000000000000000000, 0.0000000000000000000, 1.000000000000000000 ) ) ;
#470 = ORIENTED_EDGE ( 'NONE', *, *, #1016, .T. ) ;
#471 = AXIS2_PLACEMENT_3D ( 'NONE', #79, #988, #1071 ) ;
#472 = DATE_AND_TIME ( #616, #164 ) ;
#473 = AXIS2_PLACEMENT_3D ( 'NONE', #904, #173, #914 ) ;
#474 = VECTOR ( 'NONE', #835, 1000.000000000000000 ) ;
#475 = ORIENTED_EDGE ( 'NONE', *, *, #762, .T. ) ;
#476 = LINE ( 'NONE', #978, #322 ) ;
#477 = EDGE_CURVE ( 'NONE', #483, #1051, #93, .T. ) ;
#478 = DIRECTION ( 'NONE',  ( -0.0000000000000000000, 1.000000000000000000, -0.0000000000000000000 ) ) ;
#479 = VERTEX_POINT ( 'NONE', #655 ) ;
#480 = EDGE_LOOP ( 'NONE', ( #815, #382, #17, #153 ) ) ;
#481 = FACE_BOUND ( 'NONE', #636, .T. ) ;
#482 = DIRECTION ( 'NONE',  ( 0.0000000000000000000, 0.0000000000000000000, 1.000000000000000000 ) ) ;
#483 = VERTEX_POINT ( 'NONE', #485 ) ;
#484 = DIRECTION ( 'NONE',  ( 0.0000000000000000000, 0.0000000000000000000, 1.000000000000000000 ) ) ;
#485 = CARTESIAN_POINT ( 'NONE',  ( -63.99999999999998579, 3.000000000000000000, -39.84999999999998721 ) ) ;
#486 = DIRECTION ( 'NONE',  ( -0.0000000000000000000, 1.000000000000000000, -0.0000000000000000000 ) ) ;
#487 = EDGE_CURVE ( 'NONE', #307, #25, #585, .T. ) ;
#488 = MANIFOLD_SOLID_BREP ( 'Fillet1', #806 ) ;
#489 = AXIS2_PLACEMENT_3D ( 'NONE', #359, #1018, #279 ) ;
#490 = EDGE_CURVE ( 'NONE', #994, #206, #265, .T. ) ;
#491 = AXIS2_PLACEMENT_3D ( 'NONE', #775, #16, #590 ) ;
#492 = DIRECTION ( 'NONE',  ( 0.0000000000000000000, 0.0000000000000000000, -1.000000000000000000 ) ) ;
#493 = CIRCLE ( 'NONE', #770, 3.149999999999999911 ) ;
#494 = CARTESIAN_POINT ( 'NONE',  ( 60.50000000000001421, 2.000000000000000000, 39.35000000000000142 ) ) ;
#495 = APPLICATION_CONTEXT ( 'configuration controlled 3d designs of mechanical parts and assemblies' ) ;
#496 = DIRECTION ( 'NONE',  ( 0.0000000000000000000, 0.0000000000000000000, 1.000000000000000000 ) ) ;
#497 = FACE_OUTER_BOUND ( 'NONE', #619, .T. ) ;
#498 = CARTESIAN_POINT ( 'NONE',  ( -60.49999999999998579, 3.000000000000003553, -39.34999999999998721 ) ) ;
#499 = DIRECTION ( 'NONE',  ( 1.000000000000000000, 0.0000000000000000000, 0.0000000000000000000 ) ) ;
#500 = CARTESIAN_POINT ( 'NONE',  ( -60.99999999999998579, 3.000000000000000000, -42.84999999999999432 ) ) ;
#501 = ADVANCED_FACE ( 'NONE', ( #77 ), #2, .F. ) ;
#502 = CARTESIAN_POINT ( 'NONE',  ( 60.50000000000001421, 3.000000000000000000, -36.19999999999998863 ) ) ;
#503 = DIRECTION ( 'NONE',  ( 0.0000000000000000000, 0.0000000000000000000, 1.000000000000000000 ) ) ;
#504 = FACE_OUTER_BOUND ( 'NONE', #598, .T. ) ;
#505 = AXIS2_PLACEMENT_3D ( 'NONE', #204, #604, #404 ) ;
#506 = FACE_OUTER_BOUND ( 'NONE', #230, .T. ) ;
#507 = EDGE_CURVE ( 'NONE', #572, #220, #339, .T. ) ;
#508 = VECTOR ( 'NONE', #92, 999.9999999999998863 ) ;
#509 = AXIS2_PLACEMENT_3D ( 'NONE', #260, #750, #827 ) ;
#510 = ORIENTED_EDGE ( 'NONE', *, *, #976, .F. ) ;
#511 = DIRECTION ( 'NONE',  ( 0.0000000000000000000, 0.7071067811865473507, 0.7071067811865477948 ) ) ;
#512 = AXIS2_PLACEMENT_3D ( 'NONE', #48, #710, #1038 ) ;
#513 = PERSON_AND_ORGANIZATION_ROLE ( 'classification_officer' ) ;
#514 = LINE ( 'NONE', #764, #959 ) ;
#515 = ORIENTED_EDGE ( 'NONE', *, *, #939, .F. ) ;
#516 = CARTESIAN_POINT ( 'NONE',  ( -60.49999999999998579, 0.5500000000000005995, -39.34999999999998721 ) ) ;
#517 = EDGE_CURVE ( 'NONE', #97, #715, #247, .T. ) ;
#518 = PERSON_AND_ORGANIZATION ( #205, #857 ) ;
#519 = DIRECTION ( 'NONE',  ( 0.0000000000000000000, 0.0000000000000000000, 1.000000000000000000 ) ) ;
#520 = ORIENTED_EDGE ( 'NONE', *, *, #939, .T. ) ;
#521 = DIRECTION ( 'NONE',  ( -0.0000000000000000000, 1.000000000000000000, -0.0000000000000000000 ) ) ;
#522 = EDGE_CURVE ( 'NONE', #442, #711, #652, .T. ) ;
#523 = FACE_OUTER_BOUND ( 'NONE', #805, .T. ) ;
#524 = ORIENTED_EDGE ( 'NONE', *, *, #477, .F. ) ;
#525 = CARTESIAN_POINT ( 'NONE',  ( 60.50000000000001421, 0.5500000000000005995, -41.04999999999999005 ) ) ;
#526 = CIRCLE ( 'NONE', #922, 3.149999999999999911 ) ;
#527 = APPLICATION_PROTOCOL_DEFINITION ( 'international standard', 'config_control_design', 1994, #495 ) ;
#528 = DIRECTION ( 'NONE',  ( 0.0000000000000000000, -1.000000000000000000, 0.0000000000000000000 ) ) ;
#529 = ORIENTED_EDGE ( 'NONE', *, *, #177, .T. ) ;
#530 = CARTESIAN_POINT ( 'NONE',  ( -60.49999999999998579, 3.000000000000003553, 36.20000000000000284 ) ) ;
#531 = DATE_TIME_ROLE ( 'creation_date' ) ;
#532 = CARTESIAN_POINT ( 'NONE',  ( -63.99999999999998579, 0.0000000000000000000, -42.84999999999999432 ) ) ;
#533 = ADVANCED_FACE ( 'NONE', ( #506 ), #877, .F. ) ;
#534 = ORIENTED_EDGE ( 'NONE', *, *, #776, .T. ) ;
#535 = DIRECTION ( 'NONE',  ( 0.0000000000000000000, -1.000000000000000000, 0.0000000000000000000 ) ) ;
#536 = ORIENTED_EDGE ( 'NONE', *, *, #185, .T. ) ;
#537 = CARTESIAN_POINT ( 'NONE',  ( 60.50000000000001421, 3.000000000000003553, 36.20000000000000284 ) ) ;
#538 = VERTEX_POINT ( 'NONE', #155 ) ;
#539 = DIRECTION ( 'NONE',  ( -0.0000000000000000000, 1.000000000000000000, -0.0000000000000000000 ) ) ;
#540 = CIRCLE ( 'NONE', #5, 1.700000000000007061 ) ;
#541 = ORIENTED_EDGE ( 'NONE', *, *, #367, .T. ) ;
#542 = DIRECTION ( 'NONE',  ( -1.000000000000000000, 0.0000000000000000000, 0.0000000000000000000 ) ) ;
#543 = ORIENTED_EDGE ( 'NONE', *, *, #147, .F. ) ;
#544 = DIRECTION ( 'NONE',  ( -0.0000000000000000000, 1.000000000000000000, -0.0000000000000000000 ) ) ;
#545 = ORIENTED_EDGE ( 'NONE', *, *, #568, .T. ) ;
#546 = EDGE_CURVE ( 'NONE', #218, #777, #926, .T. ) ;
#547 = EDGE_LOOP ( 'NONE', ( #1060, #626, #62, #435 ) ) ;
#548 = CARTESIAN_POINT ( 'NONE',  ( -60.49999999999998579, 2.000000000000000000, -36.19999999999998863 ) ) ;
#549 = DIRECTION ( 'NONE',  ( 0.0000000000000000000, 0.0000000000000000000, 1.000000000000000000 ) ) ;
#550 = ORIENTED_EDGE ( 'NONE', *, *, #954, .F. ) ;
#551 = ADVANCED_FACE ( 'NONE', ( #344 ), #427, .F. ) ;
#552 = APPROVAL_STATUS ( 'not_yet_approved' ) ;
#553 = EDGE_LOOP ( 'NONE', ( #671, #59, #9, #556 ) ) ;
#554 = CARTESIAN_POINT ( 'NONE',  ( 0.0000000000000000000, 3.000000000000000000, 0.0000000000000000000 ) ) ;
#555 = DIRECTION ( 'NONE',  ( -0.0000000000000000000, 1.000000000000000000, -0.0000000000000000000 ) ) ;
#556 = ORIENTED_EDGE ( 'NONE', *, *, #668, .T. ) ;
#557 = AXIS2_PLACEMENT_3D ( 'NONE', #580, #420, #76 ) ;
#558 = COORDINATED_UNIVERSAL_TIME_OFFSET ( 8, 0, .BEHIND. ) ;
#559 =( GEOMETRIC_REPRESENTATION_CONTEXT ( 3 ) GLOBAL_UNCERTAINTY_ASSIGNED_CONTEXT ( ( #352 ) ) GLOBAL_UNIT_ASSIGNED_CONTEXT ( ( #688, #348, #273 ) ) REPRESENTATION_CONTEXT ( 'NONE', 'WORKASPACE' ) );
#560 = VECTOR ( 'NONE', #499, 1000.000000000000000 ) ;
#561 = ORIENTED_EDGE ( 'NONE', *, *, #728, .F. ) ;
#562 = CIRCLE ( 'NONE', #451, 1.700000000000007061 ) ;
#563 = DIRECTION ( 'NONE',  ( 1.000000000000000000, -0.0000000000000000000, 0.0000000000000000000 ) ) ;
#564 = CYLINDRICAL_SURFACE ( 'NONE', #6, 3.149999999999999911 ) ;
#565 = ORIENTED_EDGE ( 'NONE', *, *, #1021, .T. ) ;
#566 = CYLINDRICAL_SURFACE ( 'NONE', #357, 3.149999999999999911 ) ;
#567 = DIRECTION ( 'NONE',  ( -0.0000000000000000000, 1.000000000000000000, -0.0000000000000000000 ) ) ;
#568 = EDGE_CURVE ( 'NONE', #928, #380, #174, .T. ) ;
#569 = VERTEX_POINT ( 'NONE', #912 ) ;
#570 = CARTESIAN_POINT ( 'NONE',  ( 60.50000000000001421, -2.602085213965210642E-15, 39.35000000000000142 ) ) ;
#571 = DIRECTION ( 'NONE',  ( 0.0000000000000000000, 0.0000000000000000000, 1.000000000000000000 ) ) ;
#572 = VERTEX_POINT ( 'NONE', #855 ) ;
#573 = CARTESIAN_POINT ( 'NONE',  ( 60.50000000000001421, 3.000000000000000000, -41.04999999999999005 ) ) ;
#574 = VECTOR ( 'NONE', #725, 1000.000000000000000 ) ;
#575 = DESIGN_CONTEXT ( 'detailed design', #495, 'design' ) ;
#576 = FACE_OUTER_BOUND ( 'NONE', #64, .T. ) ;
#577 = DIRECTION ( 'NONE',  ( 0.0000000000000000000, -1.000000000000000000, 0.0000000000000000000 ) ) ;
#578 = FACE_OUTER_BOUND ( 'NONE', #1061, .T. ) ;
#579 = EDGE_CURVE ( 'NONE', #206, #994, #1009, .T. ) ;
#580 = CARTESIAN_POINT ( 'NONE',  ( -60.49999999999998579, -2.602085213965210642E-15, -39.34999999999998721 ) ) ;
#581 = CARTESIAN_POINT ( 'NONE',  ( 60.50000000000001421, 3.000000000000000000, 42.50000000000000000 ) ) ;
#582 = LINE ( 'NONE', #412, #560 ) ;
#583 = EDGE_CURVE ( 'NONE', #928, #932, #514, .T. ) ;
#584 = FACE_OUTER_BOUND ( 'NONE', #1028, .T. ) ;
#585 = LINE ( 'NONE', #418, #125 ) ;
#586 = ORIENTED_EDGE ( 'NONE', *, *, #31, .F. ) ;
#587 = DIRECTION ( 'NONE',  ( -0.0000000000000000000, 1.000000000000000000, -0.0000000000000000000 ) ) ;
#588 = SECURITY_CLASSIFICATION_LEVEL ( 'unclassified' ) ;
#589 = VECTOR ( 'NONE', #998, 1000.000000000000000 ) ;
#590 = DIRECTION ( 'NONE',  ( 0.0000000000000000000, 0.0000000000000000000, -1.000000000000000000 ) ) ;
#591 = AXIS2_PLACEMENT_3D ( 'NONE', #312, #1036, #296 ) ;
#592 = CONICAL_SURFACE ( 'NONE', #248, 3.149999999999999911, 0.7853981633974485010 ) ;
#593 = ORIENTED_EDGE ( 'NONE', *, *, #976, .T. ) ;
#594 = CARTESIAN_POINT ( 'NONE',  ( 60.50000000000001421, 2.000000000000000000, -39.34999999999998721 ) ) ;
#595 = CC_DESIGN_PERSON_AND_ORGANIZATION_ASSIGNMENT ( #518, #596, ( #119 ) ) ;
#596 = PERSON_AND_ORGANIZATION_ROLE ( 'design_owner' ) ;
#597 = LINE ( 'NONE', #111, #647 ) ;
#598 = EDGE_LOOP ( 'NONE', ( #350, #718, #792, #29 ) ) ;
#599 = DIRECTION ( 'NONE',  ( -0.0000000000000000000, -1.000000000000000000, 0.0000000000000000000 ) ) ;
#600 = EDGE_CURVE ( 'NONE', #445, #462, #212, .T. ) ;
#601 = CARTESIAN_POINT ( 'NONE',  ( 60.50000000000001421, 2.000000000000000000, 36.20000000000000284 ) ) ;
#602 = DIRECTION ( 'NONE',  ( 0.0000000000000000000, 0.0000000000000000000, -1.000000000000000000 ) ) ;
#603 = ORIENTED_EDGE ( 'NONE', *, *, #245, .F. ) ;
#604 = DIRECTION ( 'NONE',  ( -0.0000000000000000000, 1.000000000000000000, -0.0000000000000000000 ) ) ;
#605 = CARTESIAN_POINT ( 'NONE',  ( -60.49999999999998579, 0.5500000000000005995, 37.65000000000000568 ) ) ;
#606 = VERTEX_POINT ( 'NONE', #441 ) ;
#607 = DIRECTION ( 'NONE',  ( -0.0000000000000000000, 1.000000000000000000, -0.0000000000000000000 ) ) ;
#608 = AXIS2_PLACEMENT_3D ( 'NONE', #917, #730, #439 ) ;
#609 = AXIS2_PLACEMENT_3D ( 'NONE', #14, #677, #416 ) ;
#610 = CIRCLE ( 'NONE', #646, 3.149999999999999911 ) ;
#611 = ADVANCED_FACE ( 'NONE', ( #21 ), #681, .T. ) ;
#612 = COORDINATED_UNIVERSAL_TIME_OFFSET ( 8, 0, .BEHIND. ) ;
#613 = CARTESIAN_POINT ( 'NONE',  ( -60.49999999999998579, 3.000000000000000000, -41.04999999999999005 ) ) ;
#614 = EDGE_LOOP ( 'NONE', ( #510, #645, #630, #314 ) ) ;
#615 = CARTESIAN_POINT ( 'NONE',  ( -60.49999999999998579, 3.000000000000003553, 39.35000000000000142 ) ) ;
#616 = CALENDAR_DATE ( 2019, 27, 6 ) ;
#617 = EDGE_LOOP ( 'NONE', ( #686, #385 ) ) ;
#618 = DIRECTION ( 'NONE',  ( 0.0000000000000000000, -1.000000000000000000, 0.0000000000000000000 ) ) ;
#619 = EDGE_LOOP ( 'NONE', ( #400, #798, #565, #361 ) ) ;
#620 = CARTESIAN_POINT ( 'NONE',  ( -60.49999999999998579, 0.5500000000000005995, -41.04999999999999005 ) ) ;
#621 = ORIENTED_EDGE ( 'NONE', *, *, #45, .F. ) ;
#622 = LINE ( 'NONE', #1054, #661 ) ;
#623 = ORIENTED_EDGE ( 'NONE', *, *, #57, .F. ) ;
#624 = CYLINDRICAL_SURFACE ( 'NONE', #984, 3.149999999999999911 ) ;
#625 = VECTOR ( 'NONE', #444, 1000.000000000000000 ) ;
#626 = ORIENTED_EDGE ( 'NONE', *, *, #118, .F. ) ;
#627 = CC_DESIGN_PERSON_AND_ORGANIZATION_ASSIGNMENT ( #261, #95, ( #438 ) ) ;
#628 = CC_DESIGN_SECURITY_CLASSIFICATION ( #773, ( #438 ) ) ;
#629 = COORDINATED_UNIVERSAL_TIME_OFFSET ( 8, 0, .BEHIND. ) ;
#630 = ORIENTED_EDGE ( 'NONE', *, *, #128, .T. ) ;
#631 = PLANE ( 'NONE',  #104 ) ;
#632 = ORIENTED_EDGE ( 'NONE', *, *, #197, .F. ) ;
#633 = FACE_OUTER_BOUND ( 'NONE', #826, .T. ) ;
#634 = EDGE_LOOP ( 'NONE', ( #858, #882, #376, #288 ) ) ;
#635 = EDGE_CURVE ( 'NONE', #479, #982, #51, .T. ) ;
#636 = EDGE_LOOP ( 'NONE', ( #354, #1039 ) ) ;
#637 = DIRECTION ( 'NONE',  ( 0.0000000000000000000, 0.0000000000000000000, 1.000000000000000000 ) ) ;
#638 = CARTESIAN_POINT ( 'NONE',  ( 60.50000000000001421, 0.5500000000000005995, 37.65000000000000568 ) ) ;
#639 = VERTEX_POINT ( 'NONE', #1013 ) ;
#640 = APPROVAL_DATE_TIME ( #472, #1047 ) ;
#641 = VERTEX_POINT ( 'NONE', #605 ) ;
#642 = APPROVAL ( #694, 'UNSPECIFIED' ) ;
#643 = LINE ( 'NONE', #548, #908 ) ;
#644 = DIRECTION ( 'NONE',  ( -0.0000000000000000000, 1.000000000000000000, -0.0000000000000000000 ) ) ;
#645 = ORIENTED_EDGE ( 'NONE', *, *, #395, .T. ) ;
#646 = AXIS2_PLACEMENT_3D ( 'NONE', #399, #539, #726 ) ;
#647 = VECTOR ( 'NONE', #685, 1000.000000000000000 ) ;
#648 = CONICAL_SURFACE ( 'NONE', #608, 3.149999999999999911, 0.7853981633974485010 ) ;
#649 = EDGE_CURVE ( 'NONE', #711, #639, #24, .T. ) ;
#650 = AXIS2_PLACEMENT_3D ( 'NONE', #209, #42, #549 ) ;
#651 = CARTESIAN_POINT ( 'NONE',  ( 64.00000000000001421, 0.0000000000000000000, 42.85000000000000853 ) ) ;
#652 = LINE ( 'NONE', #415, #180 ) ;
#653 = VERTEX_POINT ( 'NONE', #270 ) ;
#654 = CARTESIAN_POINT ( 'NONE',  ( -60.49999999999998579, 2.000000000000000000, 39.35000000000000142 ) ) ;
#655 = CARTESIAN_POINT ( 'NONE',  ( -60.49999999999998579, -2.602085213965210642E-15, -41.04999999999999716 ) ) ;
#656 = DIRECTION ( 'NONE',  ( -0.0000000000000000000, 1.000000000000000000, -0.0000000000000000000 ) ) ;
#657 = DIRECTION ( 'NONE',  ( -0.0000000000000000000, 1.000000000000000000, -0.0000000000000000000 ) ) ;
#658 = DIRECTION ( 'NONE',  ( -0.0000000000000000000, 1.000000000000000000, -0.0000000000000000000 ) ) ;
#659 = CARTESIAN_POINT ( 'NONE',  ( 60.50000000000001421, 3.000000000000000000, -39.34999999999998721 ) ) ;
#660 = EDGE_CURVE ( 'NONE', #483, #225, #597, .T. ) ;
#661 = VECTOR ( 'NONE', #896, 999.9999999999998863 ) ;
#662 = LOCAL_TIME ( 8, 7, 47.00000000000000000, #27 ) ;
#663 = CARTESIAN_POINT ( 'NONE',  ( -63.99999999999998579, 3.000000000000000000, -42.84999999999999432 ) ) ;
#664 = AXIS2_PLACEMENT_3D ( 'NONE', #667, #656, #332 ) ;
#665 = AXIS2_PLACEMENT_3D ( 'NONE', #788, #535, #691 ) ;
#666 = CARTESIAN_POINT ( 'NONE',  ( -60.49999999999998579, 2.000000000000000000, -36.19999999999998863 ) ) ;
#667 = CARTESIAN_POINT ( 'NONE',  ( 61.00000000000001421, 3.000000000000000000, -39.84999999999998721 ) ) ;
#668 = EDGE_CURVE ( 'NONE', #130, #208, #198, .T. ) ;
#669 = CARTESIAN_POINT ( 'NONE',  ( 64.00000000000001421, 3.000000000000000000, -39.84999999999998721 ) ) ;
#670 = CARTESIAN_POINT ( 'NONE',  ( -60.49999999999998579, 3.000000000000000000, -39.34999999999998721 ) ) ;
#671 = ORIENTED_EDGE ( 'NONE', *, *, #31, .T. ) ;
#672 = CARTESIAN_POINT ( 'NONE',  ( 60.50000000000001421, 3.000000000000000000, 41.05000000000000426 ) ) ;
#673 = DIRECTION ( 'NONE',  ( -0.0000000000000000000, 1.000000000000000000, -0.0000000000000000000 ) ) ;
#674 = CARTESIAN_POINT ( 'NONE',  ( -60.49999999999998579, 2.000000000000000000, -39.34999999999998721 ) ) ;
#675 = EDGE_CURVE ( 'NONE', #316, #538, #178, .T. ) ;
#676 = ORIENTED_EDGE ( 'NONE', *, *, #751, .F. ) ;
#677 = DIRECTION ( 'NONE',  ( -0.0000000000000000000, 1.000000000000000000, -0.0000000000000000000 ) ) ;
#678 = APPROVAL_DATE_TIME ( #100, #642 ) ;
#679 = AXIS2_PLACEMENT_3D ( 'NONE', #803, #793, #463 ) ;
#680 = ADVANCED_FACE ( 'NONE', ( #523 ), #274, .T. ) ;
#681 = CYLINDRICAL_SURFACE ( 'NONE', #491, 3.000000000000002665 ) ;
#682 = VECTOR ( 'NONE', #381, 1000.000000000000000 ) ;
#683 = ORIENTED_EDGE ( 'NONE', *, *, #1000, .T. ) ;
#684 = CARTESIAN_POINT ( 'NONE',  ( 60.50000000000001421, 3.000000000000000000, 36.20000000000000284 ) ) ;
#685 = DIRECTION ( 'NONE',  ( -0.0000000000000000000, -0.0000000000000000000, 1.000000000000000000 ) ) ;
#686 = ORIENTED_EDGE ( 'NONE', *, *, #330, .F. ) ;
#687 = DIRECTION ( 'NONE',  ( -0.0000000000000000000, 1.000000000000000000, -0.0000000000000000000 ) ) ;
#688 =( LENGTH_UNIT ( ) NAMED_UNIT ( * ) SI_UNIT ( .MILLI., .METRE. ) );
#689 = CARTESIAN_POINT ( 'NONE',  ( -60.49999999999998579, 3.000000000000003553, -39.34999999999998721 ) ) ;
#690 = EDGE_LOOP ( 'NONE', ( #49, #969, #541, #819 ) ) ;
#691 = DIRECTION ( 'NONE',  ( 0.0000000000000000000, 0.0000000000000000000, -1.000000000000000000 ) ) ;
#692 = EDGE_CURVE ( 'NONE', #462, #994, #364, .T. ) ;
#693 = ADVANCED_FACE ( 'NONE', ( #931 ), #12, .F. ) ;
#694 = APPROVAL_STATUS ( 'not_yet_approved' ) ;
#695 = DIRECTION ( 'NONE',  ( 0.0000000000000000000, -1.000000000000000000, 0.0000000000000000000 ) ) ;
#696 = AXIS2_PLACEMENT_3D ( 'NONE', #18, #521, #366 ) ;
#697 = EDGE_LOOP ( 'NONE', ( #807, #309, #189, #867 ) ) ;
#698 = CIRCLE ( 'NONE', #471, 1.700000000000007061 ) ;
#699 = DIRECTION ( 'NONE',  ( -0.0000000000000000000, 1.000000000000000000, -0.0000000000000000000 ) ) ;
#700 = AXIS2_PLACEMENT_3D ( 'NONE', #853, #269, #940 ) ;
#701 = AXIS2_PLACEMENT_3D ( 'NONE', #898, #318, #236 ) ;
#702 = ADVANCED_FACE ( 'NONE', ( #96 ), #838, .F. ) ;
#703 = ORIENTED_EDGE ( 'NONE', *, *, #1021, .F. ) ;
#704 = EDGE_LOOP ( 'NONE', ( #1031, #958, #460, #137 ) ) ;
#705 = DIRECTION ( 'NONE',  ( 0.0000000000000000000, -1.000000000000000000, 0.0000000000000000000 ) ) ;
#706 = EDGE_LOOP ( 'NONE', ( #392, #126, #739, #966 ) ) ;
#707 = DIRECTION ( 'NONE',  ( -0.0000000000000000000, 1.000000000000000000, -0.0000000000000000000 ) ) ;
#708 = ORIENTED_EDGE ( 'NONE', *, *, #816, .F. ) ;
#709 = EDGE_CURVE ( 'NONE', #479, #311, #769, .T. ) ;
#710 = DIRECTION ( 'NONE',  ( 0.0000000000000000000, 0.0000000000000000000, -1.000000000000000000 ) ) ;
#711 = VERTEX_POINT ( 'NONE', #949 ) ;
#712 = VERTEX_POINT ( 'NONE', #780 ) ;
#713 = FACE_BOUND ( 'NONE', #617, .T. ) ;
#714 = EDGE_CURVE ( 'NONE', #606, #712, #202, .T. ) ;
#715 = VERTEX_POINT ( 'NONE', #182 ) ;
#716 = PLANE ( 'NONE',  #512 ) ;
#717 = VECTOR ( 'NONE', #60, 1000.000000000000000 ) ;
#718 = ORIENTED_EDGE ( 'NONE', *, *, #262, .F. ) ;
#719 = VECTOR ( 'NONE', #657, 1000.000000000000000 ) ;
#720 = ORIENTED_EDGE ( 'NONE', *, *, #1030, .F. ) ;
#721 = LINE ( 'NONE', #461, #267 ) ;
#722 = LINE ( 'NONE', #809, #454 ) ;
#723 = EDGE_LOOP ( 'NONE', ( #732, #812 ) ) ;
#724 = ORIENTED_EDGE ( 'NONE', *, *, #487, .F. ) ;
#725 = DIRECTION ( 'NONE',  ( 0.0000000000000000000, 1.000000000000000000, -0.0000000000000000000 ) ) ;
#726 = DIRECTION ( 'NONE',  ( 0.0000000000000000000, 0.0000000000000000000, 1.000000000000000000 ) ) ;
#727 = ORIENTED_EDGE ( 'NONE', *, *, #262, .T. ) ;
#728 = EDGE_CURVE ( 'NONE', #380, #569, #787, .T. ) ;
#729 = ORIENTED_EDGE ( 'NONE', *, *, #934, .F. ) ;
#730 = DIRECTION ( 'NONE',  ( -0.0000000000000000000, 1.000000000000000000, -0.0000000000000000000 ) ) ;
#731 = CARTESIAN_POINT ( 'NONE',  ( -60.49999999999998579, 3.000000000000000000, 39.35000000000000142 ) ) ;
#732 = ORIENTED_EDGE ( 'NONE', *, *, #918, .T. ) ;
#733 = AXIS2_PLACEMENT_3D ( 'NONE', #670, #738, #919 ) ;
#734 = CIRCLE ( 'NONE', #591, 3.000000000000002665 ) ;
#735 = VECTOR ( 'NONE', #511, 999.9999999999998863 ) ;
#736 = AXIS2_PLACEMENT_3D ( 'NONE', #772, #687, #289 ) ;
#737 = DIRECTION ( 'NONE',  ( 0.0000000000000000000, -0.0000000000000000000, -1.000000000000000000 ) ) ;
#738 = DIRECTION ( 'NONE',  ( -0.0000000000000000000, 1.000000000000000000, -0.0000000000000000000 ) ) ;
#739 = ORIENTED_EDGE ( 'NONE', *, *, #1004, .T. ) ;
#740 = LINE ( 'NONE', #920, #179 ) ;
#741 = ADVANCED_FACE ( 'NONE', ( #349 ), #973, .F. ) ;
#742 = LINE ( 'NONE', #334, #508 ) ;
#743 = EDGE_CURVE ( 'NONE', #711, #345, #981, .T. ) ;
#744 = CARTESIAN_POINT ( 'NONE',  ( 60.50000000000001421, 0.5500000000000005995, -39.34999999999998721 ) ) ;
#745 = ORIENTED_EDGE ( 'NONE', *, *, #487, .T. ) ;
#746 = DIRECTION ( 'NONE',  ( -0.0000000000000000000, 1.000000000000000000, -0.0000000000000000000 ) ) ;
#747 = CARTESIAN_POINT ( 'NONE',  ( 64.00000000000001421, 3.000000000000000000, 39.85000000000000142 ) ) ;
#748 = DIRECTION ( 'NONE',  ( -0.0000000000000000000, 1.000000000000000000, -0.0000000000000000000 ) ) ;
#749 = EDGE_CURVE ( 'NONE', #148, #25, #89, .T. ) ;
#750 = DIRECTION ( 'NONE',  ( -0.0000000000000000000, 1.000000000000000000, -0.0000000000000000000 ) ) ;
#751 = EDGE_CURVE ( 'NONE', #639, #1043, #221, .T. ) ;
#752 = AXIS2_PLACEMENT_3D ( 'NONE', #927, #188, #519 ) ;
#753 = CARTESIAN_POINT ( 'NONE',  ( -60.49999999999998579, 3.000000000000003553, -42.49999999999998579 ) ) ;
#754 = CONICAL_SURFACE ( 'NONE', #214, 3.149999999999999911, 0.7853981633974485010 ) ;
#755 = VECTOR ( 'NONE', #864, 1000.000000000000000 ) ;
#756 = DIRECTION ( 'NONE',  ( 0.0000000000000000000, 0.0000000000000000000, 1.000000000000000000 ) ) ;
#757 = CARTESIAN_POINT ( 'NONE',  ( 60.50000000000001421, 2.000000000000000000, 42.50000000000000000 ) ) ;
#758 = PERSON_AND_ORGANIZATION ( #205, #857 ) ;
#759 = DIRECTION ( 'NONE',  ( 0.0000000000000000000, 0.0000000000000000000, 1.000000000000000000 ) ) ;
#760 = VERTEX_POINT ( 'NONE', #537 ) ;
#761 = CYLINDRICAL_SURFACE ( 'NONE', #609, 1.700000000000000178 ) ;
#762 = EDGE_CURVE ( 'NONE', #130, #292, #291, .T. ) ;
#763 = PERSON_AND_ORGANIZATION ( #205, #857 ) ;
#764 = CARTESIAN_POINT ( 'NONE',  ( 64.00000000000001421, 3.000000000000000000, 42.85000000000000853 ) ) ;
#765 = ORIENTED_EDGE ( 'NONE', *, *, #668, .F. ) ;
#766 = DIRECTION ( 'NONE',  ( 0.0000000000000000000, 0.0000000000000000000, 1.000000000000000000 ) ) ;
#767 = APPROVAL_STATUS ( 'not_yet_approved' ) ;
#768 = AXIS2_PLACEMENT_3D ( 'NONE', #942, #528, #602 ) ;
#769 = LINE ( 'NONE', #613, #625 ) ;
#770 = AXIS2_PLACEMENT_3D ( 'NONE', #615, #200, #766 ) ;
#771 = ORIENTED_EDGE ( 'NONE', *, *, #522, .F. ) ;
#772 = CARTESIAN_POINT ( 'NONE',  ( 60.50000000000001421, 2.000000000000000000, 39.35000000000000142 ) ) ;
#773 = SECURITY_CLASSIFICATION ( '', '', #588 ) ;
#774 = CARTESIAN_POINT ( 'NONE',  ( 60.50000000000001421, 2.000000000000000000, 39.35000000000000142 ) ) ;
#775 = CARTESIAN_POINT ( 'NONE',  ( 61.00000000000001421, 3.000000000000000000, -39.84999999999998721 ) ) ;
#776 = EDGE_CURVE ( 'NONE', #445, #206, #233, .T. ) ;
#777 = VERTEX_POINT ( 'NONE', #124 ) ;
#778 = DIRECTION ( 'NONE',  ( 0.0000000000000000000, 0.0000000000000000000, 1.000000000000000000 ) ) ;
#779 = CALENDAR_DATE ( 2019, 27, 6 ) ;
#780 = CARTESIAN_POINT ( 'NONE',  ( -60.49999999999998579, 3.000000000000003553, 42.50000000000000000 ) ) ;
#781 = ORIENTED_EDGE ( 'NONE', *, *, #80, .T. ) ;
#782 = DIRECTION ( 'NONE',  ( -0.0000000000000000000, 1.000000000000000000, -0.0000000000000000000 ) ) ;
#783 = EDGE_CURVE ( 'NONE', #199, #445, #643, .T. ) ;
#784 = ORIENTED_EDGE ( 'NONE', *, *, #816, .T. ) ;
#785 = VECTOR ( 'NONE', #254, 999.9999999999998863 ) ;
#786 = ORIENTED_EDGE ( 'NONE', *, *, #783, .F. ) ;
#787 = CIRCLE ( 'NONE', #282, 3.000000000000002665 ) ;
#788 = CARTESIAN_POINT ( 'NONE',  ( -60.99999999999998579, 0.0000000000000000000, 39.85000000000000142 ) ) ;
#789 = CIRCLE ( 'NONE', #870, 1.700000000000000178 ) ;
#790 = EDGE_LOOP ( 'NONE', ( #550, #955, #365, #1069 ) ) ;
#791 = DIRECTION ( 'NONE',  ( 0.0000000000000000000, 0.0000000000000000000, 1.000000000000000000 ) ) ;
#792 = ORIENTED_EDGE ( 'NONE', *, *, #507, .T. ) ;
#793 = DIRECTION ( 'NONE',  ( -0.0000000000000000000, 1.000000000000000000, -0.0000000000000000000 ) ) ;
#794 = ORIENTED_EDGE ( 'NONE', *, *, #452, .F. ) ;
#795 = EDGE_CURVE ( 'NONE', #653, #641, #476, .T. ) ;
#796 = ORIENTED_EDGE ( 'NONE', *, *, #467, .F. ) ;
#797 = DIRECTION ( 'NONE',  ( -0.0000000000000000000, 1.000000000000000000, -0.0000000000000000000 ) ) ;
#798 = ORIENTED_EDGE ( 'NONE', *, *, #425, .F. ) ;
#799 = DIRECTION ( 'NONE',  ( 0.0000000000000000000, 0.0000000000000000000, 1.000000000000000000 ) ) ;
#800 = ORIENTED_EDGE ( 'NONE', *, *, #675, .F. ) ;
#801 = ORIENTED_EDGE ( 'NONE', *, *, #185, .F. ) ;
#802 = DIRECTION ( 'NONE',  ( 0.0000000000000000000, 0.0000000000000000000, -1.000000000000000000 ) ) ;
#803 = CARTESIAN_POINT ( 'NONE',  ( 60.50000000000001421, -2.602085213965210642E-15, -39.34999999999998721 ) ) ;
#804 = VECTOR ( 'NONE', #1006, 1000.000000000000000 ) ;
#805 = EDGE_LOOP ( 'NONE', ( #708, #304, #543, #765 ) ) ;
#806 = CLOSED_SHELL ( 'NONE', ( #501, #152, #112, #401, #861, #360, #186, #533, #320, #693, #68, #283, #844, #165, #741, #336, #897, #82, #297, #702, #971, #277, #1068, #990, #86, #1045, #347, #551, #1052, #4, #611, #970, #135, #680 ) ) ;
#807 = ORIENTED_EDGE ( 'NONE', *, *, #546, .F. ) ;
#808 = PLANE ( 'NONE',  #1010 ) ;
#809 = CARTESIAN_POINT ( 'NONE',  ( -60.49999999999998579, 3.000000000000000000, 36.20000000000000284 ) ) ;
#810 = EDGE_CURVE ( 'NONE', #462, #445, #453, .T. ) ;
#811 = EDGE_LOOP ( 'NONE', ( #520, #402 ) ) ;
#812 = ORIENTED_EDGE ( 'NONE', *, *, #333, .T. ) ;
#813 = DIRECTION ( 'NONE',  ( -0.0000000000000000000, 1.000000000000000000, -0.0000000000000000000 ) ) ;
#814 = DIRECTION ( 'NONE',  ( -0.0000000000000000000, 1.000000000000000000, -0.0000000000000000000 ) ) ;
#815 = ORIENTED_EDGE ( 'NONE', *, *, #333, .F. ) ;
#816 = EDGE_CURVE ( 'NONE', #225, #130, #734, .T. ) ;
#817 = CARTESIAN_POINT ( 'NONE',  ( -60.49999999999998579, 3.000000000000000000, 39.35000000000000142 ) ) ;
#818 = DIRECTION ( 'NONE',  ( 0.0000000000000000000, 0.0000000000000000000, 1.000000000000000000 ) ) ;
#819 = ORIENTED_EDGE ( 'NONE', *, *, #507, .F. ) ;
#820 = CYLINDRICAL_SURFACE ( 'NONE', #284, 3.149999999999999911 ) ;
#821 = VECTOR ( 'NONE', #158, 1000.000000000000000 ) ;
#822 = CIRCLE ( 'NONE', #509, 1.700000000000000178 ) ;
#823 = APPROVAL ( #767, 'UNSPECIFIED' ) ;
#824 = CARTESIAN_POINT ( 'NONE',  ( 64.00000000000001421, 3.000000000000000000, -39.84999999999998721 ) ) ;
#825 = CARTESIAN_POINT ( 'NONE',  ( 64.00000000000001421, 3.000000000000000000, 39.85000000000000142 ) ) ;
#826 = EDGE_LOOP ( 'NONE', ( #411, #13, #387, #781 ) ) ;
#827 = DIRECTION ( 'NONE',  ( 0.0000000000000000000, 0.0000000000000000000, 1.000000000000000000 ) ) ;
#828 = ADVANCED_BREP_SHAPE_REPRESENTATION ( 'CHILLED-POSITION-BASE_V001', ( #488, #700 ), #559 ) ;
#829 = EDGE_CURVE ( 'NONE', #641, #895, #622, .T. ) ;
#830 = CARTESIAN_POINT ( 'NONE',  ( 60.50000000000001421, 2.000000000000000000, -36.19999999999998863 ) ) ;
#831 = CARTESIAN_POINT ( 'NONE',  ( -60.49999999999998579, 0.5500000000000005995, 39.35000000000000142 ) ) ;
#832 = FACE_OUTER_BOUND ( 'NONE', #203, .T. ) ;
#833 = DIRECTION ( 'NONE',  ( 0.0000000000000000000, 0.0000000000000000000, 1.000000000000000000 ) ) ;
#834 = DIRECTION ( 'NONE',  ( 0.0000000000000000000, 0.0000000000000000000, 1.000000000000000000 ) ) ;
#835 = DIRECTION ( 'NONE',  ( -0.0000000000000000000, -0.0000000000000000000, 1.000000000000000000 ) ) ;
#836 = CC_DESIGN_PERSON_AND_ORGANIZATION_ASSIGNMENT ( #860, #433, ( #293 ) ) ;
#837 = VECTOR ( 'NONE', #437, 1000.000000000000000 ) ;
#838 = CONICAL_SURFACE ( 'NONE', #159, 3.149999999999999911, 0.7853981633974485010 ) ;
#839 = CC_DESIGN_APPROVAL ( #642, ( #438 ) ) ;
#840 = CYLINDRICAL_SURFACE ( 'NONE', #473, 3.149999999999999911 ) ;
#841 = AXIS2_PLACEMENT_3D ( 'NONE', #494, #842, #756 ) ;
#842 = DIRECTION ( 'NONE',  ( -0.0000000000000000000, 1.000000000000000000, -0.0000000000000000000 ) ) ;
#843 = CARTESIAN_POINT ( 'NONE',  ( 60.50000000000001421, 2.000000000000000000, -36.19999999999998863 ) ) ;
#844 = ADVANCED_FACE ( 'NONE', ( #138 ), #808, .F. ) ;
#845 = CARTESIAN_POINT ( 'NONE',  ( 61.00000000000001421, 0.0000000000000000000, 39.85000000000000142 ) ) ;
#846 = ORIENTED_EDGE ( 'NONE', *, *, #600, .T. ) ;
#847 = FACE_OUTER_BOUND ( 'NONE', #946, .T. ) ;
#848 = DATE_AND_TIME ( #779, #662 ) ;
#849 = CARTESIAN_POINT ( 'NONE',  ( -60.49999999999998579, 2.000000000000000000, 39.35000000000000142 ) ) ;
#850 = ORIENTED_EDGE ( 'NONE', *, *, #20, .T. ) ;
#851 = CARTESIAN_POINT ( 'NONE',  ( 60.50000000000001421, 3.000000000000003553, 42.50000000000000000 ) ) ;
#852 = EDGE_CURVE ( 'NONE', #1023, #225, #131, .T. ) ;
#853 = CARTESIAN_POINT ( 'NONE',  ( 0.0000000000000000000, 0.0000000000000000000, 0.0000000000000000000 ) ) ;
#854 = CIRCLE ( 'NONE', #142, 1.700000000000007061 ) ;
#855 = CARTESIAN_POINT ( 'NONE',  ( 60.50000000000001421, 2.000000000000000000, 42.50000000000000000 ) ) ;
#856 = PRODUCT_RELATED_PRODUCT_CATEGORY ( 'detail', '', ( #119 ) ) ;
#857 = ORGANIZATION ( 'UNSPECIFIED', 'UNSPECIFIED', '' ) ;
#858 = ORIENTED_EDGE ( 'NONE', *, *, #810, .F. ) ;
#859 = DIRECTION ( 'NONE',  ( 0.0000000000000000000, 0.0000000000000000000, 1.000000000000000000 ) ) ;
#860 = PERSON_AND_ORGANIZATION ( #205, #857 ) ;
#861 = ADVANCED_FACE ( 'NONE', ( #1049 ), #121, .F. ) ;
#862 = DIRECTION ( 'NONE',  ( 0.0000000000000000000, 0.0000000000000000000, 1.000000000000000000 ) ) ;
#863 = ORIENTED_EDGE ( 'NONE', *, *, #649, .F. ) ;
#864 = DIRECTION ( 'NONE',  ( -0.0000000000000000000, 1.000000000000000000, -0.0000000000000000000 ) ) ;
#865 = COORDINATED_UNIVERSAL_TIME_OFFSET ( 8, 0, .BEHIND. ) ;
#866 = DIRECTION ( 'NONE',  ( -0.0000000000000000000, 1.000000000000000000, -0.0000000000000000000 ) ) ;
#867 = ORIENTED_EDGE ( 'NONE', *, *, #20, .F. ) ;
#868 = DIRECTION ( 'NONE',  ( 1.000000000000000000, 0.0000000000000000000, -0.0000000000000000000 ) ) ;
#869 = VERTEX_POINT ( 'NONE', #52 ) ;
#870 = AXIS2_PLACEMENT_3D ( 'NONE', #831, #85, #759 ) ;
#871 = CARTESIAN_POINT ( 'NONE',  ( -63.99999999999998579, 3.000000000000000000, 42.85000000000000853 ) ) ;
#872 = EDGE_LOOP ( 'NONE', ( #141, #1014 ) ) ;
#873 = VECTOR ( 'NONE', #866, 1000.000000000000000 ) ;
#874 = DIRECTION ( 'NONE',  ( -0.0000000000000000000, 1.000000000000000000, -0.0000000000000000000 ) ) ;
#875 = AXIS2_PLACEMENT_3D ( 'NONE', #1066, #1058, #492 ) ;
#876 = EDGE_CURVE ( 'NONE', #218, #316, #721, .T. ) ;
#877 = CONICAL_SURFACE ( 'NONE', #841, 3.149999999999999911, 0.7853981633974485010 ) ;
#878 = ORIENTED_EDGE ( 'NONE', *, *, #447, .F. ) ;
#879 = DIRECTION ( 'NONE',  ( -0.0000000000000000000, 1.000000000000000000, -0.0000000000000000000 ) ) ;
#880 = ORIENTED_EDGE ( 'NONE', *, *, #889, .F. ) ;
#881 = CARTESIAN_POINT ( 'NONE',  ( -60.49999999999998579, 3.000000000000000000, 41.05000000000000426 ) ) ;
#882 = ORIENTED_EDGE ( 'NONE', *, *, #692, .T. ) ;
#883 = ORIENTED_EDGE ( 'NONE', *, *, #169, .T. ) ;
#884 = CARTESIAN_POINT ( 'NONE',  ( -60.49999999999998579, 2.000000000000000000, -39.34999999999998721 ) ) ;
#885 = CARTESIAN_POINT ( 'NONE',  ( 60.50000000000001421, 3.000000000000003553, -42.49999999999998579 ) ) ;
#886 = EDGE_LOOP ( 'NONE', ( #794, #1007, #377, #727 ) ) ;
#887 = APPROVAL_ROLE ( '' ) ;
#888 = ORIENTED_EDGE ( 'NONE', *, *, #743, .T. ) ;
#889 = EDGE_CURVE ( 'NONE', #307, #1046, #854, .T. ) ;
#890 = DIRECTION ( 'NONE',  ( 0.0000000000000000000, 0.0000000000000000000, 1.000000000000000000 ) ) ;
#891 = CYLINDRICAL_SURFACE ( 'NONE', #701, 1.700000000000000178 ) ;
#892 = CIRCLE ( 'NONE', #557, 1.700000000000007061 ) ;
#893 = EDGE_LOOP ( 'NONE', ( #457, #295, #883, #529 ) ) ;
#894 = CIRCLE ( 'NONE', #32, 1.700000000000000178 ) ;
#895 = VERTEX_POINT ( 'NONE', #386 ) ;
#896 = DIRECTION ( 'NONE',  ( 8.659560562354936556E-17, 0.7071067811865473507, -0.7071067811865477948 ) ) ;
#897 = ADVANCED_FACE ( 'NONE', ( #317, #481, #713, #1042, #65 ), #631, .F. ) ;
#898 = CARTESIAN_POINT ( 'NONE',  ( 60.50000000000001421, 3.000000000000000000, -39.34999999999998721 ) ) ;
#899 = ORIENTED_EDGE ( 'NONE', *, *, #1065, .T. ) ;
#900 = LINE ( 'NONE', #663, #232 ) ;
#901 = DIRECTION ( 'NONE',  ( -0.0000000000000000000, 1.000000000000000000, -0.0000000000000000000 ) ) ;
#902 = ORIENTED_EDGE ( 'NONE', *, *, #829, .T. ) ;
#903 = EDGE_LOOP ( 'NONE', ( #937, #50, #56, #724 ) ) ;
#904 = CARTESIAN_POINT ( 'NONE',  ( 60.50000000000001421, 3.000000000000000000, 39.35000000000000142 ) ) ;
#905 = CARTESIAN_POINT ( 'NONE',  ( -60.49999999999998579, 3.000000000000000000, -39.34999999999998721 ) ) ;
#906 = EDGE_LOOP ( 'NONE', ( #116, #34, #466, #67, #459, #784, #475, #470 ) ) ;
#907 = CARTESIAN_POINT ( 'NONE',  ( -60.49999999999998579, 2.000000000000000000, 39.35000000000000142 ) ) ;
#908 = VECTOR ( 'NONE', #967, 999.9999999999998863 ) ;
#909 = EDGE_CURVE ( 'NONE', #380, #345, #323, .T. ) ;
#910 = LOCAL_TIME ( 8, 7, 47.00000000000000000, #612 ) ;
#911 = DIRECTION ( 'NONE',  ( -0.0000000000000000000, 1.000000000000000000, -0.0000000000000000000 ) ) ;
#912 = CARTESIAN_POINT ( 'NONE',  ( 61.00000000000001421, 0.0000000000000000000, 42.85000000000000853 ) ) ;
#913 = CYLINDRICAL_SURFACE ( 'NONE', #144, 3.000000000000002665 ) ;
#914 = DIRECTION ( 'NONE',  ( 0.0000000000000000000, 0.0000000000000000000, 1.000000000000000000 ) ) ;
#915 = DIRECTION ( 'NONE',  ( 0.0000000000000000000, 0.0000000000000000000, 1.000000000000000000 ) ) ;
#916 = DIRECTION ( 'NONE',  ( -0.0000000000000000000, 1.000000000000000000, -0.0000000000000000000 ) ) ;
#917 = CARTESIAN_POINT ( 'NONE',  ( -60.49999999999998579, 2.000000000000000000, -39.34999999999998721 ) ) ;
#918 = EDGE_CURVE ( 'NONE', #405, #653, #698, .T. ) ;
#919 = DIRECTION ( 'NONE',  ( 0.0000000000000000000, 0.0000000000000000000, 1.000000000000000000 ) ) ;
#920 = CARTESIAN_POINT ( 'NONE',  ( 60.50000000000001421, 2.000000000000000000, -42.49999999999998579 ) ) ;
#921 = CIRCLE ( 'NONE', #406, 3.149999999999999911 ) ;
#922 = AXIS2_PLACEMENT_3D ( 'NONE', #246, #997, #484 ) ;
#923 = CARTESIAN_POINT ( 'NONE',  ( 60.50000000000001421, 2.000000000000000000, 39.35000000000000142 ) ) ;
#924 = AXIS2_PLACEMENT_3D ( 'NONE', #78, #746, #1073 ) ;
#925 = CC_DESIGN_APPROVAL ( #1047, ( #773 ) ) ;
#926 = CIRCLE ( 'NONE', #321, 1.700000000000007061 ) ;
#927 = CARTESIAN_POINT ( 'NONE',  ( -60.49999999999998579, 3.000000000000000000, 39.35000000000000142 ) ) ;
#928 = VERTEX_POINT ( 'NONE', #747 ) ;
#929 = CARTESIAN_POINT ( 'NONE',  ( 60.50000000000001421, 3.000000000000000000, 39.35000000000000142 ) ) ;
#930 = APPROVAL_DATE_TIME ( #848, #823 ) ;
#931 = FACE_OUTER_BOUND ( 'NONE', #614, .T. ) ;
#932 = VERTEX_POINT ( 'NONE', #669 ) ;
#933 = CARTESIAN_POINT ( 'NONE',  ( -60.49999999999998579, 3.000000000000003553, -36.19999999999998863 ) ) ;
#934 = EDGE_CURVE ( 'NONE', #777, #218, #540, .T. ) ;
#935 = DIRECTION ( 'NONE',  ( 0.0000000000000000000, 0.0000000000000000000, 1.000000000000000000 ) ) ;
#936 = DIRECTION ( 'NONE',  ( -0.0000000000000000000, 1.000000000000000000, -0.0000000000000000000 ) ) ;
#937 = ORIENTED_EDGE ( 'NONE', *, *, #300, .F. ) ;
#938 = DIRECTION ( 'NONE',  ( 0.0000000000000000000, 0.0000000000000000000, 1.000000000000000000 ) ) ;
#939 = EDGE_CURVE ( 'NONE', #982, #479, #892, .T. ) ;
#940 = DIRECTION ( 'NONE',  ( 1.000000000000000000, 0.0000000000000000000, 0.0000000000000000000 ) ) ;
#941 = VECTOR ( 'NONE', #1022, 1000.000000000000000 ) ;
#942 = CARTESIAN_POINT ( 'NONE',  ( -60.99999999999998579, 3.000000000000000000, 39.85000000000000142 ) ) ;
#943 = LOCAL_TIME ( 8, 7, 47.00000000000000000, #865 ) ;
#944 = CIRCLE ( 'NONE', #423, 3.149999999999999911 ) ;
#945 = CIRCLE ( 'NONE', #679, 1.700000000000007061 ) ;
#946 = EDGE_LOOP ( 'NONE', ( #796, #396, #264, #786 ) ) ;
#947 = DIRECTION ( 'NONE',  ( -0.0000000000000000000, 1.000000000000000000, -0.0000000000000000000 ) ) ;
#948 = DIRECTION ( 'NONE',  ( -0.0000000000000000000, 1.000000000000000000, -0.0000000000000000000 ) ) ;
#949 = CARTESIAN_POINT ( 'NONE',  ( 61.00000000000001421, 0.0000000000000000000, -42.84999999999999432 ) ) ;
#950 = ORIENTED_EDGE ( 'NONE', *, *, #147, .T. ) ;
#951 = CARTESIAN_POINT ( 'NONE',  ( -63.99999999999998579, 3.000000000000000000, 39.85000000000000142 ) ) ;
#952 = ORIENTED_EDGE ( 'NONE', *, *, #568, .F. ) ;
#953 = CARTESIAN_POINT ( 'NONE',  ( -63.99999999999998579, 3.000000000000000000, 42.85000000000000853 ) ) ;
#954 = EDGE_CURVE ( 'NONE', #442, #1043, #900, .T. ) ;
#955 = ORIENTED_EDGE ( 'NONE', *, *, #522, .T. ) ;
#956 = FACE_OUTER_BOUND ( 'NONE', #697, .T. ) ;
#957 = DATE_TIME_ROLE ( 'classification_date' ) ;
#958 = ORIENTED_EDGE ( 'NONE', *, *, #477, .T. ) ;
#959 = VECTOR ( 'NONE', #101, 1000.000000000000000 ) ;
#960 = DIRECTION ( 'NONE',  ( 0.0000000000000000000, 0.0000000000000000000, -1.000000000000000000 ) ) ;
#961 = ORIENTED_EDGE ( 'NONE', *, *, #934, .T. ) ;
#962 = AXIS2_PLACEMENT_3D ( 'NONE', #689, #936, #430 ) ;
#963 = CARTESIAN_POINT ( 'NONE',  ( 60.50000000000001421, 3.000000000000003553, 39.35000000000000142 ) ) ;
#964 = AXIS2_PLACEMENT_3D ( 'NONE', #281, #705, #190 ) ;
#965 = EDGE_LOOP ( 'NONE', ( #1019, #1033, #259, #878 ) ) ;
#966 = ORIENTED_EDGE ( 'NONE', *, *, #517, .F. ) ;
#967 = DIRECTION ( 'NONE',  ( 0.0000000000000000000, 0.7071067811865473507, 0.7071067811865477948 ) ) ;
#968 = FACE_OUTER_BOUND ( 'NONE', #553, .T. ) ;
#969 = ORIENTED_EDGE ( 'NONE', *, *, #231, .T. ) ;
#970 = ADVANCED_FACE ( 'NONE', ( #338 ), #985, .T. ) ;
#971 = ADVANCED_FACE ( 'NONE', ( #576 ), #566, .F. ) ;
#972 = ORIENTED_EDGE ( 'NONE', *, *, #169, .F. ) ;
#973 = PLANE ( 'NONE',  #33 ) ;
#974 = CARTESIAN_POINT ( 'NONE',  ( 60.50000000000001421, 3.000000000000000000, 39.35000000000000142 ) ) ;
#975 = EDGE_LOOP ( 'NONE', ( #632, #41 ) ) ;
#976 = EDGE_CURVE ( 'NONE', #895, #606, #373, .T. ) ;
#977 = ORIENTED_EDGE ( 'NONE', *, *, #425, .T. ) ;
#978 = CARTESIAN_POINT ( 'NONE',  ( -60.49999999999998579, 3.000000000000000000, 37.65000000000000568 ) ) ;
#979 = FACE_OUTER_BOUND ( 'NONE', #706, .T. ) ;
#980 = VECTOR ( 'NONE', #658, 1000.000000000000000 ) ;
#981 = CIRCLE ( 'NONE', #302, 3.000000000000002665 ) ;
#982 = VERTEX_POINT ( 'NONE', #242 ) ;
#983 = AXIS2_PLACEMENT_3D ( 'NONE', #774, #673, #935 ) ;
#984 = AXIS2_PLACEMENT_3D ( 'NONE', #217, #478, #308 ) ;
#985 = CYLINDRICAL_SURFACE ( 'NONE', #875, 3.000000000000002665 ) ;
#986 = CARTESIAN_POINT ( 'NONE',  ( -60.49999999999998579, 3.000000000000000000, -37.64999999999999147 ) ) ;
#987 = ORIENTED_EDGE ( 'NONE', *, *, #714, .T. ) ;
#988 = DIRECTION ( 'NONE',  ( -0.0000000000000000000, 1.000000000000000000, -0.0000000000000000000 ) ) ;
#989 = CARTESIAN_POINT ( 'NONE',  ( 61.00000000000001421, 3.000000000000000000, -42.84999999999999432 ) ) ;
#990 = ADVANCED_FACE ( 'NONE', ( #504 ), #840, .F. ) ;
#991 = FACE_BOUND ( 'NONE', #872, .T. ) ;
#992 = LINE ( 'NONE', #824, #719 ) ;
#993 = DIRECTION ( 'NONE',  ( 0.0000000000000000000, 0.0000000000000000000, 1.000000000000000000 ) ) ;
#994 = VERTEX_POINT ( 'NONE', #753 ) ;
#995 = FACE_OUTER_BOUND ( 'NONE', #965, .T. ) ;
#996 = VECTOR ( 'NONE', #486, 1000.000000000000000 ) ;
#997 = DIRECTION ( 'NONE',  ( -0.0000000000000000000, 1.000000000000000000, -0.0000000000000000000 ) ) ;
#998 = DIRECTION ( 'NONE',  ( -0.0000000000000000000, 1.000000000000000000, -0.0000000000000000000 ) ) ;
#999 = DIRECTION ( 'NONE',  ( 0.0000000000000000000, 0.0000000000000000000, 1.000000000000000000 ) ) ;
#1000 = EDGE_CURVE ( 'NONE', #345, #932, #992, .T. ) ;
#1001 = DIRECTION ( 'NONE',  ( 0.0000000000000000000, 0.0000000000000000000, 1.000000000000000000 ) ) ;
#1002 = DIRECTION ( 'NONE',  ( -0.0000000000000000000, 1.000000000000000000, -0.0000000000000000000 ) ) ;
#1003 = CARTESIAN_POINT ( 'NONE',  ( -63.99999999999998579, 0.0000000000000000000, 42.85000000000000853 ) ) ;
#1004 = EDGE_CURVE ( 'NONE', #290, #715, #526, .T. ) ;
#1005 = PERSON_AND_ORGANIZATION_ROLE ( 'creator' ) ;
#1006 = DIRECTION ( 'NONE',  ( -1.000000000000000000, -0.0000000000000000000, -0.0000000000000000000 ) ) ;
#1007 = ORIENTED_EDGE ( 'NONE', *, *, #315, .F. ) ;
#1008 = CARTESIAN_POINT ( 'NONE',  ( 0.0000000000000000000, 0.0000000000000000000, 0.0000000000000000000 ) ) ;
#1009 = CIRCLE ( 'NONE', #962, 3.149999999999999911 ) ;
#1010 = AXIS2_PLACEMENT_3D ( 'NONE', #46, #542, #890 ) ;
#1011 = APPROVAL_PERSON_ORGANIZATION ( #429, #823, #1017 ) ;
#1012 = LOCAL_TIME ( 8, 7, 47.00000000000000000, #558 ) ;
#1013 = CARTESIAN_POINT ( 'NONE',  ( -60.99999999999998579, 0.0000000000000000000, -42.84999999999999432 ) ) ;
#1014 = ORIENTED_EDGE ( 'NONE', *, *, #300, .T. ) ;
#1015 = FACE_OUTER_BOUND ( 'NONE', #790, .T. ) ;
#1016 = EDGE_CURVE ( 'NONE', #292, #928, #1062, .T. ) ;
#1017 = APPROVAL_ROLE ( '' ) ;
#1018 = DIRECTION ( 'NONE',  ( -0.0000000000000000000, 1.000000000000000000, -0.0000000000000000000 ) ) ;
#1019 = ORIENTED_EDGE ( 'NONE', *, *, #635, .F. ) ;
#1020 = FACE_OUTER_BOUND ( 'NONE', #102, .T. ) ;
#1021 = EDGE_CURVE ( 'NONE', #25, #97, #166, .T. ) ;
#1022 = DIRECTION ( 'NONE',  ( 0.0000000000000000000, -1.000000000000000000, 0.0000000000000000000 ) ) ;
#1023 = VERTEX_POINT ( 'NONE', #69 ) ;
#1024 = CARTESIAN_POINT ( 'NONE',  ( -60.99999999999998579, 3.000000000000000000, -39.84999999999998721 ) ) ;
#1025 = AXIS2_PLACEMENT_3D ( 'NONE', #674, #1026, #107 ) ;
#1026 = DIRECTION ( 'NONE',  ( -0.0000000000000000000, 1.000000000000000000, -0.0000000000000000000 ) ) ;
#1027 = AXIS2_PLACEMENT_3D ( 'NONE', #81, #748, #571 ) ;
#1028 = EDGE_LOOP ( 'NONE', ( #720, #113, #331, #846 ) ) ;
#1029 = DIRECTION ( 'NONE',  ( 0.0000000000000000000, 0.0000000000000000000, -1.000000000000000000 ) ) ;
#1030 = EDGE_CURVE ( 'NONE', #311, #462, #742, .T. ) ;
#1031 = ORIENTED_EDGE ( 'NONE', *, *, #660, .F. ) ;
#1032 = CARTESIAN_POINT ( 'NONE',  ( 61.00000000000001421, 0.0000000000000000000, -39.84999999999998721 ) ) ;
#1033 = ORIENTED_EDGE ( 'NONE', *, *, #709, .T. ) ;
#1034 = FACE_OUTER_BOUND ( 'NONE', #690, .T. ) ;
#1035 = EDGE_LOOP ( 'NONE', ( #47, #37, #1056, #703 ) ) ;
#1036 = DIRECTION ( 'NONE',  ( -0.0000000000000000000, 1.000000000000000000, -0.0000000000000000000 ) ) ;
#1037 = ORIENTED_EDGE ( 'NONE', *, *, #251, .F. ) ;
#1038 = DIRECTION ( 'NONE',  ( -1.000000000000000000, 0.0000000000000000000, -0.0000000000000000000 ) ) ;
#1039 = ORIENTED_EDGE ( 'NONE', *, *, #1004, .F. ) ;
#1040 = EDGE_LOOP ( 'NONE', ( #961, #140 ) ) ;
#1041 = AXIS2_PLACEMENT_3D ( 'NONE', #884, #707, #791 ) ;
#1042 = FACE_BOUND ( 'NONE', #975, .T. ) ;
#1043 = VERTEX_POINT ( 'NONE', #500 ) ;
#1044 = CARTESIAN_POINT ( 'NONE',  ( 61.00000000000001421, 3.000000000000000000, 42.85000000000000853 ) ) ;
#1045 = ADVANCED_FACE ( 'NONE', ( #497 ), #592, .F. ) ;
#1046 = VERTEX_POINT ( 'NONE', #84 ) ;
#1047 = APPROVAL ( #552, 'UNSPECIFIED' ) ;
#1048 = EDGE_LOOP ( 'NONE', ( #44, #683, #223, #545 ) ) ;
#1049 = FACE_OUTER_BOUND ( 'NONE', #1035, .T. ) ;
#1050 = FACE_OUTER_BOUND ( 'NONE', #547, .T. ) ;
#1051 = VERTEX_POINT ( 'NONE', #343 ) ;
#1052 = ADVANCED_FACE ( 'NONE', ( #584 ), #648, .F. ) ;
#1053 = VERTEX_POINT ( 'NONE', #601 ) ;
#1054 = CARTESIAN_POINT ( 'NONE',  ( -60.49999999999998579, 2.000000000000000000, 36.20000000000000284 ) ) ;
#1055 = CYLINDRICAL_SURFACE ( 'NONE', #650, 1.700000000000000178 ) ;
#1056 = ORIENTED_EDGE ( 'NONE', *, *, #210, .T. ) ;
#1057 = VERTEX_POINT ( 'NONE', #285 ) ;
#1058 = DIRECTION ( 'NONE',  ( 0.0000000000000000000, -1.000000000000000000, 0.0000000000000000000 ) ) ;
#1059 = DIRECTION ( 'NONE',  ( -0.0000000000000000000, 1.000000000000000000, -0.0000000000000000000 ) ) ;
#1060 = ORIENTED_EDGE ( 'NONE', *, *, #413, .F. ) ;
#1061 = EDGE_LOOP ( 'NONE', ( #1037, #676, #801, #524 ) ) ;
#1062 = CIRCLE ( 'NONE', #90, 3.000000000000002665 ) ;
#1063 = CONICAL_SURFACE ( 'NONE', #341, 3.149999999999999911, 0.7853981633974485010 ) ;
#1064 = CIRCLE ( 'NONE', #355, 3.000000000000002665 ) ;
#1065 = EDGE_CURVE ( 'NONE', #1053, #572, #19, .T. ) ;
#1066 = CARTESIAN_POINT ( 'NONE',  ( 61.00000000000001421, 3.000000000000000000, 39.85000000000000142 ) ) ;
#1067 = CARTESIAN_POINT ( 'NONE',  ( 60.50000000000001421, 3.000000000000000000, -42.49999999999998579 ) ) ;
#1068 = ADVANCED_FACE ( 'NONE', ( #15 ), #234, .F. ) ;
#1069 = ORIENTED_EDGE ( 'NONE', *, *, #751, .T. ) ;
#1070 = DIRECTION ( 'NONE',  ( -0.0000000000000000000, 1.000000000000000000, -0.0000000000000000000 ) ) ;
#1071 = DIRECTION ( 'NONE',  ( 0.0000000000000000000, 0.0000000000000000000, 1.000000000000000000 ) ) ;
#1072 = DIRECTION ( 'NONE',  ( 0.0000000000000000000, -1.000000000000000000, 0.0000000000000000000 ) ) ;
#1073 = DIRECTION ( 'NONE',  ( 0.0000000000000000000, 0.0000000000000000000, 1.000000000000000000 ) ) ;
ENDSEC;
END-ISO-10303-21;
