ISO-10303-21;
HEADER;
FILE_DESCRIPTION (( 'STEP AP203' ),
    '1' );
FILE_NAME ('COLD-TOWER-MAIN-BASE-EXTENSION-v001.STEP',
    '2019-08-14T17:51:35',
    ( '' ),
    ( '' ),
    'SwSTEP 2.0',
    'SolidWorks 2019',
    '' );
FILE_SCHEMA (( 'CONFIG_CONTROL_DESIGN' ));
ENDSEC;

DATA;
#1 = VERTEX_POINT ( 'NONE', #661 ) ;
#2 = DATE_AND_TIME ( #421, #425 ) ;
#3 = LINE ( 'NONE', #113, #478 ) ;
#4 = LINE ( 'NONE', #174, #660 ) ;
#5 = SHAPE_DEFINITION_REPRESENTATION ( #595, #313 ) ;
#6 = DIRECTION ( 'NONE',  ( 0.0000000000000000000, -1.000000000000000000, 0.0000000000000000000 ) ) ;
#7 = DIRECTION ( 'NONE',  ( -0.0000000000000000000, -1.000000000000000000, -0.0000000000000000000 ) ) ;
#8 = COORDINATED_UNIVERSAL_TIME_OFFSET ( 8, 0, .BEHIND. ) ;
#9 = EDGE_CURVE ( 'NONE', #359, #309, #372, .T. ) ;
#10 = VECTOR ( 'NONE', #374, 1000.000000000000000 ) ;
#11 = CC_DESIGN_SECURITY_CLASSIFICATION ( #144, ( #602 ) ) ;
#12 = LINE ( 'NONE', #327, #592 ) ;
#13 = DIRECTION ( 'NONE',  ( 0.0000000000000000000, 0.0000000000000000000, 1.000000000000000000 ) ) ;
#14 = ORIENTED_EDGE ( 'NONE', *, *, #606, .F. ) ;
#15 = EDGE_LOOP ( 'NONE', ( #533, #344 ) ) ;
#16 = EDGE_CURVE ( 'NONE', #133, #582, #220, .T. ) ;
#17 = EDGE_LOOP ( 'NONE', ( #389, #351 ) ) ;
#18 = CIRCLE ( 'NONE', #316, 5.000000000000000000 ) ;
#19 = APPROVAL_PERSON_ORGANIZATION ( #213, #262, #624 ) ;
#20 = DIRECTION ( 'NONE',  ( -0.0000000000000000000, -1.000000000000000000, -0.0000000000000000000 ) ) ;
#21 = DIRECTION ( 'NONE',  ( -0.0000000000000000000, 1.000000000000000000, -0.0000000000000000000 ) ) ;
#22 = EDGE_LOOP ( 'NONE', ( #121, #193, #42, #431 ) ) ;
#23 = CARTESIAN_POINT ( 'NONE',  ( 15.00000000000000355, 5.000000000000000000, -15.00000000000000000 ) ) ;
#24 = ORIENTED_EDGE ( 'NONE', *, *, #590, .F. ) ;
#25 = ADVANCED_FACE ( 'NONE', ( #407 ), #508, .F. ) ;
#26 = ORIENTED_EDGE ( 'NONE', *, *, #235, .T. ) ;
#27 = CC_DESIGN_PERSON_AND_ORGANIZATION_ASSIGNMENT ( #310, #511, ( #602 ) ) ;
#28 = CIRCLE ( 'NONE', #451, 3.299999999999995826 ) ;
#29 = VECTOR ( 'NONE', #130, 1000.000000000000000 ) ;
#30 = EDGE_LOOP ( 'NONE', ( #270, #298, #469, #305 ) ) ;
#31 = DIRECTION ( 'NONE',  ( -0.0000000000000000000, -1.000000000000000000, -0.0000000000000000000 ) ) ;
#32 = VERTEX_POINT ( 'NONE', #607 ) ;
#33 = DIRECTION ( 'NONE',  ( 0.0000000000000000000, -1.000000000000000000, 0.0000000000000000000 ) ) ;
#34 = EDGE_CURVE ( 'NONE', #160, #128, #28, .T. ) ;
#35 = ORIENTED_EDGE ( 'NONE', *, *, #658, .F. ) ;
#36 = CARTESIAN_POINT ( 'NONE',  ( 132.0000000000000000, 0.0000000000000000000, -145.0000000000000000 ) ) ;
#37 = ORIENTED_EDGE ( 'NONE', *, *, #312, .T. ) ;
#38 = CC_DESIGN_PERSON_AND_ORGANIZATION_ASSIGNMENT ( #216, #110, ( #484 ) ) ;
#39 = ORIENTED_EDGE ( 'NONE', *, *, #279, .F. ) ;
#40 = AXIS2_PLACEMENT_3D ( 'NONE', #252, #53, #261 ) ;
#41 = DIRECTION ( 'NONE',  ( 0.0000000000000000000, 0.0000000000000000000, -1.000000000000000000 ) ) ;
#42 = ORIENTED_EDGE ( 'NONE', *, *, #98, .F. ) ;
#43 = VECTOR ( 'NONE', #328, 1000.000000000000000 ) ;
#44 = FACE_BOUND ( 'NONE', #15, .T. ) ;
#45 = DIRECTION ( 'NONE',  ( -0.0000000000000000000, -1.000000000000000000, -0.0000000000000000000 ) ) ;
#46 = ORIENTED_EDGE ( 'NONE', *, *, #643, .T. ) ;
#47 = ADVANCED_FACE ( 'NONE', ( #413, #48, #44, #158, #253 ), #667, .F. ) ;
#48 = FACE_BOUND ( 'NONE', #415, .T. ) ;
#49 = FACE_OUTER_BOUND ( 'NONE', #109, .T. ) ;
#50 = VERTEX_POINT ( 'NONE', #250 ) ;
#51 = FACE_OUTER_BOUND ( 'NONE', #30, .T. ) ;
#52 = FACE_OUTER_BOUND ( 'NONE', #665, .T. ) ;
#53 = DIRECTION ( 'NONE',  ( 0.0000000000000000000, 0.0000000000000000000, 1.000000000000000000 ) ) ;
#54 = AXIS2_PLACEMENT_3D ( 'NONE', #433, #20, #74 ) ;
#55 = CC_DESIGN_APPROVAL ( #154, ( #484 ) ) ;
#56 = DIRECTION ( 'NONE',  ( 0.0000000000000000000, 0.0000000000000000000, -1.000000000000000000 ) ) ;
#57 = CALENDAR_DATE ( 2019, 14, 8 ) ;
#58 = EDGE_CURVE ( 'NONE', #494, #229, #456, .T. ) ;
#59 = DIRECTION ( 'NONE',  ( -1.000000000000000000, -0.0000000000000000000, -0.0000000000000000000 ) ) ;
#60 = APPLICATION_PROTOCOL_DEFINITION ( 'international standard', 'config_control_design', 1994, #382 ) ;
#61 = CARTESIAN_POINT ( 'NONE',  ( 127.0000000000000000, 0.0000000000000000000, -145.0000000000000000 ) ) ;
#62 = MANIFOLD_SOLID_BREP ( 'Fillet1', #290 ) ;
#63 = CARTESIAN_POINT ( 'NONE',  ( 15.00000000000001066, 2.939152317953660911E-16, -138.3000000000000114 ) ) ;
#64 = APPROVAL_ROLE ( '' ) ;
#65 = EDGE_LOOP ( 'NONE', ( #199, #539, #39, #37 ) ) ;
#66 = VECTOR ( 'NONE', #636, 1000.000000000000000 ) ;
#67 = AXIS2_PLACEMENT_3D ( 'NONE', #320, #577, #373 ) ;
#68 = CARTESIAN_POINT ( 'NONE',  ( 127.0000000000000000, 5.000000000000000000, -5.000000000000000000 ) ) ;
#69 = CARTESIAN_POINT ( 'NONE',  ( 0.0000000000000000000, 5.000000000000000000, -5.000000000000000000 ) ) ;
#70 = EDGE_LOOP ( 'NONE', ( #544, #94, #124, #492 ) ) ;
#71 = ADVANCED_FACE ( 'NONE', ( #197 ), #97, .F. ) ;
#72 = DIRECTION ( 'NONE',  ( 0.0000000000000000000, 0.0000000000000000000, -1.000000000000000000 ) ) ;
#73 = DIRECTION ( 'NONE',  ( 0.0000000000000000000, 0.0000000000000000000, -1.000000000000000000 ) ) ;
#74 = DIRECTION ( 'NONE',  ( 0.0000000000000000000, 0.0000000000000000000, -1.000000000000000000 ) ) ;
#75 = DIRECTION ( 'NONE',  ( 0.0000000000000000000, -1.000000000000000000, 0.0000000000000000000 ) ) ;
#76 = AXIS2_PLACEMENT_3D ( 'NONE', #336, #591, #72 ) ;
#77 = AXIS2_PLACEMENT_3D ( 'NONE', #83, #285, #616 ) ;
#78 = LOCAL_TIME ( 10, 51, 35.00000000000000000, #520 ) ;
#79 = CARTESIAN_POINT ( 'NONE',  ( 15.00000000000000355, 5.000000000000000000, -15.00000000000000000 ) ) ;
#80 = ORIENTED_EDGE ( 'NONE', *, *, #279, .T. ) ;
#81 = CARTESIAN_POINT ( 'NONE',  ( 15.00000000000000355, 0.0000000000000000000, -18.29999999999999716 ) ) ;
#82 = ADVANCED_FACE ( 'NONE', ( #151 ), #357, .F. ) ;
#83 = CARTESIAN_POINT ( 'NONE',  ( 117.0000000000000000, 2.939152317953660911E-16, -135.0000000000000000 ) ) ;
#84 = ORIENTED_EDGE ( 'NONE', *, *, #658, .T. ) ;
#85 = DIRECTION ( 'NONE',  ( 0.0000000000000000000, 0.0000000000000000000, 1.000000000000000000 ) ) ;
#86 = AXIS2_PLACEMENT_3D ( 'NONE', #68, #383, #541 ) ;
#87 = ORIENTED_EDGE ( 'NONE', *, *, #497, .F. ) ;
#88 = DIRECTION ( 'NONE',  ( 0.0000000000000000000, -1.000000000000000000, 0.0000000000000000000 ) ) ;
#89 = EDGE_CURVE ( 'NONE', #229, #32, #18, .T. ) ;
#90 = DESIGN_CONTEXT ( 'detailed design', #382, 'design' ) ;
#91 = ORIENTED_EDGE ( 'NONE', *, *, #98, .T. ) ;
#92 = DIRECTION ( 'NONE',  ( -1.000000000000000000, 0.0000000000000000000, 0.0000000000000000000 ) ) ;
#93 = ORIENTED_EDGE ( 'NONE', *, *, #440, .F. ) ;
#94 = ORIENTED_EDGE ( 'NONE', *, *, #423, .T. ) ;
#95 = DIRECTION ( 'NONE',  ( 0.0000000000000000000, -1.000000000000000000, 0.0000000000000000000 ) ) ;
#96 = ORIENTED_EDGE ( 'NONE', *, *, #222, .T. ) ;
#97 = CYLINDRICAL_SURFACE ( 'NONE', #650, 3.299999999999997158 ) ;
#98 = EDGE_CURVE ( 'NONE', #449, #335, #466, .T. ) ;
#99 = DIRECTION ( 'NONE',  ( -0.0000000000000000000, 1.000000000000000000, -0.0000000000000000000 ) ) ;
#100 = ORIENTED_EDGE ( 'NONE', *, *, #432, .F. ) ;
#101 =( GEOMETRIC_REPRESENTATION_CONTEXT ( 3 ) GLOBAL_UNCERTAINTY_ASSIGNED_CONTEXT ( ( #350 ) ) GLOBAL_UNIT_ASSIGNED_CONTEXT ( ( #120, #670, #628 ) ) REPRESENTATION_CONTEXT ( 'NONE', 'WORKASPACE' ) );
#102 = DIRECTION ( 'NONE',  ( -0.0000000000000000000, -1.000000000000000000, -0.0000000000000000000 ) ) ;
#103 = DIRECTION ( 'NONE',  ( 0.0000000000000000000, 0.0000000000000000000, -1.000000000000000000 ) ) ;
#104 = CARTESIAN_POINT ( 'NONE',  ( 117.0000000000000000, 2.939152317953660911E-16, -131.7000000000000171 ) ) ;
#105 = VERTEX_POINT ( 'NONE', #209 ) ;
#106 = PERSON_AND_ORGANIZATION_ROLE ( 'creator' ) ;
#107 = DIRECTION ( 'NONE',  ( 0.0000000000000000000, -1.000000000000000000, 0.0000000000000000000 ) ) ;
#108 = CARTESIAN_POINT ( 'NONE',  ( 132.0000000000000000, 5.000000000000000000, -5.000000000000000000 ) ) ;
#109 = EDGE_LOOP ( 'NONE', ( #233, #100, #501, #365 ) ) ;
#110 = PERSON_AND_ORGANIZATION_ROLE ( 'creator' ) ;
#111 = DIRECTION ( 'NONE',  ( -0.0000000000000000000, -1.000000000000000000, -0.0000000000000000000 ) ) ;
#112 = DIRECTION ( 'NONE',  ( 0.0000000000000000000, -1.000000000000000000, 0.0000000000000000000 ) ) ;
#113 = CARTESIAN_POINT ( 'NONE',  ( 15.00000000000001066, 0.0000000000000000000, -138.3000000000000114 ) ) ;
#114 = AXIS2_PLACEMENT_3D ( 'NONE', #159, #112, #622 ) ;
#115 = ADVANCED_FACE ( 'NONE', ( #465 ), #176, .F. ) ;
#116 = CARTESIAN_POINT ( 'NONE',  ( 5.000000000000000000, 5.000000000000000000, 0.0000000000000000000 ) ) ;
#117 = DIRECTION ( 'NONE',  ( 1.000000000000000000, 0.0000000000000000000, 0.0000000000000000000 ) ) ;
#118 = LINE ( 'NONE', #639, #424 ) ;
#119 = DIRECTION ( 'NONE',  ( -0.0000000000000000000, -1.000000000000000000, -0.0000000000000000000 ) ) ;
#120 =( LENGTH_UNIT ( ) NAMED_UNIT ( * ) SI_UNIT ( .MILLI., .METRE. ) );
#121 = ORIENTED_EDGE ( 'NONE', *, *, #526, .F. ) ;
#122 = DIRECTION ( 'NONE',  ( -0.0000000000000000000, -1.000000000000000000, -0.0000000000000000000 ) ) ;
#123 = EDGE_CURVE ( 'NONE', #330, #32, #203, .T. ) ;
#124 = ORIENTED_EDGE ( 'NONE', *, *, #617, .T. ) ;
#125 = AXIS2_PLACEMENT_3D ( 'NONE', #241, #99, #139 ) ;
#126 = AXIS2_PLACEMENT_3D ( 'NONE', #79, #530, #490 ) ;
#127 = DIRECTION ( 'NONE',  ( -0.0000000000000000000, 1.000000000000000000, -0.0000000000000000000 ) ) ;
#128 = VERTEX_POINT ( 'NONE', #626 ) ;
#129 = CC_DESIGN_PERSON_AND_ORGANIZATION_ASSIGNMENT ( #325, #106, ( #602 ) ) ;
#130 = DIRECTION ( 'NONE',  ( 1.000000000000000000, 0.0000000000000000000, 0.0000000000000000000 ) ) ;
#131 = EDGE_LOOP ( 'NONE', ( #403, #669, #542, #562 ) ) ;
#132 = LINE ( 'NONE', #337, #43 ) ;
#133 = VERTEX_POINT ( 'NONE', #378 ) ;
#134 = CIRCLE ( 'NONE', #125, 5.000000000000000000 ) ;
#135 = EDGE_CURVE ( 'NONE', #229, #447, #371, .T. ) ;
#136 = CIRCLE ( 'NONE', #67, 3.300000000000000711 ) ;
#137 = ORIENTED_EDGE ( 'NONE', *, *, #363, .F. ) ;
#138 = EDGE_LOOP ( 'NONE', ( #354, #202, #488, #275 ) ) ;
#139 = DIRECTION ( 'NONE',  ( 0.0000000000000000000, 0.0000000000000000000, -1.000000000000000000 ) ) ;
#140 = EDGE_LOOP ( 'NONE', ( #391, #93, #386, #332 ) ) ;
#141 = CARTESIAN_POINT ( 'NONE',  ( 117.0000000000000000, 5.000000000000000000, -138.3000000000000114 ) ) ;
#142 = EDGE_CURVE ( 'NONE', #557, #531, #282, .T. ) ;
#143 = AXIS2_PLACEMENT_3D ( 'NONE', #196, #31, #41 ) ;
#144 = SECURITY_CLASSIFICATION ( '', '', #254 ) ;
#145 = ORIENTED_EDGE ( 'NONE', *, *, #342, .T. ) ;
#146 = CARTESIAN_POINT ( 'NONE',  ( 117.0000000000000000, 5.000000000000000000, -135.0000000000000000 ) ) ;
#147 = ORIENTED_EDGE ( 'NONE', *, *, #546, .T. ) ;
#148 = CARTESIAN_POINT ( 'NONE',  ( 132.0000000000000000, 0.0000000000000000000, -5.000000000000000000 ) ) ;
#149 = ORIENTED_EDGE ( 'NONE', *, *, #34, .T. ) ;
#150 = EDGE_CURVE ( 'NONE', #359, #531, #671, .T. ) ;
#151 = FACE_OUTER_BOUND ( 'NONE', #300, .T. ) ;
#152 = DIRECTION ( 'NONE',  ( -0.0000000000000000000, -1.000000000000000000, -0.0000000000000000000 ) ) ;
#153 = ORIENTED_EDGE ( 'NONE', *, *, #222, .F. ) ;
#154 = APPROVAL ( #175, 'UNSPECIFIED' ) ;
#155 = DIRECTION ( 'NONE',  ( 0.0000000000000000000, 0.0000000000000000000, -1.000000000000000000 ) ) ;
#156 = CARTESIAN_POINT ( 'NONE',  ( 127.0000000000000000, 0.0000000000000000000, 0.0000000000000000000 ) ) ;
#157 = ORIENTED_EDGE ( 'NONE', *, *, #323, .T. ) ;
#158 = FACE_BOUND ( 'NONE', #17, .T. ) ;
#159 = CARTESIAN_POINT ( 'NONE',  ( 127.0000000000000000, 5.000000000000000000, -145.0000000000000000 ) ) ;
#160 = VERTEX_POINT ( 'NONE', #162 ) ;
#161 = MECHANICAL_CONTEXT ( 'NONE', #272, 'mechanical' ) ;
#162 = CARTESIAN_POINT ( 'NONE',  ( 117.0000000000000000, 5.000000000000000000, -18.29999999999999716 ) ) ;
#163 = CYLINDRICAL_SURFACE ( 'NONE', #331, 5.000000000000004441 ) ;
#164 = ORIENTED_EDGE ( 'NONE', *, *, #445, .F. ) ;
#165 = COORDINATED_UNIVERSAL_TIME_OFFSET ( 8, 0, .BEHIND. ) ;
#166 = DIRECTION ( 'NONE',  ( -0.0000000000000000000, -0.0000000000000000000, 1.000000000000000000 ) ) ;
#167 = ADVANCED_FACE ( 'NONE', ( #51 ), #410, .F. ) ;
#168 = LINE ( 'NONE', #476, #631 ) ;
#169 = APPROVAL_DATE_TIME ( #578, #460 ) ;
#170 = VECTOR ( 'NONE', #645, 1000.000000000000000 ) ;
#171 = CARTESIAN_POINT ( 'NONE',  ( 15.00000000000000355, 2.939152317953660911E-16, -18.30000000000000071 ) ) ;
#172 = CIRCLE ( 'NONE', #126, 3.299999999999997158 ) ;
#173 = ORGANIZATION ( 'UNSPECIFIED', 'UNSPECIFIED', '' ) ;
#174 = CARTESIAN_POINT ( 'NONE',  ( 0.0000000000000000000, 5.000000000000000000, -150.0000000000000000 ) ) ;
#175 = APPROVAL_STATUS ( 'not_yet_approved' ) ;
#176 = CYLINDRICAL_SURFACE ( 'NONE', #573, 3.299999999999995826 ) ;
#177 = EDGE_CURVE ( 'NONE', #370, #449, #571, .T. ) ;
#178 = CYLINDRICAL_SURFACE ( 'NONE', #583, 3.299999999999995826 ) ;
#179 = APPROVAL_DATE_TIME ( #637, #154 ) ;
#180 = VERTEX_POINT ( 'NONE', #171 ) ;
#181 = CARTESIAN_POINT ( 'NONE',  ( 117.0000000000000000, 0.0000000000000000000, -15.00000000000000178 ) ) ;
#182 = ORIENTED_EDGE ( 'NONE', *, *, #517, .F. ) ;
#183 = AXIS2_PLACEMENT_3D ( 'NONE', #251, #454, #247 ) ;
#184 = FACE_OUTER_BOUND ( 'NONE', #70, .T. ) ;
#185 = ORIENTED_EDGE ( 'NONE', *, *, #546, .F. ) ;
#186 = EDGE_CURVE ( 'NONE', #309, #557, #3, .T. ) ;
#187 = PLANE ( 'NONE',  #76 ) ;
#188 = ORIENTED_EDGE ( 'NONE', *, *, #375, .F. ) ;
#189 = VECTOR ( 'NONE', #314, 1000.000000000000000 ) ;
#190 = LINE ( 'NONE', #662, #601 ) ;
#191 = ADVANCED_FACE ( 'NONE', ( #366, #563, #524, #268, #521 ), #265, .T. ) ;
#192 = DIRECTION ( 'NONE',  ( -0.0000000000000000000, -1.000000000000000000, -0.0000000000000000000 ) ) ;
#193 = ORIENTED_EDGE ( 'NONE', *, *, #249, .F. ) ;
#194 = DIRECTION ( 'NONE',  ( 0.0000000000000000000, 0.0000000000000000000, -1.000000000000000000 ) ) ;
#195 = AXIS2_PLACEMENT_3D ( 'NONE', #519, #7, #525 ) ;
#196 = CARTESIAN_POINT ( 'NONE',  ( 117.0000000000000000, 2.939152317953660911E-16, -15.00000000000000178 ) ) ;
#197 = FACE_OUTER_BOUND ( 'NONE', #140, .T. ) ;
#198 = DIRECTION ( 'NONE',  ( 0.0000000000000000000, 0.0000000000000000000, -1.000000000000000000 ) ) ;
#199 = ORIENTED_EDGE ( 'NONE', *, *, #445, .T. ) ;
#200 = EDGE_CURVE ( 'NONE', #381, #582, #118, .T. ) ;
#201 = CARTESIAN_POINT ( 'NONE',  ( 15.00000000000000355, 0.0000000000000000000, -15.00000000000000000 ) ) ;
#202 = ORIENTED_EDGE ( 'NONE', *, *, #150, .T. ) ;
#203 = LINE ( 'NONE', #575, #269 ) ;
#204 = AXIS2_PLACEMENT_3D ( 'NONE', #311, #111, #306 ) ;
#205 = CARTESIAN_POINT ( 'NONE',  ( 15.00000000000000355, 0.0000000000000000000, -11.70000000000000107 ) ) ;
#206 = ORIENTED_EDGE ( 'NONE', *, *, #228, .F. ) ;
#207 = PERSON_AND_ORGANIZATION ( #234, #173 ) ;
#208 = CIRCLE ( 'NONE', #245, 3.299999999999997158 ) ;
#209 = CARTESIAN_POINT ( 'NONE',  ( 15.00000000000000355, 2.939152317953660911E-16, -11.69999999999999929 ) ) ;
#210 = ADVANCED_FACE ( 'NONE', ( #230 ), #187, .F. ) ;
#211 = DIRECTION ( 'NONE',  ( 0.0000000000000000000, 0.0000000000000000000, -1.000000000000000000 ) ) ;
#212 = EDGE_LOOP ( 'NONE', ( #284, #507, #26, #145 ) ) ;
#213 = PERSON_AND_ORGANIZATION ( #234, #173 ) ;
#214 = PRODUCT ( 'COLD-TOWER-MAIN-BASE-EXTENSION-v001', 'COLD-TOWER-MAIN-BASE-EXTENSION-v001', '', ( #161 ) ) ;
#215 = CARTESIAN_POINT ( 'NONE',  ( 0.0000000000000000000, 0.0000000000000000000, -150.0000000000000000 ) ) ;
#216 = PERSON_AND_ORGANIZATION ( #234, #173 ) ;
#217 = DIRECTION ( 'NONE',  ( 0.0000000000000000000, -0.0000000000000000000, -1.000000000000000000 ) ) ;
#218 = DIRECTION ( 'NONE',  ( 0.0000000000000000000, 0.0000000000000000000, -1.000000000000000000 ) ) ;
#219 = DATE_TIME_ROLE ( 'creation_date' ) ;
#220 = CIRCLE ( 'NONE', #77, 3.299999999999997158 ) ;
#221 = LOCAL_TIME ( 10, 51, 35.00000000000000000, #8 ) ;
#222 = EDGE_CURVE ( 'NONE', #296, #180, #341, .T. ) ;
#223 = CARTESIAN_POINT ( 'NONE',  ( 15.00000000000000355, 5.000000000000000000, -11.70000000000000107 ) ) ;
#224 = VERTEX_POINT ( 'NONE', #276 ) ;
#225 = DIRECTION ( 'NONE',  ( -0.0000000000000000000, -1.000000000000000000, -0.0000000000000000000 ) ) ;
#226 = EDGE_LOOP ( 'NONE', ( #80, #292, #579, #84, #638, #439, #248, #609 ) ) ;
#227 = EDGE_LOOP ( 'NONE', ( #603, #623, #96, #648 ) ) ;
#228 = EDGE_CURVE ( 'NONE', #50, #499, #360, .T. ) ;
#229 = VERTEX_POINT ( 'NONE', #480 ) ;
#230 = FACE_OUTER_BOUND ( 'NONE', #131, .T. ) ;
#231 = CARTESIAN_POINT ( 'NONE',  ( 5.000000000000000000, 5.000000000000000000, -145.0000000000000000 ) ) ;
#232 = ORIENTED_EDGE ( 'NONE', *, *, #649, .F. ) ;
#233 = ORIENTED_EDGE ( 'NONE', *, *, #200, .F. ) ;
#234 = PERSON ( 'UNSPECIFIED', 'UNSPECIFIED', 'UNSPECIFIED', ('UNSPECIFIED'), ('UNSPECIFIED'), ('UNSPECIFIED') ) ;
#235 = EDGE_CURVE ( 'NONE', #160, #1, #12, .T. ) ;
#236 = VECTOR ( 'NONE', #45, 1000.000000000000000 ) ;
#237 = ORIENTED_EDGE ( 'NONE', *, *, #649, .T. ) ;
#238 = DIRECTION ( 'NONE',  ( 0.0000000000000000000, 0.0000000000000000000, -1.000000000000000000 ) ) ;
#239 = CC_DESIGN_DATE_AND_TIME_ASSIGNMENT ( #2, #464, ( #144 ) ) ;
#240 = VERTEX_POINT ( 'NONE', #223 ) ;
#241 = CARTESIAN_POINT ( 'NONE',  ( 5.000000000000000000, 5.000000000000000000, -5.000000000000000000 ) ) ;
#242 = ORIENTED_EDGE ( 'NONE', *, *, #123, .F. ) ;
#243 = CARTESIAN_POINT ( 'NONE',  ( 117.0000000000000000, 5.000000000000000000, -131.7000000000000171 ) ) ;
#244 = CIRCLE ( 'NONE', #143, 3.299999999999995826 ) ;
#245 = AXIS2_PLACEMENT_3D ( 'NONE', #23, #75, #73 ) ;
#246 = ORIENTED_EDGE ( 'NONE', *, *, #89, .F. ) ;
#247 = DIRECTION ( 'NONE',  ( 0.0000000000000000000, 0.0000000000000000000, -1.000000000000000000 ) ) ;
#248 = ORIENTED_EDGE ( 'NONE', *, *, #590, .T. ) ;
#249 = EDGE_CURVE ( 'NONE', #335, #224, #482, .T. ) ;
#250 = CARTESIAN_POINT ( 'NONE',  ( 127.0000000000000000, 5.000000000000000000, 0.0000000000000000000 ) ) ;
#251 = CARTESIAN_POINT ( 'NONE',  ( 117.0000000000000000, 5.000000000000000000, -135.0000000000000000 ) ) ;
#252 = CARTESIAN_POINT ( 'NONE',  ( 0.0000000000000000000, 5.000000000000000000, -150.0000000000000000 ) ) ;
#253 = FACE_OUTER_BOUND ( 'NONE', #226, .T. ) ;
#254 = SECURITY_CLASSIFICATION_LEVEL ( 'unclassified' ) ;
#255 = ADVANCED_FACE ( 'NONE', ( #184 ), #178, .F. ) ;
#256 = CIRCLE ( 'NONE', #537, 5.000000000000004441 ) ;
#257 = DIRECTION ( 'NONE',  ( -1.000000000000000000, -0.0000000000000000000, -0.0000000000000000000 ) ) ;
#258 = ORIENTED_EDGE ( 'NONE', *, *, #617, .F. ) ;
#259 = PERSON_AND_ORGANIZATION ( #234, #173 ) ;
#260 = AXIS2_PLACEMENT_3D ( 'NONE', #561, #611, #317 ) ;
#261 = DIRECTION ( 'NONE',  ( 1.000000000000000000, 0.0000000000000000000, -0.0000000000000000000 ) ) ;
#262 = APPROVAL ( #419, 'UNSPECIFIED' ) ;
#263 = FACE_OUTER_BOUND ( 'NONE', #446, .T. ) ;
#264 = DATE_AND_TIME ( #57, #452 ) ;
#265 = PLANE ( 'NONE',  #558 ) ;
#266 = CARTESIAN_POINT ( 'NONE',  ( 5.000000000000000000, 5.000000000000000000, -145.0000000000000000 ) ) ;
#267 = ADVANCED_FACE ( 'NONE', ( #580 ), #273, .F. ) ;
#268 = FACE_BOUND ( 'NONE', #657, .T. ) ;
#269 = VECTOR ( 'NONE', #166, 1000.000000000000000 ) ;
#270 = ORIENTED_EDGE ( 'NONE', *, *, #481, .F. ) ;
#271 = AXIS2_PLACEMENT_3D ( 'NONE', #532, #280, #384 ) ;
#272 = APPLICATION_CONTEXT ( 'configuration controlled 3d designs of mechanical parts and assemblies' ) ;
#273 = CYLINDRICAL_SURFACE ( 'NONE', #54, 3.299999999999997158 ) ;
#274 = DIRECTION ( 'NONE',  ( 0.0000000000000000000, 0.0000000000000000000, -1.000000000000000000 ) ) ;
#275 = ORIENTED_EDGE ( 'NONE', *, *, #186, .F. ) ;
#276 = CARTESIAN_POINT ( 'NONE',  ( 132.0000000000000000, 5.000000000000000000, -145.0000000000000000 ) ) ;
#277 = FACE_OUTER_BOUND ( 'NONE', #605, .T. ) ;
#278 = ORIENTED_EDGE ( 'NONE', *, *, #58, .F. ) ;
#279 = EDGE_CURVE ( 'NONE', #499, #224, #388, .T. ) ;
#280 = DIRECTION ( 'NONE',  ( -0.0000000000000000000, -1.000000000000000000, -0.0000000000000000000 ) ) ;
#281 = VERTEX_POINT ( 'NONE', #448 ) ;
#282 = CIRCLE ( 'NONE', #204, 3.299999999999997158 ) ;
#283 = VECTOR ( 'NONE', #127, 1000.000000000000000 ) ;
#284 = ORIENTED_EDGE ( 'NONE', *, *, #423, .F. ) ;
#285 = DIRECTION ( 'NONE',  ( -0.0000000000000000000, -1.000000000000000000, -0.0000000000000000000 ) ) ;
#286 = ADVANCED_FACE ( 'NONE', ( #457 ), #347, .F. ) ;
#287 = DIRECTION ( 'NONE',  ( 0.0000000000000000000, 0.0000000000000000000, -1.000000000000000000 ) ) ;
#288 = CARTESIAN_POINT ( 'NONE',  ( 132.0000000000000000, 5.000000000000000000, 0.0000000000000000000 ) ) ;
#289 = CC_DESIGN_PERSON_AND_ORGANIZATION_ASSIGNMENT ( #259, #416, ( #144 ) ) ;
#290 = CLOSED_SHELL ( 'NONE', ( #82, #255, #666, #267, #210, #472, #286, #167, #47, #191, #71, #554, #115, #25, #491, #406, #568, #536 ) ) ;
#291 = AXIS2_PLACEMENT_3D ( 'NONE', #345, #545, #238 ) ;
#292 = ORIENTED_EDGE ( 'NONE', *, *, #526, .T. ) ;
#293 = CARTESIAN_POINT ( 'NONE',  ( 132.0000000000000000, 0.0000000000000000000, 0.0000000000000000000 ) ) ;
#294 = ORIENTED_EDGE ( 'NONE', *, *, #385, .T. ) ;
#295 = CARTESIAN_POINT ( 'NONE',  ( 15.00000000000000355, 2.939152317953660911E-16, -15.00000000000000000 ) ) ;
#296 = VERTEX_POINT ( 'NONE', #556 ) ;
#297 = EDGE_CURVE ( 'NONE', #381, #438, #301, .T. ) ;
#298 = ORIENTED_EDGE ( 'NONE', *, *, #177, .T. ) ;
#299 = LINE ( 'NONE', #293, #672 ) ;
#300 = EDGE_LOOP ( 'NONE', ( #232, #401, #294, #153 ) ) ;
#301 = CIRCLE ( 'NONE', #183, 3.299999999999997158 ) ;
#302 = CIRCLE ( 'NONE', #291, 3.299999999999997158 ) ;
#303 = DIRECTION ( 'NONE',  ( 0.0000000000000000000, -0.0000000000000000000, -1.000000000000000000 ) ) ;
#304 = CARTESIAN_POINT ( 'NONE',  ( 0.0000000000000000000, 0.0000000000000000000, -145.0000000000000000 ) ) ;
#305 = ORIENTED_EDGE ( 'NONE', *, *, #625, .T. ) ;
#306 = DIRECTION ( 'NONE',  ( 0.0000000000000000000, 0.0000000000000000000, -1.000000000000000000 ) ) ;
#307 = DIRECTION ( 'NONE',  ( -0.0000000000000000000, -1.000000000000000000, -0.0000000000000000000 ) ) ;
#308 = LINE ( 'NONE', #205, #615 ) ;
#309 = VERTEX_POINT ( 'NONE', #604 ) ;
#310 = PERSON_AND_ORGANIZATION ( #234, #173 ) ;
#311 = CARTESIAN_POINT ( 'NONE',  ( 15.00000000000001066, 2.939152317953660911E-16, -135.0000000000000000 ) ) ;
#312 = EDGE_CURVE ( 'NONE', #499, #356, #405, .T. ) ;
#313 = ADVANCED_BREP_SHAPE_REPRESENTATION ( 'COLD-TOWER-MAIN-BASE-EXTENSION-v001', ( #62, #642 ), #101 ) ;
#314 = DIRECTION ( 'NONE',  ( 0.0000000000000000000, -1.000000000000000000, 0.0000000000000000000 ) ) ;
#315 = CALENDAR_DATE ( 2019, 14, 8 ) ;
#316 = AXIS2_PLACEMENT_3D ( 'NONE', #428, #516, #634 ) ;
#317 = DIRECTION ( 'NONE',  ( 0.0000000000000000000, 0.0000000000000000000, -1.000000000000000000 ) ) ;
#318 = CARTESIAN_POINT ( 'NONE',  ( 0.0000000000000000000, 0.0000000000000000000, 0.0000000000000000000 ) ) ;
#319 = APPROVAL_PERSON_ORGANIZATION ( #377, #460, #470 ) ;
#320 = CARTESIAN_POINT ( 'NONE',  ( 15.00000000000000355, 2.939152317953660911E-16, -15.00000000000000000 ) ) ;
#321 = PERSON_AND_ORGANIZATION ( #234, #173 ) ;
#322 = DIRECTION ( 'NONE',  ( 0.0000000000000000000, 0.0000000000000000000, -1.000000000000000000 ) ) ;
#323 = EDGE_CURVE ( 'NONE', #128, #160, #549, .T. ) ;
#324 = LINE ( 'NONE', #215, #387 ) ;
#325 = PERSON_AND_ORGANIZATION ( #234, #173 ) ;
#326 = ORIENTED_EDGE ( 'NONE', *, *, #333, .F. ) ;
#327 = CARTESIAN_POINT ( 'NONE',  ( 117.0000000000000000, 0.0000000000000000000, -18.29999999999999716 ) ) ;
#328 = DIRECTION ( 'NONE',  ( -0.0000000000000000000, -1.000000000000000000, 0.0000000000000000000 ) ) ;
#329 = VECTOR ( 'NONE', #621, 1000.000000000000000 ) ;
#330 = VERTEX_POINT ( 'NONE', #304 ) ;
#331 = AXIS2_PLACEMENT_3D ( 'NONE', #266, #473, #369 ) ;
#332 = ORIENTED_EDGE ( 'NONE', *, *, #142, .T. ) ;
#333 = EDGE_CURVE ( 'NONE', #32, #654, #190, .T. ) ;
#334 = CARTESIAN_POINT ( 'NONE',  ( 127.0000000000000000, 5.000000000000000000, 0.0000000000000000000 ) ) ;
#335 = VERTEX_POINT ( 'NONE', #36 ) ;
#336 = CARTESIAN_POINT ( 'NONE',  ( 0.0000000000000000000, 5.000000000000000000, 0.0000000000000000000 ) ) ;
#337 = CARTESIAN_POINT ( 'NONE',  ( 0.0000000000000000000, 5.000000000000000000, -145.0000000000000000 ) ) ;
#338 = ORIENTED_EDGE ( 'NONE', *, *, #455, .F. ) ;
#339 = CIRCLE ( 'NONE', #504, 3.299999999999997158 ) ;
#340 = CIRCLE ( 'NONE', #584, 5.000000000000004441 ) ;
#341 = LINE ( 'NONE', #81, #170 ) ;
#342 = EDGE_CURVE ( 'NONE', #1, #493, #244, .T. ) ;
#343 = DIRECTION ( 'NONE',  ( 0.0000000000000000000, 0.0000000000000000000, -1.000000000000000000 ) ) ;
#344 = ORIENTED_EDGE ( 'NONE', *, *, #297, .T. ) ;
#345 = CARTESIAN_POINT ( 'NONE',  ( 15.00000000000001066, 5.000000000000000000, -135.0000000000000000 ) ) ;
#346 = EDGE_LOOP ( 'NONE', ( #35, #463, #640, #586 ) ) ;
#347 = PLANE ( 'NONE',  #436 ) ;
#348 = AXIS2_PLACEMENT_3D ( 'NONE', #295, #192, #655 ) ;
#349 = LOCAL_TIME ( 10, 51, 35.00000000000000000, #427 ) ;
#350 = UNCERTAINTY_MEASURE_WITH_UNIT (LENGTH_MEASURE( 1.000000000000000082E-05 ), #120, 'distance_accuracy_value', 'NONE');
#351 = ORIENTED_EDGE ( 'NONE', *, *, #9, .T. ) ;
#352 = CARTESIAN_POINT ( 'NONE',  ( 117.0000000000000000, 5.000000000000000000, -15.00000000000000178 ) ) ;
#353 = EDGE_CURVE ( 'NONE', #330, #281, #256, .T. ) ;
#354 = ORIENTED_EDGE ( 'NONE', *, *, #9, .F. ) ;
#355 = CARTESIAN_POINT ( 'NONE',  ( 5.000000000000000000, 5.000000000000000000, -150.0000000000000000 ) ) ;
#356 = VERTEX_POINT ( 'NONE', #148 ) ;
#357 = CYLINDRICAL_SURFACE ( 'NONE', #411, 3.299999999999997158 ) ;
#358 = CARTESIAN_POINT ( 'NONE',  ( 15.00000000000001066, 5.000000000000000000, -131.7000000000000171 ) ) ;
#359 = VERTEX_POINT ( 'NONE', #358 ) ;
#360 = CIRCLE ( 'NONE', #86, 5.000000000000000000 ) ;
#361 = AXIS2_PLACEMENT_3D ( 'NONE', #522, #211, #426 ) ;
#362 = CARTESIAN_POINT ( 'NONE',  ( 5.000000000000000000, 5.000000000000000000, 0.0000000000000000000 ) ) ;
#363 = EDGE_CURVE ( 'NONE', #438, #133, #608, .T. ) ;
#364 = CARTESIAN_POINT ( 'NONE',  ( 127.0000000000000000, 0.0000000000000000000, -150.0000000000000000 ) ) ;
#365 = ORIENTED_EDGE ( 'NONE', *, *, #16, .T. ) ;
#366 = FACE_BOUND ( 'NONE', #547, .T. ) ;
#367 = CARTESIAN_POINT ( 'NONE',  ( 0.0000000000000000000, 5.000000000000000000, 0.0000000000000000000 ) ) ;
#368 = LINE ( 'NONE', #588, #29 ) ;
#369 = DIRECTION ( 'NONE',  ( 0.0000000000000000000, 0.0000000000000000000, -1.000000000000000000 ) ) ;
#370 = VERTEX_POINT ( 'NONE', #402 ) ;
#371 = LINE ( 'NONE', #512, #329 ) ;
#372 = CIRCLE ( 'NONE', #487, 3.299999999999997158 ) ;
#373 = DIRECTION ( 'NONE',  ( 0.0000000000000000000, 0.0000000000000000000, -1.000000000000000000 ) ) ;
#374 = DIRECTION ( 'NONE',  ( -0.0000000000000000000, -1.000000000000000000, -0.0000000000000000000 ) ) ;
#375 = EDGE_CURVE ( 'NONE', #654, #494, #134, .T. ) ;
#376 = FACE_OUTER_BOUND ( 'NONE', #22, .T. ) ;
#377 = PERSON_AND_ORGANIZATION ( #234, #173 ) ;
#378 = CARTESIAN_POINT ( 'NONE',  ( 117.0000000000000000, 2.939152317953660911E-16, -138.3000000000000114 ) ) ;
#379 = DIRECTION ( 'NONE',  ( 0.0000000000000000000, 0.0000000000000000000, -1.000000000000000000 ) ) ;
#380 = CYLINDRICAL_SURFACE ( 'NONE', #538, 3.299999999999997158 ) ;
#381 = VERTEX_POINT ( 'NONE', #243 ) ;
#382 = APPLICATION_CONTEXT ( 'configuration controlled 3d designs of mechanical parts and assemblies' ) ;
#383 = DIRECTION ( 'NONE',  ( -0.0000000000000000000, 1.000000000000000000, -0.0000000000000000000 ) ) ;
#384 = DIRECTION ( 'NONE',  ( 0.0000000000000000000, 0.0000000000000000000, -1.000000000000000000 ) ) ;
#385 = EDGE_CURVE ( 'NONE', #105, #180, #641, .T. ) ;
#386 = ORIENTED_EDGE ( 'NONE', *, *, #186, .T. ) ;
#387 = VECTOR ( 'NONE', #257, 1000.000000000000000 ) ;
#388 = LINE ( 'NONE', #543, #528 ) ;
#389 = ORIENTED_EDGE ( 'NONE', *, *, #440, .T. ) ;
#390 = CARTESIAN_POINT ( 'NONE',  ( 5.000000000000000000, 5.000000000000000000, -150.0000000000000000 ) ) ;
#391 = ORIENTED_EDGE ( 'NONE', *, *, #150, .F. ) ;
#392 = CARTESIAN_POINT ( 'NONE',  ( 15.00000000000001066, 5.000000000000000000, -135.0000000000000000 ) ) ;
#393 = AXIS2_PLACEMENT_3D ( 'NONE', #461, #564, #103 ) ;
#394 = CARTESIAN_POINT ( 'NONE',  ( 127.0000000000000000, 5.000000000000000000, -5.000000000000000000 ) ) ;
#395 = DIRECTION ( 'NONE',  ( -0.0000000000000000000, -1.000000000000000000, -0.0000000000000000000 ) ) ;
#396 = VERTEX_POINT ( 'NONE', #355 ) ;
#397 = CARTESIAN_POINT ( 'NONE',  ( 117.0000000000000000, 0.0000000000000000000, -11.70000000000000462 ) ) ;
#398 = EDGE_CURVE ( 'NONE', #531, #557, #339, .T. ) ;
#399 = AXIS2_PLACEMENT_3D ( 'NONE', #61, #459, #629 ) ;
#400 = APPROVAL_PERSON_ORGANIZATION ( #207, #154, #64 ) ;
#401 = ORIENTED_EDGE ( 'NONE', *, *, #587, .T. ) ;
#402 = CARTESIAN_POINT ( 'NONE',  ( 127.0000000000000000, 5.000000000000000000, -150.0000000000000000 ) ) ;
#403 = ORIENTED_EDGE ( 'NONE', *, *, #123, .T. ) ;
#404 = DIRECTION ( 'NONE',  ( 0.0000000000000000000, 0.0000000000000000000, -1.000000000000000000 ) ) ;
#405 = LINE ( 'NONE', #495, #441 ) ;
#406 = ADVANCED_FACE ( 'NONE', ( #552 ), #548, .T. ) ;
#407 = FACE_OUTER_BOUND ( 'NONE', #227, .T. ) ;
#408 = CYLINDRICAL_SURFACE ( 'NONE', #260, 5.000000000000000000 ) ;
#409 = ORIENTED_EDGE ( 'NONE', *, *, #200, .T. ) ;
#410 = PLANE ( 'NONE',  #40 ) ;
#411 = AXIS2_PLACEMENT_3D ( 'NONE', #201, #610, #560 ) ;
#412 = VECTOR ( 'NONE', #535, 1000.000000000000000 ) ;
#413 = FACE_BOUND ( 'NONE', #647, .T. ) ;
#414 = FACE_OUTER_BOUND ( 'NONE', #346, .T. ) ;
#415 = EDGE_LOOP ( 'NONE', ( #149, #157 ) ) ;
#416 = PERSON_AND_ORGANIZATION_ROLE ( 'classification_officer' ) ;
#417 = CARTESIAN_POINT ( 'NONE',  ( 15.00000000000001066, 0.0000000000000000000, -131.7000000000000171 ) ) ;
#418 = ORIENTED_EDGE ( 'NONE', *, *, #135, .T. ) ;
#419 = APPROVAL_STATUS ( 'not_yet_approved' ) ;
#420 = CYLINDRICAL_SURFACE ( 'NONE', #195, 3.299999999999997158 ) ;
#421 = CALENDAR_DATE ( 2019, 14, 8 ) ;
#422 = DIRECTION ( 'NONE',  ( -0.0000000000000000000, -1.000000000000000000, -0.0000000000000000000 ) ) ;
#423 = EDGE_CURVE ( 'NONE', #128, #493, #598, .T. ) ;
#424 = VECTOR ( 'NONE', #225, 1000.000000000000000 ) ;
#425 = LOCAL_TIME ( 10, 51, 35.00000000000000000, #620 ) ;
#426 = DIRECTION ( 'NONE',  ( -1.000000000000000000, 0.0000000000000000000, -0.0000000000000000000 ) ) ;
#427 = COORDINATED_UNIVERSAL_TIME_OFFSET ( 8, 0, .BEHIND. ) ;
#428 = CARTESIAN_POINT ( 'NONE',  ( 5.000000000000000000, 0.0000000000000000000, -5.000000000000000000 ) ) ;
#429 = CARTESIAN_POINT ( 'NONE',  ( 132.0000000000000000, 5.000000000000000000, -145.0000000000000000 ) ) ;
#430 = APPLICATION_PROTOCOL_DEFINITION ( 'international standard', 'config_control_design', 1994, #272 ) ;
#431 = ORIENTED_EDGE ( 'NONE', *, *, #177, .F. ) ;
#432 = EDGE_CURVE ( 'NONE', #438, #381, #442, .T. ) ;
#433 = CARTESIAN_POINT ( 'NONE',  ( 15.00000000000001066, 0.0000000000000000000, -135.0000000000000000 ) ) ;
#434 = ORIENTED_EDGE ( 'NONE', *, *, #606, .T. ) ;
#435 = DIRECTION ( 'NONE',  ( 0.0000000000000000000, 0.0000000000000000000, -1.000000000000000000 ) ) ;
#436 = AXIS2_PLACEMENT_3D ( 'NONE', #288, #92, #85 ) ;
#437 = AXIS2_PLACEMENT_3D ( 'NONE', #468, #509, #565 ) ;
#438 = VERTEX_POINT ( 'NONE', #141 ) ;
#439 = ORIENTED_EDGE ( 'NONE', *, *, #375, .T. ) ;
#440 = EDGE_CURVE ( 'NONE', #309, #359, #302, .T. ) ;
#441 = VECTOR ( 'NONE', #500, 1000.000000000000000 ) ;
#442 = CIRCLE ( 'NONE', #651, 3.299999999999997158 ) ;
#443 = ORIENTED_EDGE ( 'NONE', *, *, #142, .F. ) ;
#444 = DIRECTION ( 'NONE',  ( 0.0000000000000000000, 1.000000000000000000, -0.0000000000000000000 ) ) ;
#445 = EDGE_CURVE ( 'NONE', #356, #335, #299, .T. ) ;
#446 = EDGE_LOOP ( 'NONE', ( #188, #326, #246, #278 ) ) ;
#447 = VERTEX_POINT ( 'NONE', #156 ) ;
#448 = CARTESIAN_POINT ( 'NONE',  ( 5.000000000000000000, 0.0000000000000000000, -150.0000000000000000 ) ) ;
#449 = VERTEX_POINT ( 'NONE', #364 ) ;
#450 = AXIS2_PLACEMENT_3D ( 'NONE', #352, #656, #503 ) ;
#451 = AXIS2_PLACEMENT_3D ( 'NONE', #555, #505, #155 ) ;
#452 = LOCAL_TIME ( 10, 51, 35.00000000000000000, #165 ) ;
#453 = EDGE_LOOP ( 'NONE', ( #553, #258 ) ) ;
#454 = DIRECTION ( 'NONE',  ( 0.0000000000000000000, -1.000000000000000000, 0.0000000000000000000 ) ) ;
#455 = EDGE_CURVE ( 'NONE', #582, #133, #559, .T. ) ;
#456 = LINE ( 'NONE', #362, #189 ) ;
#457 = FACE_OUTER_BOUND ( 'NONE', #65, .T. ) ;
#458 = EDGE_LOOP ( 'NONE', ( #182, #91, #164, #147, #502, #527, #242, #551 ) ) ;
#459 = DIRECTION ( 'NONE',  ( 0.0000000000000000000, -1.000000000000000000, 0.0000000000000000000 ) ) ;
#460 = APPROVAL ( #570, 'UNSPECIFIED' ) ;
#461 = CARTESIAN_POINT ( 'NONE',  ( 15.00000000000000355, 0.0000000000000000000, -15.00000000000000000 ) ) ;
#462 = DIRECTION ( 'NONE',  ( 0.0000000000000000000, -1.000000000000000000, 0.0000000000000000000 ) ) ;
#463 = ORIENTED_EDGE ( 'NONE', *, *, #625, .F. ) ;
#464 = DATE_TIME_ROLE ( 'classification_date' ) ;
#465 = FACE_OUTER_BOUND ( 'NONE', #212, .T. ) ;
#466 = CIRCLE ( 'NONE', #399, 5.000000000000004441 ) ;
#467 = CIRCLE ( 'NONE', #437, 5.000000000000004441 ) ;
#468 = CARTESIAN_POINT ( 'NONE',  ( 127.0000000000000000, 5.000000000000000000, -145.0000000000000000 ) ) ;
#469 = ORIENTED_EDGE ( 'NONE', *, *, #517, .T. ) ;
#470 = APPROVAL_ROLE ( '' ) ;
#471 = CARTESIAN_POINT ( 'NONE',  ( 127.0000000000000000, 5.000000000000000000, -150.0000000000000000 ) ) ;
#472 = ADVANCED_FACE ( 'NONE', ( #52 ), #664, .F. ) ;
#473 = DIRECTION ( 'NONE',  ( -0.0000000000000000000, -1.000000000000000000, 0.0000000000000000000 ) ) ;
#474 = APPROVAL_DATE_TIME ( #264, #262 ) ;
#475 = CARTESIAN_POINT ( 'NONE',  ( 0.0000000000000000000, 0.0000000000000000000, 0.0000000000000000000 ) ) ;
#476 = CARTESIAN_POINT ( 'NONE',  ( 0.0000000000000000000, 5.000000000000000000, 0.0000000000000000000 ) ) ;
#477 = CALENDAR_DATE ( 2019, 14, 8 ) ;
#478 = VECTOR ( 'NONE', #422, 1000.000000000000000 ) ;
#479 = CC_DESIGN_APPROVAL ( #460, ( #602 ) ) ;
#480 = CARTESIAN_POINT ( 'NONE',  ( 5.000000000000000000, 0.0000000000000000000, 0.0000000000000000000 ) ) ;
#481 = EDGE_CURVE ( 'NONE', #370, #396, #4, .T. ) ;
#482 = LINE ( 'NONE', #429, #66 ) ;
#483 = ORIENTED_EDGE ( 'NONE', *, *, #385, .F. ) ;
#484 = PRODUCT_DEFINITION ( 'UNKNOWN', '', #602, #90 ) ;
#485 = DIRECTION ( 'NONE',  ( -0.0000000000000000000, -1.000000000000000000, -0.0000000000000000000 ) ) ;
#486 = ORIENTED_EDGE ( 'NONE', *, *, #398, .F. ) ;
#487 = AXIS2_PLACEMENT_3D ( 'NONE', #392, #594, #343 ) ;
#488 = ORIENTED_EDGE ( 'NONE', *, *, #398, .T. ) ;
#489 = CIRCLE ( 'NONE', #271, 3.299999999999995826 ) ;
#490 = DIRECTION ( 'NONE',  ( 0.0000000000000000000, 0.0000000000000000000, -1.000000000000000000 ) ) ;
#491 = ADVANCED_FACE ( 'NONE', ( #376 ), #673, .T. ) ;
#492 = ORIENTED_EDGE ( 'NONE', *, *, #235, .F. ) ;
#493 = VERTEX_POINT ( 'NONE', #668 ) ;
#494 = VERTEX_POINT ( 'NONE', #116 ) ;
#495 = CARTESIAN_POINT ( 'NONE',  ( 132.0000000000000000, 5.000000000000000000, -5.000000000000000000 ) ) ;
#496 = AXIS2_PLACEMENT_3D ( 'NONE', #513, #119, #218 ) ;
#497 = EDGE_CURVE ( 'NONE', #180, #105, #136, .T. ) ;
#498 = DIRECTION ( 'NONE',  ( 0.0000000000000000000, 0.0000000000000000000, -1.000000000000000000 ) ) ;
#499 = VERTEX_POINT ( 'NONE', #108 ) ;
#500 = DIRECTION ( 'NONE',  ( 0.0000000000000000000, -1.000000000000000000, 0.0000000000000000000 ) ) ;
#501 = ORIENTED_EDGE ( 'NONE', *, *, #363, .T. ) ;
#502 = ORIENTED_EDGE ( 'NONE', *, *, #135, .F. ) ;
#503 = DIRECTION ( 'NONE',  ( 0.0000000000000000000, 0.0000000000000000000, -1.000000000000000000 ) ) ;
#504 = AXIS2_PLACEMENT_3D ( 'NONE', #506, #395, #194 ) ;
#505 = DIRECTION ( 'NONE',  ( 0.0000000000000000000, -1.000000000000000000, 0.0000000000000000000 ) ) ;
#506 = CARTESIAN_POINT ( 'NONE',  ( 15.00000000000001066, 2.939152317953660911E-16, -135.0000000000000000 ) ) ;
#507 = ORIENTED_EDGE ( 'NONE', *, *, #34, .F. ) ;
#508 = CYLINDRICAL_SURFACE ( 'NONE', #393, 3.299999999999997158 ) ;
#509 = DIRECTION ( 'NONE',  ( -0.0000000000000000000, 1.000000000000000000, -0.0000000000000000000 ) ) ;
#510 = VERTEX_POINT ( 'NONE', #632 ) ;
#511 = PERSON_AND_ORGANIZATION_ROLE ( 'design_supplier' ) ;
#512 = CARTESIAN_POINT ( 'NONE',  ( 0.0000000000000000000, 0.0000000000000000000, 0.0000000000000000000 ) ) ;
#513 = CARTESIAN_POINT ( 'NONE',  ( 117.0000000000000000, 2.939152317953660911E-16, -135.0000000000000000 ) ) ;
#514 = ORIENTED_EDGE ( 'NONE', *, *, #16, .F. ) ;
#515 = DATE_AND_TIME ( #477, #221 ) ;
#516 = DIRECTION ( 'NONE',  ( 0.0000000000000000000, -1.000000000000000000, 0.0000000000000000000 ) ) ;
#517 = EDGE_CURVE ( 'NONE', #449, #281, #324, .T. ) ;
#518 = AXIS2_PLACEMENT_3D ( 'NONE', #569, #462, #56 ) ;
#519 = CARTESIAN_POINT ( 'NONE',  ( 117.0000000000000000, 0.0000000000000000000, -135.0000000000000000 ) ) ;
#520 = COORDINATED_UNIVERSAL_TIME_OFFSET ( 8, 0, .BEHIND. ) ;
#521 = FACE_OUTER_BOUND ( 'NONE', #458, .T. ) ;
#522 = CARTESIAN_POINT ( 'NONE',  ( 0.0000000000000000000, 5.000000000000000000, 0.0000000000000000000 ) ) ;
#523 = CALENDAR_DATE ( 2019, 14, 8 ) ;
#524 = FACE_BOUND ( 'NONE', #612, .T. ) ;
#525 = DIRECTION ( 'NONE',  ( 0.0000000000000000000, 0.0000000000000000000, -1.000000000000000000 ) ) ;
#526 = EDGE_CURVE ( 'NONE', #224, #370, #467, .T. ) ;
#527 = ORIENTED_EDGE ( 'NONE', *, *, #89, .T. ) ;
#528 = VECTOR ( 'NONE', #287, 1000.000000000000000 ) ;
#529 = CIRCLE ( 'NONE', #518, 5.000000000000000000 ) ;
#530 = DIRECTION ( 'NONE',  ( 0.0000000000000000000, -1.000000000000000000, 0.0000000000000000000 ) ) ;
#531 = VERTEX_POINT ( 'NONE', #627 ) ;
#532 = CARTESIAN_POINT ( 'NONE',  ( 117.0000000000000000, 2.939152317953660911E-16, -15.00000000000000178 ) ) ;
#533 = ORIENTED_EDGE ( 'NONE', *, *, #432, .T. ) ;
#534 = DIRECTION ( 'NONE',  ( -0.0000000000000000000, -1.000000000000000000, -0.0000000000000000000 ) ) ;
#535 = DIRECTION ( 'NONE',  ( -0.0000000000000000000, 1.000000000000000000, -0.0000000000000000000 ) ) ;
#536 = ADVANCED_FACE ( 'NONE', ( #414 ), #163, .T. ) ;
#537 = AXIS2_PLACEMENT_3D ( 'NONE', #653, #33, #198 ) ;
#538 = AXIS2_PLACEMENT_3D ( 'NONE', #581, #122, #274 ) ;
#539 = ORIENTED_EDGE ( 'NONE', *, *, #249, .T. ) ;
#540 = CC_DESIGN_APPROVAL ( #262, ( #144 ) ) ;
#541 = DIRECTION ( 'NONE',  ( 0.0000000000000000000, 0.0000000000000000000, -1.000000000000000000 ) ) ;
#542 = ORIENTED_EDGE ( 'NONE', *, *, #576, .F. ) ;
#543 = CARTESIAN_POINT ( 'NONE',  ( 132.0000000000000000, 5.000000000000000000, 0.0000000000000000000 ) ) ;
#544 = ORIENTED_EDGE ( 'NONE', *, *, #323, .F. ) ;
#545 = DIRECTION ( 'NONE',  ( 0.0000000000000000000, -1.000000000000000000, 0.0000000000000000000 ) ) ;
#546 = EDGE_CURVE ( 'NONE', #356, #447, #529, .T. ) ;
#547 = EDGE_LOOP ( 'NONE', ( #87, #483 ) ) ;
#548 = CYLINDRICAL_SURFACE ( 'NONE', #593, 5.000000000000000000 ) ;
#549 = CIRCLE ( 'NONE', #450, 3.299999999999995826 ) ;
#550 = DIRECTION ( 'NONE',  ( 0.0000000000000000000, 0.0000000000000000000, -1.000000000000000000 ) ) ;
#551 = ORIENTED_EDGE ( 'NONE', *, *, #353, .T. ) ;
#552 = FACE_OUTER_BOUND ( 'NONE', #589, .T. ) ;
#553 = ORIENTED_EDGE ( 'NONE', *, *, #342, .F. ) ;
#554 = ADVANCED_FACE ( 'NONE', ( #49 ), #420, .F. ) ;
#555 = CARTESIAN_POINT ( 'NONE',  ( 117.0000000000000000, 5.000000000000000000, -15.00000000000000178 ) ) ;
#556 = CARTESIAN_POINT ( 'NONE',  ( 15.00000000000000355, 5.000000000000000000, -18.29999999999999716 ) ) ;
#557 = VERTEX_POINT ( 'NONE', #63 ) ;
#558 = AXIS2_PLACEMENT_3D ( 'NONE', #475, #6, #217 ) ;
#559 = CIRCLE ( 'NONE', #496, 3.299999999999997158 ) ;
#560 = DIRECTION ( 'NONE',  ( 0.0000000000000000000, 0.0000000000000000000, -1.000000000000000000 ) ) ;
#561 = CARTESIAN_POINT ( 'NONE',  ( 5.000000000000000000, 5.000000000000000000, -5.000000000000000000 ) ) ;
#562 = ORIENTED_EDGE ( 'NONE', *, *, #596, .T. ) ;
#563 = FACE_BOUND ( 'NONE', #453, .T. ) ;
#564 = DIRECTION ( 'NONE',  ( -0.0000000000000000000, -1.000000000000000000, -0.0000000000000000000 ) ) ;
#565 = DIRECTION ( 'NONE',  ( 0.0000000000000000000, 0.0000000000000000000, -1.000000000000000000 ) ) ;
#566 = ORIENTED_EDGE ( 'NONE', *, *, #312, .F. ) ;
#567 = CARTESIAN_POINT ( 'NONE',  ( 117.0000000000000000, 0.0000000000000000000, -15.00000000000000178 ) ) ;
#568 = ADVANCED_FACE ( 'NONE', ( #263 ), #408, .T. ) ;
#569 = CARTESIAN_POINT ( 'NONE',  ( 127.0000000000000000, 0.0000000000000000000, -5.000000000000000000 ) ) ;
#570 = APPROVAL_STATUS ( 'not_yet_approved' ) ;
#571 = LINE ( 'NONE', #471, #659 ) ;
#572 = CC_DESIGN_DATE_AND_TIME_ASSIGNMENT ( #515, #219, ( #484 ) ) ;
#573 = AXIS2_PLACEMENT_3D ( 'NONE', #567, #102, #322 ) ;
#574 = DIRECTION ( 'NONE',  ( -0.0000000000000000000, -0.0000000000000000000, 1.000000000000000000 ) ) ;
#575 = CARTESIAN_POINT ( 'NONE',  ( 0.0000000000000000000, 0.0000000000000000000, 0.0000000000000000000 ) ) ;
#576 = EDGE_CURVE ( 'NONE', #510, #654, #168, .T. ) ;
#577 = DIRECTION ( 'NONE',  ( -0.0000000000000000000, -1.000000000000000000, -0.0000000000000000000 ) ) ;
#578 = DATE_AND_TIME ( #315, #78 ) ;
#579 = ORIENTED_EDGE ( 'NONE', *, *, #481, .T. ) ;
#580 = FACE_OUTER_BOUND ( 'NONE', #138, .T. ) ;
#581 = CARTESIAN_POINT ( 'NONE',  ( 117.0000000000000000, 0.0000000000000000000, -135.0000000000000000 ) ) ;
#582 = VERTEX_POINT ( 'NONE', #104 ) ;
#583 = AXIS2_PLACEMENT_3D ( 'NONE', #181, #485, #379 ) ;
#584 = AXIS2_PLACEMENT_3D ( 'NONE', #231, #21, #435 ) ;
#585 = LINE ( 'NONE', #390, #283 ) ;
#586 = ORIENTED_EDGE ( 'NONE', *, *, #596, .F. ) ;
#587 = EDGE_CURVE ( 'NONE', #240, #105, #308, .T. ) ;
#588 = CARTESIAN_POINT ( 'NONE',  ( 0.0000000000000000000, 5.000000000000000000, 0.0000000000000000000 ) ) ;
#589 = EDGE_LOOP ( 'NONE', ( #206, #14, #185, #566 ) ) ;
#590 = EDGE_CURVE ( 'NONE', #494, #50, #368, .T. ) ;
#591 = DIRECTION ( 'NONE',  ( 1.000000000000000000, -0.0000000000000000000, 0.0000000000000000000 ) ) ;
#592 = VECTOR ( 'NONE', #534, 1000.000000000000000 ) ;
#593 = AXIS2_PLACEMENT_3D ( 'NONE', #394, #88, #498 ) ;
#594 = DIRECTION ( 'NONE',  ( 0.0000000000000000000, -1.000000000000000000, 0.0000000000000000000 ) ) ;
#595 = PRODUCT_DEFINITION_SHAPE ( 'NONE', 'NONE',  #484 ) ;
#596 = EDGE_CURVE ( 'NONE', #510, #330, #132, .T. ) ;
#597 = DIRECTION ( 'NONE',  ( 0.0000000000000000000, 0.0000000000000000000, -1.000000000000000000 ) ) ;
#598 = LINE ( 'NONE', #397, #236 ) ;
#599 = ORIENTED_EDGE ( 'NONE', *, *, #297, .F. ) ;
#600 = CARTESIAN_POINT ( 'NONE',  ( 117.0000000000000000, 0.0000000000000000000, -138.3000000000000114 ) ) ;
#601 = VECTOR ( 'NONE', #444, 1000.000000000000000 ) ;
#602 = PRODUCT_DEFINITION_FORMATION_WITH_SPECIFIED_SOURCE ( 'ANY', '', #214, .NOT_KNOWN. ) ;
#603 = ORIENTED_EDGE ( 'NONE', *, *, #587, .F. ) ;
#604 = CARTESIAN_POINT ( 'NONE',  ( 15.00000000000001066, 5.000000000000000000, -138.3000000000000114 ) ) ;
#605 = EDGE_LOOP ( 'NONE', ( #599, #409, #644, #137 ) ) ;
#606 = EDGE_CURVE ( 'NONE', #447, #50, #646, .T. ) ;
#607 = CARTESIAN_POINT ( 'NONE',  ( 0.0000000000000000000, 0.0000000000000000000, -5.000000000000000000 ) ) ;
#608 = LINE ( 'NONE', #600, #630 ) ;
#609 = ORIENTED_EDGE ( 'NONE', *, *, #228, .T. ) ;
#610 = DIRECTION ( 'NONE',  ( -0.0000000000000000000, -1.000000000000000000, -0.0000000000000000000 ) ) ;
#611 = DIRECTION ( 'NONE',  ( 0.0000000000000000000, -1.000000000000000000, 0.0000000000000000000 ) ) ;
#612 = EDGE_LOOP ( 'NONE', ( #514, #338 ) ) ;
#613 = DIRECTION ( 'NONE',  ( 0.0000000000000000000, -1.000000000000000000, 0.0000000000000000000 ) ) ;
#614 = AXIS2_PLACEMENT_3D ( 'NONE', #367, #107, #303 ) ;
#615 = VECTOR ( 'NONE', #618, 1000.000000000000000 ) ;
#616 = DIRECTION ( 'NONE',  ( 0.0000000000000000000, 0.0000000000000000000, -1.000000000000000000 ) ) ;
#617 = EDGE_CURVE ( 'NONE', #493, #1, #489, .T. ) ;
#618 = DIRECTION ( 'NONE',  ( -0.0000000000000000000, -1.000000000000000000, -0.0000000000000000000 ) ) ;
#619 = ORIENTED_EDGE ( 'NONE', *, *, #58, .T. ) ;
#620 = COORDINATED_UNIVERSAL_TIME_OFFSET ( 8, 0, .BEHIND. ) ;
#621 = DIRECTION ( 'NONE',  ( 1.000000000000000000, 0.0000000000000000000, 0.0000000000000000000 ) ) ;
#622 = DIRECTION ( 'NONE',  ( 0.0000000000000000000, 0.0000000000000000000, -1.000000000000000000 ) ) ;
#623 = ORIENTED_EDGE ( 'NONE', *, *, #643, .F. ) ;
#624 = APPROVAL_ROLE ( '' ) ;
#625 = EDGE_CURVE ( 'NONE', #281, #396, #585, .T. ) ;
#626 = CARTESIAN_POINT ( 'NONE',  ( 117.0000000000000000, 5.000000000000000000, -11.70000000000000462 ) ) ;
#627 = CARTESIAN_POINT ( 'NONE',  ( 15.00000000000001066, 2.939152317953660911E-16, -131.7000000000000171 ) ) ;
#628 =( NAMED_UNIT ( * ) SI_UNIT ( $, .STERADIAN. ) SOLID_ANGLE_UNIT ( ) );
#629 = DIRECTION ( 'NONE',  ( 0.0000000000000000000, 0.0000000000000000000, -1.000000000000000000 ) ) ;
#630 = VECTOR ( 'NONE', #152, 1000.000000000000000 ) ;
#631 = VECTOR ( 'NONE', #574, 1000.000000000000000 ) ;
#632 = CARTESIAN_POINT ( 'NONE',  ( 0.0000000000000000000, 5.000000000000000000, -145.0000000000000000 ) ) ;
#633 = PERSON_AND_ORGANIZATION_ROLE ( 'design_owner' ) ;
#634 = DIRECTION ( 'NONE',  ( 0.0000000000000000000, 0.0000000000000000000, -1.000000000000000000 ) ) ;
#635 = PRODUCT_RELATED_PRODUCT_CATEGORY ( 'detail', '', ( #214 ) ) ;
#636 = DIRECTION ( 'NONE',  ( -0.0000000000000000000, 1.000000000000000000, -0.0000000000000000000 ) ) ;
#637 = DATE_AND_TIME ( #523, #349 ) ;
#638 = ORIENTED_EDGE ( 'NONE', *, *, #576, .T. ) ;
#639 = CARTESIAN_POINT ( 'NONE',  ( 117.0000000000000000, 0.0000000000000000000, -131.7000000000000171 ) ) ;
#640 = ORIENTED_EDGE ( 'NONE', *, *, #353, .F. ) ;
#641 = CIRCLE ( 'NONE', #348, 3.300000000000000711 ) ;
#642 = AXIS2_PLACEMENT_3D ( 'NONE', #318, #13, #117 ) ;
#643 = EDGE_CURVE ( 'NONE', #296, #240, #172, .T. ) ;
#644 = ORIENTED_EDGE ( 'NONE', *, *, #455, .T. ) ;
#645 = DIRECTION ( 'NONE',  ( -0.0000000000000000000, -1.000000000000000000, -0.0000000000000000000 ) ) ;
#646 = LINE ( 'NONE', #334, #412 ) ;
#647 = EDGE_LOOP ( 'NONE', ( #46, #237 ) ) ;
#648 = ORIENTED_EDGE ( 'NONE', *, *, #497, .T. ) ;
#649 = EDGE_CURVE ( 'NONE', #240, #296, #208, .T. ) ;
#650 = AXIS2_PLACEMENT_3D ( 'NONE', #663, #307, #404 ) ;
#651 = AXIS2_PLACEMENT_3D ( 'NONE', #146, #95, #597 ) ;
#652 = CC_DESIGN_PERSON_AND_ORGANIZATION_ASSIGNMENT ( #321, #633, ( #214 ) ) ;
#653 = CARTESIAN_POINT ( 'NONE',  ( 5.000000000000000000, 0.0000000000000000000, -145.0000000000000000 ) ) ;
#654 = VERTEX_POINT ( 'NONE', #69 ) ;
#655 = DIRECTION ( 'NONE',  ( 0.0000000000000000000, 0.0000000000000000000, -1.000000000000000000 ) ) ;
#656 = DIRECTION ( 'NONE',  ( 0.0000000000000000000, -1.000000000000000000, 0.0000000000000000000 ) ) ;
#657 = EDGE_LOOP ( 'NONE', ( #443, #486 ) ) ;
#658 = EDGE_CURVE ( 'NONE', #396, #510, #340, .T. ) ;
#659 = VECTOR ( 'NONE', #613, 1000.000000000000000 ) ;
#660 = VECTOR ( 'NONE', #59, 1000.000000000000000 ) ;
#661 = CARTESIAN_POINT ( 'NONE',  ( 117.0000000000000000, 2.939152317953660911E-16, -18.29999999999999716 ) ) ;
#662 = CARTESIAN_POINT ( 'NONE',  ( 0.0000000000000000000, 5.000000000000000000, -5.000000000000000000 ) ) ;
#663 = CARTESIAN_POINT ( 'NONE',  ( 15.00000000000001066, 0.0000000000000000000, -135.0000000000000000 ) ) ;
#664 = PLANE ( 'NONE',  #361 ) ;
#665 = EDGE_LOOP ( 'NONE', ( #418, #434, #24, #619 ) ) ;
#666 = ADVANCED_FACE ( 'NONE', ( #277 ), #380, .F. ) ;
#667 = PLANE ( 'NONE',  #614 ) ;
#668 = CARTESIAN_POINT ( 'NONE',  ( 117.0000000000000000, 2.939152317953660911E-16, -11.70000000000000462 ) ) ;
#669 = ORIENTED_EDGE ( 'NONE', *, *, #333, .T. ) ;
#670 =( NAMED_UNIT ( * ) PLANE_ANGLE_UNIT ( ) SI_UNIT ( $, .RADIAN. ) );
#671 = LINE ( 'NONE', #417, #10 ) ;
#672 = VECTOR ( 'NONE', #550, 1000.000000000000000 ) ;
#673 = CYLINDRICAL_SURFACE ( 'NONE', #114, 5.000000000000004441 ) ;
ENDSEC;
END-ISO-10303-21;
